<?xml version="1.0" standalone="no"?>
<!DOCTYPE svg PUBLIC "-//W3C//DTD SVG 1.1//EN" "http://www.w3.org/Graphics/SVG/1.1/DTD/svg11.dtd" >
<svg>
<metadata>
Created by FontForge 20090622 at Fri May  8 19:20:30 2020
 By deploy user
Copyright 2016 The Muli Project Authors (https://github.com/googlefonts/MuliFont)
</metadata>
<defs>
<font id="Muli-Regular" horiz-adv-x="600" >
  <font-face 
    font-family="Muli"
    font-weight="400"
    font-stretch="normal"
    units-per-em="1000"
    panose-1="0 0 0 0 0 0 0 0 0 0"
    ascent="800"
    descent="-200"
    x-height="502"
    cap-height="712"
    bbox="-203 -273 1289 1088"
    underline-thickness="50"
    underline-position="-75"
    unicode-range="U+000D-U+FB02"
  />
    <missing-glyph />
    <glyph glyph-name="fi" unicode="fi" horiz-adv-x="573" 
d="M404 721h101v-94h-101v94zM495 503v-503h-81v439h-407v64h488zM105 0v570q0 60 18.5 97t60.5 54.5t114 17.5h32v-63h-25q-49 0 -75 -9t-35 -35t-9 -78v-554h-81z" />
    <glyph glyph-name="fl" unicode="fl" horiz-adv-x="575" 
d="M7 439v64h302v-64h-302zM323 662q-28 8 -52 8t-43.5 -8.5t-30.5 -30.5t-11 -61v-570h-81v580q0 81 40 120.5t110 39.5q17 0 34 -2t34 -7v-69zM415 0v736h81v-736h-81z" />
    <glyph glyph-name="circumflexcomb_tildecomb.case" horiz-adv-x="500" 
d="M50 -216h400v952h-400v-952zM100 -166v852h300v-852h-300z" />
    <glyph glyph-name="A" unicode="A" horiz-adv-x="734" 
d="M103 0h-85l313 712h72l313 -712h-84l-279 652h30zM151 183l29 68h374l29 -68h-432z" />
    <glyph glyph-name="Aacute" unicode="&#xc1;" horiz-adv-x="734" 
d="M103 0h-85l313 712h72l313 -712h-84l-279 652h30zM151 183l29 68h374l29 -68h-432zM395 773h-57l102 153h89z" />
    <glyph glyph-name="Abreve" unicode="&#x102;" horiz-adv-x="734" 
d="M103 0h-85l313 712h72l313 -712h-84l-279 652h30zM151 183l29 68h374l29 -68h-432zM367 785q-53 0 -97.5 24t-67.5 83l51 22q24 -43 52 -57t62 -14t61.5 14t51.5 57l51 -22q-24 -59 -68 -83t-96 -24z" />
    <glyph glyph-name="uni1EAE" unicode="&#x1eae;" horiz-adv-x="734" 
d="M103 0h-85l313 712h72l313 -712h-84l-279 652h30zM151 183l29 68h374l29 -68h-432zM367 768q-53 0 -97.5 24t-67.5 83l47 20q24 -42 53.5 -57.5t64.5 -15.5q34 0 63.5 15.5t53.5 57.5l47 -20q-24 -59 -68 -83t-96 -24zM394 877h-55l101 142h86z" />
    <glyph glyph-name="uni1EB6" unicode="&#x1eb6;" horiz-adv-x="734" 
d="M103 0h-85l313 712h72l313 -712h-84l-279 652h30zM151 183l29 68h374l29 -68h-432zM321 -95h93v-89h-93v89zM367 785q-53 0 -97.5 24t-67.5 83l51 22q24 -43 52 -57t62 -14t61.5 14t51.5 57l51 -22q-24 -59 -68 -83t-96 -24z" />
    <glyph glyph-name="uni1EB0" unicode="&#x1eb0;" horiz-adv-x="734" 
d="M103 0h-85l313 712h72l313 -712h-84l-279 652h30zM151 183l29 68h374l29 -68h-432zM367 768q-53 0 -97 24t-68 83l47 20q24 -42 53.5 -57.5t64.5 -15.5q34 0 63.5 15.5t53.5 57.5l47 -20q-23 -59 -67.5 -83t-96.5 -24zM339 877l-132 142h86l101 -142h-55z" />
    <glyph glyph-name="uni1EB2" unicode="&#x1eb2;" horiz-adv-x="734" 
d="M103 0h-85l313 712h72l313 -712h-84l-279 652h30zM151 183l29 68h374l29 -68h-432zM367 768q-53 0 -97 24t-68 83l47 20q24 -42 53.5 -57.5t64.5 -15.5q34 0 63.5 15.5t53.5 57.5l47 -20q-23 -59 -67.5 -83t-96.5 -24zM394 886v-9h-54v17q0 17 10 26t23.5 14.5l24 10
t10.5 13.5t-10.5 14t-30.5 5q-14 0 -29 -2.5t-33 -9.5l-14 42q18 8 39 13t43 5q47 0 73 -18t26 -46q0 -19 -12 -28.5t-27 -15.5t-27 -12.5t-12 -18.5z" />
    <glyph glyph-name="uni1EB4" unicode="&#x1eb4;" horiz-adv-x="734" 
d="M103 0h-85l313 712h72l313 -712h-84l-279 652h30zM151 183l29 68h374l29 -68h-432zM367 768q-53 0 -97 24t-68 83l47 20q24 -42 53.5 -57.5t64.5 -15.5q34 0 63.5 15.5t53.5 57.5l47 -20q-23 -59 -67.5 -83t-96.5 -24zM204 923q0 32 11.5 55t31.5 36t47 13q28 0 53.5 -13
t48 -26t41.5 -13q23 0 35 15t12 34h45q0 -30 -11.5 -53.5t-31.5 -37t-47 -13.5q-28 0 -53.5 13.5l-48 26.5t-41.5 13q-23 0 -35 -15t-12 -35h-45z" />
    <glyph glyph-name="Acircumflex" unicode="&#xc2;" horiz-adv-x="734" 
d="M103 0h-85l313 712h72l313 -712h-84l-279 652h30zM151 183l29 68h374l29 -68h-432zM293 773h-74l120 153h55l120 -153h-74l-73 104z" />
    <glyph glyph-name="uni1EA4" unicode="&#x1ea4;" horiz-adv-x="734" 
d="M103 0h-85l313 712h72l313 -712h-84l-279 652h30zM151 183l29 68h374l29 -68h-432zM293 773h-74l120 148h55l120 -148h-74l-73 100zM502 877h-50l92 142h86z" />
    <glyph glyph-name="uni1EAC" unicode="&#x1eac;" horiz-adv-x="734" 
d="M103 0h-85l313 712h72l313 -712h-84l-279 652h30zM151 183l29 68h374l29 -68h-432zM321 -95h93v-89h-93v89zM293 773h-74l120 153h55l120 -153h-74l-73 104z" />
    <glyph glyph-name="uni1EA6" unicode="&#x1ea6;" horiz-adv-x="734" 
d="M103 0h-85l313 712h72l313 -712h-84l-279 652h30zM151 183l29 68h374l29 -68h-432zM293 773h-74l120 148h55l120 -148h-74l-73 100zM495 877l-113 142h85l78 -142h-50z" />
    <glyph glyph-name="uni1EA8" unicode="&#x1ea8;" horiz-adv-x="734" 
d="M103 0h-85l313 712h72l313 -712h-84l-279 652h30zM151 183l29 68h374l29 -68h-432zM293 773h-74l120 148h55l120 -148h-74l-73 100zM505 886v-9h-54v17q0 17 10 26t23.5 14.5l24 10t10.5 13.5t-10.5 14t-30.5 5q-14 0 -29 -2.5t-33 -9.5l-14 42q18 8 39 13t43 5
q47 0 73.5 -18t26.5 -46q0 -19 -12 -28.5t-27.5 -15.5t-27.5 -12.5t-12 -18.5z" />
    <glyph glyph-name="uni1EAA" unicode="&#x1eaa;" horiz-adv-x="734" 
d="M103 0h-85l313 712h72l313 -712h-84l-279 652h30zM151 183l29 68h374l29 -68h-432zM293 773h-74l120 148h55l120 -148h-74l-73 100zM204 936q0 29 11.5 51.5t31.5 35t47 12.5q28 0 53.5 -10.5t48 -21.5t41.5 -11q23 0 35 14t12 31h45q0 -29 -11.5 -51.5t-31.5 -35.5
t-47 -13q-28 0 -53.5 11t-48 22t-41.5 11q-23 0 -35 -14t-12 -31h-45z" />
    <glyph glyph-name="uni0200" unicode="&#x200;" horiz-adv-x="734" 
d="M103 0h-85l313 712h72l313 -712h-84l-279 652h30zM151 183l29 68h374l29 -68h-432zM405 773l-99 153h72l71 -153h-44zM284 773l-98 153h70l72 -153h-44z" />
    <glyph glyph-name="Adieresis" unicode="&#xc4;" horiz-adv-x="734" 
d="M103 0h-85l313 712h72l313 -712h-84l-279 652h30zM151 183l29 68h374l29 -68h-432zM408 893h90v-86h-90v86zM235 893h90v-86h-90v86z" />
    <glyph glyph-name="uni1EA0" unicode="&#x1ea0;" horiz-adv-x="734" 
d="M103 0h-85l313 712h72l313 -712h-84l-279 652h30zM151 183l29 68h374l29 -68h-432zM321 -95h93v-89h-93v89z" />
    <glyph glyph-name="Agrave" unicode="&#xc0;" horiz-adv-x="734" 
d="M103 0h-85l313 712h72l313 -712h-84l-279 652h30zM151 183l29 68h374l29 -68h-432zM338 773l-134 153h89l102 -153h-57z" />
    <glyph glyph-name="uni1EA2" unicode="&#x1ea2;" horiz-adv-x="734" 
d="M103 0h-85l313 712h72l313 -712h-84l-279 652h30zM151 183l29 68h374l29 -68h-432zM394 783v-10h-54v18q0 17 10 27t23.5 16.5t24 13t10.5 15.5t-10.5 14t-30.5 5q-14 0 -29 -2.5t-33 -9.5l-14 43q18 8 39 12.5t43 4.5q47 0 73 -18t26 -46q0 -20 -12 -31t-27 -18
t-27 -14.5t-12 -19.5z" />
    <glyph glyph-name="uni0202" unicode="&#x202;" horiz-adv-x="734" 
d="M103 0h-85l313 712h72l313 -712h-84l-279 652h30zM151 183l29 68h374l29 -68h-432zM367 915q52 0 96.5 -24.5t67.5 -82.5l-51 -22q-24 42 -51.5 56.5t-61.5 14.5t-62 -14.5t-52 -56.5l-51 22q24 58 68 82.5t97 24.5z" />
    <glyph glyph-name="Amacron" unicode="&#x100;" horiz-adv-x="734" 
d="M103 0h-85l313 712h72l313 -712h-84l-279 652h30zM151 183l29 68h374l29 -68h-432zM215 819v62h303v-62h-303z" />
    <glyph glyph-name="Aogonek" unicode="&#x104;" horiz-adv-x="734" 
d="M151 183l29 68h374l29 -68h-432zM733 -124l17 -48q-17 -10 -39 -16.5t-47 -6.5q-53 0 -86 30t-33 76q0 44 28.5 78t81.5 48l-23 -37l-279 652h30l-280 -652h-85l313 712h72l313 -712h-19q-45 0 -66.5 -23t-21.5 -55q0 -31 18 -47t48 -16q13 0 28 4t30 13z" />
    <glyph glyph-name="Aring" unicode="&#xc5;" horiz-adv-x="734" 
d="M368 681q-43 0 -72.5 28.5t-29.5 71.5q0 42 29.5 71t72.5 29q42 0 72 -29t30 -71q0 -43 -30 -71.5t-72 -28.5zM368 730q21 0 34.5 14.5t13.5 36.5q0 21 -13.5 35.5t-34.5 14.5q-22 0 -35.5 -14.5t-13.5 -35.5q0 -22 13.5 -36.5t35.5 -14.5zM103 0h-85l313 712h72
l313 -712h-84l-279 652h30zM151 183l29 68h374l29 -68h-432z" />
    <glyph glyph-name="Aringacute" unicode="&#x1fa;" horiz-adv-x="734" 
d="M18 0l313 712h72l313 -712h-84l-279 652h30l-280 -652h-85zM151 183l29 68h374l29 -68h-432zM368 681q-43 0 -72.5 28.5t-29.5 71.5q0 42 29.5 71t72.5 29q42 0 72 -29t30 -71q0 -43 -30 -71.5t-72 -28.5zM368 730q21 0 34.5 14.5t13.5 36.5q0 21 -13.5 35.5t-34.5 14.5
q-22 0 -35.5 -14.5t-13.5 -35.5q0 -22 13.5 -36.5t35.5 -14.5zM445 825l-41 25l97 100h92z" />
    <glyph glyph-name="Atilde" unicode="&#xc3;" horiz-adv-x="734" 
d="M103 0h-85l313 712h72l313 -712h-84l-279 652h30zM151 183l29 68h374l29 -68h-432zM204 794q0 56 25 86t65 30q28 0 53.5 -14.5t48 -29t41.5 -14.5q23 0 35 16.5t12 38.5h45q0 -56 -25 -86t-65 -30q-28 0 -53.5 14.5t-48 29t-41.5 14.5q-23 0 -35 -16.5t-12 -38.5h-45z
" />
    <glyph glyph-name="AE" unicode="&#xc6;" horiz-adv-x="1001" 
d="M-2 0l433 712h520v-69h-502l27 12l-388 -655h-90zM144 183l29 68h390l16 -68h-435zM559 0l-59 675h74l54 -606h323v-69h-392zM566 327v69h365v-69h-365z" />
    <glyph glyph-name="AEacute" unicode="&#x1fc;" horiz-adv-x="1001" 
d="M-2 0l433 712h520v-69h-502l27 12l-388 -655h-90zM144 183l29 68h390l16 -68h-435zM559 0l-59 675h74l54 -606h323v-69h-392zM566 327v69h365v-69h-365zM531 773h-57l102 153h89z" />
    <glyph glyph-name="B" unicode="B" horiz-adv-x="681" 
d="M88 0v712h286q108 0 169 -48.5t61 -137.5q0 -62 -33.5 -104.5t-92.5 -60.5v8q67 -13 105 -59t38 -116q0 -94 -62 -144t-175 -50h-296zM169 68h208q84 0 123.5 31t39.5 97q0 65 -40 98t-123 33h-208v-259zM169 396h192q81 0 121.5 32t40.5 94q0 61 -40 91.5t-122 30.5
h-192v-248z" />
    <glyph glyph-name="C" unicode="C" horiz-adv-x="684" 
d="M392 -8q-102 0 -176 44t-114 126t-40 195t40 194t114 125t176 44q73 0 135 -22.5t107 -67.5l-31 -63q-51 44 -101 63t-109 19q-117 0 -181.5 -76t-64.5 -216q0 -141 64 -217.5t182 -76.5q59 0 109 19t101 63l31 -63q-45 -45 -107 -67.5t-135 -22.5z" />
    <glyph glyph-name="Cacute" unicode="&#x106;" horiz-adv-x="684" 
d="M392 -8q-102 0 -176 44t-114 126t-40 195t40 194t114 125t176 44q73 0 135 -22.5t107 -67.5l-31 -63q-51 44 -101 63t-109 19q-117 0 -181.5 -76t-64.5 -216q0 -141 64 -217.5t182 -76.5q59 0 109 19t101 63l31 -63q-45 -45 -107 -67.5t-135 -22.5zM418 773h-57l102 153
h89z" />
    <glyph glyph-name="Ccaron" unicode="&#x10c;" horiz-adv-x="684" 
d="M392 -8q-102 0 -176 44t-114 126t-40 195t40 194t114 125t176 44q73 0 135 -22.5t107 -67.5l-31 -63q-51 44 -101 63t-109 19q-117 0 -181.5 -76t-64.5 -216q0 -141 64 -217.5t182 -76.5q59 0 109 19t101 63l31 -63q-45 -45 -107 -67.5t-135 -22.5zM463 926h74l-120 -153
h-55l-120 153h74l74 -105z" />
    <glyph glyph-name="Ccedilla" unicode="&#xc7;" horiz-adv-x="684" 
d="M392 -8q-102 0 -176 44t-114 126t-40 195t40 194t114 125t176 44q73 0 135 -22.5t107 -67.5l-31 -63q-51 44 -101 63t-109 19q-117 0 -181.5 -76t-64.5 -216q0 -141 64 -217.5t182 -76.5q59 0 109 19t101 63l31 -63q-45 -45 -107 -67.5t-135 -22.5zM387 -195
q-20 0 -45 4.5t-44 14.5l13 44q21 -8 39.5 -11t36.5 -3q28 0 42 9.5t14 25.5q0 27 -35 27q-13 0 -24.5 -2.5t-21.5 -6.5l-20 16l11 97h57l-8 -73l-25 2q13 5 25.5 7.5t24.5 2.5q29 0 53 -17t24 -53t-30.5 -60t-86.5 -24z" />
    <glyph glyph-name="uni1E08" unicode="&#x1e08;" horiz-adv-x="684" 
d="M392 -8q-102 0 -176 44t-114 126t-40 195t40 194t114 125t176 44q73 0 135 -22.5t107 -67.5l-31 -63q-51 44 -101 63t-109 19q-117 0 -181.5 -76t-64.5 -216q0 -141 64 -217.5t182 -76.5q59 0 109 19t101 63l31 -63q-45 -45 -107 -67.5t-135 -22.5zM387 -195
q-20 0 -45 4.5t-44 14.5l13 44q21 -8 39.5 -11t36.5 -3q28 0 42 9.5t14 25.5q0 27 -35 27q-13 0 -24.5 -2.5t-21.5 -6.5l-20 16l11 97h57l-8 -73l-25 2q13 5 25.5 7.5t24.5 2.5q29 0 53 -17t24 -53t-30.5 -60t-86.5 -24zM418 773h-57l102 153h89z" />
    <glyph glyph-name="Ccircumflex" unicode="&#x108;" horiz-adv-x="684" 
d="M392 -8q-102 0 -176 44t-114 126t-40 195t40 194t114 125t176 44q73 0 135 -22.5t107 -67.5l-31 -63q-51 44 -101 63t-109 19q-117 0 -181.5 -76t-64.5 -216q0 -141 64 -217.5t182 -76.5q59 0 109 19t101 63l31 -63q-45 -45 -107 -67.5t-135 -22.5zM316 773h-74l120 153
h55l120 -153h-74l-73 104z" />
    <glyph glyph-name="Cdotaccent" unicode="&#x10a;" horiz-adv-x="684" 
d="M392 -8q-102 0 -176 44t-114 126t-40 195t40 194t114 125t176 44q73 0 135 -22.5t107 -67.5l-31 -63q-51 44 -101 63t-109 19q-117 0 -181.5 -76t-64.5 -216q0 -141 64 -217.5t182 -76.5q59 0 109 19t101 63l31 -63q-45 -45 -107 -67.5t-135 -22.5zM340 896h99v-92h-99
v92z" />
    <glyph glyph-name="D" unicode="D" horiz-adv-x="746" 
d="M88 0v712h239q114 0 194 -41.5t122 -121t42 -192.5q0 -114 -42.5 -193.5t-122.5 -121.5t-193 -42h-239zM170 70h152q138 0 207.5 72t69.5 215q0 285 -277 285h-152v-572z" />
    <glyph glyph-name="uni01C4" unicode="&#x1c4;" horiz-adv-x="1327" 
d="M88 0v712h239q114 0 194 -41.5t122 -121t42 -192.5q0 -114 -42.5 -193.5t-122.5 -121.5t-193 -42h-239zM170 70h152q138 0 207.5 72t69.5 215q0 285 -277 285h-152v-572zM776 0v61l437 624l-2 -42h-435v69h503v-60l-437 -625l2 42h445v-69h-513zM1101 926h74l-120 -153
h-55l-120 153h74l74 -105z" />
    <glyph glyph-name="Eth" unicode="&#xd0;" horiz-adv-x="760" 
d="M8 328v66h370v-66h-370zM101 0v712h239q114 0 194 -41.5t122 -121t42 -192.5q0 -114 -42 -193.5t-122 -121.5t-194 -42h-239zM184 70h152q138 0 207.5 72t69.5 215q0 285 -277 285h-152v-572z" />
    <glyph glyph-name="Dcaron" unicode="&#x10e;" horiz-adv-x="746" 
d="M88 0v712h239q114 0 194 -41.5t122 -121t42 -192.5q0 -114 -42.5 -193.5t-122.5 -121.5t-193 -42h-239zM170 70h152q138 0 207.5 72t69.5 215q0 285 -277 285h-152v-572zM446 926h74l-120 -153h-55l-120 153h74l74 -105z" />
    <glyph glyph-name="Dcroat" unicode="&#x110;" horiz-adv-x="760" 
d="M8 328v66h370v-66h-370zM101 0v712h239q114 0 194 -41.5t122 -121t42 -192.5q0 -114 -42 -193.5t-122 -121.5t-194 -42h-239zM184 70h152q138 0 207.5 72t69.5 215q0 285 -277 285h-152v-572z" />
    <glyph glyph-name="uni1E0C" unicode="&#x1e0c;" horiz-adv-x="746" 
d="M88 0v712h239q114 0 194 -41.5t122 -121t42 -192.5q0 -114 -42.5 -193.5t-122.5 -121.5t-193 -42h-239zM170 70h152q138 0 207.5 72t69.5 215q0 285 -277 285h-152v-572zM326 -95h93v-89h-93v89z" />
    <glyph glyph-name="uni1E0E" unicode="&#x1e0e;" horiz-adv-x="746" 
d="M88 0v712h239q114 0 194 -41.5t122 -121t42 -192.5q0 -114 -42.5 -193.5t-122.5 -121.5t-193 -42h-239zM170 70h152q138 0 207.5 72t69.5 215q0 285 -277 285h-152v-572zM221 -170v60h303v-60h-303z" />
    <glyph glyph-name="uni01C5" unicode="&#x1c5;" horiz-adv-x="1264" 
d="M88 0v712h239q114 0 194 -41.5t122 -121t42 -192.5q0 -114 -42.5 -193.5t-122.5 -121.5t-193 -42h-239zM170 70h152q138 0 207.5 72t69.5 215q0 285 -277 285h-152v-572zM796 0v56l344 416l13 -33h-346v64h403v-59l-342 -414l-11 34h364v-64h-425zM1082 772h75l-119 -204
h-57l-119 204h75l73 -145z" />
    <glyph glyph-name="E" unicode="E" horiz-adv-x="588" 
d="M88 0v712h450v-68h-369v-248h349v-69h-349v-259h369v-68h-450z" />
    <glyph glyph-name="Eacute" unicode="&#xc9;" horiz-adv-x="588" 
d="M88 0v712h450v-68h-369v-248h349v-69h-349v-259h369v-68h-450zM355 773h-57l102 153h89z" />
    <glyph glyph-name="Ebreve" unicode="&#x114;" horiz-adv-x="588" 
d="M88 0v712h450v-68h-369v-248h349v-69h-349v-259h369v-68h-450zM327 785q-53 0 -97.5 24t-67.5 83l51 22q24 -43 52 -57t62 -14t61.5 14t51.5 57l51 -22q-24 -59 -68 -83t-96 -24z" />
    <glyph glyph-name="Ecaron" unicode="&#x11a;" horiz-adv-x="588" 
d="M88 0v712h450v-68h-369v-248h349v-69h-349v-259h369v-68h-450zM400 926h74l-120 -153h-55l-120 153h74l74 -105z" />
    <glyph glyph-name="uni0228" unicode="&#x228;" horiz-adv-x="588" 
d="M88 0v712h450v-68h-369v-248h349v-69h-349v-259h369v-68h-450zM325 -195q-20 0 -45 4.5t-44 14.5l13 44q21 -8 39.5 -11t36.5 -3q28 0 42 9.5t14 25.5q0 27 -35 27q-13 0 -24.5 -2.5t-21.5 -6.5l-20 16l11 97h57l-8 -73l-25 2q13 5 25.5 7.5t24.5 2.5q29 0 53 -17t24 -53
t-30.5 -60t-86.5 -24z" />
    <glyph glyph-name="uni1E1C" unicode="&#x1e1c;" horiz-adv-x="588" 
d="M88 0v712h450v-68h-369v-248h349v-69h-349v-259h369v-68h-450zM325 -195q-20 0 -45 4.5t-44 14.5l13 44q21 -8 39.5 -11t36.5 -3q28 0 42 9.5t14 25.5q0 27 -35 27q-13 0 -24.5 -2.5t-21.5 -6.5l-20 16l11 97h57l-8 -73l-25 2q13 5 25.5 7.5t24.5 2.5q29 0 53 -17t24 -53
t-30.5 -60t-86.5 -24zM327 785q-53 0 -97.5 24t-67.5 83l51 22q24 -43 52 -57t62 -14t61.5 14t51.5 57l51 -22q-24 -59 -68 -83t-96 -24z" />
    <glyph glyph-name="Ecircumflex" unicode="&#xca;" horiz-adv-x="588" 
d="M88 0v712h450v-68h-369v-248h349v-69h-349v-259h369v-68h-450zM253 773h-74l120 153h55l120 -153h-74l-73 104z" />
    <glyph glyph-name="uni1EBE" unicode="&#x1ebe;" horiz-adv-x="588" 
d="M88 0v712h450v-68h-369v-248h349v-69h-349v-259h369v-68h-450zM253 773h-74l120 148h55l120 -148h-74l-73 100zM462 877h-50l92 142h86z" />
    <glyph glyph-name="uni1EC6" unicode="&#x1ec6;" horiz-adv-x="588" 
d="M88 0v712h450v-68h-369v-248h349v-69h-349v-259h369v-68h-450zM280 -95h93v-89h-93v89zM253 773h-74l120 153h55l120 -153h-74l-73 104z" />
    <glyph glyph-name="uni1EC0" unicode="&#x1ec0;" horiz-adv-x="588" 
d="M88 0v712h450v-68h-369v-248h349v-69h-349v-259h369v-68h-450zM253 773h-74l120 148h55l120 -148h-74l-73 100zM455 877l-113 142h85l78 -142h-50z" />
    <glyph glyph-name="uni1EC2" unicode="&#x1ec2;" horiz-adv-x="588" 
d="M88 0v712h450v-68h-369v-248h349v-69h-349v-259h369v-68h-450zM253 773h-74l120 148h55l120 -148h-74l-73 100zM465 886v-9h-54v17q0 17 10 26t23.5 14.5l24 10t10.5 13.5t-10.5 14t-30.5 5q-14 0 -29 -2.5t-33 -9.5l-14 42q18 8 39 13t43 5q47 0 73.5 -18t26.5 -46
q0 -19 -12 -28.5t-27.5 -15.5t-27.5 -12.5t-12 -18.5z" />
    <glyph glyph-name="uni1EC4" unicode="&#x1ec4;" horiz-adv-x="588" 
d="M88 0v712h450v-68h-369v-248h349v-69h-349v-259h369v-68h-450zM253 773h-74l120 148h55l120 -148h-74l-73 100zM164 936q0 29 11.5 51.5t31.5 35t47 12.5q28 0 53.5 -10.5t48 -21.5t41.5 -11q23 0 35 14t12 31h45q0 -29 -11.5 -51.5t-31.5 -35.5t-47 -13q-28 0 -53.5 11
t-48 22t-41.5 11q-23 0 -35 -14t-12 -31h-45z" />
    <glyph glyph-name="uni0204" unicode="&#x204;" horiz-adv-x="588" 
d="M88 0v712h450v-68h-369v-248h349v-69h-349v-259h369v-68h-450zM365 773l-99 153h72l71 -153h-44zM244 773l-98 153h70l72 -153h-44z" />
    <glyph glyph-name="Edieresis" unicode="&#xcb;" horiz-adv-x="588" 
d="M88 0v712h450v-68h-369v-248h349v-69h-349v-259h369v-68h-450zM368 893h90v-86h-90v86zM195 893h90v-86h-90v86z" />
    <glyph glyph-name="Edotaccent" unicode="&#x116;" horiz-adv-x="588" 
d="M88 0v712h450v-68h-369v-248h349v-69h-349v-259h369v-68h-450zM277 896h99v-92h-99v92z" />
    <glyph glyph-name="uni1EB8" unicode="&#x1eb8;" horiz-adv-x="588" 
d="M88 0v712h450v-68h-369v-248h349v-69h-349v-259h369v-68h-450zM280 -95h93v-89h-93v89z" />
    <glyph glyph-name="Egrave" unicode="&#xc8;" horiz-adv-x="588" 
d="M88 0v712h450v-68h-369v-248h349v-69h-349v-259h369v-68h-450zM298 773l-134 153h89l102 -153h-57z" />
    <glyph glyph-name="uni1EBA" unicode="&#x1eba;" horiz-adv-x="588" 
d="M88 0v712h450v-68h-369v-248h349v-69h-349v-259h369v-68h-450zM354 783v-10h-54v18q0 17 10 27t23.5 16.5t24 13t10.5 15.5t-10.5 14t-30.5 5q-14 0 -29 -2.5t-33 -9.5l-14 43q18 8 39 12.5t43 4.5q47 0 73 -18t26 -46q0 -20 -12 -31t-27 -18t-27 -14.5t-12 -19.5z" />
    <glyph glyph-name="uni0206" unicode="&#x206;" horiz-adv-x="588" 
d="M88 0v712h450v-68h-369v-248h349v-69h-349v-259h369v-68h-450zM327 915q52 0 96.5 -24.5t67.5 -82.5l-51 -22q-24 42 -51.5 56.5t-61.5 14.5t-62 -14.5t-52 -56.5l-51 22q24 58 68 82.5t97 24.5z" />
    <glyph glyph-name="Emacron" unicode="&#x112;" horiz-adv-x="588" 
d="M88 0v712h450v-68h-369v-248h349v-69h-349v-259h369v-68h-450zM175 819v62h303v-62h-303z" />
    <glyph glyph-name="uni1E16" unicode="&#x1e16;" horiz-adv-x="588" 
d="M88 0v712h450v-68h-369v-248h349v-69h-349v-259h369v-68h-450zM175 819v62h303v-62h-303zM355 935h-57l102 153h89z" />
    <glyph glyph-name="uni1E14" unicode="&#x1e14;" horiz-adv-x="588" 
d="M88 0v712h450v-68h-369v-248h349v-69h-349v-259h369v-68h-450zM175 819v62h303v-62h-303zM298 935l-134 153h89l102 -153h-57z" />
    <glyph glyph-name="Eogonek" unicode="&#x118;" horiz-adv-x="588" 
d="M556 -124l17 -48q-17 -10 -39 -16.5t-48 -6.5q-53 0 -85.5 30t-32.5 76q0 71 69 108l16 -19h-365v712h450v-68h-369v-248h349v-69h-349v-259h369v-68h-15q-46 0 -69 -22t-23 -56q0 -31 18.5 -47t48.5 -16q12 0 27 4t31 13z" />
    <glyph glyph-name="uni1EBC" unicode="&#x1ebc;" horiz-adv-x="588" 
d="M88 0v712h450v-68h-369v-248h349v-69h-349v-259h369v-68h-450zM164 794q0 56 25 86t65 30q28 0 53.5 -14.5t48 -29t41.5 -14.5q23 0 35 16.5t12 38.5h45q0 -56 -25 -86t-65 -30q-28 0 -53.5 14.5t-48 29t-41.5 14.5q-23 0 -35 -16.5t-12 -38.5h-45z" />
    <glyph glyph-name="F" unicode="F" horiz-adv-x="563" 
d="M88 0v712h440v-69h-359v-247h339v-69h-339v-327h-81z" />
    <glyph glyph-name="G" unicode="G" horiz-adv-x="731" 
d="M403 -8q-107 0 -183.5 43.5t-117 125t-40.5 196.5q0 114 40.5 195.5t116 124.5t178.5 43q74 0 136.5 -22.5t108.5 -67.5l-32 -63q-52 44 -102 63.5t-111 19.5q-121 0 -185.5 -75.5t-64.5 -217.5q0 -145 66 -220.5t192 -75.5q52 0 101.5 9.5t89.5 25.5l-20 -42v252h-177
v65h252v-330q-28 -15 -68.5 -26t-87 -17t-92.5 -6z" />
    <glyph glyph-name="Gbreve" unicode="&#x11e;" horiz-adv-x="731" 
d="M403 -8q-107 0 -183.5 43.5t-117 125t-40.5 196.5q0 114 40.5 195.5t116 124.5t178.5 43q74 0 136.5 -22.5t108.5 -67.5l-32 -63q-52 44 -102 63.5t-111 19.5q-121 0 -185.5 -75.5t-64.5 -217.5q0 -145 66 -220.5t192 -75.5q52 0 101.5 9.5t89.5 25.5l-20 -42v252h-177
v65h252v-330q-28 -15 -68.5 -26t-87 -17t-92.5 -6zM396 785q-53 0 -97.5 24t-67.5 83l51 22q24 -43 52 -57t62 -14t61.5 14t51.5 57l51 -22q-24 -59 -68 -83t-96 -24z" />
    <glyph glyph-name="Gcaron" unicode="&#x1e6;" horiz-adv-x="731" 
d="M403 -8q-107 0 -183.5 43.5t-117 125t-40.5 196.5q0 114 40.5 195.5t116 124.5t178.5 43q74 0 136.5 -22.5t108.5 -67.5l-32 -63q-52 44 -102 63.5t-111 19.5q-121 0 -185.5 -75.5t-64.5 -217.5q0 -145 66 -220.5t192 -75.5q52 0 101.5 9.5t89.5 25.5l-20 -42v252h-177
v65h252v-330q-28 -15 -68.5 -26t-87 -17t-92.5 -6zM469 926h74l-120 -153h-55l-120 153h74l74 -105z" />
    <glyph glyph-name="Gcircumflex" unicode="&#x11c;" horiz-adv-x="731" 
d="M403 -8q-107 0 -183.5 43.5t-117 125t-40.5 196.5q0 114 40.5 195.5t116 124.5t178.5 43q74 0 136.5 -22.5t108.5 -67.5l-32 -63q-52 44 -102 63.5t-111 19.5q-121 0 -185.5 -75.5t-64.5 -217.5q0 -145 66 -220.5t192 -75.5q52 0 101.5 9.5t89.5 25.5l-20 -42v252h-177
v65h252v-330q-28 -15 -68.5 -26t-87 -17t-92.5 -6zM322 773h-74l120 153h55l120 -153h-74l-73 104z" />
    <glyph glyph-name="Gcommaaccent" unicode="&#x122;" horiz-adv-x="731" 
d="M403 -8q-107 0 -183.5 43.5t-117 125t-40.5 196.5q0 114 40.5 195.5t116 124.5t178.5 43q74 0 136.5 -22.5t108.5 -67.5l-32 -63q-52 44 -102 63.5t-111 19.5q-121 0 -185.5 -75.5t-64.5 -217.5q0 -145 66 -220.5t192 -75.5q52 0 101.5 9.5t89.5 25.5l-20 -42v252h-177
v65h252v-330q-28 -15 -68.5 -26t-87 -17t-92.5 -6zM452 -73v-58q0 -38 -10.5 -70t-41.5 -61l-37 28q23 24 30 45.5t7 45.5l23 -13h-70v83h99z" />
    <glyph glyph-name="Gdotaccent" unicode="&#x120;" horiz-adv-x="731" 
d="M403 -8q-107 0 -183.5 43.5t-117 125t-40.5 196.5q0 114 40.5 195.5t116 124.5t178.5 43q74 0 136.5 -22.5t108.5 -67.5l-32 -63q-52 44 -102 63.5t-111 19.5q-121 0 -185.5 -75.5t-64.5 -217.5q0 -145 66 -220.5t192 -75.5q52 0 101.5 9.5t89.5 25.5l-20 -42v252h-177
v65h252v-330q-28 -15 -68.5 -26t-87 -17t-92.5 -6zM346 896h99v-92h-99v92z" />
    <glyph glyph-name="uni1E20" unicode="&#x1e20;" horiz-adv-x="731" 
d="M403 -8q-107 0 -183.5 43.5t-117 125t-40.5 196.5q0 114 40.5 195.5t116 124.5t178.5 43q74 0 136.5 -22.5t108.5 -67.5l-32 -63q-52 44 -102 63.5t-111 19.5q-121 0 -185.5 -75.5t-64.5 -217.5q0 -145 66 -220.5t192 -75.5q52 0 101.5 9.5t89.5 25.5l-20 -42v252h-177
v65h252v-330q-28 -15 -68.5 -26t-87 -17t-92.5 -6zM244 819v62h303v-62h-303z" />
    <glyph glyph-name="H" unicode="H" horiz-adv-x="766" 
d="M596 0v712h82v-712h-82zM88 0v712h81v-712h-81zM126 327v69h516v-69h-516z" />
    <glyph glyph-name="Hbar" unicode="&#x126;" horiz-adv-x="793" 
d="M8 525v66h777v-66h-777zM609 0v712h83v-712h-83zM101 0v712h83v-712h-83zM140 327v69h502v-69h-502z" />
    <glyph glyph-name="uni1E2A" unicode="&#x1e2a;" horiz-adv-x="766" 
d="M596 0v712h82v-712h-82zM88 0v712h81v-712h-81zM126 327v69h516v-69h-516zM383 -213q-35 0 -67.5 13t-58.5 40.5t-41 73.5l51 22q24 -49 53 -69t63 -20t62.5 20t52.5 69l51 -21q-14 -46 -40 -74t-59 -41t-67 -13z" />
    <glyph glyph-name="Hcircumflex" unicode="&#x124;" horiz-adv-x="766" 
d="M596 0v712h82v-712h-82zM88 0v712h81v-712h-81zM126 327v69h516v-69h-516zM309 773h-74l120 153h55l120 -153h-74l-73 104z" />
    <glyph glyph-name="uni1E24" unicode="&#x1e24;" horiz-adv-x="766" 
d="M596 0v712h82v-712h-82zM88 0v712h81v-712h-81zM126 327v69h516v-69h-516zM336 -95h93v-89h-93v89z" />
    <glyph glyph-name="I" unicode="I" horiz-adv-x="258" 
d="M88 0v712h82v-712h-82z" />
    <glyph glyph-name="Iacute" unicode="&#xcd;" horiz-adv-x="258" 
d="M88 0v712h82v-712h-82zM157 773h-57l102 153h89z" />
    <glyph glyph-name="Ibreve" unicode="&#x12c;" horiz-adv-x="258" 
d="M88 0v712h82v-712h-82zM129 785q-53 0 -97.5 24t-67.5 83l51 22q24 -43 52 -57t62 -14t61.5 14t51.5 57l51 -22q-24 -59 -68 -83t-96 -24z" />
    <glyph glyph-name="Icircumflex" unicode="&#xce;" horiz-adv-x="258" 
d="M88 0v712h82v-712h-82zM55 773h-74l120 153h55l120 -153h-74l-73 104z" />
    <glyph glyph-name="uni0208" unicode="&#x208;" horiz-adv-x="258" 
d="M88 0v712h82v-712h-82zM167 773l-99 153h72l71 -153h-44zM46 773l-98 153h70l72 -153h-44z" />
    <glyph glyph-name="Idieresis" unicode="&#xcf;" horiz-adv-x="258" 
d="M88 0v712h82v-712h-82zM170 893h90v-86h-90v86zM-3 893h90v-86h-90v86z" />
    <glyph glyph-name="uni1E2E" unicode="&#x1e2e;" horiz-adv-x="258" 
d="M88 0v712h82v-712h-82zM170 893h90v-86h-90v86zM-3 893h90v-86h-90v86zM157 935h-57l102 153h89z" />
    <glyph glyph-name="Idotaccent" unicode="&#x130;" horiz-adv-x="258" 
d="M88 0v712h82v-712h-82zM79 896h99v-92h-99v92z" />
    <glyph glyph-name="uni1ECA" unicode="&#x1eca;" horiz-adv-x="258" 
d="M88 0v712h82v-712h-82zM82 -95h93v-89h-93v89z" />
    <glyph glyph-name="Igrave" unicode="&#xcc;" horiz-adv-x="258" 
d="M88 0v712h82v-712h-82zM100 773l-134 153h89l102 -153h-57z" />
    <glyph glyph-name="uni1EC8" unicode="&#x1ec8;" horiz-adv-x="258" 
d="M88 0v712h82v-712h-82zM156 783v-10h-54v18q0 17 10 27t23.5 16.5t24 13t10.5 15.5t-10.5 14t-30.5 5q-14 0 -29 -2.5t-33 -9.5l-14 43q18 8 39 12.5t43 4.5q47 0 73 -18t26 -46q0 -20 -12 -31t-27 -18t-27 -14.5t-12 -19.5z" />
    <glyph glyph-name="uni020A" unicode="&#x20a;" horiz-adv-x="258" 
d="M88 0v712h82v-712h-82zM129 915q52 0 96.5 -24.5t67.5 -82.5l-51 -22q-24 42 -51.5 56.5t-61.5 14.5t-62 -14.5t-52 -56.5l-51 22q24 58 68 82.5t97 24.5z" />
    <glyph glyph-name="Imacron" unicode="&#x12a;" horiz-adv-x="258" 
d="M88 0v712h82v-712h-82zM-23 819v62h303v-62h-303z" />
    <glyph glyph-name="Iogonek" unicode="&#x12e;" horiz-adv-x="258" 
d="M128 -195q-53 0 -86 30t-33 77q0 44 31 78.5t90 47.5l-18 -38h-24v712h82v-712h-7q-43 0 -66.5 -23t-23.5 -55q0 -31 18.5 -47t47.5 -16q12 0 27.5 4t31.5 13l16 -48q-17 -10 -39 -16.5t-47 -6.5z" />
    <glyph glyph-name="Itilde" unicode="&#x128;" horiz-adv-x="258" 
d="M88 0v712h82v-712h-82zM-34 794q0 56 25 86t65 30q28 0 53.5 -14.5t48 -29t41.5 -14.5q23 0 35 16.5t12 38.5h45q0 -56 -25 -86t-65 -30q-28 0 -53.5 14.5t-48 29t-41.5 14.5q-23 0 -35 -16.5t-12 -38.5h-45z" />
    <glyph glyph-name="J" unicode="J" horiz-adv-x="329" 
d="M-5 -178v71q62 -11 98 -5.5t51 35t15 88.5v701h82v-702q0 -83 -24 -129.5t-78 -60t-144 1.5z" />
    <glyph glyph-name="Jcircumflex" unicode="&#x134;" horiz-adv-x="329" 
d="M-5 -178v71q62 -11 98 -5.5t51 35t15 88.5v701h82v-702q0 -83 -24 -129.5t-78 -60t-144 1.5zM126 773h-74l120 153h55l120 -153h-74l-73 104z" />
    <glyph glyph-name="K" unicode="K" horiz-adv-x="634" 
d="M537 0l-392 362l375 350h105l-402 -375l4 53l417 -390h-107zM88 0v712h82v-712h-82z" />
    <glyph glyph-name="Kcommaaccent" unicode="&#x136;" horiz-adv-x="634" 
d="M537 0l-392 362l375 350h105l-402 -375l4 53l417 -390h-107zM88 0v712h82v-712h-82zM368 -73v-58q0 -38 -10.5 -70t-41.5 -61l-37 28q23 24 30 45.5t7 45.5l23 -13h-70v83h99z" />
    <glyph glyph-name="L" unicode="L" horiz-adv-x="545" 
d="M88 0v712h82v-642h357v-70h-439z" />
    <glyph glyph-name="uni01C7" unicode="&#x1c7;" horiz-adv-x="798" 
d="M88 0v712h82v-642h327v-70h-409zM463 -178v71q62 -11 98 -5.5t51 35t15 88.5v701h83v-702q0 -83 -24 -129.5t-78.5 -60t-144.5 1.5z" />
    <glyph glyph-name="Lacute" unicode="&#x139;" horiz-adv-x="545" 
d="M88 0v712h82v-642h357v-70h-439zM157 773h-57l102 153h89z" />
    <glyph glyph-name="Lcaron" unicode="&#x13d;" horiz-adv-x="545" 
d="M88 0v712h82v-642h357v-70h-439zM299 520h-43v192h69z" />
    <glyph glyph-name="Lcommaaccent" unicode="&#x13b;" horiz-adv-x="545" 
d="M88 0v712h82v-642h357v-70h-439zM361 -73v-58q0 -38 -10.5 -70t-41.5 -61l-37 28q23 24 30 45.5t7 45.5l23 -13h-70v83h99z" />
    <glyph glyph-name="Ldot" unicode="&#x13f;" horiz-adv-x="545" 
d="M88 0v712h82v-642h357v-70h-439zM301 404h103v-95h-103v95z" />
    <glyph glyph-name="uni1E36" unicode="&#x1e36;" horiz-adv-x="545" 
d="M88 0v712h82v-642h357v-70h-439zM265 -95h93v-89h-93v89z" />
    <glyph glyph-name="uni01C8" unicode="&#x1c8;" horiz-adv-x="783" 
d="M88 0v712h82v-642h357v-70h-439zM490 -142q15 -4 26.5 -6t22.5 -2q23 0 42.5 8.5t30.5 30t11 61.5v553h81v-563q0 -81 -40 -120.5t-108 -39.5q-16 0 -33 2t-33 7v69zM614 716h99v-92h-99v92z" />
    <glyph glyph-name="uni1E3A" unicode="&#x1e3a;" horiz-adv-x="545" 
d="M88 0v712h82v-642h357v-70h-439zM160 -170v60h303v-60h-303z" />
    <glyph glyph-name="Lslash" unicode="&#x141;" horiz-adv-x="559" 
d="M9 245v77l364 210v-77zM101 0v712h83v-642h357v-70h-440z" />
    <glyph glyph-name="M" unicode="M" horiz-adv-x="849" 
d="M88 0v712h68l289 -657h-38l286 657h68v-712h-76v604l31 -4l-262 -600h-58l-266 600l33 4l1 -604h-76z" />
    <glyph glyph-name="uni1E42" unicode="&#x1e42;" horiz-adv-x="849" 
d="M88 0v712h68l289 -657h-38l286 657h68v-712h-76v604l31 -4l-262 -600h-58l-266 600l33 4l1 -604h-76zM377 -95h93v-89h-93v89z" />
    <glyph glyph-name="N" unicode="N" horiz-adv-x="746" 
d="M88 0v712h63l454 -605l-24 -6v611h78v-712h-64l-453 604l23 7v-611h-77z" />
    <glyph glyph-name="uni01CA" unicode="&#x1ca;" horiz-adv-x="1075" 
d="M88 0v712h63l454 -605l-24 -6v611h78v-712h-64l-453 604l23 7v-611h-77zM741 -178v71q62 -11 98 -5.5t51 35t15 88.5v701h82v-702q0 -83 -24 -129.5t-78 -60t-144 1.5z" />
    <glyph glyph-name="Nacute" unicode="&#x143;" horiz-adv-x="746" 
d="M88 0v712h63l454 -605l-24 -6v611h78v-712h-64l-453 604l23 7v-611h-77zM401 773h-57l102 153h89z" />
    <glyph glyph-name="Ncaron" unicode="&#x147;" horiz-adv-x="746" 
d="M88 0v712h63l454 -605l-24 -6v611h78v-712h-64l-453 604l23 7v-611h-77zM446 926h74l-120 -153h-55l-120 153h74l74 -105z" />
    <glyph glyph-name="Ncommaaccent" unicode="&#x145;" horiz-adv-x="746" 
d="M88 0v712h63l454 -605l-24 -6v611h78v-712h-64l-453 604l23 7v-611h-77zM423 -73v-58q0 -38 -10.5 -70t-41.5 -61l-37 28q23 24 30 45.5t7 45.5l23 -13h-70v83h99z" />
    <glyph glyph-name="uni1E44" unicode="&#x1e44;" horiz-adv-x="746" 
d="M88 0v712h63l454 -605l-24 -6v611h78v-712h-64l-453 604l23 7v-611h-77zM323 896h99v-92h-99v92z" />
    <glyph glyph-name="uni1E46" unicode="&#x1e46;" horiz-adv-x="746" 
d="M88 0v712h63l454 -605l-24 -6v611h78v-712h-64l-453 604l23 7v-611h-77zM327 -95h93v-89h-93v89z" />
    <glyph glyph-name="Eng" unicode="&#x14a;" horiz-adv-x="746" 
d="M581 712h78v-711q0 -82 -42.5 -130.5t-135.5 -54.5l-66 -5l-5 68l60 4q53 4 82 32.5t29 81.5v55l13 -50l-452 602l23 7v-611h-77v712h63l454 -605l-24 -6v611z" />
    <glyph glyph-name="uni01CB" unicode="&#x1cb;" horiz-adv-x="984" 
d="M88 0v712h63l454 -605l-24 -6v611h78v-712h-64l-453 604l23 7v-611h-77zM691 -142q15 -4 26.5 -6t22.5 -2q23 0 42.5 8.5t30.5 30t11 61.5v553h81v-563q0 -81 -40 -120.5t-108 -39.5q-16 0 -33 2t-33 7v69zM815 716h99v-92h-99v92z" />
    <glyph glyph-name="uni1E48" unicode="&#x1e48;" horiz-adv-x="746" 
d="M88 0v712h63l454 -605l-24 -6v611h78v-712h-64l-453 604l23 7v-611h-77zM222 -170v60h303v-60h-303z" />
    <glyph glyph-name="Ntilde" unicode="&#xd1;" horiz-adv-x="746" 
d="M88 0v712h63l454 -605l-24 -6v611h78v-712h-64l-453 604l23 7v-611h-77zM210 794q0 56 25 86t65 30q28 0 53.5 -14.5t48 -29t41.5 -14.5q23 0 35 16.5t12 38.5h45q0 -56 -25 -86t-65 -30q-28 0 -53.5 14.5t-48 29t-41.5 14.5q-23 0 -35 -16.5t-12 -38.5h-45z" />
    <glyph glyph-name="O" unicode="O" horiz-adv-x="772" 
d="M386 -8q-100 0 -172.5 44t-112 126t-39.5 194q0 113 39 194.5t111.5 125.5t173.5 44q100 0 173 -44t112 -125.5t39 -193.5q0 -113 -39.5 -195t-112 -126t-172.5 -44zM386 62q113 0 176 76.5t63 218.5t-63 217.5t-176 75.5t-176.5 -76t-63.5 -217t63.5 -218t176.5 -77z
" />
    <glyph glyph-name="Oacute" unicode="&#xd3;" horiz-adv-x="772" 
d="M386 -8q-100 0 -172.5 44t-112 126t-39.5 194q0 113 39 194.5t111.5 125.5t173.5 44q100 0 173 -44t112 -125.5t39 -193.5q0 -113 -39.5 -195t-112 -126t-172.5 -44zM386 62q113 0 176 76.5t63 218.5t-63 217.5t-176 75.5t-176.5 -76t-63.5 -217t63.5 -218t176.5 -77z
M413 773h-57l102 153h89z" />
    <glyph glyph-name="Obreve" unicode="&#x14e;" horiz-adv-x="772" 
d="M386 -8q-100 0 -172.5 44t-112 126t-39.5 194q0 113 39 194.5t111.5 125.5t173.5 44q100 0 173 -44t112 -125.5t39 -193.5q0 -113 -39.5 -195t-112 -126t-172.5 -44zM386 62q113 0 176 76.5t63 218.5t-63 217.5t-176 75.5t-176.5 -76t-63.5 -217t63.5 -218t176.5 -77z
M385 785q-53 0 -97.5 24t-67.5 83l51 22q24 -43 52 -57t62 -14t61.5 14t51.5 57l51 -22q-24 -59 -68 -83t-96 -24z" />
    <glyph glyph-name="Ocircumflex" unicode="&#xd4;" horiz-adv-x="772" 
d="M386 -8q-100 0 -172.5 44t-112 126t-39.5 194q0 113 39 194.5t111.5 125.5t173.5 44q100 0 173 -44t112 -125.5t39 -193.5q0 -113 -39.5 -195t-112 -126t-172.5 -44zM386 62q113 0 176 76.5t63 218.5t-63 217.5t-176 75.5t-176.5 -76t-63.5 -217t63.5 -218t176.5 -77z
M311 773h-74l120 153h55l120 -153h-74l-73 104z" />
    <glyph glyph-name="uni1ED0" unicode="&#x1ed0;" horiz-adv-x="772" 
d="M386 -8q-100 0 -172.5 44t-112 126t-39.5 194q0 113 39 194.5t111.5 125.5t173.5 44q100 0 173 -44t112 -125.5t39 -193.5q0 -113 -39.5 -195t-112 -126t-172.5 -44zM386 62q113 0 176 76.5t63 218.5t-63 217.5t-176 75.5t-176.5 -76t-63.5 -217t63.5 -218t176.5 -77z
M311 773h-74l120 148h55l120 -148h-74l-73 100zM520 877h-50l92 142h86z" />
    <glyph glyph-name="uni1ED8" unicode="&#x1ed8;" horiz-adv-x="772" 
d="M386 -8q-100 0 -172.5 44t-112 126t-39.5 194q0 113 39 194.5t111.5 125.5t173.5 44q100 0 173 -44t112 -125.5t39 -193.5q0 -113 -39.5 -195t-112 -126t-172.5 -44zM386 62q113 0 176 76.5t63 218.5t-63 217.5t-176 75.5t-176.5 -76t-63.5 -217t63.5 -218t176.5 -77z
M339 -95h93v-89h-93v89zM311 773h-74l120 153h55l120 -153h-74l-73 104z" />
    <glyph glyph-name="uni1ED2" unicode="&#x1ed2;" horiz-adv-x="772" 
d="M386 -8q-100 0 -172.5 44t-112 126t-39.5 194q0 113 39 194.5t111.5 125.5t173.5 44q100 0 173 -44t112 -125.5t39 -193.5q0 -113 -39.5 -195t-112 -126t-172.5 -44zM386 62q113 0 176 76.5t63 218.5t-63 217.5t-176 75.5t-176.5 -76t-63.5 -217t63.5 -218t176.5 -77z
M311 773h-74l120 148h55l120 -148h-74l-73 100zM513 877l-113 142h85l78 -142h-50z" />
    <glyph glyph-name="uni1ED4" unicode="&#x1ed4;" horiz-adv-x="772" 
d="M386 -8q-100 0 -172.5 44t-112 126t-39.5 194q0 113 39 194.5t111.5 125.5t173.5 44q100 0 173 -44t112 -125.5t39 -193.5q0 -113 -39.5 -195t-112 -126t-172.5 -44zM386 62q113 0 176 76.5t63 218.5t-63 217.5t-176 75.5t-176.5 -76t-63.5 -217t63.5 -218t176.5 -77z
M311 773h-74l120 148h55l120 -148h-74l-73 100zM523 886v-9h-54v17q0 17 10 26t23.5 14.5l24 10t10.5 13.5t-10.5 14t-30.5 5q-14 0 -29 -2.5t-33 -9.5l-14 42q18 8 39 13t43 5q47 0 73.5 -18t26.5 -46q0 -19 -12 -28.5t-27.5 -15.5t-27.5 -12.5t-12 -18.5z" />
    <glyph glyph-name="uni1ED6" unicode="&#x1ed6;" horiz-adv-x="772" 
d="M386 -8q-100 0 -172.5 44t-112 126t-39.5 194q0 113 39 194.5t111.5 125.5t173.5 44q100 0 173 -44t112 -125.5t39 -193.5q0 -113 -39.5 -195t-112 -126t-172.5 -44zM386 62q113 0 176 76.5t63 218.5t-63 217.5t-176 75.5t-176.5 -76t-63.5 -217t63.5 -218t176.5 -77z
M311 773h-74l120 148h55l120 -148h-74l-73 100zM222 936q0 29 11.5 51.5t31.5 35t47 12.5q28 0 53.5 -10.5t48 -21.5t41.5 -11q23 0 35 14t12 31h45q0 -29 -11.5 -51.5t-31.5 -35.5t-47 -13q-28 0 -53.5 11t-48 22t-41.5 11q-23 0 -35 -14t-12 -31h-45z" />
    <glyph glyph-name="uni020C" unicode="&#x20c;" horiz-adv-x="772" 
d="M386 -8q-100 0 -172.5 44t-112 126t-39.5 194q0 113 39 194.5t111.5 125.5t173.5 44q100 0 173 -44t112 -125.5t39 -193.5q0 -113 -39.5 -195t-112 -126t-172.5 -44zM386 62q113 0 176 76.5t63 218.5t-63 217.5t-176 75.5t-176.5 -76t-63.5 -217t63.5 -218t176.5 -77z
M423 773l-99 153h72l71 -153h-44zM302 773l-98 153h70l72 -153h-44z" />
    <glyph glyph-name="Odieresis" unicode="&#xd6;" horiz-adv-x="772" 
d="M386 -8q-100 0 -172.5 44t-112 126t-39.5 194q0 113 39 194.5t111.5 125.5t173.5 44q100 0 173 -44t112 -125.5t39 -193.5q0 -113 -39.5 -195t-112 -126t-172.5 -44zM386 62q113 0 176 76.5t63 218.5t-63 217.5t-176 75.5t-176.5 -76t-63.5 -217t63.5 -218t176.5 -77z
M426 893h90v-86h-90v86zM253 893h90v-86h-90v86z" />
    <glyph glyph-name="uni022A" unicode="&#x22a;" horiz-adv-x="772" 
d="M386 -8q-100 0 -172.5 44t-112 126t-39.5 194q0 113 39 194.5t111.5 125.5t173.5 44q100 0 173 -44t112 -125.5t39 -193.5q0 -113 -39.5 -195t-112 -126t-172.5 -44zM386 62q113 0 176 76.5t63 218.5t-63 217.5t-176 75.5t-176.5 -76t-63.5 -217t63.5 -218t176.5 -77z
M426 893h90v-86h-90v86zM253 893h90v-86h-90v86zM233 981v62h303v-62h-303z" />
    <glyph glyph-name="uni0230" unicode="&#x230;" horiz-adv-x="772" 
d="M386 -8q-100 0 -172.5 44t-112 126t-39.5 194q0 113 39 194.5t111.5 125.5t173.5 44q100 0 173 -44t112 -125.5t39 -193.5q0 -113 -39.5 -195t-112 -126t-172.5 -44zM386 62q113 0 176 76.5t63 218.5t-63 217.5t-176 75.5t-176.5 -76t-63.5 -217t63.5 -218t176.5 -77z
M335 896h99v-92h-99v92zM233 981v62h303v-62h-303z" />
    <glyph glyph-name="uni1ECC" unicode="&#x1ecc;" horiz-adv-x="772" 
d="M386 -8q-100 0 -172.5 44t-112 126t-39.5 194q0 113 39 194.5t111.5 125.5t173.5 44q100 0 173 -44t112 -125.5t39 -193.5q0 -113 -39.5 -195t-112 -126t-172.5 -44zM386 62q113 0 176 76.5t63 218.5t-63 217.5t-176 75.5t-176.5 -76t-63.5 -217t63.5 -218t176.5 -77z
M339 -95h93v-89h-93v89z" />
    <glyph glyph-name="Ograve" unicode="&#xd2;" horiz-adv-x="772" 
d="M386 -8q-100 0 -172.5 44t-112 126t-39.5 194q0 113 39 194.5t111.5 125.5t173.5 44q100 0 173 -44t112 -125.5t39 -193.5q0 -113 -39.5 -195t-112 -126t-172.5 -44zM386 62q113 0 176 76.5t63 218.5t-63 217.5t-176 75.5t-176.5 -76t-63.5 -217t63.5 -218t176.5 -77z
M356 773l-134 153h89l102 -153h-57z" />
    <glyph glyph-name="uni1ECE" unicode="&#x1ece;" horiz-adv-x="772" 
d="M386 -8q-100 0 -172.5 44t-112 126t-39.5 194q0 113 39 194.5t111.5 125.5t173.5 44q100 0 173 -44t112 -125.5t39 -193.5q0 -113 -39.5 -195t-112 -126t-172.5 -44zM386 62q113 0 176 76.5t63 218.5t-63 217.5t-176 75.5t-176.5 -76t-63.5 -217t63.5 -218t176.5 -77z
M412 783v-10h-54v18q0 17 10 27t23.5 16.5t24 13t10.5 15.5t-10.5 14t-30.5 5q-14 0 -29 -2.5t-33 -9.5l-14 43q18 8 39 12.5t43 4.5q47 0 73 -18t26 -46q0 -20 -12 -31t-27 -18t-27 -14.5t-12 -19.5z" />
    <glyph glyph-name="Ohorn" unicode="&#x1a0;" horiz-adv-x="772" 
d="M386 -8q-100 0 -172.5 44t-112 126t-39.5 194q0 113 39 194.5t112.5 125.5t175.5 44q36 0 71.5 -4t65.5 -4q61 1 86 26t25 85v15h73v-27q0 -46 -19 -80t-54 -52t-83 -18v15q76 -43 116 -124.5t40 -194.5t-39.5 -195t-112.5 -126t-172 -44zM386 62q113 0 176 76.5
t63 218.5t-63 217.5t-176 75.5t-176.5 -76t-63.5 -217t63.5 -218t176.5 -77z" />
    <glyph glyph-name="uni1EDA" unicode="&#x1eda;" horiz-adv-x="772" 
d="M386 -8q-100 0 -172.5 44t-112 126t-39.5 194q0 113 39 194.5t112.5 125.5t175.5 44q36 0 71.5 -4t65.5 -4q61 1 86 26t25 85v15h73v-27q0 -46 -19 -80t-54 -52t-83 -18v15q76 -43 116 -124.5t40 -194.5t-39.5 -195t-112.5 -126t-172 -44zM386 62q113 0 176 76.5
t63 218.5t-63 217.5t-176 75.5t-176.5 -76t-63.5 -217t63.5 -218t176.5 -77zM413 773h-57l102 153h89z" />
    <glyph glyph-name="uni1EE2" unicode="&#x1ee2;" horiz-adv-x="772" 
d="M386 -8q-100 0 -172.5 44t-112 126t-39.5 194q0 113 39 194.5t112.5 125.5t175.5 44q36 0 71.5 -4t65.5 -4q61 1 86 26t25 85v15h73v-27q0 -46 -19 -80t-54 -52t-83 -18v15q76 -43 116 -124.5t40 -194.5t-39.5 -195t-112.5 -126t-172 -44zM386 62q113 0 176 76.5
t63 218.5t-63 217.5t-176 75.5t-176.5 -76t-63.5 -217t63.5 -218t176.5 -77zM339 -95h93v-89h-93v89z" />
    <glyph glyph-name="uni1EDC" unicode="&#x1edc;" horiz-adv-x="772" 
d="M386 -8q-100 0 -172.5 44t-112 126t-39.5 194q0 113 39 194.5t112.5 125.5t175.5 44q36 0 71.5 -4t65.5 -4q61 1 86 26t25 85v15h73v-27q0 -46 -19 -80t-54 -52t-83 -18v15q76 -43 116 -124.5t40 -194.5t-39.5 -195t-112.5 -126t-172 -44zM386 62q113 0 176 76.5
t63 218.5t-63 217.5t-176 75.5t-176.5 -76t-63.5 -217t63.5 -218t176.5 -77zM356 773l-134 153h89l102 -153h-57z" />
    <glyph glyph-name="uni1EDE" unicode="&#x1ede;" horiz-adv-x="772" 
d="M386 -8q-100 0 -172.5 44t-112 126t-39.5 194q0 113 39 194.5t112.5 125.5t175.5 44q36 0 71.5 -4t65.5 -4q61 1 86 26t25 85v15h73v-27q0 -46 -19 -80t-54 -52t-83 -18v15q76 -43 116 -124.5t40 -194.5t-39.5 -195t-112.5 -126t-172 -44zM386 62q113 0 176 76.5
t63 218.5t-63 217.5t-176 75.5t-176.5 -76t-63.5 -217t63.5 -218t176.5 -77zM412 783v-10h-54v18q0 17 10 27t23.5 16.5t24 13t10.5 15.5t-10.5 14t-30.5 5q-14 0 -29 -2.5t-33 -9.5l-14 43q18 8 39 12.5t43 4.5q47 0 73 -18t26 -46q0 -20 -12 -31t-27 -18t-27 -14.5
t-12 -19.5z" />
    <glyph glyph-name="uni1EE0" unicode="&#x1ee0;" horiz-adv-x="772" 
d="M386 -8q-100 0 -172.5 44t-112 126t-39.5 194q0 113 39 194.5t112.5 125.5t175.5 44q36 0 71.5 -4t65.5 -4q61 1 86 26t25 85v15h73v-27q0 -46 -19 -80t-54 -52t-83 -18v15q76 -43 116 -124.5t40 -194.5t-39.5 -195t-112.5 -126t-172 -44zM386 62q113 0 176 76.5
t63 218.5t-63 217.5t-176 75.5t-176.5 -76t-63.5 -217t63.5 -218t176.5 -77zM222 794q0 56 25 86t65 30q28 0 53.5 -14.5t48 -29t41.5 -14.5q23 0 35 16.5t12 38.5h45q0 -56 -25 -86t-65 -30q-28 0 -53.5 14.5t-48 29t-41.5 14.5q-23 0 -35 -16.5t-12 -38.5h-45z" />
    <glyph glyph-name="Ohungarumlaut" unicode="&#x150;" horiz-adv-x="772" 
d="M386 -8q-100 0 -172.5 44t-112 126t-39.5 194q0 113 39 194.5t111.5 125.5t173.5 44q100 0 173 -44t112 -125.5t39 -193.5q0 -113 -39.5 -195t-112 -126t-172.5 -44zM386 62q113 0 176 76.5t63 218.5t-63 217.5t-176 75.5t-176.5 -76t-63.5 -217t63.5 -218t176.5 -77z
M423 773l72 153h70l-98 -153h-44zM302 773l71 153h72l-99 -153h-44z" />
    <glyph glyph-name="uni020E" unicode="&#x20e;" horiz-adv-x="772" 
d="M386 -8q-100 0 -172.5 44t-112 126t-39.5 194q0 113 39 194.5t111.5 125.5t173.5 44q100 0 173 -44t112 -125.5t39 -193.5q0 -113 -39.5 -195t-112 -126t-172.5 -44zM386 62q113 0 176 76.5t63 218.5t-63 217.5t-176 75.5t-176.5 -76t-63.5 -217t63.5 -218t176.5 -77z
M385 915q52 0 96.5 -24.5t67.5 -82.5l-51 -22q-24 42 -51.5 56.5t-61.5 14.5t-62 -14.5t-52 -56.5l-51 22q24 58 68 82.5t97 24.5z" />
    <glyph glyph-name="Omacron" unicode="&#x14c;" horiz-adv-x="772" 
d="M386 -8q-100 0 -172.5 44t-112 126t-39.5 194q0 113 39 194.5t111.5 125.5t173.5 44q100 0 173 -44t112 -125.5t39 -193.5q0 -113 -39.5 -195t-112 -126t-172.5 -44zM386 62q113 0 176 76.5t63 218.5t-63 217.5t-176 75.5t-176.5 -76t-63.5 -217t63.5 -218t176.5 -77z
M233 819v62h303v-62h-303z" />
    <glyph glyph-name="uni1E52" unicode="&#x1e52;" horiz-adv-x="772" 
d="M386 -8q-100 0 -172.5 44t-112 126t-39.5 194q0 113 39 194.5t111.5 125.5t173.5 44q100 0 173 -44t112 -125.5t39 -193.5q0 -113 -39.5 -195t-112 -126t-172.5 -44zM386 62q113 0 176 76.5t63 218.5t-63 217.5t-176 75.5t-176.5 -76t-63.5 -217t63.5 -218t176.5 -77z
M233 819v62h303v-62h-303zM413 935h-57l102 153h89z" />
    <glyph glyph-name="uni1E50" unicode="&#x1e50;" horiz-adv-x="772" 
d="M386 -8q-100 0 -172.5 44t-112 126t-39.5 194q0 113 39 194.5t111.5 125.5t173.5 44q100 0 173 -44t112 -125.5t39 -193.5q0 -113 -39.5 -195t-112 -126t-172.5 -44zM386 62q113 0 176 76.5t63 218.5t-63 217.5t-176 75.5t-176.5 -76t-63.5 -217t63.5 -218t176.5 -77z
M233 819v62h303v-62h-303zM356 935l-134 153h89l102 -153h-57z" />
    <glyph glyph-name="uni01EA" unicode="&#x1ea;" horiz-adv-x="772" 
d="M482 4q-74 -21 -74 -82q0 -30 18 -46.5t49 -16.5q13 0 27.5 4.5t30.5 12.5l16 -48q-36 -23 -86 -23q-52 0 -85.5 30t-33.5 76q0 31 15 57.5t42 42.5l9 -19q-106 -6 -184.5 37t-121 126.5t-42.5 200.5q0 113 39 194.5t112 125.5t173 44t172.5 -44t112 -125.5t39.5 -193.5
q0 -139 -59.5 -231t-168.5 -122zM146 357q0 -141 63.5 -218t176.5 -77t176 76.5t63 218.5t-63 217.5t-176 75.5t-176.5 -76t-63.5 -217z" />
    <glyph glyph-name="Oslash" unicode="&#xd8;" horiz-adv-x="772" 
d="M386 -8q-100 0 -172.5 44t-112 126t-39.5 194q0 113 39 194.5t111.5 125.5t173.5 44q100 0 173 -44t112 -125.5t39 -193.5q0 -113 -39.5 -195t-112 -126t-172.5 -44zM189 -47l-57 33l451 773l56 -33zM386 62q113 0 176 76.5t63 218.5t-63 217.5t-176 75.5t-176.5 -76
t-63.5 -217t63.5 -218t176.5 -77z" />
    <glyph glyph-name="Oslashacute" unicode="&#x1fe;" horiz-adv-x="772" 
d="M386 -8q-100 0 -172.5 44t-112 126t-39.5 194q0 113 39 194.5t111.5 125.5t173.5 44q100 0 173 -44t112 -125.5t39 -193.5q0 -113 -39.5 -195t-112 -126t-172.5 -44zM189 -47l-57 33l451 773l56 -33zM386 62q113 0 176 76.5t63 218.5t-63 217.5t-176 75.5t-176.5 -76
t-63.5 -217t63.5 -218t176.5 -77zM413 773h-57l102 153h89z" />
    <glyph glyph-name="Otilde" unicode="&#xd5;" horiz-adv-x="772" 
d="M386 -8q-100 0 -172.5 44t-112 126t-39.5 194q0 113 39 194.5t111.5 125.5t173.5 44q100 0 173 -44t112 -125.5t39 -193.5q0 -113 -39.5 -195t-112 -126t-172.5 -44zM386 62q113 0 176 76.5t63 218.5t-63 217.5t-176 75.5t-176.5 -76t-63.5 -217t63.5 -218t176.5 -77z
M222 794q0 56 25 86t65 30q28 0 53.5 -14.5t48 -29t41.5 -14.5q23 0 35 16.5t12 38.5h45q0 -56 -25 -86t-65 -30q-28 0 -53.5 14.5t-48 29t-41.5 14.5q-23 0 -35 -16.5t-12 -38.5h-45z" />
    <glyph glyph-name="uni1E4C" unicode="&#x1e4c;" horiz-adv-x="772" 
d="M386 -8q-100 0 -172.5 44t-112 126t-39.5 194q0 113 39 194.5t111.5 125.5t173.5 44q100 0 173 -44t112 -125.5t39 -193.5q0 -113 -39.5 -195t-112 -126t-172.5 -44zM386 62q113 0 176 76.5t63 218.5t-63 217.5t-176 75.5t-176.5 -76t-63.5 -217t63.5 -218t176.5 -77z
M222 794q0 56 25 86t65 30q28 0 53.5 -14.5t48 -29t41.5 -14.5q23 0 35 16.5t12 38.5h45q0 -56 -25 -86t-65 -30q-28 0 -53.5 14.5t-48 29t-41.5 14.5q-23 0 -35 -16.5t-12 -38.5h-45zM413 935h-57l102 153h89z" />
    <glyph glyph-name="uni1E4E" unicode="&#x1e4e;" horiz-adv-x="772" 
d="M386 -8q-100 0 -172.5 44t-112 126t-39.5 194q0 113 39 194.5t111.5 125.5t173.5 44q100 0 173 -44t112 -125.5t39 -193.5q0 -113 -39.5 -195t-112 -126t-172.5 -44zM386 62q113 0 176 76.5t63 218.5t-63 217.5t-176 75.5t-176.5 -76t-63.5 -217t63.5 -218t176.5 -77z
M222 794q0 56 25 86t65 30q28 0 53.5 -14.5t48 -29t41.5 -14.5q23 0 35 16.5t12 38.5h45q0 -56 -25 -86t-65 -30q-28 0 -53.5 14.5t-48 29t-41.5 14.5q-23 0 -35 -16.5t-12 -38.5h-45zM426 1055h90v-86h-90v86zM253 1055h90v-86h-90v86z" />
    <glyph glyph-name="uni022C" unicode="&#x22c;" horiz-adv-x="772" 
d="M386 -8q-100 0 -172.5 44t-112 126t-39.5 194q0 113 39 194.5t111.5 125.5t173.5 44q100 0 173 -44t112 -125.5t39 -193.5q0 -113 -39.5 -195t-112 -126t-172.5 -44zM386 62q113 0 176 76.5t63 218.5t-63 217.5t-176 75.5t-176.5 -76t-63.5 -217t63.5 -218t176.5 -77z
M222 794q0 56 25 86t65 30q28 0 53.5 -14.5t48 -29t41.5 -14.5q23 0 35 16.5t12 38.5h45q0 -56 -25 -86t-65 -30q-28 0 -53.5 14.5t-48 29t-41.5 14.5q-23 0 -35 -16.5t-12 -38.5h-45zM233 981v62h303v-62h-303z" />
    <glyph glyph-name="OE" unicode="&#x152;" horiz-adv-x="1056" 
d="M559 0v70l-3 23v532l3 17v70h447v-68h-369v-248h349v-69h-349v-259h369v-68h-447zM577 572q-31 38 -79.5 58t-111.5 20q-115 0 -177.5 -77t-62.5 -216q0 -140 63 -217.5t177 -77.5q127 0 191 79v-79q-73 -70 -197 -70q-97 0 -168.5 44.5t-110.5 126.5t-39 193
q0 112 39 193.5t110.5 126t168.5 44.5q123 0 197 -68v-80z" />
    <glyph glyph-name="P" unicode="P" horiz-adv-x="651" 
d="M88 0v712h284q110 0 171.5 -53t61.5 -146q0 -92 -62 -146t-171 -54h-202v-313h-82zM170 381h195q79 0 119 34.5t40 97.5t-40 97t-119 34h-195v-263z" />
    <glyph glyph-name="Thorn" unicode="&#xde;" horiz-adv-x="651" 
d="M156 169v68h212q80 0 118 31t38 95t-38 94t-118 30h-212v68h221q109 0 168.5 -50t59.5 -142t-60 -143t-168 -51h-221zM88 0v712h81v-712h-81z" />
    <glyph glyph-name="Q" unicode="Q" horiz-adv-x="772" 
d="M578 -191q-43 32 -85 83t-73 104l80 27q26 -51 61 -90t74 -72zM386 -8q-100 0 -172.5 44t-112 126t-39.5 194q0 113 39 194.5t111.5 125.5t173.5 44q100 0 173 -44t112 -125.5t39 -193.5q0 -113 -39.5 -195t-112 -126t-172.5 -44zM386 62q113 0 176 76.5t63 218.5
t-63 217.5t-176 75.5t-176.5 -76t-63.5 -217t63.5 -218t176.5 -77z" />
    <glyph glyph-name="R" unicode="R" horiz-adv-x="693" 
d="M88 0v712h283q115 0 176.5 -51t61.5 -147q0 -92 -62.5 -144.5t-175.5 -52.5l74 14q39 0 67 -21.5t45 -68.5l90 -241h-87l-88 237q-17 45 -46.5 59.5t-78.5 14.5h-178v-311h-81zM169 379h195q83 0 123.5 34t40.5 100t-40 98.5t-124 32.5h-195v-265z" />
    <glyph glyph-name="Racute" unicode="&#x154;" horiz-adv-x="693" 
d="M88 0v712h283q115 0 176.5 -51t61.5 -147q0 -92 -62.5 -144.5t-175.5 -52.5l74 14q39 0 67 -21.5t45 -68.5l90 -241h-87l-88 237q-17 45 -46.5 59.5t-78.5 14.5h-178v-311h-81zM169 379h195q83 0 123.5 34t40.5 100t-40 98.5t-124 32.5h-195v-265zM372 773h-57l102 153
h89z" />
    <glyph glyph-name="Rcaron" unicode="&#x158;" horiz-adv-x="693" 
d="M88 0v712h283q115 0 176.5 -51t61.5 -147q0 -92 -62.5 -144.5t-175.5 -52.5l74 14q39 0 67 -21.5t45 -68.5l90 -241h-87l-88 237q-17 45 -46.5 59.5t-78.5 14.5h-178v-311h-81zM169 379h195q83 0 123.5 34t40.5 100t-40 98.5t-124 32.5h-195v-265zM417 926h74l-120 -153
h-55l-120 153h74l74 -105z" />
    <glyph glyph-name="Rcommaaccent" unicode="&#x156;" horiz-adv-x="693" 
d="M88 0v712h283q115 0 176.5 -51t61.5 -147q0 -92 -62.5 -144.5t-175.5 -52.5l74 14q39 0 67 -21.5t45 -68.5l90 -241h-87l-88 237q-17 45 -46.5 59.5t-78.5 14.5h-178v-311h-81zM169 379h195q83 0 123.5 34t40.5 100t-40 98.5t-124 32.5h-195v-265zM393 -73v-58
q0 -38 -10.5 -70t-41.5 -61l-37 28q23 24 30 45.5t7 45.5l23 -13h-70v83h99z" />
    <glyph glyph-name="uni0210" unicode="&#x210;" horiz-adv-x="693" 
d="M88 0v712h283q115 0 176.5 -51t61.5 -147q0 -92 -62.5 -144.5t-175.5 -52.5l74 14q39 0 67 -21.5t45 -68.5l90 -241h-87l-88 237q-17 45 -46.5 59.5t-78.5 14.5h-178v-311h-81zM169 379h195q83 0 123.5 34t40.5 100t-40 98.5t-124 32.5h-195v-265zM382 773l-99 153h72
l71 -153h-44zM261 773l-98 153h70l72 -153h-44z" />
    <glyph glyph-name="uni1E5A" unicode="&#x1e5a;" horiz-adv-x="693" 
d="M88 0v712h283q115 0 176.5 -51t61.5 -147q0 -92 -62.5 -144.5t-175.5 -52.5l74 14q39 0 67 -21.5t45 -68.5l90 -241h-87l-88 237q-17 45 -46.5 59.5t-78.5 14.5h-178v-311h-81zM169 379h195q83 0 123.5 34t40.5 100t-40 98.5t-124 32.5h-195v-265zM297 -95h93v-89h-93v89
z" />
    <glyph glyph-name="uni0212" unicode="&#x212;" horiz-adv-x="693" 
d="M88 0v712h283q115 0 176.5 -51t61.5 -147q0 -92 -62.5 -144.5t-175.5 -52.5l74 14q39 0 67 -21.5t45 -68.5l90 -241h-87l-88 237q-17 45 -46.5 59.5t-78.5 14.5h-178v-311h-81zM169 379h195q83 0 123.5 34t40.5 100t-40 98.5t-124 32.5h-195v-265zM344 915
q52 0 96.5 -24.5t67.5 -82.5l-51 -22q-24 42 -51.5 56.5t-61.5 14.5t-62 -14.5t-52 -56.5l-51 22q24 58 68 82.5t97 24.5z" />
    <glyph glyph-name="uni1E5E" unicode="&#x1e5e;" horiz-adv-x="693" 
d="M88 0v712h283q115 0 176.5 -51t61.5 -147q0 -92 -62.5 -144.5t-175.5 -52.5l74 14q39 0 67 -21.5t45 -68.5l90 -241h-87l-88 237q-17 45 -46.5 59.5t-78.5 14.5h-178v-311h-81zM169 379h195q83 0 123.5 34t40.5 100t-40 98.5t-124 32.5h-195v-265zM192 -170v60h303v-60
h-303z" />
    <glyph glyph-name="S" unicode="S" horiz-adv-x="623" 
d="M314 -8q-55 0 -103 9.5t-89 30t-74 50.5l31 63q54 -45 108.5 -64t127.5 -19q85 0 132 33.5t47 94.5q0 37 -23.5 59.5t-64 36t-91.5 25.5q-51 11 -97 25.5t-81.5 36.5t-55.5 56t-20 85q0 61 32 107.5t90 72.5t137 26q49 0 94 -10.5t83.5 -30.5t68.5 -49l-32 -63
q-49 43 -101 63t-113 20q-83 0 -130 -35t-47 -98q0 -39 21 -63t59 -38.5t87 -26.5q52 -12 100 -26t85.5 -34.5t59.5 -53t22 -82.5q0 -61 -32 -106t-91 -70t-140 -25z" />
    <glyph glyph-name="Sacute" unicode="&#x15a;" horiz-adv-x="623" 
d="M314 -8q-55 0 -103 9.5t-89 30t-74 50.5l31 63q54 -45 108.5 -64t127.5 -19q85 0 132 33.5t47 94.5q0 37 -23.5 59.5t-64 36t-91.5 25.5q-51 11 -97 25.5t-81.5 36.5t-55.5 56t-20 85q0 61 32 107.5t90 72.5t137 26q49 0 94 -10.5t83.5 -30.5t68.5 -49l-32 -63
q-49 43 -101 63t-113 20q-83 0 -130 -35t-47 -98q0 -39 21 -63t59 -38.5t87 -26.5q52 -12 100 -26t85.5 -34.5t59.5 -53t22 -82.5q0 -61 -32 -106t-91 -70t-140 -25zM340 773h-57l102 153h89z" />
    <glyph glyph-name="uni1E64" unicode="&#x1e64;" horiz-adv-x="623" 
d="M314 -8q-55 0 -103 9.5t-89 30t-74 50.5l31 63q54 -45 108.5 -64t127.5 -19q85 0 132 33.5t47 94.5q0 37 -23.5 59.5t-64 36t-91.5 25.5q-51 11 -97 25.5t-81.5 36.5t-55.5 56t-20 85q0 61 32 107.5t90 72.5t137 26q49 0 94 -10.5t83.5 -30.5t68.5 -49l-32 -63
q-49 43 -101 63t-113 20q-83 0 -130 -35t-47 -98q0 -39 21 -63t59 -38.5t87 -26.5q52 -12 100 -26t85.5 -34.5t59.5 -53t22 -82.5q0 -61 -32 -106t-91 -70t-140 -25zM348 773h-57l102 153h89zM149 925h99v-92h-99v92z" />
    <glyph glyph-name="Scaron" unicode="&#x160;" horiz-adv-x="623" 
d="M314 -8q-55 0 -103 9.5t-89 30t-74 50.5l31 63q54 -45 108.5 -64t127.5 -19q85 0 132 33.5t47 94.5q0 37 -23.5 59.5t-64 36t-91.5 25.5q-51 11 -97 25.5t-81.5 36.5t-55.5 56t-20 85q0 61 32 107.5t90 72.5t137 26q49 0 94 -10.5t83.5 -30.5t68.5 -49l-32 -63
q-49 43 -101 63t-113 20q-83 0 -130 -35t-47 -98q0 -39 21 -63t59 -38.5t87 -26.5q52 -12 100 -26t85.5 -34.5t59.5 -53t22 -82.5q0 -61 -32 -106t-91 -70t-140 -25zM385 926h74l-120 -153h-55l-120 153h74l74 -105z" />
    <glyph glyph-name="uni1E66" unicode="&#x1e66;" horiz-adv-x="623" 
d="M314 -8q-55 0 -103 9.5t-89 30t-74 50.5l31 63q54 -45 108.5 -64t127.5 -19q85 0 132 33.5t47 94.5q0 37 -23.5 59.5t-64 36t-91.5 25.5q-51 11 -97 25.5t-81.5 36.5t-55.5 56t-20 85q0 61 32 107.5t90 72.5t137 26q49 0 94 -10.5t83.5 -30.5t68.5 -49l-32 -63
q-49 43 -101 63t-113 20q-83 0 -130 -35t-47 -98q0 -39 21 -63t59 -38.5t87 -26.5q52 -12 100 -26t85.5 -34.5t59.5 -53t22 -82.5q0 -61 -32 -106t-91 -70t-140 -25zM385 926h74l-120 -153h-55l-120 153h74l74 -105zM262 1058h99v-92h-99v92z" />
    <glyph glyph-name="Scedilla" unicode="&#x15e;" horiz-adv-x="623" 
d="M314 -8q-55 0 -103 9.5t-89 30t-74 50.5l31 63q54 -45 108.5 -64t127.5 -19q85 0 132 33.5t47 94.5q0 37 -23.5 59.5t-64 36t-91.5 25.5q-51 11 -97 25.5t-81.5 36.5t-55.5 56t-20 85q0 61 32 107.5t90 72.5t137 26q49 0 94 -10.5t83.5 -30.5t68.5 -49l-32 -63
q-49 43 -101 63t-113 20q-83 0 -130 -35t-47 -98q0 -39 21 -63t59 -38.5t87 -26.5q52 -12 100 -26t85.5 -34.5t59.5 -53t22 -82.5q0 -61 -32 -106t-91 -70t-140 -25zM313 -195q-20 0 -45 4.5t-44 14.5l13 44q21 -8 39.5 -11t36.5 -3q28 0 42 9.5t14 25.5q0 27 -35 27
q-13 0 -24.5 -2.5t-21.5 -6.5l-20 16l11 97h57l-8 -73l-25 2q13 5 25.5 7.5t24.5 2.5q29 0 53 -17t24 -53t-30.5 -60t-86.5 -24z" />
    <glyph glyph-name="Scircumflex" unicode="&#x15c;" horiz-adv-x="623" 
d="M314 -8q-55 0 -103 9.5t-89 30t-74 50.5l31 63q54 -45 108.5 -64t127.5 -19q85 0 132 33.5t47 94.5q0 37 -23.5 59.5t-64 36t-91.5 25.5q-51 11 -97 25.5t-81.5 36.5t-55.5 56t-20 85q0 61 32 107.5t90 72.5t137 26q49 0 94 -10.5t83.5 -30.5t68.5 -49l-32 -63
q-49 43 -101 63t-113 20q-83 0 -130 -35t-47 -98q0 -39 21 -63t59 -38.5t87 -26.5q52 -12 100 -26t85.5 -34.5t59.5 -53t22 -82.5q0 -61 -32 -106t-91 -70t-140 -25zM238 773h-74l120 153h55l120 -153h-74l-73 104z" />
    <glyph glyph-name="Scommaaccent" unicode="&#x218;" horiz-adv-x="623" 
d="M314 -8q-55 0 -103 9.5t-89 30t-74 50.5l31 63q54 -45 108.5 -64t127.5 -19q85 0 132 33.5t47 94.5q0 37 -23.5 59.5t-64 36t-91.5 25.5q-51 11 -97 25.5t-81.5 36.5t-55.5 56t-20 85q0 61 32 107.5t90 72.5t137 26q49 0 94 -10.5t83.5 -30.5t68.5 -49l-32 -63
q-49 43 -101 63t-113 20q-83 0 -130 -35t-47 -98q0 -39 21 -63t59 -38.5t87 -26.5q52 -12 100 -26t85.5 -34.5t59.5 -53t22 -82.5q0 -61 -32 -106t-91 -70t-140 -25zM364 -73v-58q0 -38 -10.5 -70t-41.5 -61l-37 28q23 24 30 45.5t7 45.5l23 -13h-70v83h99z" />
    <glyph glyph-name="uni1E60" unicode="&#x1e60;" horiz-adv-x="623" 
d="M314 -8q-55 0 -103 9.5t-89 30t-74 50.5l31 63q54 -45 108.5 -64t127.5 -19q85 0 132 33.5t47 94.5q0 37 -23.5 59.5t-64 36t-91.5 25.5q-51 11 -97 25.5t-81.5 36.5t-55.5 56t-20 85q0 61 32 107.5t90 72.5t137 26q49 0 94 -10.5t83.5 -30.5t68.5 -49l-32 -63
q-49 43 -101 63t-113 20q-83 0 -130 -35t-47 -98q0 -39 21 -63t59 -38.5t87 -26.5q52 -12 100 -26t85.5 -34.5t59.5 -53t22 -82.5q0 -61 -32 -106t-91 -70t-140 -25zM262 896h99v-92h-99v92z" />
    <glyph glyph-name="uni1E62" unicode="&#x1e62;" horiz-adv-x="623" 
d="M314 -8q-55 0 -103 9.5t-89 30t-74 50.5l31 63q54 -45 108.5 -64t127.5 -19q85 0 132 33.5t47 94.5q0 37 -23.5 59.5t-64 36t-91.5 25.5q-51 11 -97 25.5t-81.5 36.5t-55.5 56t-20 85q0 61 32 107.5t90 72.5t137 26q49 0 94 -10.5t83.5 -30.5t68.5 -49l-32 -63
q-49 43 -101 63t-113 20q-83 0 -130 -35t-47 -98q0 -39 21 -63t59 -38.5t87 -26.5q52 -12 100 -26t85.5 -34.5t59.5 -53t22 -82.5q0 -61 -32 -106t-91 -70t-140 -25zM268 -95h93v-89h-93v89z" />
    <glyph glyph-name="uni1E68" unicode="&#x1e68;" horiz-adv-x="623" 
d="M314 -8q-55 0 -103 9.5t-89 30t-74 50.5l31 63q54 -45 108.5 -64t127.5 -19q85 0 132 33.5t47 94.5q0 37 -23.5 59.5t-64 36t-91.5 25.5q-51 11 -97 25.5t-81.5 36.5t-55.5 56t-20 85q0 61 32 107.5t90 72.5t137 26q49 0 94 -10.5t83.5 -30.5t68.5 -49l-32 -63
q-49 43 -101 63t-113 20q-83 0 -130 -35t-47 -98q0 -39 21 -63t59 -38.5t87 -26.5q52 -12 100 -26t85.5 -34.5t59.5 -53t22 -82.5q0 -61 -32 -106t-91 -70t-140 -25zM268 -95h93v-89h-93v89zM262 896h99v-92h-99v92z" />
    <glyph glyph-name="uni1E9E" unicode="&#x1e9e;" horiz-adv-x="695" 
d="M88 0v461q0 127 67.5 192.5t199.5 65.5q72 0 124 -23.5t80.5 -66t28.5 -100.5q0 -64 -34 -107.5t-94 -58.5l6 12q82 -12 126 -59t44 -121q0 -59 -28 -104.5t-77.5 -71.5t-114.5 -26q-53 0 -100 16t-84 49l28 63q41 -31 77.5 -45.5t74.5 -13.5q67 1 105 37t38 99
q0 64 -42.5 96.5t-126.5 32.5h-129v69h98q73 0 112.5 33t39.5 95q0 59 -40.5 92t-112.5 33q-93 0 -139 -47.5t-46 -144.5v-457h-81z" />
    <glyph glyph-name="uni018F" unicode="&#x18f;" horiz-adv-x="750" 
d="M378 -8q-98 0 -169 43.5t-109 124.5t-38 194v42h580v-70h-518l22 31q-1 -141 60 -218t170 -77t168.5 77t59.5 218t-66 217t-187 76q-64 0 -119.5 -20.5t-103.5 -62.5l-32 63q31 28 71.5 48.5t87.5 31t97 10.5q103 0 178.5 -44t116.5 -125t41 -194q0 -112 -38 -194
t-108 -126.5t-164 -44.5z" />
    <glyph glyph-name="T" unicode="T" horiz-adv-x="603" 
d="M260 0v642h-248v70h579v-70h-248v-642h-83z" />
    <glyph glyph-name="Tbar" unicode="&#x166;" horiz-adv-x="603" 
d="M116 328v66h371v-66h-371zM260 0v642h-248v70h579v-70h-248v-642h-83z" />
    <glyph glyph-name="Tcaron" unicode="&#x164;" horiz-adv-x="603" 
d="M260 0v642h-248v70h579v-70h-248v-642h-83zM375 926h74l-120 -153h-55l-120 153h74l74 -105z" />
    <glyph glyph-name="Tcommaaccent" unicode="&#x162;" horiz-adv-x="603" 
d="M260 0v642h-248v70h579v-70h-248v-642h-83zM303 -195q-20 0 -45 4.5t-44 14.5l13 44q21 -8 39.5 -11t36.5 -3q28 0 42 9.5t14 25.5q0 27 -35 27q-13 0 -24.5 -2.5t-21.5 -6.5l-20 16l11 97h57l-8 -73l-25 2q13 5 25.5 7.5t24.5 2.5q29 0 53 -17t24 -53t-30.5 -60
t-86.5 -24z" />
    <glyph glyph-name="uni021A" unicode="&#x21a;" horiz-adv-x="603" 
d="M260 0v642h-248v70h579v-70h-248v-642h-83zM351 -73v-58q0 -38 -10.5 -70t-41.5 -61l-37 28q23 24 30 45.5t7 45.5l23 -13h-70v83h99z" />
    <glyph glyph-name="uni1E6C" unicode="&#x1e6c;" horiz-adv-x="603" 
d="M260 0v642h-248v70h579v-70h-248v-642h-83zM255 -95h93v-89h-93v89z" />
    <glyph glyph-name="uni1E6E" unicode="&#x1e6e;" horiz-adv-x="603" 
d="M260 0v642h-248v70h579v-70h-248v-642h-83zM150 -170v60h303v-60h-303z" />
    <glyph glyph-name="U" unicode="U" horiz-adv-x="731" 
d="M366 -8q-139 0 -211 72.5t-72 214.5v433h81v-440q0 -105 51 -157.5t151 -52.5q98 0 149 53t51 157v440h82v-433q0 -141 -72 -214t-210 -73z" />
    <glyph glyph-name="Uacute" unicode="&#xda;" horiz-adv-x="731" 
d="M366 -8q-139 0 -211 72.5t-72 214.5v433h81v-440q0 -105 51 -157.5t151 -52.5q98 0 149 53t51 157v440h82v-433q0 -141 -72 -214t-210 -73zM394 773h-57l102 153h89z" />
    <glyph glyph-name="Ubreve" unicode="&#x16c;" horiz-adv-x="731" 
d="M366 -8q-139 0 -211 72.5t-72 214.5v433h81v-440q0 -105 51 -157.5t151 -52.5q98 0 149 53t51 157v440h82v-433q0 -141 -72 -214t-210 -73zM366 785q-53 0 -97.5 24t-67.5 83l51 22q24 -43 52 -57t62 -14t61.5 14t51.5 57l51 -22q-24 -59 -68 -83t-96 -24z" />
    <glyph glyph-name="Ucircumflex" unicode="&#xdb;" horiz-adv-x="731" 
d="M366 -8q-139 0 -211 72.5t-72 214.5v433h81v-440q0 -105 51 -157.5t151 -52.5q98 0 149 53t51 157v440h82v-433q0 -141 -72 -214t-210 -73zM292 773h-74l120 153h55l120 -153h-74l-73 104z" />
    <glyph glyph-name="uni0214" unicode="&#x214;" horiz-adv-x="731" 
d="M366 -8q-139 0 -211 72.5t-72 214.5v433h81v-440q0 -105 51 -157.5t151 -52.5q98 0 149 53t51 157v440h82v-433q0 -141 -72 -214t-210 -73zM404 773l-99 153h72l71 -153h-44zM283 773l-98 153h70l72 -153h-44z" />
    <glyph glyph-name="Udieresis" unicode="&#xdc;" horiz-adv-x="731" 
d="M366 -8q-139 0 -211 72.5t-72 214.5v433h81v-440q0 -105 51 -157.5t151 -52.5q98 0 149 53t51 157v440h82v-433q0 -141 -72 -214t-210 -73zM407 893h90v-86h-90v86zM234 893h90v-86h-90v86z" />
    <glyph glyph-name="uni1EE4" unicode="&#x1ee4;" horiz-adv-x="731" 
d="M366 -8q-139 0 -211 72.5t-72 214.5v433h81v-440q0 -105 51 -157.5t151 -52.5q98 0 149 53t51 157v440h82v-433q0 -141 -72 -214t-210 -73zM319 -95h93v-89h-93v89z" />
    <glyph glyph-name="Ugrave" unicode="&#xd9;" horiz-adv-x="731" 
d="M366 -8q-139 0 -211 72.5t-72 214.5v433h81v-440q0 -105 51 -157.5t151 -52.5q98 0 149 53t51 157v440h82v-433q0 -141 -72 -214t-210 -73zM337 773l-134 153h89l102 -153h-57z" />
    <glyph glyph-name="uni1EE6" unicode="&#x1ee6;" horiz-adv-x="731" 
d="M366 -8q-139 0 -211 72.5t-72 214.5v433h81v-440q0 -105 51 -157.5t151 -52.5q98 0 149 53t51 157v440h82v-433q0 -141 -72 -214t-210 -73zM393 783v-10h-54v18q0 17 10 27t23.5 16.5t24 13t10.5 15.5t-10.5 14t-30.5 5q-14 0 -29 -2.5t-33 -9.5l-14 43q18 8 39 12.5
t43 4.5q47 0 73 -18t26 -46q0 -20 -12 -31t-27 -18t-27 -14.5t-12 -19.5z" />
    <glyph glyph-name="Uhorn" unicode="&#x1af;" horiz-adv-x="731" 
d="M694 838h72v-27q0 -69 -40.5 -108.5t-112.5 -41.5l35 33v-415q0 -141 -72 -214t-210 -73q-139 0 -211 72.5t-72 214.5v433h81v-440q0 -105 51 -157.5t151 -52.5q98 0 149 53t51 157v440h24q56 1 80 26t24 85v15z" />
    <glyph glyph-name="uni1EE8" unicode="&#x1ee8;" horiz-adv-x="731" 
d="M694 838h72v-27q0 -69 -40.5 -108.5t-112.5 -41.5l35 33v-415q0 -141 -72 -214t-210 -73q-139 0 -211 72.5t-72 214.5v433h81v-440q0 -105 51 -157.5t151 -52.5q98 0 149 53t51 157v440h24q56 1 80 26t24 85v15zM394 773h-57l102 153h89z" />
    <glyph glyph-name="uni1EF0" unicode="&#x1ef0;" horiz-adv-x="731" 
d="M694 838h72v-27q0 -69 -40.5 -108.5t-112.5 -41.5l35 33v-415q0 -141 -72 -214t-210 -73q-139 0 -211 72.5t-72 214.5v433h81v-440q0 -105 51 -157.5t151 -52.5q98 0 149 53t51 157v440h24q56 1 80 26t24 85v15zM319 -95h93v-89h-93v89z" />
    <glyph glyph-name="uni1EEA" unicode="&#x1eea;" horiz-adv-x="731" 
d="M694 838h72v-27q0 -69 -40.5 -108.5t-112.5 -41.5l35 33v-415q0 -141 -72 -214t-210 -73q-139 0 -211 72.5t-72 214.5v433h81v-440q0 -105 51 -157.5t151 -52.5q98 0 149 53t51 157v440h24q56 1 80 26t24 85v15zM337 773l-134 153h89l102 -153h-57z" />
    <glyph glyph-name="uni1EEC" unicode="&#x1eec;" horiz-adv-x="731" 
d="M694 838h72v-27q0 -69 -40.5 -108.5t-112.5 -41.5l35 33v-415q0 -141 -72 -214t-210 -73q-139 0 -211 72.5t-72 214.5v433h81v-440q0 -105 51 -157.5t151 -52.5q98 0 149 53t51 157v440h24q56 1 80 26t24 85v15zM393 783v-10h-54v18q0 17 10 27t23.5 16.5t24 13
t10.5 15.5t-10.5 14t-30.5 5q-14 0 -29 -2.5t-33 -9.5l-14 43q18 8 39 12.5t43 4.5q47 0 73 -18t26 -46q0 -20 -12 -31t-27 -18t-27 -14.5t-12 -19.5z" />
    <glyph glyph-name="uni1EEE" unicode="&#x1eee;" horiz-adv-x="731" 
d="M694 838h72v-27q0 -69 -40.5 -108.5t-112.5 -41.5l35 33v-415q0 -141 -72 -214t-210 -73q-139 0 -211 72.5t-72 214.5v433h81v-440q0 -105 51 -157.5t151 -52.5q98 0 149 53t51 157v440h24q56 1 80 26t24 85v15zM203 794q0 56 25 86t65 30q28 0 53.5 -14.5t48 -29
t41.5 -14.5q23 0 35 16.5t12 38.5h45q0 -56 -25 -86t-65 -30q-28 0 -53.5 14.5t-48 29t-41.5 14.5q-23 0 -35 -16.5t-12 -38.5h-45z" />
    <glyph glyph-name="Uhungarumlaut" unicode="&#x170;" horiz-adv-x="731" 
d="M366 -8q-139 0 -211 72.5t-72 214.5v433h81v-440q0 -105 51 -157.5t151 -52.5q98 0 149 53t51 157v440h82v-433q0 -141 -72 -214t-210 -73zM404 773l72 153h70l-98 -153h-44zM283 773l71 153h72l-99 -153h-44z" />
    <glyph glyph-name="uni0216" unicode="&#x216;" horiz-adv-x="731" 
d="M366 -8q-139 0 -211 72.5t-72 214.5v433h81v-440q0 -105 51 -157.5t151 -52.5q98 0 149 53t51 157v440h82v-433q0 -141 -72 -214t-210 -73zM366 915q52 0 96.5 -24.5t67.5 -82.5l-51 -22q-24 42 -51.5 56.5t-61.5 14.5t-62 -14.5t-52 -56.5l-51 22q24 58 68 82.5t97 24.5
z" />
    <glyph glyph-name="Umacron" unicode="&#x16a;" horiz-adv-x="731" 
d="M366 -8q-139 0 -211 72.5t-72 214.5v433h81v-440q0 -105 51 -157.5t151 -52.5q98 0 149 53t51 157v440h82v-433q0 -141 -72 -214t-210 -73zM214 819v62h303v-62h-303z" />
    <glyph glyph-name="uni1E7A" unicode="&#x1e7a;" horiz-adv-x="731" 
d="M366 -8q-139 0 -211 72.5t-72 214.5v433h81v-440q0 -105 51 -157.5t151 -52.5q98 0 149 53t51 157v440h82v-433q0 -141 -72 -214t-210 -73zM214 819v62h303v-62h-303zM407 1055h90v-86h-90v86zM234 1055h90v-86h-90v86z" />
    <glyph glyph-name="Uogonek" unicode="&#x172;" horiz-adv-x="731" 
d="M566 712h82v-433q0 -111 -43.5 -179.5t-129.5 -93.5q-42 -13 -61 -33.5t-19 -50.5t17.5 -46.5t47.5 -16.5q14 0 29 4.5t30 12.5l16 -48q-36 -23 -86 -23q-52 0 -85 30t-33 76q0 34 17.5 59.5t50.5 40.5l12 -19h-45q-139 0 -211 72.5t-72 214.5v433h81v-440
q0 -105 51 -157.5t151 -52.5q98 0 149 53t51 157v440z" />
    <glyph glyph-name="Uring" unicode="&#x16e;" horiz-adv-x="731" 
d="M366 -8q-139 0 -211 72.5t-72 214.5v433h81v-440q0 -105 51 -157.5t151 -52.5q98 0 149 53t51 157v440h82v-433q0 -141 -72 -214t-210 -73zM366 768q-43 0 -72.5 29t-29.5 71t29.5 71t72.5 29q42 0 71.5 -29t29.5 -71t-29.5 -71t-71.5 -29zM366 817q21 0 34.5 14.5
t13.5 36.5q0 21 -13.5 35.5t-34.5 14.5q-22 0 -35.5 -14.5t-13.5 -35.5q0 -22 13.5 -36.5t35.5 -14.5z" />
    <glyph glyph-name="Utilde" unicode="&#x168;" horiz-adv-x="731" 
d="M366 -8q-139 0 -211 72.5t-72 214.5v433h81v-440q0 -105 51 -157.5t151 -52.5q98 0 149 53t51 157v440h82v-433q0 -141 -72 -214t-210 -73zM203 794q0 56 25 86t65 30q28 0 53.5 -14.5t48 -29t41.5 -14.5q23 0 35 16.5t12 38.5h45q0 -56 -25 -86t-65 -30
q-28 0 -53.5 14.5t-48 29t-41.5 14.5q-23 0 -35 -16.5t-12 -38.5h-45z" />
    <glyph glyph-name="uni1E78" unicode="&#x1e78;" horiz-adv-x="731" 
d="M366 -8q-139 0 -211 72.5t-72 214.5v433h81v-440q0 -105 51 -157.5t151 -52.5q98 0 149 53t51 157v440h82v-433q0 -141 -72 -214t-210 -73zM203 794q0 56 25 86t65 30q28 0 53.5 -14.5t48 -29t41.5 -14.5q23 0 35 16.5t12 38.5h45q0 -56 -25 -86t-65 -30
q-28 0 -53.5 14.5t-48 29t-41.5 14.5q-23 0 -35 -16.5t-12 -38.5h-45zM394 935h-57l102 153h89z" />
    <glyph glyph-name="V" unicode="V" horiz-adv-x="697" 
d="M313 0l-311 712h87l277 -646h-33l278 646h85l-311 -712h-72z" />
    <glyph glyph-name="W" unicode="W" horiz-adv-x="1112" 
d="M283 0l-250 712h84l218 -642h-32l223 642l63 -1l219 -641h-31l220 642h81l-249 -712h-70l-214 614h22l-215 -614h-69z" />
    <glyph glyph-name="Wacute" unicode="&#x1e82;" horiz-adv-x="1112" 
d="M283 0l-250 712h84l218 -642h-32l223 642l63 -1l219 -641h-31l220 642h81l-249 -712h-70l-214 614h22l-215 -614h-69zM583 773h-57l102 153h89z" />
    <glyph glyph-name="Wcircumflex" unicode="&#x174;" horiz-adv-x="1112" 
d="M283 0l-250 712h84l218 -642h-32l223 642l63 -1l219 -641h-31l220 642h81l-249 -712h-70l-214 614h22l-215 -614h-69zM481 773h-74l120 153h55l120 -153h-74l-73 104z" />
    <glyph glyph-name="Wdieresis" unicode="&#x1e84;" horiz-adv-x="1112" 
d="M283 0l-250 712h84l218 -642h-32l223 642l63 -1l219 -641h-31l220 642h81l-249 -712h-70l-214 614h22l-215 -614h-69zM596 893h90v-86h-90v86zM423 893h90v-86h-90v86z" />
    <glyph glyph-name="Wgrave" unicode="&#x1e80;" horiz-adv-x="1112" 
d="M283 0l-250 712h84l218 -642h-32l223 642l63 -1l219 -641h-31l220 642h81l-249 -712h-70l-214 614h22l-215 -614h-69zM526 773l-134 153h89l102 -153h-57z" />
    <glyph glyph-name="X" unicode="X" horiz-adv-x="652" 
d="M106 0h-98l271 365l48 61l208 286h97l-259 -348l-47 -62zM547 0l-221 302l-47 63l-258 347h98l208 -286l46 -62l271 -364h-97z" />
    <glyph glyph-name="Y" unicode="Y" horiz-adv-x="607" 
d="M262 0v320l18 -58l-298 450h96l240 -372h-28l240 372h94l-297 -450l17 58v-320h-82z" />
    <glyph glyph-name="Yacute" unicode="&#xdd;" horiz-adv-x="607" 
d="M262 0v320l18 -58l-298 450h96l240 -372h-28l240 372h94l-297 -450l17 58v-320h-82zM331 773h-57l102 153h89z" />
    <glyph glyph-name="Ycircumflex" unicode="&#x176;" horiz-adv-x="607" 
d="M262 0v320l18 -58l-298 450h96l240 -372h-28l240 372h94l-297 -450l17 58v-320h-82zM229 773h-74l120 153h55l120 -153h-74l-73 104z" />
    <glyph glyph-name="Ydieresis" unicode="&#x178;" horiz-adv-x="607" 
d="M262 0v320l18 -58l-298 450h96l240 -372h-28l240 372h94l-297 -450l17 58v-320h-82zM344 893h90v-86h-90v86zM171 893h90v-86h-90v86z" />
    <glyph glyph-name="uni1E8E" unicode="&#x1e8e;" horiz-adv-x="607" 
d="M262 0v320l18 -58l-298 450h96l240 -372h-28l240 372h94l-297 -450l17 58v-320h-82zM253 896h99v-92h-99v92z" />
    <glyph glyph-name="uni1EF4" unicode="&#x1ef4;" horiz-adv-x="607" 
d="M262 0v320l18 -58l-298 450h96l240 -372h-28l240 372h94l-297 -450l17 58v-320h-82zM256 -95h93v-89h-93v89z" />
    <glyph glyph-name="Ygrave" unicode="&#x1ef2;" horiz-adv-x="607" 
d="M262 0v320l18 -58l-298 450h96l240 -372h-28l240 372h94l-297 -450l17 58v-320h-82zM274 773l-134 153h89l102 -153h-57z" />
    <glyph glyph-name="uni1EF6" unicode="&#x1ef6;" horiz-adv-x="607" 
d="M262 0v320l18 -58l-298 450h96l240 -372h-28l240 372h94l-297 -450l17 58v-320h-82zM330 783v-10h-54v18q0 17 10 27t23.5 16.5t24 13t10.5 15.5t-10.5 14t-30.5 5q-14 0 -29 -2.5t-33 -9.5l-14 43q18 8 39 12.5t43 4.5q47 0 73 -18t26 -46q0 -20 -12 -31t-27 -18
t-27 -14.5t-12 -19.5z" />
    <glyph glyph-name="uni0232" unicode="&#x232;" horiz-adv-x="607" 
d="M262 0v320l18 -58l-298 450h96l240 -372h-28l240 372h94l-297 -450l17 58v-320h-82zM151 819v62h303v-62h-303z" />
    <glyph glyph-name="uni1EF8" unicode="&#x1ef8;" horiz-adv-x="607" 
d="M262 0v320l18 -58l-298 450h96l240 -372h-28l240 372h94l-297 -450l17 58v-320h-82zM140 794q0 56 25 86t65 30q28 0 53.5 -14.5t48 -29t41.5 -14.5q23 0 35 16.5t12 38.5h45q0 -56 -25 -86t-65 -30q-28 0 -53.5 14.5t-48 29t-41.5 14.5q-23 0 -35 -16.5t-12 -38.5h-45z
" />
    <glyph glyph-name="Z" unicode="Z" horiz-adv-x="596" 
d="M45 0v61l437 624l-2 -42h-435v69h503v-60l-437 -625l2 42h445v-69h-513z" />
    <glyph glyph-name="Zacute" unicode="&#x179;" horiz-adv-x="596" 
d="M45 0v61l437 624l-2 -42h-435v69h503v-60l-437 -625l2 42h445v-69h-513zM325 773h-57l102 153h89z" />
    <glyph glyph-name="Zcaron" unicode="&#x17d;" horiz-adv-x="596" 
d="M45 0v61l437 624l-2 -42h-435v69h503v-60l-437 -625l2 42h445v-69h-513zM370 926h74l-120 -153h-55l-120 153h74l74 -105z" />
    <glyph glyph-name="Zdotaccent" unicode="&#x17b;" horiz-adv-x="596" 
d="M45 0v61l437 624l-2 -42h-435v69h503v-60l-437 -625l2 42h445v-69h-513zM247 896h99v-92h-99v92z" />
    <glyph glyph-name="uni1E92" unicode="&#x1e92;" horiz-adv-x="596" 
d="M45 0v61l437 624l-2 -42h-435v69h503v-60l-437 -625l2 42h445v-69h-513zM255 -95h93v-89h-93v89z" />
    <glyph glyph-name="Iacute_J.loclNLD" horiz-adv-x="587" 
d="M88 0v712h82v-712h-82zM157 773h-57l102 153h89zM253 -178v71q62 -11 98 -5.5t51 35t15 88.5v701h82v-702q0 -83 -24 -129.5t-78 -60t-144 1.5zM486 773h-57l102 153h89z" />
    <glyph glyph-name="a" unicode="a" 
d="M271 -7q-67 0 -117.5 31.5t-78 90t-27.5 137.5t28 138t78.5 92t116.5 33q69 0 117 -34t65 -97l-12 -8v127h80v-503h-80v130l12 -6q-17 -63 -65 -97t-117 -34zM287 60q74 0 114 50.5t40 143.5t-40.5 143t-113.5 50q-74 0 -115.5 -51.5t-41.5 -143.5t41.5 -142t115.5 -50z
" />
    <glyph glyph-name="aacute" unicode="&#xe1;" 
d="M271 -7q-67 0 -117.5 31.5t-78 90t-27.5 137.5t28 138t78.5 92t116.5 33q69 0 117 -34t65 -97l-12 -8v127h80v-503h-80v130l12 -6q-17 -63 -65 -97t-117 -34zM287 60q74 0 114 50.5t40 143.5t-40.5 143t-113.5 50q-74 0 -115.5 -51.5t-41.5 -143.5t41.5 -142t115.5 -50z
M329 568h-57l100 204h94z" />
    <glyph glyph-name="abreve" unicode="&#x103;" 
d="M271 -7q-67 0 -117.5 31.5t-78 90t-27.5 137.5t28 138t78.5 92t116.5 33q69 0 117 -34t65 -97l-12 -8v127h80v-503h-80v130l12 -6q-17 -63 -65 -97t-117 -34zM287 60q74 0 114 50.5t40 143.5t-40.5 143t-113.5 50q-74 0 -115.5 -51.5t-41.5 -143.5t41.5 -142t115.5 -50z
M301 598q-35 0 -67.5 13t-58.5 41t-41 74l51 22q24 -50 53 -70t63 -20t62.5 20t52.5 70l51 -22q-14 -46 -40 -74t-59 -41t-67 -13z" />
    <glyph glyph-name="uni1EAF" unicode="&#x1eaf;" 
d="M271 -7q-67 0 -117.5 31.5t-78 90t-27.5 137.5t28 138t78.5 92t116.5 33q69 0 117 -34t65 -97l-12 -8v127h80v-503h-80v130l12 -6q-17 -63 -65 -97t-117 -34zM287 60q74 0 114 50.5t40 143.5t-40.5 143t-113.5 50q-74 0 -115.5 -51.5t-41.5 -143.5t41.5 -142t115.5 -50z
M301 563q-53 0 -97.5 24.5t-67.5 82.5l47 20q24 -42 53.5 -57t64.5 -15q34 0 63.5 15t53.5 57l47 -20q-24 -58 -68 -82.5t-96 -24.5zM328 672h-55l101 143h86z" />
    <glyph glyph-name="uni1EB7" unicode="&#x1eb7;" 
d="M271 -7q-67 0 -117.5 31.5t-78 90t-27.5 137.5t28 138t78.5 92t116.5 33q69 0 117 -34t65 -97l-12 -8v127h80v-503h-80v130l12 -6q-17 -63 -65 -97t-117 -34zM287 60q74 0 114 50.5t40 143.5t-40.5 143t-113.5 50q-74 0 -115.5 -51.5t-41.5 -143.5t41.5 -142t115.5 -50z
M254 -95h93v-89h-93v89zM301 598q-35 0 -67.5 13t-58.5 41t-41 74l51 22q24 -50 53 -70t63 -20t62.5 20t52.5 70l51 -22q-14 -46 -40 -74t-59 -41t-67 -13z" />
    <glyph glyph-name="uni1EB1" unicode="&#x1eb1;" 
d="M271 -7q-67 0 -117.5 31.5t-78 90t-27.5 137.5t28 138t78.5 92t116.5 33q69 0 117 -34t65 -97l-12 -8v127h80v-503h-80v130l12 -6q-17 -63 -65 -97t-117 -34zM287 60q74 0 114 50.5t40 143.5t-40.5 143t-113.5 50q-74 0 -115.5 -51.5t-41.5 -143.5t41.5 -142t115.5 -50z
M301 563q-53 0 -97 24.5t-68 82.5l47 20q24 -42 53.5 -57t64.5 -15q34 0 63.5 15t53.5 57l47 -20q-23 -58 -67.5 -82.5t-96.5 -24.5zM273 672l-132 143h86l101 -143h-55z" />
    <glyph glyph-name="uni1EB3" unicode="&#x1eb3;" 
d="M271 -7q-67 0 -117.5 31.5t-78 90t-27.5 137.5t28 138t78.5 92t116.5 33q69 0 117 -34t65 -97l-12 -8v127h80v-503h-80v130l12 -6q-17 -63 -65 -97t-117 -34zM287 60q74 0 114 50.5t40 143.5t-40.5 143t-113.5 50q-74 0 -115.5 -51.5t-41.5 -143.5t41.5 -142t115.5 -50z
M301 563q-53 0 -97 24.5t-68 82.5l47 20q24 -42 53.5 -57t64.5 -15q34 0 63.5 15t53.5 57l47 -20q-23 -58 -67.5 -82.5t-96.5 -24.5zM328 681v-9h-54v17q0 17 10 26.5t23.5 14.5t24 10t10.5 13t-10.5 13.5t-30.5 5.5q-14 0 -29 -2.5t-33 -10.5l-14 44q18 8 39 12.5t43 4.5
q47 0 73 -17.5t26 -46.5q0 -18 -12 -28t-27 -16t-27 -12.5t-12 -18.5z" />
    <glyph glyph-name="uni1EB5" unicode="&#x1eb5;" 
d="M271 -7q-67 0 -117.5 31.5t-78 90t-27.5 137.5t28 138t78.5 92t116.5 33q69 0 117 -34t65 -97l-12 -8v127h80v-503h-80v130l12 -6q-17 -63 -65 -97t-117 -34zM287 60q74 0 114 50.5t40 143.5t-40.5 143t-113.5 50q-74 0 -115.5 -51.5t-41.5 -143.5t41.5 -142t115.5 -50z
M301 563q-53 0 -97 24.5t-68 82.5l47 20q24 -42 53.5 -57t64.5 -15q34 0 63.5 15t53.5 57l47 -20q-23 -58 -67.5 -82.5t-96.5 -24.5zM138 719q0 31 11.5 54.5t31.5 36.5t47 13q28 0 53.5 -13.5l48 -26.5t41.5 -13q23 0 35 15t12 35h45q0 -32 -11.5 -55t-31.5 -36t-47 -13
q-28 0 -53.5 13t-48 26t-41.5 13q-23 0 -35 -15t-12 -34h-45z" />
    <glyph glyph-name="uni01CE" unicode="&#x1ce;" 
d="M271 -7q-67 0 -117.5 31.5t-78 90t-27.5 137.5t28 138t78.5 92t116.5 33q69 0 117 -34t65 -97l-12 -8v127h80v-503h-80v130l12 -6q-17 -63 -65 -97t-117 -34zM287 60q74 0 114 50.5t40 143.5t-40.5 143t-113.5 50q-74 0 -115.5 -51.5t-41.5 -143.5t41.5 -142t115.5 -50z
M373 772h75l-119 -204h-57l-119 204h75l73 -145z" />
    <glyph glyph-name="acircumflex" unicode="&#xe2;" 
d="M271 -7q-67 0 -117.5 31.5t-78 90t-27.5 137.5t28 138t78.5 92t116.5 33q69 0 117 -34t65 -97l-12 -8v127h80v-503h-80v130l12 -6q-17 -63 -65 -97t-117 -34zM287 60q74 0 114 50.5t40 143.5t-40.5 143t-113.5 50q-74 0 -115.5 -51.5t-41.5 -143.5t41.5 -142t115.5 -50z
M228 568h-75l119 204h57l119 -204h-75l-72 144z" />
    <glyph glyph-name="uni1EA5" unicode="&#x1ea5;" 
d="M271 -7q-67 0 -117.5 31.5t-78 90t-27.5 137.5t28 138t78.5 92t116.5 33q69 0 117 -34t65 -97l-12 -8v127h80v-503h-80v130l12 -6q-17 -63 -65 -97t-117 -34zM287 60q74 0 114 50.5t40 143.5t-40.5 143t-113.5 50q-74 0 -115.5 -51.5t-41.5 -143.5t41.5 -142t115.5 -50z
M227 568h-74l120 148h55l120 -148h-74l-73 100zM436 672h-50l92 143h86z" />
    <glyph glyph-name="uni1EAD" unicode="&#x1ead;" 
d="M271 -7q-67 0 -117.5 31.5t-78 90t-27.5 137.5t28 138t78.5 92t116.5 33q69 0 117 -34t65 -97l-12 -8v127h80v-503h-80v130l12 -6q-17 -63 -65 -97t-117 -34zM287 60q74 0 114 50.5t40 143.5t-40.5 143t-113.5 50q-74 0 -115.5 -51.5t-41.5 -143.5t41.5 -142t115.5 -50z
M254 -95h93v-89h-93v89zM228 568h-75l119 204h57l119 -204h-75l-72 144z" />
    <glyph glyph-name="uni1EA7" unicode="&#x1ea7;" 
d="M271 -7q-67 0 -117.5 31.5t-78 90t-27.5 137.5t28 138t78.5 92t116.5 33q69 0 117 -34t65 -97l-12 -8v127h80v-503h-80v130l12 -6q-17 -63 -65 -97t-117 -34zM287 60q74 0 114 50.5t40 143.5t-40.5 143t-113.5 50q-74 0 -115.5 -51.5t-41.5 -143.5t41.5 -142t115.5 -50z
M227 568h-74l120 148h55l120 -148h-74l-73 100zM429 672l-113 143h85l78 -143h-50z" />
    <glyph glyph-name="uni1EA9" unicode="&#x1ea9;" 
d="M271 -7q-67 0 -117.5 31.5t-78 90t-27.5 137.5t28 138t78.5 92t116.5 33q69 0 117 -34t65 -97l-12 -8v127h80v-503h-80v130l12 -6q-17 -63 -65 -97t-117 -34zM287 60q74 0 114 50.5t40 143.5t-40.5 143t-113.5 50q-74 0 -115.5 -51.5t-41.5 -143.5t41.5 -142t115.5 -50z
M227 568h-74l120 148h55l120 -148h-74l-73 100zM439 681v-9h-54v17q0 17 10 26.5t23.5 14.5t24 10t10.5 13t-10.5 13.5t-30.5 5.5q-14 0 -29 -2.5t-33 -10.5l-14 44q18 8 39 12.5t43 4.5q47 0 73.5 -17.5t26.5 -46.5q0 -18 -12 -28t-27.5 -16t-27.5 -12.5t-12 -18.5z" />
    <glyph glyph-name="uni1EAB" unicode="&#x1eab;" 
d="M271 -7q-67 0 -117.5 31.5t-78 90t-27.5 137.5t28 138t78.5 92t116.5 33q69 0 117 -34t65 -97l-12 -8v127h80v-503h-80v130l12 -6q-17 -63 -65 -97t-117 -34zM287 60q74 0 114 50.5t40 143.5t-40.5 143t-113.5 50q-74 0 -115.5 -51.5t-41.5 -143.5t41.5 -142t115.5 -50z
M227 568h-74l120 148h55l120 -148h-74l-73 100zM138 731q0 29 11.5 51.5t31.5 35.5t47 13q28 0 53.5 -11l48 -21.5t41.5 -10.5q23 0 35 14t12 30h45q0 -29 -11.5 -51t-31.5 -35t-47 -13q-28 0 -53.5 11l-48 21.5t-41.5 10.5q-23 0 -35 -14t-12 -31h-45z" />
    <glyph glyph-name="uni0201" unicode="&#x201;" 
d="M271 -7q-67 0 -117.5 31.5t-78 90t-27.5 137.5t28 138t78.5 92t116.5 33q69 0 117 -34t65 -97l-12 -8v127h80v-503h-80v130l12 -6q-17 -63 -65 -97t-117 -34zM287 60q74 0 114 50.5t40 143.5t-40.5 143t-113.5 50q-74 0 -115.5 -51.5t-41.5 -143.5t41.5 -142t115.5 -50z
M341 568l-80 204h75l46 -204h-41zM219 568l-80 204h76l45 -204h-41z" />
    <glyph glyph-name="adieresis" unicode="&#xe4;" 
d="M271 -7q-67 0 -117.5 31.5t-78 90t-27.5 137.5t28 138t78.5 92t116.5 33q69 0 117 -34t65 -97l-12 -8v127h80v-503h-80v130l12 -6q-17 -63 -65 -97t-117 -34zM287 60q74 0 114 50.5t40 143.5t-40.5 143t-113.5 50q-74 0 -115.5 -51.5t-41.5 -143.5t41.5 -142t115.5 -50z
M342 713h90v-86h-90v86zM169 713h90v-86h-90v86z" />
    <glyph glyph-name="uni0227" unicode="&#x227;" 
d="M271 -7q-67 0 -117.5 31.5t-78 90t-27.5 137.5t28 138t78.5 92t116.5 33q69 0 117 -34t65 -97l-12 -8v127h80v-503h-80v130l12 -6q-17 -63 -65 -97t-117 -34zM287 60q74 0 114 50.5t40 143.5t-40.5 143t-113.5 50q-74 0 -115.5 -51.5t-41.5 -143.5t41.5 -142t115.5 -50z
M251 716h99v-92h-99v92z" />
    <glyph glyph-name="uni1EA1" unicode="&#x1ea1;" 
d="M271 -7q-67 0 -117.5 31.5t-78 90t-27.5 137.5t28 138t78.5 92t116.5 33q69 0 117 -34t65 -97l-12 -8v127h80v-503h-80v130l12 -6q-17 -63 -65 -97t-117 -34zM287 60q74 0 114 50.5t40 143.5t-40.5 143t-113.5 50q-74 0 -115.5 -51.5t-41.5 -143.5t41.5 -142t115.5 -50z
M254 -95h93v-89h-93v89z" />
    <glyph glyph-name="agrave" unicode="&#xe0;" 
d="M271 -7q-67 0 -117.5 31.5t-78 90t-27.5 137.5t28 138t78.5 92t116.5 33q69 0 117 -34t65 -97l-12 -8v127h80v-503h-80v130l12 -6q-17 -63 -65 -97t-117 -34zM287 60q74 0 114 50.5t40 143.5t-40.5 143t-113.5 50q-74 0 -115.5 -51.5t-41.5 -143.5t41.5 -142t115.5 -50z
M272 568l-137 204h94l100 -204h-57z" />
    <glyph glyph-name="uni1EA3" unicode="&#x1ea3;" 
d="M271 -7q-67 0 -117.5 31.5t-78 90t-27.5 137.5t28 138t78.5 92t116.5 33q69 0 117 -34t65 -97l-12 -8v127h80v-503h-80v130l12 -6q-17 -63 -65 -97t-117 -34zM287 60q74 0 114 50.5t40 143.5t-40.5 143t-113.5 50q-74 0 -115.5 -51.5t-41.5 -143.5t41.5 -142t115.5 -50z
M329 585v-17h-53v28q0 20 9.5 34.5t22.5 26t22.5 22t9.5 21.5q0 12 -10.5 18.5t-30.5 6.5q-14 0 -28 -2.5t-31 -8.5l-15 44q20 9 40.5 13.5t40.5 4.5q48 0 74 -20.5t26 -49.5q0 -24 -11.5 -39t-27 -26.5t-27 -23.5t-11.5 -32z" />
    <glyph glyph-name="uni0203" unicode="&#x203;" 
d="M271 -7q-67 0 -117.5 31.5t-78 90t-27.5 137.5t28 138t78.5 92t116.5 33q69 0 117 -34t65 -97l-12 -8v127h80v-503h-80v130l12 -6q-17 -63 -65 -97t-117 -34zM287 60q74 0 114 50.5t40 143.5t-40.5 143t-113.5 50q-74 0 -115.5 -51.5t-41.5 -143.5t41.5 -142t115.5 -50z
M301 746q34 0 66.5 -13t58.5 -41t41 -73l-51 -22q-24 50 -52.5 69.5t-62.5 19.5t-63 -19.5t-53 -69.5l-51 21q14 46 40 74t59 41t68 13z" />
    <glyph glyph-name="amacron" unicode="&#x101;" 
d="M271 -7q-67 0 -117.5 31.5t-78 90t-27.5 137.5t28 138t78.5 92t116.5 33q69 0 117 -34t65 -97l-12 -8v127h80v-503h-80v130l12 -6q-17 -63 -65 -97t-117 -34zM287 60q74 0 114 50.5t40 143.5t-40.5 143t-113.5 50q-74 0 -115.5 -51.5t-41.5 -143.5t41.5 -142t115.5 -50z
M149 639v62h303v-62h-303z" />
    <glyph glyph-name="aogonek" unicode="&#x105;" 
d="M521 0h-5q-41 0 -67 -22.5t-26 -57.5q0 -31 18 -48.5t50 -17.5q27 0 60 19l17 -49q-18 -11 -41 -17t-48 -6q-53 0 -86.5 30.5t-33.5 78.5t33.5 82.5t91.5 46.5l-19 -39h-24v111l12 13q-17 -63 -65 -97t-117 -34q-68 0 -118 32t-77.5 90t-27.5 137q0 78 28 137.5t78 92.5
t117 33q69 0 117 -34t65 -97l-12 -8v127h80v-503zM287 60q74 0 114 50.5t40 143.5t-40.5 143t-113.5 50q-74 0 -115.5 -51.5t-41.5 -143.5t41.5 -142t115.5 -50z" />
    <glyph glyph-name="aring" unicode="&#xe5;" 
d="M271 -7q-67 0 -117.5 31.5t-78 90t-27.5 137.5t28 138t78.5 92t116.5 33q69 0 117 -34t65 -97l-12 -8v127h80v-503h-80v130l12 -6q-17 -63 -65 -97t-117 -34zM287 60q74 0 114 50.5t40 143.5t-40.5 143t-113.5 50q-74 0 -115.5 -51.5t-41.5 -143.5t41.5 -142t115.5 -50z
M301 570q-43 0 -72.5 28.5t-29.5 71.5q0 42 29.5 71t72.5 29q28 0 51 -13.5t36.5 -36t13.5 -50.5q0 -43 -29.5 -71.5t-71.5 -28.5zM301 619q21 0 34.5 14.5t13.5 36.5q0 21 -13.5 35.5t-34.5 14.5q-22 0 -35.5 -14.5t-13.5 -35.5q0 -22 13.5 -36.5t35.5 -14.5z" />
    <glyph glyph-name="aringacute" unicode="&#x1fb;" 
d="M271 -7q-67 0 -117.5 31.5t-78 90t-27.5 137.5t28 138t78.5 92t116.5 33q69 0 117 -34t65 -97l-12 -8v127h80v-503h-80v130l12 -6q-17 -63 -65 -97t-117 -34zM287 60q74 0 114 50.5t40 143.5t-40.5 143t-113.5 50q-74 0 -115.5 -51.5t-41.5 -143.5t41.5 -142t115.5 -50z
M301 572q-43 0 -73.5 29.5t-30.5 72.5t30.5 73t73.5 30q42 0 73 -30t31 -73t-31 -72.5t-73 -29.5zM301 622q21 0 35.5 15.5t14.5 36.5q0 22 -14.5 37t-35.5 15q-22 0 -36 -15t-14 -37q0 -21 14 -36.5t36 -15.5zM380 718l-45 15l100 146l88 -3z" />
    <glyph glyph-name="atilde" unicode="&#xe3;" 
d="M271 -7q-67 0 -117.5 31.5t-78 90t-27.5 137.5t28 138t78.5 92t116.5 33q69 0 117 -34t65 -97l-12 -8v127h80v-503h-80v130l12 -6q-17 -63 -65 -97t-117 -34zM287 60q74 0 114 50.5t40 143.5t-40.5 143t-113.5 50q-74 0 -115.5 -51.5t-41.5 -143.5t41.5 -142t115.5 -50z
M138 615q0 55 25 85t65 30q28 0 53.5 -14.5t48 -29t41.5 -14.5q23 0 35 16.5t12 38.5h45q0 -55 -25 -85t-65 -30q-28 0 -53.5 14.5t-48 29t-41.5 14.5q-23 0 -35 -17t-12 -38h-45z" />
    <glyph glyph-name="ae" unicode="&#xe6;" horiz-adv-x="881" 
d="M641 -7q-109 0 -171.5 67.5t-65.5 190.5q-2 78 26 137.5t79.5 93t118.5 33.5q65 0 111.5 -30t71.5 -85.5t25 -131.5v-14h-380v53h333l-25 -37q2 88 -33.5 135t-103.5 47q-71 0 -112 -52t-41 -147q0 -92 43 -142.5t126 -50.5q40 0 80 15t78 44l26 -59q-33 -30 -83.5 -48.5
t-102.5 -18.5zM246 -7q-52 0 -94 20t-66 55t-25 82q0 56 28 90.5t92.5 50.5t172.5 16h50v-52h-46q-82 0 -128.5 -10.5t-66 -32.5t-19.5 -57q0 -45 31 -71.5t79 -26.5q42 0 73.5 20t49 55.5t17.5 80.5v110q0 66 -25.5 95.5t-84.5 29.5q-45 0 -88 -13.5t-87 -40.5l-27 59
q26 19 59.5 33t70.5 21.5t71 7.5q94 0 140 -48t46 -144v-139l-28 -1q-6 -89 -58.5 -139.5t-136.5 -50.5z" />
    <glyph glyph-name="aeacute" unicode="&#x1fd;" horiz-adv-x="881" 
d="M641 -7q-109 0 -171.5 67.5t-65.5 190.5q-2 78 26 137.5t79.5 93t118.5 33.5q65 0 111.5 -30t71.5 -85.5t25 -131.5v-14h-380v53h333l-25 -37q2 88 -33.5 135t-103.5 47q-71 0 -112 -52t-41 -147q0 -92 43 -142.5t126 -50.5q40 0 80 15t78 44l26 -59q-33 -30 -83.5 -48.5
t-102.5 -18.5zM246 -7q-52 0 -94 20t-66 55t-25 82q0 56 28 90.5t92.5 50.5t172.5 16h50v-52h-46q-82 0 -128.5 -10.5t-66 -32.5t-19.5 -57q0 -45 31 -71.5t79 -26.5q42 0 73.5 20t49 55.5t17.5 80.5v110q0 66 -25.5 95.5t-84.5 29.5q-45 0 -88 -13.5t-87 -40.5l-27 59
q26 19 59.5 33t70.5 21.5t71 7.5q94 0 140 -48t46 -144v-139l-28 -1q-6 -89 -58.5 -139.5t-136.5 -50.5zM463 568h-57l100 204h94z" />
    <glyph glyph-name="b" unicode="b" 
d="M78 0v736h81v-362l-11 10q17 62 65 96.5t116 34.5q67 0 117 -32t78.5 -90t28.5 -137t-28.5 -138.5t-79 -92t-116.5 -32.5q-68 0 -116 34t-65 97l11 11v-135h-81zM314 60q73 0 114 51.5t41 144.5q0 91 -41 141t-114 50q-75 0 -115 -50.5t-40 -142.5q0 -93 40 -143.5
t115 -50.5z" />
    <glyph glyph-name="c" unicode="c" horiz-adv-x="495" 
d="M289 -7q-74 0 -128 32t-83.5 90t-29.5 137q0 78 30 137.5t85 92.5t130 33q51 0 98.5 -17.5t78.5 -48.5l-27 -60q-37 29 -72.5 43.5t-73.5 14.5q-76 0 -120.5 -51t-44.5 -144q0 -92 44 -142t121 -50q37 0 73 14.5t73 43.5l27 -60q-32 -30 -80.5 -47.5t-100.5 -17.5z" />
    <glyph glyph-name="cacute" unicode="&#x107;" horiz-adv-x="495" 
d="M289 -7q-74 0 -128 32t-83.5 90t-29.5 137q0 78 30 137.5t85 92.5t130 33q51 0 98.5 -17.5t78.5 -48.5l-27 -60q-37 29 -72.5 43.5t-73.5 14.5q-76 0 -120.5 -51t-44.5 -144q0 -92 44 -142t121 -50q37 0 73 14.5t73 43.5l27 -60q-32 -30 -80.5 -47.5t-100.5 -17.5z
M317 568h-57l100 204h94z" />
    <glyph glyph-name="ccaron" unicode="&#x10d;" horiz-adv-x="495" 
d="M289 -7q-74 0 -128 32t-83.5 90t-29.5 137q0 78 30 137.5t85 92.5t130 33q51 0 98.5 -17.5t78.5 -48.5l-27 -60q-37 29 -72.5 43.5t-73.5 14.5q-76 0 -120.5 -51t-44.5 -144q0 -92 44 -142t121 -50q37 0 73 14.5t73 43.5l27 -60q-32 -30 -80.5 -47.5t-100.5 -17.5z
M361 772h75l-119 -204h-57l-119 204h75l73 -145z" />
    <glyph glyph-name="ccedilla" unicode="&#xe7;" horiz-adv-x="495" 
d="M289 -7q-74 0 -128 32t-83.5 90t-29.5 137q0 78 30 137.5t85 92.5t130 33q51 0 98.5 -17.5t78.5 -48.5l-27 -60q-37 29 -72.5 43.5t-73.5 14.5q-76 0 -120.5 -51t-44.5 -144q0 -92 44 -142t121 -50q37 0 73 14.5t73 43.5l27 -60q-32 -30 -80.5 -47.5t-100.5 -17.5z
M283 -195q-20 0 -45 4.5t-44 14.5l13 44q21 -8 39.5 -11t36.5 -3q28 0 42 9.5t14 25.5q0 27 -35 27q-13 0 -24.5 -2.5t-21.5 -6.5l-20 16l11 97h57l-8 -73l-25 2q13 5 25.5 7.5t24.5 2.5q29 0 53 -17t24 -53t-30.5 -60t-86.5 -24z" />
    <glyph glyph-name="uni1E09" unicode="&#x1e09;" horiz-adv-x="495" 
d="M289 -7q-74 0 -128 32t-83.5 90t-29.5 137q0 78 30 137.5t85 92.5t130 33q51 0 98.5 -17.5t78.5 -48.5l-27 -60q-37 29 -72.5 43.5t-73.5 14.5q-76 0 -120.5 -51t-44.5 -144q0 -92 44 -142t121 -50q37 0 73 14.5t73 43.5l27 -60q-32 -30 -80.5 -47.5t-100.5 -17.5z
M283 -195q-20 0 -45 4.5t-44 14.5l13 44q21 -8 39.5 -11t36.5 -3q28 0 42 9.5t14 25.5q0 27 -35 27q-13 0 -24.5 -2.5t-21.5 -6.5l-20 16l11 97h57l-8 -73l-25 2q13 5 25.5 7.5t24.5 2.5q29 0 53 -17t24 -53t-30.5 -60t-86.5 -24zM317 568h-57l100 204h94z" />
    <glyph glyph-name="ccircumflex" unicode="&#x109;" horiz-adv-x="495" 
d="M289 -7q-74 0 -128 32t-83.5 90t-29.5 137q0 78 30 137.5t85 92.5t130 33q51 0 98.5 -17.5t78.5 -48.5l-27 -60q-37 29 -72.5 43.5t-73.5 14.5q-76 0 -120.5 -51t-44.5 -144q0 -92 44 -142t121 -50q37 0 73 14.5t73 43.5l27 -60q-32 -30 -80.5 -47.5t-100.5 -17.5z
M216 568h-75l119 204h57l119 -204h-75l-72 144z" />
    <glyph glyph-name="cdotaccent" unicode="&#x10b;" horiz-adv-x="495" 
d="M289 -7q-74 0 -128 32t-83.5 90t-29.5 137q0 78 30 137.5t85 92.5t130 33q51 0 98.5 -17.5t78.5 -48.5l-27 -60q-37 29 -72.5 43.5t-73.5 14.5q-76 0 -120.5 -51t-44.5 -144q0 -92 44 -142t121 -50q37 0 73 14.5t73 43.5l27 -60q-32 -30 -80.5 -47.5t-100.5 -17.5z
M239 716h99v-92h-99v92z" />
    <glyph glyph-name="d" unicode="d" 
d="M521 0h-80v135l12 -11q-17 -63 -65 -97t-117 -34q-66 0 -116.5 32.5t-78.5 92t-28 138.5t27.5 137t78 90t117.5 32q69 0 117 -34.5t65 -96.5l-13 -10v362h81v-736zM287 60q73 0 113.5 50.5t40.5 143.5q0 92 -40 142.5t-114 50.5t-115.5 -50t-41.5 -141q0 -93 41.5 -144.5
t115.5 -51.5z" />
    <glyph glyph-name="eth" unicode="&#xf0;" horiz-adv-x="576" 
d="M284 -7q-71 0 -124 29.5t-82.5 83t-29.5 125.5t29 126t81.5 83.5t122.5 29.5q81 0 131.5 -41.5t68.5 -121.5l-30 2q1 98 -33.5 173.5t-99.5 126t-156 75.5l21 60q85 -22 149.5 -63t108 -98.5t65.5 -129.5t22 -156q0 -149 -62.5 -226.5t-181.5 -77.5zM286 60
q72 0 113.5 45.5t41.5 125.5q0 82 -41 127t-114 45t-114.5 -45t-41.5 -127t40.5 -126.5t115.5 -44.5zM184 522l-17 51l342 123l16 -51z" />
    <glyph glyph-name="dcaron" unicode="&#x10f;" 
d="M594 540h-38v196h65zM521 0h-80v135l12 -11q-17 -63 -65 -97t-117 -34q-66 0 -116.5 32.5t-78.5 92t-28 138.5t27.5 137t78 90t117.5 32q69 0 117 -34.5t65 -96.5l-13 -10v362h81v-736zM287 60q73 0 113.5 50.5t40.5 143.5q0 92 -40 142.5t-114 50.5t-115.5 -50
t-41.5 -141q0 -93 41.5 -144.5t115.5 -51.5z" />
    <glyph glyph-name="dcroat" unicode="&#x111;" 
d="M241 582v61h376v-61h-376zM521 0h-80v135l12 -11q-17 -63 -65 -97t-117 -34q-66 0 -116.5 32.5t-78.5 92t-28 138.5t27.5 137t78 90t117.5 32q69 0 117 -34.5t65 -96.5l-13 -10v362h81v-736zM287 60q73 0 113.5 50.5t40.5 143.5q0 92 -40 142.5t-114 50.5t-115.5 -50
t-41.5 -141q0 -93 41.5 -144.5t115.5 -51.5z" />
    <glyph glyph-name="uni1E0D" unicode="&#x1e0d;" 
d="M521 0h-80v135l12 -11q-17 -63 -65 -97t-117 -34q-66 0 -116.5 32.5t-78.5 92t-28 138.5t27.5 137t78 90t117.5 32q69 0 117 -34.5t65 -96.5l-13 -10v362h81v-736zM287 60q73 0 113.5 50.5t40.5 143.5q0 92 -40 142.5t-114 50.5t-115.5 -50t-41.5 -141q0 -93 41.5 -144.5
t115.5 -51.5zM255 -95h93v-89h-93v89z" />
    <glyph glyph-name="uni1E0F" unicode="&#x1e0f;" 
d="M521 0h-80v135l12 -11q-17 -63 -65 -97t-117 -34q-66 0 -116.5 32.5t-78.5 92t-28 138.5t27.5 137t78 90t117.5 32q69 0 117 -34.5t65 -96.5l-13 -10v362h81v-736zM287 60q73 0 113.5 50.5t40.5 143.5q0 92 -40 142.5t-114 50.5t-115.5 -50t-41.5 -141q0 -93 41.5 -144.5
t115.5 -51.5zM150 -170v60h303v-60h-303z" />
    <glyph glyph-name="uni01C6" unicode="&#x1c6;" horiz-adv-x="1118" 
d="M521 0h-80v135l12 -11q-17 -63 -65 -97t-117 -34q-66 0 -116.5 32.5t-78.5 92t-28 138.5t27.5 137t78 90t117.5 32q69 0 117 -34.5t65 -96.5l-13 -10v362h81v-736zM287 60q73 0 113.5 50.5t40.5 143.5q0 92 -40 142.5t-114 50.5t-115.5 -50t-41.5 -141q0 -93 41.5 -144.5
t115.5 -51.5zM650 0v56l344 416l13 -33h-346v64h403v-59l-342 -414l-11 34h364v-64h-425zM936 772h75l-119 -204h-57l-119 204h75l73 -145z" />
    <glyph glyph-name="e" unicode="e" horiz-adv-x="544" 
d="M490 60q-33 -31 -84.5 -49t-105.5 -18q-78 0 -134.5 31t-87 89.5t-30.5 139.5q0 78 30 137t83.5 92t123.5 33q67 0 115 -29.5t73.5 -84.5t25.5 -132v-15h-380v53h334l-26 -37q2 88 -34.5 135t-106.5 47q-73 0 -114.5 -51.5t-41.5 -142.5q0 -98 43.5 -148t127.5 -50
q44 0 84.5 14.5t77.5 44.5z" />
    <glyph glyph-name="eacute" unicode="&#xe9;" horiz-adv-x="544" 
d="M490 60q-33 -31 -84.5 -49t-105.5 -18q-78 0 -134.5 31t-87 89.5t-30.5 139.5q0 78 30 137t83.5 92t123.5 33q67 0 115 -29.5t73.5 -84.5t25.5 -132v-15h-380v53h334l-26 -37q2 88 -34.5 135t-106.5 47q-73 0 -114.5 -51.5t-41.5 -142.5q0 -98 43.5 -148t127.5 -50
q44 0 84.5 14.5t77.5 44.5zM313 568h-57l100 204h94z" />
    <glyph glyph-name="ebreve" unicode="&#x115;" horiz-adv-x="544" 
d="M490 60q-33 -31 -84.5 -49t-105.5 -18q-78 0 -134.5 31t-87 89.5t-30.5 139.5q0 78 30 137t83.5 92t123.5 33q67 0 115 -29.5t73.5 -84.5t25.5 -132v-15h-380v53h334l-26 -37q2 88 -34.5 135t-106.5 47q-73 0 -114.5 -51.5t-41.5 -142.5q0 -98 43.5 -148t127.5 -50
q44 0 84.5 14.5t77.5 44.5zM285 598q-35 0 -67.5 13t-58.5 41t-41 74l51 22q24 -50 53 -70t63 -20t62.5 20t52.5 70l51 -22q-14 -46 -40 -74t-59 -41t-67 -13z" />
    <glyph glyph-name="ecaron" unicode="&#x11b;" horiz-adv-x="544" 
d="M490 60q-33 -31 -84.5 -49t-105.5 -18q-78 0 -134.5 31t-87 89.5t-30.5 139.5q0 78 30 137t83.5 92t123.5 33q67 0 115 -29.5t73.5 -84.5t25.5 -132v-15h-380v53h334l-26 -37q2 88 -34.5 135t-106.5 47q-73 0 -114.5 -51.5t-41.5 -142.5q0 -98 43.5 -148t127.5 -50
q44 0 84.5 14.5t77.5 44.5zM357 772h75l-119 -204h-57l-119 204h75l73 -145z" />
    <glyph glyph-name="uni1E1D" unicode="&#x1e1d;" horiz-adv-x="544" 
d="M490 60q-33 -31 -84.5 -49t-105.5 -18q-78 0 -134.5 31t-87 89.5t-30.5 139.5q0 78 30 137t83.5 92t123.5 33q67 0 115 -29.5t73.5 -84.5t25.5 -132v-15h-380v53h334l-26 -37q2 88 -34.5 135t-106.5 47q-73 0 -114.5 -51.5t-41.5 -142.5q0 -98 43.5 -148t127.5 -50
q44 0 84.5 14.5t77.5 44.5zM297 -195q-20 0 -45 4.5t-44 14.5l13 44q21 -8 39.5 -11t36.5 -3q28 0 42 9.5t14 25.5q0 27 -35 27q-13 0 -24.5 -2.5t-21.5 -6.5l-20 16l11 97h57l-8 -73l-25 2q13 5 25.5 7.5t24.5 2.5q29 0 53 -17t24 -53t-30.5 -60t-86.5 -24zM285 598
q-35 0 -67.5 13t-58.5 41t-41 74l51 22q24 -50 53 -70t63 -20t62.5 20t52.5 70l51 -22q-14 -46 -40 -74t-59 -41t-67 -13z" />
    <glyph glyph-name="ecircumflex" unicode="&#xea;" horiz-adv-x="544" 
d="M490 60q-33 -31 -84.5 -49t-105.5 -18q-78 0 -134.5 31t-87 89.5t-30.5 139.5q0 78 30 137t83.5 92t123.5 33q67 0 115 -29.5t73.5 -84.5t25.5 -132v-15h-380v53h334l-26 -37q2 88 -34.5 135t-106.5 47q-73 0 -114.5 -51.5t-41.5 -142.5q0 -98 43.5 -148t127.5 -50
q44 0 84.5 14.5t77.5 44.5zM212 568h-75l119 204h57l119 -204h-75l-72 144z" />
    <glyph glyph-name="uni1EBF" unicode="&#x1ebf;" horiz-adv-x="544" 
d="M490 60q-33 -31 -84.5 -49t-105.5 -18q-78 0 -134.5 31t-87 89.5t-30.5 139.5q0 78 30 137t83.5 92t123.5 33q67 0 115 -29.5t73.5 -84.5t25.5 -132v-15h-380v53h334l-26 -37q2 88 -34.5 135t-106.5 47q-73 0 -114.5 -51.5t-41.5 -142.5q0 -98 43.5 -148t127.5 -50
q44 0 84.5 14.5t77.5 44.5zM211 568h-74l120 148h55l120 -148h-74l-73 100zM420 672h-50l92 143h86z" />
    <glyph glyph-name="uni1EC7" unicode="&#x1ec7;" horiz-adv-x="544" 
d="M490 60q-33 -31 -84.5 -49t-105.5 -18q-78 0 -134.5 31t-87 89.5t-30.5 139.5q0 78 30 137t83.5 92t123.5 33q67 0 115 -29.5t73.5 -84.5t25.5 -132v-15h-380v53h334l-26 -37q2 88 -34.5 135t-106.5 47q-73 0 -114.5 -51.5t-41.5 -142.5q0 -98 43.5 -148t127.5 -50
q44 0 84.5 14.5t77.5 44.5zM252 -95h93v-89h-93v89zM212 568h-75l119 204h57l119 -204h-75l-72 144z" />
    <glyph glyph-name="uni1EC1" unicode="&#x1ec1;" horiz-adv-x="544" 
d="M490 60q-33 -31 -84.5 -49t-105.5 -18q-78 0 -134.5 31t-87 89.5t-30.5 139.5q0 78 30 137t83.5 92t123.5 33q67 0 115 -29.5t73.5 -84.5t25.5 -132v-15h-380v53h334l-26 -37q2 88 -34.5 135t-106.5 47q-73 0 -114.5 -51.5t-41.5 -142.5q0 -98 43.5 -148t127.5 -50
q44 0 84.5 14.5t77.5 44.5zM211 568h-74l120 148h55l120 -148h-74l-73 100zM413 672l-113 143h85l78 -143h-50z" />
    <glyph glyph-name="uni1EC3" unicode="&#x1ec3;" horiz-adv-x="544" 
d="M490 60q-33 -31 -84.5 -49t-105.5 -18q-78 0 -134.5 31t-87 89.5t-30.5 139.5q0 78 30 137t83.5 92t123.5 33q67 0 115 -29.5t73.5 -84.5t25.5 -132v-15h-380v53h334l-26 -37q2 88 -34.5 135t-106.5 47q-73 0 -114.5 -51.5t-41.5 -142.5q0 -98 43.5 -148t127.5 -50
q44 0 84.5 14.5t77.5 44.5zM211 568h-74l120 148h55l120 -148h-74l-73 100zM423 681v-9h-54v17q0 17 10 26.5t23.5 14.5t24 10t10.5 13t-10.5 13.5t-30.5 5.5q-14 0 -29 -2.5t-33 -10.5l-14 44q18 8 39 12.5t43 4.5q47 0 73.5 -17.5t26.5 -46.5q0 -18 -12 -28t-27.5 -16
t-27.5 -12.5t-12 -18.5z" />
    <glyph glyph-name="uni1EC5" unicode="&#x1ec5;" horiz-adv-x="544" 
d="M490 60q-33 -31 -84.5 -49t-105.5 -18q-78 0 -134.5 31t-87 89.5t-30.5 139.5q0 78 30 137t83.5 92t123.5 33q67 0 115 -29.5t73.5 -84.5t25.5 -132v-15h-380v53h334l-26 -37q2 88 -34.5 135t-106.5 47q-73 0 -114.5 -51.5t-41.5 -142.5q0 -98 43.5 -148t127.5 -50
q44 0 84.5 14.5t77.5 44.5zM211 568h-74l120 148h55l120 -148h-74l-73 100zM122 731q0 29 11.5 51.5t31.5 35.5t47 13q28 0 53.5 -11l48 -21.5t41.5 -10.5q23 0 35 14t12 30h45q0 -29 -11.5 -51t-31.5 -35t-47 -13q-28 0 -53.5 11l-48 21.5t-41.5 10.5q-23 0 -35 -14
t-12 -31h-45z" />
    <glyph glyph-name="uni0205" unicode="&#x205;" horiz-adv-x="544" 
d="M490 60q-33 -31 -84.5 -49t-105.5 -18q-78 0 -134.5 31t-87 89.5t-30.5 139.5q0 78 30 137t83.5 92t123.5 33q67 0 115 -29.5t73.5 -84.5t25.5 -132v-15h-380v53h334l-26 -37q2 88 -34.5 135t-106.5 47q-73 0 -114.5 -51.5t-41.5 -142.5q0 -98 43.5 -148t127.5 -50
q44 0 84.5 14.5t77.5 44.5zM325 568l-80 204h75l46 -204h-41zM203 568l-80 204h76l45 -204h-41z" />
    <glyph glyph-name="edieresis" unicode="&#xeb;" horiz-adv-x="544" 
d="M490 60q-33 -31 -84.5 -49t-105.5 -18q-78 0 -134.5 31t-87 89.5t-30.5 139.5q0 78 30 137t83.5 92t123.5 33q67 0 115 -29.5t73.5 -84.5t25.5 -132v-15h-380v53h334l-26 -37q2 88 -34.5 135t-106.5 47q-73 0 -114.5 -51.5t-41.5 -142.5q0 -98 43.5 -148t127.5 -50
q44 0 84.5 14.5t77.5 44.5zM326 713h90v-86h-90v86zM153 713h90v-86h-90v86z" />
    <glyph glyph-name="edotaccent" unicode="&#x117;" horiz-adv-x="544" 
d="M490 60q-33 -31 -84.5 -49t-105.5 -18q-78 0 -134.5 31t-87 89.5t-30.5 139.5q0 78 30 137t83.5 92t123.5 33q67 0 115 -29.5t73.5 -84.5t25.5 -132v-15h-380v53h334l-26 -37q2 88 -34.5 135t-106.5 47q-73 0 -114.5 -51.5t-41.5 -142.5q0 -98 43.5 -148t127.5 -50
q44 0 84.5 14.5t77.5 44.5zM235 716h99v-92h-99v92z" />
    <glyph glyph-name="uni1EB9" unicode="&#x1eb9;" horiz-adv-x="544" 
d="M490 60q-33 -31 -84.5 -49t-105.5 -18q-78 0 -134.5 31t-87 89.5t-30.5 139.5q0 78 30 137t83.5 92t123.5 33q67 0 115 -29.5t73.5 -84.5t25.5 -132v-15h-380v53h334l-26 -37q2 88 -34.5 135t-106.5 47q-73 0 -114.5 -51.5t-41.5 -142.5q0 -98 43.5 -148t127.5 -50
q44 0 84.5 14.5t77.5 44.5zM252 -95h93v-89h-93v89z" />
    <glyph glyph-name="egrave" unicode="&#xe8;" horiz-adv-x="544" 
d="M490 60q-33 -31 -84.5 -49t-105.5 -18q-78 0 -134.5 31t-87 89.5t-30.5 139.5q0 78 30 137t83.5 92t123.5 33q67 0 115 -29.5t73.5 -84.5t25.5 -132v-15h-380v53h334l-26 -37q2 88 -34.5 135t-106.5 47q-73 0 -114.5 -51.5t-41.5 -142.5q0 -98 43.5 -148t127.5 -50
q44 0 84.5 14.5t77.5 44.5zM256 568l-137 204h94l100 -204h-57z" />
    <glyph glyph-name="uni1EBB" unicode="&#x1ebb;" horiz-adv-x="544" 
d="M490 60q-33 -31 -84.5 -49t-105.5 -18q-78 0 -134.5 31t-87 89.5t-30.5 139.5q0 78 30 137t83.5 92t123.5 33q67 0 115 -29.5t73.5 -84.5t25.5 -132v-15h-380v53h334l-26 -37q2 88 -34.5 135t-106.5 47q-73 0 -114.5 -51.5t-41.5 -142.5q0 -98 43.5 -148t127.5 -50
q44 0 84.5 14.5t77.5 44.5zM313 585v-17h-53v28q0 20 9.5 34.5t22.5 26t22.5 22t9.5 21.5q0 12 -10.5 18.5t-30.5 6.5q-14 0 -28 -2.5t-31 -8.5l-15 44q20 9 40.5 13.5t40.5 4.5q48 0 74 -20.5t26 -49.5q0 -24 -11.5 -39t-27 -26.5t-27 -23.5t-11.5 -32z" />
    <glyph glyph-name="uni0207" unicode="&#x207;" horiz-adv-x="544" 
d="M490 60q-33 -31 -84.5 -49t-105.5 -18q-78 0 -134.5 31t-87 89.5t-30.5 139.5q0 78 30 137t83.5 92t123.5 33q67 0 115 -29.5t73.5 -84.5t25.5 -132v-15h-380v53h334l-26 -37q2 88 -34.5 135t-106.5 47q-73 0 -114.5 -51.5t-41.5 -142.5q0 -98 43.5 -148t127.5 -50
q44 0 84.5 14.5t77.5 44.5zM285 746q34 0 66.5 -13t58.5 -41t41 -73l-51 -22q-24 50 -52.5 69.5t-62.5 19.5t-63 -19.5t-53 -69.5l-51 21q14 46 40 74t59 41t68 13z" />
    <glyph glyph-name="emacron" unicode="&#x113;" horiz-adv-x="544" 
d="M490 60q-33 -31 -84.5 -49t-105.5 -18q-78 0 -134.5 31t-87 89.5t-30.5 139.5q0 78 30 137t83.5 92t123.5 33q67 0 115 -29.5t73.5 -84.5t25.5 -132v-15h-380v53h334l-26 -37q2 88 -34.5 135t-106.5 47q-73 0 -114.5 -51.5t-41.5 -142.5q0 -98 43.5 -148t127.5 -50
q44 0 84.5 14.5t77.5 44.5zM133 639v62h303v-62h-303z" />
    <glyph glyph-name="uni1E17" unicode="&#x1e17;" horiz-adv-x="544" 
d="M490 60q-33 -31 -84.5 -49t-105.5 -18q-78 0 -134.5 31t-87 89.5t-30.5 139.5q0 78 30 137t83.5 92t123.5 33q67 0 115 -29.5t73.5 -84.5t25.5 -132v-15h-380v53h334l-26 -37q2 88 -34.5 135t-106.5 47q-73 0 -114.5 -51.5t-41.5 -142.5q0 -98 43.5 -148t127.5 -50
q44 0 84.5 14.5t77.5 44.5zM133 639v62h303v-62h-303zM313 764h-57l100 204h94z" />
    <glyph glyph-name="uni1E15" unicode="&#x1e15;" horiz-adv-x="544" 
d="M490 60q-33 -31 -84.5 -49t-105.5 -18q-78 0 -134.5 31t-87 89.5t-30.5 139.5q0 78 30 137t83.5 92t123.5 33q67 0 115 -29.5t73.5 -84.5t25.5 -132v-15h-380v53h334l-26 -37q2 88 -34.5 135t-106.5 47q-73 0 -114.5 -51.5t-41.5 -142.5q0 -98 43.5 -148t127.5 -50
q44 0 84.5 14.5t77.5 44.5zM133 639v62h303v-62h-303zM256 764l-137 204h94l100 -204h-57z" />
    <glyph glyph-name="eogonek" unicode="&#x119;" horiz-adv-x="544" 
d="M403 -199q-54 0 -87.5 30t-33.5 78q0 32 16.5 59t46.5 45l18 -10q-19 -6 -32.5 -8t-30.5 -2q-78 0 -134.5 31t-87 89.5t-30.5 139.5q0 78 30 137t83.5 92t123.5 33q67 0 115 -29.5t73.5 -84.5t25.5 -132v-15h-380v53h334l-26 -37q2 88 -34.5 135t-106.5 47
q-73 0 -114.5 -51.5t-41.5 -142.5q0 -98 43.5 -148t127.5 -50q44 0 84.5 14.5t77.5 44.5l27 -58q-7 -8 -17 -15t-35 -20q-51 -27 -71.5 -51.5t-20.5 -54.5q0 -31 18 -48.5t49 -17.5q28 0 61 19l16 -49q-18 -11 -40 -17t-47 -6z" />
    <glyph glyph-name="uni1EBD" unicode="&#x1ebd;" horiz-adv-x="544" 
d="M490 60q-33 -31 -84.5 -49t-105.5 -18q-78 0 -134.5 31t-87 89.5t-30.5 139.5q0 78 30 137t83.5 92t123.5 33q67 0 115 -29.5t73.5 -84.5t25.5 -132v-15h-380v53h334l-26 -37q2 88 -34.5 135t-106.5 47q-73 0 -114.5 -51.5t-41.5 -142.5q0 -98 43.5 -148t127.5 -50
q44 0 84.5 14.5t77.5 44.5zM122 615q0 55 25 85t65 30q28 0 53.5 -14.5t48 -29t41.5 -14.5q23 0 35 16.5t12 38.5h45q0 -55 -25 -85t-65 -30q-28 0 -53.5 14.5t-48 29t-41.5 14.5q-23 0 -35 -17t-12 -38h-45z" />
    <glyph glyph-name="uni0259" unicode="&#x259;" horiz-adv-x="544" 
d="M53 447q37 32 90.5 50t106.5 18q75 0 130.5 -31.5t85.5 -90t30 -138.5t-28.5 -139t-80.5 -91t-122 -32q-103 0 -161.5 65t-58.5 182v14h379l1 -54h-333l28 38q-2 -88 35 -135.5t108 -47.5q74 0 114 51t39 145q0 97 -43.5 147t-125.5 50q-41 0 -82 -15t-84 -45z" />
    <glyph glyph-name="f" unicode="f" horiz-adv-x="337" 
d="M7 439v64h302v-64h-302zM323 662q-28 8 -52 8t-43.5 -8.5t-30.5 -30.5t-11 -61v-570h-81v580q0 81 40 120.5t110 39.5q17 0 34 -2t34 -7v-69z" />
    <glyph glyph-name="g" unicode="g" horiz-adv-x="604" 
d="M299 -223q-114 0 -198 52l14 66q47 -27 89 -39t95 -12q72 0 109.5 38.5t37.5 114.5v136l11 13q-12 -40 -37.5 -69.5t-62.5 -45.5t-84 -16q-67 0 -117.5 31.5t-79 87.5t-28.5 131t28.5 131t79 87.5t117.5 31.5q70 0 118.5 -34.5t65.5 -96.5l-12 11v108h81v-499
q0 -113 -57.5 -170t-169.5 -57zM289 83q73 0 114.5 48.5t41.5 133.5t-41.5 133.5t-114.5 48.5q-74 0 -116.5 -48.5t-42.5 -133.5q0 -86 42.5 -134t116.5 -48z" />
    <glyph glyph-name="gbreve" unicode="&#x11f;" horiz-adv-x="604" 
d="M299 -223q-114 0 -198 52l14 66q47 -27 89 -39t95 -12q72 0 109.5 38.5t37.5 114.5v136l11 13q-12 -40 -37.5 -69.5t-62.5 -45.5t-84 -16q-67 0 -117.5 31.5t-79 87.5t-28.5 131t28.5 131t79 87.5t117.5 31.5q70 0 118.5 -34.5t65.5 -96.5l-12 11v108h81v-499
q0 -113 -57.5 -170t-169.5 -57zM289 83q73 0 114.5 48.5t41.5 133.5t-41.5 133.5t-114.5 48.5q-74 0 -116.5 -48.5t-42.5 -133.5q0 -86 42.5 -134t116.5 -48zM304 598q-35 0 -67.5 13t-58.5 41t-41 74l51 22q24 -50 53 -70t63 -20t62.5 20t52.5 70l51 -22q-14 -46 -40 -74
t-59 -41t-67 -13z" />
    <glyph glyph-name="gcaron" unicode="&#x1e7;" horiz-adv-x="604" 
d="M299 -223q-114 0 -198 52l14 66q47 -27 89 -39t95 -12q72 0 109.5 38.5t37.5 114.5v136l11 13q-12 -40 -37.5 -69.5t-62.5 -45.5t-84 -16q-67 0 -117.5 31.5t-79 87.5t-28.5 131t28.5 131t79 87.5t117.5 31.5q70 0 118.5 -34.5t65.5 -96.5l-12 11v108h81v-499
q0 -113 -57.5 -170t-169.5 -57zM289 83q73 0 114.5 48.5t41.5 133.5t-41.5 133.5t-114.5 48.5q-74 0 -116.5 -48.5t-42.5 -133.5q0 -86 42.5 -134t116.5 -48zM376 772h75l-119 -204h-57l-119 204h75l73 -145z" />
    <glyph glyph-name="gcircumflex" unicode="&#x11d;" horiz-adv-x="604" 
d="M299 -223q-114 0 -198 52l14 66q47 -27 89 -39t95 -12q72 0 109.5 38.5t37.5 114.5v136l11 13q-12 -40 -37.5 -69.5t-62.5 -45.5t-84 -16q-67 0 -117.5 31.5t-79 87.5t-28.5 131t28.5 131t79 87.5t117.5 31.5q70 0 118.5 -34.5t65.5 -96.5l-12 11v108h81v-499
q0 -113 -57.5 -170t-169.5 -57zM289 83q73 0 114.5 48.5t41.5 133.5t-41.5 133.5t-114.5 48.5q-74 0 -116.5 -48.5t-42.5 -133.5q0 -86 42.5 -134t116.5 -48zM231 568h-75l119 204h57l119 -204h-75l-72 144z" />
    <glyph glyph-name="gcommaaccent" unicode="&#x123;" horiz-adv-x="604" 
d="M299 -223q-114 0 -198 52l14 66q47 -27 89 -39t95 -12q72 0 109.5 38.5t37.5 114.5v136l11 13q-12 -40 -37.5 -69.5t-62.5 -45.5t-84 -16q-67 0 -117.5 31.5t-79 87.5t-28.5 131t28.5 131t79 87.5t117.5 31.5q70 0 118.5 -34.5t65.5 -96.5l-12 11v108h81v-499
q0 -113 -57.5 -170t-169.5 -57zM289 83q73 0 114.5 48.5t41.5 133.5t-41.5 133.5t-114.5 48.5q-74 0 -116.5 -48.5t-42.5 -133.5q0 -86 42.5 -134t116.5 -48zM254 597v58q0 38 10.5 70t40.5 61l37 -28q-23 -24 -29.5 -45.5t-6.5 -46.5l-24 14h71v-83h-99z" />
    <glyph glyph-name="gdotaccent" unicode="&#x121;" horiz-adv-x="604" 
d="M299 -223q-114 0 -198 52l14 66q47 -27 89 -39t95 -12q72 0 109.5 38.5t37.5 114.5v136l11 13q-12 -40 -37.5 -69.5t-62.5 -45.5t-84 -16q-67 0 -117.5 31.5t-79 87.5t-28.5 131t28.5 131t79 87.5t117.5 31.5q70 0 118.5 -34.5t65.5 -96.5l-12 11v108h81v-499
q0 -113 -57.5 -170t-169.5 -57zM289 83q73 0 114.5 48.5t41.5 133.5t-41.5 133.5t-114.5 48.5q-74 0 -116.5 -48.5t-42.5 -133.5q0 -86 42.5 -134t116.5 -48zM254 716h99v-92h-99v92z" />
    <glyph glyph-name="uni1E21" unicode="&#x1e21;" horiz-adv-x="604" 
d="M299 -223q-114 0 -198 52l14 66q47 -27 89 -39t95 -12q72 0 109.5 38.5t37.5 114.5v136l11 13q-12 -40 -37.5 -69.5t-62.5 -45.5t-84 -16q-67 0 -117.5 31.5t-79 87.5t-28.5 131t28.5 131t79 87.5t117.5 31.5q70 0 118.5 -34.5t65.5 -96.5l-12 11v108h81v-499
q0 -113 -57.5 -170t-169.5 -57zM289 83q73 0 114.5 48.5t41.5 133.5t-41.5 133.5t-114.5 48.5q-74 0 -116.5 -48.5t-42.5 -133.5q0 -86 42.5 -134t116.5 -48zM152 639v62h303v-62h-303z" />
    <glyph glyph-name="h" unicode="h" horiz-adv-x="585" 
d="M78 0v736h81v-335l-13 -10q21 61 70 92.5t113 31.5q181 0 181 -199v-316h-81v312q0 70 -28 102.5t-88 32.5q-70 0 -112 -43t-42 -116v-288h-81z" />
    <glyph glyph-name="hbar" unicode="&#x127;" horiz-adv-x="585" 
d="M78 0v736h81v-335l-13 -10q21 61 70 92.5t113 31.5q181 0 181 -199v-316h-81v312q0 70 -28 102.5t-88 32.5q-70 0 -112 -43t-42 -116v-288h-81zM-17 582v61h376v-61h-376z" />
    <glyph glyph-name="uni1E2B" unicode="&#x1e2b;" horiz-adv-x="585" 
d="M78 0v736h81v-335l-13 -10q21 61 70 92.5t113 31.5q181 0 181 -199v-316h-81v312q0 70 -28 102.5t-88 32.5q-70 0 -112 -43t-42 -116v-288h-81zM294 -213q-35 0 -67.5 13t-58.5 40.5t-41 73.5l51 22q24 -49 53 -69t63 -20t62.5 20t52.5 69l51 -21q-14 -46 -40 -74
t-59 -41t-67 -13z" />
    <glyph glyph-name="hcircumflex" unicode="&#x125;" horiz-adv-x="585" 
d="M78 0v736h81v-335l-13 -10q21 61 70 92.5t113 31.5q181 0 181 -199v-316h-81v312q0 70 -28 102.5t-88 32.5q-70 0 -112 -43t-42 -116v-288h-81zM46 797h-74l120 153h55l120 -153h-74l-73 104z" />
    <glyph glyph-name="uni1E25" unicode="&#x1e25;" horiz-adv-x="585" 
d="M78 0v736h81v-335l-13 -10q21 61 70 92.5t113 31.5q181 0 181 -199v-316h-81v312q0 70 -28 102.5t-88 32.5q-70 0 -112 -43t-42 -116v-288h-81zM247 -95h93v-89h-93v89z" />
    <glyph glyph-name="i" unicode="i" horiz-adv-x="238" 
d="M78 0v503h81v-503h-81zM70 716h99v-92h-99v92z" />
    <glyph glyph-name="dotlessi" unicode="&#x131;" horiz-adv-x="238" 
d="M78 0v503h81v-503h-81z" />
    <glyph glyph-name="iacute" unicode="&#xed;" horiz-adv-x="238" 
d="M78 0v503h81v-503h-81zM148 568h-57l100 204h94z" />
    <glyph glyph-name="ibreve" unicode="&#x12d;" horiz-adv-x="238" 
d="M78 0v503h81v-503h-81zM120 598q-35 0 -67.5 13t-58.5 41t-41 74l51 22q24 -50 53 -70t63 -20t62.5 20t52.5 70l51 -22q-14 -46 -40 -74t-59 -41t-67 -13z" />
    <glyph glyph-name="icircumflex" unicode="&#xee;" horiz-adv-x="238" 
d="M78 0v503h81v-503h-81zM47 568h-75l119 204h57l119 -204h-75l-72 144z" />
    <glyph glyph-name="uni0209" unicode="&#x209;" horiz-adv-x="238" 
d="M78 0v503h81v-503h-81zM160 568l-80 204h75l46 -204h-41zM38 568l-80 204h76l45 -204h-41z" />
    <glyph glyph-name="idieresis" unicode="&#xef;" horiz-adv-x="238" 
d="M78 0v503h81v-503h-81zM161 713h90v-86h-90v86zM-12 713h90v-86h-90v86z" />
    <glyph glyph-name="uni1E2F" unicode="&#x1e2f;" horiz-adv-x="238" 
d="M78 0v503h81v-503h-81zM161 713h90v-86h-90v86zM-12 713h90v-86h-90v86zM148 764h-57l100 204h94z" />
    <glyph glyph-name="i.locl" horiz-adv-x="238" 
d="M78 0v503h81v-503h-81zM70 716h99v-92h-99v92z" />
    <glyph glyph-name="uni1ECB" unicode="&#x1ecb;" horiz-adv-x="238" 
d="M78 0v503h81v-503h-81zM70 716h99v-92h-99v92zM71 -95h93v-89h-93v89z" />
    <glyph glyph-name="igrave" unicode="&#xec;" horiz-adv-x="238" 
d="M78 0v503h81v-503h-81zM91 568l-137 204h94l100 -204h-57z" />
    <glyph glyph-name="uni1EC9" unicode="&#x1ec9;" horiz-adv-x="238" 
d="M78 0v503h81v-503h-81zM148 585v-17h-53v28q0 20 9.5 34.5t22.5 26t22.5 22t9.5 21.5q0 12 -10.5 18.5t-30.5 6.5q-14 0 -28 -2.5t-31 -8.5l-15 44q20 9 40.5 13.5t40.5 4.5q48 0 74 -20.5t26 -49.5q0 -24 -11.5 -39t-27 -26.5t-27 -23.5t-11.5 -32z" />
    <glyph glyph-name="uni020B" unicode="&#x20b;" horiz-adv-x="238" 
d="M78 0v503h81v-503h-81zM120 746q34 0 66.5 -13t58.5 -41t41 -73l-51 -22q-24 50 -52.5 69.5t-62.5 19.5t-63 -19.5t-53 -69.5l-51 21q14 46 40 74t59 41t68 13z" />
    <glyph glyph-name="imacron" unicode="&#x12b;" horiz-adv-x="238" 
d="M78 0v503h81v-503h-81zM-32 639v62h303v-62h-303z" />
    <glyph glyph-name="iogonek" unicode="&#x12f;" horiz-adv-x="238" 
d="M117 -199q-53 0 -86.5 30.5t-33.5 78.5q0 45 32 80.5t93 48.5l-19 -39h-25v503h81v-503h-5q-45 0 -69.5 -23.5t-24.5 -56.5q0 -32 19.5 -49t50.5 -17q12 0 27.5 4.5t31.5 14.5l17 -49q-17 -10 -40 -16.5t-49 -6.5zM69 720h100v-92h-100v92z" />
    <glyph glyph-name="itilde" unicode="&#x129;" horiz-adv-x="238" 
d="M78 0v503h81v-503h-81zM-43 615q0 55 25 85t65 30q28 0 53.5 -14.5t48 -29t41.5 -14.5q23 0 35 16.5t12 38.5h45q0 -55 -25 -85t-65 -30q-28 0 -53.5 14.5t-48 29t-41.5 14.5q-23 0 -35 -17t-12 -38h-45z" />
    <glyph glyph-name="j" unicode="j" horiz-adv-x="238" 
d="M-55 -142q15 -4 26.5 -6t22.5 -2q23 0 42.5 8.5t30.5 30t11 61.5v553h81v-563q0 -81 -40 -120.5t-108 -39.5q-16 0 -33 2t-33 7v69zM69 716h99v-92h-99v92z" />
    <glyph glyph-name="uni0237" unicode="&#x237;" horiz-adv-x="238" 
d="M-55 -142q15 -4 26.5 -6t22.5 -2q23 0 42.5 8.5t30.5 30t11 61.5v553h81v-563q0 -81 -40 -120.5t-108 -39.5q-16 0 -33 2t-33 7v69z" />
    <glyph glyph-name="jcircumflex" unicode="&#x135;" horiz-adv-x="238" 
d="M-55 -142q15 -4 26.5 -6t22.5 -2q23 0 42.5 8.5t30.5 30t11 61.5v553h81v-563q0 -81 -40 -120.5t-108 -39.5q-16 0 -33 2t-33 7v69zM46 568h-75l119 204h57l119 -204h-75l-72 144z" />
    <glyph glyph-name="k" unicode="k" horiz-adv-x="515" 
d="M417 0l-274 257l253 245h103l-280 -268l3 51l301 -285h-106zM78 0v736h81v-736h-81z" />
    <glyph glyph-name="kcommaaccent" unicode="&#x137;" horiz-adv-x="515" 
d="M417 0l-274 257l253 245h103l-280 -268l3 51l301 -285h-106zM78 0v736h81v-736h-81zM306 -73v-58q0 -38 -10.5 -70t-41.5 -61l-37 28q23 24 30 45.5t7 45.5l23 -13h-70v83h99z" />
    <glyph glyph-name="kgreenlandic" unicode="&#x138;" horiz-adv-x="515" 
d="M417 0l-274 257l253 245h103l-280 -268l3 51l301 -285h-106zM78 0v503h81v-503h-81z" />
    <glyph glyph-name="l" unicode="l" horiz-adv-x="238" 
d="M78 0v736h81v-736h-81z" />
    <glyph glyph-name="lacute" unicode="&#x13a;" horiz-adv-x="238" 
d="M78 0v736h81v-736h-81zM148 797h-57l102 153h89z" />
    <glyph glyph-name="lcaron" unicode="&#x13e;" horiz-adv-x="238" 
d="M235 540h-38v196h65zM78 0v736h81v-736h-81z" />
    <glyph glyph-name="lcommaaccent" unicode="&#x13c;" horiz-adv-x="238" 
d="M78 0v736h81v-736h-81zM169 -73v-58q0 -38 -10.5 -70t-41.5 -61l-37 28q23 24 30 45.5t7 45.5l23 -13h-70v83h99z" />
    <glyph glyph-name="ldot" unicode="&#x140;" horiz-adv-x="267" 
d="M78 0v736h81v-736h-81zM195 406h103v-95h-103v95z" />
    <glyph glyph-name="uni1E37" unicode="&#x1e37;" horiz-adv-x="238" 
d="M78 0v736h81v-736h-81zM73 -95h93v-89h-93v89z" />
    <glyph glyph-name="uni01C9" unicode="&#x1c9;" horiz-adv-x="476" 
d="M78 0v736h81v-736h-81zM183 -142q15 -4 26.5 -6t22.5 -2q23 0 42.5 8.5t30.5 30t11 61.5v553h81v-563q0 -81 -40 -120.5t-108 -39.5q-16 0 -33 2t-33 7v69zM307 716h99v-92h-99v92z" />
    <glyph glyph-name="uni1E3B" unicode="&#x1e3b;" horiz-adv-x="238" 
d="M78 0v736h81v-736h-81zM-32 -170v60h303v-60h-303z" />
    <glyph glyph-name="lslash" unicode="&#x142;" horiz-adv-x="289" 
d="M26 261l-33 58l270 157l34 -59zM104 0v736h81v-736h-81z" />
    <glyph glyph-name="m" unicode="m" horiz-adv-x="879" 
d="M78 0v362q0 35 -1.5 70.5t-6.5 70.5h77l9 -104l-10 -7q18 59 62.5 91t105.5 32q73 0 113.5 -36t51.5 -110l-24 13q16 61 64.5 97t116.5 36q83 0 125 -49.5t42 -149.5v-316h-81v312q0 70 -25 102.5t-79 32.5q-63 0 -99.5 -43t-36.5 -117v-287h-81v312q0 70 -25.5 102.5
t-79.5 32.5q-64 0 -100.5 -43t-36.5 -117v-287h-81z" />
    <glyph glyph-name="uni1E43" unicode="&#x1e43;" horiz-adv-x="879" 
d="M78 0v362q0 35 -1.5 70.5t-6.5 70.5h77l9 -104l-10 -7q18 59 62.5 91t105.5 32q73 0 113.5 -36t51.5 -110l-24 13q16 61 64.5 97t116.5 36q83 0 125 -49.5t42 -149.5v-316h-81v312q0 70 -25 102.5t-79 32.5q-63 0 -99.5 -43t-36.5 -117v-287h-81v312q0 70 -25.5 102.5
t-79.5 32.5q-64 0 -100.5 -43t-36.5 -117v-287h-81zM394 -95h93v-89h-93v89z" />
    <glyph glyph-name="n" unicode="n" horiz-adv-x="585" 
d="M78 0v362q0 35 -1.5 70.5t-6.5 70.5h77l9 -104l-10 -8q21 61 70 92.5t113 31.5q181 0 181 -199v-316h-81v312q0 70 -28 102.5t-88 32.5q-70 0 -112 -43t-42 -116v-288h-81z" />
    <glyph glyph-name="nacute" unicode="&#x144;" horiz-adv-x="585" 
d="M78 0v362q0 35 -1.5 70.5t-6.5 70.5h77l9 -104l-10 -8q21 61 70 92.5t113 31.5q181 0 181 -199v-316h-81v312q0 70 -28 102.5t-88 32.5q-70 0 -112 -43t-42 -116v-288h-81zM322 568h-57l100 204h94z" />
    <glyph glyph-name="napostrophe" unicode="&#x149;" horiz-adv-x="585" 
d="M198 761v-58q0 -38 -10.5 -70t-40.5 -61l-37 28q23 24 29.5 45.5t6.5 45.5l24 -13h-71v83h99zM78 0v362q0 35 -1.5 70.5t-6.5 70.5h77l9 -104l-10 -8q21 61 70 92.5t113 31.5q181 0 181 -199v-316h-81v312q0 70 -28 102.5t-88 32.5q-70 0 -112 -43t-42 -116v-288h-81z
" />
    <glyph glyph-name="ncaron" unicode="&#x148;" horiz-adv-x="585" 
d="M78 0v362q0 35 -1.5 70.5t-6.5 70.5h77l9 -104l-10 -8q21 61 70 92.5t113 31.5q181 0 181 -199v-316h-81v312q0 70 -28 102.5t-88 32.5q-70 0 -112 -43t-42 -116v-288h-81zM366 772h75l-119 -204h-57l-119 204h75l73 -145z" />
    <glyph glyph-name="ncommaaccent" unicode="&#x146;" horiz-adv-x="585" 
d="M78 0v362q0 35 -1.5 70.5t-6.5 70.5h77l9 -104l-10 -8q21 61 70 92.5t113 31.5q181 0 181 -199v-316h-81v312q0 70 -28 102.5t-88 32.5q-70 0 -112 -43t-42 -116v-288h-81zM343 -73v-58q0 -38 -10.5 -70t-41.5 -61l-37 28q23 24 30 45.5t7 45.5l23 -13h-70v83h99z" />
    <glyph glyph-name="uni1E45" unicode="&#x1e45;" horiz-adv-x="585" 
d="M78 0v362q0 35 -1.5 70.5t-6.5 70.5h77l9 -104l-10 -8q21 61 70 92.5t113 31.5q181 0 181 -199v-316h-81v312q0 70 -28 102.5t-88 32.5q-70 0 -112 -43t-42 -116v-288h-81zM244 716h99v-92h-99v92z" />
    <glyph glyph-name="uni1E47" unicode="&#x1e47;" horiz-adv-x="585" 
d="M78 0v362q0 35 -1.5 70.5t-6.5 70.5h77l9 -104l-10 -8q21 61 70 92.5t113 31.5q181 0 181 -199v-316h-81v312q0 70 -28 102.5t-88 32.5q-70 0 -112 -43t-42 -116v-288h-81zM247 -95h93v-89h-93v89z" />
    <glyph glyph-name="eng" unicode="&#x14b;" horiz-adv-x="585" 
d="M329 515q181 0 181 -199v-355q0 -66 -18.5 -106t-51.5 -57.5t-78 -17.5q-17 0 -33.5 2t-32.5 6v70q15 -4 26.5 -6t22.5 -2q23 0 42.5 9.5t30.5 35.5t11 76v341q0 70 -28 102.5t-88 32.5q-70 0 -112 -43t-42 -116v-288h-81v362q0 35 -1.5 70.5t-6.5 70.5h77l9 -104l-10 -8
q21 61 70 92.5t113 31.5z" />
    <glyph glyph-name="uni01CC" unicode="&#x1cc;" horiz-adv-x="823" 
d="M78 0v362q0 35 -1.5 70.5t-6.5 70.5h77l9 -104l-10 -8q21 61 70 92.5t113 31.5q181 0 181 -199v-316h-81v312q0 70 -28 102.5t-88 32.5q-70 0 -112 -43t-42 -116v-288h-81zM530 -142q15 -4 26.5 -6t22.5 -2q23 0 42.5 8.5t30.5 30t11 61.5v553h81v-563q0 -81 -40 -120.5
t-108 -39.5q-16 0 -33 2t-33 7v69zM654 716h99v-92h-99v92z" />
    <glyph glyph-name="uni1E49" unicode="&#x1e49;" horiz-adv-x="585" 
d="M78 0v362q0 35 -1.5 70.5t-6.5 70.5h77l9 -104l-10 -8q21 61 70 92.5t113 31.5q181 0 181 -199v-316h-81v312q0 70 -28 102.5t-88 32.5q-70 0 -112 -43t-42 -116v-288h-81zM142 -170v60h303v-60h-303z" />
    <glyph glyph-name="ntilde" unicode="&#xf1;" horiz-adv-x="585" 
d="M78 0v362q0 35 -1.5 70.5t-6.5 70.5h77l9 -104l-10 -8q21 61 70 92.5t113 31.5q181 0 181 -199v-316h-81v312q0 70 -28 102.5t-88 32.5q-70 0 -112 -43t-42 -116v-288h-81zM131 615q0 55 25 85t65 30q28 0 53.5 -14.5t48 -29t41.5 -14.5q23 0 35 16.5t12 38.5h45
q0 -55 -25 -85t-65 -30q-28 0 -53.5 14.5t-48 29t-41.5 14.5q-23 0 -35 -17t-12 -38h-45z" />
    <glyph glyph-name="o" unicode="o" horiz-adv-x="572" 
d="M286 -7q-72 0 -125.5 32t-83 90.5t-29.5 138.5q0 79 29.5 138t83 91t125.5 32t125.5 -32t83 -91t29.5 -138q0 -80 -29.5 -138.5t-83 -90.5t-125.5 -32zM286 60q74 0 114.5 49.5t40.5 144.5q0 93 -41 143t-114 50t-114.5 -50t-41.5 -143q0 -95 40.5 -144.5t115.5 -49.5z
" />
    <glyph glyph-name="oacute" unicode="&#xf3;" horiz-adv-x="572" 
d="M286 -7q-72 0 -125.5 32t-83 90.5t-29.5 138.5q0 79 29.5 138t83 91t125.5 32t125.5 -32t83 -91t29.5 -138q0 -80 -29.5 -138.5t-83 -90.5t-125.5 -32zM286 60q74 0 114.5 49.5t40.5 144.5q0 93 -41 143t-114 50t-114.5 -50t-41.5 -143q0 -95 40.5 -144.5t115.5 -49.5z
M314 568h-57l100 204h94z" />
    <glyph glyph-name="obreve" unicode="&#x14f;" horiz-adv-x="572" 
d="M286 -7q-72 0 -125.5 32t-83 90.5t-29.5 138.5q0 79 29.5 138t83 91t125.5 32t125.5 -32t83 -91t29.5 -138q0 -80 -29.5 -138.5t-83 -90.5t-125.5 -32zM286 60q74 0 114.5 49.5t40.5 144.5q0 93 -41 143t-114 50t-114.5 -50t-41.5 -143q0 -95 40.5 -144.5t115.5 -49.5z
M286 598q-35 0 -67.5 13t-58.5 41t-41 74l51 22q24 -50 53 -70t63 -20t62.5 20t52.5 70l51 -22q-14 -46 -40 -74t-59 -41t-67 -13z" />
    <glyph glyph-name="ocircumflex" unicode="&#xf4;" horiz-adv-x="572" 
d="M286 -7q-72 0 -125.5 32t-83 90.5t-29.5 138.5q0 79 29.5 138t83 91t125.5 32t125.5 -32t83 -91t29.5 -138q0 -80 -29.5 -138.5t-83 -90.5t-125.5 -32zM286 60q74 0 114.5 49.5t40.5 144.5q0 93 -41 143t-114 50t-114.5 -50t-41.5 -143q0 -95 40.5 -144.5t115.5 -49.5z
M213 568h-75l119 204h57l119 -204h-75l-72 144z" />
    <glyph glyph-name="uni1ED1" unicode="&#x1ed1;" horiz-adv-x="572" 
d="M286 -7q-72 0 -125.5 32t-83 90.5t-29.5 138.5q0 79 29.5 138t83 91t125.5 32t125.5 -32t83 -91t29.5 -138q0 -80 -29.5 -138.5t-83 -90.5t-125.5 -32zM286 60q74 0 114.5 49.5t40.5 144.5q0 93 -41 143t-114 50t-114.5 -50t-41.5 -143q0 -95 40.5 -144.5t115.5 -49.5z
M212 568h-74l120 148h55l120 -148h-74l-73 100zM421 672h-50l92 143h86z" />
    <glyph glyph-name="uni1ED9" unicode="&#x1ed9;" horiz-adv-x="572" 
d="M286 -7q-72 0 -125.5 32t-83 90.5t-29.5 138.5q0 79 29.5 138t83 91t125.5 32t125.5 -32t83 -91t29.5 -138q0 -80 -29.5 -138.5t-83 -90.5t-125.5 -32zM286 60q74 0 114.5 49.5t40.5 144.5q0 93 -41 143t-114 50t-114.5 -50t-41.5 -143q0 -95 40.5 -144.5t115.5 -49.5z
M239 -95h93v-89h-93v89zM213 568h-75l119 204h57l119 -204h-75l-72 144z" />
    <glyph glyph-name="uni1ED3" unicode="&#x1ed3;" horiz-adv-x="572" 
d="M286 -7q-72 0 -125.5 32t-83 90.5t-29.5 138.5q0 79 29.5 138t83 91t125.5 32t125.5 -32t83 -91t29.5 -138q0 -80 -29.5 -138.5t-83 -90.5t-125.5 -32zM286 60q74 0 114.5 49.5t40.5 144.5q0 93 -41 143t-114 50t-114.5 -50t-41.5 -143q0 -95 40.5 -144.5t115.5 -49.5z
M212 568h-74l120 148h55l120 -148h-74l-73 100zM414 672l-113 143h85l78 -143h-50z" />
    <glyph glyph-name="uni1ED5" unicode="&#x1ed5;" horiz-adv-x="572" 
d="M286 -7q-72 0 -125.5 32t-83 90.5t-29.5 138.5q0 79 29.5 138t83 91t125.5 32t125.5 -32t83 -91t29.5 -138q0 -80 -29.5 -138.5t-83 -90.5t-125.5 -32zM286 60q74 0 114.5 49.5t40.5 144.5q0 93 -41 143t-114 50t-114.5 -50t-41.5 -143q0 -95 40.5 -144.5t115.5 -49.5z
M212 568h-74l120 148h55l120 -148h-74l-73 100zM424 681v-9h-54v17q0 17 10 26.5t23.5 14.5t24 10t10.5 13t-10.5 13.5t-30.5 5.5q-14 0 -29 -2.5t-33 -10.5l-14 44q18 8 39 12.5t43 4.5q47 0 73.5 -17.5t26.5 -46.5q0 -18 -12 -28t-27.5 -16t-27.5 -12.5t-12 -18.5z" />
    <glyph glyph-name="uni1ED7" unicode="&#x1ed7;" horiz-adv-x="572" 
d="M286 -7q-72 0 -125.5 32t-83 90.5t-29.5 138.5q0 79 29.5 138t83 91t125.5 32t125.5 -32t83 -91t29.5 -138q0 -80 -29.5 -138.5t-83 -90.5t-125.5 -32zM286 60q74 0 114.5 49.5t40.5 144.5q0 93 -41 143t-114 50t-114.5 -50t-41.5 -143q0 -95 40.5 -144.5t115.5 -49.5z
M212 568h-74l120 148h55l120 -148h-74l-73 100zM123 731q0 29 11.5 51.5t31.5 35.5t47 13q28 0 53.5 -11l48 -21.5t41.5 -10.5q23 0 35 14t12 30h45q0 -29 -11.5 -51t-31.5 -35t-47 -13q-28 0 -53.5 11l-48 21.5t-41.5 10.5q-23 0 -35 -14t-12 -31h-45z" />
    <glyph glyph-name="uni020D" unicode="&#x20d;" horiz-adv-x="572" 
d="M286 -7q-72 0 -125.5 32t-83 90.5t-29.5 138.5q0 79 29.5 138t83 91t125.5 32t125.5 -32t83 -91t29.5 -138q0 -80 -29.5 -138.5t-83 -90.5t-125.5 -32zM286 60q74 0 114.5 49.5t40.5 144.5q0 93 -41 143t-114 50t-114.5 -50t-41.5 -143q0 -95 40.5 -144.5t115.5 -49.5z
M326 568l-80 204h75l46 -204h-41zM204 568l-80 204h76l45 -204h-41z" />
    <glyph glyph-name="odieresis" unicode="&#xf6;" horiz-adv-x="572" 
d="M286 -7q-72 0 -125.5 32t-83 90.5t-29.5 138.5q0 79 29.5 138t83 91t125.5 32t125.5 -32t83 -91t29.5 -138q0 -80 -29.5 -138.5t-83 -90.5t-125.5 -32zM286 60q74 0 114.5 49.5t40.5 144.5q0 93 -41 143t-114 50t-114.5 -50t-41.5 -143q0 -95 40.5 -144.5t115.5 -49.5z
M327 713h90v-86h-90v86zM154 713h90v-86h-90v86z" />
    <glyph glyph-name="uni022B" unicode="&#x22b;" horiz-adv-x="572" 
d="M286 -7q-72 0 -125.5 32t-83 90.5t-29.5 138.5q0 79 29.5 138t83 91t125.5 32t125.5 -32t83 -91t29.5 -138q0 -80 -29.5 -138.5t-83 -90.5t-125.5 -32zM286 60q74 0 114.5 49.5t40.5 144.5q0 93 -41 143t-114 50t-114.5 -50t-41.5 -143q0 -95 40.5 -144.5t115.5 -49.5z
M327 713h90v-86h-90v86zM154 713h90v-86h-90v86zM134 835v62h303v-62h-303z" />
    <glyph glyph-name="uni0231" unicode="&#x231;" horiz-adv-x="572" 
d="M286 -7q-72 0 -125.5 32t-83 90.5t-29.5 138.5q0 79 29.5 138t83 91t125.5 32t125.5 -32t83 -91t29.5 -138q0 -80 -29.5 -138.5t-83 -90.5t-125.5 -32zM286 60q74 0 114.5 49.5t40.5 144.5q0 93 -41 143t-114 50t-114.5 -50t-41.5 -143q0 -95 40.5 -144.5t115.5 -49.5z
M236 716h99v-92h-99v92zM134 835v62h303v-62h-303z" />
    <glyph glyph-name="uni1ECD" unicode="&#x1ecd;" horiz-adv-x="572" 
d="M286 -7q-72 0 -125.5 32t-83 90.5t-29.5 138.5q0 79 29.5 138t83 91t125.5 32t125.5 -32t83 -91t29.5 -138q0 -80 -29.5 -138.5t-83 -90.5t-125.5 -32zM286 60q74 0 114.5 49.5t40.5 144.5q0 93 -41 143t-114 50t-114.5 -50t-41.5 -143q0 -95 40.5 -144.5t115.5 -49.5z
M239 -95h93v-89h-93v89z" />
    <glyph glyph-name="ograve" unicode="&#xf2;" horiz-adv-x="572" 
d="M286 -7q-72 0 -125.5 32t-83 90.5t-29.5 138.5q0 79 29.5 138t83 91t125.5 32t125.5 -32t83 -91t29.5 -138q0 -80 -29.5 -138.5t-83 -90.5t-125.5 -32zM286 60q74 0 114.5 49.5t40.5 144.5q0 93 -41 143t-114 50t-114.5 -50t-41.5 -143q0 -95 40.5 -144.5t115.5 -49.5z
M257 568l-137 204h94l100 -204h-57z" />
    <glyph glyph-name="uni1ECF" unicode="&#x1ecf;" horiz-adv-x="572" 
d="M286 -7q-72 0 -125.5 32t-83 90.5t-29.5 138.5q0 79 29.5 138t83 91t125.5 32t125.5 -32t83 -91t29.5 -138q0 -80 -29.5 -138.5t-83 -90.5t-125.5 -32zM286 60q74 0 114.5 49.5t40.5 144.5q0 93 -41 143t-114 50t-114.5 -50t-41.5 -143q0 -95 40.5 -144.5t115.5 -49.5z
M314 585v-17h-53v28q0 20 9.5 34.5t22.5 26t22.5 22t9.5 21.5q0 12 -10.5 18.5t-30.5 6.5q-14 0 -28 -2.5t-31 -8.5l-15 44q20 9 40.5 13.5t40.5 4.5q48 0 74 -20.5t26 -49.5q0 -24 -11.5 -39t-27 -26.5t-27 -23.5t-11.5 -32z" />
    <glyph glyph-name="ohorn" unicode="&#x1a1;" horiz-adv-x="572" 
d="M286 -7q-72 0 -125.5 32t-83 90.5t-29.5 138.5q0 79 29.5 138t83 91t125.5 32q12 0 26.5 -2t27 -3.5t19.5 -1.5q32 0 53 11t31.5 35.5t10.5 66.5v15h72v-26q0 -68 -38 -108.5t-108 -44.5l28 25q55 -31 85.5 -90t30.5 -138q0 -80 -29.5 -138.5t-83 -90.5t-125.5 -32z
M286 60q74 0 114.5 49.5t40.5 144.5q0 93 -41 143t-114 50t-114.5 -50t-41.5 -143q0 -95 40.5 -144.5t115.5 -49.5z" />
    <glyph glyph-name="uni1EDB" unicode="&#x1edb;" horiz-adv-x="572" 
d="M286 -7q-72 0 -125.5 32t-83 90.5t-29.5 138.5q0 79 29.5 138t83 91t125.5 32q12 0 26.5 -2t27 -3.5t19.5 -1.5q32 0 53 11t31.5 35.5t10.5 66.5v15h72v-26q0 -68 -38 -108.5t-108 -44.5l28 25q55 -31 85.5 -90t30.5 -138q0 -80 -29.5 -138.5t-83 -90.5t-125.5 -32z
M286 60q74 0 114.5 49.5t40.5 144.5q0 93 -41 143t-114 50t-114.5 -50t-41.5 -143q0 -95 40.5 -144.5t115.5 -49.5zM314 568h-57l100 204h94z" />
    <glyph glyph-name="uni1EE3" unicode="&#x1ee3;" horiz-adv-x="572" 
d="M286 -7q-72 0 -125.5 32t-83 90.5t-29.5 138.5q0 79 29.5 138t83 91t125.5 32q12 0 26.5 -2t27 -3.5t19.5 -1.5q32 0 53 11t31.5 35.5t10.5 66.5v15h72v-26q0 -68 -38 -108.5t-108 -44.5l28 25q55 -31 85.5 -90t30.5 -138q0 -80 -29.5 -138.5t-83 -90.5t-125.5 -32z
M286 60q74 0 114.5 49.5t40.5 144.5q0 93 -41 143t-114 50t-114.5 -50t-41.5 -143q0 -95 40.5 -144.5t115.5 -49.5zM239 -95h93v-89h-93v89z" />
    <glyph glyph-name="uni1EDD" unicode="&#x1edd;" horiz-adv-x="572" 
d="M286 -7q-72 0 -125.5 32t-83 90.5t-29.5 138.5q0 79 29.5 138t83 91t125.5 32q12 0 26.5 -2t27 -3.5t19.5 -1.5q32 0 53 11t31.5 35.5t10.5 66.5v15h72v-26q0 -68 -38 -108.5t-108 -44.5l28 25q55 -31 85.5 -90t30.5 -138q0 -80 -29.5 -138.5t-83 -90.5t-125.5 -32z
M286 60q74 0 114.5 49.5t40.5 144.5q0 93 -41 143t-114 50t-114.5 -50t-41.5 -143q0 -95 40.5 -144.5t115.5 -49.5zM257 568l-137 204h94l100 -204h-57z" />
    <glyph glyph-name="uni1EDF" unicode="&#x1edf;" horiz-adv-x="572" 
d="M286 -7q-72 0 -125.5 32t-83 90.5t-29.5 138.5q0 79 29.5 138t83 91t125.5 32q12 0 26.5 -2t27 -3.5t19.5 -1.5q32 0 53 11t31.5 35.5t10.5 66.5v15h72v-26q0 -68 -38 -108.5t-108 -44.5l28 25q55 -31 85.5 -90t30.5 -138q0 -80 -29.5 -138.5t-83 -90.5t-125.5 -32z
M286 60q74 0 114.5 49.5t40.5 144.5q0 93 -41 143t-114 50t-114.5 -50t-41.5 -143q0 -95 40.5 -144.5t115.5 -49.5zM314 585v-17h-53v28q0 20 9.5 34.5t22.5 26t22.5 22t9.5 21.5q0 12 -10.5 18.5t-30.5 6.5q-14 0 -28 -2.5t-31 -8.5l-15 44q20 9 40.5 13.5t40.5 4.5
q48 0 74 -20.5t26 -49.5q0 -24 -11.5 -39t-27 -26.5t-27 -23.5t-11.5 -32z" />
    <glyph glyph-name="uni1EE1" unicode="&#x1ee1;" horiz-adv-x="572" 
d="M286 -7q-72 0 -125.5 32t-83 90.5t-29.5 138.5q0 79 29.5 138t83 91t125.5 32q12 0 26.5 -2t27 -3.5t19.5 -1.5q32 0 53 11t31.5 35.5t10.5 66.5v15h72v-26q0 -68 -38 -108.5t-108 -44.5l28 25q55 -31 85.5 -90t30.5 -138q0 -80 -29.5 -138.5t-83 -90.5t-125.5 -32z
M286 60q74 0 114.5 49.5t40.5 144.5q0 93 -41 143t-114 50t-114.5 -50t-41.5 -143q0 -95 40.5 -144.5t115.5 -49.5zM123 615q0 55 25 85t65 30q28 0 53.5 -14.5t48 -29t41.5 -14.5q23 0 35 16.5t12 38.5h45q0 -55 -25 -85t-65 -30q-28 0 -53.5 14.5t-48 29t-41.5 14.5
q-23 0 -35 -17t-12 -38h-45z" />
    <glyph glyph-name="ohungarumlaut" unicode="&#x151;" horiz-adv-x="572" 
d="M286 -7q-72 0 -125.5 32t-83 90.5t-29.5 138.5q0 79 29.5 138t83 91t125.5 32t125.5 -32t83 -91t29.5 -138q0 -80 -29.5 -138.5t-83 -90.5t-125.5 -32zM286 60q74 0 114.5 49.5t40.5 144.5q0 93 -41 143t-114 50t-114.5 -50t-41.5 -143q0 -95 40.5 -144.5t115.5 -49.5z
M245 568h-41l46 204h75zM367 568h-41l45 204h76z" />
    <glyph glyph-name="uni020F" unicode="&#x20f;" horiz-adv-x="572" 
d="M286 -7q-72 0 -125.5 32t-83 90.5t-29.5 138.5q0 79 29.5 138t83 91t125.5 32t125.5 -32t83 -91t29.5 -138q0 -80 -29.5 -138.5t-83 -90.5t-125.5 -32zM286 60q74 0 114.5 49.5t40.5 144.5q0 93 -41 143t-114 50t-114.5 -50t-41.5 -143q0 -95 40.5 -144.5t115.5 -49.5z
M286 746q34 0 66.5 -13t58.5 -41t41 -73l-51 -22q-24 50 -52.5 69.5t-62.5 19.5t-63 -19.5t-53 -69.5l-51 21q14 46 40 74t59 41t68 13z" />
    <glyph glyph-name="omacron" unicode="&#x14d;" horiz-adv-x="572" 
d="M286 -7q-72 0 -125.5 32t-83 90.5t-29.5 138.5q0 79 29.5 138t83 91t125.5 32t125.5 -32t83 -91t29.5 -138q0 -80 -29.5 -138.5t-83 -90.5t-125.5 -32zM286 60q74 0 114.5 49.5t40.5 144.5q0 93 -41 143t-114 50t-114.5 -50t-41.5 -143q0 -95 40.5 -144.5t115.5 -49.5z
M134 639v62h303v-62h-303z" />
    <glyph glyph-name="uni1E53" unicode="&#x1e53;" horiz-adv-x="572" 
d="M286 -7q-72 0 -125.5 32t-83 90.5t-29.5 138.5q0 79 29.5 138t83 91t125.5 32t125.5 -32t83 -91t29.5 -138q0 -80 -29.5 -138.5t-83 -90.5t-125.5 -32zM286 60q74 0 114.5 49.5t40.5 144.5q0 93 -41 143t-114 50t-114.5 -50t-41.5 -143q0 -95 40.5 -144.5t115.5 -49.5z
M134 639v62h303v-62h-303zM314 764h-57l100 204h94z" />
    <glyph glyph-name="uni1E51" unicode="&#x1e51;" horiz-adv-x="572" 
d="M286 -7q-72 0 -125.5 32t-83 90.5t-29.5 138.5q0 79 29.5 138t83 91t125.5 32t125.5 -32t83 -91t29.5 -138q0 -80 -29.5 -138.5t-83 -90.5t-125.5 -32zM286 60q74 0 114.5 49.5t40.5 144.5q0 93 -41 143t-114 50t-114.5 -50t-41.5 -143q0 -95 40.5 -144.5t115.5 -49.5z
M134 639v62h303v-62h-303zM257 764l-137 204h94l100 -204h-57z" />
    <glyph glyph-name="uni01EB" unicode="&#x1eb;" horiz-adv-x="572" 
d="M344 -199q-53 0 -87 30t-34 78q0 34 16.5 61t47.5 43l4 -20q-74 -1 -128.5 30.5t-84.5 90.5t-30 140q0 79 29.5 138t83 91t125.5 32t125.5 -32t83 -91t29.5 -138q0 -93 -40.5 -159t-110.5 -88q-47 -14 -66.5 -34.5t-19.5 -52.5q0 -31 18.5 -48.5t49.5 -17.5q27 0 60 19
l16 -49q-18 -11 -40 -17t-47 -6zM286 60q74 0 114.5 49.5t40.5 144.5q0 93 -41 143t-114 50t-114.5 -50t-41.5 -143q0 -95 40.5 -144.5t115.5 -49.5z" />
    <glyph glyph-name="oslash" unicode="&#xf8;" horiz-adv-x="572" 
d="M286 -7q-72 0 -125.5 32t-83 90.5t-29.5 138.5q0 79 29.5 138t83 91t125.5 32t125.5 -32t83 -91t29.5 -138q0 -80 -29.5 -138.5t-83 -90.5t-125.5 -32zM144 -47l-49 29l332 571l50 -27zM286 60q75 0 115.5 49.5t40.5 144.5q0 93 -41 143.5t-115 50.5t-115 -50.5
t-41 -143.5q0 -95 40 -144.5t116 -49.5z" />
    <glyph glyph-name="oslashacute" unicode="&#x1ff;" horiz-adv-x="572" 
d="M286 -7q-72 0 -125.5 32t-83 90.5t-29.5 138.5q0 79 29.5 138t83 91t125.5 32t125.5 -32t83 -91t29.5 -138q0 -80 -29.5 -138.5t-83 -90.5t-125.5 -32zM144 -47l-49 29l332 571l50 -27zM286 60q75 0 115.5 49.5t40.5 144.5q0 93 -41 143.5t-115 50.5t-115 -50.5
t-41 -143.5q0 -95 40 -144.5t116 -49.5zM314 568h-57l100 204h94z" />
    <glyph glyph-name="otilde" unicode="&#xf5;" horiz-adv-x="572" 
d="M286 -7q-72 0 -125.5 32t-83 90.5t-29.5 138.5q0 79 29.5 138t83 91t125.5 32t125.5 -32t83 -91t29.5 -138q0 -80 -29.5 -138.5t-83 -90.5t-125.5 -32zM286 60q74 0 114.5 49.5t40.5 144.5q0 93 -41 143t-114 50t-114.5 -50t-41.5 -143q0 -95 40.5 -144.5t115.5 -49.5z
M123 615q0 55 25 85t65 30q28 0 53.5 -14.5t48 -29t41.5 -14.5q23 0 35 16.5t12 38.5h45q0 -55 -25 -85t-65 -30q-28 0 -53.5 14.5t-48 29t-41.5 14.5q-23 0 -35 -17t-12 -38h-45z" />
    <glyph glyph-name="uni1E4D" unicode="&#x1e4d;" horiz-adv-x="572" 
d="M286 -7q-72 0 -125.5 32t-83 90.5t-29.5 138.5q0 79 29.5 138t83 91t125.5 32t125.5 -32t83 -91t29.5 -138q0 -80 -29.5 -138.5t-83 -90.5t-125.5 -32zM286 60q74 0 114.5 49.5t40.5 144.5q0 93 -41 143t-114 50t-114.5 -50t-41.5 -143q0 -95 40.5 -144.5t115.5 -49.5z
M123 615q0 55 25 85t65 30q28 0 53.5 -14.5t48 -29t41.5 -14.5q23 0 35 16.5t12 38.5h45q0 -55 -25 -85t-65 -30q-28 0 -53.5 14.5t-48 29t-41.5 14.5q-23 0 -35 -17t-12 -38h-45zM314 764h-57l100 204h94z" />
    <glyph glyph-name="uni1E4F" unicode="&#x1e4f;" horiz-adv-x="572" 
d="M286 -7q-72 0 -125.5 32t-83 90.5t-29.5 138.5q0 79 29.5 138t83 91t125.5 32t125.5 -32t83 -91t29.5 -138q0 -80 -29.5 -138.5t-83 -90.5t-125.5 -32zM286 60q74 0 114.5 49.5t40.5 144.5q0 93 -41 143t-114 50t-114.5 -50t-41.5 -143q0 -95 40.5 -144.5t115.5 -49.5z
M123 615q0 55 25 85t65 30q28 0 53.5 -14.5t48 -29t41.5 -14.5q23 0 35 16.5t12 38.5h45q0 -55 -25 -85t-65 -30q-28 0 -53.5 14.5t-48 29t-41.5 14.5q-23 0 -35 -17t-12 -38h-45zM327 909h90v-86h-90v86zM154 909h90v-86h-90v86z" />
    <glyph glyph-name="uni022D" unicode="&#x22d;" horiz-adv-x="572" 
d="M286 -7q-72 0 -125.5 32t-83 90.5t-29.5 138.5q0 79 29.5 138t83 91t125.5 32t125.5 -32t83 -91t29.5 -138q0 -80 -29.5 -138.5t-83 -90.5t-125.5 -32zM286 60q74 0 114.5 49.5t40.5 144.5q0 93 -41 143t-114 50t-114.5 -50t-41.5 -143q0 -95 40.5 -144.5t115.5 -49.5z
M123 615q0 55 25 85t65 30q28 0 53.5 -14.5t48 -29t41.5 -14.5q23 0 35 16.5t12 38.5h45q0 -55 -25 -85t-65 -30q-28 0 -53.5 14.5t-48 29t-41.5 14.5q-23 0 -35 -17t-12 -38h-45zM134 835v62h303v-62h-303z" />
    <glyph glyph-name="oe" unicode="&#x153;" horiz-adv-x="933" 
d="M285 -7q-72 0 -125 32t-82.5 90.5t-29.5 138.5q0 79 29.5 137.5t82.5 91t125 32.5q69 0 120 -32t79 -90.5t28 -138.5t-28 -139t-79 -90.5t-120 -31.5zM285 60q74 0 114.5 49.5t40.5 144.5q0 93 -41 143t-113 50q-73 0 -114.5 -50t-41.5 -143q0 -95 40.5 -144.5
t114.5 -49.5zM692 -7q-110 0 -173 67.5t-66 190.5q-2 78 26 137.5t79.5 93t121.5 33.5q64 0 111 -29.5t72 -84.5t25 -132v-30h-382v53h336l-25 -22q2 88 -34 135t-104 47q-74 0 -115 -51.5t-41 -142.5q0 -98 42.5 -148t125.5 -50q44 0 84 15t77 44l28 -59
q-33 -30 -84.5 -48.5t-103.5 -18.5z" />
    <glyph glyph-name="p" unicode="p" 
d="M78 -216v578q0 35 -1.5 70.5t-6.5 70.5h77l9 -104l-8 -15q17 63 65 97t116 34q66 0 116.5 -33t79 -92t28.5 -138t-28.5 -137.5t-78.5 -90t-117 -31.5q-68 0 -116 34t-65 97l11 10v-350h-81zM314 60q73 0 114 50t41 142t-41 143.5t-114 51.5q-75 0 -115 -50t-40 -143
t40 -143.5t115 -50.5z" />
    <glyph glyph-name="thorn" unicode="&#xfe;" 
d="M78 -216v952h81v-362l-11 10q17 63 65 97t116 34q65 0 115.5 -32t79.5 -91t29 -140q0 -82 -29 -140t-79.5 -88.5t-115.5 -30.5q-68 0 -116 34t-65 97l11 10v-350h-81zM314 60q75 0 115 50.5t40 141.5q0 90 -40 142.5t-115 52.5t-115 -50t-40 -143t40 -143.5t115 -50.5z
" />
    <glyph glyph-name="q" unicode="q" 
d="M521 -216h-81v350l13 -10q-17 -63 -65 -97t-117 -34q-67 0 -117.5 31.5t-78 90t-27.5 137.5t28 138t78.5 92t116.5 33q69 0 117 -34t65 -97l-10 15l11 104h75q-4 -35 -6 -70.5t-2 -70.5v-578zM287 60q74 0 114 50.5t40 143.5t-40.5 143t-113.5 50q-74 0 -115.5 -51.5
t-41.5 -143.5t41.5 -142t115.5 -50z" />
    <glyph glyph-name="r" unicode="r" horiz-adv-x="362" 
d="M78 0v362q0 35 -1.5 70.5t-6.5 70.5h77l11 -124l-11 3q14 66 60.5 99.5t104.5 33.5q13 0 24.5 -1.5t21.5 -4.5l-2 -74q-23 8 -53 8q-52 0 -83.5 -23t-46 -58.5t-14.5 -74.5v-287h-81z" />
    <glyph glyph-name="racute" unicode="&#x155;" horiz-adv-x="362" 
d="M78 0v362q0 35 -1.5 70.5t-6.5 70.5h77l11 -124l-11 3q14 66 60.5 99.5t104.5 33.5q13 0 24.5 -1.5t21.5 -4.5l-2 -74q-23 8 -53 8q-52 0 -83.5 -23t-46 -58.5t-14.5 -74.5v-287h-81zM249 568h-57l100 204h94z" />
    <glyph glyph-name="rcaron" unicode="&#x159;" horiz-adv-x="362" 
d="M78 0v362q0 35 -1.5 70.5t-6.5 70.5h77l11 -124l-11 3q14 66 60.5 99.5t104.5 33.5q13 0 24.5 -1.5t21.5 -4.5l-2 -74q-23 8 -53 8q-52 0 -83.5 -23t-46 -58.5t-14.5 -74.5v-287h-81zM293 772h75l-119 -204h-57l-119 204h75l73 -145z" />
    <glyph glyph-name="rcommaaccent" unicode="&#x157;" horiz-adv-x="362" 
d="M78 0v362q0 35 -1.5 70.5t-6.5 70.5h77l11 -124l-11 3q14 66 60.5 99.5t104.5 33.5q13 0 24.5 -1.5t21.5 -4.5l-2 -74q-23 8 -53 8q-52 0 -83.5 -23t-46 -58.5t-14.5 -74.5v-287h-81zM169 -73v-58q0 -38 -10.5 -70t-41.5 -61l-37 28q23 24 30 45.5t7 45.5l23 -13h-70v83
h99z" />
    <glyph glyph-name="uni0211" unicode="&#x211;" horiz-adv-x="362" 
d="M78 0v362q0 35 -1.5 70.5t-6.5 70.5h77l11 -124l-11 3q14 66 60.5 99.5t104.5 33.5q13 0 24.5 -1.5t21.5 -4.5l-2 -74q-23 8 -53 8q-52 0 -83.5 -23t-46 -58.5t-14.5 -74.5v-287h-81zM261 568l-80 204h75l46 -204h-41zM139 568l-80 204h76l45 -204h-41z" />
    <glyph glyph-name="uni1E5B" unicode="&#x1e5b;" horiz-adv-x="362" 
d="M78 0v362q0 35 -1.5 70.5t-6.5 70.5h77l11 -124l-11 3q14 66 60.5 99.5t104.5 33.5q13 0 24.5 -1.5t21.5 -4.5l-2 -74q-23 8 -53 8q-52 0 -83.5 -23t-46 -58.5t-14.5 -74.5v-287h-81zM73 -95h93v-89h-93v89z" />
    <glyph glyph-name="uni0213" unicode="&#x213;" horiz-adv-x="362" 
d="M78 0v362q0 35 -1.5 70.5t-6.5 70.5h77l11 -124l-11 3q14 66 60.5 99.5t104.5 33.5q13 0 24.5 -1.5t21.5 -4.5l-2 -74q-23 8 -53 8q-52 0 -83.5 -23t-46 -58.5t-14.5 -74.5v-287h-81zM221 746q34 0 66.5 -13t58.5 -41t41 -73l-51 -22q-24 50 -52.5 69.5t-62.5 19.5
t-63 -19.5t-53 -69.5l-51 21q14 46 40 74t59 41t68 13z" />
    <glyph glyph-name="uni1E5F" unicode="&#x1e5f;" horiz-adv-x="362" 
d="M78 0v362q0 35 -1.5 70.5t-6.5 70.5h77l11 -124l-11 3q14 66 60.5 99.5t104.5 33.5q13 0 24.5 -1.5t21.5 -4.5l-2 -74q-23 8 -53 8q-52 0 -83.5 -23t-46 -58.5t-14.5 -74.5v-287h-81zM-32 -170v60h303v-60h-303z" />
    <glyph glyph-name="s" unicode="s" horiz-adv-x="496" 
d="M248 -7q-127 0 -201 65l27 60q40 -31 82.5 -45.5t94.5 -14.5q57 0 86.5 19.5t29.5 56.5q0 30 -20 47.5t-66 28.5l-85 20q-63 14 -97.5 50t-34.5 86q0 44 24 77.5t67 52.5t102 19q53 0 100 -17t79 -49l-27 -59q-36 30 -73.5 44.5t-78.5 14.5q-54 0 -83.5 -21t-29.5 -57
q0 -31 18.5 -49t59.5 -28l85 -21q71 -15 104.5 -49.5t33.5 -87.5q0 -65 -53 -104t-144 -39z" />
    <glyph glyph-name="sacute" unicode="&#x15b;" horiz-adv-x="496" 
d="M248 -7q-127 0 -201 65l27 60q40 -31 82.5 -45.5t94.5 -14.5q57 0 86.5 19.5t29.5 56.5q0 30 -20 47.5t-66 28.5l-85 20q-63 14 -97.5 50t-34.5 86q0 44 24 77.5t67 52.5t102 19q53 0 100 -17t79 -49l-27 -59q-36 30 -73.5 44.5t-78.5 14.5q-54 0 -83.5 -21t-29.5 -57
q0 -31 18.5 -49t59.5 -28l85 -21q71 -15 104.5 -49.5t33.5 -87.5q0 -65 -53 -104t-144 -39zM285 568h-57l100 204h94z" />
    <glyph glyph-name="uni1E65" unicode="&#x1e65;" horiz-adv-x="496" 
d="M248 -7q-127 0 -201 65l27 60q40 -31 82.5 -45.5t94.5 -14.5q57 0 86.5 19.5t29.5 56.5q0 30 -20 47.5t-66 28.5l-85 20q-63 14 -97.5 50t-34.5 86q0 44 24 77.5t67 52.5t102 19q53 0 100 -17t79 -49l-27 -59q-36 30 -73.5 44.5t-78.5 14.5q-54 0 -83.5 -21t-29.5 -57
q0 -31 18.5 -49t59.5 -28l85 -21q71 -15 104.5 -49.5t33.5 -87.5q0 -65 -53 -104t-144 -39zM289 565h-57l100 204h94zM106 763h99v-92h-99v92z" />
    <glyph glyph-name="scaron" unicode="&#x161;" horiz-adv-x="496" 
d="M248 -7q-127 0 -201 65l27 60q40 -31 82.5 -45.5t94.5 -14.5q57 0 86.5 19.5t29.5 56.5q0 30 -20 47.5t-66 28.5l-85 20q-63 14 -97.5 50t-34.5 86q0 44 24 77.5t67 52.5t102 19q53 0 100 -17t79 -49l-27 -59q-36 30 -73.5 44.5t-78.5 14.5q-54 0 -83.5 -21t-29.5 -57
q0 -31 18.5 -49t59.5 -28l85 -21q71 -15 104.5 -49.5t33.5 -87.5q0 -65 -53 -104t-144 -39zM329 772h75l-119 -204h-57l-119 204h75l73 -145z" />
    <glyph glyph-name="uni1E67" unicode="&#x1e67;" horiz-adv-x="496" 
d="M248 -7q-127 0 -201 65l27 60q40 -31 82.5 -45.5t94.5 -14.5q57 0 86.5 19.5t29.5 56.5q0 30 -20 47.5t-66 28.5l-85 20q-63 14 -97.5 50t-34.5 86q0 44 24 77.5t67 52.5t102 19q53 0 100 -17t79 -49l-27 -59q-36 30 -73.5 44.5t-78.5 14.5q-54 0 -83.5 -21t-29.5 -57
q0 -31 18.5 -49t59.5 -28l85 -21q71 -15 104.5 -49.5t33.5 -87.5q0 -65 -53 -104t-144 -39zM329 772h75l-119 -204h-57l-119 204h75l73 -145zM207 912h99v-92h-99v92z" />
    <glyph glyph-name="scedilla" unicode="&#x15f;" horiz-adv-x="496" 
d="M248 -7q-127 0 -201 65l27 60q40 -31 82.5 -45.5t94.5 -14.5q57 0 86.5 19.5t29.5 56.5q0 30 -20 47.5t-66 28.5l-85 20q-63 14 -97.5 50t-34.5 86q0 44 24 77.5t67 52.5t102 19q53 0 100 -17t79 -49l-27 -59q-36 30 -73.5 44.5t-78.5 14.5q-54 0 -83.5 -21t-29.5 -57
q0 -31 18.5 -49t59.5 -28l85 -21q71 -15 104.5 -49.5t33.5 -87.5q0 -65 -53 -104t-144 -39zM245 -195q-20 0 -45 4.5t-44 14.5l13 44q21 -8 39.5 -11t36.5 -3q28 0 42 9.5t14 25.5q0 27 -35 27q-13 0 -24.5 -2.5t-21.5 -6.5l-20 16l11 97h57l-8 -73l-25 2q13 5 25.5 7.5
t24.5 2.5q29 0 53 -17t24 -53t-30.5 -60t-86.5 -24z" />
    <glyph glyph-name="scircumflex" unicode="&#x15d;" horiz-adv-x="496" 
d="M248 -7q-127 0 -201 65l27 60q40 -31 82.5 -45.5t94.5 -14.5q57 0 86.5 19.5t29.5 56.5q0 30 -20 47.5t-66 28.5l-85 20q-63 14 -97.5 50t-34.5 86q0 44 24 77.5t67 52.5t102 19q53 0 100 -17t79 -49l-27 -59q-36 30 -73.5 44.5t-78.5 14.5q-54 0 -83.5 -21t-29.5 -57
q0 -31 18.5 -49t59.5 -28l85 -21q71 -15 104.5 -49.5t33.5 -87.5q0 -65 -53 -104t-144 -39zM184 568h-75l119 204h57l119 -204h-75l-72 144z" />
    <glyph glyph-name="scommaaccent" unicode="&#x219;" horiz-adv-x="496" 
d="M248 -7q-127 0 -201 65l27 60q40 -31 82.5 -45.5t94.5 -14.5q57 0 86.5 19.5t29.5 56.5q0 30 -20 47.5t-66 28.5l-85 20q-63 14 -97.5 50t-34.5 86q0 44 24 77.5t67 52.5t102 19q53 0 100 -17t79 -49l-27 -59q-36 30 -73.5 44.5t-78.5 14.5q-54 0 -83.5 -21t-29.5 -57
q0 -31 18.5 -49t59.5 -28l85 -21q71 -15 104.5 -49.5t33.5 -87.5q0 -65 -53 -104t-144 -39zM296 -73v-58q0 -38 -10.5 -70t-41.5 -61l-37 28q23 24 30 45.5t7 45.5l23 -13h-70v83h99z" />
    <glyph glyph-name="uni1E61" unicode="&#x1e61;" horiz-adv-x="496" 
d="M248 -7q-127 0 -201 65l27 60q40 -31 82.5 -45.5t94.5 -14.5q57 0 86.5 19.5t29.5 56.5q0 30 -20 47.5t-66 28.5l-85 20q-63 14 -97.5 50t-34.5 86q0 44 24 77.5t67 52.5t102 19q53 0 100 -17t79 -49l-27 -59q-36 30 -73.5 44.5t-78.5 14.5q-54 0 -83.5 -21t-29.5 -57
q0 -31 18.5 -49t59.5 -28l85 -21q71 -15 104.5 -49.5t33.5 -87.5q0 -65 -53 -104t-144 -39zM207 716h99v-92h-99v92z" />
    <glyph glyph-name="uni1E63" unicode="&#x1e63;" horiz-adv-x="496" 
d="M248 -7q-127 0 -201 65l27 60q40 -31 82.5 -45.5t94.5 -14.5q57 0 86.5 19.5t29.5 56.5q0 30 -20 47.5t-66 28.5l-85 20q-63 14 -97.5 50t-34.5 86q0 44 24 77.5t67 52.5t102 19q53 0 100 -17t79 -49l-27 -59q-36 30 -73.5 44.5t-78.5 14.5q-54 0 -83.5 -21t-29.5 -57
q0 -31 18.5 -49t59.5 -28l85 -21q71 -15 104.5 -49.5t33.5 -87.5q0 -65 -53 -104t-144 -39zM200 -95h93v-89h-93v89z" />
    <glyph glyph-name="uni1E69" unicode="&#x1e69;" horiz-adv-x="496" 
d="M248 -7q-127 0 -201 65l27 60q40 -31 82.5 -45.5t94.5 -14.5q57 0 86.5 19.5t29.5 56.5q0 30 -20 47.5t-66 28.5l-85 20q-63 14 -97.5 50t-34.5 86q0 44 24 77.5t67 52.5t102 19q53 0 100 -17t79 -49l-27 -59q-36 30 -73.5 44.5t-78.5 14.5q-54 0 -83.5 -21t-29.5 -57
q0 -31 18.5 -49t59.5 -28l85 -21q71 -15 104.5 -49.5t33.5 -87.5q0 -65 -53 -104t-144 -39zM200 -95h93v-89h-93v89zM207 716h99v-92h-99v92z" />
    <glyph glyph-name="germandbls" unicode="&#xdf;" horiz-adv-x="634" 
d="M78 0v494q0 121 63 184t178 63q91 0 143 -43.5t52 -121.5q0 -45 -16 -83.5t-55.5 -71t-107.5 -58.5v15q95 -20 154 -52.5t86 -75t27 -94.5q0 -50 -23 -86.5t-65.5 -56.5t-100.5 -20q-55 0 -104.5 17t-82.5 48l28 62q41 -32 80 -46.5t81 -14.5q54 0 81.5 26t27.5 73
q0 35 -23 66t-77.5 58t-150.5 52v62q64 25 99.5 52t50 58.5t14.5 68.5q0 49 -30 75t-88 26q-77 0 -118.5 -43t-41.5 -130v-503h-81z" />
    <glyph glyph-name="t" unicode="t" horiz-adv-x="350" 
d="M7 439v64h323v-64h-323zM328 72v-69q-17 -5 -33.5 -7.5t-36.5 -2.5q-70 0 -111.5 40t-41.5 120v479l81 29v-497q0 -40 11.5 -62t31.5 -30.5t45 -8.5q15 0 27 2t27 7z" />
    <glyph glyph-name="tbar" unicode="&#x167;" horiz-adv-x="360" 
d="M33 259v61h281v-61h-281zM12 439v64h323v-64h-323zM333 72v-69q-16 -5 -33 -7.5t-37 -2.5q-70 0 -111 40t-41 120v479l80 29v-497q0 -40 12 -62t31.5 -30.5t44.5 -8.5q15 0 27 2t27 7z" />
    <glyph glyph-name="tcaron" unicode="&#x165;" horiz-adv-x="350" 
d="M7 439v64h323v-64h-323zM328 72v-69q-17 -5 -33.5 -7.5t-36.5 -2.5q-70 0 -111.5 40t-41.5 120v479l81 29v-497q0 -40 11.5 -62t31.5 -30.5t45 -8.5q15 0 27 2t27 7zM283.295 541.013h-45.0488v172.805h72.2891z" />
    <glyph glyph-name="tcommaaccent" unicode="&#x163;" horiz-adv-x="350" 
d="M7 439v64h323v-64h-323zM328 72v-69q-17 -5 -33.5 -7.5t-36.5 -2.5q-70 0 -111.5 40t-41.5 120v479l81 29v-497q0 -40 11.5 -62t31.5 -30.5t45 -8.5q15 0 27 2t27 7zM223 -195q-20 0 -45 4.5t-44 14.5l13 44q21 -8 39.5 -11t36.5 -3q28 0 42 9.5t14 25.5q0 27 -35 27
q-13 0 -24.5 -2.5t-21.5 -6.5l-20 16l11 97h57l-8 -73l-25 2q13 5 25.5 7.5t24.5 2.5q29 0 53 -17t24 -53t-30.5 -60t-86.5 -24z" />
    <glyph glyph-name="uni021B" unicode="&#x21b;" horiz-adv-x="350" 
d="M7 439v64h323v-64h-323zM328 72v-69q-17 -5 -33.5 -7.5t-36.5 -2.5q-70 0 -111.5 40t-41.5 120v479l81 29v-497q0 -40 11.5 -62t31.5 -30.5t45 -8.5q15 0 27 2t27 7zM274 -73v-58q0 -38 -10.5 -70t-41.5 -61l-37 28q23 24 30 45.5t7 45.5l23 -13h-70v83h99z" />
    <glyph glyph-name="uni1E97" unicode="&#x1e97;" horiz-adv-x="350" 
d="M7 439v64h323v-64h-323zM328 72v-69q-17 -5 -33.5 -7.5t-36.5 -2.5q-70 0 -111.5 40t-41.5 120v479l81 29v-497q0 -40 11.5 -62t31.5 -30.5t45 -8.5q15 0 27 2t27 7zM187 837h90v-86h-90v86zM14 837h90v-86h-90v86z" />
    <glyph glyph-name="uni1E6D" unicode="&#x1e6d;" horiz-adv-x="350" 
d="M7 439v64h323v-64h-323zM328 72v-69q-17 -5 -33.5 -7.5t-36.5 -2.5q-70 0 -111.5 40t-41.5 120v479l81 29v-497q0 -40 11.5 -62t31.5 -30.5t45 -8.5q15 0 27 2t27 7zM178 -95h93v-89h-93v89z" />
    <glyph glyph-name="uni1E6F" unicode="&#x1e6f;" horiz-adv-x="350" 
d="M7 439v64h323v-64h-323zM328 72v-69q-17 -5 -33.5 -7.5t-36.5 -2.5q-70 0 -111.5 40t-41.5 120v479l81 29v-497q0 -40 11.5 -62t31.5 -30.5t45 -8.5q15 0 27 2t27 7zM73 -170v60h303v-60h-303z" />
    <glyph glyph-name="u" unicode="u" horiz-adv-x="577" 
d="M256 -7q-90 0 -135.5 50t-45.5 148v312h81v-310q0 -68 28 -100t85 -32q67 0 108 43t41 115v284h81v-503h-79v109l12 6q-20 -60 -67.5 -91t-108.5 -31z" />
    <glyph glyph-name="uacute" unicode="&#xfa;" horiz-adv-x="577" 
d="M256 -7q-90 0 -135.5 50t-45.5 148v312h81v-310q0 -68 28 -100t85 -32q67 0 108 43t41 115v284h81v-503h-79v109l12 6q-20 -60 -67.5 -91t-108.5 -31zM317 568h-57l100 204h94z" />
    <glyph glyph-name="ubreve" unicode="&#x16d;" horiz-adv-x="577" 
d="M256 -7q-90 0 -135.5 50t-45.5 148v312h81v-310q0 -68 28 -100t85 -32q67 0 108 43t41 115v284h81v-503h-79v109l12 6q-20 -60 -67.5 -91t-108.5 -31zM289 598q-35 0 -67.5 13t-58.5 41t-41 74l51 22q24 -50 53 -70t63 -20t62.5 20t52.5 70l51 -22q-14 -46 -40 -74
t-59 -41t-67 -13z" />
    <glyph glyph-name="ucircumflex" unicode="&#xfb;" horiz-adv-x="577" 
d="M256 -7q-90 0 -135.5 50t-45.5 148v312h81v-310q0 -68 28 -100t85 -32q67 0 108 43t41 115v284h81v-503h-79v109l12 6q-20 -60 -67.5 -91t-108.5 -31zM216 568h-75l119 204h57l119 -204h-75l-72 144z" />
    <glyph glyph-name="uni0215" unicode="&#x215;" horiz-adv-x="577" 
d="M256 -7q-90 0 -135.5 50t-45.5 148v312h81v-310q0 -68 28 -100t85 -32q67 0 108 43t41 115v284h81v-503h-79v109l12 6q-20 -60 -67.5 -91t-108.5 -31zM329 568l-80 204h75l46 -204h-41zM207 568l-80 204h76l45 -204h-41z" />
    <glyph glyph-name="udieresis" unicode="&#xfc;" horiz-adv-x="577" 
d="M256 -7q-90 0 -135.5 50t-45.5 148v312h81v-310q0 -68 28 -100t85 -32q67 0 108 43t41 115v284h81v-503h-79v109l12 6q-20 -60 -67.5 -91t-108.5 -31zM330 713h90v-86h-90v86zM157 713h90v-86h-90v86z" />
    <glyph glyph-name="uni1EE5" unicode="&#x1ee5;" horiz-adv-x="577" 
d="M256 -7q-90 0 -135.5 50t-45.5 148v312h81v-310q0 -68 28 -100t85 -32q67 0 108 43t41 115v284h81v-503h-79v109l12 6q-20 -60 -67.5 -91t-108.5 -31zM242 -95h93v-89h-93v89z" />
    <glyph glyph-name="ugrave" unicode="&#xf9;" horiz-adv-x="577" 
d="M256 -7q-90 0 -135.5 50t-45.5 148v312h81v-310q0 -68 28 -100t85 -32q67 0 108 43t41 115v284h81v-503h-79v109l12 6q-20 -60 -67.5 -91t-108.5 -31zM260 568l-137 204h94l100 -204h-57z" />
    <glyph glyph-name="uni1EE7" unicode="&#x1ee7;" horiz-adv-x="577" 
d="M256 -7q-90 0 -135.5 50t-45.5 148v312h81v-310q0 -68 28 -100t85 -32q67 0 108 43t41 115v284h81v-503h-79v109l12 6q-20 -60 -67.5 -91t-108.5 -31zM317 585v-17h-53v28q0 20 9.5 34.5t22.5 26t22.5 22t9.5 21.5q0 12 -10.5 18.5t-30.5 6.5q-14 0 -28 -2.5t-31 -8.5
l-15 44q20 9 40.5 13.5t40.5 4.5q48 0 74 -20.5t26 -49.5q0 -24 -11.5 -39t-27 -26.5t-27 -23.5t-11.5 -32z" />
    <glyph glyph-name="uhorn" unicode="&#x1b0;" horiz-adv-x="591" 
d="M548 636h72v-26q0 -47 -17.5 -81.5t-51 -53t-80.5 -19.5l28 26v-482h-79v109l12 6q-20 -60 -67.5 -91t-108.5 -31q-90 0 -135.5 50t-45.5 148v312h81v-310q0 -68 28 -100t85 -32q67 0 108 43t41 115v284h23q57 0 82 27.5t25 90.5v15z" />
    <glyph glyph-name="uni1EE9" unicode="&#x1ee9;" horiz-adv-x="591" 
d="M548 636h72v-26q0 -47 -17.5 -81.5t-51 -53t-80.5 -19.5l28 26v-482h-79v109l12 6q-20 -60 -67.5 -91t-108.5 -31q-90 0 -135.5 50t-45.5 148v312h81v-310q0 -68 28 -100t85 -32q67 0 108 43t41 115v284h23q57 0 82 27.5t25 90.5v15zM317 568h-57l100 204h94z" />
    <glyph glyph-name="uni1EF1" unicode="&#x1ef1;" horiz-adv-x="591" 
d="M548 636h72v-26q0 -47 -17.5 -81.5t-51 -53t-80.5 -19.5l28 26v-482h-79v109l12 6q-20 -60 -67.5 -91t-108.5 -31q-90 0 -135.5 50t-45.5 148v312h81v-310q0 -68 28 -100t85 -32q67 0 108 43t41 115v284h23q57 0 82 27.5t25 90.5v15zM242 -95h93v-89h-93v89z" />
    <glyph glyph-name="uni1EEB" unicode="&#x1eeb;" horiz-adv-x="591" 
d="M548 636h72v-26q0 -47 -17.5 -81.5t-51 -53t-80.5 -19.5l28 26v-482h-79v109l12 6q-20 -60 -67.5 -91t-108.5 -31q-90 0 -135.5 50t-45.5 148v312h81v-310q0 -68 28 -100t85 -32q67 0 108 43t41 115v284h23q57 0 82 27.5t25 90.5v15zM260 568l-137 204h94l100 -204h-57z
" />
    <glyph glyph-name="uni1EED" unicode="&#x1eed;" horiz-adv-x="591" 
d="M548 636h72v-26q0 -47 -17.5 -81.5t-51 -53t-80.5 -19.5l28 26v-482h-79v109l12 6q-20 -60 -67.5 -91t-108.5 -31q-90 0 -135.5 50t-45.5 148v312h81v-310q0 -68 28 -100t85 -32q67 0 108 43t41 115v284h23q57 0 82 27.5t25 90.5v15zM317 585v-17h-53v28q0 20 9.5 34.5
t22.5 26t22.5 22t9.5 21.5q0 12 -10.5 18.5t-30.5 6.5q-14 0 -28 -2.5t-31 -8.5l-15 44q20 9 40.5 13.5t40.5 4.5q48 0 74 -20.5t26 -49.5q0 -24 -11.5 -39t-27 -26.5t-27 -23.5t-11.5 -32z" />
    <glyph glyph-name="uni1EEF" unicode="&#x1eef;" horiz-adv-x="591" 
d="M548 636h72v-26q0 -47 -17.5 -81.5t-51 -53t-80.5 -19.5l28 26v-482h-79v109l12 6q-20 -60 -67.5 -91t-108.5 -31q-90 0 -135.5 50t-45.5 148v312h81v-310q0 -68 28 -100t85 -32q67 0 108 43t41 115v284h23q57 0 82 27.5t25 90.5v15zM126 615q0 55 25 85t65 30
q28 0 53.5 -14.5t48 -29t41.5 -14.5q23 0 35 16.5t12 38.5h45q0 -55 -25 -85t-65 -30q-28 0 -53.5 14.5t-48 29t-41.5 14.5q-23 0 -35 -17t-12 -38h-45z" />
    <glyph glyph-name="uhungarumlaut" unicode="&#x171;" horiz-adv-x="577" 
d="M256 -7q-90 0 -135.5 50t-45.5 148v312h81v-310q0 -68 28 -100t85 -32q67 0 108 43t41 115v284h81v-503h-79v109l12 6q-20 -60 -67.5 -91t-108.5 -31zM248 568h-41l46 204h75zM370 568h-41l45 204h76z" />
    <glyph glyph-name="uni0217" unicode="&#x217;" horiz-adv-x="577" 
d="M256 -7q-90 0 -135.5 50t-45.5 148v312h81v-310q0 -68 28 -100t85 -32q67 0 108 43t41 115v284h81v-503h-79v109l12 6q-20 -60 -67.5 -91t-108.5 -31zM289 746q34 0 66.5 -13t58.5 -41t41 -73l-51 -22q-24 50 -52.5 69.5t-62.5 19.5t-63 -19.5t-53 -69.5l-51 21
q14 46 40 74t59 41t68 13z" />
    <glyph glyph-name="umacron" unicode="&#x16b;" horiz-adv-x="577" 
d="M256 -7q-90 0 -135.5 50t-45.5 148v312h81v-310q0 -68 28 -100t85 -32q67 0 108 43t41 115v284h81v-503h-79v109l12 6q-20 -60 -67.5 -91t-108.5 -31zM137 639v62h303v-62h-303z" />
    <glyph glyph-name="uni1E7B" unicode="&#x1e7b;" horiz-adv-x="577" 
d="M256 -7q-90 0 -135.5 50t-45.5 148v312h81v-310q0 -68 28 -100t85 -32q67 0 108 43t41 115v284h81v-503h-79v109l12 6q-20 -60 -67.5 -91t-108.5 -31zM137 639v62h303v-62h-303zM330 909h90v-86h-90v86zM157 909h90v-86h-90v86z" />
    <glyph glyph-name="uogonek" unicode="&#x173;" horiz-adv-x="577" 
d="M499 0h-6q-40 0 -66 -22.5t-26 -57.5q0 -31 18 -48.5t50 -17.5q28 0 59 19l17 -49q-18 -11 -40.5 -17t-47.5 -6q-54 0 -87 30.5t-33 78.5t33 82.5t91 46.5l-19 -39h-22v109l12 6q-20 -60 -67.5 -91t-108.5 -31q-90 0 -135.5 50t-45.5 148v312h81v-310q0 -68 28 -100
t85 -32q67 0 108 43t41 115v284h81v-503z" />
    <glyph glyph-name="uring" unicode="&#x16f;" horiz-adv-x="577" 
d="M256 -7q-90 0 -135.5 50t-45.5 148v312h81v-310q0 -68 28 -100t85 -32q67 0 108 43t41 115v284h81v-503h-79v109l12 6q-20 -60 -67.5 -91t-108.5 -31zM289 570q-43 0 -72.5 28.5t-29.5 71.5q0 42 29.5 71t72.5 29q28 0 51 -13.5t36.5 -36t13.5 -50.5q0 -43 -29.5 -71.5
t-71.5 -28.5zM289 619q21 0 34.5 14.5t13.5 36.5q0 21 -13.5 35.5t-34.5 14.5q-22 0 -35.5 -14.5t-13.5 -35.5q0 -22 13.5 -36.5t35.5 -14.5z" />
    <glyph glyph-name="utilde" unicode="&#x169;" horiz-adv-x="577" 
d="M256 -7q-90 0 -135.5 50t-45.5 148v312h81v-310q0 -68 28 -100t85 -32q67 0 108 43t41 115v284h81v-503h-79v109l12 6q-20 -60 -67.5 -91t-108.5 -31zM126 615q0 55 25 85t65 30q28 0 53.5 -14.5t48 -29t41.5 -14.5q23 0 35 16.5t12 38.5h45q0 -55 -25 -85t-65 -30
q-28 0 -53.5 14.5t-48 29t-41.5 14.5q-23 0 -35 -17t-12 -38h-45z" />
    <glyph glyph-name="uni1E79" unicode="&#x1e79;" horiz-adv-x="577" 
d="M256 -7q-90 0 -135.5 50t-45.5 148v312h81v-310q0 -68 28 -100t85 -32q67 0 108 43t41 115v284h81v-503h-79v109l12 6q-20 -60 -67.5 -91t-108.5 -31zM126 615q0 55 25 85t65 30q28 0 53.5 -14.5t48 -29t41.5 -14.5q23 0 35 16.5t12 38.5h45q0 -55 -25 -85t-65 -30
q-28 0 -53.5 14.5t-48 29t-41.5 14.5q-23 0 -35 -17t-12 -38h-45zM317 764h-57l100 204h94z" />
    <glyph glyph-name="v" unicode="v" horiz-adv-x="531" 
d="M226 0l-214 502h85l182 -443h-24l184 443h81l-217 -502h-77z" />
    <glyph glyph-name="w" unicode="w" horiz-adv-x="869" 
d="M213 0l-186 503h85l155 -443h-26l160 443h71l158 -443h-26l158 443h80l-186 -503h-78l-166 453h44l-165 -453h-78z" />
    <glyph glyph-name="wacute" unicode="&#x1e83;" horiz-adv-x="869" 
d="M213 0l-186 503h85l155 -443h-26l160 443h71l158 -443h-26l158 443h80l-186 -503h-78l-166 453h44l-165 -453h-78zM463 568h-57l100 204h94z" />
    <glyph glyph-name="wcircumflex" unicode="&#x175;" horiz-adv-x="869" 
d="M213 0l-186 503h85l155 -443h-26l160 443h71l158 -443h-26l158 443h80l-186 -503h-78l-166 453h44l-165 -453h-78zM362 568h-75l119 204h57l119 -204h-75l-72 144z" />
    <glyph glyph-name="wdieresis" unicode="&#x1e85;" horiz-adv-x="869" 
d="M213 0l-186 503h85l155 -443h-26l160 443h71l158 -443h-26l158 443h80l-186 -503h-78l-166 453h44l-165 -453h-78zM476 713h90v-86h-90v86zM303 713h90v-86h-90v86z" />
    <glyph glyph-name="wgrave" unicode="&#x1e81;" horiz-adv-x="869" 
d="M213 0l-186 503h85l155 -443h-26l160 443h71l158 -443h-26l158 443h80l-186 -503h-78l-166 453h44l-165 -453h-78zM406 568l-137 204h94l100 -204h-57z" />
    <glyph glyph-name="x" unicode="x" horiz-adv-x="535" 
d="M426 0l-159 198l-47 61l-197 244h98l146 -185l49 -59l207 -259h-97zM110 0h-99l209 259l47 59l146 185h99l-196 -244l-49 -61z" />
    <glyph glyph-name="y" unicode="y" horiz-adv-x="531" 
d="M54 -227l-17 63q46 11 77.5 25.5t53 37.5t37.5 61l32 74l18 25l184 444h81l-235 -549q-27 -61 -61 -97.5t-76.5 -55.5t-93.5 -28zM238 -26l-226 529h85l182 -444z" />
    <glyph glyph-name="yacute" unicode="&#xfd;" horiz-adv-x="531" 
d="M54 -227l-17 63q46 11 77.5 25.5t53 37.5t37.5 61l32 74l18 25l184 444h81l-235 -549q-27 -61 -61 -97.5t-76.5 -55.5t-93.5 -28zM238 -26l-226 529h85l182 -444zM294 568h-57l100 204h94z" />
    <glyph glyph-name="ycircumflex" unicode="&#x177;" horiz-adv-x="531" 
d="M54 -227l-17 63q46 11 77.5 25.5t53 37.5t37.5 61l32 74l18 25l184 444h81l-235 -549q-27 -61 -61 -97.5t-76.5 -55.5t-93.5 -28zM238 -26l-226 529h85l182 -444zM193 568h-75l119 204h57l119 -204h-75l-72 144z" />
    <glyph glyph-name="ydieresis" unicode="&#xff;" horiz-adv-x="531" 
d="M54 -227l-17 63q46 11 77.5 25.5t53 37.5t37.5 61l32 74l18 25l184 444h81l-235 -549q-27 -61 -61 -97.5t-76.5 -55.5t-93.5 -28zM238 -26l-226 529h85l182 -444zM307 713h90v-86h-90v86zM134 713h90v-86h-90v86z" />
    <glyph glyph-name="uni1E8F" unicode="&#x1e8f;" horiz-adv-x="531" 
d="M54 -227l-17 63q46 11 77.5 25.5t53 37.5t37.5 61l32 74l18 25l184 444h81l-235 -549q-27 -61 -61 -97.5t-76.5 -55.5t-93.5 -28zM238 -26l-226 529h85l182 -444zM216 716h99v-92h-99v92z" />
    <glyph glyph-name="uni1EF5" unicode="&#x1ef5;" horiz-adv-x="531" 
d="M54 -227l-17 63q46 11 77.5 25.5t53 37.5t37.5 61l32 74l18 25l184 444h81l-235 -549q-27 -61 -61 -97.5t-76.5 -55.5t-93.5 -28zM238 -26l-226 529h85l182 -444zM354 -95h93v-89h-93v89z" />
    <glyph glyph-name="ygrave" unicode="&#x1ef3;" horiz-adv-x="531" 
d="M54 -227l-17 63q46 11 77.5 25.5t53 37.5t37.5 61l32 74l18 25l184 444h81l-235 -549q-27 -61 -61 -97.5t-76.5 -55.5t-93.5 -28zM238 -26l-226 529h85l182 -444zM237 568l-137 204h94l100 -204h-57z" />
    <glyph glyph-name="uni1EF7" unicode="&#x1ef7;" horiz-adv-x="531" 
d="M54 -227l-17 63q46 11 77.5 25.5t53 37.5t37.5 61l32 74l18 25l184 444h81l-235 -549q-27 -61 -61 -97.5t-76.5 -55.5t-93.5 -28zM238 -26l-226 529h85l182 -444zM294 585v-17h-53v28q0 20 9.5 34.5t22.5 26t22.5 22t9.5 21.5q0 12 -10.5 18.5t-30.5 6.5q-14 0 -28 -2.5
t-31 -8.5l-15 44q20 9 40.5 13.5t40.5 4.5q48 0 74 -20.5t26 -49.5q0 -24 -11.5 -39t-27 -26.5t-27 -23.5t-11.5 -32z" />
    <glyph glyph-name="uni0233" unicode="&#x233;" horiz-adv-x="531" 
d="M54 -227l-17 63q46 11 77.5 25.5t53 37.5t37.5 61l32 74l18 25l184 444h81l-235 -549q-27 -61 -61 -97.5t-76.5 -55.5t-93.5 -28zM238 -26l-226 529h85l182 -444zM114 639v62h303v-62h-303z" />
    <glyph glyph-name="uni1EF9" unicode="&#x1ef9;" horiz-adv-x="531" 
d="M54 -227l-17 63q46 11 77.5 25.5t53 37.5t37.5 61l32 74l18 25l184 444h81l-235 -549q-27 -61 -61 -97.5t-76.5 -55.5t-93.5 -28zM238 -26l-226 529h85l182 -444zM103 615q0 55 25 85t65 30q28 0 53.5 -14.5t48 -29t41.5 -14.5q23 0 35 16.5t12 38.5h45q0 -55 -25 -85
t-65 -30q-28 0 -53.5 14.5t-48 29t-41.5 14.5q-23 0 -35 -17t-12 -38h-45z" />
    <glyph glyph-name="z" unicode="z" horiz-adv-x="518" 
d="M50 0v56l344 416l13 -33h-346v64h403v-59l-342 -414l-11 34h364v-64h-425z" />
    <glyph glyph-name="zacute" unicode="&#x17a;" horiz-adv-x="518" 
d="M50 0v56l344 416l13 -33h-346v64h403v-59l-342 -414l-11 34h364v-64h-425zM292 568h-57l100 204h94z" />
    <glyph glyph-name="zcaron" unicode="&#x17e;" horiz-adv-x="518" 
d="M50 0v56l344 416l13 -33h-346v64h403v-59l-342 -414l-11 34h364v-64h-425zM336 772h75l-119 -204h-57l-119 204h75l73 -145z" />
    <glyph glyph-name="zdotaccent" unicode="&#x17c;" horiz-adv-x="518" 
d="M50 0v56l344 416l13 -33h-346v64h403v-59l-342 -414l-11 34h364v-64h-425zM214 716h99v-92h-99v92z" />
    <glyph glyph-name="uni1E93" unicode="&#x1e93;" horiz-adv-x="518" 
d="M50 0v56l344 416l13 -33h-346v64h403v-59l-342 -414l-11 34h364v-64h-425zM211 -95h93v-89h-93v89z" />
    <glyph glyph-name="iacute_j.loclNLD" horiz-adv-x="476" 
d="M78 0v503h81v-503h-81zM148 568h-57l100 204h94zM183 -142q15 -4 26.5 -6t22.5 -2q23 0 42.5 8.5t30.5 30t11 61.5v553h81v-563q0 -81 -40 -120.5t-108 -39.5q-16 0 -33 2t-33 7v69zM385 568h-57l100 204h94z" />
    <glyph glyph-name="I_J.loclNLD" horiz-adv-x="587" 
d="M88 0v712h82v-712h-82zM253 -178v71q62 -11 98 -5.5t51 35t15 88.5v701h82v-702q0 -83 -24 -129.5t-78 -60t-144 1.5z" />
    <glyph glyph-name="i_j.loclNLD" horiz-adv-x="476" 
d="M78 0v503h81v-503h-81zM70 716h99v-92h-99v92zM183 -142q15 -4 26.5 -6t22.5 -2q23 0 42.5 8.5t30.5 30t11 61.5v553h81v-563q0 -81 -40 -120.5t-108 -39.5q-16 0 -33 2t-33 7v69zM307 716h99v-92h-99v92z" />
    <glyph glyph-name="ordfeminine" unicode="&#xaa;" horiz-adv-x="333" 
d="M134 411q-30 0 -53.5 12.5t-37 33t-13.5 44.5q0 48 38.5 67.5t136.5 19.5h25v-38h-19q-48 0 -72 -5t-32 -14.5t-8 -24.5q0 -18 14 -31t37 -13q30 0 50.5 19.5t20.5 53.5v70q0 31 -14 44t-43 13q-27 0 -52.5 -8t-46.5 -22l-20 52q24 14 56.5 23.5t67.5 9.5q58 0 90 -28.5
t32 -94.5v-178h-69v70l6 -8q-10 -32 -35 -49.5t-59 -17.5z" />
    <glyph glyph-name="ordmasculine" unicode="&#xba;" horiz-adv-x="345" 
d="M172 411q-47 0 -80.5 19.5t-51.5 54.5t-18 80t18 79t51.5 53.5t80.5 19.5q48 0 81.5 -19.5t51.5 -53.5t18 -79t-18 -80t-51.5 -54.5t-81.5 -19.5zM172 469q39 0 59 25t20 71q0 45 -20 70t-59 25q-38 0 -57.5 -25t-19.5 -70q0 -46 19.5 -71t57.5 -25z" />
    <glyph glyph-name="Delta" unicode="&#x394;" horiz-adv-x="728" 
d="M32 0v50l298 662h69l298 -662v-50h-665zM105 27l-27 43h573l-27 -43l-274 621h30z" />
    <glyph glyph-name="Sigma" unicode="&#x3a3;" horiz-adv-x="588" 
d="M545 -112v-70h-504v61l295 423v-74l-295 424v60h504v-69h-435v42l273 -391v-57l-273 -392v43h435z" />
    <glyph glyph-name="Omega" unicode="&#x3a9;" horiz-adv-x="787" 
d="M393 721q104 0 179.5 -38t116.5 -107t41 -162q0 -101 -52 -191.5t-161 -179.5l4 26h202v-69h-263v66q91 83 138 171.5t47 174.5q0 113 -66.5 175.5t-185.5 62.5t-185.5 -62.5t-66.5 -175.5q0 -87 47.5 -174.5t138.5 -171.5v-66h-263v69h202l4 -26q-110 89 -162 179.5
t-52 191.5q0 93 41.5 162t117 107t178.5 38z" />
    <glyph glyph-name="mu" unicode="&#x3bc;" horiz-adv-x="577" 
d="M499 503v-503h-79v109l12 6q-20 -60 -67.5 -91t-108.5 -31q-42 0 -71.5 12t-50.5 36l22 30v-287h-81v719h81v-310q0 -68 28 -100t85 -32q67 0 108 43t41 115v284h81z" />
    <glyph glyph-name="pi" unicode="&#x3c0;" horiz-adv-x="593" 
d="M119 0h-86q25 70 41.5 146.5t25 159.5t8.5 173h81q0 -93 -7 -175.5t-22 -158t-41 -145.5zM5 439v64h550v-64h-550zM351 470h81v-293q0 -55 27.5 -83.5t82.5 -32.5l47 -3l-7 -65l-46 3q-63 4 -104 26t-61 62.5t-20 101.5v284z" />
    <glyph glyph-name="zero" unicode="0" 
d="M300 -8q-122 0 -185.5 92.5t-63.5 271.5t63 271.5t186 92.5t186 -92.5t63 -270.5q0 -179 -63.5 -272t-185.5 -93zM300 61q85 0 125.5 72t40.5 224t-40.5 222.5t-125.5 70.5t-125.5 -71t-40.5 -222q0 -152 40.5 -224t125.5 -72z" />
    <glyph glyph-name="one" unicode="1" 
d="M285 37v627l47 -24l-193 -123v79l182 116h47v-675h-83zM128 0v69h397v-69h-397z" />
    <glyph glyph-name="two" unicode="2" 
d="M83 0v62l249 276q50 56 73 101t23 90q0 59 -34 90.5t-97 31.5q-52 0 -102 -20.5t-100 -61.5l-31 63q42 40 106 64t129 24t112.5 -22.5t73.5 -64.5t26 -100q0 -61 -27.5 -117.5t-91.5 -126.5l-240 -260l-6 40h395v-69h-458z" />
    <glyph glyph-name="three" unicode="3" 
d="M293 -7q-69 0 -132.5 23t-107.5 65l32 63q48 -41 99 -61.5t107 -20.5q76 0 115.5 34t39.5 100t-41 98.5t-123 32.5h-82v69h66q79 0 121 35t42 100q0 58 -34.5 89t-97.5 31q-53 0 -103 -20.5t-99 -61.5l-31 63q43 41 106 64.5t130 23.5q64 0 112 -22.5t73.5 -63.5
t25.5 -97q0 -66 -34.5 -112.5t-94.5 -63.5l-3 10q72 -15 110 -61t38 -117q0 -93 -63 -146.5t-171 -53.5z" />
    <glyph glyph-name="four" unicode="4" 
d="M377 0v609h25l-296 -427l1 41h460v-68h-518v62l343 495h67v-712h-82z" />
    <glyph glyph-name="five" unicode="5" 
d="M311 -7q-65 0 -128 23.5t-106 64.5l31 63q49 -40 99.5 -61t103.5 -21q75 0 117.5 42.5t42.5 115.5q0 47 -19 82.5t-53.5 55.5t-81.5 20q-51 0 -91.5 -20.5t-71.5 -62.5h-57v417h427v-68h-345v-288l-26 3q29 42 74.5 65t102.5 23q68 0 118 -28.5t77 -79.5t27 -118
t-29.5 -118.5t-83.5 -80.5t-128 -29z" />
    <glyph glyph-name="six" unicode="6" 
d="M323 -8q-129 0 -199 89.5t-70 256.5q0 121 32.5 206.5t94 130.5t147.5 45q62 0 120 -22.5t103 -65.5l-31 -63q-50 43 -96.5 62.5t-93.5 19.5q-92 0 -143 -81.5t-51 -230.5v-86l-12 27q8 51 37 88.5t72.5 58t96.5 20.5q66 0 116 -28.5t78 -79.5t28 -118q0 -66 -29.5 -118
t-81 -81.5t-118.5 -29.5zM319 61q68 0 110 43.5t42 115.5q0 71 -42 114.5t-111 43.5q-46 0 -82 -20.5t-56 -56t-20 -81.5q0 -48 20 -83.5t56 -55.5t83 -20z" />
    <glyph glyph-name="seven" unicode="7" 
d="M201 0h-88l349 676l7 -33h-404v69h470v-61z" />
    <glyph glyph-name="eight" unicode="8" 
d="M300 -7q-78 0 -135 23.5t-88.5 67.5t-31.5 105q0 74 50 123t134 61l-5 -15q-78 15 -120.5 61t-42.5 112q0 58 30.5 100.5t84 65.5t124.5 23t124.5 -23t84 -65.5t30.5 -100.5q0 -66 -42.5 -112.5t-119.5 -60.5l-6 15q87 -12 135.5 -61.5t48.5 -122.5q0 -61 -31.5 -105
t-88.5 -67.5t-135 -23.5zM300 61q84 0 129 34t45 99q0 61 -49 95.5t-125 42.5q-76 -8 -125 -42.5t-49 -95.5q0 -65 45 -99t129 -34zM300 389q70 8 113.5 43t43.5 93q0 60 -41.5 93.5t-115.5 33.5t-115.5 -33.5t-41.5 -93.5q0 -58 43.5 -93t113.5 -43z" />
    <glyph glyph-name="nine" unicode="9" 
d="M278 720q129 0 199 -89.5t70 -256.5q0 -121 -32.5 -206.5t-94 -130.5t-148.5 -45q-61 0 -119.5 22.5t-103.5 65.5l32 63q51 -43 97 -62.5t93 -19.5q92 0 142.5 81.5t50.5 230.5v86l13 -26q-8 -52 -37 -89.5t-73 -58t-97 -20.5q-65 0 -115 28.5t-78 79.5t-28 118
q0 66 29.5 118t81.5 81.5t118 29.5zM282 651q-69 0 -110.5 -43.5t-41.5 -115.5q0 -71 42 -114.5t111 -43.5q46 0 82 20.5t56 56t20 81.5q0 48 -20 83.5t-56 55.5t-83 20z" />
    <glyph glyph-name="uni2080" unicode="&#x2080;" horiz-adv-x="380" 
d="M190 -4q-73 0 -115.5 54t-42.5 164q0 111 42.5 164t115.5 53t115 -53t42 -164q0 -110 -42 -164t-115 -54zM190 54q42 0 62.5 38t20.5 122q0 83 -20.5 121t-62.5 38t-62.5 -38t-20.5 -121q0 -84 20.5 -122t62.5 -38z" />
    <glyph glyph-name="uni2081" unicode="&#x2081;" horiz-adv-x="380" 
d="M180 34v338l32 -8l-104 -64v74l89 53h55v-393h-72zM103 0v60h225v-60h-225z" />
    <glyph glyph-name="uni2082" unicode="&#x2082;" horiz-adv-x="380" 
d="M52 0v54l144 159q25 27 38.5 51t13.5 48q0 30 -18 45t-49 15q-27 0 -58.5 -12t-59.5 -34l-26 54q28 21 68.5 36t82.5 15q63 0 98.5 -32t35.5 -83q0 -36 -17 -70t-57 -75l-130 -136l-5 25h224v-60h-285z" />
    <glyph glyph-name="uni2083" unicode="&#x2083;" horiz-adv-x="380" 
d="M184 -4q-43 0 -84 15t-68 37l25 53q29 -21 60.5 -33.5t62.5 -12.5q37 0 59 16t22 50q0 35 -22.5 50.5t-62.5 15.5h-57v58h46q40 0 62 17t22 50q0 30 -18 45t-49 15q-29 0 -60 -12t-59 -34l-26 54q28 21 68.5 36t80.5 15q66 0 100.5 -32.5t34.5 -80.5q0 -39 -22 -65.5
t-54 -35.5l-1 5q40 -9 63.5 -35.5t23.5 -69.5q0 -37 -18 -64t-51 -42t-78 -15z" />
    <glyph glyph-name="uni2084" unicode="&#x2084;" horiz-adv-x="380" 
d="M226 0v343l17 1l-160 -228l-1 25h277v-57h-327v53l204 290h60v-427h-70z" />
    <glyph glyph-name="uni2085" unicode="&#x2085;" horiz-adv-x="380" 
d="M192 -4q-40 0 -80 14.5t-67 37.5l25 53q58 -45 117 -45q40 0 63.5 20.5t23.5 58.5q0 36 -23 57t-59 21q-27 0 -50 -10t-41 -27h-43v251h266v-59h-197v-143l-18 4q18 20 43 31.5t57 11.5q58 0 96.5 -36.5t38.5 -98.5q0 -64 -43.5 -102.5t-108.5 -38.5z" />
    <glyph glyph-name="uni2086" unicode="&#x2086;" horiz-adv-x="380" 
d="M203 -4q-49 0 -86.5 22.5t-59 68.5t-21.5 117q0 79 23.5 129t63.5 74t89 24q37 0 74 -14.5t65 -36.5l-25 -54q-28 22 -56.5 34t-56.5 12q-30 0 -54 -16.5t-37.5 -53t-13.5 -95.5v-40l-11 20q10 38 42.5 61t75.5 23q38 0 68 -16.5t47.5 -46.5t17.5 -72q0 -65 -42 -102.5
t-103 -37.5zM201 52q36 0 57.5 22.5t21.5 59.5t-21.5 59t-57.5 22t-58.5 -22t-22.5 -59t22.5 -59.5t58.5 -22.5z" />
    <glyph glyph-name="uni2087" unicode="&#x2087;" horiz-adv-x="380" 
d="M149 0h-80l202 392l1 -26h-229v61h294v-57z" />
    <glyph glyph-name="uni2088" unicode="&#x2088;" horiz-adv-x="380" 
d="M190 -4q-76 0 -118.5 32t-42.5 87q0 44 30.5 73.5t78.5 35.5l-2 -10q-44 8 -70.5 37t-26.5 67q0 52 40.5 82.5t110.5 30.5t110 -30.5t40 -82.5q0 -39 -26.5 -68t-69.5 -35l-2 9q47 -7 77.5 -36.5t30.5 -72.5q0 -55 -42.5 -87t-117.5 -32zM190 51q46 0 68.5 18.5
t22.5 50.5q0 60 -91 74q-47 -7 -69 -25t-22 -49q0 -32 22.5 -50.5t68.5 -18.5zM190 238q40 8 60.5 26t20.5 46q0 31 -20.5 48.5t-60.5 17.5t-60.5 -17.5t-20.5 -48.5q0 -28 21 -46t60 -26z" />
    <glyph glyph-name="uni2089" unicode="&#x2089;" horiz-adv-x="380" 
d="M177 431q49 0 86.5 -22t58.5 -68t21 -118q0 -79 -23.5 -129t-63 -74t-88.5 -24q-37 0 -74.5 14.5t-65.5 37.5l26 53q28 -22 56.5 -34t56.5 -12q30 0 53.5 16.5t37.5 53t14 95.5v40l11 -19q-10 -39 -43 -61.5t-75 -22.5q-38 0 -68 16t-47.5 46t-17.5 72q0 65 42 102.5
t103 37.5zM179 375q-36 0 -57.5 -22.5t-21.5 -59.5t21.5 -59t57.5 -22q35 0 58 22t23 59t-22.5 59.5t-58.5 22.5z" />
    <glyph glyph-name="zero.dnom" horiz-adv-x="380" 
d="M190 -4q-73 0 -115.5 54t-42.5 164q0 111 42.5 164t115.5 53t115 -53t42 -164q0 -110 -42 -164t-115 -54zM190 54q42 0 62.5 38t20.5 122q0 83 -20.5 121t-62.5 38t-62.5 -38t-20.5 -121q0 -84 20.5 -122t62.5 -38z" />
    <glyph glyph-name="one.dnom" horiz-adv-x="380" 
d="M180 34v338l32 -8l-104 -64v74l89 53h55v-393h-72zM103 0v60h225v-60h-225z" />
    <glyph glyph-name="two.dnom" horiz-adv-x="380" 
d="M52 0v54l144 159q25 27 38.5 51t13.5 48q0 30 -18 45t-49 15q-27 0 -58.5 -12t-59.5 -34l-26 54q28 21 68.5 36t82.5 15q63 0 98.5 -32t35.5 -83q0 -36 -17 -70t-57 -75l-130 -136l-5 25h224v-60h-285z" />
    <glyph glyph-name="three.dnom" horiz-adv-x="380" 
d="M184 -4q-43 0 -84 15t-68 37l25 53q29 -21 60.5 -33.5t62.5 -12.5q37 0 59 16t22 50q0 35 -22.5 50.5t-62.5 15.5h-57v58h46q40 0 62 17t22 50q0 30 -18 45t-49 15q-29 0 -60 -12t-59 -34l-26 54q28 21 68.5 36t80.5 15q66 0 100.5 -32.5t34.5 -80.5q0 -39 -22 -65.5
t-54 -35.5l-1 5q40 -9 63.5 -35.5t23.5 -69.5q0 -37 -18 -64t-51 -42t-78 -15z" />
    <glyph glyph-name="four.dnom" horiz-adv-x="380" 
d="M226 0v343l17 1l-160 -228l-1 25h277v-57h-327v53l204 290h60v-427h-70z" />
    <glyph glyph-name="five.dnom" horiz-adv-x="380" 
d="M192 -4q-40 0 -80 14.5t-67 37.5l25 53q58 -45 117 -45q40 0 63.5 20.5t23.5 58.5q0 36 -23 57t-59 21q-27 0 -50 -10t-41 -27h-43v251h266v-59h-197v-143l-18 4q18 20 43 31.5t57 11.5q58 0 96.5 -36.5t38.5 -98.5q0 -64 -43.5 -102.5t-108.5 -38.5z" />
    <glyph glyph-name="six.dnom" horiz-adv-x="380" 
d="M203 -4q-49 0 -86.5 22.5t-59 68.5t-21.5 117q0 79 23.5 129t63.5 74t89 24q37 0 74 -14.5t65 -36.5l-25 -54q-28 22 -56.5 34t-56.5 12q-30 0 -54 -16.5t-37.5 -53t-13.5 -95.5v-40l-11 20q10 38 42.5 61t75.5 23q38 0 68 -16.5t47.5 -46.5t17.5 -72q0 -65 -42 -102.5
t-103 -37.5zM201 52q36 0 57.5 22.5t21.5 59.5t-21.5 59t-57.5 22t-58.5 -22t-22.5 -59t22.5 -59.5t58.5 -22.5z" />
    <glyph glyph-name="seven.dnom" horiz-adv-x="380" 
d="M149 0h-80l202 392l1 -26h-229v61h294v-57z" />
    <glyph glyph-name="eight.dnom" horiz-adv-x="380" 
d="M190 -4q-76 0 -118.5 32t-42.5 87q0 44 30.5 73.5t78.5 35.5l-2 -10q-44 8 -70.5 37t-26.5 67q0 52 40.5 82.5t110.5 30.5t110 -30.5t40 -82.5q0 -39 -26.5 -68t-69.5 -35l-2 9q47 -7 77.5 -36.5t30.5 -72.5q0 -55 -42.5 -87t-117.5 -32zM190 51q46 0 68.5 18.5
t22.5 50.5q0 60 -91 74q-47 -7 -69 -25t-22 -49q0 -32 22.5 -50.5t68.5 -18.5zM190 238q40 8 60.5 26t20.5 46q0 31 -20.5 48.5t-60.5 17.5t-60.5 -17.5t-20.5 -48.5q0 -28 21 -46t60 -26z" />
    <glyph glyph-name="nine.dnom" horiz-adv-x="380" 
d="M177 431q49 0 86.5 -22t58.5 -68t21 -118q0 -79 -23.5 -129t-63 -74t-88.5 -24q-37 0 -74.5 14.5t-65.5 37.5l26 53q28 -22 56.5 -34t56.5 -12q30 0 53.5 16.5t37.5 53t14 95.5v40l11 -19q-10 -39 -43 -61.5t-75 -22.5q-38 0 -68 16t-47.5 46t-17.5 72q0 65 42 102.5
t103 37.5zM179 375q-36 0 -57.5 -22.5t-21.5 -59.5t21.5 -59t57.5 -22q35 0 58 22t23 59t-22.5 59.5t-58.5 22.5z" />
    <glyph glyph-name="zero.numr" horiz-adv-x="380" 
d="M190 281q-73 0 -115.5 54t-42.5 164q0 111 42.5 164t115.5 53t115 -53t42 -164q0 -110 -42 -164t-115 -54zM190 339q42 0 62.5 38t20.5 122q0 83 -20.5 121t-62.5 38t-62.5 -38t-20.5 -121q0 -84 20.5 -122t62.5 -38z" />
    <glyph glyph-name="one.numr" horiz-adv-x="380" 
d="M180 319v338l32 -8l-104 -64v74l89 53h55v-393h-72zM103 285v60h225v-60h-225z" />
    <glyph glyph-name="two.numr" horiz-adv-x="380" 
d="M52 285v54l144 159q25 27 38.5 51t13.5 48q0 30 -18 45t-49 15q-27 0 -58.5 -12t-59.5 -34l-26 54q28 21 68.5 36t82.5 15q63 0 98.5 -32t35.5 -83q0 -36 -17 -70t-57 -75l-130 -136l-5 25h224v-60h-285z" />
    <glyph glyph-name="three.numr" horiz-adv-x="380" 
d="M184 281q-43 0 -84 15t-68 37l25 53q29 -21 60.5 -33.5t62.5 -12.5q37 0 59 16t22 50q0 35 -22.5 50.5t-62.5 15.5h-57v58h46q40 0 62 17t22 50q0 30 -18 45t-49 15q-29 0 -60 -12t-59 -34l-26 54q28 21 68.5 36t80.5 15q66 0 100.5 -32.5t34.5 -80.5q0 -39 -22 -65.5
t-54 -35.5l-1 5q40 -9 63.5 -35.5t23.5 -69.5q0 -37 -18 -64t-51 -42t-78 -15z" />
    <glyph glyph-name="four.numr" horiz-adv-x="380" 
d="M226 285v343l17 1l-160 -228l-1 25h277v-57h-327v53l204 290h60v-427h-70z" />
    <glyph glyph-name="five.numr" horiz-adv-x="380" 
d="M192 281q-40 0 -80 14.5t-67 37.5l25 53q58 -45 117 -45q40 0 63.5 20.5t23.5 58.5q0 36 -23 57t-59 21q-27 0 -50 -10t-41 -27h-43v251h266v-59h-197v-143l-18 4q18 20 43 31.5t57 11.5q58 0 96.5 -36.5t38.5 -98.5q0 -64 -43.5 -102.5t-108.5 -38.5z" />
    <glyph glyph-name="six.numr" horiz-adv-x="380" 
d="M203 281q-49 0 -86.5 22.5t-59 68.5t-21.5 117q0 79 23.5 129t63.5 74t89 24q37 0 74 -14.5t65 -36.5l-25 -54q-28 22 -56.5 34t-56.5 12q-30 0 -54 -16.5t-37.5 -53t-13.5 -95.5v-40l-11 20q10 38 42.5 61t75.5 23q38 0 68 -16.5t47.5 -46.5t17.5 -72q0 -65 -42 -102.5
t-103 -37.5zM201 337q36 0 57.5 22.5t21.5 59.5t-21.5 59t-57.5 22t-58.5 -22t-22.5 -59t22.5 -59.5t58.5 -22.5z" />
    <glyph glyph-name="seven.numr" horiz-adv-x="380" 
d="M149 285h-80l202 392l1 -26h-229v61h294v-57z" />
    <glyph glyph-name="eight.numr" horiz-adv-x="380" 
d="M190 281q-76 0 -118.5 32t-42.5 87q0 44 30.5 73.5t78.5 35.5l-2 -10q-44 8 -70.5 37t-26.5 67q0 52 40.5 82.5t110.5 30.5t110 -30.5t40 -82.5q0 -39 -26.5 -68t-69.5 -35l-2 9q47 -7 77.5 -36.5t30.5 -72.5q0 -55 -42.5 -87t-117.5 -32zM190 336q46 0 68.5 18.5
t22.5 50.5q0 60 -91 74q-47 -7 -69 -25t-22 -49q0 -32 22.5 -50.5t68.5 -18.5zM190 523q40 8 60.5 26t20.5 46q0 31 -20.5 48.5t-60.5 17.5t-60.5 -17.5t-20.5 -48.5q0 -28 21 -46t60 -26z" />
    <glyph glyph-name="nine.numr" horiz-adv-x="380" 
d="M177 716q49 0 86.5 -22t58.5 -68t21 -118q0 -79 -23.5 -129t-63 -74t-88.5 -24q-37 0 -74.5 14.5t-65.5 37.5l26 53q28 -22 56.5 -34t56.5 -12q30 0 53.5 16.5t37.5 53t14 95.5v40l11 -19q-10 -39 -43 -61.5t-75 -22.5q-38 0 -68 16t-47.5 46t-17.5 72q0 65 42 102.5
t103 37.5zM179 660q-36 0 -57.5 -22.5t-21.5 -59.5t21.5 -59t57.5 -22q35 0 58 22t23 59t-22.5 59.5t-58.5 22.5z" />
    <glyph glyph-name="uni2070" unicode="&#x2070;" horiz-adv-x="380" 
d="M190 281q-73 0 -115.5 54t-42.5 164q0 111 42.5 164t115.5 53t115 -53t42 -164q0 -110 -42 -164t-115 -54zM190 339q42 0 62.5 38t20.5 122q0 83 -20.5 121t-62.5 38t-62.5 -38t-20.5 -121q0 -84 20.5 -122t62.5 -38z" />
    <glyph glyph-name="uni00B9" unicode="&#xb9;" horiz-adv-x="380" 
d="M180 319v338l32 -8l-104 -64v74l89 53h55v-393h-72zM103 285v60h225v-60h-225z" />
    <glyph glyph-name="uni00B2" unicode="&#xb2;" horiz-adv-x="380" 
d="M52 285v54l144 159q25 27 38.5 51t13.5 48q0 30 -18 45t-49 15q-27 0 -58.5 -12t-59.5 -34l-26 54q28 21 68.5 36t82.5 15q63 0 98.5 -32t35.5 -83q0 -36 -17 -70t-57 -75l-130 -136l-5 25h224v-60h-285z" />
    <glyph glyph-name="uni00B3" unicode="&#xb3;" horiz-adv-x="380" 
d="M184 281q-43 0 -84 15t-68 37l25 53q29 -21 60.5 -33.5t62.5 -12.5q37 0 59 16t22 50q0 35 -22.5 50.5t-62.5 15.5h-57v58h46q40 0 62 17t22 50q0 30 -18 45t-49 15q-29 0 -60 -12t-59 -34l-26 54q28 21 68.5 36t80.5 15q66 0 100.5 -32.5t34.5 -80.5q0 -39 -22 -65.5
t-54 -35.5l-1 5q40 -9 63.5 -35.5t23.5 -69.5q0 -37 -18 -64t-51 -42t-78 -15z" />
    <glyph glyph-name="uni2074" unicode="&#x2074;" horiz-adv-x="380" 
d="M226 285v343l17 1l-160 -228l-1 25h277v-57h-327v53l204 290h60v-427h-70z" />
    <glyph glyph-name="uni2075" unicode="&#x2075;" horiz-adv-x="380" 
d="M192 281q-40 0 -80 14.5t-67 37.5l25 53q58 -45 117 -45q40 0 63.5 20.5t23.5 58.5q0 36 -23 57t-59 21q-27 0 -50 -10t-41 -27h-43v251h266v-59h-197v-143l-18 4q18 20 43 31.5t57 11.5q58 0 96.5 -36.5t38.5 -98.5q0 -64 -43.5 -102.5t-108.5 -38.5z" />
    <glyph glyph-name="uni2076" unicode="&#x2076;" horiz-adv-x="380" 
d="M203 281q-49 0 -86.5 22.5t-59 68.5t-21.5 117q0 79 23.5 129t63.5 74t89 24q37 0 74 -14.5t65 -36.5l-25 -54q-28 22 -56.5 34t-56.5 12q-30 0 -54 -16.5t-37.5 -53t-13.5 -95.5v-40l-11 20q10 38 42.5 61t75.5 23q38 0 68 -16.5t47.5 -46.5t17.5 -72q0 -65 -42 -102.5
t-103 -37.5zM201 337q36 0 57.5 22.5t21.5 59.5t-21.5 59t-57.5 22t-58.5 -22t-22.5 -59t22.5 -59.5t58.5 -22.5z" />
    <glyph glyph-name="uni2077" unicode="&#x2077;" horiz-adv-x="380" 
d="M149 285h-80l202 392l1 -26h-229v61h294v-57z" />
    <glyph glyph-name="uni2078" unicode="&#x2078;" horiz-adv-x="380" 
d="M190 281q-76 0 -118.5 32t-42.5 87q0 44 30.5 73.5t78.5 35.5l-2 -10q-44 8 -70.5 37t-26.5 67q0 52 40.5 82.5t110.5 30.5t110 -30.5t40 -82.5q0 -39 -26.5 -68t-69.5 -35l-2 9q47 -7 77.5 -36.5t30.5 -72.5q0 -55 -42.5 -87t-117.5 -32zM190 336q46 0 68.5 18.5
t22.5 50.5q0 60 -91 74q-47 -7 -69 -25t-22 -49q0 -32 22.5 -50.5t68.5 -18.5zM190 523q40 8 60.5 26t20.5 46q0 31 -20.5 48.5t-60.5 17.5t-60.5 -17.5t-20.5 -48.5q0 -28 21 -46t60 -26z" />
    <glyph glyph-name="uni2079" unicode="&#x2079;" horiz-adv-x="380" 
d="M177 716q49 0 86.5 -22t58.5 -68t21 -118q0 -79 -23.5 -129t-63 -74t-88.5 -24q-37 0 -74.5 14.5t-65.5 37.5l26 53q28 -22 56.5 -34t56.5 -12q30 0 53.5 16.5t37.5 53t14 95.5v40l11 -19q-10 -39 -43 -61.5t-75 -22.5q-38 0 -68 16t-47.5 46t-17.5 72q0 65 42 102.5
t103 37.5zM179 660q-36 0 -57.5 -22.5t-21.5 -59.5t21.5 -59t57.5 -22q35 0 58 22t23 59t-22.5 59.5t-58.5 22.5z" />
    <glyph glyph-name="fraction" unicode="&#x2044;" horiz-adv-x="175" 
d="M-93 -25l-60 34l422 728l59 -34z" />
    <glyph glyph-name="onehalf" unicode="&#xbd;" horiz-adv-x="935" 
d="M180 319v338l32 -8l-104 -64v74l89 53h55v-393h-72zM103 285v60h225v-60h-225zM287 -25l-60 34l422 728l59 -34zM607 0v54l144 159q25 27 38.5 51t13.5 48q0 30 -18 45t-49 15q-27 0 -58.5 -12t-59.5 -34l-26 54q28 21 68.5 36t82.5 15q63 0 98.5 -32t35.5 -83
q0 -36 -17 -70t-57 -75l-130 -136l-5 25h224v-60h-285z" />
    <glyph glyph-name="onequarter" unicode="&#xbc;" horiz-adv-x="935" 
d="M180 319v338l32 -8l-104 -64v74l89 53h55v-393h-72zM103 285v60h225v-60h-225zM287 -25l-60 34l422 728l59 -34zM781 0v343l17 1l-160 -228l-1 25h277v-57h-327v53l204 290h60v-427h-70z" />
    <glyph glyph-name="threequarters" unicode="&#xbe;" horiz-adv-x="935" 
d="M184 281q-43 0 -84 15t-68 37l25 53q29 -21 60.5 -33.5t62.5 -12.5q37 0 59 16t22 50q0 35 -22.5 50.5t-62.5 15.5h-57v58h46q40 0 62 17t22 50q0 30 -18 45t-49 15q-29 0 -60 -12t-59 -34l-26 54q28 21 68.5 36t80.5 15q66 0 100.5 -32.5t34.5 -80.5q0 -39 -22 -65.5
t-54 -35.5l-1 5q40 -9 63.5 -35.5t23.5 -69.5q0 -37 -18 -64t-51 -42t-78 -15zM287 -25l-60 34l422 728l59 -34zM781 0v343l17 1l-160 -228l-1 25h277v-57h-327v53l204 290h60v-427h-70z" />
    <glyph glyph-name="period" unicode="." horiz-adv-x="231" 
d="M64 103h103v-103h-103v103z" />
    <glyph glyph-name="comma" unicode="," horiz-adv-x="231" 
d="M106 -115l-38 29q27 29 36 53t9 49l24 -16h-73v103h103v-73q0 -40 -13.5 -75.5t-47.5 -69.5z" />
    <glyph glyph-name="colon" unicode=":" horiz-adv-x="231" 
d="M64 103h103v-103h-103v103zM64 492h103v-104h-103v104z" />
    <glyph glyph-name="semicolon" unicode=";" horiz-adv-x="231" 
d="M64 492h103v-104h-103v104zM106 -115l-38 29q27 29 36 53t9 49l24 -16h-73v103h103v-73q0 -40 -13.5 -75.5t-47.5 -69.5z" />
    <glyph glyph-name="ellipsis" unicode="&#x2026;" horiz-adv-x="694" 
d="M64 103h103v-103h-103v103zM295 103h103v-103h-103v103zM526 103h103v-103h-103v103z" />
    <glyph glyph-name="exclam" unicode="!" horiz-adv-x="231" 
d="M90 187l-25 525h101l-26 -525h-50zM64 103h103v-103h-103v103z" />
    <glyph glyph-name="exclamdown" unicode="&#xa1;" horiz-adv-x="231" 
d="M90 304h50l26 -486h-101zM64 388v104h103v-104h-103z" />
    <glyph glyph-name="question" unicode="?" horiz-adv-x="447" 
d="M88 683q33 19 70.5 28t71.5 9q58 0 101.5 -20t67.5 -55t24 -83q0 -46 -17.5 -82t-44 -66.5l-54 -61.5t-47.5 -66.5t-24 -81.5l-3 -18h-48v25q0 52 15.5 91t38.5 70l46 59.5t38.5 58.5t15.5 67q0 43 -30 68t-83 25q-33 0 -68.5 -10.5t-69.5 -31.5v75zM158 0v103h103v-103
h-103z" />
    <glyph glyph-name="questiondown" unicode="&#xbf;" horiz-adv-x="447" 
d="M217 -189q-55 0 -99 19t-69 54t-25 83q0 45 17.5 77t44 57.5l54 51.5t47.5 58t24 77l3 18h49v-25q0 -51 -15.5 -86t-39 -61.5t-46.5 -49.5t-38.5 -49.5t-15.5 -62.5q0 -41 30 -66t82 -25q35 0 70 10.5t69 30.5v-74q-33 -20 -70 -28.5t-72 -8.5zM186 388v104h103v-104
h-103z" />
    <glyph glyph-name="periodcentered" unicode="&#xb7;" horiz-adv-x="231" 
d="M64 320h103v-103h-103v103z" />
    <glyph glyph-name="bullet" unicode="&#x2022;" horiz-adv-x="529" 
d="M265 89q-49 0 -91 23.5t-67 64.5t-25 91q0 46 23.5 87t65 66.5t94.5 25.5q49 0 90 -23.5t66.5 -63.5t25.5 -92q0 -49 -24.5 -90t-66 -65t-91.5 -24z" />
    <glyph glyph-name="asterisk" unicode="*" horiz-adv-x="455" 
d="M138 362l-50 36l97 124l-152 45l20 59l147 -53l-5 156h62l-5 -157l149 54l19 -59l-151 -45l97 -124l-51 -36l-88 131z" />
    <glyph glyph-name="numbersign" unicode="#" horiz-adv-x="606" 
d="M314 0l139 712h64l-139 -712h-64zM35 184v59h516v-59h-516zM89 0l139 712h64l-139 -712h-64zM55 477v59h516v-59h-516z" />
    <glyph glyph-name="slash" unicode="/" horiz-adv-x="285" 
d="M51 -55h-74l257 804h75z" />
    <glyph glyph-name="backslash" unicode="\" horiz-adv-x="285" 
d="M233 -55l-256 804h74l257 -804h-75z" />
    <glyph glyph-name="periodcentered.loclCAT" horiz-adv-x="303" 
d="M100 305h103v-95h-103v95z" />
    <glyph glyph-name="parenleft" unicode="(" horiz-adv-x="317" 
d="M218 -182q-41 77 -66 151t-36.5 147.5t-11.5 149.5t12 149.5t36.5 147t65.5 149.5h68q-37 -88 -58.5 -164t-30.5 -145.5t-9 -136.5q0 -68 9 -137.5t30.5 -146t57.5 -164.5h-67z" />
    <glyph glyph-name="parenright" unicode=")" horiz-adv-x="317" 
d="M99 -182h-67q37 88 58 164.5t30 146t9 137.5q0 67 -9 136.5t-30 145.5t-58 164h68q60 -114 86.5 -223.5t26.5 -222.5q0 -76 -11.5 -149.5t-36.5 -147.5t-66 -151z" />
    <glyph glyph-name="braceleft" unicode="{" horiz-adv-x="354" 
d="M287 -182q-68 0 -104 35t-36 101v192q0 44 -15.5 65t-54.5 29l-28 7v37l28 7q39 8 54.5 29t15.5 65v191q0 67 38.5 101.5t101.5 34.5h59v-64h-51q-30 0 -48.5 -20.5t-18.5 -60.5v-196q0 -37 -14 -60.5t-35.5 -35t-42.5 -11.5v4q21 0 42.5 -12t35.5 -36t14 -60v-197
q0 -40 18.5 -60t48.5 -20h51v-65h-59z" />
    <glyph glyph-name="braceright" unicode="}" horiz-adv-x="355" 
d="M67 -182h-59v65h52q29 0 47.5 20t18.5 60v197q0 36 14.5 60t35.5 36t42 12v-4q-21 0 -42 11.5t-35.5 35t-14.5 60.5v196q0 40 -18.5 60.5t-47.5 20.5h-52v64h59q63 0 101.5 -34.5t38.5 -101.5v-191q0 -44 15.5 -65t55.5 -29l27 -7v-37l-27 -7q-40 -8 -55.5 -29t-15.5 -65
v-192q0 -66 -36 -101t-104 -35z" />
    <glyph glyph-name="bracketleft" unicode="[" horiz-adv-x="317" 
d="M110 -182v894h199v-64h-118v-765h118v-65h-199z" />
    <glyph glyph-name="bracketright" unicode="]" horiz-adv-x="317" 
d="M207 -182h-199v65h118v765h-118v64h199v-894z" />
    <glyph glyph-name="hyphen" unicode="-" horiz-adv-x="429" 
d="M73 235v67h283v-67h-283z" />
    <glyph glyph-name="uni00AD" unicode="&#xad;" horiz-adv-x="429" 
d="M73 235v67h283v-67h-283z" />
    <glyph glyph-name="endash" unicode="&#x2013;" horiz-adv-x="505" 
d="M0 242v53h505v-53h-505z" />
    <glyph glyph-name="emdash" unicode="&#x2014;" horiz-adv-x="1010" 
d="M0 242v53h1010v-53h-1010z" />
    <glyph glyph-name="figuredash" unicode="&#x2012;" horiz-adv-x="606" 
d="M73 242v53h460v-53h-460z" />
    <glyph glyph-name="afii00208" unicode="&#x2015;" horiz-adv-x="1010" 
d="M0 242v53h1010v-53h-1010z" />
    <glyph glyph-name="uni2010" unicode="&#x2010;" horiz-adv-x="429" 
d="M73 235v67h283v-67h-283z" />
    <glyph glyph-name="underscore" unicode="_" horiz-adv-x="505" 
d="M8 -53v53h489v-53h-489z" />
    <glyph glyph-name="quotesinglbase" unicode="&#x201a;" horiz-adv-x="231" 
d="M106 -115l-38 29q27 29 36 53t9 49l24 -16h-73v103h103v-73q0 -40 -13.5 -75.5t-47.5 -69.5z" />
    <glyph glyph-name="quotedblbase" unicode="&#x201e;" horiz-adv-x="399" 
d="M106 -115l-38 29q27 29 36 53t9 49l24 -16h-73v103h103v-73q0 -40 -13.5 -75.5t-47.5 -69.5zM274 -115l-38 29q27 29 36 53t9 49l24 -16h-73v103h103v-73q0 -40 -13.5 -75.5t-47.5 -69.5z" />
    <glyph glyph-name="quotedblleft" unicode="&#x201c;" horiz-adv-x="399" 
d="M125 718l38 -30q-27 -28 -36 -52.5t-9 -49.5l-24 17h73v-104h-103v73q0 41 13.5 76.5t47.5 69.5zM293 718l38 -30q-27 -28 -36 -52.5t-9 -49.5l-24 17h73v-104h-103v73q0 41 13.5 76.5t47.5 69.5z" />
    <glyph glyph-name="quotedblright" unicode="&#x201d;" horiz-adv-x="399" 
d="M106 493l-38 30q27 29 36 53t9 49l24 -16h-73v103h103v-73q0 -41 -13.5 -76t-47.5 -70zM274 493l-38 30q27 29 36 53t9 49l24 -16h-73v103h103v-73q0 -41 -13.5 -76t-47.5 -70z" />
    <glyph glyph-name="quoteleft" unicode="&#x2018;" horiz-adv-x="231" 
d="M125 718l38 -30q-27 -28 -36 -52.5t-9 -49.5l-24 17h73v-104h-103v73q0 41 13.5 76.5t47.5 69.5z" />
    <glyph glyph-name="quoteright" unicode="&#x2019;" horiz-adv-x="231" 
d="M106 493l-38 30q27 29 36 53t9 49l24 -16h-73v103h103v-73q0 -41 -13.5 -76t-47.5 -70z" />
    <glyph glyph-name="guillemotleft" unicode="&#xab;" horiz-adv-x="445" 
d="M158 88l-132 179l134 181h75l-129 -180l126 -180h-74zM341 88l-132 179l134 181h75l-129 -180l126 -180h-74z" />
    <glyph glyph-name="guillemotright" unicode="&#xbb;" horiz-adv-x="445" 
d="M104 88h-74l127 180l-130 180h76l133 -181zM287 88h-74l127 180l-130 180h76l133 -181z" />
    <glyph glyph-name="guilsinglleft" unicode="&#x2039;" horiz-adv-x="262" 
d="M158 88l-132 179l134 181h75l-129 -180l126 -180h-74z" />
    <glyph glyph-name="guilsinglright" unicode="&#x203a;" horiz-adv-x="262" 
d="M104 88h-74l127 180l-130 180h76l133 -181z" />
    <glyph glyph-name="quotedbl" unicode="&#x22;" horiz-adv-x="424" 
d="M85 432l-22 280h96l-20 -280h-54zM287 432l-22 280h96l-20 -280h-54z" />
    <glyph glyph-name="quotesingle" unicode="'" horiz-adv-x="222" 
d="M85 432l-22 280h96l-20 -280h-54z" />
    <glyph glyph-name="uni2007" unicode="&#x2007;" horiz-adv-x="606" 
 />
    <glyph glyph-name="uni200A" unicode="&#x200a;" horiz-adv-x="101" 
 />
    <glyph glyph-name="uni2008" unicode="&#x2008;" horiz-adv-x="231" 
 />
    <glyph glyph-name="space" unicode=" " horiz-adv-x="261" 
 />
    <glyph glyph-name="uni00A0" unicode="&#xa0;" horiz-adv-x="261" 
 />
    <glyph glyph-name="uni2009" unicode="&#x2009;" horiz-adv-x="202" 
 />
    <glyph glyph-name="uni200B" unicode="&#x200b;" horiz-adv-x="0" 
 />
    <glyph glyph-name="CR" unicode="&#xd;" horiz-adv-x="261" 
 />
    <glyph glyph-name="uni20B5" unicode="&#x20b5;" 
d="M357 -8q-92 0 -158.5 43.5t-102.5 125.5t-36 196q0 113 35.5 194.5t102.5 125t159 43.5q53 0 111.5 -24.5t100.5 -65.5l-33 -63q-42 40 -88.5 61.5t-89.5 21.5q-101 0 -158 -77t-57 -216q0 -140 57 -217.5t158 -77.5q43 0 89.5 21.5t88.5 61.5l33 -63
q-42 -41 -100.5 -65.5t-111.5 -24.5zM316 -116v944h70v-944h-70z" />
    <glyph glyph-name="cent" unicode="&#xa2;" 
d="M334 -7q-72 0 -126.5 32t-85 90.5t-30.5 136.5t31 137t86.5 92.5t127.5 33.5q52 0 99.5 -17.5t77.5 -48.5l-27 -60q-36 29 -72 43.5t-73 14.5q-77 0 -121.5 -52t-44.5 -143t44 -141.5t122 -50.5q37 0 73 14.5t72 43.5l27 -60q-32 -30 -80 -47.5t-100 -17.5zM299 -119v745
h69v-745h-69z" />
    <glyph glyph-name="colonmonetary" unicode="&#x20a1;" 
d="M357 -8q-92 0 -158.5 43.5t-102.5 125.5t-36 196q0 113 35.5 194.5t102.5 125t159 43.5q53 0 111.5 -24.5t100.5 -65.5l-33 -63q-42 40 -88.5 61.5t-89.5 21.5q-101 0 -158 -77t-57 -216q0 -140 57 -217.5t158 -77.5q43 0 89.5 21.5t88.5 61.5l33 -63
q-42 -41 -100.5 -65.5t-111.5 -24.5zM92 -71l-58 22l94 235l44 -57zM227 -125l-57 22l62 156l60 -16zM325 682l58 146h66l-58 -146h-66zM521 618l-51 37l69 173h66z" />
    <glyph glyph-name="currency" unicode="&#xa4;" 
d="M300 -3q-67 0 -122.5 34t-88 90.5t-32.5 125.5q0 70 32.5 126.5t88 90.5t122.5 34t122 -34t88 -90.5t33 -126.5q0 -69 -33 -125.5t-88 -90.5t-122 -34zM95 -5l-42 42l87 91l41 -46zM502 -5l-84 86l43 43l83 -87zM299 64q48 0 87 25t62 66.5t23 91.5q0 51 -23 92.5t-62 66
t-87 24.5q-47 0 -86 -24.5t-62 -66t-23 -92.5q0 -50 23 -91.5t62 -66.5t86 -25zM131 376l-78 81l43 44l77 -81zM468 377l-44 45l77 79l44 -44z" />
    <glyph glyph-name="dollar" unicode="$" 
d="M302 -8q-76 0 -142 23.5t-115 68.5l31 63q53 -45 106.5 -65t118.5 -20q80 0 124.5 34t44.5 95q0 37 -22.5 59t-59 35.5t-80.5 24t-88 23.5t-81 34.5t-59 56.5t-22 91q0 60 32 106.5t88.5 72.5t129.5 26q45 0 88.5 -10.5t81.5 -30.5t67 -49l-31 -63q-88 83 -206 83
q-77 0 -121.5 -35t-44.5 -97q0 -41 22 -65.5t59 -39t81 -25t87.5 -23t80.5 -32.5t59 -53.5t22 -86.5q0 -60 -32 -105t-88.5 -70.5t-130.5 -25.5zM275 -116v122l3 40v627l-3 34v121h70v-121l-3 -34v-627l3 -40v-122h-70z" />
    <glyph glyph-name="dong" unicode="&#x20ab;" 
d="M265 -6q-58 0 -105 30.5t-74 87.5t-27 138t27 137.5t73.5 85.5t105.5 29q60 0 104.5 -32t61.5 -93l-12 -11v346h82v-712h-81v131l11 -12q-17 -60 -61.5 -92.5t-104.5 -32.5zM76 -140v57h425v-57h-425zM282 62q68 0 103 50.5t35 135.5q0 86 -35 136t-103 50
q-64 0 -102 -48t-38 -136t38 -138t102 -50zM267 563v57h308v-57h-308z" />
    <glyph glyph-name="Euro" unicode="&#x20ac;" 
d="M376 -8q-83 0 -142.5 43t-90.5 124.5t-31 197.5q0 115 31 196t90.5 124t142.5 43q61 0 115.5 -23t95.5 -67l-31 -63q-41 40 -86.5 61.5t-91.5 21.5q-91 0 -137 -73.5t-46 -219.5q0 -148 45.5 -221.5t137.5 -73.5q46 0 91.5 21.5t86.5 61.5l31 -63q-39 -41 -96.5 -65.5
t-114.5 -24.5zM14 251v59h364v-59h-364zM14 403v60h364v-60h-364z" />
    <glyph glyph-name="florin" unicode="&#x192;" 
d="M38 -187v67h51q44 0 71 23.5t39 78.5l121 570q12 56 38 92.5t64.5 54t86.5 17.5h52v-66h-51q-44 0 -71 -23.5t-38 -78.5l-122 -570q-12 -56 -38 -93t-64 -54.5t-87 -17.5h-52zM172 434v59h342v-59h-342z" />
    <glyph glyph-name="franc" unicode="&#x20a3;" 
d="M72 0v712h423v-69h-343v-246h212v-70h-212v-327h-80zM353 0v492h75v-136l-11 13q12 47 34.5 75.5t53 41.5t66.5 13h16v-70h-10q-52 0 -83.5 -20t-46.5 -54t-15 -75v-280h-79z" />
    <glyph glyph-name="uni20B2" unicode="&#x20b2;" 
d="M346 -8q-91 0 -157.5 43.5t-103 125.5t-36.5 196q0 113 36 194.5t102.5 125t158.5 43.5q52 0 111 -24t101 -66l-32 -63q-42 40 -88.5 61.5t-90.5 21.5q-100 0 -157 -76.5t-57 -216.5q0 -141 57 -218.5t156 -77.5q33 0 73.5 9.5t77.5 25.5l-19 -42v252h-147v65h222v-328
q-27 -15 -62.5 -26.5t-73 -18t-71.5 -6.5zM306 -116v134h70v-134h-70zM305 694v134h70v-134h-70z" />
    <glyph glyph-name="uni20AD" unicode="&#x20ad;" 
d="M14 327v59h534v-59h-534zM490 0l-330 357l330 355h96l-352 -381v53l352 -384h-96zM111 0v712h82v-712h-82z" />
    <glyph glyph-name="lira" unicode="&#x20a4;" 
d="M45 251v59h364v-59h-364zM45 403v60h364v-60h-364zM227 520v-297q0 -49 -10 -81.5t-33 -54t-62 -35.5v17h441v-69h-518v57q54 25 77 58.5t23 86.5v324q0 60 24 103.5t68 67t105 23.5q64 0 122 -23t104 -67l-33 -63q-43 41 -91.5 62.5t-97.5 21.5q-58 0 -88.5 -33.5
t-30.5 -97.5z" />
    <glyph glyph-name="uni20BA" unicode="&#x20ba;" 
d="M162 15v697h83v-639q18 -5 37.5 -8t43.5 -3q55 0 106.5 18.5t101.5 63.5l32 -63q-48 -45 -110 -67t-137 -22q-81 0 -157 23zM63 284v69l366 204v-70zM63 451v69l366 203v-69z" />
    <glyph glyph-name="uni20BC" unicode="&#x20bc;" 
d="M56 0q0 179 11 304.5t31.5 206.5t50.5 126.5t68.5 63.5t83.5 18q46 0 84.5 -18.5t68.5 -64t50.5 -127t31.5 -206.5t11 -303h-81q0 140 -5 243t-15 175t-24 118t-32.5 71t-40.5 35t-48 10q-25 0 -47 -10t-40.5 -35.5t-32.5 -71.5t-24 -118t-15 -175t-5 -242h-81zM266 340
v329l-1 28v131h70v-131l-1 -28v-329h-68z" />
    <glyph glyph-name="uni20A6" unicode="&#x20a6;" 
d="M108 0v712h69l266 -596l-24 -15v611h73v-712h-69l-266 588l24 22v-610h-73zM14 251v59h134v-59h-134zM14 404v59h134v-59h-134zM450 251v59h137v-59h-137zM450 404v59h137v-59h-137z" />
    <glyph glyph-name="peseta" unicode="&#x20a7;" horiz-adv-x="1200" 
d="M88 0v728h171q76 0 129 -27.5t81 -79.5t28 -126q0 -73 -28.5 -125.5t-82 -80.5t-127.5 -28h-90v-261h-81zM170 328h86q81 0 121.5 41.5t40.5 124.5q0 85 -39.5 125.5t-122.5 40.5h-86v-332zM468 439v64h318v-64h-318zM990 -7q-122 0 -198 65l28 60q45 -31 84.5 -45
t85.5 -14q56 0 87 20t31 57q0 34 -27.5 51.5t-103.5 34.5q-90 20 -128.5 53t-38.5 89q0 45 24.5 79t68 53t99.5 19q49 0 96.5 -17.5t77.5 -48.5l-26 -59q-40 30 -77 44.5t-75 14.5q-49 0 -79 -22t-30 -59q0 -33 25 -50t93 -34q68 -16 107.5 -34.5t55.5 -45.5t16 -67
q0 -65 -54 -104.5t-142 -39.5zM566 656h81v-479q0 -58 28 -88.5t83 -30.5q10 0 22 1t22 2l-3 -64q-25 -4 -51 -4q-93 0 -137.5 48t-44.5 130v485z" />
    <glyph glyph-name="uni20B1" unicode="&#x20b1;" 
d="M108 0v712h168q75 0 127 -27.5t78.5 -79t26.5 -121.5t-27.5 -122t-79 -80t-125.5 -28h-87v-254h-81zM14 377v59h134v-59h-134zM14 529v60h134v-60h-134zM190 321h83q77 0 116 39.5t39 122.5q0 84 -38.5 122.5t-116.5 38.5h-83v-323zM450 377v59h137v-59h-137zM450 529v60
h137v-60h-137z" />
    <glyph glyph-name="uni20BD" unicode="&#x20bd;" 
d="M108 0v712h232q75 0 128 -25t80.5 -70.5t27.5 -108.5t-28.5 -108.5t-81.5 -70.5t-126 -25h-151v-304h-81zM14 152v58h355v-58h-355zM14 304v59h134v-59h-134zM190 363h138q82 0 125 35t43 105q0 72 -41.5 107.5t-124.5 35.5h-140v-283z" />
    <glyph glyph-name="uni20B9" unicode="&#x20b9;" 
d="M444 0l-150 228q-26 40 -54 57t-77 17h-145v69h218q76 0 119 33t43 109q0 74 -43 107t-119 33h-80v46h89q72 0 125 -19t82 -61t29 -110q0 -64 -29.5 -109t-82.5 -69t-123 -24l-1 10q51 0 82.5 -20t60.5 -64l154 -233h-98zM18 500v60h564v-60h-564zM18 653v59h564v-59
h-564z" />
    <glyph glyph-name="sterling" unicode="&#xa3;" 
d="M45 327v59h364v-59h-364zM227 520v-297q0 -49 -10 -81.5t-33 -54t-62 -35.5v17h441v-69h-518v57q54 25 77 58.5t23 86.5v324q0 60 24 103.5t68 67t105 23.5q64 0 122 -23t104 -67l-33 -63q-43 41 -91.5 62.5t-97.5 21.5q-58 0 -88.5 -33.5t-30.5 -97.5z" />
    <glyph glyph-name="uni20A9" unicode="&#x20a9;" 
d="M150 0l-93 712h71l72 -621h-33l105 621h57l104 -621h-32l71 621h72l-94 -712h-58l-107 628h31l-108 -628h-58zM14 251v59h134v-59h-134zM14 404v59h119v-59h-119zM450 251v59h137v-59h-137zM465 404v59h122v-59h-122z" />
    <glyph glyph-name="yen" unicode="&#xa5;" 
d="M259 0v378l18 -63l-285 397h93l226 -319h-21l225 319h93l-285 -397l18 63v-378h-82zM70 177v59h460v-59h-460zM70 329v60h460v-60h-460z" />
    <glyph glyph-name="uni2219" unicode="&#x2219;" 
d="M249 320h103v-103h-103v103z" />
    <glyph glyph-name="uni2215" unicode="&#x2215;" 
d="M205 -66l-67 23l257 803l68 -22z" />
    <glyph glyph-name="plus" unicode="+" 
d="M546 319v-63h-492v63h492zM269 534h62v-493h-62v493z" />
    <glyph glyph-name="minus" unicode="&#x2212;" 
d="M546 319v-63h-492v63h492z" />
    <glyph glyph-name="multiply" unicode="&#xd7;" 
d="M492 524l44 -44l-428 -428l-44 43zM108 524l428 -429l-44 -43l-428 428z" />
    <glyph glyph-name="divide" unicode="&#xf7;" 
d="M247 439v96h94v-96h-94zM247 38v96h94v-96h-94zM546 319v-63h-492v63h492z" />
    <glyph glyph-name="equal" unicode="=" 
d="M546 420v-63h-492v63h492zM546 218v-63h-492v63h492z" />
    <glyph glyph-name="notequal" unicode="&#x2260;" 
d="M371 556l57 -24l-213 -514l-57 25zM546 420v-63h-492v63h492zM546 218v-63h-492v63h492z" />
    <glyph glyph-name="greater" unicode="&#x3e;" 
d="M546 255l-492 -223v70l460 205v-40l-460 206v68l492 -222v-64z" />
    <glyph glyph-name="less" unicode="&#x3c;" 
d="M54 255v64l492 222v-68l-460 -206v40l460 -205v-70z" />
    <glyph glyph-name="greaterequal" unicode="&#x2265;" 
d="M546 297l-492 -180v68l459 165v-41l-459 165v67l492 -180v-64zM546 63v-63h-492v63h492z" />
    <glyph glyph-name="lessequal" unicode="&#x2264;" 
d="M54 297v64l492 180v-67l-459 -165v41l459 -165v-68zM546 63v-63h-492v63h492z" />
    <glyph glyph-name="plusminus" unicode="&#xb1;" 
d="M546 360v-62h-492v62h492zM269 534h62v-410h-62v410zM546 63v-63h-492v63h492z" />
    <glyph glyph-name="approxequal" unicode="&#x2248;" horiz-adv-x="589" 
d="M491 444l50 -27q-19 -46 -52 -72.5t-78 -26.5q-34 0 -65 12t-59.5 28t-54 28.5t-48.5 12.5q-34 0 -53.5 -19t-31.5 -48l-51 28q19 46 52 72t79 26q33 0 64 -12t59.5 -27.5t54.5 -28t49 -12.5q33 0 53 19t32 47zM491 242l50 -27q-19 -46 -52 -72.5t-78 -26.5q-34 0 -65 12
t-59.5 28t-54 28.5t-48.5 12.5q-34 0 -53.5 -19t-31.5 -48l-51 28q19 46 52 72t79 26q33 0 64 -12t59.5 -27.5t54.5 -28t49 -12.5q33 0 53 19t32 47z" />
    <glyph glyph-name="asciitilde" unicode="~" 
d="M496 343l50 -27q-19 -46 -51.5 -72.5t-78.5 -26.5q-33 0 -64.5 12t-60 28t-54 28.5t-48.5 12.5q-34 0 -53.5 -19t-31.5 -48l-50 28q18 46 51 72t79 26q33 0 64.5 -12t60 -27.5t54 -28t48.5 -12.5q34 0 53.5 19t31.5 47z" />
    <glyph glyph-name="logicalnot" unicode="&#xac;" 
d="M546 423v-272h-61v210h-431v62h492z" />
    <glyph glyph-name="asciicircum" unicode="^" 
d="M332 635l223 -493h-69l-206 460h40l-206 -460h-68l222 493h64z" />
    <glyph glyph-name="emptyset" unicode="&#x2205;" 
d="M26 7l79 103q-47 39 -75.5 94t-28.5 121q0 57 22.5 109t63 92t95.5 63t119 23q43 0 83.5 -11t75.5 -33l77 102l48 -36l-79 -101q42 -38 67.5 -91.5t25.5 -116.5q0 -58 -23 -109.5t-64.5 -91t-95 -61.5t-115.5 -22q-40 0 -77.5 10t-69.5 28l-79 -103zM140 155l284 367
q-26 15 -57.5 24t-65.5 9q-66 0 -119.5 -30t-84.5 -82t-31 -118q0 -50 19.5 -94t54.5 -76zM301 95q63 0 116.5 29.5t85.5 81.5t32 119q0 48 -17 89t-47 73l-283 -365q24 -13 52.5 -20t60.5 -7z" />
    <glyph glyph-name="infinity" unicode="&#x221e;" 
d="M40 287q0 60 35.5 100.5t98.5 40.5q24 0 50.5 -10.5t49.5 -34t38 -62.5v-68q-15 -39 -38 -62.5t-49.5 -34t-50.5 -10.5q-63 0 -98.5 40t-35.5 101zM100 287q0 -37 19.5 -62t56.5 -25q16 0 33.5 7t34.5 26t32 55q-15 36 -32 54.5t-34.5 25t-33.5 6.5q-37 0 -56.5 -25.5
t-19.5 -61.5zM560 287q0 -61 -35.5 -101t-98.5 -40q-24 0 -50.5 10.5t-49.5 34t-38 62.5v68q15 39 38 62.5t49.5 34t50.5 10.5q63 0 98.5 -40.5t35.5 -100.5zM500 287q0 36 -19.5 61.5t-56.5 25.5q-16 0 -33.5 -6.5t-34.5 -25t-32 -54.5q15 -36 32 -55t34.5 -26t33.5 -7
q37 0 56.5 25t19.5 62z" />
    <glyph glyph-name="integral" unicode="&#x222b;" 
d="M406 720q16 0 32.5 -2.5t32.5 -6.5v-68q-15 4 -26 5.5t-22 1.5q-34 0 -58 -20t-24 -78v-580q0 -79 -40 -118.5t-107 -39.5q-16 0 -32.5 2t-32.5 7v69q15 -4 26 -6t22 -2q23 0 41.5 8.5t29.5 29.5t11 60v580q0 79 40 118.5t107 39.5z" />
    <glyph glyph-name="uni2126" unicode="&#x2126;" horiz-adv-x="787" 
d="M393 721q104 0 179.5 -38t116.5 -107t41 -162q0 -101 -52 -191.5t-161 -179.5l4 26h202v-69h-263v66q91 83 138 171.5t47 174.5q0 113 -66.5 175.5t-185.5 62.5t-185.5 -62.5t-66.5 -175.5q0 -87 47.5 -174.5t138.5 -171.5v-66h-263v69h202l4 -26q-110 89 -162 179.5
t-52 191.5q0 93 41.5 162t117 107t178.5 38z" />
    <glyph glyph-name="uni2206" unicode="&#x2206;" horiz-adv-x="787" 
d="M393 721q104 0 179.5 -38t116.5 -107t41 -162q0 -101 -52 -191.5t-161 -179.5l4 26h202v-69h-263v66q91 83 138 171.5t47 174.5q0 113 -66.5 175.5t-185.5 62.5t-185.5 -62.5t-66.5 -175.5q0 -87 47.5 -174.5t138.5 -171.5v-66h-263v69h202l4 -26q-110 89 -162 179.5
t-52 191.5q0 93 41.5 162t117 107t178.5 38z" />
    <glyph glyph-name="product" unicode="&#x220f;" 
d="M546 712v-894h-76v824h-340v-824h-76v894h492z" />
    <glyph glyph-name="summation" unicode="&#x2211;" horiz-adv-x="588" 
d="M545 -112v-70h-504v61l295 423v-74l-295 424v60h504v-69h-435v42l273 -391v-57l-273 -392v43h435z" />
    <glyph glyph-name="radical" unicode="&#x221a;" 
d="M583 766l-269 -968h-65l-150 458h-96v63h144l133 -415l235 862h68z" />
    <glyph glyph-name="uni00B5" unicode="&#xb5;" horiz-adv-x="577" 
d="M499 503v-503h-79v109l12 6q-20 -60 -67.5 -91t-108.5 -31q-42 0 -71.5 12t-50.5 36l22 30v-287h-81v719h81v-310q0 -68 28 -100t85 -32q67 0 108 43t41 115v284h81z" />
    <glyph glyph-name="partialdiff" unicode="&#x2202;" 
d="M298 -16q-71 1 -127 32.5t-88 92.5t-32 147q0 87 32.5 147.5t86.5 92.5t119 32q56 0 103.5 -25t77.5 -89l-12 1q-7 83 -30.5 139t-59 89.5t-79 47.5t-89.5 14h-45v62q18 2 33 3.5t34 1.5q48 0 94.5 -14t87.5 -46t72.5 -84t49.5 -128.5t18 -180.5q0 -117 -32 -191
t-87.5 -109t-126.5 -35zM296 52q72 0 118 56.5t46 161.5q0 62 -22.5 104.5t-59.5 64t-81 21.5q-45 0 -82.5 -23t-59.5 -68.5t-22 -111.5q-1 -66 20.5 -111.5t59 -69.5t83.5 -24z" />
    <glyph glyph-name="percent" unicode="%" horiz-adv-x="843" 
d="M190 281q-73 0 -115.5 54t-42.5 164q0 111 42.5 164t115.5 53t115 -53t42 -164q0 -110 -42 -164t-115 -54zM190 339q42 0 62.5 38t20.5 122q0 83 -20.5 121t-62.5 38t-62.5 -38t-20.5 -121q0 -84 20.5 -122t62.5 -38zM177 0l412 712h77l-411 -712h-78zM653 -4
q-73 0 -115.5 54t-42.5 164q0 111 42.5 164t115.5 53t115 -53t42 -164q0 -110 -42 -164t-115 -54zM653 54q42 0 62.5 38t20.5 122q0 83 -20.5 121t-62.5 38t-62.5 -38t-20.5 -121q0 -84 20.5 -122t62.5 -38z" />
    <glyph glyph-name="perthousand" unicode="&#x2030;" horiz-adv-x="1223" 
d="M190 281q-73 0 -115.5 54t-42.5 164q0 111 42.5 164t115.5 53t115 -53t42 -164q0 -110 -42 -164t-115 -54zM190 339q42 0 62.5 38t20.5 122q0 83 -20.5 121t-62.5 38t-62.5 -38t-20.5 -121q0 -84 20.5 -122t62.5 -38zM177 0l412 712h77l-411 -712h-78zM653 -4
q-73 0 -115.5 54t-42.5 164q0 111 42.5 164t115.5 53t115 -53t42 -164q0 -110 -42 -164t-115 -54zM653 54q42 0 62.5 38t20.5 122q0 83 -20.5 121t-62.5 38t-62.5 -38t-20.5 -121q0 -84 20.5 -122t62.5 -38zM1033 -4q-73 0 -115.5 54t-42.5 164q0 111 42.5 164t115.5 53
t115 -53t42 -164q0 -110 -42 -164t-115 -54zM1033 54q42 0 62.5 38t20.5 122q0 83 -20.5 121t-62.5 38t-62.5 -38t-20.5 -121q0 -84 20.5 -122t62.5 -38z" />
    <glyph glyph-name="lozenge" unicode="&#x25ca;" horiz-adv-x="606" 
d="M558 282l-223 -484h-64l-222 484l222 484h64zM489 282l-186 405l-186 -405l186 -406z" />
    <glyph glyph-name="uniF8FF" unicode="&#xf8ff;" horiz-adv-x="665" 
d="M138 1l71 226l-192 146h239l74 226l78 -226h239l-192 -146l71 -226l-196 136zM264 200h28v87l-5 -2l34 -64h23l35 64l-5 2v-87h28v131h-27l-45 -86h7l-46 86h-27v-131z" />
    <glyph glyph-name="at" unicode="@" horiz-adv-x="935" 
d="M478 -153q-132 0 -228 54t-148 150.5t-52 224.5q0 101 32 182.5t90.5 139.5t136.5 89t169 31q102 0 178.5 -32t127.5 -85t76.5 -119.5t25.5 -134.5q0 -79 -18 -133t-48 -87t-65.5 -47.5t-71.5 -14.5q-55 0 -85.5 23.5t-33.5 66.5h-2q-24 -40 -62 -65t-91 -25
q-65 0 -106.5 45.5t-41.5 130.5q0 51 15 98.5t43 84.5t67 58.5t88 21.5q48 0 83.5 -23t45.5 -59h1l12 70h66l-48 -274q-9 -57 7 -78t54 -21q18 0 40 11.5t42 37.5t32.5 70t12.5 109q0 57 -21 112t-63 100t-107 71.5t-153 26.5q-77 0 -143 -26t-115.5 -75.5t-77 -120
t-27.5 -159.5q0 -112 43.5 -195t125 -128.5t194.5 -45.5q87 0 149 25t94 68h88q-42 -70 -127.5 -111.5t-203.5 -41.5zM423 119q53 0 89.5 31.5t55 80t18.5 100.5q0 58 -28.5 87.5t-75.5 29.5q-50 0 -85 -30.5t-53.5 -77.5t-18.5 -96q0 -62 29.5 -93.5t68.5 -31.5z" />
    <glyph glyph-name="ampersand" unicode="&#x26;" horiz-adv-x="670" 
d="M282 -7q-69 0 -120.5 23.5t-80 65t-28.5 97.5q0 66 41.5 119t135.5 107q65 38 101.5 65.5t51 51t14.5 50.5q0 38 -24 61.5t-63 23.5q-44 0 -71 -25.5t-27 -67.5q0 -20 6.5 -38.5t23.5 -41.5t48 -58l244 -276q27 -30 63 -56t83 -47l-44 -56q-50 23 -88 51t-65 58l-259 291
q-34 38 -53.5 67t-28 54t-8.5 52q0 47 22 81.5t61.5 54t91.5 19.5q73 0 116.5 -38.5t43.5 -104.5q0 -40 -18 -73.5t-61 -68t-117 -78.5q-51 -30 -82 -57.5t-44.5 -55.5t-13.5 -62q0 -56 41 -89t110 -33q75 0 132 44.5t90 125t36 189.5h72q-3 -96 -28.5 -174t-69.5 -134
t-103.5 -86.5t-130.5 -30.5z" />
    <glyph glyph-name="paragraph" unicode="&#xb6;" horiz-adv-x="588" 
d="M500 712v-894h-68v833h-119v-833h-68v495q-61 0 -105.5 25.5t-69 70.5t-24.5 104q0 58 24.5 103t70 70.5t106.5 25.5h253z" />
    <glyph glyph-name="section" unicode="&#xa7;" horiz-adv-x="542" 
d="M414 47l-33 48q20 17 31 41.5t11 51.5q0 35 -24 63t-82 58l-94 50q-52 26 -82.5 53t-44.5 58.5t-14 71.5q0 81 54 129t145 48q49 0 95.5 -17t78.5 -47l-27 -59q-37 29 -73 43t-72 14q-58 0 -89.5 -27.5t-31.5 -79.5q0 -40 20.5 -67t70.5 -52l97 -48q81 -41 116 -83
t35 -101q0 -44 -24 -84t-63 -64zM262 -189q-60 0 -109 16t-89 49l27 60q43 -31 83 -44.5t87 -13.5q56 0 87.5 27.5t31.5 78.5q0 41 -20.5 68t-70.5 52l-97 48q-82 39 -116.5 81.5t-34.5 101.5q0 44 21.5 83t56.5 62l38 -48q-19 -17 -29 -40.5t-10 -49.5q0 -34 24.5 -61.5
t82.5 -59.5l94 -48q52 -27 83 -54.5t44.5 -59t13.5 -71.5q0 -82 -53 -129.5t-145 -47.5z" />
    <glyph glyph-name="copyright" unicode="&#xa9;" horiz-adv-x="823" 
d="M412 -5q-77 0 -142.5 27.5t-114.5 77t-76.5 115.5t-27.5 142q0 77 27.5 142.5t76.5 114t114.5 76t142.5 27.5t142.5 -27.5t114.5 -76t76.5 -114t27.5 -142.5q0 -76 -27.5 -142t-76.5 -115.5t-114.5 -77t-142.5 -27.5zM412 40q67 0 124 24t99.5 67t66 101t23.5 125
t-23.5 124.5t-66 100t-99.5 66.5t-124 24t-124.5 -24t-100 -66.5t-66 -100t-23.5 -124.5t23.5 -125t66 -101t100 -67t124.5 -24zM420 138q-95 0 -150 59t-55 160q0 66 25 115t71 75.5t109 26.5q43 0 83 -14.5t68 -40.5l-24 -54q-29 23 -58.5 35t-62.5 12q-64 0 -98.5 -40
t-34.5 -115q0 -76 34.5 -116.5t98.5 -40.5q33 0 62.5 12t58.5 35l24 -54q-28 -26 -68 -40.5t-83 -14.5z" />
    <glyph glyph-name="registered" unicode="&#xae;" horiz-adv-x="823" 
d="M412 -5q-77 0 -142.5 27.5t-114.5 77t-76.5 115.5t-27.5 142q0 77 27.5 142.5t76.5 114t114.5 76t142.5 27.5t142.5 -27.5t114.5 -76t76.5 -114t27.5 -142.5q0 -76 -27.5 -142t-76.5 -115.5t-114.5 -77t-142.5 -27.5zM412 40q67 0 124 24t99.5 67t66 101t23.5 125
t-23.5 124.5t-66 100t-99.5 66.5t-124 24t-124.5 -24t-100 -66.5t-66 -100t-23.5 -124.5t23.5 -125t66 -101t100 -67t124.5 -24zM261 143v427h178q71 0 109.5 -34t38.5 -93q0 -57 -38.5 -91t-107.5 -34l9 6q28 0 48.5 -11.5t36.5 -38.5l78 -131h-83l-80 137
q-12 19 -25.5 26.5t-36.5 7.5h-53v-171h-74zM335 372h95q43 0 63 16.5t20 51.5q0 37 -20 53.5t-63 16.5h-95v-138z" />
    <glyph glyph-name="trademark" unicode="&#x2122;" horiz-adv-x="924" 
d="M147 287v362h-139v63h355v-63h-139v-362h-77zM428 287v425h61l157 -301h-19l157 301h59v-425h-67v319l16 -2l-131 -250h-50l-133 250l19 2v-319h-69z" />
    <glyph glyph-name="degree" unicode="&#xb0;" horiz-adv-x="369" 
d="M185 424q-42 0 -75.5 19t-53 52.5t-19.5 75.5t19.5 75t53 52t75.5 19q41 0 74 -19t52.5 -52t19.5 -75t-19.5 -75.5t-52.5 -52.5t-74 -19zM185 478q38 0 63.5 26t25.5 67q0 40 -25.5 66.5t-63.5 26.5q-40 0 -65 -26.5t-25 -66.5q0 -41 25 -67t65 -26z" />
    <glyph glyph-name="minute" unicode="&#x2032;" horiz-adv-x="222" 
d="M85 432l-22 280h96l-20 -280h-54z" />
    <glyph glyph-name="second" unicode="&#x2033;" horiz-adv-x="424" 
d="M85 432l-22 280h96l-20 -280h-54zM287 432l-22 280h96l-20 -280h-54z" />
    <glyph glyph-name="bar" unicode="|" horiz-adv-x="264" 
d="M93 -182v894h78v-894h-78z" />
    <glyph glyph-name="brokenbar" unicode="&#xa6;" horiz-adv-x="264" 
d="M93 375v337h78v-337h-78zM93 -182v338h78v-338h-78z" />
    <glyph glyph-name="dagger" unicode="&#x2020;" horiz-adv-x="328" 
d="M195 720v-121h113v-53h-113v-379h-62v379h-113v53h113v121h62z" />
    <glyph glyph-name="afii61289" unicode="&#x2113;" horiz-adv-x="606" 
d="M321 -15q-43 0 -69 18t-37.5 47t-11.5 63v117l-52 -61l-39 37l91 105v242q0 53 14.5 90t41.5 55.5t65 18.5q34 0 56.5 -15t33.5 -39t11 -51q0 -78 -33 -143.5t-86 -132.5l-14 -18.5t-12 -18.5v-171q0 -38 14 -57.5t43 -19.5q21 0 40.5 11.5t41.5 32.5l32 -48
q-25 -25 -56.5 -43.5t-73.5 -18.5zM280 390l7.5 11.5l7.5 11.5q29 45 49.5 93t20.5 90q0 20 -9.5 37t-29.5 17q-21 0 -33.5 -21.5t-12.5 -78.5v-160z" />
    <glyph glyph-name="daggerdbl" unicode="&#x2021;" horiz-adv-x="328" 
d="M195 720v-120h113v-53h-113v-207h113v-52h-113v-121h-62v121h-113v52h113v207h-113v53h113v120h62z" />
    <glyph glyph-name="estimated" unicode="&#x212e;" horiz-adv-x="903" 
d="M452 -5q-96 0 -170.5 28.5t-126 77.5t-78 113t-26.5 134q0 71 27 137t79 118.5t126 83t167 30.5q116 0 194 -33.5t123.5 -89.5t65 -123.5t19.5 -136.5h-649q-5 0 -5 -6v-173q0 -7 1.5 -16t5.5 -14q83 -98 244 -98q86 0 148 29.5t114 78.5h72q-40 -47 -85 -78.5
t-104 -46.5t-142 -15zM203 366h497q5 0 5 6v190q0 14 -10 26q-35 41 -79.5 62t-88.5 28.5t-80 7.5q-58 0 -122 -21t-118 -75q-9 -9 -9 -27v-191q0 -6 5 -6z" />
    <glyph glyph-name="afii61352" unicode="&#x2116;" horiz-adv-x="1085" 
d="M912 411q-47 0 -80.5 19.5t-51 54.5t-17.5 80t17.5 79t51 53.5t80.5 19.5q48 0 81.5 -19.5t51.5 -53.5t18 -79t-18 -80t-51.5 -54.5t-81.5 -19.5zM912 469q40 0 59.5 25t19.5 71q0 45 -19.5 70t-59.5 25q-38 0 -57.5 -25t-19.5 -70q0 -46 19.5 -71t57.5 -25zM774 235v67
h282v-67h-282zM88 0v712h63l454 -605l-24 -6v611h78v-712h-64l-453 604l23 7v-611h-77z" />
    <glyph glyph-name="afii57929" unicode="&#x2bc;" horiz-adv-x="300" 
d="M198 761v-58q0 -38 -10.5 -70t-40.5 -61l-37 28q23 24 29.5 45.5t6.5 45.5l24 -13h-71v83h99z" />
    <glyph glyph-name="uni02BB" unicode="&#x2bb;" horiz-adv-x="300" 
d="M102 586v58q0 38 10.5 70t40.5 61l37 -28q-23 -24 -29.5 -45.5t-6.5 -46.5l-24 14h71v-83h-99z" />
    </font>
</defs>
</svg>
