<svg viewBox="0 0 24 24" xmlns="http://www.w3.org/2000/svg" aria-hidden="true" fill="currentColor"><path d="M21.335 18.537 18.223 3.744a1.876 1.876 0 0 0-2.227-1.452l-4.389.944a1.86 1.86 0 0 0-1.031.623A1.87 1.87 0 0 0 9 3H4.5a1.875 1.875 0 0 0-1.875 1.875v15A1.875 1.875 0 0 0 4.5 21.75H9a1.875 1.875 0 0 0 1.875-1.875V8.836l2.402 11.42a1.875 1.875 0 0 0 2.227 1.452l4.389-.943a1.884 1.884 0 0 0 1.442-2.228m-8.192-9.85 3.656-.786.237 1.125-3.656.785zm.7 3.327 3.656-.785.858 4.085-3.656.786zm2.255-7.443.237 1.125-3.656.786-.237-1.125zM4.875 8.625h3.75v7.5h-3.75zm3.75-3.375v1.125h-3.75V5.25zM4.875 19.5v-1.125h3.75V19.5zm10.527-.071-.237-1.125 3.656-.786.237 1.125z"/></svg>