<svg viewBox="0 0 25 24" xmlns="http://www.w3.org/2000/svg" aria-hidden="true" fill="currentColor"><path d="M23.997 18.589c0-.487-.299-.901-.719-1.07v-3.882c.407-.174.693-.584.693-1.06a1.14 1.14 0 0 0-1.132-1.15h-1.993V9.902a1.14 1.14 0 0 0-1.132-1.15h-.374c-.48-3.177-2.952-5.695-6.074-6.192V1.15c0-.635-.507-1.15-1.133-1.15a1.14 1.14 0 0 0-1.131 1.15v1.411c-3.123.497-5.595 3.015-6.075 6.192h-.42c-.625 0-1.132.515-1.132 1.15v1.523H1.132c-.625 0-1.132.515-1.132 1.15 0 .52.338.958.8 1.102v3.817a1.15 1.15 0 0 0-.787 1.096v4.258C.013 23.485.52 24 1.145 24h21.723c.3 0 .589-.122.8-.337.213-.216.332-.51.332-.815l-.004-4.258zm-5.772-1.15v-3.713h2.79v3.713zm-12.37-3.713v3.713h-2.79v-3.713zm2.264 0h2.79v3.713h-2.79zm5.052 0h2.79v3.713h-2.79zm-1.037-8.954c2.39 0 4.395 1.705 4.902 3.98H7.234c.507-2.276 2.51-3.98 4.901-3.98M5.64 11.053h12.943v.372H5.64zM2.277 21.698V19.74h19.457l.002 1.957z"/></svg>