<svg viewBox="0 0 24 24" xmlns="http://www.w3.org/2000/svg" aria-hidden="true" fill="currentColor"><path d="M22.924 11.762c-.028-.068-.709-1.66-2.33-3.276-1.496-1.493-4.12-3.308-8.111-3.476-3.164-.132-6.054 1.003-8.358 3.28-1.718 1.699-2.507 3.438-2.54 3.51a.98.98 0 0 0 .007.814c.032.07.816 1.735 2.53 3.393 2.288 2.214 5.164 3.383 8.318 3.383s5.942-1.188 8.12-3.435c1.63-1.68 2.337-3.368 2.366-3.44a.98.98 0 0 0-.002-.753m-3.873 2.872c-1.805 1.838-4.03 2.77-6.61 2.77-2.582 0-4.933-.93-6.854-2.764a11.5 11.5 0 0 1-1.942-2.448c.308-.548.95-1.563 1.957-2.547 1.912-1.866 4.197-2.757 6.795-2.65 2.65.111 4.906 1.063 6.705 2.83.932.915 1.5 1.83 1.77 2.323a10.8 10.8 0 0 1-1.82 2.486"/><path d="M12.34 7.169c-2.815 0-5.105 2.254-5.105 5.025s2.29 5.027 5.105 5.027 5.105-2.255 5.105-5.027c0-2.771-2.29-5.025-5.105-5.025m.075 8.064V9.158c1.668.04 3.012 1.386 3.012 3.037s-1.344 2.999-3.012 3.038"/></svg>