<svg viewBox="0 0 24 24" xmlns="http://www.w3.org/2000/svg" aria-hidden="true" fill="currentColor"><path d="M14.5 19.5a1.125 1.125 0 0 1-1.125 1.125H10.75A1.125 1.125 0 0 1 9.625 19.5v-5.25a1.125 1.125 0 1 1 2.25 0v4.125h1.5A1.125 1.125 0 0 1 14.5 19.5m-6.47-6.167a1.126 1.126 0 0 0-1.571.26l-.96 1.345-.96-1.344a1.126 1.126 0 1 0-1.83 1.312l1.406 1.969-1.406 1.969a1.126 1.126 0 1 0 1.83 1.312l.96-1.348.96 1.348a1.126 1.126 0 1 0 1.83-1.312l-1.405-1.969 1.406-1.969a1.124 1.124 0 0 0-.26-1.573m11.487 3.005c-.48-.324-1.06-.491-1.574-.64a8 8 0 0 1-.742-.242c.23-.111.91-.122 1.506.03a1.125 1.125 0 0 0 .573-2.174 6.5 6.5 0 0 0-1.125-.174c-.93-.062-1.687.101-2.26.485a2.3 2.3 0 0 0-1.001 1.665c-.104.82.233 1.525.947 1.986.449.29.972.441 1.477.587.281.084.744.216.926.331a.2.2 0 0 1-.02.067c-.128.145-.898.168-1.536-.006a1.124 1.124 0 1 0-.606 2.167 6 6 0 0 0 1.52.205c.606 0 1.287-.11 1.85-.483a2.32 2.32 0 0 0 1.026-1.687c.115-.874-.23-1.624-.962-2.117zM2.875 10.125V3.75A1.875 1.875 0 0 1 4.75 1.875h9a1.13 1.13 0 0 1 .796.33l5.25 5.25a1.13 1.13 0 0 1 .329.795v1.875a1.125 1.125 0 1 1-2.25 0V9.75h-4.5a1.125 1.125 0 0 1-1.125-1.125v-4.5H5.125v6a1.125 1.125 0 1 1-2.25 0M14.5 7.5h2.156L14.5 5.344z"/></svg>