<svg viewBox="0 0 24 24" xmlns="http://www.w3.org/2000/svg" aria-hidden="true" fill="currentColor"><path d="M9.625 12.75a1.5 1.5 0 1 1-3 0 1.5 1.5 0 0 1 3 0m5.25-1.5a1.5 1.5 0 1 0 0 2.999 1.5 1.5 0 0 0 0-2.999m6.398 2.454a1.84 1.84 0 0 1-1.148.137v3.409A4.13 4.13 0 0 1 16 21.375H7a4.13 4.13 0 0 1-4.125-4.125v-3.41q-.18.037-.36.037a1.9 1.9 0 0 1-.788-.173A1.85 1.85 0 0 1 .66 11.651l1.54-8.25a1.875 1.875 0 0 1 2.297-1.47l.044.011 4.875 1.432h4.176l4.875-1.432.044-.012a1.875 1.875 0 0 1 2.297 1.474l1.54 8.25a1.85 1.85 0 0 1-1.075 2.05m-5.625-8.59 4.196 5.425-1.178-6.312zM3.156 10.539l4.196-5.425-3.018-.887zm14.719 6.711v-5.58l-4.677-6.045H9.802L5.125 11.67v5.58A1.875 1.875 0 0 0 7 19.125h3.375v-.656l-1.17-1.171a1.127 1.127 0 0 1 1.594-1.594l.701.702.704-.705a1.127 1.127 0 1 1 1.594 1.594l-1.173 1.174v.656H16a1.875 1.875 0 0 0 1.875-1.875"/></svg>