<svg viewBox="0 0 24 24" xmlns="http://www.w3.org/2000/svg" aria-hidden="true" fill="currentColor"><path d="M22.125 21.628h-.795V9.403a1.877 1.877 0 0 0-1.875-1.875H4.642c-1.034 0-1.875.84-1.875 1.875v12.225h-.892a1.125 1.125 0 1 0 0 2.25h20.25a1.125 1.125 0 1 0 0-2.25m-11.201-.001H7.97V12.56h2.953zm5.203 0h-2.953V12.56h2.953zm2.953 0h-.703v-10.19c0-.622-.504-1.126-1.125-1.126H6.846c-.622 0-1.125.504-1.125 1.125v10.192h-.704V9.778H19.08zM6.785 4.372l.347-.348v2.113a1.125 1.125 0 1 0 2.25 0V4.024l.348.347a1.123 1.123 0 1 0 1.592-1.59L9.053.51 9.045.505 8.972.438 8.948.42 8.884.372 8.864.36A1 1 0 0 0 8.68.266a1 1 0 0 0-.095-.034L8.577.23a1 1 0 0 0-.095-.024L8.452.2q-.04-.007-.081-.012a1 1 0 0 0-.225 0L8.064.2l-.028.005a1 1 0 0 0-.095.024l-.01.003q-.049.016-.095.034l-.009.003a1 1 0 0 0-.173.09l-.02.013Q7.6.395 7.567.42l-.023.018a1 1 0 0 0-.073.066l-.009.008L5.195 2.78a1.124 1.124 0 1 0 1.59 1.591m7.805 2.56.009.007q.034.035.073.067.012.008.023.018l.086.06a1 1 0 0 0 .089.052q.042.022.085.04l.01.004q.045.019.093.034.006 0 .01.003.048.015.097.024l.026.004a1 1 0 0 0 .195.018 1 1 0 0 0 .195-.018l.026-.004q.05-.01.097-.024l.01-.003q.048-.016.094-.034.005 0 .01-.004.043-.019.085-.04l.014-.006.075-.045.02-.013q.033-.023.065-.048l.024-.018a1 1 0 0 0 .073-.067l.008-.007 2.269-2.27a1.124 1.124 0 1 0-1.591-1.59l-.348.348V1.248a1.125 1.125 0 1 0-2.25 0V3.42l-.348-.348a1.125 1.125 0 0 0-1.59 1.59l2.268 2.27z"/></svg>