<svg viewBox="0 0 24 24" xmlns="http://www.w3.org/2000/svg" aria-hidden="true" fill="currentColor"><path d="M13.875 10.126A1.125 1.125 0 0 1 15 9h2.625a1.125 1.125 0 1 1 0 2.25H15a1.125 1.125 0 0 1-1.125-1.124m3.75 2.625H15.75a1.125 1.125 0 0 0 0 2.25h1.875a1.125 1.125 0 1 0 0-2.25m4.5-7.5v13.5a1.875 1.875 0 0 1-1.875 1.874H3.75a1.875 1.875 0 0 1-1.875-1.875V5.25A1.875 1.875 0 0 1 3.75 3.375h16.5a1.875 1.875 0 0 1 1.875 1.875m-2.25.374H4.125v12.75h15.75zM5.464 14.941a4.1 4.1 0 0 1 1.242-1.628 3.375 3.375 0 1 1 5.338 0c.545.43.973.99 1.243 1.628a1.125 1.125 0 1 1-2.076.869c-.291-.698-1.047-1.184-1.836-1.184s-1.544.487-1.837 1.184a1.126 1.126 0 1 1-2.074-.869m2.786-3.69a1.125 1.125 0 1 0 2.25 0 1.125 1.125 0 0 0-2.25 0"/></svg>