<svg viewBox="0 0 25 24" xmlns="http://www.w3.org/2000/svg" aria-hidden="true" fill="currentColor"><path d="M15 8.813a3 3 0 1 0 0-6 3 3 0 0 0 0 6m0-3.75a.75.75 0 1 1 0 1.5.75.75 0 0 1 0-1.5m8.843 14.426-5.116-8.633a1.86 1.86 0 0 0-1.613-.918 1.86 1.86 0 0 0-1.612.918l-1.754 2.958-3.508-5.953a1.874 1.874 0 0 0-3.23 0L.156 19.49a1.125 1.125 0 0 0 .969 1.697h21.75a1.125 1.125 0 0 0 .968-1.7M8.625 9.55l1.553 2.637H7.073zm-5.531 9.388 2.651-4.5h5.76l2.651 4.5zm13.674 0-1.716-2.907 2.063-3.478 3.786 6.384z"/></svg>