<svg viewBox="0 0 24 24" xmlns="http://www.w3.org/2000/svg" aria-hidden="true" fill="currentColor"><path d="m8.479 10.182.585-.585a7.8 7.8 0 0 0-3.792-.971H3.75a1.125 1.125 0 0 1 0-2.25h1.522a10.06 10.06 0 0 1 7.16 2.966l3.773 3.774c1.006.025 2.072-.342 3.327-1.381a1.125 1.125 0 1 1 1.436 1.731c-1.703 1.413-3.244 1.91-4.642 1.91-1.852 0-3.455-.871-4.863-1.636-2.35-1.276-4.206-2.284-6.995.03a1.125 1.125 0 1 1-1.436-1.733c2.037-1.69 3.84-2.069 5.447-1.855m4.646-3.431a3.375 3.375 0 1 1 6.75 0 3.375 3.375 0 0 1-6.75 0m2.25 0a1.125 1.125 0 1 0 2.25 0 1.125 1.125 0 0 0-2.25 0m4.157 10.234c-2.79 2.313-4.646 1.305-6.995.028-2.47-1.34-5.544-3.01-9.505.274a1.125 1.125 0 1 0 1.436 1.732c2.79-2.312 4.645-1.305 6.995-.028 1.406.764 3.01 1.635 4.863 1.635 1.398 0 2.939-.496 4.642-1.909a1.125 1.125 0 1 0-1.436-1.732"/></svg>