<svg viewBox="0 0 24 24" xmlns="http://www.w3.org/2000/svg" aria-hidden="true" fill="currentColor"><g clip-path="url(#a)"><path d="M23.375 11.625h-3.804l-2.25-4.5H18.5a1.125 1.125 0 0 0 0-2.25h-12a1.125 1.125 0 0 0 0 2.25h1.18l-2.25 4.5H1.624a1.125 1.125 0 1 0 0 2.25h2.68l-1.81 3.622a1.124 1.124 0 1 0 2.01 1.006l2.316-4.628h11.358l2.315 4.628a1.123 1.123 0 0 0 1.521.527 1.125 1.125 0 0 0 .49-1.533l-1.81-3.622h2.68a1.125 1.125 0 1 0 0-2.25m-15.43 0 2.25-4.5h4.61l2.25 4.5z"/></g><defs><clipPath id="a"><path d="M0 0h24v24H0z"/></clipPath></defs></svg>