<svg viewBox="0 0 24 24" xmlns="http://www.w3.org/2000/svg" aria-hidden="true" fill="currentColor"><g clip-path="url(#a)"><path d="M24 12.75a1.125 1.125 0 0 1-1.125 1.125h-.75v.75a1.125 1.125 0 1 1-2.25 0v-.75h-.75a1.125 1.125 0 1 1 0-2.25h.75v-.75a1.125 1.125 0 1 1 2.25 0v.75h.75A1.125 1.125 0 0 1 24 12.75m-5.138 5.276a1.126 1.126 0 0 1-1.723 1.448c-1.284-1.529-3.545-3.35-7.014-3.35-2.708 0-5.2 1.19-7.013 3.35a1.126 1.126 0 0 1-1.723-1.448 11.6 11.6 0 0 1 4.564-3.351 6.75 6.75 0 1 1 8.344 0 11.6 11.6 0 0 1 4.565 3.351m-8.737-4.151a4.5 4.5 0 1 0 0-9 4.5 4.5 0 0 0 0 9"/></g><defs><clipPath id="a"><path d="M0 0h24v24H0z"/></clipPath></defs></svg>