<svg viewBox="0 0 24 24" xmlns="http://www.w3.org/2000/svg" aria-hidden="true" fill="currentColor"><g clip-path="url(#a)"><path d="M10.125 12a1.875 1.875 0 1 1 0-3.75 1.875 1.875 0 0 1 0 3.75m5.625-1.874a1.875 1.875 0 1 0 0 3.75 1.875 1.875 0 0 0 0-3.75M12 13.876a1.875 1.875 0 1 0 0 3.75 1.875 1.875 0 0 0 0-3.75M23.625 12a1.125 1.125 0 0 1-1.125 1.125h-1.193a9.34 9.34 0 0 1-1.933 4.658l.922.92a1.127 1.127 0 0 1-1.594 1.594l-.92-.921a9.34 9.34 0 0 1-4.657 1.931V22.5a1.125 1.125 0 1 1-2.25 0v-1.192a9.34 9.34 0 0 1-4.658-1.933l-.921.921a1.126 1.126 0 0 1-1.838-1.228c.056-.136.14-.26.244-.365l.922-.92a9.34 9.34 0 0 1-1.932-4.658H1.5a1.125 1.125 0 1 1 0-2.25h1.192a9.34 9.34 0 0 1 1.934-4.658l-.922-.92a1.127 1.127 0 0 1 1.594-1.594l.92.921a9.34 9.34 0 0 1 4.657-1.931V1.5a1.125 1.125 0 0 1 2.25 0v1.193a9.34 9.34 0 0 1 4.658 1.933l.921-.921a1.127 1.127 0 0 1 1.594 1.593l-.922.92a9.34 9.34 0 0 1 1.931 4.658H22.5A1.125 1.125 0 0 1 23.625 12m-4.5 0A7.125 7.125 0 1 0 12 19.125a7.133 7.133 0 0 0 7.125-7.124"/></g><defs><clipPath id="a"><path d="M0 0h24v24H0z"/></clipPath></defs></svg>