<svg aria-hidden="true" xmlns="http://www.w3.org/2000/svg" version="1.1" viewBox="0 0 52 52">  <path d="M26,0 C11.664,0 0,11.663 0,26 C0,40.337 11.664,52 26,52 C40.336,52 52,40.337 52,26 C52,11.663 40.336,0 26,0 L26,0 Z M40.495,17.329 L24.495,35.329 C24.101,35.772 23.552,36 22.999,36 C22.56,36 22.119,35.856 21.751,35.562 L11.75,27.562 C10.888,26.872 10.748,25.613 11.439,24.751 C12.128,23.888 13.387,23.748 14.25,24.438 L22.767,31.252 L37.505,14.671 C38.238,13.845 39.503,13.771 40.329,14.505 C41.154,15.239 41.229,16.503 40.495,17.329 L40.495,17.329 Z"></path></svg>
