<svg viewBox="0 0 24 24" xmlns="http://www.w3.org/2000/svg" aria-hidden="true" fill="currentColor" height="24px" width="24px"><path d="M17.875 7.125a1.5 1.5 0 1 1-3 0 1.5 1.5 0 0 1 3 0m4.5 2.132a7.904 7.904 0 0 1-7.865 7.618h-.01a7.8 7.8 0 0 1-2.217-.317l-.737.738a1.12 1.12 0 0 1-.796.329H9.625v1.125A1.125 1.125 0 0 1 8.5 19.875H7.375V21a1.125 1.125 0 0 1-1.125 1.125h-3a1.875 1.875 0 0 1-1.875-1.875v-2.69a1.86 1.86 0 0 1 .55-1.325l5.017-5.018a7.875 7.875 0 1 1 15.433-1.96m-3.897-4.235a5.58 5.58 0 0 0-4.166-1.647c-3 .094-5.437 2.615-5.437 5.615a5.6 5.6 0 0 0 .394 2.08 1.125 1.125 0 0 1-.24 1.238l-5.404 5.41v2.157h1.5V18.75a1.125 1.125 0 0 1 1.125-1.125h1.125V16.5A1.125 1.125 0 0 1 8.5 15.375h1.781l.905-.905a1.125 1.125 0 0 1 1.24-.239 5.6 5.6 0 0 0 2.074.394h.008c3 0 5.519-2.444 5.614-5.438a5.58 5.58 0 0 0-1.644-4.165"/></svg>