<svg viewBox="0 0 24 24" xmlns="http://www.w3.org/2000/svg" aria-hidden="true" fill="currentColor"><path d="M12.196 19.197c-3.163 0-6.048-1.192-8.343-3.447-1.724-1.695-2.508-3.384-2.54-3.455a.7.7 0 0 1-.004-.569c.033-.074.82-1.84 2.549-3.574 2.308-2.318 5.2-3.473 8.368-3.338 4.008.17 6.639 2.02 8.14 3.54 1.627 1.649 2.304 3.257 2.331 3.325.07.168.07.357.002.526-.03.072-.734 1.782-2.372 3.498-2.182 2.286-4.993 3.494-8.13 3.494M2.722 12c.283.517.98 1.664 2.14 2.794 2.052 2 4.52 3.014 7.334 3.014s5.157-1.018 7.092-3.028a11.6 11.6 0 0 0 2.002-2.831 10.9 10.9 0 0 0-1.951-2.659c-1.923-1.929-4.337-2.969-7.172-3.09-2.79-.117-5.243.857-7.291 2.897A12.4 12.4 0 0 0 2.722 12"/><path d="M12.093 16.922A4.93 4.93 0 0 1 7.17 12a4.93 4.93 0 0 1 4.923-4.923A4.93 4.93 0 0 1 17.015 12a4.93 4.93 0 0 1-4.922 4.923m0-8.457A3.54 3.54 0 0 0 8.559 12a3.54 3.54 0 0 0 3.534 3.535A3.54 3.54 0 0 0 15.627 12a3.54 3.54 0 0 0-3.534-3.534"/><path d="M12.17 16.228a4.228 4.228 0 1 1 0-8.457"/></svg>