<svg viewBox="0 0 24 24" xmlns="http://www.w3.org/2000/svg" aria-hidden="true" fill="currentColor" height="24px" width="24px"><path d="M22.126 22.002h-1.17v-12.6c0-.826-.674-1.5-1.5-1.5H4.643c-.827 0-1.5.674-1.5 1.5v12.6H1.875a.75.75 0 1 0 0 1.5h20.25a.75.75 0 1 0 0-1.5m-10.827 0H7.596v-9.817H11.3zm5.203 0H12.8v-9.817h3.703zm2.954 0h-1.454V11.435a.75.75 0 0 0-.75-.75H6.846a.75.75 0 0 0-.75.75v10.567H4.643v-12.6h14.813zM6.52 4.106l.988-.988v3.018a.75.75 0 1 0 1.5 0V3.118l.988.988a.75.75 0 0 0 1.061 0 .75.75 0 0 0 0-1.06L8.79.776 8.734.728l-.012-.01-.046-.034-.012-.007-.05-.03-.01-.005-.057-.027L8.54.612a1 1 0 0 0-.133-.04L8.389.569 8.335.56a.7.7 0 0 0-.205.01l-.017.003-.07.017-.063.023-.007.002q-.03.013-.057.027l-.01.005-.05.03-.012.007-.046.035-.013.01q-.028.022-.054.049L5.462 3.046a.75.75 0 0 0 1.06 1.06zm8.336 2.558.055.05.027.02q.015.013.032.024l.033.02.03.018q.018.007.035.017l.032.015.035.012.034.012.035.01.037.009.04.006.033.005a.7.7 0 0 0 .148 0l.034-.005.039-.005.038-.01q.017-.003.033-.008l.038-.013.031-.013.034-.015.033-.016.033-.02.03-.018.036-.026.024-.018.055-.05 2.269-2.27a.75.75 0 0 0-1.06-1.06l-.989.988V1.247a.75.75 0 1 0-1.5 0v3.077l-.988-.988a.75.75 0 0 0-1.06 1.06l2.269 2.27z"/></svg>