<svg viewBox="0 0 24 24" xmlns="http://www.w3.org/2000/svg" aria-hidden="true" fill="currentColor"><path d="M22.237 14.239a4 4 0 0 0-.22-.511l-3.899-8.87a.7.7 0 0 0-.156-.23 3 3 0 0 0-4.243 0 .75.75 0 0 0-.22.53V7.5h-3V5.157a.75.75 0 0 0-.218-.53 3 3 0 0 0-4.244 0 .7.7 0 0 0-.155.228l-3.9 8.87A4.5 4.5 0 1 0 10.5 15.75V9h3v6.75a4.5 4.5 0 1 0 8.738-1.511M7.192 5.602A1.5 1.5 0 0 1 9 5.51v6.89a4.49 4.49 0 0 0-4.387-.93zM6 18.751a3 3 0 1 1 0-6 3 3 0 0 1 0 6m9-13.243a1.5 1.5 0 0 1 1.808.093l2.579 5.867A4.49 4.49 0 0 0 15 12.4zm3 13.243a3 3 0 1 1 0-6.001 3 3 0 0 1 0 6"/></svg>