<svg viewBox="0 0 24 24" xmlns="http://www.w3.org/2000/svg" aria-hidden="true" fill="currentColor" height="24px" width="24px"><path d="M13.5 16.876a1.5 1.5 0 1 1-3 0 1.5 1.5 0 0 1 3 0M22.125 12A10.124 10.124 0 1 1 12 1.876 10.136 10.136 0 0 1 22.125 12m-2.25 0A7.875 7.875 0 1 0 12 19.876a7.883 7.883 0 0 0 7.875-7.874M12 6C9.726 6 7.875 7.682 7.875 9.75v.376a1.125 1.125 0 1 0 2.25 0V9.75c0-.826.844-1.5 1.875-1.5s1.875.674 1.875 1.5c0 .827-.844 1.5-1.875 1.5a1.125 1.125 0 0 0-1.125 1.126v.75a1.125 1.125 0 0 0 2.225.24c1.742-.44 3.025-1.893 3.025-3.616C16.125 7.682 14.275 6 12 6"/></svg>