<svg viewBox="0 0 24 24" xmlns="http://www.w3.org/2000/svg" aria-hidden="true" fill="currentColor"><path d="m18.197 10.427 2.551-2.401.024-.025A3.375 3.375 0 0 0 16 3.228l-.025.025-2.4 2.55-7.556-2.745a1.13 1.13 0 0 0-1.18.261L2.59 5.57a1.125 1.125 0 0 0 .171 1.735l5.61 3.739-.954.948H5.635c-.298 0-.584.119-.795.33l-2.25 2.25a1.125 1.125 0 0 0 .375 1.839l3.303 1.322 1.318 3.294.008.02a1.126 1.126 0 0 0 1.853.347l2.232-2.232a1.13 1.13 0 0 0 .33-.795v-1.781l.95-.95 3.738 5.605a1.125 1.125 0 0 0 1.732.171l2.25-2.25a1.13 1.13 0 0 0 .261-1.18zm-.385 8.423-3.74-5.61a1.125 1.125 0 0 0-1.733-.169l-2.25 2.25c-.21.211-.33.497-.33.795v1.782l-.714.714-.866-2.166a1.13 1.13 0 0 0-.627-.627l-2.166-.866.717-.712h1.782c.298 0 .584-.118.795-.329l2.25-2.25a1.125 1.125 0 0 0-.17-1.733L5.15 6.19l.772-.773 7.578 2.755a1.13 1.13 0 0 0 1.204-.286l2.896-3.077a1.127 1.127 0 1 1 1.594 1.594l-3.077 2.896a1.13 1.13 0 0 0-.287 1.204l2.756 7.576z"/></svg>