<svg viewBox="0 0 24 24" xmlns="http://www.w3.org/2000/svg" aria-hidden="true" fill="currentColor"><path d="M21.273 11.625A.75.75 0 0 1 21 12.648l-9 5.25a.75.75 0 0 1-.756 0l-9-5.25A.75.75 0 0 1 3 11.353l8.625 5.03 8.625-5.03a.75.75 0 0 1 1.023.272M1.875 7.5a.75.75 0 0 1 .375-.647l9-5.25a.75.75 0 0 1 .756 0l9 5.25a.75.75 0 0 1 0 1.295l-9 5.25a.75.75 0 0 1-.756 0l-9-5.25a.75.75 0 0 1-.375-.648m2.239 0 7.51 4.382L19.137 7.5l-7.512-4.38zM21.374 18h-1.5v-1.5a.75.75 0 1 0-1.5 0V18h-1.5a.75.75 0 0 0 0 1.5h1.5V21a.75.75 0 0 0 1.5 0v-1.5h1.5a.75.75 0 1 0 0-1.5m-8.624 2.228-1.125.656L3 15.853a.75.75 0 0 0-.75 1.295l9 5.25a.75.75 0 0 0 .756 0l1.5-.875a.751.751 0 0 0-.478-1.394.8.8 0 0 0-.278.099"/></svg>