<svg viewBox="0 0 24 24" xmlns="http://www.w3.org/2000/svg" aria-hidden="true" fill="currentColor" height="24px" width="24px"><path d="M6.875 9.375A1.125 1.125 0 0 1 8 8.25h9a1.125 1.125 0 0 1 0 2.25H8a1.125 1.125 0 0 1-1.125-1.125M8 14.25h9A1.125 1.125 0 1 0 17 12H8a1.125 1.125 0 1 0 0 2.25m14.625-9V19.5a1.125 1.125 0 0 1-1.628 1.006L18.5 19.258l-2.497 1.248a1.13 1.13 0 0 1-1.006 0L12.5 19.258l-2.497 1.248a1.13 1.13 0 0 1-1.006 0L6.5 19.258l-2.497 1.248A1.124 1.124 0 0 1 2.375 19.5V5.25A1.875 1.875 0 0 1 4.25 3.375h16.5a1.875 1.875 0 0 1 1.875 1.875m-2.25.375H4.625v12.054l1.372-.685a1.13 1.13 0 0 1 1.006 0L9.5 18.242l2.497-1.248a1.13 1.13 0 0 1 1.006 0l2.497 1.248 2.497-1.248a1.13 1.13 0 0 1 1.006 0l1.372.685z"/></svg>