<svg viewBox="0 0 24 24" xmlns="http://www.w3.org/2000/svg" aria-hidden="true" fill="currentColor"><path d="M22.471 15.938a1.125 1.125 0 0 1-.409 1.534l-9 5.25a1.13 1.13 0 0 1-1.134 0l-9-5.25a1.125 1.125 0 0 1 1.134-1.944l8.437 4.92 8.439-4.92a1.125 1.125 0 0 1 1.533.41m-1.533-4.91-8.438 4.92-8.433-4.92a1.125 1.125 0 0 0-1.13 1.944l9 5.25a1.13 1.13 0 0 0 1.135 0l9-5.25a1.126 1.126 0 0 0-1.134-1.944M2.375 7.5a1.13 1.13 0 0 1 .563-.972l9-5.25a1.13 1.13 0 0 1 1.134 0l9 5.25a1.126 1.126 0 0 1 0 1.944l-9 5.25a1.13 1.13 0 0 1-1.134 0l-9-5.25a1.13 1.13 0 0 1-.563-.972m3.358 0 6.767 3.948L19.267 7.5 12.5 3.552z"/></svg>