<svg viewBox="0 0 24 24" xmlns="http://www.w3.org/2000/svg" aria-hidden="true" fill="currentColor" height="24px" width="24px"><path d="M16.61 19.779a1.126 1.126 0 1 1-1.516 1.666A19.08 19.08 0 0 0 2.25 16.487a1.125 1.125 0 1 1 0-2.25 21.32 21.32 0 0 1 14.36 5.542m-7.007-.188a17.5 17.5 0 0 0-7.353-1.604 1.125 1.125 0 1 0 0 2.25 15.2 15.2 0 0 1 6.413 1.397 1.126 1.126 0 0 0 1.543-1.415 1.12 1.12 0 0 0-.605-.63zm13.272-4.229a1.125 1.125 0 0 1-1.125 1.125q-1.48 0-2.942.225a25.3 25.3 0 0 1 3.055 3.196 1.125 1.125 0 1 1-1.755 1.406A22.78 22.78 0 0 0 2.25 12.737a1.125 1.125 0 1 1 0-2.25c1.382 0 2.761.113 4.125.338V7.862a1.13 1.13 0 0 1 .45-.9l6-4.5a1.125 1.125 0 0 1 1.35 0l6 4.5a1.12 1.12 0 0 1 .45.9v2.652q.563-.026 1.125-.027a1.125 1.125 0 1 1 0 2.25 22.8 22.8 0 0 0-6.977 1.083q.87.502 1.702 1.075a21.4 21.4 0 0 1 5.275-.658 1.125 1.125 0 0 1 1.125 1.125m-8.25-4.875h-2.25v1.81q1.11-.447 2.25-.787zm-6 .815q.758.198 1.5.443V9.362a1.125 1.125 0 0 1 1.125-1.125h4.5a1.125 1.125 0 0 1 1.125 1.125v1.594q.75-.146 1.5-.248V8.425L13.5 4.769 8.625 8.425z"/></svg>