<svg viewBox="0 0 24 24" xmlns="http://www.w3.org/2000/svg" aria-hidden="true" fill="currentColor" height="24px" width="24px"><g clip-path="url(#a)"><path d="M6.875 5.625A6.375 6.375 0 1 0 13.25 12a6.38 6.38 0 0 0-6.375-6.375m0 10.5a4.125 4.125 0 1 1 0-8.25 4.125 4.125 0 0 1 0 8.25m10.875-10.5c-2.215 0-3.375 3.207-3.375 6.375s1.16 6.375 3.375 6.375 3.375-3.207 3.375-6.375-1.16-6.375-3.375-6.375m0 10.488c-.35-.203-1.125-1.602-1.125-4.113 0-2.51.774-3.91 1.125-4.113.35.203 1.125 1.602 1.125 4.113 0 2.51-.774 3.91-1.125 4.113M24.5 6.75v10.5a1.125 1.125 0 1 1-2.25 0V6.75a1.125 1.125 0 1 1 2.25 0"/></g><defs><clipPath id="a"><path d="M0 0h24v24H0z"/></clipPath></defs></svg>