<svg viewBox="0 0 24 24" xmlns="http://www.w3.org/2000/svg" aria-hidden="true" fill="currentColor"><path d="m22.294 6.266-1.81-1.811a1.127 1.127 0 1 0-1.594 1.593l1.813 1.809a.38.38 0 0 1 .11.265v7.441a.562.562 0 0 1-1.125 0v-3.562a2.625 2.625 0 0 0-2.625-2.626h-1.125V5.25a2.625 2.625 0 0 0-2.626-2.625h-7.5A2.625 2.625 0 0 0 3.188 5.25v13.875H2.064a1.125 1.125 0 1 0 0 2.25h15a1.125 1.125 0 1 0 0-2.25h-1.125v-7.5h1.124a.375.375 0 0 1 .375.376v3.562a2.812 2.812 0 1 0 5.625 0V8.122a2.6 2.6 0 0 0-.768-1.856M5.438 19.126V5.25a.375.375 0 0 1 .375-.375h7.5a.375.375 0 0 1 .374.375v13.875zm6.75-8.625a1.125 1.125 0 0 1-1.126 1.125h-3a1.125 1.125 0 1 1 0-2.25h3a1.125 1.125 0 0 1 1.126 1.125"/></svg>