<svg viewBox="0 0 24 24" xmlns="http://www.w3.org/2000/svg" aria-hidden="true" fill="currentColor" height="24px" width="24px"><path d="M14.125 10.5A1.125 1.125 0 0 1 13 11.625h-1.875V13.5a1.125 1.125 0 1 1-2.25 0v-1.875H7a1.125 1.125 0 1 1 0-2.25h1.875V7.5a1.125 1.125 0 0 1 2.25 0v1.875H13a1.125 1.125 0 0 1 1.125 1.125m7.17 11.296a1.125 1.125 0 0 1-1.593 0l-4.452-4.452a8.636 8.636 0 1 1 1.594-1.594l4.457 4.456a1.125 1.125 0 0 1-.005 1.59M10 16.875A6.375 6.375 0 1 0 3.625 10.5 6.383 6.383 0 0 0 10 16.875"/></svg>