<svg viewBox="0 0 24 24" xmlns="http://www.w3.org/2000/svg" aria-hidden="true" fill="currentColor"><g clip-path="url(#a)"><path d="M21.5 6.666a.75.75 0 0 1-1.01-.321 8.8 8.8 0 0 0-3.137-3.46.751.751 0 0 1 .8-1.27 10.45 10.45 0 0 1 3.668 4.04.75.75 0 0 1-.321 1.01M3.848 6.75a.75.75 0 0 0 .665-.405 8.8 8.8 0 0 1 3.137-3.46.75.75 0 0 0-.8-1.27 10.45 10.45 0 0 0-3.668 4.04.75.75 0 0 0 .666 1.095m17.447 9.744A1.5 1.5 0 0 1 20 18.75h-3.825a3.75 3.75 0 0 1-7.35 0H5a1.5 1.5 0 0 1-1.293-2.256C4.552 15.037 5 12.964 5 10.5a7.5 7.5 0 0 1 15 0c0 2.463.448 4.536 1.295 5.994M14.62 18.75h-4.242a2.25 2.25 0 0 0 4.242 0m5.38-1.5c-.997-1.713-1.5-3.983-1.5-6.75a6 6 0 1 0-12 0c0 2.768-.504 5.038-1.5 6.75z"/></g><defs><clipPath id="a"><path d="M0 0h24v24H0z"/></clipPath></defs></svg>