<svg viewBox="0 0 24 24" xmlns="http://www.w3.org/2000/svg" aria-hidden="true" fill="currentColor"><path d="M15.375 8.625a2.625 2.625 0 1 0 0-5.25 2.625 2.625 0 0 0 0 5.25m0-3.75a1.125 1.125 0 1 1 0 2.25 1.125 1.125 0 0 1 0-2.25m8.52 14.618L18.78 10.86a1.49 1.49 0 0 0-1.291-.735 1.49 1.49 0 0 0-1.29.735L13.746 15 9.543 7.866a1.5 1.5 0 0 0-2.586 0L.104 19.494a.75.75 0 0 0 .646 1.131h22.5a.75.75 0 0 0 .645-1.133M8.25 8.625l2.21 3.75H6.04zm-6.188 10.5 3.094-5.25h6.188l1.757 2.981 1.336 2.269zm14.116 0-1.562-2.651 2.873-4.849 4.448 7.5z"/></svg>