<svg viewBox="0 0 24 24" xmlns="http://www.w3.org/2000/svg" aria-hidden="true" fill="currentColor"><path d="M18.572 5.868a7.125 7.125 0 0 0-13.144 0A6.72 6.72 0 0 0 1.5 11.98c-.01 3.582 3 6.675 6.576 6.77 1.1.026 2.19-.217 3.174-.707v3.706a.75.75 0 1 0 1.5 0v-3.706a6.8 6.8 0 0 0 3 .706h.17c3.58-.094 6.59-3.187 6.58-6.769a6.72 6.72 0 0 0-3.928-6.113M15.886 17.25a5.26 5.26 0 0 1-3.136-.937v-3.844l4.086-2.042a.75.75 0 1 0-.672-1.343l-3.414 1.703V8.25a.75.75 0 1 0-1.5 0v4.787l-3.414-1.708a.75.75 0 0 0-.672 1.342l4.086 2.042v1.594a5.25 5.25 0 0 1-3.136.938c-2.78-.067-5.121-2.477-5.114-5.26a5.23 5.23 0 0 1 3.292-4.86.75.75 0 0 0 .424-.438 5.625 5.625 0 0 1 10.568 0 .75.75 0 0 0 .424.438A5.23 5.23 0 0 1 21 11.985c.008 2.783-2.334 5.193-5.114 5.265"/></svg>