<svg viewBox="0 0 24 24" xmlns="http://www.w3.org/2000/svg" aria-hidden="true" fill="currentColor" height="24px" width="24px"><g clip-path="url(#a)"><path d="M11.248 12.376a1.499 1.499 0 1 1-2.998 0 1.499 1.499 0 0 1 2.998 0m3-1.5a1.5 1.5 0 1 0 0 3 1.5 1.5 0 0 0 0-3m8.95 1.186a1.88 1.88 0 0 1-1.45.689h-2.626v3.285A3.563 3.563 0 0 1 17.06 22.5H6.935a3.563 3.563 0 0 1-2.062-6.464V12.75H2.248a1.875 1.875 0 0 1-1.839-2.234A5.64 5.64 0 0 1 5.284 6.04a5.6 5.6 0 0 1-1.161-3.414 1.125 1.125 0 1 1 2.25 0A3.375 3.375 0 0 0 9.748 6h4.5a3.375 3.375 0 0 0 3.374-3.375 1.125 1.125 0 0 1 2.25 0 5.6 5.6 0 0 1-1.157 3.414 5.64 5.64 0 0 1 4.875 4.477 1.86 1.86 0 0 1-.391 1.546M7.124 15.376h9.75v-5.25a1.875 1.875 0 0 0-1.876-1.876h-6a1.875 1.875 0 0 0-1.874 1.876zM5.294 8.31a3.39 3.39 0 0 0-2.553 2.19h2.132v-.374c-.001-.63.143-1.25.421-1.816m13.079 10.628a1.313 1.313 0 0 0-1.313-1.312H6.935a1.313 1.313 0 0 0 0 2.624H17.06a1.313 1.313 0 0 0 1.313-1.312m2.881-8.437a3.39 3.39 0 0 0-2.553-2.19c.278.564.422 1.185.421 1.815v.375z"/></g><defs><clipPath id="a"><path d="M0 0h24v24H0z"/></clipPath></defs></svg>