<svg viewBox="0 0 24 24" xmlns="http://www.w3.org/2000/svg" aria-hidden="true" fill="currentColor" height="24px" width="24px"><path d="M20.625 10.5v9a1.875 1.875 0 0 1-1.875 1.875H5.25A1.875 1.875 0 0 1 3.375 19.5v-9A1.875 1.875 0 0 1 5.25 8.625h1.875a1.125 1.125 0 0 1 0 2.25h-1.5v8.25h12.75v-8.25h-1.5a1.125 1.125 0 1 1 0-2.25h1.875a1.875 1.875 0 0 1 1.875 1.875M9.045 6.796l1.83-1.827v7.78a1.125 1.125 0 1 0 2.25 0V4.97l1.83 1.83a1.126 1.126 0 0 0 1.923-.797 1.13 1.13 0 0 0-.33-.797l-3.75-3.75a1.125 1.125 0 0 0-1.594 0l-3.75 3.75A1.127 1.127 0 0 0 9.048 6.8z"/></svg>