<svg viewBox="0 0 24 24" xmlns="http://www.w3.org/2000/svg" aria-hidden="true" fill="currentColor"><path d="M12 2.25a9.75 9.75 0 0 0 0 19.5.75.75 0 0 0 .469-1.334c-.105-.085-1.958-1.623-2.912-4.665h2.437a.75.75 0 1 0 0-1.5h-2.8a13.1 13.1 0 0 1 0-4.5h5.615c.129.742.193 1.495.19 2.25a.75.75 0 0 0 1.5 0 14.5 14.5 0 0 0-.172-2.25h3.61c.208.731.314 1.489.313 2.25a.75.75 0 0 0 1.5 0A9.76 9.76 0 0 0 12 2.25m-1.914 1.725a12.7 12.7 0 0 0-2.09 4.275H4.653a8.28 8.28 0 0 1 5.434-4.275m0 16.05a8.28 8.28 0 0 1-5.437-4.274h3.347a12.7 12.7 0 0 0 2.09 4.275m-2.414-5.774h-3.61a8.26 8.26 0 0 1 0-4.5h3.61a14.8 14.8 0 0 0 0 4.5m1.89-6A10.8 10.8 0 0 1 12 4.03a10.8 10.8 0 0 1 2.437 4.22zm6.446 0a12.7 12.7 0 0 0-2.09-4.276 8.28 8.28 0 0 1 5.437 4.275zm4.776 8.03-1.724 1.72 1.72 1.719a.75.75 0 0 1-1.06 1.061L18 19.061l-1.72 1.72a.75.75 0 0 1-1.06-1.061L16.94 18l-1.72-1.719a.75.75 0 1 1 1.06-1.061L18 16.94l1.72-1.72a.75.75 0 1 1 1.06 1.061z"/></svg>