<svg viewBox="0 0 24 24" xmlns="http://www.w3.org/2000/svg" aria-hidden="true" fill="currentColor" height="24px" width="24px"><path d="M20.25 4.688h-3.375V3.563A2.625 2.625 0 0 0 14.25.938h-4.5a2.625 2.625 0 0 0-2.625 2.625v1.124H3.75a1.125 1.125 0 0 0 0 2.25h.375v12.75A1.875 1.875 0 0 0 6 21.563h12a1.875 1.875 0 0 0 1.875-1.875V6.938h.375a1.125 1.125 0 0 0 0-2.25M9.375 3.563a.375.375 0 0 1 .375-.376h4.5a.375.375 0 0 1 .375.376v1.124h-5.25zm8.25 15.75H6.375V6.938h11.25zm-6.75-9.375v6a1.125 1.125 0 1 1-2.25 0v-6a1.125 1.125 0 0 1 2.25 0m4.5 0v6a1.125 1.125 0 1 1-2.25 0v-6a1.125 1.125 0 1 1 2.25 0"/></svg>