<svg viewBox="0 0 24 24" xmlns="http://www.w3.org/2000/svg" aria-hidden="true" fill="currentColor"><path d="m22.061 7.628-5.69-5.688a1.5 1.5 0 0 0-2.121 0L9.222 6.983c-1-.313-3.281-.69-5.662 1.232a1.5 1.5 0 0 0-.121 2.23l4.53 4.528-4 3.996a.75.75 0 1 0 1.062 1.062l3.996-4 4.527 4.528a1.5 1.5 0 0 0 1.062.441h.106a1.5 1.5 0 0 0 1.09-.593c1.842-2.447 1.665-4.437 1.237-5.625l5.013-5.032a1.5 1.5 0 0 0 0-2.122M21 8.69l-5.37 5.387a.75.75 0 0 0-.139.864c.887 1.775-.168 3.618-.875 4.558L4.5 9.383c1.132-.914 2.216-1.155 3.045-1.155a3.8 3.8 0 0 1 1.53.303.75.75 0 0 0 .868-.141L15.311 3z"/></svg>