<svg viewBox="0 0 24 24" xmlns="http://www.w3.org/2000/svg" aria-hidden="true" fill="currentColor"><path d="M11.03 21.626q-.3 0-.595-.052c-1.518-.269-2.622-1.542-3.282-3.783l-1.932-6.787c-.25-.844-.51-1.011-.609-1.043-.117-.038-.482-.048-1.36.677a.7.7 0 0 1-.53.174c-.469-.042-.66-.385-1.463-1.83-.117-.21-.26-.466-.323-.57l-.025-.03a.776.776 0 0 1 .102-1.057c.235-.201.513-.45.806-.712C3.96 4.695 6.893 2.068 9.184 2.937c1.14.433 1.883 1.657 2.208 3.637l1.464 6.747c.043.109.074.221.103.333.303-.476.819-1.319 1.277-2.223 1.204-2.379.888-2.944.885-2.949-.002-.002-.26-.212-1.38.166a.69.69 0 0 1-.72-.179.78.78 0 0 1-.184-.753c.71-2.45 2.139-4.193 4.023-4.906 1.735-.7 3.667-.549 4.924.387.697.52 1.516 1.514 1.464 3.306.067 3.347-1.978 6.125-3.78 8.578l-.08.106c-.506.72-4.646 6.44-8.355 6.44zM4.515 8.446q.26-.002.52.081c.707.23 1.216.897 1.555 2.04l1.932 6.789c.485 1.649 1.21 2.573 2.151 2.74q.176.03.36.031c2.272 0 5.503-3.412 7.205-5.835l.01-.013.084-.114c1.662-2.26 3.547-4.821 3.483-7.647v-.043c.03-.915-.26-1.606-.861-2.054-.865-.644-2.306-.727-3.586-.208l-.016.007c-1.369.515-2.197 1.667-2.687 2.708a3 3 0 0 1 .346.003c.694.051 1.07.39 1.263.666.604.864.356 2.31-.78 4.551a29 29 0 0 1-1.627 2.775.7.7 0 0 1-.18.185c-.446.32-.865.407-1.244.261-.578-.222-.739-.839-.846-1.248-.022-.081-.054-.205-.072-.244a1 1 0 0 1-.05-.155L9.99 6.888l-.008-.042c-.23-1.42-.663-2.26-1.288-2.497C7.188 3.777 4.3 6.365 2.75 7.754l-.346.308.092.164c.112.202.29.523.45.796.467-.313 1.01-.576 1.57-.576"/></svg>