<svg 
    width="21"
    height="25"
    xmlns="http://www.w3.org/2000/svg"
    viewBox="0 0 21 25"
>
    <path d="M10.399 0a6.491 6.491 0 016.487 6.258l.004.233-.001 3.853h2.077c.952 0 1.724.773 1.724 1.725v11.207c0 .952-.772 1.724-1.724 1.724H1.724A1.724 1.724 0 010 23.276V12.069c0-.952.772-1.724 1.724-1.724l2.184-.001V6.491l.004-.233A6.491 6.491 0 0110.4 0zm0 1.517A4.974 4.974 0 005.43 6.275l-.005.216v3.853h9.947V6.491l-.004-.216a4.974 4.974 0 00-4.97-4.758z" fill-rule="evenodd"
    />
</svg>