<svg viewBox="0 0 24 24" xmlns="http://www.w3.org/2000/svg" aria-hidden="true" fill="currentColor"><path d="M16.125 13.126A1.125 1.125 0 0 1 15 14.25h-1.875v1.874a1.125 1.125 0 1 1-2.25 0v-1.874H9A1.125 1.125 0 1 1 9 12h1.875v-1.875a1.125 1.125 0 0 1 2.25 0V12H15a1.125 1.125 0 0 1 1.125 1.125m6-5.25v10.5A2.625 2.625 0 0 1 19.5 21h-15a2.625 2.625 0 0 1-2.625-2.625v-10.5A2.625 2.625 0 0 1 4.5 5.25h2.398l.943-1.414A1.88 1.88 0 0 1 9.401 3H14.6a1.88 1.88 0 0 1 1.56.836l.943 1.414H19.5a2.625 2.625 0 0 1 2.625 2.625m-2.25 0A.375.375 0 0 0 19.5 7.5h-3a1.13 1.13 0 0 1-.938-.5l-1.164-1.75H9.602L8.437 7a1.13 1.13 0 0 1-.937.5h-3a.375.375 0 0 0-.375.375v10.5a.375.375 0 0 0 .375.375h15a.375.375 0 0 0 .375-.375z"/></svg>