<svg viewBox="0 0 24 24" xmlns="http://www.w3.org/2000/svg" aria-hidden="true" fill="currentColor"><path d="M6.322 17.01a.68.68 0 0 1-.68-.68V8.134a.68.68 0 1 1 1.36 0v8.194a.68.68 0 0 1-.68.68"/><path d="M7.268 16.064H5.377a2.26 2.26 0 0 1-2.256-2.256.68.68 0 1 1 1.36 0c0 .494.402.896.896.896h1.89a.897.897 0 0 0 0-1.791H5.693a2.26 2.26 0 0 1-2.256-2.256 2.26 2.26 0 0 1 2.256-2.256h1.261a2.26 2.26 0 0 1 2.256 2.256.68.68 0 1 1-1.36 0 .897.897 0 0 0-.896-.895H5.692a.897.897 0 0 0 0 1.79h1.576a2.26 2.26 0 0 1 2.255 2.256 2.26 2.26 0 0 1-2.255 2.256m6.258.296h-1.493a.68.68 0 1 1 0-1.36h1.493a.68.68 0 1 1 0 1.36m5.59 0h-3.392a.68.68 0 1 1 0-1.36h3.393a.68.68 0 1 1 0 1.36m0-2.354h-1.729a.68.68 0 1 1 0-1.36h1.73a.68.68 0 1 1 0 1.36m-5.257.238h-2.72a.68.68 0 0 1-.681-.68v-2.722a.68.68 0 0 1 .199-.48l8.163-8.163a.68.68 0 0 1 .962 0l2.72 2.721a.68.68 0 0 1 0 .963l-8.162 8.163a.68.68 0 0 1-.482.198zm-2.04-1.36h1.759L21.06 5.4 19.3 3.641l-7.482 7.483z"/><path d="M19.981 8.121a.68.68 0 0 1-.48-.199l-2.722-2.72a.68.68 0 0 1 .962-.962l2.72 2.72a.68.68 0 0 1-.48 1.161"/><path d="M21.39 20.034H2.61c-.75 0-1.36-.61-1.36-1.36V6.129c0-.75.61-1.36 1.36-1.36h10.14a.68.68 0 1 1 0 1.36H2.61v12.545h18.78v-9.51a.68.68 0 1 1 1.36 0v9.51c0 .75-.61 1.36-1.36 1.36"/></svg>