<svg viewBox="0 0 24 24" xmlns="http://www.w3.org/2000/svg" aria-hidden="true" fill="currentColor"><path d="M20.329 19.495a1.125 1.125 0 1 1-1.665 1.513l-3.127-3.439q-.268.056-.54.057a2.625 2.625 0 0 1-2.626-2.625q0-.417.08-.827l-3.354-3.689a1.124 1.124 0 0 1-1.976-.734c0-.425.055-.848.164-1.259L6.14 7.23a6.35 6.35 0 0 0-.518 2.521c0 2.344.71 3.028 1.533 3.821.822.794 1.842 1.777 1.842 4.054a3 3 0 0 0 3 3c.844 0 1.518-.347 2.133-1.091a1.125 1.125 0 0 1 1.734 1.432c-1.046 1.267-2.347 1.91-3.867 1.91a5.255 5.255 0 0 1-5.25-5.25c0-1.322-.434-1.74-1.154-2.438-.99-.951-2.22-2.139-2.22-5.438A8.56 8.56 0 0 1 4.52 5.45l-.856-.938a1.126 1.126 0 1 1 1.665-1.517zM9.309 3.968a6.382 6.382 0 0 1 9.062 5.783 1.125 1.125 0 1 0 2.25 0A8.625 8.625 0 0 0 8.36 1.93a1.125 1.125 0 0 0 .95 2.039m6.103 7.594q.125.03.254.03a1.126 1.126 0 0 0 1.096-.872c.073-.317.11-.643.11-.969A4.88 4.88 0 0 0 11.516 4.9a1.125 1.125 0 1 0 .219 2.24q.13-.014.26-.014a2.625 2.625 0 0 1 2.625 2.625q0 .232-.05.458a1.125 1.125 0 0 0 .84 1.35z"/></svg>