<svg viewBox="0 0 24 24" xmlns="http://www.w3.org/2000/svg" aria-hidden="true" fill="currentColor"><path d="M21 4.5H3c-.827 0-1.5.673-1.5 1.5v12c0 .826.673 1.5 1.5 1.5h18c.827 0 1.5-.674 1.5-1.5V6c0-.827-.673-1.5-1.5-1.5M21 18H3V6h18z"/><path d="M5.197 15.764a.75.75 0 0 0 1.006-.336l.56-1.12h3.679l.56 1.12a.75.75 0 0 0 1.341-.671l-3.07-6.14a.749.749 0 0 0-1.343 0L5.64 13.198l-.005.01-.774 1.548a.75.75 0 0 0 .335 1.006zm3.406-5.135 1.09 2.179h-2.18zm5.927 5.261h.78c3.234-.05 4.096-2.455 4.096-3.868 0-1.658-.834-2.565-1.535-3.034-.995-.666-2.13-.738-2.573-.738h-.768a.75.75 0 0 0-.75.75v6.14c0 .415.336.75.75.75m.75-6.14h.018c.436 0 2.608.11 2.608 2.272 0 .13-.02.812-.428 1.404-.429.623-1.165.947-2.187.964h-.01z"/></svg>