<svg viewBox="0 0 24 24" xmlns="http://www.w3.org/2000/svg" aria-hidden="true" fill="currentColor" height="24px" width="24px"><path d="M20.434 7.497v-2.4q0-.056-.005-.112-.005-.042-.012-.082l-.005-.028a1 1 0 0 0-.024-.096l-.003-.01a1 1 0 0 0-.034-.095l-.003-.008-.04-.085-.007-.015-.044-.074-.012-.02q-.023-.034-.048-.065-.007-.011-.018-.023a1 1 0 0 0-.066-.073l-.008-.009L16.46.656 16.451.65a1 1 0 0 0-.073-.067l-.025-.018q-.03-.025-.064-.048l-.022-.013-.073-.044-.015-.007-.085-.04-.01-.004-.093-.034-.012-.003a1 1 0 0 0-.094-.023l-.028-.005q-.041-.008-.081-.012a1 1 0 0 0-.113-.006H8.688c-.907 0-1.645.738-1.645 1.646v5.527q-.172.015-.337.047a1.924 1.924 0 0 0-1.851-1.41H2.189c-1.06 0-1.922.861-1.922 1.922v10.076c0 1.06.861 1.922 1.922 1.922h2.666c.848 0 1.568-.553 1.822-1.316h.426v3.786c0 .622.504 1.125 1.125 1.125H19.36c.622 0 1.125-.503 1.125-1.125V18.74h1.391c.622 0 1.125-.504 1.125-1.125v-7.5c0-1.389-1.135-2.529-2.567-2.619zm-5.895-4.92v2.52c0 .622.504 1.125 1.125 1.125h2.52v1.269h-8.89V2.577zM4.527 17.807h-2.01v-9.42h2.01zm13.707 3.595h-8.88v-5.395h8.88zm2.251-4.911v-1.61c0-.62-.503-1.124-1.125-1.124H8.229c-.622 0-1.125.503-1.125 1.125v1.609h-.326v-6.375c0-.204.229-.375.5-.375h12.975c.27 0 .5.171.5.375v6.375z"/><path d="M17.751 13.116a1.125 1.125 0 1 0 0-2.25 1.125 1.125 0 0 0 0 2.25m-6.957 5.399h6a1.125 1.125 0 1 0 0-2.25h-6a1.125 1.125 0 1 0 0 2.25m0 2.545h3.19a1.125 1.125 0 1 0 0-2.25h-3.19a1.125 1.125 0 1 0 0 2.25"/></svg>