<svg width="24" height="24" viewBox="0 0 24 24" fill="none" xmlns="http://www.w3.org/2000/svg">
<path d="M20.875 12C20.875 12.2984 20.7565 12.5845 20.5455 12.7955C20.3345 13.0065 20.0484 13.125 19.75 13.125H12.625V20.25C12.625 20.5484 12.5065 20.8345 12.2955 21.0455C12.0845 21.2565 11.7984 21.375 11.5 21.375C11.2016 21.375 10.9155 21.2565 10.7045 21.0455C10.4935 20.8345 10.375 20.5484 10.375 20.25V13.125H3.25C2.95163 13.125 2.66548 13.0065 2.4545 12.7955C2.24353 12.5845 2.125 12.2984 2.125 12C2.125 11.7016 2.24353 11.4155 2.4545 11.2045C2.66548 10.9935 2.95163 10.875 3.25 10.875H10.375V3.75C10.375 3.45163 10.4935 3.16548 10.7045 2.9545C10.9155 2.74353 11.2016 2.625 11.5 2.625C11.7984 2.625 12.0845 2.74353 12.2955 2.9545C12.5065 3.16548 12.625 3.45163 12.625 3.75V10.875H19.75C20.0484 10.875 20.3345 10.9935 20.5455 11.2045C20.7565 11.4155 20.875 11.7016 20.875 12Z" fill="black"/>
</svg>
