<svg viewBox="0 0 24 24" xmlns="http://www.w3.org/2000/svg" aria-hidden="true" fill="currentColor"><path d="M20.25 9.002a8.25 8.25 0 1 0-13.5 6.36v7.14a.75.75 0 0 0 1.086.672L12 21.096l4.165 2.082c.105.05.22.076.335.075a.75.75 0 0 0 .75-.75V15.36a8.24 8.24 0 0 0 3-6.359m-15 0a6.75 6.75 0 1 1 6.75 6.75 6.757 6.757 0 0 1-6.75-6.75m10.5 12.287-3.415-1.707a.75.75 0 0 0-.672 0L8.25 21.29v-4.94a8.24 8.24 0 0 0 7.5 0zM12 14.252a5.25 5.25 0 1 0 0-10.5 5.25 5.25 0 0 0 0 10.5m0-9a3.75 3.75 0 1 1 0 7.5 3.75 3.75 0 0 1 0-7.5"/></svg>