<svg viewBox="0 0 24 24" xmlns="http://www.w3.org/2000/svg" aria-hidden="true" fill="currentColor" height="24px" width="24px"><path d="M18.373 22.5a.75.75 0 0 1-.744-.658l-.75-6a.75.75 0 0 1 .295-.693 6.78 6.78 0 0 0 2.7-5.4A6.76 6.76 0 0 0 13.124 3a6.76 6.76 0 0 0-6.75 6.75c0 .121-.03.24-.085.346l-2.162 4.157 2.559 1.172a.75.75 0 0 1 .438.682V19.5h4.5a.75.75 0 1 1 0 1.5h-4.5c-.827 0-1.5-.674-1.5-1.5v-2.911l-2.148-.984-.023-.011a1.5 1.5 0 0 1-.683-1.982l2.107-4.049C4.977 5.1 8.637 1.5 13.125 1.5s8.25 3.7 8.25 8.25a8.3 8.3 0 0 1-2.953 6.325l.697 5.582a.75.75 0 0 1-.745.843z"/><path d="M13.266 12.624S9.565 10.63 9.565 8.28a1.92 1.92 0 0 1 1.922-1.921c.804 0 1.493.437 1.78 1.139.287-.702.975-1.14 1.779-1.14 1.062 0 1.922.861 1.922 1.922 0 2.35-3.702 4.343-3.702 4.343"/></svg>