<svg viewBox="0 0 24 24" xmlns="http://www.w3.org/2000/svg" aria-hidden="true" fill="currentColor" height="24px" width="24px"><path d="M10.625 7.5a1.875 1.875 0 1 1 3.75 0 1.875 1.875 0 0 1-3.75 0m-4.5 0a6.375 6.375 0 0 1 12.75 0c0 5.836-5.58 9.094-5.817 9.227a1.13 1.13 0 0 1-1.116 0c-.238-.133-5.817-3.391-5.817-9.227m2.25 0c0 3.581 2.88 6.019 4.125 6.904 1.238-.89 4.125-3.341 4.125-6.904a4.125 4.125 0 0 0-8.25 0m11.678 6.15a1.125 1.125 0 1 0-.856 2.08c1.324.546 1.928 1.17 1.928 1.52 0 .375-.668 1.038-2.135 1.601-1.715.657-4.02 1.024-6.49 1.024s-4.775-.364-6.49-1.024c-1.467-.563-2.135-1.226-2.135-1.601 0-.35.604-.974 1.928-1.52a1.125 1.125 0 1 0-.856-2.08c-1.515.623-3.322 1.754-3.322 3.6 0 3.2 5.471 4.875 10.875 4.875 2.74 0 5.33-.416 7.298-1.174 1.336-.514 3.577-1.677 3.577-3.701 0-1.846-1.807-2.977-3.322-3.6"/></svg>