<svg viewBox="0 0 24 24" xmlns="http://www.w3.org/2000/svg" aria-hidden="true" fill="currentColor"><path d="M20.25 5.813h-3.375v-.75a2.625 2.625 0 0 0-2.625-2.625h-4.5a2.625 2.625 0 0 0-2.625 2.625v.75H3.75a1.875 1.875 0 0 0-1.875 1.875v12a1.875 1.875 0 0 0 1.875 1.875h16.5a1.875 1.875 0 0 0 1.875-1.875v-12a1.875 1.875 0 0 0-1.875-1.875m-10.875-.75a.375.375 0 0 1 .375-.375h4.5a.375.375 0 0 1 .375.375v.75h-5.25zm10.5 14.25H4.125V8.063h15.75zm-4.5-5.625a1.125 1.125 0 0 1-1.125 1.125h-1.125v1.125a1.125 1.125 0 1 1-2.25 0v-1.125H9.75a1.125 1.125 0 1 1 0-2.25h1.125v-1.125a1.125 1.125 0 1 1 2.25 0v1.125h1.125a1.125 1.125 0 0 1 1.125 1.125"/></svg>