<svg viewBox="0 0 24 24" xmlns="http://www.w3.org/2000/svg" aria-hidden="true" fill="currentColor" height="24px" width="24px"><path d="M16.874 7.5a1.5 1.5 0 1 1-2.999 0 1.5 1.5 0 0 1 2.999 0m6.375.75a1.13 1.13 0 0 1-.5.938l-1.75 1.164v1.649a10.136 10.136 0 0 1-10.125 10.125h-8.25a1.875 1.875 0 0 1-1.462-3.047l.014-.017L9 9.674V7.959c0-3.339 2.678-6.068 5.97-6.084H15a5.995 5.995 0 0 1 5.68 4.059l2.07 1.379a1.13 1.13 0 0 1 .5.937m-3.153 0-1.002-.668a1.13 1.13 0 0 1-.469-.656A3.75 3.75 0 0 0 15 4.126h-.018c-2.058.01-3.731 1.73-3.731 3.833v2.122c0 .263-.093.518-.262.72l-7.56 9.074h1.92l6.538-7.844a1.126 1.126 0 0 1 2.004.61 1.12 1.12 0 0 1-.277.83l-5.337 6.404h2.598a7.883 7.883 0 0 0 7.875-7.874V9.75a1.13 1.13 0 0 1 .502-.938z"/></svg>