<svg viewBox="0 0 24 24" xmlns="http://www.w3.org/2000/svg" aria-hidden="true" fill="currentColor"><path d="M22.5 10.125h-1.012l-2.605-5.86a1.5 1.5 0 0 0-1.37-.89H6.486a1.5 1.5 0 0 0-1.37.89l-2.604 5.86H1.5a.75.75 0 1 0 0 1.5h.75v7.5a1.5 1.5 0 0 0 1.5 1.5H6a1.5 1.5 0 0 0 1.5-1.5v-1.5h9v1.5a1.5 1.5 0 0 0 1.5 1.5h2.25a1.5 1.5 0 0 0 1.5-1.5v-7.5h.75a.75.75 0 1 0 0-1.5M6.488 4.875h11.025l2.333 5.25H4.154zM6 19.125H3.75v-1.5H6zm12 0v-1.5h2.25v1.5zm2.25-3H3.75v-4.5h16.5zm-15-2.25a.75.75 0 0 1 .75-.75h1.5a.75.75 0 1 1 0 1.5H6a.75.75 0 0 1-.75-.75m10.5 0a.75.75 0 0 1 .75-.75H18a.75.75 0 1 1 0 1.5h-1.5a.75.75 0 0 1-.75-.75"/></svg>