<svg viewBox="0 0 24 24" xmlns="http://www.w3.org/2000/svg" aria-hidden="true" fill="currentColor"><path d="M12.75 12.374v5.25a.75.75 0 1 1-1.5 0v-5.25a.75.75 0 1 1 1.5 0m3.454-.075-.525 5.25a.75.75 0 0 0 .671.825h.076a.75.75 0 0 0 .745-.675l.525-5.25a.75.75 0 1 0-1.492-.15m-8.408 0a.75.75 0 1 0-1.492.15l.525 5.25a.75.75 0 0 0 .75.674q.037.003.076 0a.75.75 0 0 0 .67-.82zm14.697-2.826-1.412 10.6a1.506 1.506 0 0 1-1.487 1.3H4.406a1.506 1.506 0 0 1-1.487-1.3l-1.412-10.6a.75.75 0 0 1 .743-.85h4.16l5.028-5.744a.75.75 0 0 1 1.124 0l5.028 5.744h4.16a.75.75 0 0 1 .743.85m-14.09-.85h7.194L12 4.513zm12.49 1.5H3.107l1.3 9.75h15.187z"/></svg>