<svg viewBox="0 0 24 24" xmlns="http://www.w3.org/2000/svg" aria-hidden="true" fill="currentColor" height="24px" width="24px"><path d="M1.875 4.875A1.125 1.125 0 0 1 3 3.75h16.5a1.125 1.125 0 1 1 0 2.25H3a1.125 1.125 0 0 1-1.125-1.125M3 12.001h16.5a1.125 1.125 0 1 0 0-2.25H3A1.125 1.125 0 1 0 3 12m9.75 3.75H3A1.125 1.125 0 1 0 3 18h9.75a1.125 1.125 0 1 0 0-2.25m8.25 0h-1.125v-1.125a1.125 1.125 0 1 0-2.25 0v1.125H16.5a1.125 1.125 0 0 0 0 2.25h1.125v1.124a1.125 1.125 0 0 0 2.25 0V18H21a1.125 1.125 0 1 0 0-2.25"/></svg>