<svg viewBox="0 0 24 24" xmlns="http://www.w3.org/2000/svg" aria-hidden="true" fill="currentColor"><path d="M22.2 17.633 14.002 3.396a2.322 2.322 0 0 0-4.004 0L1.8 17.633a2.2 2.2 0 0 0 0 2.224A2.28 2.28 0 0 0 3.802 21h16.396a2.28 2.28 0 0 0 2-1.143 2.2 2.2 0 0 0 .002-2.224m-1.3 1.473a.8.8 0 0 1-.702.394H3.802a.8.8 0 0 1-.702-.394.71.71 0 0 1 0-.724l8.2-14.237a.82.82 0 0 1 1.406 0l8.198 14.237a.71.71 0 0 1-.003.724M11.25 13.5V9.75a.75.75 0 1 1 1.5 0v3.75a.75.75 0 1 1-1.5 0m1.875 3.375a1.126 1.126 0 1 1-2.251 0 1.126 1.126 0 0 1 2.251 0"/></svg>