<svg viewBox="0 0 24 24" xmlns="http://www.w3.org/2000/svg" aria-hidden="true" fill="currentColor"><g clip-path="url(#a)"><path d="M19.496 10.873h-.159l-.328-1.106q.24-.022.487-.023a1.125 1.125 0 0 0 0-2.25h-1.16l-.761-2.57a1.125 1.125 0 0 0-1.08-.801h-3a1.125 1.125 0 1 0 0 2.25h2.157l.334 1.125h-1.74c-1.823 0-3.312.433-4.305 1.253a1.13 1.13 0 0 1-1.178.143c-1.23-.563-5.361-2.344-5.78-2.521l-.494-.21s-.393-.165-.618-.165a1.125 1.125 0 0 0-.433 2.164c.162.068 4.094 1.734 6.394 2.78.442.2.921.304 1.406.303a3.35 3.35 0 0 0 2.136-.758c.538-.444 1.46-.701 2.615-.735a7.88 7.88 0 0 0-2.288 4.5H8.853a4.5 4.5 0 1 0 0 2.25h3.893a1.125 1.125 0 0 0 1.125-1.125 5.63 5.63 0 0 1 2.98-4.963l.329 1.106a4.5 4.5 0 1 0 2.316-.647m-15 5.625h1.947a2.25 2.25 0 1 1 0-2.25H4.496a1.125 1.125 0 0 0 0 2.25m15 1.125a2.25 2.25 0 0 1-1.632-3.797l.552 1.867a1.125 1.125 0 0 0 2.159-.64l-.554-1.867a2.25 2.25 0 0 1-.525 4.437"/></g><defs><clipPath id="a"><path d="M0 0h24v24H0z"/></clipPath></defs></svg>