<svg viewBox="0 0 24 24" xmlns="http://www.w3.org/2000/svg" aria-hidden="true" fill="currentColor"><path d="M15.75 4.554V3.75A2.25 2.25 0 0 0 13.5 1.5h-3a2.25 2.25 0 0 0-2.25 2.25v.804a5.26 5.26 0 0 0-4.5 5.196V21a1.5 1.5 0 0 0 1.5 1.5h13.5a1.5 1.5 0 0 0 1.5-1.5V9.75a5.26 5.26 0 0 0-4.5-5.196M10.5 3h3a.75.75 0 0 1 .75.75v.75h-4.5v-.75A.75.75 0 0 1 10.5 3m5.25 12.75h-7.5V15a.75.75 0 0 1 .75-.75h6a.75.75 0 0 1 .75.75zm-7.5 1.5h4.5V18a.75.75 0 1 0 1.5 0v-.75h1.5V21h-7.5zM18.75 21h-1.5v-6A2.25 2.25 0 0 0 15 12.75H9A2.25 2.25 0 0 0 6.75 15v6h-1.5V9.75A3.75 3.75 0 0 1 9 6h6a3.75 3.75 0 0 1 3.75 3.75zm-4.5-12a.75.75 0 0 1-.75.75h-3a.75.75 0 1 1 0-1.5h3a.75.75 0 0 1 .75.75"/></svg>