<svg viewBox="0 0 24 24" xmlns="http://www.w3.org/2000/svg" aria-hidden="true" fill="currentColor"><path d="m21.237 5.66-9-3a.75.75 0 0 0-.474 0l-9 3a.75.75 0 0 0-.513.71v7.5a.75.75 0 0 0 1.5 0V7.412l3.149 1.05a6 6 0 0 0 1.936 8.254c-1.688.662-3.146 1.86-4.213 3.496a.75.75 0 1 0 1.256.82c1.413-2.168 3.644-3.41 6.122-3.41s4.709 1.242 6.122 3.41a.75.75 0 0 0 1.256-.82c-1.067-1.637-2.531-2.834-4.213-3.496a6 6 0 0 0 1.936-8.25l4.136-1.378a.75.75 0 0 0 0-1.423zM16.5 11.62a4.499 4.499 0 1 1-8.123-2.667l3.386 1.126a.75.75 0 0 0 .474 0l3.386-1.126a4.5 4.5 0 0 1 .877 2.668M12 8.58 5.372 6.37 12 4.162l6.628 2.21z"/></svg>