<svg width="24" height="24" viewBox="0 0 24 24" xmlns="http://www.w3.org/2000/svg" fill="currentColor"> <path d="M20.9488 19.6463L15.23 10.665L20.8288 4.50656C21.0252 4.28511 21.1265 3.99515 21.1106 3.69955C21.0947 3.40394 20.9629 3.12652 20.7438 2.92742C20.5248 2.72833 20.236 2.62361 19.9403 2.63596C19.6445 2.64832 19.3655 2.77676 19.1638 2.99344L13.9822 8.69719L10.4488 3.14625C10.3472 2.98659 10.2071 2.85512 10.0412 2.76401C9.87539 2.6729 9.68926 2.62509 9.50004 2.625H5.00004C4.79851 2.62509 4.60071 2.67932 4.42731 2.78201C4.25391 2.88469 4.11128 3.03208 4.01432 3.20874C3.91736 3.38541 3.86964 3.58488 3.87614 3.78631C3.88265 3.98773 3.94314 4.1837 4.05129 4.35375L9.77004 13.335L4.16754 19.4934C4.0661 19.6024 3.9873 19.7304 3.9357 19.8701C3.8841 20.0097 3.86073 20.1582 3.86695 20.3069C3.87316 20.4557 3.90884 20.6017 3.9719 20.7366C4.03497 20.8714 4.12418 20.9924 4.23435 21.0925C4.34452 21.1927 4.47347 21.2699 4.61373 21.3198C4.75398 21.3698 4.90275 21.3914 5.0514 21.3834C5.20006 21.3754 5.34565 21.3379 5.47974 21.2733C5.61383 21.2086 5.73374 21.1179 5.83254 21.0066L11.0179 15.3028L14.5513 20.8538C14.6528 21.0134 14.793 21.1449 14.9588 21.236C15.1247 21.3271 15.3108 21.3749 15.5 21.375H20C20.2016 21.3749 20.3994 21.3207 20.5728 21.218C20.7462 21.1153 20.8888 20.9679 20.9858 20.7913C21.0827 20.6146 21.1304 20.4151 21.1239 20.2137C21.1174 20.0123 21.0569 19.8163 20.9488 19.6463ZM16.1179 19.125L7.04941 4.875H8.88223L17.9507 19.125H16.1179Z"/> </svg>