<svg viewBox="0 0 24 24" xmlns="http://www.w3.org/2000/svg" aria-hidden="true" fill="currentColor"><path d="M19.412 7.938A10.43 10.43 0 0 0 12 4.875h-.037C6.194 4.895 1.5 9.656 1.5 15.481v2.144a1.5 1.5 0 0 0 1.5 1.5h18a1.5 1.5 0 0 0 1.5-1.5v-2.25a10.43 10.43 0 0 0-3.088-7.437M21 17.625h-9.777l5.134-7.06a.75.75 0 0 0-1.214-.882l-5.776 7.942H3v-2.144q0-.433.04-.856h2.21a.75.75 0 1 0 0-1.5H3.307c.967-3.643 4.125-6.397 7.943-6.718v2.218a.75.75 0 1 0 1.5 0V6.406a9.01 9.01 0 0 1 7.969 6.719H18.75a.75.75 0 0 0 0 1.5h2.22q.03.372.03.75z"/></svg>