<svg viewBox="0 0 24 24" xmlns="http://www.w3.org/2000/svg" aria-hidden="true" fill="currentColor" height="24px" width="24px"><path d="M19.826 12.934a2.28 2.28 0 0 0 2.276-2.275 2.28 2.28 0 0 0-2.276-2.275 2.28 2.28 0 0 0-2.275 2.275 2.28 2.28 0 0 0 2.275 2.275m0-3.05a.776.776 0 0 1 0 1.55.776.776 0 0 1 0-1.55m-1.016 7.65a.75.75 0 0 0-.75.75 2.81 2.81 0 0 1-2.809 2.81 2.81 2.81 0 0 1-2.808-2.81 2.81 2.81 0 0 1 2.808-2.808.75.75 0 1 0 0-1.5 4.314 4.314 0 0 0-4.308 4.309 4.314 4.314 0 0 0 4.308 4.308 4.314 4.314 0 0 0 4.309-4.308.75.75 0 0 0-.75-.75"/><path d="M21.352 15.501h-3.28l.88-1.53a.75.75 0 0 0-.241-1.003 6.32 6.32 0 0 0-7.496.424.75.75 0 1 0 .955 1.157 4.82 4.82 0 0 1 5.102-.667l-1.147 1.995a.75.75 0 0 0 .65 1.123h3.66l-.837 4.187a.75.75 0 0 0 .736.897.75.75 0 0 0 .735-.603l1.018-5.084a.75.75 0 0 0-.736-.897z"/><path d="M13.825 10.81a.75.75 0 0 0 0-.75L9.04 1.78a.751.751 0 0 0-1.3 0l-4.784 8.28a.75.75 0 0 0 .65 1.126h1.14l-2.759 5.147a.75.75 0 0 0 .661 1.104h4.829v4.125a.75.75 0 1 0 1.5 0v-4.125h.468a.75.75 0 1 0 0-1.5H3.901l2.758-5.147a.75.75 0 0 0-.66-1.104H4.904L8.39 3.655l3.485 6.03h-1.093a.75.75 0 1 0 0 1.5h2.393a.75.75 0 0 0 .65-.374"/></svg>