<svg viewBox="0 0 24 24" xmlns="http://www.w3.org/2000/svg" aria-hidden="true" fill="currentColor" height="24px" width="24px"><path d="M4.687 12a1.125 1.125 0 0 0 1.125-1.124v-6h7.125v4.5a1.125 1.125 0 0 0 1.125 1.125h4.5v.375a1.125 1.125 0 0 0 2.25 0V9c0-.298-.118-.584-.329-.795l-5.25-5.25a1.13 1.13 0 0 0-.796-.33h-9A1.875 1.875 0 0 0 3.562 4.5v6.376A1.125 1.125 0 0 0 4.687 12m12.657-3.75h-2.157V6.094zM8.417 19.2a2.32 2.32 0 0 1-1.026 1.688c-.562.375-1.244.483-1.85.483a6 6 0 0 1-1.522-.207 1.126 1.126 0 1 1 .606-2.167c.639.174 1.406.151 1.536.006a.2.2 0 0 0 .02-.067c-.182-.115-.64-.247-.926-.33-.506-.147-1.032-.298-1.477-.588-.714-.46-1.051-1.167-.947-1.986a2.29 2.29 0 0 1 1.001-1.665c.57-.384 1.329-.546 2.26-.485q.571.041 1.127.181a1.125 1.125 0 0 1-.572 2.176c-.596-.153-1.276-.142-1.507-.031q.365.141.743.243c.512.148 1.094.316 1.575.64.729.49 1.073 1.24.959 2.11m6.33-3.824-1.875 5.25a1.125 1.125 0 0 1-2.119 0l-1.875-5.25a1.125 1.125 0 1 1 2.119-.75l.815 2.278.816-2.278a1.125 1.125 0 1 1 2.119.75m6.44 3v1.206c0 .29-.111.569-.312.778a3.19 3.19 0 0 1-2.313 1.015c-1.86 0-3.375-1.681-3.375-3.75s1.514-3.75 3.375-3.75a3.13 3.13 0 0 1 1.754.544 1.124 1.124 0 1 1-1.258 1.865.9.9 0 0 0-.496-.159c-.609 0-1.125.688-1.125 1.5s.516 1.5 1.125 1.5a.9.9 0 0 0 .253-.039 1.125 1.125 0 0 1 .872-1.835h.375a1.125 1.125 0 0 1 1.125 1.124"/></svg>