<svg viewBox="0 0 24 24" xmlns="http://www.w3.org/2000/svg" aria-hidden="true" fill="currentColor"><path d="M19.5 3.001H15a1.875 1.875 0 0 0-1.875 1.875v15A1.875 1.875 0 0 0 15 21.751h4.5a1.875 1.875 0 0 0 1.875-1.875v-15A1.875 1.875 0 0 0 19.5 3.001m-.375 16.5h-3.75v-2.25h1.5a1.125 1.125 0 1 0 0-2.25h-1.5v-1.5h1.5a1.125 1.125 0 1 0 0-2.25h-1.5v-1.5h1.5a1.125 1.125 0 1 0 0-2.25h-1.5v-2.25h3.75zM7.545 2.581a1.125 1.125 0 0 0-1.593 0l-3 3a1.12 1.12 0 0 0-.327.795v13.5A1.875 1.875 0 0 0 4.5 21.751H9a1.875 1.875 0 0 0 1.875-1.875v-13.5a1.12 1.12 0 0 0-.33-.796zM4.876 9h3.75v6.75h-3.75zm1.875-4.03L8.53 6.75H4.97zM4.875 19.5V18h3.75v1.5z"/></svg>