<svg viewBox="0 0 24 24" xmlns="http://www.w3.org/2000/svg" aria-hidden="true" fill="currentColor"><path d="M22.423 9.493a1.54 1.54 0 0 0-1.337-1.055l-5.531-.446-2.136-5.165a1.534 1.534 0 0 0-2.838 0L8.449 7.99l-5.534.447a1.543 1.543 0 0 0-.879 2.705l4.219 3.64-1.285 5.444a1.536 1.536 0 0 0 2.297 1.67L12 18.985l4.737 2.913a1.537 1.537 0 0 0 2.294-1.67l-1.29-5.444 4.219-3.64a1.54 1.54 0 0 0 .463-1.65m-1.438.513-4.566 3.938a.75.75 0 0 0-.24.741l1.395 5.888a.035.035 0 0 1-.016.045c-.017.013-.021.01-.035 0l-5.13-3.155a.75.75 0 0 0-.786 0l-5.13 3.157c-.014.008-.018.011-.036 0a.034.034 0 0 1-.015-.045l1.395-5.888a.75.75 0 0 0-.24-.741l-4.566-3.938c-.011-.01-.022-.018-.012-.047s.017-.025.03-.027l5.993-.484a.75.75 0 0 0 .63-.463L11.964 3.4c.008-.016.01-.024.033-.024s.025.008.033.024l2.314 5.588a.75.75 0 0 0 .633.461l5.992.484c.014 0 .022 0 .03.027.01.028 0 .038-.014.047"/></svg>