<svg width="24" height="24" viewBox="0 0 24 24" fill="none" xmlns="http://www.w3.org/2000/svg">
<path d="M19.5459 14.2959L12.7959 21.0459C12.6914 21.1508 12.5672 21.234 12.4304 21.2908C12.2937 21.3476 12.1471 21.3768 11.999 21.3768C11.851 21.3768 11.7043 21.3476 11.5676 21.2908C11.4309 21.234 11.3067 21.1508 11.2021 21.0459L4.45215 14.2959C4.2408 14.0846 4.12207 13.7979 4.12207 13.4991C4.12207 13.2002 4.2408 12.9135 4.45215 12.7022C4.66349 12.4908 4.95014 12.3721 5.24902 12.3721C5.54791 12.3721 5.83455 12.4908 6.0459 12.7022L10.875 17.5312V3.75C10.875 3.45163 10.9935 3.16548 11.2045 2.9545C11.4154 2.74353 11.7016 2.625 12 2.625C12.2983 2.625 12.5845 2.74353 12.7955 2.9545C13.0064 3.16548 13.125 3.45163 13.125 3.75V17.5312L17.954 12.7013C18.1654 12.4899 18.452 12.3712 18.7509 12.3712C19.0498 12.3712 19.3364 12.4899 19.5478 12.7013C19.7591 12.9126 19.8778 13.1992 19.8778 13.4981C19.8778 13.797 19.7591 14.0837 19.5478 14.295L19.5459 14.2959Z" fill="black"/>
</svg>
