<svg viewBox="0 0 24 24" xmlns="http://www.w3.org/2000/svg" aria-hidden="true" fill="currentColor"><path d="m23.197 9.84-1.313-3.28a1.49 1.49 0 0 0-1.392-.938H17.25v-.75a.75.75 0 1 0-1.5 0v9.404a3 3 0 0 0-1.406 1.846H9.656a3 3 0 0 0-5.812 0H2.25v-4.5a.75.75 0 0 0-1.5 0v4.5a1.5 1.5 0 0 0 1.5 1.5h1.594a3 3 0 0 0 5.812 0h4.688a3 3 0 0 0 5.812 0h1.594a1.5 1.5 0 0 0 1.5-1.5v-6a.7.7 0 0 0-.053-.281m-2.705-2.718.9 2.25H17.25v-2.25zM6.75 18.372a1.5 1.5 0 1 1 0-3 1.5 1.5 0 0 1 0 3m10.5 0a1.5 1.5 0 1 1 0-3 1.5 1.5 0 0 1 0 3m2.906-2.25a3.006 3.006 0 0 0-2.906-2.25v-3h4.5v5.25zM1.5 7.872a.75.75 0 0 0 0 1.5h12a.75.75 0 1 0 0-1.5H12v-2.25h1.5a.75.75 0 1 0 0-1.5h-12a.75.75 0 0 0 0 1.5H3v2.25zm9 0H8.25v-2.25h2.25zm-6-2.25h2.25v2.25H4.5z"/></svg>