<svg viewBox="0 0 24 24" xmlns="http://www.w3.org/2000/svg" aria-hidden="true" fill="currentColor" height="24px" width="24px"><g clip-path="url(#a)"><path d="M23 19.125h-1.125V13.5a1.124 1.124 0 0 0 1.17-1.854l-9.22-9.223a1.875 1.875 0 0 0-2.65 0l-9.22 9.22a1.125 1.125 0 0 0 1.17 1.857v5.625H2a1.125 1.125 0 0 0 0 2.25h21a1.125 1.125 0 1 0 0-2.25m-17.625-7.72L12.5 4.28l7.125 7.125v7.72h-3.75V14.25a1.125 1.125 0 0 0-1.125-1.125h-4.5a1.125 1.125 0 0 0-1.125 1.125v4.875h-3.75zm8.25 7.72h-2.25v-3.75h2.25z"/></g><defs><clipPath id="a"><path d="M0 0h24v24H0z"/></clipPath></defs></svg>