<svg viewBox="0 0 24 24" xmlns="http://www.w3.org/2000/svg" aria-hidden="true" fill="currentColor"><path d="M22.126 22.143h-1.17V8.362c0-.827-.674-1.5-1.5-1.5H4.643c-.827 0-1.5.673-1.5 1.5v13.781H1.875a.75.75 0 1 0 0 1.5h20.25a.75.75 0 1 0 0-1.5M4.642 8.362h14.813v13.781h-1.454v-9.844a.75.75 0 0 0-.75-.75H6.846a.75.75 0 0 0-.75.75v9.844H4.643zm6.656 13.781H7.596v-9.094H11.3zm1.5-9.094h3.703v9.094H12.8z"/><path d="M9.8 10.612h4.5a.75.75 0 1 0 0-1.5H9.8a.75.75 0 1 0 0 1.5M6.52 3.966l.988-.988v3.018a.75.75 0 1 0 1.5 0v-3.02l.988.989a.75.75 0 0 0 1.061 0 .75.75 0 0 0 0-1.06L8.79.635 8.734.587l-.012-.01-.046-.034-.012-.007-.05-.03L8.603.5 8.547.473 8.54.47 8.477.448q-.001 0-.006-.002a1 1 0 0 0-.064-.015L8.389.428 8.335.419a.7.7 0 0 0-.205.009L8.113.43q-.033.007-.064.015l-.007.002-.062.023-.007.002q-.03.013-.057.027l-.01.005-.05.03q-.007.003-.012.007l-.046.035-.013.01-.054.049-2.269 2.269a.75.75 0 0 0 1.06 1.06zm8.336 2.56a1 1 0 0 0 .083.07l.031.023.033.02.03.017.035.017.032.015.034.013.035.012.034.008.038.01.039.005.033.005a.7.7 0 0 0 .148 0l.033-.005.039-.005.037-.01.034-.008.036-.012.034-.013.032-.015q.016-.007.034-.017l.03-.017.033-.02.032-.023.027-.021q.027-.022.05-.045l.005-.005 2.27-2.269a.75.75 0 0 0-1.061-1.06l-.988.988V1.106a.75.75 0 1 0-1.5 0v3.078l-.988-.988a.75.75 0 0 0-1.06 1.06l2.268 2.27z"/></svg>