<svg width="24" height="24" viewBox="0 0 24 24" xmlns="http://www.w3.org/2000/svg" fill="currentColor"> <path d="M19.7959 9.79592L12.2959 17.2959C12.1914 17.4008 12.0672 17.484 11.9304 17.5408C11.7937 17.5976 11.6471 17.6268 11.499 17.6268C11.351 17.6268 11.2043 17.5976 11.0676 17.5408C10.9309 17.484 10.8067 17.4008 10.7021 17.2959L3.20215 9.79592C2.9908 9.58457 2.87207 9.29793 2.87207 8.99904C2.87207 8.70016 2.9908 8.41351 3.20215 8.20217C3.41349 7.99082 3.70014 7.87209 3.99902 7.87209C4.29791 7.87209 4.58455 7.99082 4.7959 8.20217L11.5 14.9062L18.204 8.20123C18.4154 7.98989 18.702 7.87115 19.0009 7.87115C19.2998 7.87115 19.5864 7.98989 19.7978 8.20123C20.0091 8.41258 20.1278 8.69922 20.1278 8.99811C20.1278 9.29699 20.0091 9.58364 19.7978 9.79498L19.7959 9.79592Z"/> </svg>