<svg width="24" height="24" viewBox="0 0 24 24" fill="none" xmlns="http://www.w3.org/2000/svg">
<path d="M14 19.125C14 19.4216 13.912 19.7116 13.7472 19.9583C13.5824 20.205 13.3481 20.3972 13.074 20.5108C12.7999 20.6243 12.4983 20.654 12.2074 20.5961C11.9164 20.5383 11.6491 20.3954 11.4393 20.1856C11.2296 19.9758 11.0867 19.7086 11.0288 19.4176C10.9709 19.1266 11.0006 18.825 11.1142 18.5509C11.2277 18.2768 11.42 18.0426 11.6666 17.8778C11.9133 17.7129 12.2033 17.625 12.5 17.625C12.8978 17.625 13.2794 17.783 13.5607 18.0643C13.842 18.3456 14 18.7271 14 19.125ZM19.9484 11.2162C17.8285 9.53791 15.2039 8.62476 12.5 8.62476C9.79614 8.62476 7.17152 9.53791 5.05156 11.2162C4.82355 11.4034 4.67817 11.6726 4.64673 11.9659C4.61529 12.2592 4.70031 12.5531 4.88347 12.7843C5.06663 13.0156 5.33329 13.1656 5.626 13.2021C5.91871 13.2387 6.21406 13.1588 6.44844 12.9796C8.17085 11.6162 10.3032 10.8743 12.5 10.8743C14.6968 10.8743 16.8292 11.6162 18.5516 12.9796C18.7859 13.1588 19.0813 13.2387 19.374 13.2021C19.6667 13.1656 19.9334 13.0156 20.1165 12.7843C20.2997 12.5531 20.3847 12.2592 20.3533 11.9659C20.3218 11.6726 20.1764 11.4034 19.9484 11.2162ZM16.9128 14.5593C15.6303 13.627 14.0855 13.1249 12.5 13.1249C10.9145 13.1249 9.36966 13.627 8.08719 14.5593C7.84601 14.7351 7.68454 14.9995 7.6383 15.2944C7.59206 15.5892 7.66484 15.8903 7.84063 16.1315C8.01641 16.3727 8.28081 16.5342 8.57565 16.5804C8.8705 16.6267 9.17163 16.5539 9.41281 16.3781C10.31 15.7258 11.3908 15.3745 12.5 15.3745C13.6092 15.3745 14.69 15.7258 15.5872 16.3781C15.7066 16.4651 15.842 16.5278 15.9856 16.5625C16.1293 16.5972 16.2784 16.6033 16.4243 16.5804C16.5703 16.5575 16.7104 16.5061 16.8365 16.4291C16.9626 16.352 17.0723 16.2509 17.1594 16.1315C17.2464 16.0121 17.3091 15.8767 17.3438 15.7331C17.3785 15.5894 17.3846 15.4404 17.3617 15.2944C17.3388 15.1484 17.2874 15.0083 17.2104 14.8822C17.1333 14.7561 17.0322 14.6464 16.9128 14.5593Z" fill="black"/>
</svg>
