<svg viewBox="0 0 24 24" xmlns="http://www.w3.org/2000/svg" aria-hidden="true" fill="currentColor" height="24px" width="24px"><path d="M8.25 14.006a1.125 1.125 0 0 0 1.125-1.125v-.13h5.25v.308a1.125 1.125 0 0 0 2.25 0V3a1.125 1.125 0 1 0-2.25 0v.75h-5.25V3a1.125 1.125 0 0 0-2.25 0v9.88a1.125 1.125 0 0 0 1.125 1.126M9.375 10.5V9.375h5.25v1.126zm5.25-4.5v1.124h-5.25V6zm-12.75 9.375A1.125 1.125 0 0 1 3 14.25c1.465 0 2.25.52 2.874.937.507.337.844.563 1.626.563s1.118-.224 1.626-.563c.627-.42 1.406-.937 2.873-.937s2.25.52 2.874.937c.508.337.844.563 1.627.563s1.12-.224 1.626-.563c.628-.42 1.406-.937 2.874-.937a1.125 1.125 0 1 1 0 2.25c-.785 0-1.12.223-1.627.562-.627.42-1.406.938-2.873.938s-2.25-.52-2.874-.938c-.508-.337-.844-.562-1.627-.562s-1.118.223-1.626.562c-.627.42-1.406.938-2.873.938s-2.25-.52-2.874-.938c-.507-.337-.844-.562-1.626-.562a1.125 1.125 0 0 1-1.125-1.126m20.25 4.124A1.125 1.125 0 0 1 21 20.626c-.785 0-1.12.224-1.627.563-.627.419-1.406.938-2.873.938s-2.25-.52-2.874-.938c-.508-.337-.844-.562-1.627-.562s-1.118.223-1.626.562c-.627.419-1.406.938-2.873.938s-2.25-.52-2.874-.938c-.507-.337-.844-.562-1.626-.562a1.125 1.125 0 1 1 0-2.25c1.465 0 2.25.52 2.874.937.507.338.844.563 1.626.563s1.118-.224 1.626-.563c.627-.42 1.406-.937 2.873-.937s2.25.52 2.874.937c.508.338.844.563 1.627.563s1.12-.224 1.626-.563c.628-.42 1.406-.937 2.874-.937a1.125 1.125 0 0 1 1.125 1.124"/></svg>