<svg viewBox="0 0 24 24" xmlns="http://www.w3.org/2000/svg" aria-hidden="true" fill="currentColor"><path d="M20.25 13.125h-1.125v-5.25h1.125a1.125 1.125 0 0 0 0-2.25h-1.125V3.75a1.875 1.875 0 0 0-1.875-1.875H6.75A1.875 1.875 0 0 0 4.875 3.75v1.875H3.75a1.125 1.125 0 0 0 0 2.25h1.125v5.25H3.75a1.125 1.125 0 1 0 0 2.25h1.125v4.875a1.875 1.875 0 0 0 1.875 1.875h10.5a1.875 1.875 0 0 0 1.875-1.875v-4.875h1.125a1.125 1.125 0 0 0 0-2.25m-3.375 6.75h-9.75V4.125h9.75zM12 11.25a3 3 0 1 0 0-6 3 3 0 0 0 0 6m0-3.75A.75.75 0 1 1 12 9a.75.75 0 0 1 0-1.5m0 11.25a3 3 0 1 0 0-6 3 3 0 0 0 0 6M12 15a.75.75 0 1 1 0 1.5.75.75 0 0 1 0-1.5"/></svg>