<svg viewBox="0 0 24 24" xmlns="http://www.w3.org/2000/svg" aria-hidden="true" fill="currentColor" height="24px" width="24px"><path d="M11.75 12a1.5 1.5 0 1 1-3 0 1.5 1.5 0 0 1 3 0m3-1.5a1.5 1.5 0 1 0 0 3 1.5 1.5 0 0 0 0-3m7.875 1.5a10.124 10.124 0 0 1-14.74 9.014l-3.04 1.017a1.875 1.875 0 0 1-2.376-2.375l1.013-3.04A10.125 10.125 0 1 1 22.625 12m-2.25 0a7.875 7.875 0 1 0-14.693 3.943 1.13 1.13 0 0 1 .093.92l-.93 2.793 2.792-.931q.174-.058.356-.059c.198 0 .392.053.563.152A7.875 7.875 0 0 0 20.375 12"/></svg>