<svg viewBox="0 0 24 24" xmlns="http://www.w3.org/2000/svg" aria-hidden="true" fill="currentColor"><path d="M12 12.75a.75.75 0 0 1-.75.75h-4.5a.75.75 0 1 1 0-1.5h4.5a.75.75 0 0 1 .75.75M11.25 9h-4.5a.75.75 0 0 0 0 1.5h4.5a.75.75 0 1 0 0-1.5m10.5 6.138V21a.75.75 0 0 1-1.125.656l-2.25-1.288-2.25 1.288A.75.75 0 0 1 15 21v-2.25H3.75a1.5 1.5 0 0 1-1.5-1.5v-12a1.5 1.5 0 0 1 1.5-1.5h16.5a1.5 1.5 0 0 1 1.5 1.5v2.862a4.865 4.865 0 0 1 0 7.026M15 17.25v-2.112a4.875 4.875 0 0 1 5.25-8.013V5.25H3.75v12zm5.25-1.125a4.86 4.86 0 0 1-3.75 0v3.583l1.5-.859a.75.75 0 0 1 .744 0l1.5.86zm1.5-4.5a3.375 3.375 0 1 0-6.75 0 3.375 3.375 0 0 0 6.75 0"/></svg>