<svg viewBox="0 0 24 24" xmlns="http://www.w3.org/2000/svg" aria-hidden="true" fill="currentColor" height="24px" width="24px"><path d="M21.125 4.5V9a1.125 1.125 0 1 1-2.25 0V7.219l-3.33 3.33a1.127 1.127 0 1 1-1.593-1.594l3.33-3.33H15.5a1.125 1.125 0 0 1 0-2.25H20A1.125 1.125 0 0 1 21.125 4.5m-11.67 8.954-3.33 3.327V15a1.125 1.125 0 0 0-2.25 0v4.5A1.125 1.125 0 0 0 5 20.625h4.5a1.125 1.125 0 1 0 0-2.25H7.719l3.33-3.33a1.127 1.127 0 1 0-1.594-1.593zM20 13.875A1.125 1.125 0 0 0 18.875 15v1.781l-3.33-3.33a1.127 1.127 0 1 0-1.593 1.594l3.33 3.33H15.5a1.125 1.125 0 1 0 0 2.25H20a1.125 1.125 0 0 0 1.125-1.125V15A1.125 1.125 0 0 0 20 13.875M7.719 5.625H9.5a1.125 1.125 0 0 0 0-2.25H5A1.125 1.125 0 0 0 3.875 4.5V9a1.125 1.125 0 0 0 2.25 0V7.219l3.33 3.33a1.127 1.127 0 1 0 1.593-1.594z"/></svg>