<svg viewBox="0 0 24 24" xmlns="http://www.w3.org/2000/svg" aria-hidden="true" fill="currentColor"><path d="M21.844 6.53 20.03 4.72a.75.75 0 1 0-1.062 1.06l1.812 1.814c.14.14.218.33.219.528v7.628a.75.75 0 1 1-1.5 0V12a2.25 2.25 0 0 0-2.25-2.25h-1.5v-4.5A2.25 2.25 0 0 0 13.5 3H6a2.25 2.25 0 0 0-2.25 2.25V19.5h-1.5a.75.75 0 1 0 0 1.5h15a.75.75 0 1 0 0-1.5h-1.5v-8.25h1.5A.75.75 0 0 1 18 12v3.75a2.25 2.25 0 0 0 4.5 0V8.122a2.24 2.24 0 0 0-.656-1.591M5.25 19.5V5.25A.75.75 0 0 1 6 4.5h7.5a.75.75 0 0 1 .75.75V19.5zm7.5-9a.75.75 0 0 1-.75.75H7.5a.75.75 0 1 1 0-1.5H12a.75.75 0 0 1 .75.75"/></svg>