<svg viewBox="0 0 24 24" xmlns="http://www.w3.org/2000/svg" aria-hidden="true" fill="currentColor"><path d="M9.75 18.375a.75.75 0 0 1-.75.75H7.5a.75.75 0 1 1 0-1.5H9a.75.75 0 0 1 .75.75m6.75-.75H15a.75.75 0 1 0 0 1.5h1.5a.75.75 0 1 0 0-1.5m-7.126-4.5a1.125 1.125 0 1 0 0-2.25 1.125 1.125 0 0 0 0 2.25m5.25 0a1.125 1.125 0 1 0 0-2.25 1.125 1.125 0 0 0 0 2.25m8.287-1.301a1.5 1.5 0 0 1-1.162.551h-3v3a3.75 3.75 0 0 1-2.25 6.75h-9a3.75 3.75 0 0 1-2.25-6.75v-3h-3a1.5 1.5 0 0 1-1.47-1.781 5.26 5.26 0 0 1 5.147-4.219h.154a5.23 5.23 0 0 1-1.58-3.75.75.75 0 0 1 1.5 0 3.75 3.75 0 0 0 3.75 3.75h4.5A3.75 3.75 0 0 0 18 2.625a.75.75 0 1 1 1.5 0 5.23 5.23 0 0 1-1.581 3.75h.153a5.26 5.26 0 0 1 5.148 4.219 1.48 1.48 0 0 1-.31 1.23M6.749 14.7a4 4 0 0 1 .75-.075h9a4 4 0 0 1 .75.075v-4.575A2.25 2.25 0 0 0 15 7.875H9a2.25 2.25 0 0 0-2.25 2.25zm-1.5-3.825v-.75A3.73 3.73 0 0 1 6 7.875h-.075a3.76 3.76 0 0 0-3.675 3zm13.5 7.5a2.25 2.25 0 0 0-2.25-2.25h-9a2.25 2.25 0 0 0 0 4.5h9a2.25 2.25 0 0 0 2.25-2.25m3-7.5a3.76 3.76 0 0 0-3.675-3H18c.488.649.751 1.438.75 2.25v.75z"/></svg>