<svg viewBox="0 0 24 24" xmlns="http://www.w3.org/2000/svg" aria-hidden="true" fill="currentColor"><g clip-path="url(#a)"><path d="M20.25 13.876a1.5 1.5 0 1 1-3 0 1.5 1.5 0 0 1 3 0m3.375 0c0 3.995-2.141 7.124-4.875 7.124H5.25C2.516 21 .375 17.871.375 13.877.375 9.88 2.516 6.75 5.25 6.75h3.281l3.42-3.42A1.12 1.12 0 0 1 12.75 3h3a1.125 1.125 0 1 1 0 2.25h-2.531l-1.5 1.5h7.031c2.734 0 4.875 3.13 4.875 7.126M5.25 18.75h9.916a7.8 7.8 0 0 1-.852-1.875H7.5a1.125 1.125 0 1 1 0-2.25h6.4a11 11 0 0 1-.025-.75c0-1.903.487-3.609 1.29-4.875H5.25c-.736 0-1.522.705-2.04 1.876h6.54a1.125 1.125 0 1 1 0 2.25H2.658a9 9 0 0 0-.033.75c0 2.872 1.384 4.874 2.625 4.874m16.125-4.874C21.375 11.003 19.991 9 18.75 9s-2.625 2.003-2.625 4.876c0 2.872 1.384 4.874 2.625 4.874s2.625-2.002 2.625-4.874"/></g><defs><clipPath id="a"><path d="M0 0h24v24H0z"/></clipPath></defs></svg>