<svg viewBox="0 0 24 24" xmlns="http://www.w3.org/2000/svg" aria-hidden="true" fill="currentColor"><path d="M6.505 7.303c2.626 0 4.756 2.103 4.756 4.697s-2.13 4.697-4.756 4.697S1.75 14.594 1.75 12s2.129-4.697 4.755-4.697m10.99 0c2.626 0 4.755 2.103 4.755 4.696 0 2.594-2.129 4.698-4.755 4.698s-4.756-2.104-4.756-4.698c0-2.593 2.13-4.696 4.756-4.696M6.505 9.012c-1.703 0-3.047 1.358-3.047 2.988s1.345 2.988 3.047 2.989S9.552 13.63 9.552 12 8.208 9.012 6.505 9.012m10.99-.001c-1.703 0-3.047 1.358-3.047 2.988s1.344 2.99 3.047 2.99c1.702 0 3.047-1.359 3.047-2.99 0-1.63-1.345-2.988-3.047-2.988"/></svg>