<svg
  xmlns="http://www.w3.org/2000/svg"
  width="21"
  height="21"
  viewBox="0 0 21 21"
  focusable="false"
  aria-hidden="true"
>
<path d="M17.9 2c2 .1 3 1.2 3.1 3.5V6c-.1 1.9-1.5 4.5-4.3 7.8-2.8 3.5-5.3 5.2-7.3 5.2-1.2 0-2.3-1.1-3.1-3.2l-.9-2.9-.7-2.9C4 7.9 3.4 6.8 2.6 6.8c-.1 0-.7.4-1.6 1L0 6.6l1.5-1.3L3.1 4c1.4-1.1 2.4-1.7 3.1-1.8h.3c1.5 0 2.4 1 2.7 3.1.2 1.2.4 2.2.5 2.9.1.9.2 1.4.3 1.7.5 2 1 3 1.6 3 .4 0 1.1-.6 2-1.9.9-1.3 1.3-2.3 1.4-3v-.4c0-.9-.5-1.3-1.4-1.3-.5 0-1 .1-1.5.3 1-3 2.9-4.6 5.7-4.6h.1z"/>
</svg>