<svg viewBox="0 0 24 24" xmlns="http://www.w3.org/2000/svg" aria-hidden="true" fill="currentColor"><path d="M12.5 2.25c-5.047 0-9 2.306-9 5.25v9c0 2.944 3.953 5.25 9 5.25s9-2.306 9-5.25v-9c0-2.944-3.953-5.25-9-5.25M20 12c0 .902-.739 1.822-2.026 2.524-1.45.79-3.394 1.226-5.474 1.226s-4.025-.436-5.474-1.226C5.739 13.822 5 12.902 5 12v-1.56c1.6 1.406 4.334 2.31 7.5 2.31s5.9-.908 7.5-2.31zM7.026 4.976c1.45-.79 3.394-1.226 5.474-1.226s4.025.436 5.474 1.226C19.261 5.678 20 6.598 20 7.5s-.739 1.822-2.026 2.524c-1.45.79-3.394 1.226-5.474 1.226s-4.025-.436-5.474-1.226C5.739 9.322 5 8.402 5 7.5s.739-1.822 2.026-2.524m10.948 14.048c-1.45.79-3.394 1.226-5.474 1.226s-4.025-.436-5.474-1.226C5.739 18.322 5 17.402 5 16.5v-1.56c1.6 1.406 4.334 2.31 7.5 2.31s5.9-.907 7.5-2.31v1.56c0 .902-.739 1.822-2.026 2.524"/></svg>