<svg viewBox="0 0 24 24" xmlns="http://www.w3.org/2000/svg" aria-hidden="true" fill="currentColor"><path d="M20 3h-2.25v-.75a.75.75 0 1 0-1.5 0V3h-7.5v-.75a.75.75 0 0 0-1.5 0V3H5a1.5 1.5 0 0 0-1.5 1.5v15A1.5 1.5 0 0 0 5 21h15a1.5 1.5 0 0 0 1.5-1.5v-15A1.5 1.5 0 0 0 20 3M7.25 4.5v.75a.75.75 0 0 0 1.5 0V4.5h7.5v.75a.75.75 0 1 0 1.5 0V4.5H20v3H5v-3zM20 19.5H5V9h15zm-9-8.25v6a.75.75 0 1 1-1.5 0v-4.787l-.414.208a.75.75 0 0 1-.672-1.342l1.5-.75A.75.75 0 0 1 11 11.25m5.546 2.855L14.75 16.5h1.5a.75.75 0 1 1 0 1.5h-3a.75.75 0 0 1-.6-1.2l2.698-3.597a.75.75 0 1 0-1.248-.828.75.75 0 1 1-1.298-.75 2.25 2.25 0 1 1 3.744 2.48"/></svg>