<svg viewBox="0 0 24 24" xmlns="http://www.w3.org/2000/svg" aria-hidden="true" fill="currentColor" height="24px" width="24px"><g clip-path="url(#a)"><path d="M9.375 9.377A1.125 1.125 0 0 1 10.5 8.252h3a1.125 1.125 0 1 1 0 2.25h-3a1.125 1.125 0 0 1-1.125-1.125m14.25 10.875a1.125 1.125 0 0 1-1.125 1.125h-21a1.125 1.125 0 1 1 0-2.25h.375v-4.565a1.125 1.125 0 0 1-1.29-1.717l3.75-5.25q.114-.16.276-.271l6.333-4.374.016-.01a1.87 1.87 0 0 1 2.08 0l.016.01 6.333 4.374q.161.11.276.271l3.75 5.25a1.125 1.125 0 0 1-1.29 1.717v4.565h.375a1.125 1.125 0 0 1 1.125 1.125m-19.5-1.125H6v-6a1.125 1.125 0 0 1 1.125-1.125h9.75A1.125 1.125 0 0 1 18 13.127v6h1.875v-7.364l-1.927-2.697L12 4.958 6.052 9.066l-1.927 2.697zm11.625-4.875h-5.072l5.072 3.569zm-7.5 4.875h5.447L8.25 15.294z"/></g><defs><clipPath id="a"><path d="M0 0h24v24H0z"/></clipPath></defs></svg>