<svg viewBox="0 0 24 24" xmlns="http://www.w3.org/2000/svg" aria-hidden="true" fill="currentColor" height="24px" width="24px"><g clip-path="url(#a)"><path d="M23 4.875H2A1.125 1.125 0 0 0 .875 6v12A1.125 1.125 0 0 0 2 19.125h21A1.125 1.125 0 0 0 24.125 18V6A1.125 1.125 0 0 0 23 4.875m-5.512 12H7.512a5.64 5.64 0 0 0-4.387-4.387v-.976a5.64 5.64 0 0 0 4.387-4.387h9.976a5.64 5.64 0 0 0 4.387 4.387v.976a5.64 5.64 0 0 0-4.387 4.387m4.387-7.693a3.4 3.4 0 0 1-2.057-2.057h2.057zM5.182 7.125a3.4 3.4 0 0 1-2.057 2.057V7.125zm-2.057 7.693a3.4 3.4 0 0 1 2.057 2.057H3.125zm16.693 2.057a3.4 3.4 0 0 1 2.057-2.057v2.057zM12.5 8.25a3.75 3.75 0 1 0 0 7.5 3.75 3.75 0 0 0 0-7.5m0 5.25a1.5 1.5 0 1 1 0-3 1.5 1.5 0 0 1 0 3"/></g><defs><clipPath id="a"><path d="M0 0h24v24H0z"/></clipPath></defs></svg>