<svg viewBox="0 0 24 24" xmlns="http://www.w3.org/2000/svg" aria-hidden="true" fill="currentColor" height="24px" width="24px"><path d="m23.357 9.707-1.313-3.28a1.865 1.865 0 0 0-1.74-1.177h-1.742v-.375a1.125 1.125 0 1 0-2.25 0v8.819a3.4 3.4 0 0 0-2.056 2.057h-4.137a3.375 3.375 0 0 0-6.363 0h-.944v-3.375a1.125 1.125 0 1 0-2.25 0v3.75A1.875 1.875 0 0 0 2.437 18h1.319a3.375 3.375 0 0 0 6.363 0h4.137a3.375 3.375 0 0 0 6.363 0h.943a1.875 1.875 0 0 0 1.875-1.875v-6q0-.217-.08-.418M20.05 7.5l.6 1.5h-2.089V7.5zM6.937 18a1.125 1.125 0 1 1 0-2.25 1.125 1.125 0 0 1 0 2.25m10.5 0a1.125 1.125 0 1 1 0-2.25 1.125 1.125 0 0 1 0 2.25m3.182-2.25a3.4 3.4 0 0 0-2.057-2.056V11.25h2.625v4.5zM1.687 7.5a1.125 1.125 0 1 0 0 2.25h12a1.125 1.125 0 1 0 0-2.25h-1.125V6h1.125a1.125 1.125 0 1 0 0-2.25h-12a1.125 1.125 0 1 0 0 2.25h1.125v1.5zm8.625 0h-1.5V6h1.5zM5.062 6h1.5v1.5h-1.5z"/></svg>