<svg viewBox="0 0 24 24" xmlns="http://www.w3.org/2000/svg" aria-hidden="true" fill="currentColor"><path d="M22.192 4.363a1.13 1.13 0 0 0-.965-.204l-5.596 1.398-5.625-2.812c-.24-.12-.515-.15-.776-.085l-6 1.5a1.125 1.125 0 0 0-.855 1.09v13.5a1.125 1.125 0 0 0 1.398 1.091l5.596-1.399 5.625 2.813c.24.12.515.15.776.085l6-1.5a1.126 1.126 0 0 0 .855-1.09V5.25a1.13 1.13 0 0 0-.433-.887M10.625 5.571l3.75 1.875v10.983l-3.75-1.875zm-6 .562 3.75-.937V16.37l-3.75.938zm15.75 11.738-3.75.938V7.629l3.75-.938z"/></svg>