<svg viewBox="0 0 24 24" xmlns="http://www.w3.org/2000/svg" aria-hidden="true" fill="currentColor"><path d="M21.75 5.25v13.5a1.5 1.5 0 0 1-1.5 1.5H13.5a.75.75 0 1 1 0-1.5h6.75V5.25H3.75V9a.75.75 0 0 1-1.5 0V5.25a1.5 1.5 0 0 1 1.5-1.5h16.5a1.5 1.5 0 0 1 1.5 1.5M3 17.25a.75.75 0 1 0 0 1.5.75.75 0 0 1 .75.75.75.75 0 1 0 1.5 0A2.25 2.25 0 0 0 3 17.25m0-3a.75.75 0 1 0 0 1.5 3.75 3.75 0 0 1 3.75 3.75.75.75 0 1 0 1.5 0A5.256 5.256 0 0 0 3 14.25m0-3a.75.75 0 1 0 0 1.5 6.76 6.76 0 0 1 6.75 6.75.75.75 0 1 0 1.5 0A8.26 8.26 0 0 0 3 11.25"/></svg>