<svg viewBox="0 0 24 24" xmlns="http://www.w3.org/2000/svg" aria-hidden="true" fill="currentColor" height="24px" width="24px"><path d="m22.546 10.828-7.5-7.5a1.125 1.125 0 0 0-1.921.795v3.444c-2.415.293-5.03 1.49-7.195 3.326-2.734 2.32-4.437 5.314-4.795 8.437a1.5 1.5 0 0 0 2.584 1.2c.98-1.045 4.406-4.289 9.406-4.728v3.321a1.124 1.124 0 0 0 1.92.795l7.5-7.5a1.125 1.125 0 0 0 .001-1.59m-7.171 5.576v-1.781a1.125 1.125 0 0 0-1.125-1.125c-4.594 0-8.116 2.021-10.293 3.76.669-1.702 1.84-3.302 3.429-4.649 2.11-1.791 4.677-2.861 6.864-2.861a1.125 1.125 0 0 0 1.125-1.125V6.842l4.781 4.781z"/></svg>