<svg width="24" height="24" viewBox="0 0 24 24" xmlns="http://www.w3.org/2000/svg" fill="currentColor"> <path d="M14.125 10.5C14.125 10.7984 14.0065 11.0845 13.7955 11.2955C13.5845 11.5065 13.2984 11.625 13 11.625H6.99999C6.70163 11.625 6.41548 11.5065 6.2045 11.2955C5.99352 11.0845 5.87499 10.7984 5.87499 10.5C5.87499 10.2016 5.99352 9.91548 6.2045 9.7045C6.41548 9.49352 6.70163 9.37499 6.99999 9.37499H13C13.2984 9.37499 13.5845 9.49352 13.7955 9.7045C14.0065 9.91548 14.125 10.2016 14.125 10.5ZM21.2959 21.7959C21.1914 21.9008 21.0672 21.984 20.9305 22.0408C20.7937 22.0976 20.6471 22.1268 20.4991 22.1268C20.351 22.1268 20.2044 22.0976 20.0676 22.0408C19.9309 21.984 19.8067 21.9008 19.7022 21.7959L15.25 17.3437C13.5104 18.6787 11.3282 19.3019 9.14606 19.087C6.96389 18.8722 4.94515 17.8353 3.49936 16.1867C2.05356 14.5382 1.28898 12.4014 1.3607 10.2098C1.43243 8.01829 2.33509 5.93607 3.88558 4.38558C5.43607 2.83509 7.51829 1.93243 9.70984 1.8607C11.9014 1.78898 14.0382 2.55356 15.6867 3.99936C17.3353 5.44515 18.3722 7.46389 18.587 9.64606C18.8019 11.8282 18.1787 14.0104 16.8437 15.75L21.3006 20.2059C21.5107 20.4175 21.6282 20.7038 21.6273 21.0019C21.6264 21.3 21.5072 21.5856 21.2959 21.7959ZM9.99999 16.875C11.2608 16.875 12.4934 16.5011 13.5418 15.8006C14.5901 15.1001 15.4072 14.1045 15.8897 12.9396C16.3722 11.7747 16.4985 10.4929 16.2525 9.25629C16.0065 8.01966 15.3994 6.88375 14.5078 5.99219C13.6162 5.10063 12.4803 4.49347 11.2437 4.24749C10.0071 4.00151 8.72527 4.12775 7.56039 4.61026C6.39551 5.09277 5.39987 5.90987 4.69938 6.95823C3.99888 8.0066 3.62499 9.23914 3.62499 10.5C3.62698 12.1901 4.29927 13.8105 5.49438 15.0056C6.68949 16.2007 8.30985 16.873 9.99999 16.875Z"/> </svg>