<svg viewBox="0 0 24 24" xmlns="http://www.w3.org/2000/svg" aria-hidden="true" fill="currentColor"><g clip-path="url(#a)"><path d="M23.514 17.325a1.13 1.13 0 0 0-1.014-.638h-8.625v-1.5h6.375a1.124 1.124 0 0 0 .832-1.881l-7.207-7.929v-2.94a1.125 1.125 0 0 0-1.986-.722L2.139 13.34A1.125 1.125 0 0 0 3 15.187h8.625v1.5H1.5a1.125 1.125 0 0 0-.878 1.828l2.775 3.47a1.87 1.87 0 0 0 1.463.702h14.28a1.87 1.87 0 0 0 1.463-.704l2.775-3.468a1.13 1.13 0 0 0 .136-1.19m-5.807-4.388h-3.832V8.72zm-12.295 0 6.213-7.406v7.406zm13.547 7.5H5.041l-1.197-1.5h16.312z"/></g><defs><clipPath id="a"><path d="M0 0h24v24H0z"/></clipPath></defs></svg>