<svg width="24" height="24" viewBox="0 0 24 24" fill="none" xmlns="http://www.w3.org/2000/svg">
<path d="M11.5 16.875C12.7925 16.8735 14.0316 16.3594 14.9455 15.4455C15.8594 14.5316 16.3735 13.2925 16.375 12V6C16.375 4.70707 15.8614 3.46709 14.9471 2.55285C14.0329 1.63861 12.7929 1.125 11.5 1.125C10.2071 1.125 8.96709 1.63861 8.05285 2.55285C7.13861 3.46709 6.625 4.70707 6.625 6V12C6.62649 13.2925 7.14058 14.5316 8.0545 15.4455C8.96842 16.3594 10.2075 16.8735 11.5 16.875ZM8.875 6C8.875 5.30381 9.15156 4.63613 9.64384 4.14384C10.1361 3.65156 10.8038 3.375 11.5 3.375C12.1962 3.375 12.8639 3.65156 13.3562 4.14384C13.8484 4.63613 14.125 5.30381 14.125 6V12C14.125 12.6962 13.8484 13.3639 13.3562 13.8562C12.8639 14.3484 12.1962 14.625 11.5 14.625C10.8038 14.625 10.1361 14.3484 9.64384 13.8562C9.15156 13.3639 8.875 12.6962 8.875 12V6ZM12.625 20.5519V22.5C12.625 22.7984 12.5065 23.0845 12.2955 23.2955C12.0845 23.5065 11.7984 23.625 11.5 23.625C11.2016 23.625 10.9155 23.5065 10.7045 23.2955C10.4935 23.0845 10.375 22.7984 10.375 22.5V20.5519C8.30129 20.2762 6.39805 19.2574 5.01871 17.6847C3.63937 16.1119 2.87765 14.092 2.875 12C2.875 11.7016 2.99353 11.4155 3.2045 11.2045C3.41548 10.9935 3.70163 10.875 4 10.875C4.29837 10.875 4.58452 10.9935 4.7955 11.2045C5.00647 11.4155 5.125 11.7016 5.125 12C5.125 13.6908 5.79665 15.3123 6.99219 16.5078C8.18774 17.7034 9.80925 18.375 11.5 18.375C13.1908 18.375 14.8123 17.7034 16.0078 16.5078C17.2034 15.3123 17.875 13.6908 17.875 12C17.875 11.7016 17.9935 11.4155 18.2045 11.2045C18.4155 10.9935 18.7016 10.875 19 10.875C19.2984 10.875 19.5845 10.9935 19.7955 11.2045C20.0065 11.4155 20.125 11.7016 20.125 12C20.1223 14.092 19.3606 16.1119 17.9813 17.6847C16.6019 19.2574 14.6987 20.2762 12.625 20.5519Z" fill="black"/>
</svg>
