<svg width="24" height="24" viewBox="0 0 24 24" fill="none" xmlns="http://www.w3.org/2000/svg">
<path d="M20.2085 9.75C20.2085 10.0484 20.09 10.3345 19.879 10.5455C19.668 10.7565 19.3819 10.875 19.0835 10.875C18.7851 10.875 18.499 10.7565 18.288 10.5455C18.077 10.3345 17.9585 10.0484 17.9585 9.75C17.9585 8.05925 17.2868 6.43774 16.0913 5.24219C14.8958 4.04665 13.2743 3.375 11.5835 3.375C9.89274 3.375 8.27123 4.04665 7.07569 5.24219C5.88015 6.43774 5.2085 8.05925 5.2085 9.75C5.2085 12.0938 5.91912 12.7781 6.74131 13.5712C7.5635 14.3644 8.5835 15.3478 8.5835 17.625C8.5835 18.4206 8.89957 19.1837 9.46218 19.7463C10.0248 20.3089 10.7878 20.625 11.5835 20.625C12.4272 20.625 13.1013 20.2781 13.7163 19.5338C13.9085 19.3111 14.1803 19.1725 14.4734 19.1478C14.7664 19.1231 15.0576 19.2141 15.2844 19.4014C15.5111 19.5888 15.6555 19.8574 15.6866 20.1499C15.7177 20.4424 15.633 20.7355 15.4507 20.9662C14.4044 22.2328 13.1032 22.875 11.5835 22.875C10.1916 22.8735 8.85707 22.3199 7.87283 21.3357C6.88859 20.3514 6.33499 19.0169 6.3335 17.625C6.3335 16.3041 5.89943 15.885 5.17943 15.1875C4.18943 14.2369 2.9585 13.0491 2.9585 9.75C2.9585 7.46251 3.8672 5.26871 5.4847 3.6512C7.1022 2.0337 9.296 1.125 11.5835 1.125C13.871 1.125 16.0648 2.0337 17.6823 3.6512C19.2998 5.26871 20.2085 7.46251 20.2085 9.75ZM16.4463 14.7759C16.3184 14.7019 16.1772 14.6538 16.0307 14.6344C15.8842 14.615 15.7353 14.6246 15.5925 14.6627C15.4497 14.7008 15.3158 14.7667 15.1985 14.8566C15.0812 14.9465 14.9828 15.0586 14.9088 15.1866C14.8677 15.2583 14.8039 15.3145 14.7275 15.3463C14.6512 15.378 14.5664 15.3837 14.4865 15.3623C14.4066 15.3409 14.336 15.2936 14.2857 15.228C14.2354 15.1623 14.2083 15.0818 14.2085 14.9991C14.2085 14.2856 14.5507 13.7934 15.1085 13.0491C15.7085 12.2484 16.4585 11.25 16.4585 9.75C16.4585 8.45707 15.9449 7.21709 15.0306 6.30285C14.1164 5.38861 12.8764 4.875 11.5835 4.875C10.2906 4.875 9.05059 5.38861 8.13635 6.30285C7.22211 7.21709 6.7085 8.45707 6.7085 9.75C6.7085 10.0484 6.82702 10.3345 7.038 10.5455C7.24898 10.7565 7.53513 10.875 7.8335 10.875C8.13186 10.875 8.41801 10.7565 8.62899 10.5455C8.83997 10.3345 8.9585 10.0484 8.9585 9.75C8.9585 9.05381 9.23506 8.38613 9.72734 7.89384C10.2196 7.40156 10.8873 7.125 11.5835 7.125C12.2797 7.125 12.9474 7.40156 13.4397 7.89384C13.9319 8.38613 14.2085 9.05381 14.2085 9.75C14.2085 10.4634 13.8663 10.9556 13.3085 11.7C12.7085 12.5016 11.9585 13.5 11.9585 15C11.9585 15.5779 12.1491 16.1396 12.5009 16.5981C12.8527 17.0566 13.3459 17.3862 13.9041 17.5358C14.4623 17.6853 15.0543 17.6465 15.5882 17.4253C16.122 17.2042 16.568 16.813 16.8569 16.3125C17.0061 16.0543 17.0467 15.7473 16.9697 15.4592C16.8927 15.1711 16.7044 14.9253 16.4463 14.7759Z" fill="black"/>
</svg>
