<svg viewBox="0 0 24 24" xmlns="http://www.w3.org/2000/svg" aria-hidden="true" fill="currentColor"><path d="M21 9.75v10.5a.75.75 0 0 1-1.5 0V9.75a5.256 5.256 0 0 0-5.25-5.25h-4.5A5.256 5.256 0 0 0 4.5 9.75v10.5a.75.75 0 1 1-1.5 0V9.75A6.757 6.757 0 0 1 9.75 3h4.5A6.757 6.757 0 0 1 21 9.75m-3.75 0v6.75a2.25 2.25 0 0 1-1.809 2.206l.23.458a.75.75 0 0 1-.336 1.007.75.75 0 0 1-1.007-.335l-.541-1.086h-3.574l-.542 1.086a.75.75 0 1 1-1.342-.672l.23-.458a2.25 2.25 0 0 1-1.81-2.206V9.75A2.25 2.25 0 0 1 9 7.5h6a2.25 2.25 0 0 1 2.25 2.25m-9 0v4.5h7.5v-4.5A.75.75 0 0 0 15 9H9a.75.75 0 0 0-.75.75m3 6v1.5h1.5v-1.5zM9 17.25h.75v-1.5h-1.5v.75a.75.75 0 0 0 .75.75m6.75-.75v-.75h-1.5v1.5H15a.75.75 0 0 0 .75-.75"/></svg>