<svg viewBox="0 0 24 24" xmlns="http://www.w3.org/2000/svg" aria-hidden="true" fill="currentColor"><path d="M20.967 18.614 17.856 3.82a1.5 1.5 0 0 0-1.781-1.162l-4.389.944a1.507 1.507 0 0 0-1.153 1.78l3.112 14.795a1.5 1.5 0 0 0 1.78 1.164l4.39-.943a1.51 1.51 0 0 0 1.152-1.784M12 5.076v-.008l4.388-.938.312 1.488-4.388.944zm.62 2.95 4.39-.942.313 1.491-4.385.943zm.623 2.96 4.39-.943 1.247 5.929-4.39.943zm6.257 7.946-4.387.937-.312-1.488 4.387-.944.312 1.486zM9 3.375H4.5a1.5 1.5 0 0 0-1.5 1.5v15a1.5 1.5 0 0 0 1.5 1.5H9a1.5 1.5 0 0 0 1.5-1.5v-15a1.5 1.5 0 0 0-1.5-1.5m-4.5 1.5H9v1.5H4.5zm0 3H9v9H4.5zm4.5 12H4.5v-1.5H9z"/></svg>