<svg aria-hidden="true" xmlns="http://www.w3.org/2000/svg" version="1.1" viewBox="0 0 52 52"><path d="M26,0 C11.663,0 0,11.663 0,26 C0,40.337 11.663,52 26,52 C40.337,52 52,40.337 52,26 C52,11.663 40.337,0 26,0 L26,0 Z M28,41 C28,42.104 27.104,43 26,43 C24.896,43 24,42.104 24,41 L24,39 C24,37.896 24.896,37 26,37 C27.104,37 28,37.896 28,39 L28,41 L28,41 Z M30.874,24.567 C29.102,25.711 28,27.853 28,30.158 L28,33 C28,34.104 27.104,35 26,35 C24.896,35 24,34.104 24,33 L24,30.158 C24,26.452 25.76,23.105 28.706,21.206 C30.166,20.264 31.023,18.665 30.999,16.929 C30.963,14.294 28.706,12.037 26.071,12.001 C24.705,11.934 23.449,12.493 22.489,13.439 C21.529,14.387 21,15.651 21,17 C21,18.104 20.105,19 19,19 C17.896,19 17,18.104 17,17 C17,14.572 17.952,12.297 19.681,10.592 C21.378,8.918 23.617,8 25.998,8 L26.128,8.001 C30.952,8.068 34.932,12.048 34.999,16.872 C35.043,19.996 33.501,22.873 30.874,24.567 L30.874,24.567 Z"></path></svg>
