<svg
  aria-hidden="true"
  width="18"
  height="18"
  viewBox="0 0 18 18"
  version="1.1"
  xmlns="http://www.w3.org/2000/svg"
>
  <path d="M4.34703936,8.25327008 L1.40142933,11.6592593 L1.40142933,17.4059379 C1.40142933,17.567951 1.51945073,17.6990859 1.66526256,17.6990859 L5.24178578,17.6990859 C5.38742172,17.6990859 5.505619,17.567951 5.505619,17.4059379 L5.505619,8.59058574 L4.68070045,8.25327008 L4.34703936,8.25327008 Z"></path>
  <path d="M11.6323366,10.9243372 L8.05581338,10.9243372 C7.91017744,10.9243372 7.79198016,11.055863 7.79198016,11.2174852 L7.79198016,17.4060356 C7.79198016,17.5678533 7.91017744,17.6991836 8.05581338,17.6991836 L11.6323366,17.6991836 C11.7781484,17.6991836 11.8961698,17.5678533 11.8961698,17.4060356 L11.8961698,11.2174852 C11.8961698,11.055863 11.7781484,10.9243372 11.6323366,10.9243372"></path>
  <path d="M17.8920261,4.74684832 C17.7555364,4.82619372 17.6016337,4.86821161 17.4472033,4.86821161 C17.2225933,4.86821161 17.0036117,4.7802672 16.8315925,4.62001294 L16.1816833,4.01651887 L13.8309292,6.86591771 L13.8309292,17.4061528 C13.8309292,17.5679705 13.9491265,17.6993009 14.0947625,17.6993009 L17.6712857,17.6993009 C17.8170975,17.6993009 17.9351189,17.5679705 17.9351189,17.4061528 L17.9351189,4.71694723 C17.9203442,4.72671883 17.9071526,4.73805388 17.8920261,4.74684832"></path>
  <path d="M10.1657932,9.44460413 C10.3671859,9.52649014 10.5921477,9.46571078 10.7370801,9.29060369 L16.1613154,2.71568426 L17.430705,3.8945302 C17.4927937,3.95198721 17.5796828,3.96273598 17.6514454,3.92110896 C17.7228563,3.8792865 17.7648937,3.79446901 17.7576823,3.70476571 L17.482768,0.286855118 C17.4729183,0.164710106 17.3760035,0.0746159451 17.266073,0.0857555702 L14.1897776,0.391215817 C14.1092205,0.39922853 14.0409757,0.460398752 14.0170548,0.545802544 C14.0089639,0.574335619 14.0061497,0.603259558 14.0084362,0.631792633 C14.0130093,0.689249647 14.0378097,0.743579748 14.0793194,0.782079856 L15.3508197,1.96307555 L10.1981568,8.2084966 L4.31537937,5.80351017 C4.11873568,5.72338304 3.89799521,5.77986289 3.75288694,5.9471527 L0.147166174,10.1164994 C-0.0547541889,10.3498452 -0.0480704139,10.7211661 0.161940834,10.945522 C0.264484015,11.054964 0.39622474,11.1090986 0.527613686,11.1090986 C0.666214075,11.1090986 0.804462685,11.0485147 0.908237088,10.9291057 L4.27492495,7.03590448 L10.1657932,9.44460413 Z"></path>
</svg>
