<svg
  aria-hidden="true"
  width="19"
  height="20"
  viewBox="0 0 19 20"
  version="1.1"
  xmlns="http://www.w3.org/2000/svg"
>
  <path d="M18.9875908,0.584727273 C18.9837725,0.563272727 18.9767725,0.543272727 18.9713633,0.522545455 C18.9649996,0.497818182 18.9599086,0.473090909 18.9513176,0.449090909 C18.9424084,0.424727273 18.9303174,0.402545455 18.9191809,0.379272727 C18.9102717,0.361090909 18.9032716,0.341818182 18.8927715,0.324 C18.8463164,0.244363636 18.7864976,0.175636364 18.7164968,0.122545455 C18.7005875,0.110181818 18.6830873,0.101818182 18.6665417,0.0912727273 C18.6468142,0.0789090909 18.6280412,0.0654545455 18.607041,0.0556363636 C18.5857226,0.0454545455 18.5637678,0.0396363636 18.541813,0.0323636364 C18.5239946,0.0265454545 18.5068126,0.0185454545 18.4883578,0.0141818182 C18.4473119,0.00509090909 18.4053114,0 18.3636291,0 L14.5454039,0 C14.1941272,0 13.9090331,0.325818182 13.9090331,0.727272727 C13.9090331,1.12872727 14.1941272,1.45454545 14.5454039,1.45454545 L16.8274299,1.45454545 L12.1863771,6.75854545 C11.9378743,7.04254545 11.9378743,7.50290909 12.1863771,7.78690909 C12.3104694,7.92909091 12.4733804,8 12.6362913,8 C12.7992023,8 12.9621132,7.92909091 13.0862055,7.78690909 L17.7272583,2.48290909 L17.7272583,5.09090909 C17.7272583,5.49236364 18.0123524,5.81818182 18.3636291,5.81818182 C18.715224,5.81818182 19,5.49236364 19,5.09090909 L19,0.727272727 C19,0.679636364 18.9955454,0.632 18.9875908,0.584727273"></path>
  <path d="M5.91379447,12.2130024 L1.27274174,17.5170627 L1.27274174,14.9090331 C1.27274174,14.5075739 0.987965772,14.1817521 0.636370868,14.1817521 C0.284775963,14.1817521 0,14.5075739 0,14.9090331 L0,19.272719 C0,19.3203559 0.00445459607,19.3679928 0.0127274174,19.4152661 C0.0162274571,19.4367209 0.0232275367,19.4567211 0.0286366891,19.4774486 C0.0350003977,19.5021762 0.0400913647,19.5269037 0.0486823714,19.550904 C0.0575915635,19.5752679 0.06968261,19.59745 0.0808191002,19.6203593 C0.0897282924,19.638905 0.0967283719,19.6581779 0.107228491,19.6759963 C0.153683565,19.7556336 0.213502426,19.8243616 0.283503222,19.8774532 C0.299094308,19.8894533 0.316276321,19.897817 0.332821964,19.907999 C0.352549461,19.9203627 0.371958772,19.9341811 0.392959011,19.944363 C0.41395925,19.9541813 0.435914044,19.9599995 0.457550654,19.9672724 C0.475687224,19.9734542 0.492869237,19.9814543 0.511642178,19.9854544 C0.553006284,19.994909 0.594688576,20 0.636370868,20 L4.45459607,20 C4.80587279,20 5.09096694,19.6741781 5.09096694,19.272719 C5.09096694,18.8712599 4.80587279,18.545438 4.45459607,18.545438 L2.17257014,18.545438 L6.81362288,13.2413777 C7.06212571,12.9573745 7.06212571,12.4970056 6.81362288,12.2130024 C6.56543824,11.9289992 6.16197911,11.9289992 5.91379447,12.2130024"></path>
  <path d="M0.636399795,5.81871079 C0.988010682,5.81871079 1.27279959,5.49286299 1.27279959,5.09137194 L1.27279959,2.48313483 L5.9137451,7.78725339 C6.03784306,7.92908446 6.20076141,8 6.36367975,8 C6.5262799,8 6.68919825,7.92908446 6.81361441,7.78725339 C7.06212853,7.50322757 7.06212853,7.04245841 6.81361441,6.75843258 L2.1726689,1.4546777 L4.45479857,1.4546777 C4.80609126,1.4546777 5.09119836,1.12882989 5.09119836,0.727338849 C5.09119836,0.325847804 4.80609126,0 4.45479857,0 L0.636399795,0 C0.594715609,0 0.553031422,0.00509137194 0.511665436,0.0141831076 C0.493209841,0.0185471406 0.476027047,0.026547868 0.458207853,0.0323665788 C0.43625206,0.0396399673 0.414296267,0.0454586781 0.392976874,0.0556414219 C0.37197568,0.0654604964 0.353201886,0.0792799345 0.333473493,0.0912810255 C0.316608898,0.101827439 0.299426104,0.110191836 0.283516109,0.122556596 C0.213512131,0.175652332 0.153690551,0.244385853 0.107233366,0.324029457 C0.0967327689,0.341849259 0.0897323712,0.361123739 0.080822774,0.37930721 C0.0696857776,0.402582053 0.0575941815,0.424765888 0.0486845844,0.449131739 C0.0400931871,0.473133921 0.0350019887,0.497863442 0.0286379908,0.522592963 C0.0232285925,0.54332212 0.0162281948,0.563323939 0.0127279959,0.584780435 C0.00445479857,0.63205746 0,0.679698154 0,0.727338849 L0,5.09137194 C0,5.49286299 0.284788908,5.81871079 0.636399795,5.81871079"></path>
  <path d="M18.3636581,14.1820165 C18.0123973,14.1820165 17.7273161,14.5078236 17.7273161,14.9092645 L17.7273161,17.5171756 L13.0864743,12.2129927 C12.8379828,11.9290024 12.4348602,11.9290024 12.1863686,12.2129927 C11.9378771,12.4969831 11.9378771,12.9576946 12.1863686,13.2416849 L16.8275286,18.5455041 L14.5456064,18.5455041 C14.1943456,18.5455041 13.9092645,18.8713112 13.9092645,19.2727521 C13.9092645,19.6741929 14.1943456,20 14.5456064,20 L18.3636581,20 C18.4053385,20 18.4470189,19.9949093 18.4883811,19.985455 C18.5071532,19.9814552 18.5243344,19.9734555 18.5424701,19.9672738 C18.5641058,19.9600014 18.5860596,19.9541834 18.6070589,19.9443655 C18.6280581,19.9341841 18.6474666,19.9203664 18.6671932,19.9080031 C18.6837381,19.8978217 18.7009193,19.8894583 18.7165097,19.8774587 C18.7865073,19.8243696 18.8463234,19.7556447 18.8927764,19.676011 C18.903276,19.6581935 18.9102758,19.6389214 18.9191846,19.6203766 C18.9303206,19.5974683 18.9424111,19.5752872 18.9513198,19.5509244 C18.9599105,19.5269252 18.9650012,19.5021988 18.9713646,19.4774724 C18.9767735,19.4567458 18.9837733,19.4367465 18.9875913,19.4152927 C18.9955456,19.3680215 19,19.3203868 19,19.2727521 L19,14.9092645 C19,14.5078236 18.715237,14.1820165 18.3636581,14.1820165"></path>
</svg>
