<svg
  aria-hidden="true"
  width="18"
  height="24"
  viewBox="0 0 18 24"
  version="1.1"
  xmlns="http://www.w3.org/2000/svg"
  xmlns:xlink="http://www.w3.org/1999/xlink"
>
  <defs>
    <polygon id="path-1" points="2.35294118e-05 0.0852257703 17.9869412 0.0852257703 17.9869412 23.0662932 2.35294118e-05 23.0662932"></polygon>
    <polygon id="path-3" points="0 23.0662932 17.9869412 23.0662932 17.9869412 0.0852138189 0 0.0852138189"></polygon>
    <path d="M1.87764706,0.0213930906 L0.0850588235,2.12711858 L0.0850588235,5.6799253 C0.0850588235,5.77995892 0.157058824,5.86110924 0.245647059,5.86110924 L0.245647059,5.86110924 L2.42223529,5.86110924 C2.51082353,5.86110924 2.58282353,5.77995892 2.58282353,5.6799253 L2.58282353,5.6799253 L2.58282353,0.229945845 L2.08082353,0.0213930906 L1.87764706,0.0213930906 Z" id="path-5"></path>
    <path d="M0.252470588,0.119036415 C0.163882353,0.119036415 0.0918823529,0.20042577 0.0918823529,0.300220355 L0.0918823529,0.300220355 L0.0918823529,4.12623716 C0.0918823529,4.22627077 0.163882353,4.3074211 0.252470588,4.3074211 L0.252470588,4.3074211 L2.42905882,4.3074211 C2.51776471,4.3074211 2.58964706,4.22627077 2.58964706,4.12623716 L2.58964706,4.12623716 L2.58964706,0.300220355 C2.58964706,0.20042577 2.51776471,0.119036415 2.42905882,0.119036415 L2.42905882,0.119036415 L0.252470588,0.119036415 Z" id="path-7"></path>
    <path d="M0.00235294118,1.79307563 L0.00235294118,8.3092437 C0.00235294118,8.40927731 0.0743529412,8.49054715 0.162941176,8.49054715 L0.162941176,8.49054715 L2.33952941,8.49054715 C2.42823529,8.49054715 2.50011765,8.40927731 2.50011765,8.3092437 L2.50011765,8.3092437 L2.50011765,0.46443324 C2.49105882,0.470528478 2.48305882,0.477460317 2.47376471,0.482838469 L2.47376471,0.482838469 C2.39082353,0.531958917 2.29705882,0.558013072 2.20317647,0.558013072 L2.20317647,0.558013072 C2.06647059,0.558013072 1.93317647,0.503514472 1.82847059,0.404436975 L1.82847059,0.404436975 L1.43294118,0.0314323063 L0.00235294118,1.79307563 Z" id="path-9"></path>
    <path d="M10.5717647,0.0592791783 C10.5690588,0.0593986928 10.5662353,0.0595182073 10.5634118,0.0598767507 L10.5634118,0.0598767507 L8.69129412,0.248709617 C8.64235294,0.253729225 8.60082353,0.291495798 8.58611765,0.344321195 L8.58611765,0.344321195 C8.58117647,0.362009337 8.57952941,0.379816993 8.58094118,0.397505135 L8.58094118,0.397505135 C8.58376471,0.433000934 8.59882353,0.466704015 8.62411765,0.49036788 L8.62411765,0.49036788 L9.39788235,1.22060131 L6.26211765,5.08163585 L2.682,3.59487582 C2.56235294,3.54539683 2.428,3.58017554 2.33964706,3.68355556 L2.33964706,3.68355556 L0.145294118,6.2612437 C0.0224705882,6.40549767 0.0265882353,6.63508497 0.154352941,6.77384127 L0.154352941,6.77384127 C0.216823529,6.84136695 0.296823529,6.874831 0.376941176,6.874831 L0.376941176,6.874831 C0.461294118,6.874831 0.545411765,6.83742297 0.608588235,6.76368254 L0.608588235,6.76368254 L2.65741176,4.35666106 L6.24247059,5.84581139 C6.36505882,5.89648553 6.50188235,5.85895798 6.59011765,5.75067787 L6.59011765,5.75067787 L9.89105882,1.68575163 L10.6636471,2.4146704 C10.7014118,2.4501662 10.7543529,2.45685901 10.7981176,2.43104388 L10.7981176,2.43104388 C10.8372941,2.40761905 10.8617647,2.36280112 10.8630588,2.31344164 L10.8630588,2.31344164 L10.8630588,2.30555369 C10.8629412,2.30280486 10.8628235,2.30005602 10.8627059,2.29730719 L10.8627059,2.29730719 L10.6954118,0.184171802 C10.6897647,0.114016807 10.6382353,0.0608328665 10.5772941,0.0592791783 L10.5772941,0.0592791783 L10.5717647,0.0592791783 Z" id="path-11"></path>
  </defs>
  <g id="data-icon/report" stroke="none" stroke-width="1">
    <g id="search-icon/report" transform="translate(-902.000000, -105.000000)">
      <g id="icon/report" transform="translate(902.000000, 105.000000)">
        <g id="Group-20" transform="translate(0.000000, 0.000000)">
          <g id="Group-7" transform="translate(0.000000, 0.034301)">
            <g id="Group-3">
              <mask id="mask-2" fill="white">
                <use xlink:href="#path-1"></use>
              </mask>
              <g id="Clip-2"></g>
              <path d="M1.76472941,21.273588 L1.76472941,1.87794286 L10.8936706,1.87794286 L10.8936706,6.3954704 C10.8936706,6.89049935 11.2886118,7.29182894 11.7760235,7.29182894 L16.2222588,7.29182894 L16.2222588,21.273588 L1.76472941,21.273588 Z M14.9743765,5.49911186 L12.6583765,5.49911186 L12.6583765,3.14623044 L14.9743765,5.49911186 Z M12.1414353,0.0852257703 L2.35294118e-05,0.0852257703 L2.35294118e-05,23.0663051 L17.9869647,23.0663051 L17.9869647,6.02354136 L12.1414353,0.0852257703 Z" mask="url(#mask-2)"></path>
            </g>
            <mask id="mask-4" fill="white">
              <use xlink:href="#path-3"></use>
            </mask>
            <g id="Clip-5"></g>
            <polygon mask="url(#mask-4)" points="3.93435294 7.86572549 9.94117647 7.86572549 9.94117647 6.67058077 3.93435294 6.67058077"></polygon>
            <polygon mask="url(#mask-4)" points="3.93435294 5.25815873 9.94117647 5.25815873 9.94117647 4.06301401 3.93435294 4.06301401"></polygon>
          </g>
          <g id="Group-10" transform="translate(4.352941, 13.419922)">
            <mask id="mask-6" fill="white">
              <use xlink:href="#path-5"></use>
            </mask>
            <g id="Clip-9"></g>
            <polygon mask="url(#mask-6)" points="-2.95776471 8.95223156 5.62564706 8.95223156 5.62564706 -3.06984874 -2.95776471 -3.06984874"></polygon>
          </g>
          <g id="Group-13" transform="translate(8.235294, 14.973610)">
            <mask id="mask-8" fill="white">
              <use xlink:href="#path-7"></use>
            </mask>
            <g id="Clip-12"></g>
            <polygon mask="url(#mask-8)" points="-2.95094118 7.39866293 5.63247059 7.39866293 5.63247059 -2.9720859 -2.95094118 -2.9720859"></polygon>
          </g>
          <g id="Group-16" transform="translate(12.000000, 10.790603)">
            <mask id="mask-10" fill="white">
              <use xlink:href="#path-9"></use>
            </mask>
            <g id="Clip-15"></g>
            <polygon mask="url(#mask-10)" points="-3.04047059 11.5816695 5.54294118 11.5816695 5.54294118 -3.05980952 -3.04047059 -3.05980952"></polygon>
          </g>
          <g id="Group-19" transform="translate(3.529412, 8.400314)">
            <mask id="mask-12" fill="white">
              <use xlink:href="#path-11"></use>
            </mask>
            <g id="Clip-18"></g>
            <polygon mask="url(#mask-12)" points="-2.98705882 9.96607283 13.9061176 9.96607283 13.9061176 -3.03184314 -2.98705882 -3.03184314"></polygon>
          </g>
        </g>
      </g>
    </g>
  </g>
</svg>
