<svg
  aria-hidden="true"
  width="18"
  height="18"
  viewBox="0 0 18 18"
  version="1.1"
  xmlns="http://www.w3.org/2000/svg"
>
  <path d="M11.7,9.45 C11.7,10.6903929 10.6903929,11.7 9.45,11.7 C8.20960714,11.7 7.2,10.6903929 7.2,9.45 C7.2,8.20960714 8.20960714,7.2 9.45,7.2 C10.6903929,7.2 11.7,8.20960714 11.7,9.45 M17.0733333,7 L15.3893333,7 C15.1186667,7 14.8956667,6.851 14.792,6.601 C14.6883333,6.351 14.741,6.08766667 14.932,5.896 L16.1226667,4.70566667 C16.298,4.53066667 16.3943333,4.298 16.3943333,4.05033333 C16.3943333,3.80266667 16.298,3.57 16.1226667,3.395 L14.605,1.87733333 C14.2553333,1.52733333 13.645,1.52666667 13.2943333,1.87733333 L12.104,3.06766667 C11.9456667,3.226 11.7716667,3.259 11.6533333,3.259 C11.4866667,3.259 11.321,3.19366667 11.1986667,3.07933333 C11.108,2.99466667 11,2.84466667 11,2.61066667 L11,0.926666667 C11,0.415666667 10.5843333,0 10.0733333,0 L7.92666667,0 C7.41566667,0 7,0.415666667 7,0.926666667 L7,2.61066667 C7,3.01666667 6.66766667,3.259 6.34633333,3.259 C6.22833333,3.259 6.05433333,3.226 5.896,3.06766667 L4.70566667,1.87733333 C4.355,1.52666667 3.74466667,1.52733333 3.395,1.87733333 L1.87733333,3.395 C1.702,3.57 1.60566667,3.80266667 1.60566667,4.05033333 C1.60566667,4.298 1.702,4.53066667 1.87733333,4.70566667 L3.068,5.896 C3.259,6.08766667 3.31166667,6.351 3.208,6.601 C3.10466667,6.851 2.88133333,7 2.61066667,7 L0.926666667,7 C0.415666667,7 0,7.41566667 0,7.92666667 L0,10.073 C0,10.584 0.415666667,11 0.926666667,11 L2.61066667,11 C2.88133333,11 3.10466667,11.149 3.208,11.399 C3.31166667,11.649 3.259,11.9123333 3.068,12.104 L1.87733333,13.2943333 C1.702,13.4693333 1.60566667,13.7023333 1.60566667,13.9496667 C1.60566667,14.1973333 1.702,14.43 1.87733333,14.605 L3.395,16.1226667 C3.745,16.473 4.355,16.4736667 4.70566667,16.1226667 L5.896,14.9323333 C6.05433333,14.774 6.22833333,14.741 6.34666667,14.741 C6.66766667,14.741 7,14.9833333 7,15.3893333 L7,17.073 C7,17.584 7.41566667,18 7.92666667,18 L10.0733333,18 C10.5843333,18 11,17.584 11,17.073 L11,15.3893333 C11,14.9833333 11.3323333,14.741 11.6533333,14.741 C11.7716667,14.741 11.9456667,14.774 12.104,14.9323333 L13.2943333,16.1226667 C13.645,16.4733333 14.2553333,16.4726667 14.605,16.1226667 L16.1226667,14.605 C16.298,14.43 16.3943333,14.1973333 16.3943333,13.9496667 C16.3943333,13.7023333 16.298,13.4693333 16.1226667,13.2943333 L14.932,12.104 C14.741,11.9123333 14.6883333,11.649 14.792,11.399 C14.8956667,11.149 15.1186667,11 15.3893333,11 L17.0733333,11 C17.5843333,11 18,10.584 18,10.073 L18,7.92666667 C18,7.41566667 17.5843333,7 17.0733333,7"></path>
</svg>
