<svg viewBox="0 0 24 24" xmlns="http://www.w3.org/2000/svg" aria-hidden="true" fill="currentColor"><g clip-path="url(#a)"><path d="M21.67 6.998a1.125 1.125 0 0 1-1.517-.48 8.45 8.45 0 0 0-3-3.316 1.125 1.125 0 1 1 1.2-1.903 10.8 10.8 0 0 1 3.8 4.184 1.125 1.125 0 0 1-.483 1.515m-16.823-.48a8.45 8.45 0 0 1 3-3.316A1.125 1.125 0 1 0 6.65 1.299a10.8 10.8 0 0 0-3.8 4.184 1.125 1.125 0 0 0 1.997 1.035m16.267 9.22a1.874 1.874 0 0 1-1.489 3.012h-3.018a4.125 4.125 0 0 1-8.214 0H5.375a1.875 1.875 0 0 1-1.492-3.011c.673-.875 1.475-2.496 1.49-5.245a7.126 7.126 0 1 1 14.252.006c.014 2.743.817 4.364 1.489 5.239m-6.776 3.012h-3.675a1.875 1.875 0 0 0 3.675 0m4.569-2.25c-.765-1.219-1.518-3.147-1.532-5.994a4.875 4.875 0 0 0-9.75-.006c-.014 2.852-.767 4.781-1.532 6z"/></g><defs><clipPath id="a"><path d="M0 0h24v24H0z"/></clipPath></defs></svg>