<svg viewBox="0 0 24 24" xmlns="http://www.w3.org/2000/svg" aria-hidden="true" fill="currentColor"><path d="M6.937 10.126a1.125 1.125 0 0 1 1.125-1.125h.75v-.75a1.125 1.125 0 1 1 2.25 0v.75h.75a1.125 1.125 0 0 1 0 2.25h-.75v.75a1.125 1.125 0 0 1-2.25 0v-.75h-.75a1.125 1.125 0 0 1-1.125-1.125m16.5 0v6a1.875 1.875 0 0 1-1.875 1.875h-.943a3.375 3.375 0 0 1-6.363 0h-4.137a3.375 3.375 0 0 1-6.363 0H2.437a1.875 1.875 0 0 1-1.875-1.875v-10.5a1.875 1.875 0 0 1 1.875-1.875h14.25a1.125 1.125 0 0 1 1.125 1.125v.375h2.492a1.865 1.865 0 0 1 1.741 1.178l1.313 3.282c.052.132.08.273.08.415m-5.625-2.625v1.5h2.84l-.6-1.5zm-15 8.25h.944a3.375 3.375 0 0 1 6.363 0h4.137a3.4 3.4 0 0 1 1.306-1.68v-8.07H2.812zm5.25 1.125a1.125 1.125 0 1 0-2.25 0 1.125 1.125 0 0 0 2.25 0m10.5 0a1.125 1.125 0 1 0-2.25 0 1.125 1.125 0 0 0 2.25 0m2.625-1.125v-4.5h-3.375v2.272a3.38 3.38 0 0 1 2.807 2.228z"/></svg>