<svg width="24" height="24" viewBox="0 0 24 24" xmlns="http://www.w3.org/2000/svg">
<path d="M21.3749 12C21.3749 12.2984 21.2564 12.5846 21.0454 12.7955C20.8344 13.0065 20.5483 13.125 20.2499 13.125H6.46866L11.2987 17.9541C11.51 18.1654 11.6287 18.4521 11.6287 18.751C11.6287 19.0499 11.51 19.3365 11.2987 19.5478C11.0873 19.7592 10.8007 19.8779 10.5018 19.8779C10.2029 19.8779 9.91625 19.7592 9.70491 19.5478L2.95491 12.7978C2.85003 12.6933 2.76681 12.5691 2.71003 12.4324C2.65325 12.2956 2.62402 12.149 2.62402 12.001C2.62402 11.8529 2.65325 11.7063 2.71003 11.5696C2.76681 11.4328 2.85003 11.3086 2.95491 11.2041L9.70491 4.4541C9.80956 4.34945 9.93379 4.26644 10.0705 4.20981C10.2072 4.15317 10.3538 4.12402 10.5018 4.12402C10.6498 4.12402 10.7963 4.15317 10.9331 4.20981C11.0698 4.26644 11.194 4.34945 11.2987 4.4541C11.4033 4.55875 11.4863 4.68298 11.543 4.81971C11.5996 4.95644 11.6287 5.10298 11.6287 5.25097C11.6287 5.39897 11.5996 5.54551 11.543 5.68224C11.4863 5.81897 11.4033 5.9432 11.2987 6.04785L6.46866 10.875H20.2499C20.5483 10.875 20.8344 10.9936 21.0454 11.2045C21.2564 11.4155 21.3749 11.7017 21.3749 12Z"/>
</svg>
