<svg width="24" height="24" viewBox="0 0 24 24" xmlns="http://www.w3.org/2000/svg">
<path d="M21.5459 12.7959L14.7959 19.5459C14.5846 19.7573 14.2979 19.876 13.9991 19.876C13.7002 19.876 13.4135 19.7573 13.2022 19.5459C12.9908 19.3346 12.8721 19.0479 12.8721 18.749C12.8721 18.4502 12.9908 18.1635 13.2022 17.9522L18.0312 13.125H4.25C3.95163 13.125 3.66548 13.0065 3.4545 12.7955C3.24353 12.5845 3.125 12.2984 3.125 12C3.125 11.7016 3.24353 11.4155 3.4545 11.2045C3.66548 10.9935 3.95163 10.875 4.25 10.875H18.0312L13.2041 6.04498C12.9927 5.83364 12.874 5.54699 12.874 5.24811C12.874 4.94922 12.9927 4.66258 13.2041 4.45123C13.4154 4.23989 13.7021 4.12115 14.0009 4.12115C14.2998 4.12115 14.5865 4.23989 14.7978 4.45123L21.5478 11.2012C21.6527 11.3059 21.7359 11.4302 21.7926 11.5671C21.8493 11.704 21.8784 11.8508 21.8782 11.999C21.8781 12.1471 21.8486 12.2938 21.7916 12.4306C21.7346 12.5674 21.6511 12.6915 21.5459 12.7959Z"/>
</svg>
