<svg width="24" height="24" viewBox="0 0 24 24" xmlns="http://www.w3.org/2000/svg">
<path d="M20.0459 11.296C19.9414 11.4009 19.8172 11.4841 19.6804 11.5409C19.5437 11.5976 19.3971 11.6269 19.249 11.6269C19.101 11.6269 18.9543 11.5976 18.8176 11.5409C18.6809 11.4841 18.5567 11.4009 18.4521 11.296L13.625 6.46879V20.25C13.625 20.5484 13.5064 20.8346 13.2955 21.0455C13.0845 21.2565 12.7983 21.375 12.5 21.375C12.2016 21.375 11.9154 21.2565 11.7045 21.0455C11.4935 20.8346 11.375 20.5484 11.375 20.25V6.46879L6.5459 11.296C6.33455 11.5073 6.04791 11.6261 5.74902 11.6261C5.45014 11.6261 5.16349 11.5073 4.95215 11.296C4.7408 11.0846 4.62207 10.798 4.62207 10.4991C4.62207 10.2002 4.7408 9.91357 4.95215 9.70223L11.7021 2.95223C11.8067 2.84735 11.9309 2.76413 12.0676 2.70735C12.2043 2.65057 12.351 2.62134 12.499 2.62134C12.6471 2.62134 12.7937 2.65057 12.9304 2.70735C13.0672 2.76413 13.1914 2.84735 13.2959 2.95223L20.0459 9.70223C20.1508 9.80674 20.234 9.93093 20.2908 10.0677C20.3476 10.2044 20.3768 10.351 20.3768 10.4991C20.3768 10.6472 20.3476 10.7938 20.2908 10.9305C20.234 11.0673 20.1508 11.1915 20.0459 11.296Z"/>
</svg>
