<svg width="24" height="24" viewBox="0 0 24 24" xmlns="http://www.w3.org/2000/svg">
<path d="M21.7959 15.7959L17.2959 20.2959C17.1914 20.4008 17.0672 20.484 16.9305 20.5408C16.7937 20.5976 16.6471 20.6268 16.4991 20.6268C16.351 20.6268 16.2044 20.5976 16.0676 20.5408C15.9309 20.484 15.8067 20.4008 15.7022 20.2959L11.2022 15.7959C11.0975 15.6913 11.0145 15.5671 10.9579 15.4303C10.9013 15.2936 10.8721 15.1471 10.8721 14.9991C10.8721 14.8511 10.9013 14.7045 10.9579 14.5678C11.0145 14.4311 11.0975 14.3068 11.2022 14.2022C11.3068 14.0975 11.4311 14.0145 11.5678 13.9579C11.7045 13.9013 11.8511 13.8721 11.9991 13.8721C12.1471 13.8721 12.2936 13.9013 12.4303 13.9579C12.5671 14.0145 12.6913 14.0975 12.7959 14.2022L15.375 16.7812V7.125H3C2.70163 7.125 2.41548 7.00647 2.2045 6.7955C1.99353 6.58452 1.875 6.29837 1.875 6C1.875 5.70163 1.99353 5.41548 2.2045 5.2045C2.41548 4.99353 2.70163 4.875 3 4.875H16.5C16.7984 4.875 17.0845 4.99353 17.2955 5.2045C17.5065 5.41548 17.625 5.70163 17.625 6V16.7812L20.2041 14.2013C20.3087 14.0966 20.4329 14.0136 20.5697 13.957C20.7064 13.9003 20.8529 13.8712 21.0009 13.8712C21.1489 13.8712 21.2955 13.9003 21.4322 13.957C21.5689 14.0136 21.6932 14.0966 21.7978 14.2013C21.9025 14.3059 21.9855 14.4301 22.0421 14.5669C22.0987 14.7036 22.1279 14.8501 22.1279 14.9981C22.1279 15.1461 22.0987 15.2927 22.0421 15.4294C21.9855 15.5661 21.9025 15.6904 21.7978 15.795L21.7959 15.7959Z"/>
</svg>
