<svg viewBox="0 0 25 24" xmlns="http://www.w3.org/2000/svg" aria-hidden="true" fill="currentColor"><path d="M22.125 19.125h-.375v-12A1.125 1.125 0 0 0 20.625 6H17.25V3.75a1.125 1.125 0 0 0-1.125-1.125h-9A1.125 1.125 0 0 0 6 3.75v5.625H2.625A1.125 1.125 0 0 0 1.5 10.5v8.625h-.375a1.125 1.125 0 1 0 0 2.25h21a1.125 1.125 0 1 0 0-2.25m-18.375-7.5h3.375A1.125 1.125 0 0 0 8.25 10.5V4.875H15v2.25a1.125 1.125 0 0 0 1.125 1.125H19.5v10.875h-6V16.5a.375.375 0 0 0-.375-.375h-3a.375.375 0 0 0-.375.375v2.625h-6zm6-4.5A1.125 1.125 0 0 1 10.875 6h1.5a1.125 1.125 0 0 1 0 2.25h-1.5A1.125 1.125 0 0 1 9.75 7.125m0 3.375a1.125 1.125 0 0 1 1.125-1.125h1.5a1.125 1.125 0 0 1 0 2.25h-1.5A1.125 1.125 0 0 1 9.75 10.5m4.875 0a1.125 1.125 0 0 1 1.125-1.125h1.5a1.125 1.125 0 0 1 0 2.25h-1.5a1.125 1.125 0 0 1-1.125-1.125m-6 3.375A1.125 1.125 0 0 1 7.5 15H6a1.125 1.125 0 1 1 0-2.25h1.5a1.125 1.125 0 0 1 1.125 1.125m1.125 0a1.125 1.125 0 0 1 1.125-1.125h1.5a1.125 1.125 0 1 1 0 2.25h-1.5a1.125 1.125 0 0 1-1.125-1.125m4.875 0a1.125 1.125 0 0 1 1.125-1.125h1.5a1.125 1.125 0 1 1 0 2.25h-1.5a1.125 1.125 0 0 1-1.125-1.125"/></svg>