<svg viewBox="0 0 25 24" xmlns="http://www.w3.org/2000/svg" aria-hidden="true" fill="currentColor"><path d="M22.874 18.375h-.75a.375.375 0 0 1-.375-.375v-3a.375.375 0 0 1 .375-.375h.75a1.125 1.125 0 1 0 0-2.25h-.75A2.625 2.625 0 0 0 19.499 15v.375h-.908a4.14 4.14 0 0 0-3.187-2.925l-3.3-7.92a1.875 1.875 0 0 0-1.73-1.155H2.249A1.875 1.875 0 0 0 .374 5.25v9.534a4.125 4.125 0 0 0 3.75 5.841h10.5a4.13 4.13 0 0 0 3.967-3h.908V18a2.625 2.625 0 0 0 2.625 2.625h.75a1.125 1.125 0 1 0 0-2.25m-9.938-6H6.374v-6.75h3.75zm-8.812-6.75v6.75c-.513 0-1.022.095-1.5.281V5.625zm10.5 12.75h-10.5a1.875 1.875 0 1 1 0-3.75h10.5a1.875 1.875 0 1 1 0 3.75"/></svg>