<svg viewBox="0 0 24 24" xmlns="http://www.w3.org/2000/svg" aria-hidden="true" fill="currentColor"><g clip-path="url(#a)"><path d="M22.5 9.75h-.769l-2.505-5.636A1.87 1.87 0 0 0 17.513 3H6.486a1.88 1.88 0 0 0-1.713 1.114L2.269 9.75H1.5a1.125 1.125 0 0 0 0 2.25h.375v7.125A1.875 1.875 0 0 0 3.75 21h2.625a1.875 1.875 0 0 0 1.875-1.875V17.25h7.5v1.875A1.875 1.875 0 0 0 17.625 21h2.625a1.875 1.875 0 0 0 1.875-1.875V12h.375a1.125 1.125 0 1 0 0-2.25M6.731 5.25H17.27l2 4.5H4.731zM6 18.75H4.125v-1.5H6zm12 0v-1.5h1.875v1.5zM19.875 15H4.125v-3h15.75z"/></g><defs><clipPath id="a"><path d="M0 0h24v24H0z"/></clipPath></defs></svg>