<svg width="24" height="24" viewBox="0 0 24 24" xmlns="http://www.w3.org/2000/svg">
<path d="M12.5 1.875C10.4975 1.875 8.5399 2.46882 6.87486 3.58137C5.20981 4.69392 3.91206 6.27523 3.14572 8.12533C2.37939 9.97543 2.17888 12.0112 2.56955 13.9753C2.96023 15.9393 3.92454 17.7435 5.34055 19.1595C6.75656 20.5755 8.56066 21.5398 10.5247 21.9305C12.4888 22.3211 14.5246 22.1206 16.3747 21.3543C18.2248 20.5879 19.8061 19.2902 20.9186 17.6251C22.0312 15.9601 22.625 14.0025 22.625 12C22.622 9.3156 21.5543 6.74199 19.6562 4.84383C17.758 2.94567 15.1844 1.87798 12.5 1.875ZM12.5 19.875C10.9425 19.875 9.41993 19.4131 8.12489 18.5478C6.82985 17.6825 5.82049 16.4526 5.22445 15.0136C4.62841 13.5747 4.47246 11.9913 4.77632 10.4637C5.08018 8.93606 5.8302 7.53287 6.93154 6.43153C8.03288 5.3302 9.43607 4.58017 10.9637 4.27632C12.4913 3.97246 14.0747 4.12841 15.5136 4.72445C16.9526 5.32049 18.1825 6.32985 19.0478 7.62488C19.9131 8.91992 20.375 10.4425 20.375 12C20.3728 14.0879 19.5424 16.0896 18.066 17.566C16.5896 19.0424 14.5879 19.8728 12.5 19.875ZM15.5459 11.2041C15.6508 11.3086 15.734 11.4328 15.7908 11.5695C15.8476 11.7063 15.8768 11.8529 15.8768 12.0009C15.8768 12.149 15.8476 12.2956 15.7908 12.4324C15.734 12.5691 15.6508 12.6933 15.5459 12.7978L11.7959 16.5478C11.5846 16.7592 11.298 16.8779 10.9991 16.8779C10.7002 16.8779 10.4135 16.7592 10.2022 16.5478C9.99085 16.3365 9.87212 16.0498 9.87212 15.7509C9.87212 15.4521 9.99085 15.1654 10.2022 14.9541L13.1563 12L10.2041 9.04594C9.99272 8.83459 9.87399 8.54795 9.87399 8.24906C9.87399 7.95018 9.99272 7.66353 10.2041 7.45219C10.4154 7.24084 10.7021 7.12211 11.0009 7.12211C11.2998 7.12211 11.5865 7.24084 11.7978 7.45219L15.5459 11.2041Z"/>
</svg>
