<svg viewBox="0 0 24 24" xmlns="http://www.w3.org/2000/svg" aria-hidden="true" fill="currentColor"><path d="M21 4.125H3A1.875 1.875 0 0 0 1.125 6v12A1.875 1.875 0 0 0 3 19.876h18A1.875 1.875 0 0 0 22.875 18V6A1.875 1.875 0 0 0 21 4.125m-.375 13.5H3.375V6.375h17.25zm-15.75-5.624a4.125 4.125 0 0 1 6.188-3.573 1.125 1.125 0 0 1-1.126 1.948 1.876 1.876 0 1 0 0 3.25 1.123 1.123 0 0 1 1.569.392 1.126 1.126 0 0 1-.444 1.554 4.125 4.125 0 0 1-6.187-3.571m7.5 0a4.125 4.125 0 0 1 6.188-3.573 1.125 1.125 0 0 1-1.125 1.948 1.876 1.876 0 1 0 0 3.25 1.12 1.12 0 0 1 1.568.392 1.126 1.126 0 0 1-.444 1.554 4.125 4.125 0 0 1-6.187-3.571"/></svg>