<svg viewBox="0 0 24 24" xmlns="http://www.w3.org/2000/svg" aria-hidden="true" fill="currentColor"><path d="M18.875 3.33c-1.723-.938-3.986-1.455-6.375-1.455s-4.652.517-6.375 1.455c-1.934 1.057-3 2.537-3 4.17v9c0 1.633 1.066 3.113 3 4.17 1.72.938 3.983 1.455 6.375 1.455s4.652-.517 6.375-1.455c1.937-1.057 3-2.537 3-4.17v-9c0-1.633-1.066-3.113-3-4.17m.75 8.67c0 1.594-2.926 3.375-7.125 3.375-4.2 0-7.125-1.781-7.125-3.375v-.793q.363.251.75.463c1.72.938 3.983 1.455 6.375 1.455s4.652-.517 6.375-1.455a8 8 0 0 0 .75-.463zM12.5 4.125c4.2 0 7.125 1.781 7.125 3.375s-2.926 3.375-7.125 3.375c-4.2 0-7.125-1.781-7.125-3.375S8.301 4.125 12.5 4.125m0 15.75c-4.2 0-7.125-1.781-7.125-3.375v-.793q.363.251.75.463c1.72.938 3.983 1.455 6.375 1.455s4.652-.517 6.375-1.455a8 8 0 0 0 .75-.463v.793c0 1.594-2.926 3.375-7.125 3.375"/></svg>