<svg viewBox="0 0 24 24" xmlns="http://www.w3.org/2000/svg" aria-hidden="true" fill="currentColor"><path d="M18.709 19.172v2.578a1.125 1.125 0 1 1-2.25 0v-2.578a5.6 5.6 0 0 0-3.11-5.032L8.81 11.872a7.83 7.83 0 0 1-4.353-7.044V2.25a1.125 1.125 0 0 1 2.25 0v2.578a5.6 5.6 0 0 0 3.11 5.032l4.538 2.268a7.83 7.83 0 0 1 4.353 7.044m-4.875-.047H6.708a5.6 5.6 0 0 1 .22-1.5h5.269a1.125 1.125 0 1 0 0-2.25H8.186c.094-.103.187-.204.293-.3a1.125 1.125 0 0 0-1.542-1.64 7.9 7.9 0 0 0-2.479 5.737v2.578a1.125 1.125 0 1 0 2.25 0v-.375h7.126a1.125 1.125 0 0 0 0-2.25m3.75-18a1.125 1.125 0 0 0-1.125 1.125v.375H9.333a1.125 1.125 0 0 0 0 2.25h7.126a5.6 5.6 0 0 1-.22 1.5h-5.27a1.125 1.125 0 0 0 0 2.25h4.012a4 4 0 0 1-.293.3 1.125 1.125 0 0 0 1.542 1.64 7.9 7.9 0 0 0 2.479-5.737V2.25a1.125 1.125 0 0 0-1.125-1.125"/></svg>