<svg viewBox="0 0 24 24" xmlns="http://www.w3.org/2000/svg" aria-hidden="true" fill="currentColor"><path d="M4 13.125H2.5a1.125 1.125 0 0 0-1.125 1.125v5.25A1.125 1.125 0 0 0 2.5 20.625H4a3.75 3.75 0 0 0 0-7.5m0 5.25h-.375v-3H4a1.5 1.5 0 1 1 0 3m16.903-.356a1.124 1.124 0 0 1 .035 1.594 3.19 3.19 0 0 1-2.313 1.012c-1.86 0-3.375-1.682-3.375-3.75s1.514-3.75 3.375-3.75a3.19 3.19 0 0 1 2.313 1.015 1.125 1.125 0 1 1-1.626 1.557.96.96 0 0 0-.687-.322c-.61 0-1.125.687-1.125 1.5s.516 1.5 1.125 1.5a.96.96 0 0 0 .687-.322 1.126 1.126 0 0 1 1.591-.034M11.5 13.125c-1.86 0-3.375 1.682-3.375 3.75s1.514 3.75 3.375 3.75 3.375-1.682 3.375-3.75-1.514-3.75-3.375-3.75m0 5.25c-.61 0-1.125-.687-1.125-1.5s.516-1.5 1.125-1.5c.61 0 1.125.687 1.125 1.5s-.516 1.5-1.125 1.5M4 11.25a1.125 1.125 0 0 0 1.125-1.125v-6h7.125v4.5a1.125 1.125 0 0 0 1.125 1.125h4.5v.375a1.125 1.125 0 1 0 2.25 0V8.25c0-.298-.118-.584-.33-.795l-5.25-5.25a1.12 1.12 0 0 0-.795-.33h-9A1.875 1.875 0 0 0 2.875 3.75v6.375A1.125 1.125 0 0 0 4 11.25m10.5-5.906L16.656 7.5H14.5z"/></svg>