<svg viewBox="0 0 24 24" xmlns="http://www.w3.org/2000/svg" aria-hidden="true" fill="currentColor"><path d="M11.812 13.626a1.125 1.125 0 0 0-1.875 0l-1.406 2.108-.628-.946a1.124 1.124 0 0 0-1.882.016L2.43 20.392a1.126 1.126 0 0 0 .946 1.733h12a1.126 1.126 0 0 0 .937-1.749zm-6.375 6.25 1.547-2.41.614.92a1.125 1.125 0 0 0 1.875 0l1.406-2.108 2.394 3.598zM21.421 7.454l-5.25-5.25a1.12 1.12 0 0 0-.796-.33h-9A1.875 1.875 0 0 0 4.5 3.75v7.876a1.125 1.125 0 1 0 2.25 0v-7.5h7.125v4.5A1.125 1.125 0 0 0 15 9.75h4.5v10.125a1.125 1.125 0 1 0 0 2.25h.375a1.875 1.875 0 0 0 1.875-1.875v-12a1.13 1.13 0 0 0-.33-.795m-5.296-2.11L18.28 7.5h-2.156z"/></svg>