<svg width="24" height="24" viewBox="0 0 24 24" xmlns="http://www.w3.org/2000/svg">
<g clip-path="url(#clip0_2077_3067)">
<path d="M22.4999 10.8755H20.5518C20.301 8.99386 19.4379 7.24709 18.0956 5.90481C16.7533 4.56254 15.0066 3.69939 13.1249 3.44861V1.50049C13.1249 1.20212 13.0064 0.915972 12.7954 0.704993C12.5845 0.494015 12.2983 0.375488 11.9999 0.375488C11.7016 0.375488 11.4154 0.494015 11.2044 0.704993C10.9935 0.915972 10.8749 1.20212 10.8749 1.50049V3.44861C8.99331 3.69939 7.24654 4.56254 5.90426 5.90481C4.56199 7.24709 3.69884 8.99386 3.44806 10.8755H1.49994C1.20157 10.8755 0.915422 10.994 0.704444 11.205C0.493465 11.416 0.374939 11.7021 0.374939 12.0005C0.374939 12.2989 0.493465 12.585 0.704444 12.796C0.915422 13.007 1.20157 13.1255 1.49994 13.1255H3.44806C3.69884 15.0071 4.56199 16.7539 5.90426 18.0962C7.24654 19.4384 8.99331 20.3016 10.8749 20.5524V22.5005C10.8749 22.7989 10.9935 23.085 11.2044 23.296C11.4154 23.507 11.7016 23.6255 11.9999 23.6255C12.2983 23.6255 12.5845 23.507 12.7954 23.296C13.0064 23.085 13.1249 22.7989 13.1249 22.5005V20.5524C15.0066 20.3016 16.7533 19.4384 18.0956 18.0962C19.4379 16.7539 20.301 15.0071 20.5518 13.1255H22.4999C22.7983 13.1255 23.0845 13.007 23.2954 12.796C23.5064 12.585 23.6249 12.2989 23.6249 12.0005C23.6249 11.7021 23.5064 11.416 23.2954 11.205C23.0845 10.994 22.7983 10.8755 22.4999 10.8755ZM11.9999 18.3755C10.7391 18.3755 9.50654 18.0016 8.45818 17.3011C7.40982 16.6006 6.59272 15.605 6.11021 14.4401C5.6277 13.2752 5.50145 11.9934 5.74743 10.7568C5.99341 9.52016 6.60057 8.38424 7.49213 7.49268C8.38369 6.60112 9.51961 5.99396 10.7562 5.74798C11.9929 5.502 13.2747 5.62825 14.4395 6.11076C15.6044 6.59327 16.6001 7.41036 17.3006 8.45873C18.0011 9.50709 18.3749 10.7396 18.3749 12.0005C18.3732 13.6907 17.701 15.3112 16.5058 16.5064C15.3107 17.7015 13.6902 18.3738 11.9999 18.3755Z"/>
</g>
<defs>
<clipPath id="clip0_2077_3067">
<rect width="24" height="24"/>
</clipPath>
</defs>
</svg>
