<svg width="24" height="24" viewBox="0 0 24 24" xmlns="http://www.w3.org/2000/svg">
<path d="M21.3755 14.9912V18.3662C21.3755 19.6646 21.2227 20.8525 20.9461 21.7112C20.9027 21.8541 20.8313 21.9869 20.736 22.1019C20.6408 22.217 20.5236 22.3118 20.3912 22.3811C20.2589 22.4503 20.1142 22.4925 19.9654 22.5052C19.8166 22.518 19.6667 22.5009 19.5246 22.4551C19.3824 22.4093 19.2508 22.3357 19.1375 22.2385C19.0241 22.1413 18.9312 22.0225 18.8642 21.889C18.7972 21.7555 18.7574 21.6101 18.7473 21.4611C18.7371 21.3121 18.7566 21.1626 18.8048 21.0212C19.0055 20.3978 19.1255 19.405 19.1255 18.3662V14.9912C19.1255 14.7923 19.0465 14.6015 18.9058 14.4609C18.7651 14.3202 18.5744 14.2412 18.3755 14.2412C18.1766 14.2412 17.9858 14.3202 17.8451 14.4609C17.7045 14.6015 17.6255 14.7923 17.6255 14.9912V15.3662C17.6255 15.6646 17.5069 15.9507 17.296 16.1617C17.085 16.3727 16.7988 16.4912 16.5005 16.4912C16.2021 16.4912 15.916 16.3727 15.705 16.1617C15.494 15.9507 15.3755 15.6646 15.3755 15.3662V13.4912C15.3755 13.2923 15.2965 13.1015 15.1558 12.9609C15.0151 12.8202 14.8244 12.7412 14.6255 12.7412C14.4266 12.7412 14.2358 12.8202 14.0951 12.9609C13.9545 13.1015 13.8755 13.2923 13.8755 13.4912V14.6162C13.8755 14.9146 13.7569 15.2007 13.546 15.4117C13.335 15.6227 13.0488 15.7412 12.7505 15.7412C12.4521 15.7412 12.166 15.6227 11.955 15.4117C11.744 15.2007 11.6255 14.9146 11.6255 14.6162V8.24121C11.6255 8.0423 11.5464 7.85153 11.4058 7.71088C11.2651 7.57023 11.0744 7.49121 10.8755 7.49121C10.6766 7.49121 10.4858 7.57023 10.3451 7.71088C10.2045 7.85153 10.1255 8.0423 10.1255 8.24121V18.3662C10.1252 18.6104 10.0454 18.848 9.89827 19.0429C9.75109 19.2378 9.54449 19.3795 9.30966 19.4466C9.07483 19.5137 8.82454 19.5026 8.59658 19.4149C8.36863 19.3273 8.17541 19.1678 8.04609 18.9606L6.29484 16.1481L6.27516 16.1162C6.17669 15.943 6.01347 15.8161 5.82139 15.7632C5.62931 15.7104 5.42412 15.736 5.25094 15.8345C5.07776 15.933 4.95079 16.0962 4.89795 16.2883C4.84512 16.4803 4.87076 16.6855 4.96922 16.8587L7.33828 20.785C7.49231 21.0406 7.5385 21.3469 7.46668 21.6365C7.39486 21.9262 7.21091 22.1755 6.95531 22.3295C6.69971 22.4835 6.39339 22.5297 6.10373 22.4579C5.81408 22.3861 5.56481 22.2021 5.41078 21.9465L3.03797 18.009L3.02672 17.9903C2.65447 17.3459 2.53503 16.5861 2.69161 15.8585C2.84818 15.131 3.26959 14.4876 3.87398 14.0533C4.47836 13.6191 5.22258 13.425 5.96206 13.5087C6.70155 13.5925 7.3835 13.9481 7.87547 14.5065V8.24121C7.87547 7.44556 8.19154 6.6825 8.75415 6.11989C9.31676 5.55728 10.0798 5.24121 10.8755 5.24121C11.6711 5.24121 12.4342 5.55728 12.9968 6.11989C13.5594 6.6825 13.8755 7.44556 13.8755 8.24121V10.585C14.5458 10.4119 15.2554 10.4761 15.8839 10.7666C16.5124 11.0571 17.021 11.556 17.3236 12.1787C17.7777 12.0087 18.2662 11.9513 18.7473 12.0114C19.2284 12.0715 19.6878 12.2473 20.0861 12.5238C20.4844 12.8003 20.8098 13.1691 21.0343 13.5989C21.2589 14.0286 21.3759 14.5064 21.3755 14.9912ZM5.25047 9.36621C5.54884 9.36621 5.83499 9.24768 6.04596 9.03671C6.25694 8.82573 6.37547 8.53958 6.37547 8.24121C6.37547 7.04774 6.84957 5.90314 7.69349 5.05923C8.5374 4.21532 9.68199 3.74121 10.8755 3.74121C12.0689 3.74121 13.2135 4.21532 14.0574 5.05923C14.9014 5.90314 15.3755 7.04774 15.3755 8.24121C15.3755 8.53958 15.494 8.82573 15.705 9.03671C15.916 9.24768 16.2021 9.36621 16.5005 9.36621C16.7988 9.36621 17.085 9.24768 17.296 9.03671C17.5069 8.82573 17.6255 8.53958 17.6255 8.24121C17.6255 6.451 16.9143 4.73411 15.6484 3.46824C14.3826 2.20237 12.6657 1.49121 10.8755 1.49121C9.08526 1.49121 7.36837 2.20237 6.1025 3.46824C4.83663 4.73411 4.12547 6.451 4.12547 8.24121C4.12547 8.53958 4.24399 8.82573 4.45497 9.03671C4.66595 9.24768 4.9521 9.36621 5.25047 9.36621Z"/>
</svg>
