<svg viewBox="0 0 24 24" xmlns="http://www.w3.org/2000/svg" aria-hidden="true" fill="currentColor"><path d="M10.987 17.695a1.124 1.124 0 0 1 0 1.593l-.48.48a5.46 5.46 0 0 1-3.887 1.607 5.495 5.495 0 0 1-3.887-9.382l3.258-3.258a5.498 5.498 0 0 1 9.24 2.635 1.125 1.125 0 1 1-2.19.51 3.248 3.248 0 0 0-5.459-1.554l-3.258 3.258a3.245 3.245 0 0 0 2.294 5.541 3.23 3.23 0 0 0 2.295-.95l.48-.48a1.124 1.124 0 0 1 1.594 0m10.28-13.46a5.5 5.5 0 0 0-7.775 0l-.479.479a1.127 1.127 0 1 0 1.594 1.594l.48-.48a3.248 3.248 0 0 1 4.594 4.593l-3.264 3.254a3.22 3.22 0 0 1-2.296.95 3.246 3.246 0 0 1-3.158-2.505 1.125 1.125 0 1 0-2.192.51 5.5 5.5 0 0 0 5.346 4.245h.004a5.46 5.46 0 0 0 3.888-1.61l3.258-3.257a5.495 5.495 0 0 0 0-7.773"/></svg>