<svg viewBox="0 0 24 24" xmlns="http://www.w3.org/2000/svg" aria-hidden="true" fill="currentColor"><path d="M20.75 1.875H4.25A1.875 1.875 0 0 0 2.375 3.75v16.5a1.875 1.875 0 0 0 1.875 1.875h16.5a1.875 1.875 0 0 0 1.875-1.875V3.75a1.875 1.875 0 0 0-1.875-1.875m-.375 18H4.625V4.125h15.75zM11 16.5v-5.25a1.125 1.125 0 0 1 2.01-.695 3.75 3.75 0 0 1 5.49 3.32V16.5a1.125 1.125 0 1 1-2.25 0v-2.625a1.5 1.5 0 1 0-3 0V16.5a1.125 1.125 0 1 1-2.25 0m-1.5-5.25v5.25a1.125 1.125 0 0 1-2.25 0v-5.25a1.125 1.125 0 0 1 2.25 0M6.875 7.5a1.5 1.5 0 1 1 3 0 1.5 1.5 0 0 1-3 0"/></svg>