<svg viewBox="0 0 24 24" xmlns="http://www.w3.org/2000/svg" aria-hidden="true" fill="currentColor"><path d="m21.945 13.27-1.61-.188-1.313-1.581c-.24-.29-.61-.44-.985-.4l-2.981.32-.045.008-.46-.463q.36.022.745.022c1.77 0 3.87-.372 5.704-1.708 1.904-1.386 2.258-3.045 2.22-4.193a2.67 2.67 0 0 0-1.474-2.281c-.85-.433-1.851-.381-2.61.135l-6.764 4.59.413-2.557a1.13 1.13 0 0 0-.34-.998L11.18 2.783l.056-.837a1.126 1.126 0 0 0-2.245-.151l-.092 1.368c-.022.335.106.664.35.894l1.218 1.148-.315 1.948a2.55 2.55 0 0 0-1.394.075 1 1 0 0 0-.146-.178L5.238 3.676a1.124 1.124 0 1 0-1.59 1.59L7.02 8.642q.084.083.178.145c-.15.433-.178.899-.086 1.345l-1.876.303L4.09 9.216a1.12 1.12 0 0 0-.895-.35l-1.367.091a1.126 1.126 0 0 0 .15 2.246l.838-.056 1.192 1.265a1.12 1.12 0 0 0 .999.34l2.533-.41-4.632 6.828c-.516.759-.568 1.76-.135 2.61a2.67 2.67 0 0 0 2.442 1.476c1.139 0 2.711-.406 4.033-2.222 1.534-2.107 1.797-4.563 1.685-6.47l.515.517-.314 2.923c-.04.375.11.745.4.986l1.58 1.313.188 1.61a1.125 1.125 0 1 0 2.235-.263l-.241-2.057a1.13 1.13 0 0 0-.399-.734l-1.462-1.215.055-.514 1.329 1.332c.48.483 1.12.748 1.802.748s1.321-.265 1.803-.748a2.557 2.557 0 0 0 0-3.607l-1.379-1.383.63-.067 1.215 1.462c.185.223.447.365.734.399l2.057.24q.067.008.132.008a1.125 1.125 0 0 0 .13-2.242zm-1.547-8.468c.119-.081.268-.021.327.009.056.028.238.138.245.35.03.892-.393 1.645-1.294 2.3-1.587 1.155-3.52 1.345-5.041 1.252zM9.39 9.418a.28.28 0 0 1 .394 0l.684.684a.279.279 0 0 1-.393.394l-.685-.684a.28.28 0 0 1 0-.394m-1.96 10.29c-.656.9-1.406 1.325-2.3 1.294-.213-.007-.323-.189-.351-.245-.03-.058-.09-.207-.01-.327l3.91-5.763c.094 1.52-.096 3.455-1.25 5.04m9.404-2.838a.3.3 0 0 1-.21.087.3.3 0 0 1-.21-.087l-4.102-4.112a.302.302 0 0 1 .21-.515.3.3 0 0 1 .21.088l4.102 4.112a.304.304 0 0 1 0 .428z"/></svg>