<svg viewBox="0 0 24 24" xmlns="http://www.w3.org/2000/svg" aria-hidden="true" fill="currentColor"><path d="M12 1.875A10.125 10.125 0 1 0 22.125 12 10.136 10.136 0 0 0 12 1.876m0 18a7.875 7.875 0 1 1 7.875-7.874A7.883 7.883 0 0 1 12 19.875M10.125 7.5a1.875 1.875 0 1 1 3.75 0 1.875 1.875 0 0 1-3.75 0m7.125 3.75a1.125 1.125 0 0 1-1.125 1.126h-3v.047l2.449 3.849a1.126 1.126 0 0 1-1.899 1.207L12 14.846l-1.676 2.633a1.125 1.125 0 0 1-1.898-1.207l2.449-3.849v-.047h-3a1.125 1.125 0 1 1 0-2.25h8.25a1.125 1.125 0 0 1 1.125 1.125"/></svg>