<svg viewBox="0 0 24 24" xmlns="http://www.w3.org/2000/svg" aria-hidden="true" fill="currentColor"><path d="M13.663 4.21a1.125 1.125 0 0 1 1.378-.797 8.45 8.45 0 0 1 6.046 6.046 1.126 1.126 0 1 1-2.174.582 6.23 6.23 0 0 0-4.454-4.455 1.125 1.125 0 0 1-.796-1.377m8.198 13a5.65 5.65 0 0 1-5.611 4.915C8.6 22.125 2.375 15.9 2.375 8.25a5.65 5.65 0 0 1 4.914-5.611 1.88 1.88 0 0 1 1.949 1.11l1.979 4.42.007.016a1.88 1.88 0 0 1-.156 1.766 1 1 0 0 1-.08.107l-1.786 2.13c.662 1.203 1.922 2.452 3.14 3.113l2.091-1.781q.051-.042.105-.08a1.87 1.87 0 0 1 1.781-.162l.017.007 4.414 1.977a1.88 1.88 0 0 1 1.11 1.948m-2.28-.005-3.937-1.763-2.102 1.787a1 1 0 0 1-.104.08 1.88 1.88 0 0 1-1.846.128c-1.827-.88-3.646-2.688-4.53-4.5a1.88 1.88 0 0 1 .12-1.84q.037-.058.081-.109l1.796-2.13-1.764-3.937a3.4 3.4 0 0 0-2.67 3.329A11.64 11.64 0 0 0 16.25 19.875a3.4 3.4 0 0 0 3.332-2.67m-6.178-8.067a3 3 0 0 1 1.96 1.96 1.125 1.125 0 0 0 2.145-.671 5.25 5.25 0 0 0-3.43-3.43 1.125 1.125 0 1 0-.675 2.145z"/></svg>