<svg viewBox="0 0 24 24" xmlns="http://www.w3.org/2000/svg" aria-hidden="true" fill="currentColor"><path d="m22.827 7.363-5.69-5.689a1.875 1.875 0 0 0-2.653 0L9.613 6.563c-1.166-.313-3.44-.537-5.789 1.359a1.875 1.875 0 0 0-.15 2.787l4.262 4.263-3.731 3.731a1.127 1.127 0 1 0 1.594 1.594l3.731-3.732 4.263 4.262c.351.35.827.548 1.324.548q.065.001.13-.005a1.88 1.88 0 0 0 1.366-.745c.44-.584 1.031-1.512 1.354-2.625.322-1.113.323-2.145.015-3.131l4.846-4.863a1.875 1.875 0 0 0-.001-2.643m-6.962 6.45a1.13 1.13 0 0 0-.21 1.297c.322.643.647 1.968-.588 3.81L5.57 9.426c1.977-1.368 3.706-.623 3.844-.563a1.094 1.094 0 0 0 1.295-.214l5.102-5.12 5.157 5.156z"/></svg>