<svg width="24" height="24" viewBox="0 0 24 24" xmlns="http://www.w3.org/2000/svg">
<path d="M21.8833 10.7872L8.37584 2.52502C8.09257 2.35233 7.76855 2.25789 7.43686 2.25134C7.10517 2.24479 6.77767 2.32637 6.48781 2.48775C6.19794 2.64912 5.95609 2.88452 5.78692 3.1699C5.61775 3.45529 5.52734 3.78045 5.5249 4.1122V20.6366C5.52734 20.9683 5.61775 21.2935 5.78692 21.5789C5.95609 21.8643 6.19794 22.0997 6.48781 22.261C6.77767 22.4224 7.10517 22.504 7.43686 22.4974C7.76855 22.4909 8.09257 22.3965 8.37584 22.2238L21.8833 13.9616C22.1557 13.7958 22.3808 13.5627 22.537 13.2847C22.6933 13.0067 22.7753 12.6933 22.7753 12.3744C22.7753 12.0555 22.6933 11.742 22.537 11.4641C22.3808 11.1861 22.1557 10.953 21.8833 10.7872ZM7.7749 19.9541V4.7947L20.1649 12.3744L7.7749 19.9541Z"/>
</svg>
