<svg viewBox="0 0 24 24" xmlns="http://www.w3.org/2000/svg" aria-hidden="true" fill="currentColor"><path d="M9.543 15.452a1.125 1.125 0 1 0 0-2.25 1.125 1.125 0 0 0 0 2.25m10.077 0a1.125 1.125 0 1 0 0-2.25 1.125 1.125 0 0 0 0 2.25M4.091 8.915h-1.46a.52.52 0 0 0-.369.153L1.23 10.101a.52.52 0 0 0-.153.369v1.46c0 .138.056.271.153.369l1.033 1.033c.098.098.231.153.369.153h1.46c.138 0 .271-.055.369-.153l1.033-1.033a.52.52 0 0 0 .153-.369v-1.46a.52.52 0 0 0-.153-.369L4.46 9.068a.52.52 0 0 0-.369-.153"/><path d="M22.924 4.893c0-1.655-1.346-3-3-3h-10.5c-1.654 0-3 1.345-3 3v13.329a1 1 0 0 0-.013.135v2.25c0 .827.673 1.5 1.5 1.5h2.25c.827 0 1.5-.673 1.5-1.5v-1.5h6v1.5c0 .827.673 1.5 1.5 1.5h2.25c.827 0 1.5-.673 1.5-1.5v-2.115a1 1 0 0 0 .013-.135zm-15 12.715v-5.386l3.114-.63q.157-.03.286-.123l.847-.6c.205-.146.446-.223.698-.223h3.41c.27 0 .534.091.745.257l.695.545a.76.76 0 0 0 .324.147l3.381.635v5.378zm3.818-12.715-.257-1.5h6.457l-.256 1.5zm9.682 1.5v4.31l-2.924-.55-.55-.43a2.72 2.72 0 0 0-1.671-.578h-3.41a2.7 2.7 0 0 0-1.567.5l-.716.509-2.662.537V6.393zm0-1.5h-2.216l.256-1.5h.46c.827 0 1.5.673 1.5 1.5m-12-1.5h.54l.256 1.5H7.923c0-.827.674-1.5 1.501-1.5m.737 17.215H7.91v-1.5h2.25zm9 0v-1.5h2.25v1.5z"/><path d="M17.19 12.366h-5.033a.75.75 0 1 0 0 1.5h5.033a.75.75 0 1 0 0-1.5m0 2.494h-5.033a.75.75 0 1 0 0 1.5h5.033a.75.75 0 1 0 0-1.5"/></svg>