<svg viewBox="0 0 24 24" xmlns="http://www.w3.org/2000/svg" aria-hidden="true" fill="currentColor"><g clip-path="url(#a)"><path d="M21.798 10.547a3 3 0 0 0-.24-.308 6 6 0 0 0-.648-.772 6 6 0 0 0-4.21-1.744 5.9 5.9 0 0 0-2.027.358 2.8 2.8 0 0 0-1.555 1.388 5.95 5.95 0 0 0-1.669-3.289l-.05-.05a2.8 2.8 0 0 0 1.077-1.213 2.8 2.8 0 0 0 .089-2.154 2.814 2.814 0 0 0-3.606-1.676q-.004 0-.007.003-.133.047-.262.099A2.81 2.81 0 0 0 6.456.087a2.82 2.82 0 0 0-2.09.93q-.159.174-.307.351l-.024-.007a2.826 2.826 0 0 0-3.47 1.952c-1.005 3.59-.454 7 1.638 10.14a3 3 0 0 0 .239.308q.29.413.647.771a6 6 0 0 0 4.213 1.744c.693 0 1.375-.12 2.026-.357a2.8 2.8 0 0 0 1.554-1.39 5.95 5.95 0 0 0 1.669 3.291l.05.05a2.8 2.8 0 0 0-1.077 1.213 2.8 2.8 0 0 0-.089 2.154 2.813 2.813 0 0 0 3.606 1.676l.007-.002q.132-.048.262-.1.145.19.327.359a2.8 2.8 0 0 0 1.907.743c.795 0 1.557-.338 2.09-.929q.158-.175.307-.352l.024.007q.376.105.758.104a2.825 2.825 0 0 0 2.711-2.056c1.006-3.591.455-7.004-1.638-10.143zm-11.61 1.471a.567.567 0 0 1-.533-.76 2.57 2.57 0 0 0-.596-2.686 2.5 2.5 0 0 0-1.787-.74 2.52 2.52 0 0 0-2.506 2.204 2.52 2.52 0 0 0 .72 2.107 2.57 2.57 0 0 0 2.685.598.567.567 0 0 1 .387 1.063 3.7 3.7 0 0 1-4.367-1.475.6.6 0 0 1-.114-.125h-.002C2.339 9.599 1.9 6.889 2.73 3.917a.566.566 0 1 1 1.09.307 9.6 9.6 0 0 0-.331 1.82c-.011.143.101.227.214.227a.2.2 0 0 0 .197-.146c.417-1.292 1.126-2.487 2.134-3.604a.564.564 0 0 1 .804-.036.58.58 0 0 1 .023.811 9 9 0 0 0-1.603 2.456c-.07.16.059.297.197.297a.2.2 0 0 0 .16-.077C6.675 4.735 8.038 3.818 9.726 3.2a.567.567 0 0 1 .39 1.063c-1.215.445-2.24 1.065-3.087 1.871-.216.206-.064.566.234.566h.01c.977 0 1.896.38 2.587 1.071a3.7 3.7 0 0 1 .86 3.875.565.565 0 0 1-.53.372zm11.082 8.063a.566.566 0 1 1-1.09-.306 9.6 9.6 0 0 0 .331-1.82c.011-.143-.101-.228-.214-.228a.2.2 0 0 0-.198.147c-.416 1.292-1.125 2.487-2.133 3.603a.564.564 0 0 1-.805.037.58.58 0 0 1-.022-.812 9 9 0 0 0 1.603-2.455c.07-.16-.06-.297-.197-.297a.2.2 0 0 0-.16.076c-1.06 1.238-2.424 2.155-4.111 2.774a.567.567 0 0 1-.39-1.063c1.215-.446 2.24-1.065 3.087-1.872.216-.205.064-.565-.234-.565h-.01a3.63 3.63 0 0 1-2.587-1.072 3.7 3.7 0 0 1-.86-3.874.566.566 0 1 1 1.063.387 2.57 2.57 0 0 0 .597 2.686 2.5 2.5 0 0 0 1.787.74 2.52 2.52 0 0 0 2.506-2.205 2.52 2.52 0 0 0-.72-2.106 2.57 2.57 0 0 0-2.685-.598.567.567 0 0 1-.387-1.063 3.7 3.7 0 0 1 4.367 1.475.6.6 0 0 1 .114.125h.002c1.736 2.604 2.175 5.315 1.344 8.286z"/></g><defs><clipPath id="a"><path d="M0 0h24v24H0z"/></clipPath></defs></svg>