<svg viewBox="0 0 24 24" xmlns="http://www.w3.org/2000/svg" aria-hidden="true" fill="currentColor"><g clip-path="url(#a)"><path d="M14.813 7.666a1.124 1.124 0 0 0 1.537.412l1.28-.739v1.477a1.125 1.125 0 1 0 2.25 0V7.339l1.28.739a1.123 1.123 0 1 0 1.125-1.948l-1.28-.738 1.28-.738a1.124 1.124 0 1 0-1.126-1.948l-1.28.739V1.968a1.125 1.125 0 1 0-2.25 0v1.477l-1.28-.739a1.126 1.126 0 0 0-1.124 1.948l1.279.738-1.28.738c-.537.31-.722.998-.41 1.536"/><path d="M22.832 21.175c-.252 0-1.02 0-1.02-1.585v-6.32c0-1.471.659-1.471.906-1.471a1.125 1.125 0 1 0 0-2.25c-1.917 0-3.156 1.46-3.156 3.721v1.697h-.82l-.012-.405c-.007-2.327-1.491-3.772-3.877-3.772h-2.535l-2.33-5.512A2.02 2.02 0 0 0 8.112 4.02H2.697q-.076 0-.147.01a1.125 1.125 0 0 0-1.272 1.114v5.646h-.11a1.125 1.125 0 1 0 0 2.25h13.686c.845 0 1.627.187 1.627 1.54v.032l.14 4.756h-1.582a4.24 4.24 0 0 0-4.232-4.164 4.24 4.24 0 0 0-4.231 4.165H1.26a1.125 1.125 0 1 0 0 2.25h5.92a4.23 4.23 0 0 0 3.627 2.053 4.24 4.24 0 0 0 3.627-2.054h2.416a2.03 2.03 0 0 0 2.027-2.027v-.033l-.068-2.341h.754v2.374c0 2.33 1.283 3.835 3.27 3.835a1.125 1.125 0 1 0-.001-2.25M8.905 10.789H3.527V6.27h4.437l1.91 4.52zm1.902 10.632a1.986 1.986 0 0 1-1.984-1.984c0-1.094.89-1.984 1.983-1.984 1.095 0 1.984.89 1.984 1.984s-.89 1.983-1.983 1.983"/><path d="M5.224 15.906a1.125 1.125 0 1 0 0-2.25h-2.37a1.125 1.125 0 1 0 0 2.25zM10.71 3.551a1.124 1.124 0 0 0 2.224 0 1.124 1.124 0 0 0 .002-2.245 1.124 1.124 0 0 0-2.228 0 1.125 1.125 0 0 0 .002 2.244"/></g><defs><clipPath id="a"><path d="M0 0h24v24H0z"/></clipPath></defs></svg>