<svg viewBox="0 0 24 24" xmlns="http://www.w3.org/2000/svg" aria-hidden="true" fill="currentColor"><g clip-path="url(#a)"><path d="M15.137 7.023a.75.75 0 0 0 1.025.275l1.84-1.062V8.36a.75.75 0 1 0 1.5 0V6.236l1.84 1.062a.753.753 0 0 0 1.025-.275.75.75 0 0 0-.274-1.025l-1.84-1.062 1.84-1.062a.75.75 0 1 0-.75-1.3l-1.84 1.063V1.512a.75.75 0 1 0-1.5 0v2.125l-1.841-1.062a.75.75 0 1 0-.75 1.299l1.84 1.062-1.84 1.062a.75.75 0 0 0-.275 1.025"/><path d="M22.832 21.51c-1.153 0-1.395-1.066-1.395-1.96v-6.32c0-1.526.697-1.847 1.282-1.847a.75.75 0 1 0 0-1.5c-1.716 0-2.782 1.283-2.782 3.346v2.121a.8.8 0 0 0-.264-.049h-1.295l-.022-.773c-.005-2.131-1.314-3.403-3.503-3.403H12.07L9.642 5.382a1.65 1.65 0 0 0-1.53-1.028H2.697q-.076 0-.147.015a.75.75 0 0 0-.897.735v6.02h-.486a.75.75 0 1 0 0 1.5h13.687c.86 0 2.003.2 2.003 1.915v.022l.147 4.995a.153.153 0 0 1-.153.146h-2.198q.013-.151.013-.306a3.863 3.863 0 0 0-3.858-3.859 3.863 3.863 0 0 0-3.846 4.166H1.26a.75.75 0 1 0 0 1.5h6.055a1 1 0 0 0 .081-.005 3.86 3.86 0 0 0 3.41 2.057 3.86 3.86 0 0 0 3.41-2.053h2.634c.911 0 1.653-.742 1.653-1.653v-.021l-.08-2.727h1.25a.8.8 0 0 0 .265-.048v2.798c0 2.102 1.136 3.46 2.895 3.46a.75.75 0 1 0 0-1.5M3.152 11.124v-5.27h4.96c.062 0 .118.037.141.095l.005.011 2.182 5.164zm7.655 10.632a2.36 2.36 0 0 1-2.359-2.359c0-1.3 1.059-2.359 2.359-2.359s2.359 1.059 2.359 2.36-1.059 2.358-2.36 2.358"/><path d="M5.224 15.492a.75.75 0 1 0 0-1.5h-2.37a.75.75 0 1 0 0 1.5zM10.766 3.22h.307v.212a.75.75 0 1 0 1.5 0V3.22h.315a.75.75 0 1 0 0-1.5h-.315v-.224a.75.75 0 1 0-1.5 0v.224h-.307a.75.75 0 1 0 0 1.5"/></g><defs><clipPath id="a"><path d="M0 0h24v24H0z"/></clipPath></defs></svg>