<svg viewBox="0 0 24 24" xmlns="http://www.w3.org/2000/svg" aria-hidden="true" fill="currentColor"><path d="M22.78 9.373a1.91 1.91 0 0 0-1.663-1.312l-5.305-.429-2.048-4.95a1.909 1.909 0 0 0-3.53 0L8.188 7.632l-5.305.428a1.917 1.917 0 0 0-1.093 3.364l4.048 3.49L4.6 20.139a1.91 1.91 0 0 0 2.859 2.079l4.54-2.795 4.54 2.795a1.912 1.912 0 0 0 2.859-2.077l-1.238-5.222 4.048-3.49a1.915 1.915 0 0 0 .572-2.055m-6.606 4.285a1.13 1.13 0 0 0-.36 1.112l1.208 5.103-4.433-2.726a1.12 1.12 0 0 0-1.18 0l-4.433 2.726 1.208-5.1a1.13 1.13 0 0 0-.36-1.112L3.862 10.24l5.193-.42a1.13 1.13 0 0 0 .95-.691L11.999 4.3l1.994 4.829a1.13 1.13 0 0 0 .95.691l5.194.42z"/></svg>