<svg viewBox="0 0 24 24" xmlns="http://www.w3.org/2000/svg" aria-hidden="true" fill="currentColor"><path d="M21.375 9.75v10.5a1.125 1.125 0 1 1-2.25 0V9.75a4.88 4.88 0 0 0-4.875-4.875h-4.5A4.88 4.88 0 0 0 4.875 9.75v10.5a1.125 1.125 0 0 1-2.25 0V9.75A7.13 7.13 0 0 1 9.75 2.625h4.5a7.13 7.13 0 0 1 7.125 7.125m-3.75 0v6.75a2.62 2.62 0 0 1-1.77 2.482l.187.475a1.125 1.125 0 0 1-1.673 1.35 1.13 1.13 0 0 1-.413-.514l-.47-1.168h-2.975l-.468 1.168a1.124 1.124 0 1 1-2.087-.836l.187-.475A2.625 2.625 0 0 1 6.375 16.5V9.75A2.625 2.625 0 0 1 9 7.125h6a2.625 2.625 0 0 1 2.625 2.625m-9 0v3.375h6.75V9.75A.375.375 0 0 0 15 9.375H9a.375.375 0 0 0-.375.375m6.75 6.75v-1.125h-2.25v1.5H15a.375.375 0 0 0 .375-.375m-4.5.375v-1.5h-2.25V16.5a.375.375 0 0 0 .375.375z"/></svg>