<svg viewBox="0 0 24 24" xmlns="http://www.w3.org/2000/svg" aria-hidden="true" fill="currentColor"><path d="m22.39 19.477-4.827-9.68a1.036 1.036 0 0 0-1.468-.419 1.03 1.03 0 0 0-.382.418l-1.769 3.544a7.25 7.25 0 0 1-3.34-1.16 9.3 9.3 0 0 0 2.183-5.031h1.782a1.033 1.033 0 0 0 1.035-1.037 1.04 1.04 0 0 0-1.035-1.038h-4.483V4.037A1.04 1.04 0 0 0 9.052 3a1.033 1.033 0 0 0-1.035 1.037v1.037H3.535A1.033 1.033 0 0 0 2.5 6.112a1.04 1.04 0 0 0 1.035 1.037H10.7a7.24 7.24 0 0 1-1.65 3.66 7.3 7.3 0 0 1-1.068-1.672A1.04 1.04 0 0 0 7 8.51a1.03 1.03 0 0 0-.941.687 1.04 1.04 0 0 0 .044.804A9.3 9.3 0 0 0 7.5 12.183a7.2 7.2 0 0 1-3.965 1.189A1.033 1.033 0 0 0 2.5 14.409a1.04 1.04 0 0 0 1.035 1.037 9.25 9.25 0 0 0 5.517-1.82 9.3 9.3 0 0 0 3.913 1.68l-2.08 4.17a1.04 1.04 0 0 0 .846 1.522 1.03 1.03 0 0 0 1.004-.594l1.094-2.192h5.618l1.093 2.192a1.035 1.035 0 1 0 1.85-.927m-7.527-3.34 1.775-3.558 1.774 3.559z"/></svg>