<svg viewBox="0 0 24 24" xmlns="http://www.w3.org/2000/svg" aria-hidden="true" fill="currentColor"><path d="m23.167 9.392-4.272-4.977a1.87 1.87 0 0 0-1.433-.665H2.438A1.875 1.875 0 0 0 .563 5.625v10.5A1.875 1.875 0 0 0 2.438 18h1.318a3.375 3.375 0 0 0 6.364 0h3.761a3.375 3.375 0 0 0 6.364 0h1.318a1.875 1.875 0 0 0 1.875-1.875v-6a1.13 1.13 0 0 0-.27-.733M19.865 9h-3.927V6h1.352zM9.188 9V6h4.5v3zm-2.25-3v3H2.813V6zm0 12a1.125 1.125 0 1 1 0-2.25 1.125 1.125 0 0 1 0 2.25m10.125 0a1.125 1.125 0 1 1 0-2.25 1.125 1.125 0 0 1 0 2.25m3.182-2.25a3.376 3.376 0 0 0-6.364 0H10.12a3.376 3.376 0 0 0-6.364 0h-.943v-4.5h18.375v4.5z"/></svg>