<svg viewBox="0 0 24 24" xmlns="http://www.w3.org/2000/svg" aria-hidden="true" fill="currentColor"><path d="M20.25 3.375H3.75A1.875 1.875 0 0 0 1.875 5.25V15a1.875 1.875 0 0 0 1.875 1.875h16.5a1.875 1.875 0 0 0 1.875-1.874V5.25a1.875 1.875 0 0 0-1.875-1.876m-.375 11.25H4.125v-9h15.75zm2.25 4.875A1.125 1.125 0 0 1 21 20.626H3a1.125 1.125 0 1 1 0-2.25h18a1.125 1.125 0 0 1 1.125 1.125M9.75 12V8.25a1.125 1.125 0 0 1 1.721-.954l3 1.875a1.125 1.125 0 0 1 0 1.909l-3 1.875A1.126 1.126 0 0 1 9.75 12"/></svg>