<svg viewBox="0 0 24 24" xmlns="http://www.w3.org/2000/svg" aria-hidden="true" fill="currentColor"><path d="M10.84 21.05a3.6 3.6 0 0 1-.634-.056C8.589 20.71 7.424 19.4 6.742 17.1l-.003-.01-1.866-6.506c-.16-.53-.309-.706-.353-.75-.07.007-.356.071-.975.579-.215.183-.491.275-.773.25-.589-.053-.876-.53-1.154-.992-.173-.288-.372-.642-.546-.953a25 25 0 0 0-.29-.512l-.014-.017a1.13 1.13 0 0 1 .15-1.547c.225-.19.491-.427.773-.677 2.14-1.903 5.07-4.509 7.487-3.599 1.234.465 2.031 1.735 2.37 3.775l1.3 5.947c.203-.338.43-.732.648-1.145.803-1.522.954-2.27.975-2.572-.155.005-.436.044-.896.199a1.03 1.03 0 0 1-1.065-.263 1.13 1.13 0 0 1-.27-1.104c.72-2.47 2.181-4.23 4.114-4.958 1.788-.716 3.79-.552 5.104.418 1.053.778 1.61 2.015 1.57 3.487.062 3.345-2.043 6.185-3.735 8.469l-.074.099c-.528.746-1.944 2.627-3.799 4.194-1.684 1.424-3.221 2.141-4.58 2.141zm-2.076-4.595c.427 1.439 1.03 2.237 1.794 2.371.857.151 2.11-.426 3.53-1.625 1.16-.981 2.445-2.402 3.435-3.801l.014-.02.081-.109c1.572-2.12 3.354-4.524 3.295-7.104v-.064c.025-.755-.197-1.295-.68-1.652-.73-.539-2.016-.603-3.127-.155l-.024.01c-.992.37-1.67 1.126-2.124 1.898q.806.13 1.253.764c.889 1.26.01 3.328-.727 4.773-.728 1.424-1.564 2.655-1.6 2.707a1.1 1.1 0 0 1-.265.271c-.665.474-1.202.422-1.535.295-.735-.28-.936-1.044-1.045-1.455l-.05-.182a1 1 0 0 1-.072-.218L9.48 6.595l-.011-.06C9.277 5.35 8.917 4.602 8.459 4.43c-.271-.103-.932-.142-2.313.737-1.081.69-2.189 1.673-3.079 2.465l-.102.09.181.322c.597-.337 1.291-.548 2.004-.32 1.2.388 1.61 1.759 1.745 2.21l.003.011 1.867 6.507zm2.226-3.07q0 .001.002.004 0-.002-.002-.003M2.076 8.84v.001"/></svg>