<svg viewBox="0 0 24 24" xmlns="http://www.w3.org/2000/svg" aria-hidden="true" fill="currentColor"><path d="M12.625 7.5v3.864l3.203 1.921a1.126 1.126 0 1 1-1.156 1.93l-3.75-2.25a1.13 1.13 0 0 1-.547-.965V7.5a1.125 1.125 0 1 1 2.25 0M11.5 2.625a9.32 9.32 0 0 0-6.634 2.75c-.44.445-.843.88-1.241 1.313V6a1.125 1.125 0 0 0-2.25 0v3.75A1.125 1.125 0 0 0 2.5 10.875h3.75a1.125 1.125 0 1 0 0-2.25H4.916a36 36 0 0 1 1.546-1.663A7.125 7.125 0 1 1 6.61 17.18a1.125 1.125 0 1 0-1.545 1.636A9.375 9.375 0 1 0 11.5 2.625"/></svg>