<svg width="24" height="24" viewBox="0 0 24 24" xmlns="http://www.w3.org/2000/svg">
<path d="M16.3233 7.42884C16.9573 7.42884 17.577 7.24032 18.1042 6.88711C18.6313 6.53391 19.0422 6.03188 19.2848 5.44453C19.5274 4.85717 19.5909 4.21085 19.4672 3.58732C19.3435 2.96378 19.0382 2.39103 18.5899 1.94148C18.1416 1.49194 17.5705 1.18579 16.9487 1.06177C16.3269 0.937737 15.6823 1.00139 15.0966 1.24468C14.5109 1.48798 14.0103 1.89998 13.658 2.42858C13.3058 2.95719 13.1178 3.57867 13.1178 4.21442C13.1178 5.06694 13.4555 5.88454 14.0567 6.48736C14.6578 7.09018 15.4732 7.42884 16.3233 7.42884ZM16.3233 3.14295C16.5346 3.14295 16.7412 3.20579 16.9169 3.32352C17.0927 3.44126 17.2296 3.6086 17.3105 3.80439C17.3913 4.00017 17.4125 4.21561 17.3713 4.42345C17.3301 4.6313 17.2283 4.82222 17.0789 4.97207C16.9294 5.12191 16.739 5.22396 16.5318 5.26531C16.3245 5.30665 16.1097 5.28543 15.9144 5.20433C15.7192 5.12323 15.5523 4.9859 15.4349 4.8097C15.3175 4.6335 15.2548 4.42634 15.2548 4.21442C15.2548 3.93025 15.3674 3.65771 15.5678 3.45677C15.7682 3.25583 16.0399 3.14295 16.3233 3.14295ZM18.9304 11.7496C19.0312 11.8725 19.1034 12.0165 19.1418 12.1709C19.1801 12.3254 19.1837 12.4864 19.1522 12.6424L17.7275 19.7856C17.6784 20.0279 17.5472 20.2458 17.3562 20.4022C17.1652 20.5586 16.9261 20.6439 16.6795 20.6437C16.6089 20.6439 16.5385 20.637 16.4693 20.6231C16.3317 20.5956 16.2008 20.5412 16.0842 20.4629C15.9675 20.3846 15.8674 20.2841 15.7895 20.167C15.7116 20.0499 15.6575 19.9186 15.6302 19.7805C15.6029 19.6425 15.6031 19.5004 15.6306 19.3624L16.8006 13.5005H11.6931C11.5055 13.5006 11.3212 13.4512 11.1587 13.3572C10.9961 13.2632 10.8611 13.128 10.7673 12.9651C10.6734 12.8022 10.624 12.6174 10.624 12.4292C10.6239 12.2411 10.6733 12.0562 10.7671 11.8933L12.3627 9.10748C11.2081 8.58125 9.9293 8.39055 8.6719 8.55708C7.41449 8.72361 6.22894 9.24069 5.2501 10.0495C5.03064 10.2193 4.75395 10.297 4.47846 10.266C4.20297 10.2351 3.95025 10.0981 3.77366 9.88378C3.59707 9.66949 3.51044 9.39478 3.53207 9.11765C3.55369 8.84051 3.68187 8.58265 3.88955 8.39852C5.35188 7.18858 7.16116 6.47827 9.05399 6.37099C10.9468 6.26371 12.8244 6.76506 14.4134 7.80207C14.6413 7.95153 14.8037 8.18264 14.8675 8.44817C14.9312 8.7137 14.8914 8.99361 14.7562 9.2307L13.5399 11.3576H18.1041C18.2622 11.3576 18.4183 11.3927 18.5612 11.4605C18.7041 11.5283 18.8302 11.627 18.9304 11.7496ZM15.2379 15.7247C15.1556 16.7956 14.774 17.8215 14.1368 18.6848C13.4997 19.5482 12.6328 20.214 11.6356 20.6059C10.6384 20.9979 9.55126 21.1001 8.4988 20.9008C7.44634 20.7015 6.47118 20.2088 5.68515 19.4793C4.89911 18.7497 4.33402 17.8128 4.05467 16.7759C3.77532 15.7391 3.79302 14.6442 4.10574 13.617C4.41846 12.5898 5.01354 11.6717 5.82275 10.968C6.63195 10.2644 7.62252 9.80371 8.68087 9.63875C8.96095 9.59542 9.24672 9.66542 9.47533 9.83338C9.70393 10.0013 9.85664 10.2535 9.89985 10.5343C9.94307 10.8152 9.87325 11.1018 9.70577 11.331C9.53828 11.5602 9.28684 11.7134 9.00676 11.7567C8.34556 11.8602 7.72681 12.1484 7.22143 12.5883C6.71605 13.0283 6.34449 13.602 6.14933 14.2439C5.95416 14.8859 5.94329 15.5699 6.11797 16.2177C6.29264 16.8656 6.64578 17.4509 7.13692 17.9067C7.62807 18.3626 8.23735 18.6704 8.89493 18.795C9.55251 18.9196 10.2318 18.8559 10.8549 18.6112C11.4781 18.3665 12.0198 17.9507 12.4182 17.4114C12.8165 16.8722 13.0553 16.2313 13.1071 15.5622C13.1166 15.421 13.1539 15.2832 13.2168 15.1565C13.2797 15.0299 13.367 14.917 13.4737 14.8244C13.5803 14.7317 13.7042 14.6612 13.8382 14.6168C13.9721 14.5725 14.1136 14.5551 14.2542 14.5659C14.3949 14.5766 14.5321 14.6152 14.6578 14.6793C14.7836 14.7435 14.8954 14.832 14.9869 14.9398C15.0783 15.0475 15.1476 15.1723 15.1907 15.3071C15.2338 15.4418 15.2498 15.5837 15.2379 15.7247Z"/>
</svg>
