<svg width="24" height="24" viewBox="0 0 24 24" xmlns="http://www.w3.org/2000/svg">
<path d="M14 16.5002C14 16.7969 13.912 17.0869 13.7472 17.3336C13.5824 17.5802 13.3481 17.7725 13.074 17.886C12.7999 17.9996 12.4983 18.0293 12.2074 17.9714C11.9164 17.9135 11.6491 17.7706 11.4393 17.5609C11.2296 17.3511 11.0867 17.0838 11.0288 16.7928C10.9709 16.5019 11.0006 16.2003 11.1142 15.9262C11.2277 15.6521 11.42 15.4178 11.6666 15.253C11.9133 15.0882 12.2033 15.0002 12.5 15.0002C12.8978 15.0002 13.2794 15.1582 13.5607 15.4395C13.842 15.7208 14 16.1024 14 16.5002ZM19.9484 8.59145C17.8285 6.91316 15.2039 6 12.5 6C9.79614 6 7.17152 6.91316 5.05156 8.59145C4.82355 8.7786 4.67817 9.04782 4.64673 9.34113C4.61529 9.63443 4.70031 9.92835 4.88347 10.1596C5.06663 10.3908 5.33329 10.5408 5.626 10.5774C5.91871 10.6139 6.21406 10.534 6.44844 10.3549C8.17085 8.99142 10.3032 8.24957 12.5 8.24957C14.6968 8.24957 16.8292 8.99142 18.5516 10.3549C18.7859 10.534 19.0813 10.6139 19.374 10.5774C19.6667 10.5408 19.9334 10.3908 20.1165 10.1596C20.2997 9.92835 20.3847 9.63443 20.3533 9.34113C20.3218 9.04782 20.1764 8.7786 19.9484 8.59145ZM16.9128 11.9346C15.6303 11.0023 14.0855 10.5001 12.5 10.5001C10.9145 10.5001 9.36966 11.0023 8.08719 11.9346C7.84601 12.1104 7.68454 12.3748 7.6383 12.6696C7.59206 12.9644 7.66484 13.2656 7.84063 13.5068C8.01641 13.7479 8.28081 13.9094 8.57565 13.9557C8.8705 14.0019 9.17163 13.9291 9.41281 13.7533C10.31 13.101 11.3908 12.7497 12.5 12.7497C13.6092 12.7497 14.69 13.101 15.5872 13.7533C15.7066 13.8404 15.842 13.903 15.9856 13.9378C16.1293 13.9725 16.2784 13.9786 16.4243 13.9557C16.5703 13.9328 16.7104 13.8813 16.8365 13.8043C16.9626 13.7273 17.0723 13.6262 17.1594 13.5068C17.2464 13.3873 17.3091 13.2519 17.3438 13.1083C17.3785 12.9647 17.3846 12.8156 17.3617 12.6696C17.3388 12.5236 17.2874 12.3836 17.2104 12.2574C17.1333 12.1313 17.0322 12.0216 16.9128 11.9346Z"/>
</svg>
