<svg viewBox="0 0 24 24" xmlns="http://www.w3.org/2000/svg" aria-hidden="true" fill="currentColor"><path d="M17.25 10.5h-3V5.25a1.5 1.5 0 0 0-1.5-1.5H2.25a.75.75 0 0 0-.7 1.018c1.037 2.704.82 7.848-.02 10.775a.8.8 0 0 0-.03.207v3a1.5 1.5 0 0 0 1.5 1.5h2.448a1.5 1.5 0 0 0 .671-.158l1.183-.592h1.52l1.184.592c.208.104.438.158.671.158h2.646c.233 0 .463-.054.671-.158l1.183-.592h1.52l1.184.592c.208.104.438.158.671.158H21a1.5 1.5 0 0 0 1.5-1.5v-3a5.256 5.256 0 0 0-5.25-5.25M3.268 5.25h9.482V7.5h-3a.75.75 0 0 0 0 1.5h3v1.5h-3a.75.75 0 1 0 0 1.5h7.5a3.76 3.76 0 0 1 3.675 3H3.211c.633-2.891.765-6.953.057-9.75M21 18.75h-2.448l-1.183-.592a1.5 1.5 0 0 0-.671-.158h-1.52c-.234 0-.464.054-.672.158l-1.183.592h-2.646l-1.183-.592A1.5 1.5 0 0 0 8.823 18h-1.52a1.5 1.5 0 0 0-.672.158l-1.183.592H3V16.5h18z"/></svg>