<svg viewBox="0 0 24 24" xmlns="http://www.w3.org/2000/svg" aria-hidden="true" fill="currentColor"><path d="M22.5 19.5h-.75V6.75A.75.75 0 0 0 21 6h-3.75V3.75A.75.75 0 0 0 16.5 3h-9a.75.75 0 0 0-.75.75V9H3a.75.75 0 0 0-.75.75v9.75H1.5a.75.75 0 1 0 0 1.5h21a.75.75 0 1 0 0-1.5m-18.75-9H7.5a.75.75 0 0 0 .75-.75V4.5h7.5v2.25a.75.75 0 0 0 .75.75h3.75v12h-6v-3.75a.75.75 0 0 0-.75-.75h-3a.75.75 0 0 0-.75.75v3.75h-6zm9 9h-1.5v-3h1.5zM10.5 6.75a.75.75 0 0 1 .75-.75h1.5a.75.75 0 1 1 0 1.5h-1.5a.75.75 0 0 1-.75-.75m0 3a.75.75 0 0 1 .75-.75h1.5a.75.75 0 1 1 0 1.5h-1.5a.75.75 0 0 1-.75-.75m5.25 0A.75.75 0 0 1 16.5 9H18a.75.75 0 1 1 0 1.5h-1.5a.75.75 0 0 1-.75-.75m-7.5 3a.75.75 0 0 1-.75.75H6A.75.75 0 1 1 6 12h1.5a.75.75 0 0 1 .75.75m0 3a.75.75 0 0 1-.75.75H6A.75.75 0 1 1 6 15h1.5a.75.75 0 0 1 .75.75m2.25-3a.75.75 0 0 1 .75-.75h1.5a.75.75 0 1 1 0 1.5h-1.5a.75.75 0 0 1-.75-.75m5.25 0a.75.75 0 0 1 .75-.75H18a.75.75 0 1 1 0 1.5h-1.5a.75.75 0 0 1-.75-.75m0 3a.75.75 0 0 1 .75-.75H18a.75.75 0 1 1 0 1.5h-1.5a.75.75 0 0 1-.75-.75"/></svg>