<svg viewBox="0 0 24 24" xmlns="http://www.w3.org/2000/svg" aria-hidden="true" fill="currentColor"><path d="M17.25 3H6.75a3 3 0 0 0-3 3v13.5a1.5 1.5 0 0 0 1.5 1.5H7.5A1.5 1.5 0 0 0 9 19.5V18h6v1.5a1.5 1.5 0 0 0 1.5 1.5h2.25a1.5 1.5 0 0 0 1.5-1.5V6a3 3 0 0 0-3-3m-12 13.5v-5.25h13.5v5.25zm0-9h13.5v2.25H5.25zm1.5-3h10.5a1.5 1.5 0 0 1 1.5 1.5H5.25a1.5 1.5 0 0 1 1.5-1.5m.75 15H5.25V18H7.5zm9 0V18h2.25v1.5zm-6.75-5.624a1.125 1.125 0 1 1-2.25 0 1.125 1.125 0 0 1 2.25 0m6.75 0a1.125 1.125 0 1 1-2.25 0 1.125 1.125 0 0 1 2.25 0M23.25 7.5v2.25a.75.75 0 1 1-1.5 0V7.5a.75.75 0 1 1 1.5 0m-21 0v2.25a.75.75 0 1 1-1.5 0V7.5a.75.75 0 0 1 1.5 0"/></svg>