<svg viewBox="0 0 24 24" xmlns="http://www.w3.org/2000/svg" aria-hidden="true" fill="currentColor"><path d="M7.006 12.027a12.6 12.6 0 0 1-1.328 5.669.75.75 0 1 1-1.342-.668 11.14 11.14 0 0 0 1.17-5.001 6.73 6.73 0 0 1 2.531-5.269.75.75 0 1 1 .938 1.171 5.23 5.23 0 0 0-1.97 4.098m5.25-.75a.75.75 0 0 0-.75.75 17.26 17.26 0 0 1-2.156 8.353.75.75 0 0 0 1.312.728 18.8 18.8 0 0 0 2.344-9.081.75.75 0 0 0-.75-.75m0-3a3.75 3.75 0 0 0-3.75 3.75.75.75 0 0 0 1.5 0 2.25 2.25 0 1 1 4.5 0 20.1 20.1 0 0 1-1.923 8.625.751.751 0 1 0 1.36.64 21.6 21.6 0 0 0 2.063-9.265 3.75 3.75 0 0 0-3.75-3.75m0-6a9.76 9.76 0 0 0-9.75 9.75 8.2 8.2 0 0 1-.469 2.75.75.75 0 0 0 1.415.5 9.7 9.7 0 0 0 .554-3.25 8.25 8.25 0 1 1 16.5 0 26.5 26.5 0 0 1-.496 5.105.75.75 0 1 0 1.47.29c.35-1.777.526-3.584.526-5.395a9.76 9.76 0 0 0-9.75-9.75m-3.15 12.016a.75.75 0 0 0-.881.586 14.2 14.2 0 0 1-1.614 4.26.75.75 0 0 0 1.3.75 15.6 15.6 0 0 0 1.78-4.711.75.75 0 0 0-.585-.885m3.15-9.016q-.423 0-.844.052a.75.75 0 0 0 .188 1.488 5.258 5.258 0 0 1 5.906 5.21q0 1.458-.18 2.906a.75.75 0 1 0 1.485.193c.126-1.026.189-2.06.187-3.093a6.757 6.757 0 0 0-6.742-6.756m5.43 12.023a.75.75 0 0 0-.913.54 25 25 0 0 1-.47 1.593.75.75 0 0 0 .709.99.75.75 0 0 0 .71-.513 24 24 0 0 0 .502-1.692.75.75 0 0 0-.536-.917z"/></svg>