<svg viewBox="0 0 24 24" xmlns="http://www.w3.org/2000/svg" aria-hidden="true" fill="currentColor"><path d="M20.25 6H16.5v-.75A2.25 2.25 0 0 0 14.25 3h-4.5A2.25 2.25 0 0 0 7.5 5.25V6H3.75a1.5 1.5 0 0 0-1.5 1.5v12a1.5 1.5 0 0 0 1.5 1.5h16.5a1.5 1.5 0 0 0 1.5-1.5v-12a1.5 1.5 0 0 0-1.5-1.5M9 5.25a.75.75 0 0 1 .75-.75h4.5a.75.75 0 0 1 .75.75V6H9zM20.25 19.5H3.75v-12h16.5zm-5.25-6a.75.75 0 0 1-.75.75h-1.5v1.5a.75.75 0 1 1-1.5 0v-1.5h-1.5a.75.75 0 1 1 0-1.5h1.5v-1.5a.75.75 0 1 1 1.5 0v1.5h1.5a.75.75 0 0 1 .75.75"/></svg>