<svg viewBox="0 0 24 24" xmlns="http://www.w3.org/2000/svg" aria-hidden="true" fill="currentColor"><path d="M12 2.25A9.75 9.75 0 1 0 21.75 12 9.76 9.76 0 0 0 12 2.25M20.25 12a8.2 8.2 0 0 1-.312 2.25h-3.61a14.8 14.8 0 0 0 0-4.5h3.61A8.2 8.2 0 0 1 20.25 12M9.563 15.75h4.874A10.8 10.8 0 0 1 12 19.969a10.8 10.8 0 0 1-2.437-4.219m-.366-1.5a13.2 13.2 0 0 1 0-4.5h5.614a13.2 13.2 0 0 1 0 4.5zM3.75 12c0-.76.104-1.518.312-2.25h3.61a14.8 14.8 0 0 0 0 4.5h-3.61A8.2 8.2 0 0 1 3.75 12m10.688-3.75H9.561A10.8 10.8 0 0 1 12 4.031a10.8 10.8 0 0 1 2.438 4.219m4.905 0h-3.339a12.7 12.7 0 0 0-2.09-4.275 8.28 8.28 0 0 1 5.433 4.275zm-9.256-4.275c-.96 1.28-1.67 2.73-2.091 4.275H4.653a8.28 8.28 0 0 1 5.434-4.275M4.653 15.75h3.343a12.7 12.7 0 0 0 2.09 4.275 8.28 8.28 0 0 1-5.433-4.275m9.26 4.275c.96-1.28 1.67-2.73 2.091-4.275h3.343a8.28 8.28 0 0 1-5.434 4.275"/></svg>