<svg viewBox="0 0 24 24" xmlns="http://www.w3.org/2000/svg" aria-hidden="true" fill="currentColor"><path d="M16.5 9a1.125 1.125 0 1 1-2.25 0 1.125 1.125 0 0 1 2.25 0m-4.125 1.875a1.125 1.125 0 1 0 0 2.25 1.125 1.125 0 0 0 0-2.25m7.875-2.25A8.25 8.25 0 1 1 12 .375a8.26 8.26 0 0 1 8.25 8.25m-1.5 0a6.75 6.75 0 1 0-6.75 6.75 6.76 6.76 0 0 0 6.75-6.75m-3.268 9.05c-1.232.471-2.371.7-3.482.7-1.11 0-2.25-.229-3.482-.7a.75.75 0 1 0-.536 1.4c1.047.411 2.148.67 3.268.77v3.03a.75.75 0 1 0 1.5 0v-3.03c1.12-.1 2.221-.359 3.268-.77a.75.75 0 1 0-.536-1.4"/></svg>