<svg viewBox="0 0 24 24" xmlns="http://www.w3.org/2000/svg" aria-hidden="true" fill="currentColor"><g clip-path="url(#a)"><path d="m23.603 7.588-11.25-6a.75.75 0 0 0-.705 0l-11.25 6a.75.75 0 0 0 0 1.324L3 10.3v4.54c0 .368.135.724.38.998C4.61 17.206 7.36 19.5 12 19.5a12.2 12.2 0 0 0 4.5-.821v3.07a.75.75 0 1 0 1.5 0v-3.795a10.8 10.8 0 0 0 2.62-2.116c.245-.274.38-.63.38-.998V10.3l2.602-1.388a.75.75 0 0 0 0-1.324M12 18c-4.057 0-6.442-1.982-7.5-3.16V11.1l7.148 3.812a.75.75 0 0 0 .704 0L16.5 12.7v4.345c-1.181.55-2.67.955-4.5.955m7.5-3.164c-.45.499-.953.947-1.5 1.336V11.9l1.5-.8zM17.625 10.4l-.02-.012-5.25-2.8a.75.75 0 0 0-.706 1.324l4.382 2.338L12 13.4 2.344 8.25 12 3.1l9.656 5.15z"/></g><defs><clipPath id="a"><path d="M0 0h24v24H0z"/></clipPath></defs></svg>