<svg viewBox="0 0 24 24" xmlns="http://www.w3.org/2000/svg" aria-hidden="true" fill="currentColor"><path d="M18.621 5.378a3 3 0 0 0-4.236-.005l-1.092 1.144a.75.75 0 0 1-1.086-1.03l1.099-1.153.012-.012a4.5 4.5 0 0 1 6.352 6.376l-1.153 1.099a.75.75 0 0 1-1.03-1.086l1.144-1.092a3 3 0 0 0-.01-4.24m-7.914 12.105-1.092 1.144a3 3 0 0 1-4.242-4.242l1.144-1.092a.75.75 0 0 0-1.03-1.086L4.33 13.306l-.012.012a4.5 4.5 0 0 0 6.376 6.352l1.099-1.153a.75.75 0 1 0-1.086-1.03zm9.543-3.233H18a.75.75 0 1 0 0 1.5h2.25a.75.75 0 1 0 0-1.5m-16.5-4.5H6a.75.75 0 0 0 0-1.5H3.75a.75.75 0 1 0 0 1.5M15 17.25a.75.75 0 0 0-.75.75v2.25a.75.75 0 1 0 1.5 0V18a.75.75 0 0 0-.75-.75M9 6.75A.75.75 0 0 0 9.75 6V3.75a.75.75 0 0 0-1.5 0V6a.75.75 0 0 0 .75.75"/></svg>