<svg viewBox="0 0 24 24" xmlns="http://www.w3.org/2000/svg" aria-hidden="true" fill="currentColor"><path d="M21.754 15.743H5.991q.375-.74.75-1.51c1.406.154 3.054-.824 4.937-2.92.469 1.262 1.355 2.9 2.867 2.93.85.017 1.698-.488 2.57-1.535.637.761 1.949 1.535 4.64 1.535a.75.75 0 1 0 0-1.5c-2.854 0-3.697-.98-3.75-1.51a.72.72 0 0 0-.513-.727.76.76 0 0 0-.867.327c-1.132 1.738-1.817 1.915-2.055 1.91-.774-.015-1.562-1.83-1.832-3.133a.75.75 0 0 0-1.32-.316c-1.895 2.375-3.164 3.175-3.954 3.382.796-1.769 1.39-3.322 1.77-4.63.64-2.198.687-3.734.142-4.697-.28-.504-.875-1.106-2.068-1.106-1.505 0-2.693 1.423-3.26 3.904-.336 1.473-.391 3.114-.151 4.5s.737 2.396 1.461 2.995c-.35.724-.706 1.43-1.053 2.1h-2.05a.75.75 0 1 0 0 1.5H3.51a88 88 0 0 1-1.9 3.364.75.75 0 1 0 1.286.773c.014-.024 1.057-1.762 2.316-4.136h16.541a.75.75 0 1 0 0-1.5M5.511 6.48c.373-1.638 1.096-2.738 1.797-2.738.5 0 .666.174.762.344.282.5.612 2.268-2.03 8.099-.775-1.058-1.038-3.475-.529-5.705"/></svg>