<svg viewBox="0 0 24 24" xmlns="http://www.w3.org/2000/svg" aria-hidden="true" fill="currentColor"><path d="M20.73 12a3 3 0 0 0-3.48-4.846V5.25A3 3 0 0 0 12 3.27a3 3 0 0 0-4.846 3.48H5.25A3 3 0 0 0 3.269 12a3 3 0 0 0 3.481 4.846v1.904A3 3 0 0 0 12 20.731a3 3 0 0 0 4.846-3.481h1.904A3 3 0 0 0 20.73 12M6.75 14.25a1.5 1.5 0 1 1-1.5-1.5h1.5zm4.5 4.5a1.5 1.5 0 0 1-3 0v-4.5a1.5 1.5 0 0 1 1.5-1.5h1.5zm0-7.5h-6a1.5 1.5 0 1 1 0-3h4.5a1.5 1.5 0 0 1 1.5 1.5zm0-4.5h-1.5a1.5 1.5 0 1 1 1.5-1.5zm1.5-1.5a1.5 1.5 0 1 1 3 0v4.5a1.5 1.5 0 0 1-1.5 1.5h-1.5zm1.5 15a1.5 1.5 0 0 1-1.5-1.5v-1.5h1.5a1.5 1.5 0 0 1 0 3m4.5-4.5h-4.5a1.5 1.5 0 0 1-1.5-1.5v-1.5h6a1.5 1.5 0 0 1 0 3m0-4.5h-1.5v-1.5a1.5 1.5 0 1 1 1.5 1.5"/></svg>