<svg viewBox="0 0 24 24" xmlns="http://www.w3.org/2000/svg" aria-hidden="true" fill="currentColor"><path d="M17.477 11.592a6 6 0 0 0-1.044-.63c-.375-2.802-2.25-3.685-3.103-3.944-1.854-.562-3.985.112-4.954 1.566a.75.75 0 1 0 1.248.832c.598-.896 2.063-1.327 3.271-.963.933.282 1.577.966 1.89 1.97a7.6 7.6 0 0 0-1.434-.135c-1.305 0-2.527.337-3.438.947-1.072.725-1.663 1.796-1.663 3.015 0 1.93 1.487 3.33 3.535 3.33a4.5 4.5 0 0 0 3.22-1.388c.604-.629 1.313-1.722 1.464-3.479l.103.075C17.52 13.505 18 14.501 18 15.75c0 1.815-1.907 4.5-6 4.5-2.506 0-4.264-.81-5.376-2.479C5.712 16.406 5.25 14.461 5.25 12c0-2.462.462-4.406 1.374-5.771C7.736 4.56 9.494 3.75 12 3.75c3.087 0 5.063 1.242 6.05 3.799a.75.75 0 1 0 1.4-.54C18.25 3.897 15.674 2.25 12 2.25c-3 0-5.232 1.058-6.624 3.146C4.296 7.016 3.75 9.236 3.75 12s.547 4.985 1.626 6.604C6.768 20.692 9 21.75 12 21.75c2.82 0 4.584-1.076 5.569-1.978 1.21-1.108 1.931-2.616 1.931-4.022 0-1.72-.7-3.158-2.023-4.158m-3.552 3.563a3 3 0 0 1-2.14.928c-1.013 0-2.035-.563-2.035-1.83 0-1.184 1.125-2.457 3.6-2.457a6 6 0 0 1 1.65.227c0 1.32-.375 2.401-1.075 3.129z"/></svg>