<svg viewBox="0 0 24 24" xmlns="http://www.w3.org/2000/svg" aria-hidden="true" fill="currentColor"><path d="M12.75 10.125a2.625 2.625 0 1 0-5.25 0 2.625 2.625 0 0 0 5.25 0m-2.625 1.125a1.125 1.125 0 1 1 0-2.25 1.125 1.125 0 0 1 0 2.25m6.375-.75a1.5 1.5 0 1 1 0 3 1.5 1.5 0 0 1 0-3m-3 6a1.5 1.5 0 1 1-3 0 1.5 1.5 0 0 1 3 0m9-5.25h-1.532a8.96 8.96 0 0 0-2.099-5.058l1.162-1.161a.75.75 0 1 0-1.062-1.062l-1.157 1.162a8.96 8.96 0 0 0-5.062-2.1V1.5a.75.75 0 1 0-1.5 0v1.532A8.96 8.96 0 0 0 6.192 5.13L5.031 3.969a.75.75 0 1 0-1.062 1.062l1.162 1.161a8.96 8.96 0 0 0-2.1 5.063H1.5a.75.75 0 1 0 0 1.5h1.532a8.96 8.96 0 0 0 2.099 5.057L3.969 18.97a.75.75 0 1 0 1.062 1.062l1.161-1.162a8.96 8.96 0 0 0 5.063 2.1v1.53a.75.75 0 1 0 1.5 0v-1.532a8.96 8.96 0 0 0 5.057-2.099l1.162 1.162a.75.75 0 1 0 1.061-1.062l-1.166-1.157a8.96 8.96 0 0 0 2.1-5.062H22.5a.75.75 0 1 0 0-1.5M12 19.5a7.5 7.5 0 1 1 7.5-7.5 7.51 7.51 0 0 1-7.5 7.5"/></svg>