<svg viewBox="0 0 24 24" xmlns="http://www.w3.org/2000/svg" aria-hidden="true" fill="currentColor"><path d="M16.875 7.125a1.124 1.124 0 1 1-2.249 0 1.124 1.124 0 0 1 2.25 0m6 1.125a.75.75 0 0 1-.334.624l-1.916 1.277V12a9.76 9.76 0 0 1-9.75 9.75h-8.25a1.5 1.5 0 0 1-1.17-2.437l.009-.012 7.91-9.491V7.96c0-3.134 2.512-5.694 5.598-5.709H15a5.625 5.625 0 0 1 5.364 3.924l2.177 1.452a.75.75 0 0 1 .334.624m-2.102 0-1.47-.98a.75.75 0 0 1-.31-.436A4.125 4.125 0 0 0 15 3.75h-.02c-2.264.011-4.105 1.898-4.105 4.208v2.122a.75.75 0 0 1-.173.48l-8.077 9.69h2.522l6.65-7.98a.75.75 0 1 1 1.153.96l-5.848 7.02h3.773a8.26 8.26 0 0 0 8.25-8.25V9.75a.75.75 0 0 1 .334-.624z"/></svg>