<svg viewBox="0 0 24 24" xmlns="http://www.w3.org/2000/svg" aria-hidden="true" fill="currentColor"><path d="m20.406 7.72-5.25-5.25a.75.75 0 0 0-.531-.22h-9a1.5 1.5 0 0 0-1.5 1.5v6.75a.75.75 0 1 0 1.5 0V3.75h8.25v4.5a.75.75 0 0 0 .75.75h4.5v11.25h-.75a.75.75 0 1 0 0 1.5h.75a1.5 1.5 0 0 0 1.5-1.5v-12a.75.75 0 0 0-.22-.53m-5.031-2.91 2.69 2.69h-2.69zm-.386 8.784a.75.75 0 0 0-.762.02l-1.87 1.169a1.5 1.5 0 0 0-1.482-1.282h-6a1.5 1.5 0 0 0-1.5 1.5v4.5a1.5 1.5 0 0 0 1.5 1.5h6a1.5 1.5 0 0 0 1.482-1.283l1.87 1.168a.75.75 0 0 0 1.148-.636v-6a.75.75 0 0 0-.386-.656M10.875 19.5h-6V15h6zm3-.602-1.5-.938v-1.42l1.5-.937z"/></svg>