<svg viewBox="0 0 24 24" xmlns="http://www.w3.org/2000/svg" aria-hidden="true" fill="currentColor"><path d="M19.53 7.095a5.6 5.6 0 0 0-.505-4.47.75.75 0 0 0-.65-.375 5.6 5.6 0 0 0-4.5 2.25h-2.25a5.6 5.6 0 0 0-4.5-2.25.75.75 0 0 0-.65.375 5.6 5.6 0 0 0-.504 4.47A5.45 5.45 0 0 0 5.25 9.75v.75a5.255 5.255 0 0 0 4.541 5.2A3.73 3.73 0 0 0 9 18v.75H6.75A2.25 2.25 0 0 1 4.5 16.5a3.75 3.75 0 0 0-3.75-3.75.75.75 0 1 0 0 1.5A2.25 2.25 0 0 1 3 16.5a3.75 3.75 0 0 0 3.75 3.75H9v1.5a.75.75 0 1 0 1.5 0V18a2.25 2.25 0 0 1 4.5 0v3.75a.75.75 0 1 0 1.5 0V18c0-.833-.278-1.643-.791-2.3a5.255 5.255 0 0 0 4.541-5.2v-.75a5.45 5.45 0 0 0-.72-2.655m-.78 3.405A3.75 3.75 0 0 1 15 14.25h-4.5a3.75 3.75 0 0 1-3.75-3.75v-.75c.01-.75.234-1.482.647-2.107a.75.75 0 0 0 .103-.721 4.1 4.1 0 0 1 .074-3.149 4.11 4.11 0 0 1 3.03 1.881.75.75 0 0 0 .63.346h3.032a.75.75 0 0 0 .632-.346 4.11 4.11 0 0 1 3.03-1.88A4.1 4.1 0 0 1 18 6.921a.76.76 0 0 0 .094.717c.417.626.645 1.359.656 2.111z"/></svg>