<svg viewBox="0 0 24 24" xmlns="http://www.w3.org/2000/svg" aria-hidden="true" fill="currentColor"><path d="M23.25 12a.75.75 0 0 1-.75.75h-2.284a8.2 8.2 0 0 1-.687 2.625.75.75 0 0 1-1.384-.041.75.75 0 0 1 .018-.573 6.756 6.756 0 0 0-8.326-9.158.75.75 0 1 1-.48-1.42 8.2 8.2 0 0 1 1.893-.398V1.5a.75.75 0 1 1 1.5 0v2.285a8.26 8.26 0 0 1 7.465 7.465H22.5a.75.75 0 0 1 .75.75m-3.195 7.746a.751.751 0 1 1-1.11 1.008l-1.976-2.17a8.2 8.2 0 0 1-4.22 1.631V22.5a.75.75 0 1 1-1.5 0v-2.285a8.26 8.26 0 0 1-7.465-7.465H1.5a.75.75 0 1 1 0-1.5h2.284A8.28 8.28 0 0 1 5.92 6.426L3.945 4.254a.75.75 0 1 1 1.11-1.008zm-4.099-2.278L6.937 7.542a6.75 6.75 0 0 0 9.02 9.926"/></svg>