<svg viewBox="0 0 24 24" xmlns="http://www.w3.org/2000/svg" aria-hidden="true" fill="currentColor"><path d="M22.125 19.5h-.75V12a1.5 1.5 0 0 0-1.5-1.5h-5.25v-6a1.5 1.5 0 0 0-1.5-1.5h-9a1.5 1.5 0 0 0-1.5 1.5v15h-.75a.75.75 0 1 0 0 1.5h20.25a.75.75 0 1 0 0-1.5m-2.25-7.5v7.5h-5.25V12zM4.125 4.5h9v15h-1.5V15a.75.75 0 0 0-.75-.75h-4.5a.75.75 0 0 0-.75.75v4.5h-1.5zm6 15h-3v-3.75h3zM5.625 9a.75.75 0 0 1 .75-.75h1.5v-1.5a.75.75 0 0 1 1.5 0v1.5h1.5a.75.75 0 1 1 0 1.5h-1.5v1.5a.75.75 0 1 1-1.5 0v-1.5h-1.5a.75.75 0 0 1-.75-.75"/></svg>