<svg viewBox="0 0 24 24" xmlns="http://www.w3.org/2000/svg" aria-hidden="true" fill="currentColor"><path d="M18.75 10.5a.75.75 0 0 1-.75.75h-3.75a.75.75 0 1 1 0-1.5H18a.75.75 0 0 1 .75.75M18 12.75h-3.75a.75.75 0 1 0 0 1.5H18a.75.75 0 1 0 0-1.5m3.75-7.5v13.5a1.5 1.5 0 0 1-1.5 1.5H3.75a1.5 1.5 0 0 1-1.5-1.5V5.25a1.5 1.5 0 0 1 1.5-1.5h16.5a1.5 1.5 0 0 1 1.5 1.5m-1.5 13.5V5.25H3.75v13.5zm-7.525-3.187a.75.75 0 1 1-1.453.374c-.246-.961-1.224-1.687-2.273-1.687s-2.026.726-2.274 1.688a.75.75 0 0 1-1.453-.376 3.74 3.74 0 0 1 1.612-2.188 3 3 0 1 1 4.23 0c.794.5 1.37 1.282 1.612 2.188M9 12.75a1.5 1.5 0 1 0 0-3 1.5 1.5 0 0 0 0 3"/></svg>