<svg viewBox="0 0 24 24" xmlns="http://www.w3.org/2000/svg" aria-hidden="true" fill="currentColor"><path d="M20.25 3.75H3.75a1.5 1.5 0 0 0-1.5 1.5v13.5a1.5 1.5 0 0 0 1.5 1.5h6a.75.75 0 0 0 .712-.512l1.39-4.17 3.43-1.37a.76.76 0 0 0 .417-.42l1.371-3.426 4.17-1.39a.75.75 0 0 0 .51-.712v-3a1.5 1.5 0 0 0-1.5-1.5m-9.712 11.013L9.21 18.75H3.75v-2.625l4.875-4.874 2.852 2.851-.508.202a.75.75 0 0 0-.43.46M20.25 7.71l-3.987 1.329a.75.75 0 0 0-.46.433l-1.38 3.452-1.431.577-3.307-3.307a1.5 1.5 0 0 0-2.12 0l-3.815 3.81V5.25h16.5zm1.189 3.093a.75.75 0 0 0-.676-.103l-2.231.745a.75.75 0 0 0-.46.432l-1.341 3.353-3.354 1.342a.75.75 0 0 0-.432.46l-.744 2.23a.75.75 0 0 0 .711.988h7.338a1.5 1.5 0 0 0 1.5-1.5v-7.337a.75.75 0 0 0-.311-.609M20.25 18.75h-6.297l.305-.914 3.329-1.33a.76.76 0 0 0 .418-.419l1.33-3.329.915-.305z"/></svg>