<svg viewBox="0 0 24 24" xmlns="http://www.w3.org/2000/svg" aria-hidden="true" fill="currentColor"><path d="M12 21.75c-5.377 0-9.75-4.373-9.75-9.75S6.623 2.25 12 2.25s9.75 4.373 9.75 9.75-4.373 9.75-9.75 9.75m0-18c-4.549 0-8.25 3.701-8.25 8.25s3.701 8.25 8.25 8.25 8.25-3.701 8.25-8.25S16.549 3.75 12 3.75"/><path d="M9.75 16.5a.75.75 0 0 1-.75-.75v-7.5a.75.75 0 0 1 .75-.75h3a3.38 3.38 0 0 1 3.375 3.375 3.38 3.38 0 0 1-3.375 3.375H10.5v1.5a.75.75 0 0 1-.75.75m.75-3.75h2.25c1.034 0 1.875-.84 1.875-1.875 0-1.034-.84-1.875-1.875-1.875H10.5z"/></svg>