<svg viewBox="0 0 24 24" xmlns="http://www.w3.org/2000/svg" aria-hidden="true" fill="currentColor"><path d="M20.25 2.25H3.75a1.5 1.5 0 0 0-1.5 1.5v16.5a1.5 1.5 0 0 0 1.5 1.5h16.5a1.5 1.5 0 0 0 1.5-1.5V3.75a1.5 1.5 0 0 0-1.5-1.5m0 18H3.75V3.75h16.5zM9 10.5v6a.75.75 0 1 1-1.5 0v-6a.75.75 0 1 1 1.5 0m8.25 2.625V16.5a.75.75 0 1 1-1.5 0v-3.375a1.875 1.875 0 1 0-3.75 0V16.5a.75.75 0 1 1-1.5 0v-6a.75.75 0 0 1 1.48-.167 3.375 3.375 0 0 1 5.27 2.792m-7.875-5.25a1.125 1.125 0 1 1-2.25 0 1.125 1.125 0 0 1 2.25 0"/></svg>