<svg viewBox="0 0 24 24" xmlns="http://www.w3.org/2000/svg" aria-hidden="true" fill="currentColor"><path d="M18.42 16.074a8.3 8.3 0 0 0 2.954-6.325c0-4.55-3.701-8.25-8.25-8.25A8.22 8.22 0 0 0 4.877 9.56L2.77 13.61q-.013.023-.023.05a1.5 1.5 0 0 0 .706 1.931l.024.012 2.148.984V19.5c0 .826.673 1.5 1.5 1.5h4.5a.75.75 0 1 0 0-1.5h-4.5v-3.393c0-.294-.17-.56-.438-.682l-2.56-1.172 2.164-4.157a.75.75 0 0 0 .084-.346A6.76 6.76 0 0 1 13.125 3a6.76 6.76 0 0 1 6.75 6.75 6.78 6.78 0 0 1-2.7 5.4.75.75 0 0 0-.294.693l.75 6a.75.75 0 0 0 1.488-.185l-.697-5.582z"/><path d="M14.917 6.47c-.78 0-1.448.425-1.726 1.105-.278-.68-.946-1.105-1.726-1.105-1.03 0-1.865.834-1.865 1.865 0 2.279 3.59 4.213 3.59 4.213s3.591-1.933 3.591-4.213c0-1.03-.834-1.865-1.864-1.865"/></svg>