<svg viewBox="0 0 24 24" xmlns="http://www.w3.org/2000/svg" aria-hidden="true" fill="currentColor"><path d="M17.353 20q-1.98 0-3.218-1.437-1.176-1.5-1.176-4.063 0-2.937 1.795-5.687T20.448 4L21.5 5.5q-3.342 2-4.518 4.063-1.114 2-1.114 4.374l-1.423 2.626q0-1.5.928-2.438.99-1 2.414-1t2.351.938q.99.936.99 2.437T20.077 19q-1.051 1-2.723 1m-10.46 0q-1.98 0-3.218-1.437Q2.5 17.063 2.5 14.5q0-2.937 1.795-5.687T9.989 4l1.052 1.5q-3.342 2-4.518 4.063-1.114 2-1.114 4.374l-1.424 2.626q0-1.5.929-2.438.99-1 2.413-1 1.424 0 2.352.938.99.936.99 2.437T9.617 19q-1.052 1-2.723 1"/></svg>