<svg viewBox="0 0 24 24" xmlns="http://www.w3.org/2000/svg" aria-hidden="true" fill="currentColor"><path d="M17.25 2.25H6.75a3 3 0 0 0-3 3v12a3 3 0 0 0 3 3h.75l-1.35 1.8a.75.75 0 0 0 1.2.9l2.025-2.7h5.25l2.025 2.7a.75.75 0 0 0 1.2-.9l-1.35-1.8h.75a3 3 0 0 0 3-3v-12a3 3 0 0 0-3-3m-12 9V7.5h6v3.75zm7.5-3.75h6v3.75h-6zm-6-3.75h10.5a1.5 1.5 0 0 1 1.5 1.5V6H5.25v-.75a1.5 1.5 0 0 1 1.5-1.5m10.5 15H6.75a1.5 1.5 0 0 1-1.5-1.5v-4.5h13.5v4.5a1.5 1.5 0 0 1-1.5 1.5M9 16.125a1.125 1.125 0 1 1-2.25 0 1.125 1.125 0 0 1 2.25 0m8.25 0a1.125 1.125 0 1 1-2.25 0 1.125 1.125 0 0 1 2.25 0"/></svg>