<svg viewBox="0 0 24 24" xmlns="http://www.w3.org/2000/svg" aria-hidden="true" fill="currentColor"><g clip-path="url(#a)"><path d="M24 12.75a.75.75 0 0 1-.75.75h-1.5V15a.75.75 0 1 1-1.5 0v-1.5h-1.5a.75.75 0 1 1 0-1.5h1.5v-1.5a.75.75 0 1 1 1.5 0V12h1.5a.75.75 0 0 1 .75.75m-5.425 5.517a.751.751 0 0 1-1.15.966c-1.886-2.247-4.48-3.483-7.3-3.483s-5.414 1.236-7.3 3.483a.75.75 0 0 1-1.149-.966c1.4-1.667 3.143-2.85 5.079-3.485a6.374 6.374 0 1 1 6.74 0c1.936.634 3.678 1.818 5.08 3.485m-8.45-4.017a4.875 4.875 0 1 0 0-9.751 4.875 4.875 0 0 0 0 9.75"/></g><defs><clipPath id="a"><path d="M0 0h24v24H0z"/></clipPath></defs></svg>