<svg viewBox="0 0 24 24" xmlns="http://www.w3.org/2000/svg" aria-hidden="true" fill="currentColor"><path d="M21.26 6.469a.75.75 0 0 0-1.205-.27l-3.778 3.486-1.615-.347-.347-1.615 3.487-3.778a.75.75 0 0 0-.27-1.204A6.75 6.75 0 0 0 8.25 9c0 .933.19 1.857.563 2.713l-5.645 4.88-.04.037a3 3 0 1 0 4.28 4.204l4.88-5.647a6.75 6.75 0 0 0 8.971-8.718M15 14.249a5.26 5.26 0 0 1-2.537-.655.75.75 0 0 0-.93.166l-5.241 6.069a1.5 1.5 0 0 1-2.12-2.12l6.064-5.24a.75.75 0 0 0 .166-.931 5.25 5.25 0 0 1 5.471-7.717l-2.925 3.17a.75.75 0 0 0-.182.665l.531 2.469a.75.75 0 0 0 .576.575l2.47.531a.75.75 0 0 0 .666-.182l3.17-2.925A5.254 5.254 0 0 1 15 14.25"/></svg>