<svg viewBox="0 0 24 24" xmlns="http://www.w3.org/2000/svg" aria-hidden="true" fill="currentColor"><path d="M16.625 15.375A1.125 1.125 0 0 1 15.5 16.5h-6a1.125 1.125 0 1 1 0-2.25h6a1.125 1.125 0 0 1 1.125 1.125M15.5 10.5h-6a1.125 1.125 0 0 0 0 2.25h6a1.125 1.125 0 1 0 0-2.25m5.625-6v15.75a1.875 1.875 0 0 1-1.875 1.875H5.75a1.875 1.875 0 0 1-1.875-1.875V4.5A1.875 1.875 0 0 1 5.75 2.625h3.237a4.864 4.864 0 0 1 7.026 0h3.237A1.875 1.875 0 0 1 21.125 4.5M9.902 5.625h5.196a2.625 2.625 0 0 0-5.196 0m8.973-.75h-1.632q.131.555.132 1.125v.75a1.125 1.125 0 0 1-1.125 1.125h-7.5A1.125 1.125 0 0 1 7.625 6.75V6q0-.57.132-1.125H6.125v15h12.75z"/></svg>