<svg viewBox="0 0 24 24" xmlns="http://www.w3.org/2000/svg" aria-hidden="true" fill="currentColor"><path d="M8.203 8.625a3.38 3.38 0 0 0-3.375 3.376 3.38 3.38 0 0 0 3.375 3.375A3.38 3.38 0 0 0 11.578 12a3.38 3.38 0 0 0-3.375-3.376m0 4.5a1.126 1.126 0 0 1 0-2.25 1.126 1.126 0 0 1 0 2.25m0-12A3.38 3.38 0 0 0 4.828 4.5a3.38 3.38 0 0 0 3.375 3.375A3.38 3.38 0 0 0 11.578 4.5a3.38 3.38 0 0 0-3.375-3.375m0 15A3.38 3.38 0 0 0 4.828 19.5a3.38 3.38 0 0 0 3.375 3.375 3.38 3.38 0 0 0 3.375-3.375 3.38 3.38 0 0 0-3.375-3.375m7.594-7.5a3.38 3.38 0 0 0-3.375 3.376 3.38 3.38 0 0 0 3.375 3.375A3.38 3.38 0 0 0 19.172 12a3.38 3.38 0 0 0-3.375-3.376m0 4.5a1.126 1.126 0 1 1 .002-2.251 1.126 1.126 0 0 1-.002 2.252m0-5.25A3.38 3.38 0 0 0 19.172 4.5a3.38 3.38 0 0 0-3.375-3.375A3.38 3.38 0 0 0 12.422 4.5a3.38 3.38 0 0 0 3.375 3.375m0 8.25a3.38 3.38 0 0 0-3.375 3.375 3.38 3.38 0 0 0 3.375 3.375 3.38 3.38 0 0 0 3.375-3.375 3.38 3.38 0 0 0-3.375-3.375m0 4.5a1.126 1.126 0 1 1 .002-2.251 1.126 1.126 0 0 1-.002 2.252"/></svg>