<svg viewBox="0 0 24 24" xmlns="http://www.w3.org/2000/svg" aria-hidden="true" fill="currentColor"><path d="M15.27 11.999c0 3.451-.848 6.849-2.471 9.894a1.123 1.123 0 0 1-1.872.194 1.13 1.13 0 0 1-.112-1.255A18.8 18.8 0 0 0 13.02 12a.75.75 0 1 0-1.5 0 1.125 1.125 0 1 1-2.25 0 3 3 0 0 1 6 0m-3-6.75a1.125 1.125 0 0 0 0 2.25 4.505 4.505 0 0 1 4.5 4.5c0 .714-.033 1.436-.1 2.144a1.126 1.126 0 0 0 1.014 1.231h.107a1.125 1.125 0 0 0 1.118-1.019c.074-.778.11-1.571.11-2.356a6.76 6.76 0 0 0-6.748-6.75m-3 3.397a1.125 1.125 0 0 0-1.5-1.677A6.76 6.76 0 0 0 5.52 12a11.26 11.26 0 0 1-1.417 5.472 1.127 1.127 0 0 0 1.97 1.096c1.115-2.01 1.7-4.27 1.698-6.568a4.5 4.5 0 0 1 1.5-3.353m.948 6.009a1.125 1.125 0 0 0-1.356.834 14.9 14.9 0 0 1-1.77 4.3 1.125 1.125 0 1 0 1.922 1.17 17.1 17.1 0 0 0 2.038-4.948 1.125 1.125 0 0 0-.834-1.356m7.193 2.257a1.127 1.127 0 0 0-1.372.806 23 23 0 0 1-.75 2.331 1.125 1.125 0 0 0 2.1.805q.484-1.26.825-2.566a1.126 1.126 0 0 0-.803-1.376m-5.14-15.413a10.51 10.51 0 0 0-10.5 10.448V12c0 .89-.159 1.774-.469 2.608a1.125 1.125 0 1 0 2.11.783 9.7 9.7 0 0 0 .609-3.338V12a8.25 8.25 0 0 1 16.5-.047V12c0 1.935-.212 3.865-.632 5.754a1.125 1.125 0 1 0 2.198.49c.452-2.033.681-4.11.684-6.193V12a10.51 10.51 0 0 0-10.5-10.501"/></svg>