<svg viewBox="0 0 24 24" xmlns="http://www.w3.org/2000/svg" aria-hidden="true" fill="currentColor"><path d="m22.545 5.954-4.5-4.5a1.127 1.127 0 0 0-1.594 1.594L17.905 4.5 15.75 6.656l-2.954-2.952a1.127 1.127 0 1 0-1.594 1.594l.33.327-7.608 7.61a1.86 1.86 0 0 0-.549 1.325v4.471l-1.92 1.923a1.127 1.127 0 1 0 1.593 1.594l1.92-1.923h4.475a1.86 1.86 0 0 0 1.325-.55l7.607-7.606.33.33a1.127 1.127 0 0 0 1.593-1.594L17.343 8.25l2.156-2.156 1.454 1.455a1.127 1.127 0 0 0 1.594-1.594zM9.28 18.375H5.624v-3.656l1.313-1.313 1.641 1.643a1.127 1.127 0 0 0 1.594-1.594L8.53 11.813l1.032-1.032 1.641 1.643a1.127 1.127 0 0 0 1.594-1.594l-1.642-1.642 1.97-1.97 3.655 3.657z"/></svg>