<svg viewBox="0 0 24 24" xmlns="http://www.w3.org/2000/svg" aria-hidden="true" fill="currentColor"><path d="m10.193 3.856 1.052 1.5.154.22-.23.139C8.957 7.039 7.493 8.365 6.74 9.687a8.5 8.5 0 0 0-1.056 3.565 3.6 3.6 0 0 1 1.643-.377c1.007 0 1.855.334 2.524 1.006.715.677 1.068 1.558 1.068 2.619 0 1.066-.377 1.966-1.13 2.682-.755.717-1.727 1.068-2.894 1.068-1.39 0-2.534-.508-3.409-1.524l-.007-.01C2.65 17.659 2.25 16.245 2.25 14.5c0-2.012.615-3.955 1.835-5.824 1.226-1.88 3.163-3.508 5.787-4.897l.194-.103zm10.46 0 1.052 1.5.154.22-.231.139c-2.212 1.324-3.676 2.65-4.429 3.972a8.5 8.5 0 0 0-1.056 3.565 3.6 3.6 0 0 1 1.644-.377c1.007 0 1.855.333 2.524 1.006l.13.13c.627.658.938 1.494.938 2.489 0 1.066-.377 1.966-1.13 2.682-.755.717-1.728 1.068-2.895 1.068-1.39 0-2.534-.508-3.409-1.524l-.007-.01c-.828-1.056-1.229-2.47-1.229-4.216 0-2.012.616-3.955 1.836-5.824 1.226-1.88 3.162-3.508 5.786-4.897l.195-.103z"/></svg>