<svg viewBox="0 0 24 24" xmlns="http://www.w3.org/2000/svg" aria-hidden="true" fill="currentColor"><g clip-path="url(#a)"><path d="M20.542 11.709a3 3 0 0 0 2.999-2.998 3 3 0 0 0-2.999-2.999 3 3 0 0 0-2.998 2.999 3 3 0 0 0 2.998 2.998m0-3.747a.749.749 0 1 1-.001 1.498.749.749 0 0 1 .001-1.498m-1.436 9.177c-.621 0-1.125.503-1.125 1.125a3.25 3.25 0 0 1-3.246 3.245 3.25 3.25 0 0 1-3.245-3.245 3.25 3.25 0 0 1 3.246-3.246 1.125 1.125 0 1 0 0-2.25 5.5 5.5 0 0 0-4.702 2.652 1.1 1.1 0 0 0-.48-.108H3.34l2.718-5.91a1.124 1.124 0 0 0-1.022-1.595h-.389l2.855-4.381 2.864 4.395a1.126 1.126 0 0 0 .18 2.236h1.886a1.125 1.125 0 0 0 .942-1.74L8.444.753a1.124 1.124 0 0 0-1.884 0L1.628 8.318a1.125 1.125 0 0 0 .942 1.739h.71L.562 15.966a1.124 1.124 0 0 0 1.022 1.595h4.623v2.643a1.125 1.125 0 1 0 2.25 0v-2.643h.829q-.046.346-.047.703a5.5 5.5 0 0 0 5.496 5.495 5.5 5.5 0 0 0 5.495-5.495c0-.622-.502-1.125-1.124-1.125"/><path d="M22.227 14.64h-3.675l.905-1.574a1.126 1.126 0 0 0-.362-1.504 7.96 7.96 0 0 0-9.446.535 1.126 1.126 0 0 0 1.431 1.735 5.71 5.71 0 0 1 5.846-.88l-1.294 2.253a1.125 1.125 0 0 0 .976 1.685h4.247l-.98 4.899a1.125 1.125 0 1 0 2.206.441l1.25-6.244a1.123 1.123 0 0 0-1.104-1.346"/></g><defs><clipPath id="a"><path d="M0 0h24v24H0z"/></clipPath></defs></svg>