<svg aria-hidden="true" xmlns="http://www.w3.org/2000/svg" version="1.1" viewBox="0 0 52 52"><path d="M44.385,7.615 C34.247,-2.522 17.753,-2.522 7.615,7.615 C-2.522,17.753 -2.522,34.247 7.615,44.385 C17.753,54.522 34.247,54.522 44.385,44.385 C54.522,34.247 54.522,17.753 44.385,7.615 L44.385,7.615 Z M33.425,36.253 L26,28.828 L18.222,36.607 C17.441,37.388 16.174,37.388 15.393,36.607 C14.612,35.826 14.612,34.559 15.393,33.778 L23.172,26 L15.747,18.575 C14.966,17.794 14.966,16.528 15.747,15.747 C16.528,14.966 17.794,14.966 18.575,15.747 L26,23.172 L33.071,16.101 C33.852,15.32 35.118,15.32 35.9,16.101 C36.681,16.882 36.681,18.148 35.9,18.929 L28.828,26 L36.253,33.425 C37.034,34.206 37.034,35.472 36.253,36.253 C35.472,37.034 34.206,37.034 33.425,36.253 L33.425,36.253 Z"></path></svg>
