<svg viewBox="0 0 24 24" xmlns="http://www.w3.org/2000/svg" aria-hidden="true" fill="currentColor"><path d="m17.75 10.333 2.731-2.571.016-.016a3 3 0 0 0-4.243-4.243c0 .005-.01.01-.016.016l-2.57 2.732-7.782-2.832a.75.75 0 0 0-.786.175l-2.25 2.25a.75.75 0 0 0 .114 1.154l5.99 3.993-1.39 1.384h-1.94a.75.75 0 0 0-.529.22l-2.25 2.25a.75.75 0 0 0 .249 1.226l3.451 1.38 1.379 3.446.005.015a.75.75 0 0 0 1.236.232l2.238-2.239a.75.75 0 0 0 .222-.53v-1.94l1.383-1.383 3.993 5.99a.75.75 0 0 0 1.154.114l2.25-2.25a.75.75 0 0 0 .175-.787zm-.007 9.115-3.993-5.989a.75.75 0 0 0-.55-.334h-.074a.75.75 0 0 0-.53.22l-2.25 2.25a.75.75 0 0 0-.221.53v1.94L8.899 19.29l-1.078-2.696a.75.75 0 0 0-.415-.415L4.712 15.1l1.224-1.226h1.939a.75.75 0 0 0 .53-.22l2.25-2.25a.75.75 0 0 0-.114-1.154L4.552 6.257l1.266-1.265L13.62 7.83a.75.75 0 0 0 .802-.187l2.9-3.085a1.5 1.5 0 0 1 2.122 2.121l-3.082 2.9a.75.75 0 0 0-.188.802l2.837 7.802z"/></svg>