<svg viewBox="0 0 24 24" xmlns="http://www.w3.org/2000/svg" aria-hidden="true" fill="currentColor"><path d="M6.75 10.122a.75.75 0 0 1 .75-.75H9v-1.5a.75.75 0 1 1 1.5 0v1.5H12a.75.75 0 0 1 0 1.5h-1.5v1.5a.75.75 0 0 1-1.5 0v-1.5H7.5a.75.75 0 0 1-.75-.75m16.5 0v6a1.5 1.5 0 0 1-1.5 1.5h-1.593a3 3 0 0 1-5.813 0H9.657a3 3 0 0 1-5.813 0H2.25a1.5 1.5 0 0 1-1.5-1.5v-10.5a1.5 1.5 0 0 1 1.5-1.5H16.5a.75.75 0 0 1 .75.75v.75h3.242a1.49 1.49 0 0 1 1.393.943l1.313 3.281a.8.8 0 0 1 .052.276m-6-3v2.25h4.142l-.9-2.25zm-15 9h1.594a3 3 0 0 1 5.813 0h4.687a3 3 0 0 1 1.406-1.846V5.622H2.25zm6 .75a1.5 1.5 0 1 0-3 0 1.5 1.5 0 0 0 3 0m10.5 0a1.5 1.5 0 1 0-3 0 1.5 1.5 0 0 0 3 0m3-.75v-5.25h-4.5v3a3.005 3.005 0 0 1 2.907 2.25z"/></svg>