<svg width="24" height="24" viewBox="0 0 24 24" fill="none" xmlns="http://www.w3.org/2000/svg">
<path d="M20.875 12C20.8752 14.4648 19.9048 16.8305 18.1737 18.5851C16.4426 20.3397 14.0902 21.342 11.6256 21.375H11.5C9.10663 21.3801 6.80309 20.4639 5.06687 18.8166C4.84994 18.6117 4.72327 18.329 4.71474 18.0308C4.70622 17.7325 4.81653 17.443 5.02141 17.2261C5.22629 17.0092 5.50895 16.8825 5.80722 16.874C6.10549 16.8654 6.39494 16.9758 6.61188 17.1806C7.63023 18.1421 8.90933 18.782 10.2893 19.0206C11.6694 19.2592 13.0891 19.0858 14.3711 18.522C15.6531 17.9583 16.7406 17.0292 17.4976 15.851C18.2546 14.6727 18.6475 13.2975 18.6274 11.8971C18.6072 10.4968 18.1748 9.13345 17.3842 7.97747C16.5935 6.8215 15.4798 5.92415 14.1821 5.39757C12.8843 4.871 11.4602 4.73854 10.0876 5.01676C8.71507 5.29499 7.45493 5.97154 6.46469 6.96189C6.4525 6.97408 6.44125 6.98533 6.42813 6.99658L4.64594 8.62501H6.25C6.54837 8.62501 6.83452 8.74354 7.0455 8.95452C7.25647 9.1655 7.375 9.45164 7.375 9.75001C7.375 10.0484 7.25647 10.3345 7.0455 10.5455C6.83452 10.7565 6.54837 10.875 6.25 10.875H1.75C1.45163 10.875 1.16548 10.7565 0.954505 10.5455C0.743526 10.3345 0.625 10.0484 0.625 9.75001V5.25001C0.625 4.95165 0.743526 4.6655 0.954505 4.45452C1.16548 4.24354 1.45163 4.12501 1.75 4.12501C2.04837 4.12501 2.33452 4.24354 2.5455 4.45452C2.75647 4.6655 2.875 4.95165 2.875 5.25001V7.19251L4.88875 5.34939C6.20209 4.0431 7.87297 3.15516 9.6905 2.79763C11.508 2.4401 13.3907 2.62901 15.101 3.34051C16.8113 4.05202 18.2724 5.25423 19.3001 6.79541C20.3277 8.33659 20.8757 10.1477 20.875 12Z" fill="black"/>
</svg>
