<svg width="24" height="24" viewBox="0 0 24 24" xmlns="http://www.w3.org/2000/svg">
<path d="M21 11.9999C21.0002 14.366 20.0686 16.6371 18.4069 18.3215C16.7451 20.0059 14.4869 20.9681 12.1209 20.9999H12C9.70147 21.0056 7.48901 20.126 5.82187 18.5436C5.75028 18.4759 5.69273 18.3948 5.6525 18.3048C5.61227 18.2149 5.59016 18.1179 5.58741 18.0194C5.58467 17.9209 5.60136 17.8228 5.63652 17.7307C5.67168 17.6387 5.72463 17.5544 5.79234 17.4829C5.86006 17.4113 5.94121 17.3537 6.03116 17.3135C6.12112 17.2733 6.21812 17.2511 6.31662 17.2484C6.41512 17.2457 6.5132 17.2623 6.60525 17.2975C6.69731 17.3327 6.78153 17.3856 6.85312 17.4533C7.92544 18.4646 9.27195 19.1375 10.7245 19.3879C12.177 19.6384 13.6711 19.4553 15.0202 18.8615C16.3692 18.2678 17.5134 17.2897 18.3098 16.0494C19.1062 14.8091 19.5195 13.3617 19.4981 11.8879C19.4766 10.4141 19.0214 8.9793 18.1892 7.76273C17.3571 6.54616 16.1849 5.60175 14.8192 5.04748C13.4534 4.49322 11.9546 4.35367 10.51 4.64628C9.06537 4.93888 7.739 5.65066 6.69656 6.6927C6.6889 6.70099 6.68076 6.70881 6.67219 6.71614L4.18031 8.99989H6.75C6.94891 8.99989 7.13968 9.07891 7.28033 9.21956C7.42098 9.36021 7.5 9.55098 7.5 9.74989C7.5 9.9488 7.42098 10.1396 7.28033 10.2802C7.13968 10.4209 6.94891 10.4999 6.75 10.4999H2.25C2.05109 10.4999 1.86032 10.4209 1.71967 10.2802C1.57902 10.1396 1.5 9.9488 1.5 9.74989V5.24989C1.5 5.05098 1.57902 4.86021 1.71967 4.71956C1.86032 4.57891 2.05109 4.49989 2.25 4.49989C2.44891 4.49989 2.63968 4.57891 2.78033 4.71956C2.92098 4.86021 3 5.05098 3 5.24989V8.04364L5.64844 5.62489C6.90842 4.3698 8.512 3.51614 10.2567 3.17167C12.0015 2.8272 13.8092 3.00736 15.4516 3.68941C17.0941 4.37146 18.4976 5.52482 19.4851 7.0039C20.4726 8.48298 20.9997 10.2215 21 11.9999Z"/>
</svg>
