<svg width="24" height="24" viewBox="0 0 24 24" xmlns="http://www.w3.org/2000/svg">
<path d="M21.5306 15.5306L17.0306 20.0306C16.961 20.1004 16.8783 20.1557 16.7872 20.1934C16.6962 20.2312 16.5986 20.2506 16.5 20.2506C16.4014 20.2506 16.3038 20.2312 16.2128 20.1934C16.1217 20.1557 16.039 20.1004 15.9694 20.0306L11.4694 15.5306C11.3286 15.3899 11.2496 15.199 11.2496 15C11.2496 14.801 11.3286 14.6101 11.4694 14.4694C11.6101 14.3286 11.801 14.2496 12 14.2496C12.199 14.2496 12.3899 14.3286 12.5306 14.4694L15.75 17.6897V6.75H3C2.80109 6.75 2.61032 6.67098 2.46967 6.53033C2.32902 6.38968 2.25 6.19891 2.25 6C2.25 5.80109 2.32902 5.61032 2.46967 5.46967C2.61032 5.32902 2.80109 5.25 3 5.25H16.5C16.6989 5.25 16.8897 5.32902 17.0303 5.46967C17.171 5.61032 17.25 5.80109 17.25 6V17.6897L20.4694 14.4694C20.6101 14.3286 20.801 14.2496 21 14.2496C21.199 14.2496 21.3899 14.3286 21.5306 14.4694C21.6714 14.6101 21.7504 14.801 21.7504 15C21.7504 15.199 21.6714 15.3899 21.5306 15.5306Z"/>
</svg>
