<svg width="24" height="24" viewBox="0 0 24 24" xmlns="http://www.w3.org/2000/svg">
<path d="M21.5459 17.2959L17.0459 21.7959C16.8346 22.0073 16.5479 22.126 16.2491 22.126C15.9502 22.126 15.6635 22.0073 15.4522 21.7959C15.2408 21.5846 15.1221 21.2979 15.1221 20.9991C15.1221 20.7002 15.2408 20.4135 15.4522 20.2022L18.0312 17.625H7.25C6.95163 17.625 6.66548 17.5065 6.4545 17.2955C6.24353 17.0845 6.125 16.7984 6.125 16.5V3C6.125 2.70163 6.24353 2.41548 6.4545 2.2045C6.66548 1.99353 6.95163 1.875 7.25 1.875C7.54837 1.875 7.83452 1.99353 8.0455 2.2045C8.25647 2.41548 8.375 2.70163 8.375 3V15.375H18.0312L15.4513 12.7959C15.3466 12.6913 15.2636 12.5671 15.207 12.4303C15.1503 12.2936 15.1212 12.1471 15.1212 11.9991C15.1212 11.8511 15.1503 11.7045 15.207 11.5678C15.2636 11.4311 15.3466 11.3068 15.4513 11.2022C15.5559 11.0975 15.6801 11.0145 15.8169 10.9579C15.9536 10.9013 16.1001 10.8721 16.2481 10.8721C16.3961 10.8721 16.5427 10.9013 16.6794 10.9579C16.8161 11.0145 16.9404 11.0975 17.045 11.2022L21.545 15.7022C21.6499 15.8066 21.7332 15.9308 21.7901 16.0675C21.847 16.2042 21.8763 16.3508 21.8764 16.4989C21.8764 16.6469 21.8473 16.7936 21.7906 16.9303C21.7339 17.0671 21.6508 17.1914 21.5459 17.2959Z"/>
</svg>
