<svg width="24" height="24" viewBox="0 0 24 24" xmlns="http://www.w3.org/2000/svg">
<path d="M21.2806 12.5307L14.5306 19.2807C14.3899 19.4214 14.199 19.5005 14 19.5005C13.801 19.5005 13.6101 19.4214 13.4694 19.2807C13.3286 19.1399 13.2496 18.9491 13.2496 18.7501C13.2496 18.551 13.3286 18.3602 13.4694 18.2194L18.9397 12.7501H4.25C4.05109 12.7501 3.86032 12.671 3.71967 12.5304C3.57902 12.3897 3.5 12.199 3.5 12.0001C3.5 11.8011 3.57902 11.6104 3.71967 11.4697C3.86032 11.3291 4.05109 11.2501 4.25 11.2501H18.9397L13.4694 5.78068C13.3286 5.63995 13.2496 5.44907 13.2496 5.25005C13.2496 5.05103 13.3286 4.86016 13.4694 4.71943C13.6101 4.5787 13.801 4.49963 14 4.49963C14.199 4.49963 14.3899 4.5787 14.5306 4.71943L21.2806 11.4694C21.3504 11.5391 21.4057 11.6218 21.4434 11.7128C21.4812 11.8039 21.5006 11.9015 21.5006 12.0001C21.5006 12.0986 21.4812 12.1962 21.4434 12.2873C21.4057 12.3783 21.3504 12.461 21.2806 12.5307Z"/>
</svg>
