<svg width="24" height="24" viewBox="0 0 24 24" xmlns="http://www.w3.org/2000/svg">
<path d="M21.2806 17.0306L16.7806 21.5306C16.6399 21.6714 16.449 21.7504 16.25 21.7504C16.051 21.7504 15.8601 21.6714 15.7194 21.5306C15.5786 21.3899 15.4996 21.199 15.4996 21C15.4996 20.801 15.5786 20.6101 15.7194 20.4694L18.9397 17.25H7.25C7.05109 17.25 6.86032 17.171 6.71967 17.0303C6.57902 16.8897 6.5 16.6989 6.5 16.5V3C6.5 2.80109 6.57902 2.61032 6.71967 2.46967C6.86032 2.32902 7.05109 2.25 7.25 2.25C7.44891 2.25 7.63968 2.32902 7.78033 2.46967C7.92098 2.61032 8 2.80109 8 3V15.75H18.9397L15.7194 12.5306C15.5786 12.3899 15.4996 12.199 15.4996 12C15.4996 11.801 15.5786 11.6101 15.7194 11.4694C15.8601 11.3286 16.051 11.2496 16.25 11.2496C16.449 11.2496 16.6399 11.3286 16.7806 11.4694L21.2806 15.9694C21.3504 16.039 21.4057 16.1217 21.4434 16.2128C21.4812 16.3038 21.5006 16.4014 21.5006 16.5C21.5006 16.5986 21.4812 16.6962 21.4434 16.7872C21.4057 16.8783 21.3504 16.961 21.2806 17.0306Z"/>
</svg>
