<svg width="24" height="24" viewBox="0 0 24 24" xmlns="http://www.w3.org/2000/svg">
<path d="M19.2806 11.0307C19.211 11.1005 19.1283 11.1558 19.0372 11.1935C18.9462 11.2313 18.8486 11.2507 18.75 11.2507C18.6514 11.2507 18.5538 11.2313 18.4628 11.1935C18.3718 11.1558 18.289 11.1005 18.2194 11.0307L12.75 5.56041V20.2501C12.75 20.449 12.671 20.6398 12.5303 20.7804C12.3897 20.9211 12.1989 21.0001 12 21.0001C11.8011 21.0001 11.6103 20.9211 11.4697 20.7804C11.329 20.6398 11.25 20.449 11.25 20.2501V5.56041L5.78063 11.0307C5.6399 11.1715 5.44903 11.2505 5.25001 11.2505C5.05098 11.2505 4.86011 11.1715 4.71938 11.0307C4.57865 10.89 4.49959 10.6991 4.49959 10.5001C4.49959 10.3011 4.57865 10.1102 4.71938 9.96948L11.4694 3.21948C11.539 3.14974 11.6218 3.09443 11.7128 3.05668C11.8038 3.01894 11.9014 2.99951 12 2.99951C12.0986 2.99951 12.1962 3.01894 12.2872 3.05668C12.3783 3.09443 12.461 3.14974 12.5306 3.21948L19.2806 9.96948C19.3504 10.0391 19.4057 10.1218 19.4434 10.2129C19.4812 10.3039 19.5006 10.4015 19.5006 10.5001C19.5006 10.5987 19.4812 10.6963 19.4434 10.7873C19.4057 10.8784 19.3504 10.9611 19.2806 11.0307Z"/>
</svg>
