<svg viewBox="0 0 24 24" xmlns="http://www.w3.org/2000/svg" aria-hidden="true" fill="currentColor"><path d="M21 4.5H3c-.827 0-1.5.673-1.5 1.5v12c0 .826.673 1.5 1.5 1.5h18c.827 0 1.5-.674 1.5-1.5V6c0-.827-.673-1.5-1.5-1.5M21 18H3V6h18z"/><path d="M4.729 15.763a.75.75 0 0 0 1.006-.336l.56-1.12h3.678l.56 1.12a.75.75 0 0 0 1.341-.671l-3.07-6.14a.75.75 0 0 0-1.342 0l-2.292 4.58-.006.015-.773 1.545a.75.75 0 0 0 .336 1.006zm3.406-5.134 1.09 2.179h-2.18zm6.02 5.167h.768c2.995 0 4.644-1.34 4.644-3.774 0-2.22-1.91-3.772-4.644-3.772h-.768a.75.75 0 0 0-.75.75v6.046c0 .415.336.75.75.75m.75-6.046h.018c1.88 0 3.144.913 3.144 2.272 0 .623 0 2.274-3.144 2.274h-.018z"/></svg>