<svg width="24" height="24" viewBox="0 0 24 24" xmlns="http://www.w3.org/2000/svg">
<path d="M8.62494 13.5005C8.32827 13.5005 8.03826 13.4125 7.79159 13.2477C7.54491 13.0829 7.35266 12.8486 7.23912 12.5745C7.12559 12.3004 7.09589 11.9988 7.15377 11.7079C7.21164 11.4169 7.35451 11.1496 7.56428 10.9398C7.77406 10.7301 8.04134 10.5872 8.33231 10.5293C8.62328 10.4714 8.92488 10.5011 9.19897 10.6147C9.47306 10.7282 9.70733 10.9205 9.87215 11.1671C10.037 11.4138 10.1249 11.7038 10.1249 12.0005C10.1249 12.3983 9.96691 12.7798 9.6856 13.0611C9.4043 13.3425 9.02277 13.5005 8.62494 13.5005ZM15.3749 10.5005C15.0783 10.5005 14.7883 10.5885 14.5416 10.7533C14.2949 10.9181 14.1027 11.1524 13.9891 11.4265C13.8756 11.7006 13.8459 12.0022 13.9038 12.2931C13.9616 12.5841 14.1045 12.8514 14.3143 13.0611C14.5241 13.2709 14.7913 13.4138 15.0823 13.4717C15.3733 13.5295 15.6749 13.4998 15.949 13.3863C16.2231 13.2728 16.4573 13.0805 16.6221 12.8338C16.787 12.5872 16.8749 12.2972 16.8749 12.0005C16.8749 11.6027 16.7169 11.2211 16.4356 10.9398C16.1543 10.6585 15.7728 10.5005 15.3749 10.5005ZM14.0249 15.1739C13.4168 15.5509 12.7155 15.7506 11.9999 15.7506C11.2844 15.7506 10.5831 15.5509 9.97494 15.1739C9.84997 15.0932 9.71023 15.038 9.56381 15.0117C9.41738 14.9853 9.26718 14.9883 9.1219 15.0203C8.97661 15.0524 8.83914 15.113 8.71743 15.1986C8.59572 15.2841 8.49219 15.393 8.41283 15.5188C8.33348 15.6447 8.27987 15.785 8.25513 15.9317C8.23038 16.0784 8.23498 16.2286 8.26865 16.3735C8.30233 16.5184 8.36442 16.6552 8.45132 16.776C8.53823 16.8968 8.64822 16.9991 8.77494 17.0771C9.74239 17.6805 10.8597 18.0004 11.9999 18.0004C13.1402 18.0004 14.2575 17.6805 15.2249 17.0771C15.3517 16.9991 15.4617 16.8968 15.5486 16.776C15.6355 16.6552 15.6976 16.5184 15.7312 16.3735C15.7649 16.2286 15.7695 16.0784 15.7448 15.9317C15.72 15.785 15.6664 15.6447 15.5871 15.5188C15.5077 15.393 15.4042 15.2841 15.2825 15.1986C15.1607 15.113 15.0233 15.0524 14.878 15.0203C14.7327 14.9883 14.5825 14.9853 14.4361 15.0117C14.2897 15.038 14.1499 15.0932 14.0249 15.1739ZM22.1249 12.0005C22.1249 14.003 21.5311 15.9606 20.4186 17.6256C19.306 19.2907 17.7247 20.5884 15.8746 21.3548C14.0245 22.1211 11.9887 22.3216 10.0247 21.9309C8.0606 21.5403 6.25649 20.576 4.84049 19.1599C3.42448 17.7439 2.46017 15.9398 2.06949 13.9758C1.67882 12.0117 1.87933 9.97592 2.64566 8.12582C3.412 6.27572 4.70975 4.69441 6.37479 3.58186C8.03984 2.46931 9.99741 1.87549 11.9999 1.87549C14.6843 1.87847 17.258 2.94616 19.1561 4.84432C21.0543 6.74248 22.122 9.31609 22.1249 12.0005ZM19.8749 12.0005C19.8724 9.94538 19.0673 7.97253 17.6313 6.50237C16.1953 5.03221 14.2419 4.18101 12.1874 4.13018C11.3006 5.46143 11.2499 6.68768 11.2499 6.75518C11.2506 6.95409 11.3302 7.14461 11.4713 7.28482C11.5411 7.35425 11.624 7.40923 11.7151 7.44664C11.8062 7.48405 11.9038 7.50314 12.0023 7.50283C12.1008 7.50252 12.1982 7.48282 12.2891 7.44485C12.38 7.40687 12.4625 7.35137 12.5319 7.2815C12.6014 7.21164 12.6563 7.12879 12.6938 7.03768C12.7312 6.94657 12.7503 6.84898 12.7499 6.75049C12.7499 6.45212 12.8685 6.16597 13.0794 5.95499C13.2904 5.74401 13.5766 5.62549 13.8749 5.62549C14.1733 5.62549 14.4595 5.74401 14.6704 5.95499C14.8814 6.16597 14.9999 6.45212 14.9999 6.75049C14.9999 7.54614 14.6839 8.3092 14.1213 8.87181C13.5587 9.43442 12.7956 9.75049 11.9999 9.75049C11.2043 9.75049 10.4412 9.43442 9.87862 8.87181C9.31601 8.3092 8.99994 7.54614 8.99994 6.75049C8.99994 6.69143 9.00932 5.76799 9.46869 4.54549C8.09749 5.01093 6.88117 5.84543 5.95344 6.95725C5.02572 8.06907 4.4225 9.41516 4.21011 10.8475C3.99772 12.2799 4.18438 13.7431 4.74958 15.0763C5.31477 16.4095 6.23661 17.561 7.41375 18.4043C8.59089 19.2476 9.97776 19.7501 11.4219 19.8563C12.866 19.9626 14.3115 19.6687 15.5994 19.0068C16.8874 18.3449 17.9679 17.3408 18.7222 16.1047C19.4765 14.8686 19.8753 13.4485 19.8749 12.0005Z"/>
</svg>
