<svg viewBox="0 0 24 24" xmlns="http://www.w3.org/2000/svg" aria-hidden="true" fill="currentColor" height="24px" width="24px"><path d="M8.625 13.5a1.5 1.5 0 1 1 0-3 1.5 1.5 0 0 1 0 3m6.75-3a1.5 1.5 0 1 0 0 3.001 1.5 1.5 0 0 0 0-3m-1.35 4.674a3.84 3.84 0 0 1-4.05 0 1.124 1.124 0 1 0-1.2 1.903 6.09 6.09 0 0 0 6.45 0 1.124 1.124 0 1 0-1.2-1.903m8.1-3.173A10.125 10.125 0 1 1 12 1.875 10.136 10.136 0 0 1 22.125 12m-2.25 0a7.88 7.88 0 0 0-7.688-7.87c-.886 1.33-.937 2.557-.937 2.624a.75.75 0 0 0 1.5-.005 1.125 1.125 0 0 1 2.25 0 3 3 0 1 1-6 0c0-.059.01-.982.469-2.205a7.875 7.875 0 1 0 10.406 7.456"/></svg>