<svg viewBox="0 0 24 24" xmlns="http://www.w3.org/2000/svg" aria-hidden="true" fill="currentColor"><path d="M15.375 2.25h-.75a1.5 1.5 0 0 0-1.5 1.5V9H5.55a3.756 3.756 0 0 0-3.675-3 .75.75 0 0 0 0 1.5 2.25 2.25 0 0 1 2.25 2.25 7.51 7.51 0 0 0 7.5 7.5h3.75a7.5 7.5 0 0 0 0-15M21.326 9h-5.313l3.925-3.14A6 6 0 0 1 21.326 9m-5.951-5.25a5.96 5.96 0 0 1 3.44 1.088l-4.19 3.351V3.75zm0 12h-3.75a6.01 6.01 0 0 1-5.953-5.25h15.656a6.01 6.01 0 0 1-5.953 5.25m-5.25 4.5a1.5 1.5 0 1 1-3 0 1.5 1.5 0 0 1 3 0m9.75 0a1.5 1.5 0 1 1-3 0 1.5 1.5 0 0 1 3 0"/></svg>