<svg viewBox="0 0 24 24" xmlns="http://www.w3.org/2000/svg" aria-hidden="true" fill="currentColor" height="24px" width="24px"><path d="M14.771 1.875h-.75a1.875 1.875 0 0 0-1.875 1.875v4.875H5.223A3.76 3.76 0 0 0 1.646 6a1.125 1.125 0 0 0 0 2.25 1.5 1.5 0 0 1 1.5 1.5 7.883 7.883 0 0 0 7.875 7.875h3.75a7.875 7.875 0 0 0 0-15.75m4.506 4.511c.497.663.84 1.427 1.006 2.239h-3.805zM14.77 4.125c.982 0 1.946.259 2.797.75l-3.172 2.531V4.125zm0 11.25h-3.75a5.634 5.634 0 0 1-5.512-4.5h14.774a5.635 5.635 0 0 1-5.512 4.5M9.896 20.25a1.875 1.875 0 1 1-3.75 0 1.875 1.875 0 0 1 3.75 0m9.75 0a1.875 1.875 0 1 1-3.75 0 1.875 1.875 0 0 1 3.75 0"/></svg>