<svg width="24" height="24" viewBox="0 0 24 24" xmlns="http://www.w3.org/2000/svg">
<path d="M8.625 13.125C8.4025 13.125 8.18499 13.059 7.99999 12.9354C7.81498 12.8118 7.67079 12.6361 7.58564 12.4305C7.50049 12.225 7.47821 11.9988 7.52162 11.7805C7.56503 11.5623 7.67217 11.3618 7.82951 11.2045C7.98684 11.0472 8.1873 10.94 8.40553 10.8966C8.62376 10.8532 8.84996 10.8755 9.05552 10.9606C9.26109 11.0458 9.43679 11.19 9.56041 11.375C9.68402 11.56 9.75 11.7775 9.75 12C9.75 12.2984 9.63148 12.5845 9.4205 12.7955C9.20952 13.0065 8.92337 13.125 8.625 13.125ZM15.375 10.875C15.1525 10.875 14.935 10.941 14.75 11.0646C14.565 11.1882 14.4208 11.3639 14.3356 11.5695C14.2505 11.775 14.2282 12.0012 14.2716 12.2195C14.315 12.4377 14.4222 12.6382 14.5795 12.7955C14.7368 12.9528 14.9373 13.06 15.1555 13.1034C15.3738 13.1468 15.6 13.1245 15.8055 13.0394C16.0111 12.9542 16.1868 12.81 16.3104 12.625C16.434 12.44 16.5 12.2225 16.5 12C16.5 11.7016 16.3815 11.4155 16.1705 11.2045C15.9595 10.9935 15.6734 10.875 15.375 10.875ZM14.2247 15.1153C13.5567 15.5299 12.7862 15.7496 12 15.7496C11.2138 15.7496 10.4433 15.5299 9.77532 15.1153C9.60699 15.0091 9.40338 14.9742 9.20928 15.0181C9.01518 15.0621 8.84649 15.1814 8.74032 15.3497C8.63415 15.518 8.5992 15.7216 8.64315 15.9157C8.6871 16.1098 8.80636 16.2785 8.97469 16.3847C9.88233 16.9505 10.9304 17.2504 12 17.2504C13.0696 17.2504 14.1177 16.9505 15.0253 16.3847C15.1936 16.2785 15.3129 16.1098 15.3569 15.9157C15.4008 15.7216 15.3659 15.518 15.2597 15.3497C15.1535 15.1814 14.9848 15.0621 14.7907 15.0181C14.5966 14.9742 14.393 15.0091 14.2247 15.1153ZM21.75 12C21.75 13.9284 21.1782 15.8134 20.1068 17.4168C19.0355 19.0202 17.5127 20.2699 15.7312 21.0078C13.9496 21.7458 11.9892 21.9389 10.0979 21.5627C8.20656 21.1865 6.46928 20.2579 5.10571 18.8943C3.74215 17.5307 2.81355 15.7934 2.43735 13.9021C2.06114 12.0108 2.25422 10.0504 2.99218 8.26884C3.73013 6.48726 4.97982 4.96451 6.58319 3.89317C8.18657 2.82183 10.0716 2.25 12 2.25C14.585 2.25273 17.0634 3.28084 18.8913 5.10872C20.7192 6.93661 21.7473 9.41498 21.75 12ZM20.25 12C20.2474 9.87623 19.4269 7.83506 17.9589 6.30036C16.4909 4.76565 14.4881 3.85533 12.3666 3.75844C11.28 5.28562 11.25 6.73875 11.25 6.75C11.25 6.94891 11.329 7.13968 11.4697 7.28033C11.6103 7.42098 11.8011 7.5 12 7.5C12.1989 7.5 12.3897 7.42098 12.5303 7.28033C12.671 7.13968 12.75 6.94891 12.75 6.75C12.75 6.55109 12.829 6.36032 12.9697 6.21967C13.1103 6.07902 13.3011 6 13.5 6C13.6989 6 13.8897 6.07902 14.0303 6.21967C14.171 6.36032 14.25 6.55109 14.25 6.75C14.25 7.34674 14.013 7.91903 13.591 8.34099C13.169 8.76295 12.5967 9 12 9C11.4033 9 10.831 8.76295 10.409 8.34099C9.98706 7.91903 9.75 7.34674 9.75 6.75C9.75 6.68156 9.76219 5.40937 10.5431 3.87844C8.99846 4.15557 7.56488 4.86752 6.41061 5.93074C5.25633 6.99396 4.42926 8.36435 4.02643 9.8811C3.6236 11.3978 3.66173 12.998 4.13635 14.4939C4.61097 15.9897 5.50238 17.3191 6.70599 18.3262C7.9096 19.3332 9.37546 19.9761 10.9316 20.1793C12.4877 20.3825 14.0695 20.1377 15.4914 19.4736C16.9132 18.8095 18.1162 17.7536 18.9591 16.4298C19.8019 15.106 20.2498 13.5693 20.25 12Z"/>
</svg>
