<svg viewBox="0 0 24 24" xmlns="http://www.w3.org/2000/svg" aria-hidden="true" fill="currentColor"><path d="M22.503 19.5h-.75v-5.76l.14.195a.749.749 0 0 0 1.37-.302.75.75 0 0 0-.152-.57l-3.75-5.25a.8.8 0 0 0-.187-.181l-6.327-4.373-.01-.006a1.5 1.5 0 0 0-1.665 0l-.01.006-6.336 4.374a.8.8 0 0 0-.187.182l-3.75 5.25a.75.75 0 1 0 1.218.872l.146-.196V19.5h-.75a.75.75 0 1 0 0 1.5h21a.75.75 0 1 0 0-1.5m-18.75-7.86 2.034-2.848L12.003 4.5l6.215 4.291 2.035 2.85V19.5h-2.25v-6.75a.75.75 0 0 0-.75-.75h-10.5a.75.75 0 0 0-.75.75v6.75h-2.25zm8.25 3.938L9.097 13.5h5.812zm4.5-1.37v4.585l-3.21-2.293zm-5.79 2.292-3.21 2.293v-4.586zm1.29.921 2.906 2.079H9.097zM9.753 9.75a.75.75 0 0 1 .75-.75h3a.75.75 0 1 1 0 1.5h-3a.75.75 0 0 1-.75-.75"/></svg>