<svg width="24" height="24" viewBox="0 0 24 24" fill="none" xmlns="http://www.w3.org/2000/svg">
<path d="M12 1.87549C9.99747 1.87549 8.0399 2.46931 6.37486 3.58186C4.70981 4.69441 3.41206 6.27572 2.64572 8.12582C1.87939 9.97592 1.67888 12.0117 2.06955 13.9758C2.46023 15.9398 3.42454 17.7439 4.84055 19.1599C6.25656 20.576 8.06066 21.5403 10.0247 21.9309C11.9888 22.3216 14.0246 22.1211 15.8747 21.3548C17.7248 20.5884 19.3061 19.2907 20.4186 17.6256C21.5312 15.9606 22.125 14.003 22.125 12.0005C22.122 9.31609 21.0543 6.74248 19.1562 4.84432C17.258 2.94616 14.6844 1.87847 12 1.87549ZM7.21875 18.2499C7.51307 17.8735 7.78061 17.4769 8.01938 17.063C8.09902 16.9349 8.15211 16.7922 8.17547 16.6432C8.19884 16.4942 8.19201 16.342 8.15539 16.1957C8.11877 16.0494 8.05311 15.912 7.96232 15.7915C7.87152 15.6711 7.75744 15.5702 7.62685 15.4948C7.49627 15.4193 7.35185 15.3709 7.20218 15.3524C7.05251 15.3339 6.90064 15.3456 6.75561 15.387C6.61058 15.4283 6.47534 15.4984 6.35794 15.5931C6.24053 15.6877 6.14336 15.805 6.07219 15.938C5.9351 16.1728 5.78583 16.4003 5.625 16.6196C4.64828 15.2775 4.12212 13.6603 4.12212 12.0005C4.12212 10.3406 4.64828 8.72349 5.625 7.38143C5.78583 7.60067 5.9351 7.82817 6.07219 8.06299C6.14336 8.19595 6.24053 8.31325 6.35794 8.40791C6.47534 8.50257 6.61058 8.57265 6.75561 8.614C6.90064 8.65535 7.05251 8.66712 7.20218 8.6486C7.35185 8.63009 7.49627 8.58167 7.62685 8.50622C7.75744 8.43077 7.87152 8.32984 7.96232 8.20943C8.05311 8.08901 8.11877 7.95157 8.15539 7.80527C8.19201 7.65897 8.19884 7.50681 8.17547 7.35782C8.15211 7.20883 8.09902 7.06605 8.01938 6.93799C7.78061 6.52412 7.51307 6.12752 7.21875 5.75111C8.5908 4.69699 10.2726 4.12553 12.0028 4.12553C13.733 4.12553 15.4148 4.69699 16.7869 5.75111C16.4906 6.12734 16.2212 6.52394 15.9806 6.93799C15.901 7.06605 15.8479 7.20883 15.8245 7.35782C15.8012 7.50681 15.808 7.65897 15.8446 7.80527C15.8812 7.95157 15.9469 8.08901 16.0377 8.20943C16.1285 8.32984 16.2426 8.43077 16.3732 8.50622C16.5037 8.58167 16.6482 8.63009 16.7978 8.6486C16.9475 8.66712 17.0994 8.65535 17.2444 8.614C17.3894 8.57265 17.5247 8.50257 17.6421 8.40791C17.7595 8.31325 17.8567 8.19595 17.9278 8.06299C18.0649 7.82817 18.2142 7.60067 18.375 7.38143C19.3517 8.72349 19.8779 10.3406 19.8779 12.0005C19.8779 13.6603 19.3517 15.2775 18.375 16.6196C18.2151 16.3999 18.0668 16.1721 17.9306 15.9371C17.8595 15.8041 17.7623 15.6868 17.6449 15.5921C17.5275 15.4975 17.3922 15.4274 17.2472 15.386C17.1022 15.3447 16.9503 15.3329 16.8006 15.3514C16.651 15.37 16.5066 15.4184 16.376 15.4938C16.2454 15.5693 16.1313 15.6702 16.0405 15.7906C15.9497 15.911 15.884 16.0485 15.8474 16.1948C15.8108 16.3411 15.804 16.4932 15.8273 16.6422C15.8507 16.7912 15.9038 16.934 15.9834 17.0621C16.2213 17.4762 16.4879 17.8731 16.7813 18.2499C15.4092 19.304 13.7274 19.8754 11.9972 19.8754C10.267 19.8754 8.58518 19.304 7.21313 18.2499H7.21875ZM9.3 10.7367C9.35086 11.1561 9.37591 11.5781 9.375 12.0005C9.37498 12.4229 9.34899 12.845 9.29719 13.2642C9.26337 13.5363 9.13134 13.7867 8.9259 13.9684C8.72046 14.15 8.45577 14.2503 8.18157 14.2505C8.13457 14.2504 8.08761 14.2476 8.04094 14.2421C7.74496 14.2051 7.47579 14.052 7.2926 13.8166C7.10942 13.5812 7.02721 13.2827 7.06407 12.9867C7.10458 12.6595 7.12493 12.3302 7.125 12.0005C7.12493 11.6708 7.10458 11.3414 7.06407 11.0142C7.0456 10.8676 7.05619 10.7188 7.09525 10.5762C7.1343 10.4337 7.20104 10.3003 7.29166 10.1835C7.38229 10.0668 7.49502 9.96903 7.62342 9.89586C7.75182 9.82269 7.89338 9.77552 8.04 9.75705C8.18663 9.73858 8.33546 9.74918 8.478 9.78823C8.62053 9.82728 8.75398 9.89402 8.87072 9.98465C8.98746 10.0753 9.08521 10.188 9.15838 10.3164C9.23156 10.4448 9.27872 10.5864 9.29719 10.733L9.3 10.7367ZM15.9619 14.2421C15.9152 14.2476 15.8683 14.2504 15.8213 14.2505C15.547 14.2503 15.2824 14.15 15.0769 13.9684C14.8715 13.7867 14.7394 13.5363 14.7056 13.2642C14.6016 12.4237 14.6016 11.5735 14.7056 10.733C14.7241 10.5864 14.7713 10.4448 14.8444 10.3164C14.9176 10.188 15.0154 10.0753 15.1321 9.98465C15.2488 9.89402 15.3823 9.82728 15.5248 9.78823C15.6674 9.74918 15.8162 9.73858 15.9628 9.75705C16.1094 9.77552 16.251 9.82269 16.3794 9.89586C16.5078 9.96903 16.6205 10.0668 16.7112 10.1835C16.8018 10.3003 16.8685 10.4337 16.9076 10.5762C16.9466 10.7188 16.9572 10.8676 16.9388 11.0142C16.8578 11.668 16.8578 12.3292 16.9388 12.983C16.9575 13.13 16.947 13.2794 16.9079 13.4224C16.8687 13.5654 16.8017 13.6992 16.7107 13.8162C16.6196 13.9332 16.5064 14.0311 16.3774 14.1041C16.2484 14.1772 16.1062 14.2241 15.9591 14.2421H15.9619Z" fill="black"/>
</svg>
