<svg width="24" height="24" viewBox="0 0 24 24" xmlns="http://www.w3.org/2000/svg">
<path d="M21.5 18C21.5 18.1989 21.421 18.3897 21.2803 18.5303C21.1397 18.671 20.9489 18.75 20.75 18.75C20.5511 18.75 20.3603 18.671 20.2197 18.5303C20.079 18.3897 20 18.1989 20 18C20 10.5562 13.9438 4.5 6.5 4.5C6.30109 4.5 6.11032 4.42098 5.96967 4.28033C5.82902 4.13968 5.75 3.94891 5.75 3.75C5.75 3.55109 5.82902 3.36032 5.96967 3.21967C6.11032 3.07902 6.30109 3 6.5 3C14.7706 3 21.5 9.72937 21.5 18ZM6.5 9.75C6.30109 9.75 6.11032 9.82902 5.96967 9.96967C5.82902 10.1103 5.75 10.3011 5.75 10.5C5.75 10.6989 5.82902 10.8897 5.96967 11.0303C6.11032 11.171 6.30109 11.25 6.5 11.25C8.2896 11.252 10.0053 11.9638 11.2708 13.2292C12.5362 14.4947 13.248 16.2104 13.25 18C13.25 18.1989 13.329 18.3897 13.4697 18.5303C13.6103 18.671 13.8011 18.75 14 18.75C14.1989 18.75 14.3897 18.671 14.5303 18.5303C14.671 18.3897 14.75 18.1989 14.75 18C14.7475 15.8127 13.8775 13.7157 12.3309 12.1691C10.7843 10.6225 8.68727 9.75248 6.5 9.75ZM6.875 16.5C6.6525 16.5 6.43499 16.566 6.24998 16.6896C6.06498 16.8132 5.92078 16.9889 5.83564 17.1945C5.75049 17.4 5.72821 17.6262 5.77162 17.8445C5.81503 18.0627 5.92217 18.2632 6.07951 18.4205C6.23684 18.5778 6.4373 18.685 6.65552 18.7284C6.87375 18.7718 7.09995 18.7495 7.30552 18.6644C7.51109 18.5792 7.68679 18.435 7.8104 18.25C7.93402 18.065 8 17.8475 8 17.625C8 17.3266 7.88147 17.0405 7.6705 16.8295C7.45952 16.6185 7.17337 16.5 6.875 16.5Z"/>
</svg>
