<svg viewBox="0 0 24 24" xmlns="http://www.w3.org/2000/svg" aria-hidden="true" fill="currentColor" height="24px" width="24px"><path d="M8.192 22.961a3.6 3.6 0 0 1-1.183-.21c-2.695-1.123-4.347-3.334-4.112-5.502a3.75 3.75 0 0 1 .978-2.125 4.7 4.7 0 0 1-.653-.454C1.228 13.015.8 9.894.651 7.36.564 5.877.675 4.741.99 3.885c.468-1.266 1.3-1.693 1.915-1.829 1.547-.341 3.54.758 5.917 3.268 1.238 1.305 2.399 2.832 3.177 4.14.778-1.308 1.94-2.835 3.177-4.14 2.378-2.51 4.37-3.609 5.917-3.268.615.136 1.446.563 1.915 1.829.316.856.427 1.993.34 3.475-.15 2.534-.577 5.655-2.571 7.31q-.31.255-.653.454c.723.788.925 1.635.978 2.125.235 2.169-1.417 4.38-4.112 5.503l-.086.031c-1.13.361-2.833.238-4.542-2.404a11 11 0 0 1-.325-.533c-.285.56-.621 1.128-1.023 1.615-.95 1.151-1.955 1.5-2.822 1.5m-.394-2.35c1.018.3 1.754-.522 2.894-3.213.112-.265.22-.515.321-.735a1.11 1.11 0 0 1 1.062-.65c.449.025.84.324.99.759.473 1.35 1.91 4.166 3.14 3.837 1.896-.807 2.787-2.17 2.685-3.107-.097-.886-1.082-1.55-2.703-1.823-.605-.102-1.016-.686-.92-1.308.097-.621.665-1.048 1.27-.951 1.244.196 2.175.023 2.842-.531 1.332-1.104 1.636-3.763 1.748-5.667.134-2.283-.315-2.888-.5-2.929-.39-.086-1.7.352-3.856 2.627-1.762 1.859-3.104 3.926-3.473 4.927q-.028.075-.065.145c-.233.436-.694.697-1.233.697s-1-.26-1.233-.697a1 1 0 0 1-.065-.145c-.368-1.001-1.71-3.068-3.473-4.927-2.156-2.274-3.464-2.714-3.857-2.627-.184.04-.634.646-.499 2.929.112 1.904.416 4.563 1.748 5.667.668.554 1.598.727 2.843.53.605-.096 1.172.33 1.268.952s-.314 1.207-.919 1.308c-1.621.274-2.606.937-2.703 1.823-.102.938.79 2.302 2.69 3.11z"/></svg>