<svg aria-hidden="true" xmlns="http://www.w3.org/2000/svg" viewBox="0 0 21 21">
  <path d="M4.835 2c2.293 1.955 4.76 5.92 5.665 8.046.906-2.127 3.372-6.091 5.665-8.046C17.819.59 20.5-.502 20.5 2.971c0 .694-.35 5.827-.555 6.66-.714 2.898-3.316 3.637-5.63 3.19 4.045.782 5.074 3.371 2.852 5.961-4.22 4.919-6.066-1.234-6.54-2.81-.086-.29-.126-.425-.127-.31 0-.115-.041.02-.128.31-.473 1.576-2.318 7.729-6.539 2.81-2.222-2.59-1.193-5.18 2.852-5.961-2.314.447-4.916-.292-5.63-3.19C.85 8.799.5 3.666.5 2.972.5-.502 3.18.59 4.835 2Z"/>
</svg>
