<svg viewBox="0 0 26 24" xmlns="http://www.w3.org/2000/svg" aria-hidden="true" fill="currentColor"><path d="M8.536 22.724c-.332 0-.685-.055-1.062-.176l-.06-.022c-2.686-1.123-4.336-3.3-4.106-5.42.058-.546.314-1.554 1.336-2.407a4.5 4.5 0 0 1-1.135-.691C1.519 12.35 1.088 9.146.935 6.54.75 3.428 1.45 1.675 3.01 1.33 4.874.918 7.245 2.927 8.906 4.685c1.486 1.573 2.863 3.448 3.64 4.915.776-1.467 2.154-3.342 3.64-4.915 1.66-1.758 4.03-3.767 5.895-3.355 1.56.345 2.258 2.098 2.075 5.21-.153 2.606-.584 5.811-2.574 7.468a4.5 4.5 0 0 1-1.134.69c1.022.853 1.277 1.86 1.335 2.407.23 2.12-1.42 4.298-4.106 5.421l-.06.022c-1.065.343-2.687.207-4.36-2.388a13 13 0 0 1-.692-1.216c-.765 1.682-1.984 3.78-4.027 3.78zm-.564-1.712c1.65.504 2.62-1.429 3.55-3.63.118-.279.229-.542.334-.769a.78.78 0 0 1 .748-.459.79.79 0 0 1 .699.536c.447 1.287 2.103 4.828 3.816 4.321 1.976-.837 3.25-2.366 3.103-3.727-.123-1.133-1.284-1.968-3.185-2.289a.807.807 0 0 1-.648-.926.79.79 0 0 1 .894-.673c1.432.228 2.515.016 3.313-.648 1.511-1.258 1.86-4.03 1.993-6.306.121-2.066-.191-3.385-.838-3.528-1.04-.23-3.042 1.419-4.441 2.901-1.695 1.795-3.276 4.053-3.759 5.368a1 1 0 0 1-.046.104c-.177.331-.536.53-.96.53-.425 0-.784-.199-.96-.53a1 1 0 0 1-.047-.104C11.056 9.868 9.474 7.61 7.78 5.815c-1.4-1.481-3.403-3.13-4.441-2.901-.645.143-.96 1.462-.838 3.528.134 2.275.482 5.048 1.994 6.306.797.664 1.88.875 3.312.649a.79.79 0 0 1 .895.672.807.807 0 0 1-.649.926c-1.9.322-3.062 1.156-3.185 2.29-.147 1.36 1.127 2.89 3.104 3.726z"/></svg>