<svg viewBox="0 0 24 24" xmlns="http://www.w3.org/2000/svg" aria-hidden="true" fill="currentColor"><path d="M20.724 10.368 19.5 9.959V5.25a1.5 1.5 0 0 0-1.5-1.5h-5.25v-1.5a.75.75 0 1 0-1.5 0v1.5H6a1.5 1.5 0 0 0-1.5 1.5v4.71l-1.224.408A1.5 1.5 0 0 0 2.25 11.79v2.459c0 5.77 9.177 8.13 9.568 8.228.12.03.245.03.364 0 .39-.098 9.568-2.459 9.568-8.228v-2.46a1.5 1.5 0 0 0-1.026-1.422M6 5.25h12v4.21l-5.763-1.922a.75.75 0 0 0-.474 0L6 9.46zm14.25 9c0 2.335-2.22 4.031-4.083 5.047A21.4 21.4 0 0 1 12 20.974a21.3 21.3 0 0 1-4.143-1.662C4.463 17.47 3.75 15.543 3.75 14.25v-2.46l7.5-2.5v6.46a.75.75 0 1 0 1.5 0V9.29l7.5 2.5z"/></svg>