<svg width="24" height="24" viewBox="0 0 24 24" xmlns="http://www.w3.org/2000/svg">
<path d="M21.75 4.5H15C14.4178 4.5 13.8437 4.63554 13.3229 4.8959C12.8022 5.15625 12.3493 5.53426 12 6C11.6507 5.53426 11.1978 5.15625 10.6771 4.8959C10.1563 4.63554 9.58217 4.5 9 4.5H2.25C2.05109 4.5 1.86032 4.57902 1.71967 4.71967C1.57902 4.86032 1.5 5.05109 1.5 5.25V18.75C1.5 18.9489 1.57902 19.1397 1.71967 19.2803C1.86032 19.421 2.05109 19.5 2.25 19.5H9C9.59674 19.5 10.169 19.7371 10.591 20.159C11.0129 20.581 11.25 21.1533 11.25 21.75C11.25 21.9489 11.329 22.1397 11.4697 22.2803C11.6103 22.421 11.8011 22.5 12 22.5C12.1989 22.5 12.3897 22.421 12.5303 22.2803C12.671 22.1397 12.75 21.9489 12.75 21.75C12.75 21.1533 12.9871 20.581 13.409 20.159C13.831 19.7371 14.4033 19.5 15 19.5H21.75C21.9489 19.5 22.1397 19.421 22.2803 19.2803C22.421 19.1397 22.5 18.9489 22.5 18.75V5.25C22.5 5.05109 22.421 4.86032 22.2803 4.71967C22.1397 4.57902 21.9489 4.5 21.75 4.5ZM9 18H3V6H9C9.59674 6 10.169 6.23705 10.591 6.65901C11.0129 7.08097 11.25 7.65326 11.25 8.25V18.75C10.6015 18.262 9.8116 17.9987 9 18ZM21 18H15C14.1884 17.9987 13.3985 18.262 12.75 18.75V8.25C12.75 7.65326 12.9871 7.08097 13.409 6.65901C13.831 6.23705 14.4033 6 15 6H21V18ZM15 8.25H18.75C18.9489 8.25 19.1397 8.32902 19.2803 8.46967C19.421 8.61032 19.5 8.80109 19.5 9C19.5 9.19891 19.421 9.38968 19.2803 9.53033C19.1397 9.67098 18.9489 9.75 18.75 9.75H15C14.8011 9.75 14.6103 9.67098 14.4697 9.53033C14.329 9.38968 14.25 9.19891 14.25 9C14.25 8.80109 14.329 8.61032 14.4697 8.46967C14.6103 8.32902 14.8011 8.25 15 8.25ZM19.5 12C19.5 12.1989 19.421 12.3897 19.2803 12.5303C19.1397 12.671 18.9489 12.75 18.75 12.75H15C14.8011 12.75 14.6103 12.671 14.4697 12.5303C14.329 12.3897 14.25 12.1989 14.25 12C14.25 11.8011 14.329 11.6103 14.4697 11.4697C14.6103 11.329 14.8011 11.25 15 11.25H18.75C18.9489 11.25 19.1397 11.329 19.2803 11.4697C19.421 11.6103 19.5 11.8011 19.5 12ZM19.5 15C19.5 15.1989 19.421 15.3897 19.2803 15.5303C19.1397 15.671 18.9489 15.75 18.75 15.75H15C14.8011 15.75 14.6103 15.671 14.4697 15.5303C14.329 15.3897 14.25 15.1989 14.25 15C14.25 14.8011 14.329 14.6103 14.4697 14.4697C14.6103 14.329 14.8011 14.25 15 14.25H18.75C18.9489 14.25 19.1397 14.329 19.2803 14.4697C19.421 14.6103 19.5 14.8011 19.5 15Z"/>
</svg>
