<svg width="24" height="24" viewBox="0 0 24 24" xmlns="http://www.w3.org/2000/svg">
<path d="M17.25 2.62549H6.75C6.35218 2.62549 5.97064 2.78352 5.68934 3.06483C5.40804 3.34613 5.25 3.72766 5.25 4.12549V20.6255C5.25007 20.7593 5.28595 20.8907 5.35393 21.006C5.42191 21.1213 5.5195 21.2163 5.63659 21.2812C5.75367 21.346 5.88598 21.3784 6.01978 21.3749C6.15358 21.3713 6.284 21.3321 6.3975 21.2611L12 17.7596L17.6034 21.2611C17.7169 21.3318 17.8472 21.3709 17.9809 21.3743C18.1146 21.3777 18.2467 21.3453 18.3636 21.2805C18.4806 21.2157 18.5781 21.1207 18.646 21.0056C18.7139 20.8904 18.7498 20.7592 18.75 20.6255V4.12549C18.75 3.72766 18.592 3.34613 18.3107 3.06483C18.0294 2.78352 17.6478 2.62549 17.25 2.62549ZM17.25 19.2727L12.3966 16.2399C12.2774 16.1654 12.1396 16.1259 11.9991 16.1259C11.8585 16.1259 11.7208 16.1654 11.6016 16.2399L6.75 19.2727V4.12549H17.25V19.2727Z"/>
</svg>
