<svg viewBox="0 0 24 24" xmlns="http://www.w3.org/2000/svg" aria-hidden="true" fill="currentColor" height="24px" width="24px"><path d="M17.25 9.75h-2.625v-4.5a1.874 1.874 0 0 0-1.875-1.875H2.25A1.125 1.125 0 0 0 1.2 4.904c1.02 2.661.778 7.346-.031 10.16q-.044.152-.044.312v3.374A1.875 1.875 0 0 0 3 20.626h2.448c.293 0 .581-.067.844-.197l1.098-.553h1.345l1.103.553c.262.13.551.198.844.197h2.646c.29 0 .578-.068.838-.197l1.1-.553h1.344l1.103.553c.26.13.548.197.84.197H21a1.875 1.875 0 0 0 1.875-1.875v-3.374A5.63 5.63 0 0 0 17.25 9.75M3.75 5.625h8.625V9.75h-2.25a1.125 1.125 0 1 0 0 2.25h7.125a3.38 3.38 0 0 1 3.182 2.25H3.676c.52-2.617.658-5.961.074-8.625m16.875 12.75H18.64l-1.103-.552a1.9 1.9 0 0 0-.84-.198h-1.52a1.9 1.9 0 0 0-.839.198l-1.103.552h-2.47l-1.103-.552a1.9 1.9 0 0 0-.844-.198H7.302a1.9 1.9 0 0 0-.844.198l-1.098.552H3.375V16.5h17.25z"/></svg>