<svg viewBox="0 0 24 24" xmlns="http://www.w3.org/2000/svg" aria-hidden="true" fill="currentColor" height="24px" width="24px"><path d="M8.203 9c-1.655 0-3 1.345-3 3 0 1.654 1.345 3 3 3s3-1.347 3-3-1.345-3-3-3m0 4.5c-.827 0-1.5-.674-1.5-1.5 0-.827.673-1.5 1.5-1.5s1.5.673 1.5 1.5c0 .826-.673 1.5-1.5 1.5m0-12c-1.655 0-3 1.345-3 3 0 1.654 1.345 3 3 3s3-1.346 3-3c0-1.655-1.345-3-3-3m0 15c-1.655 0-3 1.346-3 3s1.345 3 3 3 3-1.347 3-3-1.345-3-3-3M15.797 9c-1.654 0-3 1.345-3 3 0 1.654 1.346 3 3 3s3-1.347 3-3-1.346-3-3-3m0 4.5c-.827 0-1.5-.674-1.5-1.5 0-.827.673-1.5 1.5-1.5s1.5.673 1.5 1.5c0 .826-.673 1.5-1.5 1.5m0-6c1.654 0 3-1.346 3-3 0-1.655-1.346-3-3-3s-3 1.345-3 3c0 1.654 1.346 3 3 3m0 9c-1.654 0-3 1.346-3 3s1.346 3 3 3 3-1.347 3-3-1.346-3-3-3m0 4.5c-.827 0-1.5-.674-1.5-1.5 0-.827.673-1.5 1.5-1.5s1.5.673 1.5 1.5c0 .826-.673 1.5-1.5 1.5"/></svg>