<svg viewBox="0 0 24 24" xmlns="http://www.w3.org/2000/svg" aria-hidden="true" fill="currentColor"><path d="M13.5 8.625a1.125 1.125 0 1 1 2.25 0 1.125 1.125 0 0 1-2.25 0M9.375 7.5a1.125 1.125 0 1 0 0 2.25 1.125 1.125 0 0 0 0-2.25m10.875 6a8.2 8.2 0 0 1-.281 2.156l2.085.911A.75.75 0 0 1 21.75 18a.7.7 0 0 1-.3-.063l-2.008-.875a8.25 8.25 0 0 1-14.884 0l-2.008.875a.75.75 0 0 1-.6-1.374l2.081-.907A8.2 8.2 0 0 1 3.75 13.5v-.75H1.5a.75.75 0 1 1 0-1.5h2.25v-.75a8.2 8.2 0 0 1 .281-2.156L1.95 7.437a.75.75 0 1 1 .6-1.374l2.008.875a8.25 8.25 0 0 1 14.884 0l2.008-.878a.75.75 0 0 1 .6 1.374l-2.081.914c.188.704.283 1.429.281 2.157v.75h2.25a.75.75 0 1 1 0 1.5h-2.25zm-15-2.25h13.5v-.75a6.75 6.75 0 0 0-13.5 0zm6 8.957V12.75h-6v.75a6.76 6.76 0 0 0 6 6.707m7.5-6.707v-.75h-6v7.457a6.76 6.76 0 0 0 6-6.707"/></svg>