<svg viewBox="0 0 24 24" xmlns="http://www.w3.org/2000/svg" aria-hidden="true" fill="currentColor"><path d="M17.561 10.804a.645.645 0 0 1-.644-.645 4.804 4.804 0 0 0-4.799-4.798 4.804 4.804 0 0 0-4.798 4.798.645.645 0 1 1-1.29 0 6.094 6.094 0 0 1 6.088-6.088 6.094 6.094 0 0 1 6.088 6.088.645.645 0 0 1-.645.644m4.018 2.343H2.395a.645.645 0 1 1 0-1.29h19.184a.645.645 0 0 1 0 1.29m.027 8.93h-19.2a.645.645 0 0 1-.644-.644V17.73c0-.356.289-.645.645-.645h19.195c.356 0 .645.29.645.645l.003 3.702a.645.645 0 0 1-.644.646M3.052 20.789H20.96l-.002-2.413H3.052z"/><path d="M12.119 5.36a.645.645 0 0 1-.645-.644v-2.15a.645.645 0 1 1 1.29 0v2.15a.645.645 0 0 1-.646.645m6.699 7.043a.645.645 0 0 1-.645-.645v-.936H6.023v.936a.645.645 0 1 1-1.29 0v-1.58c0-.357.29-.646.646-.646h13.439c.356 0 .645.289.645.645v1.58a.645.645 0 0 1-.645.646m-15.715 5.76a.645.645 0 0 1-.645-.645v-4.898a.645.645 0 1 1 1.29 0v4.898a.645.645 0 0 1-.645.645m17.864 0a.645.645 0 0 1-.645-.645v-4.898a.645.645 0 1 1 1.29 0v4.898a.645.645 0 0 1-.645.645"/><path d="M7.57 18.164a.645.645 0 0 1-.645-.645v-4.898a.645.645 0 1 1 1.29 0v4.898a.645.645 0 0 1-.646.645m4.466 0a.645.645 0 0 1-.645-.645v-4.898a.645.645 0 1 1 1.29 0v4.898a.645.645 0 0 1-.645.645m4.466 0a.645.645 0 0 1-.645-.645v-4.898a.645.645 0 1 1 1.29 0v4.898a.645.645 0 0 1-.645.645"/></svg>