<svg viewBox="0 0 24 24" xmlns="http://www.w3.org/2000/svg" aria-hidden="true" fill="currentColor" height="24px" width="24px"><path d="M17.25 2.625H6.75A3.375 3.375 0 0 0 3.375 6v13.5a1.875 1.875 0 0 0 1.875 1.875h2.625A1.875 1.875 0 0 0 9.75 19.5V18h4.5v1.5a1.875 1.875 0 0 0 1.875 1.875h2.625a1.875 1.875 0 0 0 1.875-1.875V6a3.375 3.375 0 0 0-3.375-3.375M5.625 15.75V10.5h12.75v5.25zM6.75 4.875h10.5A1.125 1.125 0 0 1 18.375 6v2.25H5.625V6A1.125 1.125 0 0 1 6.75 4.875m.75 14.25H5.625V18H7.5zm9 0V18h1.875v1.125zm-6.375-6a1.5 1.5 0 1 1-3 0 1.5 1.5 0 0 1 3 0m6.75 0a1.5 1.5 0 1 1-3 0 1.5 1.5 0 0 1 3 0M24 7.5v2.25a1.125 1.125 0 1 1-2.25 0V7.5a1.125 1.125 0 1 1 2.25 0m-21.75 0v2.25a1.125 1.125 0 1 1-2.25 0V7.5a1.125 1.125 0 1 1 2.25 0"/></svg>