<svg viewBox="0 0 24 24" xmlns="http://www.w3.org/2000/svg" aria-hidden="true" fill="currentColor"><path d="M15.75 13.126a.75.75 0 0 1-.75.75h-2.25v2.25a.75.75 0 1 1-1.5 0v-2.25H9a.75.75 0 1 1 0-1.5h2.25v-2.25a.75.75 0 1 1 1.5 0v2.25H15a.75.75 0 0 1 .75.75m6-5.25v10.5a2.25 2.25 0 0 1-2.25 2.25h-15a2.25 2.25 0 0 1-2.25-2.25v-10.5a2.25 2.25 0 0 1 2.25-2.25h2.599l1.057-1.583a1.5 1.5 0 0 1 1.245-.668H14.6a1.5 1.5 0 0 1 1.245.668L16.9 5.625h2.6a2.25 2.25 0 0 1 2.25 2.25m-1.5 0a.75.75 0 0 0-.75-.75h-3a.75.75 0 0 1-.624-.334l-1.277-1.917H9.4L8.124 6.792a.75.75 0 0 1-.624.333h-3a.75.75 0 0 0-.75.75v10.5a.75.75 0 0 0 .75.75h15a.75.75 0 0 0 .75-.75z"/></svg>