<svg viewBox="0 0 24 24" xmlns="http://www.w3.org/2000/svg" aria-hidden="true" fill="currentColor"><path d="M19.5 5.625h-2.6L15.623 3.71A.75.75 0 0 0 15 3.375H9a.75.75 0 0 0-.624.334L7.098 5.625H4.5a2.25 2.25 0 0 0-2.25 2.25v10.5a2.25 2.25 0 0 0 2.25 2.25h15a2.25 2.25 0 0 0 2.25-2.25v-10.5a2.25 2.25 0 0 0-2.25-2.25m.75 12.75a.75.75 0 0 1-.75.75h-15a.75.75 0 0 1-.75-.75v-10.5a.75.75 0 0 1 .75-.75h3a.75.75 0 0 0 .624-.333l1.277-1.917h5.197l1.277 1.917a.75.75 0 0 0 .625.333h3a.75.75 0 0 1 .75.75zM12 8.625a4.125 4.125 0 1 0 0 8.25 4.125 4.125 0 0 0 0-8.25m0 6.75a2.625 2.625 0 1 1 0-5.25 2.625 2.625 0 0 1 0 5.25"/></svg>