<svg viewBox="0 0 24 24" xmlns="http://www.w3.org/2000/svg" aria-hidden="true" fill="currentColor"><path d="M20.964 21.225a.75.75 0 0 1-.942.487L12 19.16l-8.022 2.553a.75.75 0 0 1-.455-1.43l6-1.91-6-1.91a.752.752 0 0 1-.128-1.392.75.75 0 0 1 .583-.037L12 17.585l8.022-2.552a.75.75 0 1 1 .455 1.43l-6 1.91 6 1.91a.75.75 0 0 1 .487.942M6.375 10.123c0-1.885.916-3.832 2.647-5.625a14.6 14.6 0 0 1 2.585-2.134.75.75 0 0 1 .786 0c.213.127 5.232 3.266 5.232 7.759a5.625 5.625 0 0 1-11.25 0M12 14.248a1.5 1.5 0 0 0 1.5-1.5c0-1.272-.937-2.293-1.5-2.793-.562.5-1.5 1.52-1.5 2.793a1.5 1.5 0 0 0 1.5 1.5m-4.125-4.125a4.1 4.1 0 0 0 1.133 2.835c0-.07-.008-.14-.008-.21 0-2.625 2.479-4.304 2.584-4.375a.75.75 0 0 1 .832 0c.105.07 2.584 1.75 2.584 4.375q.002.105-.008.21a4.1 4.1 0 0 0 1.133-2.835c0-3-3.024-5.438-4.125-6.22-1.1.782-4.125 3.22-4.125 6.22"/></svg>