<svg viewBox="0 0 24 24" xmlns="http://www.w3.org/2000/svg" aria-hidden="true" fill="currentColor" height="24px" width="24px"><path d="M21.31 21.32a1.125 1.125 0 0 1-1.398.76l-7.931-2.344-7.932 2.343q-.155.046-.318.046a1.125 1.125 0 0 1-.32-2.204l4.6-1.358-4.6-1.358a1.125 1.125 0 0 1 .638-2.157l7.932 2.344 7.93-2.344a1.125 1.125 0 1 1 .638 2.156l-4.598 1.359 4.598 1.358a1.124 1.124 0 0 1 .76 1.398M5.98 9.75c0-4.742 5.244-7.62 5.467-7.74a1.13 1.13 0 0 1 1.067 0c.223.12 5.467 2.998 5.467 7.74a6 6 0 0 1-12 0m6 3.75a1.125 1.125 0 0 0 1.126-1.125c0-.606-.254-1.176-.75-1.694a4 4 0 0 0-.375-.334 4 4 0 0 0-.375.334c-.5.518-.75 1.088-.75 1.694A1.125 1.125 0 0 0 11.98 13.5M8.23 9.75c0 .625.156 1.24.455 1.79.451-2.345 2.687-3.493 2.792-3.545a1.13 1.13 0 0 1 1.007 0c.105.052 2.344 1.198 2.792 3.544a3.7 3.7 0 0 0 .455-1.789c0-2.656-2.601-4.67-3.75-5.43-1.149.76-3.75 2.774-3.75 5.43"/></svg>