<svg width="24" height="24" viewBox="0 0 24 24" xmlns="http://www.w3.org/2000/svg">
<path d="M16.296 18.7041C16.5073 18.9154 16.6261 19.2021 16.6261 19.501C16.6261 19.7999 16.5073 20.0865 16.296 20.2978C16.0846 20.5092 15.798 20.6279 15.4991 20.6279C15.2002 20.6279 14.9136 20.5092 14.7022 20.2978L7.20222 12.7978C7.09734 12.6933 7.01413 12.5691 6.95735 12.4324C6.90057 12.2956 6.87134 12.149 6.87134 12.001C6.87134 11.8529 6.90057 11.7063 6.95735 11.5696C7.01413 11.4328 7.09734 11.3086 7.20222 11.2041L14.7022 3.7041C14.9136 3.49276 15.2002 3.37402 15.4991 3.37402C15.798 3.37402 16.0846 3.49276 16.296 3.7041C16.5073 3.91544 16.6261 4.20209 16.6261 4.50097C16.6261 4.79986 16.5073 5.08651 16.296 5.29785L9.59379 12L16.296 18.7041Z"/>
</svg>
