<svg width="24" height="24" viewBox="0 0 24 24" xmlns="http://www.w3.org/2000/svg">
<path d="M15.5306 18.9693C15.6003 19.039 15.6556 19.1217 15.6933 19.2128C15.731 19.3038 15.7504 19.4014 15.7504 19.4999C15.7504 19.5985 15.731 19.6961 15.6933 19.7871C15.6556 19.8781 15.6003 19.9609 15.5306 20.0306C15.4609 20.1002 15.3782 20.1555 15.2872 20.1932C15.1961 20.2309 15.0985 20.2503 15 20.2503C14.9014 20.2503 14.8039 20.2309 14.7128 20.1932C14.6218 20.1555 14.539 20.1002 14.4694 20.0306L6.96935 12.5306C6.89962 12.4609 6.8443 12.3782 6.80656 12.2871C6.76882 12.1961 6.74939 12.0985 6.74939 11.9999C6.74939 11.9014 6.76882 11.8038 6.80656 11.7127C6.8443 11.6217 6.89962 11.539 6.96935 11.4693L14.4694 3.9693C14.6101 3.82857 14.801 3.74951 15 3.74951C15.199 3.74951 15.3899 3.82857 15.5306 3.9693C15.6713 4.11003 15.7504 4.30091 15.7504 4.49993C15.7504 4.69895 15.6713 4.88982 15.5306 5.03055L8.56029 11.9999L15.5306 18.9693Z"/>
</svg>
