<svg width="24" height="24" viewBox="0 0 24 24" xmlns="http://www.w3.org/2000/svg">
<path d="M17.0306 15.9695C17.1003 16.0391 17.1557 16.1218 17.1934 16.2129C17.2312 16.3039 17.2506 16.4015 17.2506 16.5001C17.2506 16.5987 17.2312 16.6963 17.1934 16.7873C17.1557 16.8784 17.1003 16.9611 17.0306 17.0307L12.5306 21.5307C12.461 21.6005 12.3782 21.6558 12.2872 21.6935C12.1961 21.7313 12.0986 21.7507 12 21.7507C11.9014 21.7507 11.8038 21.7313 11.7128 21.6935C11.6217 21.6558 11.539 21.6005 11.4694 21.5307L6.96936 17.0307C6.82863 16.89 6.74957 16.6991 6.74957 16.5001C6.74957 16.3011 6.82863 16.1102 6.96936 15.9695C7.11009 15.8287 7.30097 15.7497 7.49999 15.7497C7.69901 15.7497 7.88988 15.8287 8.03062 15.9695L12 19.9398L15.9694 15.9695C16.039 15.8997 16.1217 15.8444 16.2128 15.8067C16.3038 15.7689 16.4014 15.7495 16.5 15.7495C16.5986 15.7495 16.6961 15.7689 16.7872 15.8067C16.8782 15.8444 16.961 15.8997 17.0306 15.9695ZM8.03062 8.03073L12 4.06041L15.9694 8.03073C16.1101 8.17146 16.301 8.25052 16.5 8.25052C16.699 8.25052 16.8899 8.17146 17.0306 8.03073C17.1713 7.89 17.2504 7.69912 17.2504 7.5001C17.2504 7.30108 17.1713 7.11021 17.0306 6.96948L12.5306 2.46948C12.461 2.39974 12.3782 2.34442 12.2872 2.30668C12.1961 2.26894 12.0986 2.24951 12 2.24951C11.9014 2.24951 11.8038 2.26894 11.7128 2.30668C11.6217 2.34442 11.539 2.39974 11.4694 2.46948L6.96936 6.96948C6.82863 7.11021 6.74957 7.30108 6.74957 7.5001C6.74957 7.69912 6.82863 7.89 6.96937 8.03073C7.1101 8.17146 7.30097 8.25052 7.49999 8.25052C7.69901 8.25052 7.88988 8.17146 8.03062 8.03073Z"/>
</svg>
