<svg width="24" height="24" viewBox="0 0 24 24" xmlns="http://www.w3.org/2000/svg">
<path d="M17.0306 12.5306L9.53062 20.0306C9.46093 20.1002 9.37821 20.1555 9.28716 20.1932C9.19612 20.2309 9.09854 20.2503 8.99999 20.2503C8.90144 20.2503 8.80386 20.2309 8.71282 20.1932C8.62177 20.1555 8.53905 20.1002 8.46936 20.0306C8.39968 19.9609 8.34441 19.8781 8.30669 19.7871C8.26898 19.6961 8.24957 19.5985 8.24957 19.4999C8.24957 19.4014 8.26898 19.3038 8.30669 19.2128C8.34441 19.1217 8.39968 19.039 8.46936 18.9693L15.4397 11.9999L8.46936 5.03055C8.32863 4.88982 8.24957 4.69895 8.24957 4.49993C8.24957 4.30091 8.32863 4.11003 8.46936 3.9693C8.61009 3.82857 8.80097 3.74951 8.99999 3.74951C9.19901 3.74951 9.38988 3.82857 9.53062 3.9693L17.0306 11.4693C17.1003 11.539 17.1557 11.6217 17.1934 11.7127C17.2312 11.8038 17.2506 11.9014 17.2506 11.9999C17.2506 12.0985 17.2312 12.1961 17.1934 12.2871C17.1557 12.3782 17.1003 12.4609 17.0306 12.5306Z"/>
</svg>
