<svg width="24" height="24" viewBox="0 0 24 24" xmlns="http://www.w3.org/2000/svg">
<path d="M19.5306 9.53068L12.0306 17.0307C11.961 17.1004 11.8782 17.1557 11.7872 17.1935C11.6961 17.2312 11.5986 17.2506 11.5 17.2506C11.4014 17.2506 11.3038 17.2312 11.2128 17.1935C11.1217 17.1557 11.039 17.1004 10.9694 17.0307L3.46936 9.53068C3.32863 9.38995 3.24957 9.19907 3.24957 9.00005C3.24957 8.80103 3.32863 8.61016 3.46936 8.46943C3.6101 8.32869 3.80097 8.24963 3.99999 8.24963C4.19901 8.24963 4.38988 8.32869 4.53061 8.46943L11.5 15.4397L18.4694 8.46943C18.539 8.39974 18.6218 8.34447 18.7128 8.30676C18.8039 8.26904 18.9014 8.24963 19 8.24963C19.0985 8.24963 19.1961 8.26904 19.2872 8.30676C19.3782 8.34447 19.4609 8.39974 19.5306 8.46943C19.6003 8.53911 19.6556 8.62183 19.6933 8.71288C19.731 8.80392 19.7504 8.9015 19.7504 9.00005C19.7504 9.0986 19.731 9.19618 19.6933 9.28722C19.6556 9.37827 19.6003 9.46099 19.5306 9.53068Z"/>
</svg>
