<svg width="24" height="24" viewBox="0 0 24 24" xmlns="http://www.w3.org/2000/svg">
<path d="M17.296 15.703C17.4008 15.8075 17.4841 15.9317 17.5408 16.0684C17.5976 16.2052 17.6268 16.3518 17.6268 16.4999C17.6268 16.6479 17.5976 16.7945 17.5408 16.9313C17.4841 17.068 17.4008 17.1922 17.296 17.2967L12.796 21.7967C12.6914 21.9016 12.5672 21.9848 12.4305 22.0416C12.2938 22.0984 12.1471 22.1276 11.9991 22.1276C11.851 22.1276 11.7044 22.0984 11.5677 22.0416C11.4309 21.9848 11.3067 21.9016 11.2022 21.7967L6.70221 17.2967C6.49086 17.0854 6.37213 16.7988 6.37213 16.4999C6.37213 16.201 6.49086 15.9143 6.70221 15.703C6.91355 15.4917 7.2002 15.3729 7.49908 15.3729C7.79797 15.3729 8.08461 15.4917 8.29596 15.703L12 19.4052L15.7041 15.7002C15.8087 15.5958 15.933 15.513 16.0696 15.4566C16.2063 15.4003 16.3528 15.3714 16.5006 15.3716C16.6484 15.3719 16.7948 15.4013 16.9313 15.4582C17.0677 15.515 17.1917 15.5982 17.296 15.703ZM8.29596 8.29675L12 4.59268L15.7041 8.29768C15.9154 8.50903 16.2021 8.62776 16.501 8.62776C16.7998 8.62776 17.0865 8.50903 17.2978 8.29768C17.5092 8.08634 17.6279 7.79969 17.6279 7.50081C17.6279 7.20192 17.5092 6.91528 17.2978 6.70393L12.7978 2.20393C12.6933 2.09905 12.5691 2.01584 12.4324 1.95906C12.2956 1.90228 12.149 1.87305 12.001 1.87305C11.8529 1.87305 11.7063 1.90228 11.5695 1.95906C11.4328 2.01584 11.3086 2.09905 11.2041 2.20393L6.70408 6.70393C6.49274 6.91528 6.37401 7.20192 6.37401 7.50081C6.37401 7.79969 6.49274 8.08634 6.70408 8.29768C6.91543 8.50903 7.20207 8.62776 7.50096 8.62776C7.79984 8.62776 8.08649 8.50903 8.29783 8.29768L8.29596 8.29675Z"/>
</svg>
