<svg width="24" height="24" viewBox="0 0 24 24" xmlns="http://www.w3.org/2000/svg">
<path d="M19.5307 15.5307C19.461 15.6005 19.3783 15.6558 19.2873 15.6935C19.1962 15.7313 19.0986 15.7507 19.0001 15.7507C18.9015 15.7507 18.8039 15.7313 18.7128 15.6935C18.6218 15.6558 18.5391 15.6005 18.4694 15.5307L11.5001 8.56041L4.53068 15.5307C4.38995 15.6715 4.19907 15.7505 4.00005 15.7505C3.80103 15.7505 3.61016 15.6715 3.46943 15.5307C3.3287 15.39 3.24963 15.1991 3.24963 15.0001C3.24963 14.8011 3.3287 14.6102 3.46943 14.4695L10.9694 6.96948C11.0391 6.89974 11.1218 6.84443 11.2128 6.80668C11.3039 6.76894 11.4015 6.74951 11.5001 6.74951C11.5986 6.74951 11.6962 6.76894 11.7873 6.80668C11.8783 6.84443 11.961 6.89974 12.0307 6.96948L19.5307 14.4695C19.6004 14.5391 19.6557 14.6218 19.6935 14.7129C19.7312 14.8039 19.7506 14.9015 19.7506 15.0001C19.7506 15.0987 19.7312 15.1963 19.6935 15.2873C19.6557 15.3784 19.6004 15.4611 19.5307 15.5307Z"/>
</svg>
