<svg viewBox="0 0 24 24" xmlns="http://www.w3.org/2000/svg" aria-hidden="true" fill="currentColor" height="24px" width="24px"><path d="M21.375 6h-1.782l1.83-1.829a1.126 1.126 0 1 0-1.594-1.593l-1.83 1.829V2.625a1.125 1.125 0 1 0-2.25 0v2.438a6.375 6.375 0 0 0-7.124 1.3c-3.802 3.732-6.64 12.481-6.959 13.49a1.875 1.875 0 0 0 2.481 2.48c.716-.226 5.324-1.719 9.273-3.92l.05-.028c1.604-.897 3.094-1.912 4.167-3a6.375 6.375 0 0 0 1.3-7.135h2.438a1.125 1.125 0 1 0 0-2.25m-5.334 7.793-.008.008c-.76.777-1.792 1.52-2.938 2.205l-2.175-2.175a1.127 1.127 0 1 0-1.594 1.593l1.708 1.708c-2.84 1.423-5.825 2.477-7.056 2.89.635-1.896 2.793-7.95 5.47-11.226l2.878 2.878a1.127 1.127 0 1 0 1.594-1.593l-2.807-2.807a4.125 4.125 0 0 1 4.928 6.519"/></svg>