<svg viewBox="0 0 24 24" xmlns="http://www.w3.org/2000/svg" aria-hidden="true" fill="currentColor"><path d="M20.75 20.25h-1.5v-9.44l1.06-1.06a1.5 1.5 0 0 0 .44-1.06V4.5a1.5 1.5 0 0 0-1.5-1.5H17a.75.75 0 0 0-.75.75V6h-1.5V3.75A.75.75 0 0 0 14 3h-3a.75.75 0 0 0-.75.75V6h-1.5V3.75A.75.75 0 0 0 8 3H5.75a1.5 1.5 0 0 0-1.5 1.5v4.19a1.5 1.5 0 0 0 .44 1.06l1.06 1.06v9.44h-1.5a.75.75 0 1 0 0 1.5h16.5a.75.75 0 1 0 0-1.5M7.03 9.97 5.75 8.69V4.5h1.5v2.25A.75.75 0 0 0 8 7.5h3a.75.75 0 0 0 .75-.75V4.5h1.5v2.25a.75.75 0 0 0 .75.75h3a.75.75 0 0 0 .75-.75V4.5h1.5v4.19l-1.28 1.28a.75.75 0 0 0-.22.53v9.75H15.5v-4.5a3 3 0 0 0-6 0v4.5H7.25V10.5a.75.75 0 0 0-.22-.53M14 20.25h-3v-4.5a1.5 1.5 0 1 1 3 0z"/></svg>