<svg viewBox="0 0 24 24" xmlns="http://www.w3.org/2000/svg" aria-hidden="true" fill="currentColor" height="24px" width="24px"><path d="M22.076 9.916h-6.412c-.236 0-.464.076-.653.216l-.83.616H9.893l-1.097-.671a1.1 1.1 0 0 0-.572-.161H2.232c-.602 0-1.089.483-1.089 1.079v8.682c0 .596.487 1.079 1.089 1.079h19.843c.601 0 1.088-.483 1.088-1.079v-8.682c0-.596-.486-1.079-1.087-1.079m-1.088 8.682H3.32v-6.524h4.594l1.097.671c.172.105.37.161.572.161h4.961c.236 0 .464-.075.653-.216l.83-.617h4.961zM5.098 5.313H19.21c.6 0 1.088-.482 1.088-1.078s-.487-1.08-1.088-1.08H5.098c-.601 0-1.088.484-1.088 1.08s.487 1.078 1.088 1.078m-1.299 3.41h16.71c.6 0 1.087-.484 1.087-1.08s-.486-1.078-1.088-1.078H3.8c-.6 0-1.088.482-1.088 1.078s.487 1.08 1.088 1.08"/><path d="M8.527 14.647c-.602 0-1.089.483-1.089 1.079s.487 1.079 1.089 1.079h7.254c.601 0 1.088-.483 1.088-1.079s-.487-1.079-1.088-1.079z"/></svg>