<svg width="24" height="24" viewBox="0 0 24 24" xmlns="http://www.w3.org/2000/svg">
<path d="M11.5 2.25C9.81668 2.24963 8.16195 2.68508 6.69685 3.51396C5.23176 4.34285 4.00622 5.53692 3.13953 6.97997C2.27283 8.42301 1.79451 10.0659 1.75111 11.7486C1.70771 13.4314 2.10071 15.0967 2.89187 16.5825L1.8278 19.7747C1.73967 20.039 1.72687 20.3226 1.79086 20.5938C1.85486 20.8649 1.9931 21.1129 2.1901 21.3099C2.38711 21.5069 2.63508 21.6451 2.90624 21.7091C3.17739 21.7731 3.46101 21.7603 3.7253 21.6722L6.91749 20.6081C8.22509 21.3036 9.67394 21.6921 11.1541 21.744C12.6342 21.7959 14.1067 21.51 15.4599 20.9079C16.813 20.3057 18.0112 19.4033 18.9634 18.269C19.9157 17.1346 20.597 15.7983 20.9557 14.3613C21.3144 12.9244 21.341 11.4246 21.0336 9.97578C20.7261 8.52701 20.0926 7.16732 19.1811 5.99992C18.2697 4.83253 17.1043 3.88811 15.7734 3.23836C14.4425 2.58861 12.981 2.25061 11.5 2.25ZM11.5 20.25C10.0497 20.251 8.62477 19.8691 7.36937 19.1428C7.27745 19.0895 7.17526 19.0563 7.06955 19.0455C6.96385 19.0347 6.85706 19.0464 6.75624 19.08L3.24999 20.25L4.41905 16.7438C4.45275 16.643 4.46466 16.5362 4.454 16.4305C4.44333 16.3248 4.41033 16.2226 4.35718 16.1306C3.44778 14.5584 3.08266 12.7299 3.31846 10.929C3.55426 9.12801 4.3778 7.4552 5.66132 6.17006C6.94485 4.88491 8.61661 4.05925 10.4173 3.82118C12.2179 3.5831 14.0468 3.94591 15.6202 4.85333C17.1937 5.76074 18.4236 7.16204 19.1194 8.83983C19.8151 10.5176 19.9377 12.3781 19.4682 14.1327C18.9987 15.8873 17.9632 17.4379 16.5225 18.5439C15.0818 19.65 13.3163 20.2497 11.5 20.25Z"/>
</svg>
