<svg width="24" height="24" viewBox="0 0 24 24" fill="none" xmlns="http://www.w3.org/2000/svg">
<path d="M11.5 1.875C9.76565 1.87463 8.06029 2.31977 6.54738 3.16775C5.03448 4.01573 3.76476 5.23811 2.85995 6.71772C1.95513 8.19733 1.44555 9.88456 1.38006 11.6177C1.31456 13.3508 1.69536 15.0716 2.48593 16.6153L1.46874 19.6556C1.35719 19.9866 1.34031 20.3422 1.41999 20.6822C1.49967 21.0223 1.67275 21.3333 1.91972 21.5803C2.16669 21.8272 2.47773 22.0003 2.81778 22.08C3.15784 22.1597 3.51339 22.1428 3.84436 22.0313L6.88468 21.0178C8.24783 21.7137 9.75102 22.0916 11.2812 22.1229C12.8114 22.1542 14.3288 21.8382 15.7193 21.1987C17.1098 20.5591 18.3372 19.6126 19.3092 18.4304C20.2813 17.2482 20.9727 15.861 21.3314 14.3731C21.6901 12.8852 21.7069 11.3354 21.3804 9.84009C21.0539 8.3448 20.3926 6.94298 19.4464 5.74004C18.5001 4.5371 17.2934 3.56434 15.9171 2.8949C14.5407 2.22545 13.0305 1.87675 11.5 1.875ZM11.5 19.875C10.1156 19.8755 8.75552 19.5111 7.55686 18.8184C7.38595 18.7193 7.19195 18.6669 6.99436 18.6666C6.87327 18.6668 6.753 18.6864 6.63811 18.7247L3.8453 19.6556L4.77624 16.8628C4.82665 16.7116 4.84436 16.5514 4.82819 16.3929C4.81203 16.2343 4.76237 16.081 4.68249 15.9431C3.81435 14.4423 3.46576 12.697 3.69081 10.9778C3.91585 9.25871 4.70194 7.66189 5.92714 6.43512C7.15233 5.20835 8.74813 4.4202 10.467 4.19294C12.1858 3.96568 13.9316 4.31202 15.4335 5.17823C16.9354 6.04443 18.1095 7.38208 18.7736 8.98366C19.4377 10.5852 19.5547 12.3612 19.1064 14.0361C18.6582 15.7109 17.6697 17.191 16.2944 18.2467C14.9191 19.3025 13.2338 19.8748 11.5 19.875Z" fill="black"/>
</svg>
