<svg width="24" height="24" viewBox="0 0 24 24" xmlns="http://www.w3.org/2000/svg">
<path d="M21.0306 7.28068L9.03061 19.2807C8.96096 19.3504 8.87824 19.4057 8.7872 19.4435C8.69615 19.4812 8.59855 19.5006 8.49999 19.5006C8.40143 19.5006 8.30383 19.4812 8.21278 19.4435C8.12174 19.4057 8.03902 19.3504 7.96936 19.2807L2.71936 14.0307C2.57863 13.8899 2.49957 13.6991 2.49957 13.5001C2.49957 13.301 2.57863 13.1102 2.71936 12.9694C2.8601 12.8287 3.05097 12.7496 3.24999 12.7496C3.44901 12.7496 3.63988 12.8287 3.78061 12.9694L8.49999 17.6897L19.9694 6.21943C20.1101 6.07869 20.301 5.99963 20.5 5.99963C20.699 5.99963 20.8899 6.07869 21.0306 6.21943C21.1713 6.36016 21.2504 6.55103 21.2504 6.75005C21.2504 6.94907 21.1713 7.13995 21.0306 7.28068Z"/>
</svg>
