<svg width="24" height="24" viewBox="0 0 24 24" xmlns="http://www.w3.org/2000/svg" fill="currentColor" aria-hidden="true"> <path d="M21.296 7.54597L9.29596 19.546C9.19144 19.6509 9.06725 19.7341 8.9305 19.7909C8.79376 19.8476 8.64715 19.8769 8.49908 19.8769C8.35102 19.8769 8.20441 19.8476 8.06766 19.7909C7.93092 19.7341 7.80672 19.6509 7.70221 19.546L2.45221 14.296C2.34756 14.1913 2.26455 14.0671 2.20792 13.9304C2.15128 13.7936 2.12213 13.6471 2.12213 13.4991C2.12213 13.3511 2.15128 13.2046 2.20792 13.0678C2.26455 12.9311 2.34756 12.8069 2.45221 12.7022C2.55685 12.5976 2.68109 12.5146 2.81782 12.4579C2.95455 12.4013 3.10109 12.3721 3.24908 12.3721C3.39708 12.3721 3.54362 12.4013 3.68035 12.4579C3.81708 12.5146 3.94131 12.5976 4.04596 12.7022L8.50002 17.1563L19.7041 5.9541C19.9154 5.74276 20.2021 5.62402 20.501 5.62402C20.7998 5.62402 21.0865 5.74276 21.2978 5.9541C21.5092 6.16544 21.6279 6.45209 21.6279 6.75098C21.6279 7.04986 21.5092 7.33651 21.2978 7.54785L21.296 7.54597Z"/> </svg>