<svg viewBox="0 0 24 24" xmlns="http://www.w3.org/2000/svg" aria-hidden="true" fill="currentColor" height="24px" width="24px"><path d="M6.198 14.973c-.298 0-.55-.307-.55-.67 0-.543-.454-.983-1.013-.983-.56 0-1.012.44-1.012.983 0 1.454 1.155 2.636 2.575 2.636h.031c.096.447.503.783.992.783.488 0 .896-.336.99-.783h.032c1.42 0 2.576-1.182 2.576-2.636 0-.664-.247-1.346-.679-1.872-.493-.601-1.184-.946-1.897-.946h-.01v-1.477c.205.08.333.278.333.54 0 .544.453.983 1.013.983s1.012-.44 1.012-.982c0-1.355-1.02-2.43-2.358-2.537v-.116c0-.543-.453-.983-1.012-.983-.56 0-1.013.44-1.013.983v.107h-.01c-.714 0-1.404.347-1.893.952a3.03 3.03 0 0 0-.663 1.866c0 1.451 1.146 2.63 2.555 2.63h.01v1.522zm0-3.487c-.293 0-.53-.299-.53-.665 0-.453.33-.852.53-.852h.01v1.517zm2.035 1.965h.01c.208 0 .551.399.551.852 0 .363-.252.67-.55.67h-.011zm3.79 1.285c-.559 0-1.012.44-1.012.983s.453.983 1.013.983h1.48c.56 0 1.013-.44 1.013-.983s-.453-.983-1.012-.983zm7.288 0h-3.366c-.56 0-1.013.44-1.013.983s.453.983 1.013.983h3.366c.56 0 1.012-.44 1.012-.983s-.453-.983-1.012-.983m0-2.479h-1.716c-.56 0-1.012.44-1.012.983s.453.983 1.012.983h1.716c.56 0 1.012-.44 1.012-.983s-.453-.983-1.012-.983M11.12 9.495a.97.97 0 0 0-.296.696v2.62c0 .544.453.984 1.012.984h2.7c.268 0 .525-.104.716-.288L22.676 6.3a.96.96 0 0 0 0-1.39l-2.7-2.621A1.03 1.03 0 0 0 19.26 2c-.269 0-.526.103-.716.288zm2.997 2.333h-1.268v-1.231l4.386-4.26 1.268 1.231zm6.411-6.225-.593.575-1.268-1.23.593-.577z"/><path d="M21.988 8.248c-.56 0-1.013.44-1.013.983v8.833H3.525V6.634h9.47c.559 0 1.012-.44 1.012-.982 0-.543-.453-.983-1.012-.983H3.187c-.93 0-1.687.735-1.687 1.638v12.085c0 .903.757 1.638 1.687 1.638h18.21c.914 0 1.603-.704 1.603-1.638V9.23c0-.544-.453-.983-1.012-.983"/></svg>