<svg width="24" height="24" viewBox="0 0 24 24" xmlns="http://www.w3.org/2000/svg">
<path d="M19.7806 18.2194C19.8503 18.2891 19.9056 18.3718 19.9433 18.4629C19.981 18.5539 20.0004 18.6515 20.0004 18.7501C20.0004 18.8486 19.981 18.9462 19.9433 19.0372C19.9056 19.1283 19.8503 19.211 19.7806 19.2807C19.7109 19.3504 19.6282 19.4056 19.5372 19.4433C19.4461 19.4811 19.3485 19.5005 19.25 19.5005C19.1514 19.5005 19.0539 19.4811 18.9628 19.4433C18.8718 19.4056 18.789 19.3504 18.7194 19.2807L12.5 13.0604L6.28061 19.2807C6.13988 19.4214 5.94901 19.5005 5.74999 19.5005C5.55097 19.5005 5.3601 19.4214 5.21936 19.2807C5.07863 19.1399 4.99957 18.9491 4.99957 18.7501C4.99957 18.551 5.07863 18.3602 5.21936 18.2194L11.4397 12.0001L5.21936 5.78068C5.07863 5.63995 4.99957 5.44907 4.99957 5.25005C4.99957 5.05103 5.07863 4.86016 5.21936 4.71943C5.3601 4.5787 5.55097 4.49963 5.74999 4.49963C5.94901 4.49963 6.13988 4.5787 6.28061 4.71943L12.5 10.9397L18.7194 4.71943C18.8601 4.5787 19.051 4.49963 19.25 4.49963C19.449 4.49963 19.6399 4.5787 19.7806 4.71943C19.9213 4.86016 20.0004 5.05103 20.0004 5.25005C20.0004 5.44907 19.9213 5.63995 19.7806 5.78068L13.5603 12.0001L19.7806 18.2194Z"/>
</svg>
