<svg aria-hidden="true" focusable="false"  xmlns="http://www.w3.org/2000/svg" xmlns:xlink="http://www.w3.org/1999/xlink" viewBox="0 0 164 164" version="1.1" x="0px" y="0px"><g stroke="none" stroke-width="1"><g transform="translate(-5068.000000, -2475.000000)"><path d="M5169.6076,2556.7348 L5229.8506,2496.4888 C5232.0376,2494.3018 5232.0376,2490.7598 5229.8506,2488.5728 L5217.9066,2476.6268 C5216.8566,2475.5768 5215.4326,2474.9858 5213.9486,2474.9858 C5212.4636,2474.9858 5211.0396,2475.5768 5209.9896,2476.6268 L5149.7446,2536.8718 L5089.5016,2476.6268 C5087.4026,2474.5268 5083.6846,2474.5268 5081.5846,2476.6268 L5069.6416,2488.5728 C5067.4546,2490.7598 5067.4546,2494.3018 5069.6416,2496.4888 L5129.8846,2556.7348 L5069.6416,2616.9748 C5067.4546,2619.1618 5067.4546,2622.7048 5069.6416,2624.8918 L5081.5846,2636.8378 C5082.6346,2637.8868 5084.0596,2638.4778 5085.5436,2638.4778 C5087.0276,2638.4778 5088.4526,2637.8868 5089.5016,2636.8378 L5149.7446,2576.5918 L5209.9896,2636.8378 C5211.0396,2637.8868 5212.4636,2638.4778 5213.9486,2638.4778 C5215.4326,2638.4778 5216.8566,2637.8868 5217.9066,2636.8378 L5229.8506,2624.8918 C5232.0376,2622.7048 5232.0376,2619.1618 5229.8506,2616.9748 L5169.6076,2556.7348 Z"></path></g></g></svg>
