<svg width="24" height="24" viewBox="0 0 24 24" fill="none" xmlns="http://www.w3.org/2000/svg">
<path d="M20.046 17.954C20.2573 18.1654 20.376 18.452 20.376 18.7509C20.376 19.0498 20.2573 19.3364 20.046 19.5478C19.8346 19.7591 19.548 19.8779 19.2491 19.8779C18.9502 19.8779 18.6636 19.7591 18.4522 19.5478L12.5 13.5937L6.54596 19.5459C6.33461 19.7573 6.04797 19.876 5.74908 19.876C5.4502 19.876 5.16355 19.7573 4.95221 19.5459C4.74086 19.3346 4.62213 19.0479 4.62213 18.749C4.62213 18.4502 4.74086 18.1635 4.95221 17.9522L10.9063 12L4.95408 6.04592C4.74274 5.83457 4.62401 5.54793 4.62401 5.24904C4.62401 4.95016 4.74274 4.66351 4.95408 4.45217C5.16543 4.24082 5.45207 4.12209 5.75096 4.12209C6.04984 4.12209 6.33649 4.24082 6.54783 4.45217L12.5 10.4062L18.4541 4.45123C18.6654 4.23989 18.9521 4.12115 19.251 4.12115C19.5498 4.12115 19.8365 4.23989 20.0478 4.45123C20.2592 4.66258 20.3779 4.94922 20.3779 5.24811C20.3779 5.54699 20.2592 5.83364 20.0478 6.04498L14.0938 12L20.046 17.954Z" fill="black"/>
</svg>
