<svg viewBox="0 0 24 24" xmlns="http://www.w3.org/2000/svg" aria-hidden="true" fill="currentColor" height="24px" width="24px"><path d="M21.5 4.125h-18A1.875 1.875 0 0 0 1.625 6v12A1.875 1.875 0 0 0 3.5 19.875h18A1.875 1.875 0 0 0 23.375 18V6A1.875 1.875 0 0 0 21.5 4.125m-.375 2.25V8.25H3.875V6.375zm-17.25 11.25V10.5h17.25v7.125zM20 15.375a1.125 1.125 0 0 1-1.125 1.125h-3a1.125 1.125 0 1 1 0-2.25h3A1.125 1.125 0 0 1 20 15.375m-6.375 0A1.125 1.125 0 0 1 12.5 16.5h-1.125a1.125 1.125 0 1 1 0-2.25H12.5a1.125 1.125 0 0 1 1.125 1.125"/></svg>