<svg xmlns="http://www.w3.org/2000/svg" viewBox="0 0 15 16"><path d="M8.2 9.16H6.8c-2-.1-3.6-.4-4.8-.8-.5-.2-1-.4-1.3-.6v2.6c.7.8 3.3 1.5 6.8 1.5s6.1-.8 6.8-1.6v-2.6c-.3.3-.8.5-1.3.7-1.2.4-2.8.7-4.8.8"/><path d="M.7 4.1v2.6c.7.8 3 1.5 6.1 1.6H8.4c3.1-.1 5.4-.8 6.1-1.6V4.1c-1.5 1-4.3 1.4-7 1.4S2 5.1.7 4.1"/><path d="M14.3 2.3C14 1.2 11.6 0 7.5 0S1 1.2.7 2.3V3c.7.9 3.3 1.7 6.8 1.7s6.1-.7 6.8-1.6v-.6-.2M.7 11.3V13.6C1 15 3.9 16 7.5 16c3.6 0 6.5-1 6.8-2.3V11.4c-1.1.8-3.5 1.4-6.8 1.4-3.4-.1-5.7-.7-6.8-1.5"/></svg>