<svg viewBox="0 0 24 24" xmlns="http://www.w3.org/2000/svg" aria-hidden="true" fill="currentColor" height="24px" width="24px"><g clip-path="url(#a)"><path d="M14.91 16.978a4.876 4.876 0 1 0-6.82 0 7.1 7.1 0 0 0-2.813 2.709 1.125 1.125 0 0 0 1.948 1.125 4.968 4.968 0 0 1 8.552 0 1.126 1.126 0 1 0 1.948-1.125 7.1 7.1 0 0 0-2.814-2.709M8.876 13.5a2.625 2.625 0 1 1 5.25 0 2.625 2.625 0 0 1-5.25 0m13.801.9a1.126 1.126 0 0 1-1.576-.225c-.78-1.04-1.86-1.837-2.75-2.029a1.125 1.125 0 0 1-.17-2.148 1.874 1.874 0 1 0-2.323-2.653 1.127 1.127 0 0 1-1.884.18 1.13 1.13 0 0 1-.085-1.267 4.125 4.125 0 1 1 6.87 4.533 8.6 8.6 0 0 1 2.142 2.033 1.125 1.125 0 0 1-.224 1.575M4.65 12.15c-.889.191-1.969.988-2.75 2.029a1.126 1.126 0 0 1-1.799-1.355 8.7 8.7 0 0 1 2.142-2.033 4.125 4.125 0 1 1 6.87-4.533 1.125 1.125 0 1 1-1.969 1.087 1.875 1.875 0 1 0-2.323 2.653 1.125 1.125 0 0 1-.17 2.148z"/></g><defs><clipPath id="a"><path d="M0 0h24v24H0z"/></clipPath></defs></svg>