<svg width="24" height="24" viewBox="0 0 24 24" xmlns="http://www.w3.org/2000/svg">
<g clip-path="url(#clip0_2001_46116)">
<path d="M22.45 14.1C22.3712 14.1591 22.2816 14.2021 22.1861 14.2266C22.0907 14.251 21.9914 14.2564 21.8939 14.2425C21.7964 14.2286 21.7026 14.1956 21.6179 14.1454C21.5331 14.0952 21.4591 14.0288 21.4 13.95C20.948 13.3424 20.3596 12.8494 19.6822 12.5107C19.0048 12.172 18.2573 11.9971 17.5 12C17.3525 12 17.2083 11.9565 17.0854 11.875C16.9625 11.7935 16.8664 11.6775 16.8091 11.5416C16.7701 11.4493 16.7501 11.3502 16.7501 11.25C16.7501 11.1499 16.7701 11.0508 16.8091 10.9585C16.8664 10.8226 16.9625 10.7066 17.0854 10.6251C17.2083 10.5436 17.3525 10.5001 17.5 10.5C17.9208 10.5 18.3332 10.382 18.6903 10.1593C19.0474 9.93665 19.3349 9.61831 19.5201 9.24046C19.7053 8.8626 19.7809 8.44037 19.7382 8.02173C19.6955 7.60308 19.5362 7.2048 19.2785 6.87213C19.0208 6.53946 18.675 6.28572 18.2803 6.13975C17.8856 5.99378 17.4579 5.96141 17.0457 6.04634C16.6336 6.13127 16.2535 6.33008 15.9487 6.62019C15.6438 6.9103 15.4265 7.28009 15.3213 7.68754C15.2966 7.78296 15.2535 7.87259 15.1942 7.95132C15.1349 8.03004 15.0608 8.09633 14.9759 8.14638C14.891 8.19644 14.7971 8.22929 14.6995 8.24305C14.6019 8.25682 14.5026 8.25123 14.4072 8.22661C14.3118 8.20198 14.2222 8.15881 14.1434 8.09955C14.0647 8.04029 13.9984 7.9661 13.9484 7.88122C13.8983 7.79634 13.8655 7.70243 13.8517 7.60486C13.8379 7.50729 13.8435 7.40796 13.8681 7.31255C14.0142 6.74753 14.29 6.22439 14.6738 5.78475C15.0576 5.34511 15.5387 5.00111 16.0788 4.78012C16.6189 4.55913 17.2032 4.46725 17.785 4.51179C18.3669 4.55633 18.9304 4.73606 19.4306 5.03668C19.9308 5.3373 20.3539 5.75051 20.6663 6.24344C20.9787 6.73636 21.1717 7.2954 21.2301 7.87605C21.2884 8.45671 21.2104 9.04297 21.0023 9.58818C20.7942 10.1334 20.4617 10.6225 20.0313 11.0166C21.0511 11.4582 21.9376 12.1589 22.6028 13.0491C22.6619 13.1281 22.7048 13.218 22.7291 13.3136C22.7534 13.4092 22.7587 13.5087 22.7445 13.6063C22.7303 13.7039 22.6969 13.7978 22.6464 13.8825C22.5959 13.9672 22.5292 14.0412 22.45 14.1ZM17.3988 19.875C17.453 19.9604 17.4895 20.0559 17.5059 20.1557C17.5223 20.2555 17.5184 20.3576 17.4943 20.4558C17.4702 20.5541 17.4265 20.6464 17.3658 20.7274C17.3052 20.8083 17.2287 20.8761 17.1412 20.9267C17.0536 20.9773 16.9567 21.0097 16.8563 21.0219C16.7558 21.0341 16.654 21.0259 16.5569 20.9977C16.4597 20.9695 16.3693 20.922 16.291 20.8579C16.2127 20.7939 16.1481 20.7147 16.1013 20.625C15.6288 19.825 14.9559 19.1621 14.149 18.7015C13.3421 18.2409 12.4291 17.9987 11.5 17.9987C10.5709 17.9987 9.65788 18.2409 8.85099 18.7015C8.04409 19.1621 7.37122 19.825 6.89876 20.625C6.85187 20.7147 6.78734 20.7939 6.70905 20.8579C6.63075 20.922 6.54031 20.9695 6.44316 20.9977C6.34602 21.0259 6.24417 21.0341 6.14376 21.0219C6.04334 21.0097 5.94644 20.9773 5.85886 20.9267C5.77129 20.8761 5.69486 20.8083 5.63417 20.7274C5.57349 20.6464 5.5298 20.5541 5.50573 20.4558C5.48167 20.3576 5.47772 20.2555 5.49414 20.1557C5.51056 20.0559 5.54699 19.9604 5.60126 19.875C6.32838 18.6257 7.43707 17.6426 8.76438 17.07C8.0175 16.4982 7.4686 15.7067 7.19482 14.8068C6.92105 13.9068 6.93616 12.9437 7.23805 12.0528C7.53994 11.1619 8.11342 10.388 8.87789 9.83993C9.64235 9.29182 10.5594 8.99704 11.5 8.99704C12.4407 8.99704 13.3577 9.29182 14.1221 9.83993C14.8866 10.388 15.4601 11.1619 15.762 12.0528C16.0639 12.9437 16.079 13.9068 15.8052 14.8068C15.5314 15.7067 14.9825 16.4982 14.2356 17.07C15.563 17.6426 16.6716 18.6257 17.3988 19.875ZM11.5 16.5C12.0934 16.5 12.6734 16.3241 13.1667 15.9945C13.6601 15.6648 14.0446 15.1963 14.2716 14.6481C14.4987 14.0999 14.5581 13.4967 14.4424 12.9148C14.3266 12.3328 14.0409 11.7983 13.6213 11.3787C13.2018 10.9592 12.6672 10.6734 12.0853 10.5577C11.5033 10.4419 10.9001 10.5013 10.352 10.7284C9.80378 10.9555 9.33525 11.34 9.0056 11.8333C8.67596 12.3267 8.50001 12.9067 8.50001 13.5C8.50001 14.2957 8.81608 15.0588 9.37869 15.6214C9.9413 16.184 10.7044 16.5 11.5 16.5ZM6.25001 11.25C6.25001 11.0511 6.17099 10.8604 6.03034 10.7197C5.88969 10.5791 5.69892 10.5 5.50001 10.5C5.07919 10.5 4.66682 10.382 4.30973 10.1593C3.95264 9.93665 3.66515 9.61831 3.47991 9.24046C3.29468 8.8626 3.21912 8.44037 3.26182 8.02173C3.30452 7.60308 3.46377 7.2048 3.72149 6.87213C3.9792 6.53946 4.32504 6.28572 4.71973 6.13975C5.11442 5.99378 5.54213 5.96141 5.95429 6.04634C6.36645 6.13127 6.74653 6.33008 7.05136 6.62019C7.35619 6.9103 7.57355 7.28009 7.67876 7.68754C7.72849 7.88024 7.85273 8.04529 8.02415 8.14638C8.19557 8.24748 8.40013 8.27634 8.59282 8.22661C8.78552 8.17688 8.95057 8.05264 9.05166 7.88122C9.15276 7.7098 9.18161 7.50524 9.13188 7.31255C8.98586 6.74753 8.70999 6.22439 8.32621 5.78475C7.94243 5.34511 7.46134 5.00111 6.92122 4.78012C6.38109 4.55913 5.79685 4.46725 5.21497 4.51179C4.63309 4.55633 4.06964 4.73606 3.56944 5.03668C3.06924 5.3373 2.64611 5.75051 2.33372 6.24344C2.02132 6.73636 1.82828 7.2954 1.76995 7.87605C1.71162 8.45671 1.78962 9.04297 1.99774 9.58818C2.20586 10.1334 2.53835 10.6225 2.96876 11.0166C1.94996 11.4586 1.06443 12.1593 0.40001 13.0491C0.280538 13.2082 0.229174 13.4083 0.257216 13.6053C0.285259 13.8023 0.390411 13.9801 0.549541 14.0996C0.708671 14.219 0.908743 14.2704 1.10574 14.2424C1.30275 14.2143 1.48054 14.1092 1.60001 13.95C2.05206 13.3424 2.64046 12.8494 3.31785 12.5107C3.99523 12.172 4.74268 11.9971 5.50001 12C5.69892 12 5.88969 11.921 6.03034 11.7804C6.17099 11.6397 6.25001 11.449 6.25001 11.25Z"/>
</g>
<defs>
<clipPath id="clip0_2001_46116">
<rect width="24" height="24"/>
</clipPath>
</defs>
</svg>
