<svg width="24" height="24" viewBox="0 0 24 24" xmlns="http://www.w3.org/2000/svg" fill="currentColor"> <g clip-path="url(#clip0_2001_46115)"> <path d="M14.9106 16.9782C15.6027 16.3005 16.0772 15.4321 16.2737 14.4837C16.4701 13.5353 16.3796 12.5498 16.0137 11.653C15.6478 10.7563 15.023 9.98883 14.2191 9.44861C13.4152 8.90838 12.4686 8.61987 11.5 8.61987C10.5315 8.61987 9.58485 8.90838 8.78094 9.44861C7.97704 9.98883 7.35227 10.7563 6.98634 11.653C6.62041 12.5498 6.5299 13.5353 6.72636 14.4837C6.92282 15.4321 7.39734 16.3005 8.0894 16.9782C6.91766 17.601 5.94347 18.5392 5.27689 19.6866C5.13414 19.9445 5.09835 20.2482 5.17722 20.5323C5.25609 20.8164 5.44332 21.0581 5.69862 21.2055C5.95393 21.353 6.2569 21.3943 6.54236 21.3206C6.82782 21.2469 7.07296 21.0642 7.22502 20.8116C7.66462 20.0688 8.29012 19.4534 9.03989 19.0259C9.78967 18.5984 10.6379 18.3736 11.501 18.3736C12.364 18.3736 13.2122 18.5984 13.962 19.0259C14.7118 19.4534 15.3373 20.0688 15.7769 20.8116C15.8493 20.9424 15.947 21.0574 16.0643 21.15C16.1816 21.2426 16.3162 21.3109 16.4603 21.3509C16.6043 21.3908 16.7548 21.4017 16.9031 21.3829C17.0514 21.364 17.1944 21.3158 17.3238 21.2411C17.4532 21.1663 17.5665 21.0666 17.6569 20.9476C17.7474 20.8286 17.8132 20.6927 17.8505 20.548C17.8879 20.4033 17.896 20.2526 17.8745 20.1047C17.8529 19.9568 17.8021 19.8146 17.725 19.6866C17.0579 18.5389 16.0831 17.6007 14.9106 16.9782ZM8.87502 13.5C8.87502 12.9809 9.02897 12.4733 9.31741 12.0417C9.60585 11.61 10.0158 11.2735 10.4955 11.0748C10.9751 10.8762 11.5029 10.8242 12.0121 10.9255C12.5213 11.0268 12.9891 11.2768 13.3562 11.6439C13.7233 12.011 13.9733 12.4787 14.0746 12.9879C14.1759 13.4971 14.1239 14.0249 13.9252 14.5046C13.7265 14.9842 13.3901 15.3942 12.9584 15.6826C12.5267 15.9711 12.0192 16.125 11.5 16.125C10.8038 16.125 10.1361 15.8485 9.64386 15.3562C9.15158 14.8639 8.87502 14.1962 8.87502 13.5ZM22.676 14.3991C22.5578 14.4879 22.4233 14.5526 22.2801 14.5894C22.1369 14.6262 21.9879 14.6345 21.8416 14.6137C21.6952 14.5929 21.5544 14.5434 21.4271 14.4682C21.2999 14.3929 21.1887 14.2933 21.1 14.175C20.3191 13.1353 19.2391 12.3385 18.3503 12.1463C18.114 12.0952 17.9004 11.9693 17.7413 11.7873C17.5821 11.6053 17.4858 11.3768 17.4667 11.1358C17.4475 10.8948 17.5065 10.654 17.635 10.4491C17.7634 10.2443 17.9544 10.0862 18.1797 9.99847C18.4602 9.88898 18.7102 9.71354 18.9085 9.48701C19.1069 9.26048 19.2478 8.98951 19.3193 8.69702C19.3908 8.40452 19.3908 8.09912 19.3193 7.80663C19.2478 7.51414 19.1069 7.24317 18.9085 7.01663C18.7102 6.7901 18.4602 6.61467 18.1797 6.50518C17.8992 6.39569 17.5965 6.35536 17.2971 6.3876C16.9977 6.41985 16.7105 6.52371 16.4598 6.69042C16.2091 6.85712 16.0022 7.08177 15.8566 7.34534C15.7875 7.47891 15.6924 7.59729 15.5769 7.69347C15.4613 7.78966 15.3277 7.86171 15.1838 7.90536C15.0399 7.94901 14.8887 7.96337 14.7392 7.9476C14.5897 7.93184 14.4448 7.88626 14.3132 7.81356C14.1816 7.74086 14.0659 7.64252 13.9729 7.52434C13.88 7.40617 13.8117 7.27056 13.772 7.12553C13.7324 6.9805 13.7222 6.82899 13.7421 6.67996C13.762 6.53092 13.8115 6.38739 13.8878 6.25784C14.1662 5.7656 14.5428 5.33586 14.9943 4.99531C15.4457 4.65476 15.9624 4.41067 16.5122 4.27821C17.0619 4.14575 17.6331 4.12774 18.1901 4.22531C18.7471 4.32288 19.2781 4.53393 19.7501 4.84537C20.2222 5.1568 20.6251 5.56197 20.9339 6.03569C21.2428 6.50941 21.4509 7.04158 21.5454 7.59913C21.6399 8.15667 21.6188 8.7277 21.4833 9.27673C21.3478 9.82576 21.1009 10.3411 20.7578 10.7907C21.5833 11.3405 22.3079 12.0284 22.9 12.8241C23.0791 13.0627 23.1562 13.3626 23.1141 13.658C23.0721 13.9534 22.9145 14.2199 22.676 14.3991ZM4.64971 12.1491C3.76096 12.3413 2.68096 13.1382 1.90002 14.1788C1.72038 14.4173 1.45332 14.5748 1.1576 14.6165C0.861878 14.6581 0.561715 14.5806 0.323145 14.401C0.0845743 14.2213 -0.0728622 13.9543 -0.11453 13.6585C-0.156199 13.3628 -0.0786854 13.0627 0.100957 12.8241C0.693305 12.0286 1.41791 11.3408 2.24314 10.7907C1.90012 10.3411 1.65319 9.82576 1.51771 9.27673C1.38222 8.7277 1.36107 8.15667 1.45557 7.59913C1.55007 7.04158 1.75821 6.50941 2.06704 6.03569C2.37587 5.56197 2.77881 5.1568 3.25083 4.84537C3.72284 4.53393 4.25386 4.32288 4.81088 4.22531C5.3679 4.12774 5.93903 4.14575 6.4888 4.27821C7.03857 4.41067 7.55523 4.65476 8.00669 4.99531C8.45815 5.33586 8.83477 5.7656 9.11314 6.25784C9.18945 6.38739 9.23902 6.53092 9.25891 6.67996C9.27881 6.82899 9.26863 6.9805 9.22897 7.12553C9.18931 7.27056 9.12099 7.40617 9.02803 7.52434C8.93507 7.64252 8.81937 7.74086 8.68776 7.81356C8.55615 7.88626 8.4113 7.93184 8.26178 7.9476C8.11225 7.96337 7.96109 7.94901 7.81721 7.90536C7.67333 7.86171 7.53966 7.78966 7.4241 7.69347C7.30854 7.59729 7.21343 7.47891 7.14439 7.34534C6.99883 7.08177 6.79192 6.85712 6.54118 6.69042C6.29044 6.52371 6.00323 6.41985 5.70386 6.3876C5.40449 6.35536 5.10176 6.39569 4.82127 6.50518C4.54078 6.61467 4.29079 6.7901 4.09243 7.01663C3.89407 7.24317 3.75319 7.51414 3.6817 7.80663C3.61021 8.09912 3.61021 8.40452 3.6817 8.69702C3.75319 8.98951 3.89407 9.26048 4.09243 9.48701C4.29079 9.71354 4.54078 9.88898 4.82127 9.99847C5.04656 10.0862 5.23757 10.2443 5.366 10.4491C5.49443 10.654 5.55344 10.8948 5.53429 11.1358C5.51515 11.3768 5.41886 11.6053 5.25969 11.7873C5.10053 11.9693 4.88697 12.0952 4.65064 12.1463L4.64971 12.1491Z"/> </g> <defs> <clipPath id="clip0_2001_46115"> <rect width="24" height="24"/> </clipPath> </defs> </svg>