<svg viewBox="0 0 24 24" xmlns="http://www.w3.org/2000/svg" aria-hidden="true" fill="currentColor"><g clip-path="url(#a)"><path d="M22.45 14.1a.75.75 0 0 1-1.05-.15A4.84 4.84 0 0 0 17.5 12a.75.75 0 0 1 0-1.5 2.25 2.25 0 1 0-2.179-2.812.751.751 0 0 1-1.453-.375 3.75 3.75 0 1 1 6.163 3.704 6.37 6.37 0 0 1 2.572 2.032.75.75 0 0 1-.153 1.051m-5.051 5.775a.751.751 0 0 1-.842 1.123.75.75 0 0 1-.456-.373 5.344 5.344 0 0 0-9.202 0 .749.749 0 1 1-1.298-.75 6.76 6.76 0 0 1 3.163-2.805 4.5 4.5 0 1 1 5.472 0 6.76 6.76 0 0 1 3.163 2.805M11.5 16.5a3 3 0 1 0 0-6 3 3 0 0 0 0 6m-5.25-5.25a.75.75 0 0 0-.75-.75 2.25 2.25 0 1 1 2.179-2.812.75.75 0 0 0 1.453-.375 3.75 3.75 0 1 0-6.163 3.704A6.37 6.37 0 0 0 .4 13.049a.75.75 0 1 0 1.2.901A4.84 4.84 0 0 1 5.5 12a.75.75 0 0 0 .75-.75"/></g><defs><clipPath id="a"><path d="M0 0h24v24H0z"/></clipPath></defs></svg>