<svg viewBox="0 0 24 24" xmlns="http://www.w3.org/2000/svg" aria-hidden="true" fill="currentColor" height="24px" width="24px"><g clip-path="url(#a)"><path d="M22.875 9.75h-2.324l-4.068-5.603a1.875 1.875 0 0 0-2.963-.088l-1.202 1.393-.027.033a.375.375 0 0 1-.582 0l-.027-.033L10.48 4.06a1.875 1.875 0 0 0-2.963.088L3.449 9.75H1.125a1.125 1.125 0 0 0 0 2.25h21.75a1.125 1.125 0 1 0 0-2.25M9.058 5.855l.909 1.053a2.625 2.625 0 0 0 4.066 0l.909-1.053L17.77 9.75H6.23zm7.817 7.27a3.76 3.76 0 0 0-3.578 2.625h-2.594a3.75 3.75 0 1 0 0 2.25h2.595a3.75 3.75 0 1 0 3.577-4.875m-9.75 5.25a1.5 1.5 0 1 1 0-3 1.5 1.5 0 0 1 0 3m9.75 0a1.5 1.5 0 1 1 0-3 1.5 1.5 0 0 1 0 3"/></g><defs><clipPath id="a"><path d="M0 0h24v24H0z"/></clipPath></defs></svg>