<svg viewBox="0 0 24 24" xmlns="http://www.w3.org/2000/svg" aria-hidden="true" fill="currentColor"><path d="m20.03 7.72-5.25-5.25a.75.75 0 0 0-.53-.22h-9a1.5 1.5 0 0 0-1.5 1.5v16.5a1.5 1.5 0 0 0 1.5 1.5h13.5a1.5 1.5 0 0 0 1.5-1.5v-12a.75.75 0 0 0-.22-.53M15 4.81l2.69 2.69H15zm3.75 15.44H5.25V3.75h8.25v4.5a.75.75 0 0 0 .75.75h4.5zm-3.97-5.78a.747.747 0 0 1 0 1.06l-2.25 2.25a.747.747 0 0 1-1.06 0l-2.25-2.25a.75.75 0 1 1 1.06-1.06l.97.97v-4.19a.75.75 0 1 1 1.5 0v4.19l.97-.97a.747.747 0 0 1 1.06 0"/></svg>