<svg viewBox="0 0 24 24" xmlns="http://www.w3.org/2000/svg" aria-hidden="true" fill="currentColor"><path d="M4.875 13.5h-1.5a.75.75 0 0 0-.75.75v5.25a.75.75 0 0 0 .75.75h1.5a3.375 3.375 0 0 0 0-6.75m0 5.25h-.75V15h.75a1.875 1.875 0 1 1 0 3.75m15.893-.46a.75.75 0 0 1 .024 1.06 2.82 2.82 0 0 1-2.042.9c-1.655 0-3-1.514-3-3.375s1.345-3.375 3-3.375a2.82 2.82 0 0 1 2.042.9.75.75 0 0 1-1.084 1.037A1.33 1.33 0 0 0 18.75 15c-.827 0-1.5.844-1.5 1.875s.673 1.875 1.5 1.875a1.34 1.34 0 0 0 .958-.437.75.75 0 0 1 1.06-.023M12 13.5c-1.655 0-3 1.514-3 3.375s1.345 3.375 3 3.375 3-1.514 3-3.375-1.345-3.375-3-3.375m0 5.25c-.827 0-1.5-.844-1.5-1.875S11.173 15 12 15s1.5.844 1.5 1.875-.673 1.875-1.5 1.875m-7.5-7.5a.75.75 0 0 0 .75-.75V3.75h8.25v4.5a.75.75 0 0 0 .75.75h4.5v1.5a.75.75 0 1 0 1.5 0V8.25a.75.75 0 0 0-.22-.53l-5.25-5.25a.75.75 0 0 0-.53-.22h-9a1.5 1.5 0 0 0-1.5 1.5v6.75a.75.75 0 0 0 .75.75M15 4.81l2.69 2.69H15z"/></svg>