<svg viewBox="0 0 24 24" xmlns="http://www.w3.org/2000/svg" aria-hidden="true" fill="currentColor"><path d="M14.625 19.5a.75.75 0 0 1-.75.75H11.25a.75.75 0 0 1-.75-.75v-5.25a.75.75 0 1 1 1.5 0v4.5h1.875a.75.75 0 0 1 .75.75m-5.94-5.86a.75.75 0 0 0-1.045.174l-1.265 1.771-1.265-1.77a.75.75 0 1 0-1.218.87l1.561 2.19-1.563 2.19a.75.75 0 0 0 1.218.87l1.267-1.77 1.265 1.77a.75.75 0 0 0 1.218-.87l-1.561-2.19 1.563-2.19a.75.75 0 0 0-.174-1.045m9.277 2.42c-.375-.108-.764-.22-.98-.36-.117-.077-.116-.093-.105-.178a.43.43 0 0 1 .187-.344c.432-.292 1.439-.161 1.858-.052a.75.75 0 1 0 .382-1.452c-.198-.051-1.969-.489-3.078.26a1.93 1.93 0 0 0-.839 1.4c-.187 1.49 1.28 1.914 2.156 2.167 1.131.327 1.23.461 1.198.712-.029.226-.118.312-.201.368-.431.287-1.421.146-1.832.033a.751.751 0 1 0-.402 1.448c.465.123.943.186 1.424.188.546 0 1.153-.094 1.64-.418a1.95 1.95 0 0 0 .86-1.428c.207-1.623-1.341-2.076-2.268-2.344M3.75 10.5V3.75a1.5 1.5 0 0 1 1.5-1.5h9a.75.75 0 0 1 .53.22l5.25 5.25a.75.75 0 0 1 .22.53v2.25a.75.75 0 1 1-1.5 0V9h-4.5a.75.75 0 0 1-.75-.75v-4.5H5.25v6.75a.75.75 0 1 1-1.5 0M15 7.5h2.689L15 4.81z"/></svg>