<svg viewBox="0 0 24 24" xmlns="http://www.w3.org/2000/svg" aria-hidden="true" fill="currentColor"><path d="m22.473 11.719-1.54-8.25a1.5 1.5 0 0 0-1.838-1.18l-.03.009-4.923 1.452H9.858L4.934 2.302l-.029-.008a1.5 1.5 0 0 0-1.838 1.18l-1.54 8.245a1.48 1.48 0 0 0 .855 1.642c.198.09.412.138.63.139.26 0 .514-.07.738-.203v3.953A3.75 3.75 0 0 0 7.5 21h9a3.75 3.75 0 0 0 3.75-3.75v-3.952c.223.133.478.203.738.203.217 0 .432-.048.63-.138a1.48 1.48 0 0 0 .855-1.644M3 12l1.54-8.25 3.944 1.16zm13.5 7.5h-3.75v-1.19l1.28-1.28a.75.75 0 1 0-1.06-1.06l-.97.97-.97-.97a.75.75 0 0 0-1.06 1.06l1.28 1.28v1.19H7.5a2.25 2.25 0 0 1-2.25-2.25v-5.709l4.868-6.291h3.764l4.868 6.291v5.709a2.25 2.25 0 0 1-2.25 2.25M21 12l-5.484-7.09 3.944-1.16zM9.75 13.125a1.125 1.125 0 1 1-2.25 0 1.125 1.125 0 0 1 2.25 0m6.75 0a1.125 1.125 0 1 1-2.25 0 1.125 1.125 0 0 1 2.25 0"/></svg>