<svg viewBox="0 0 24 24" xmlns="http://www.w3.org/2000/svg" aria-hidden="true" fill="currentColor"><path d="M20.055 19.746a.75.75 0 1 1-1.11 1.01l-3.281-3.605A2.25 2.25 0 0 1 12.75 15q-.001-.476.113-.938L9 9.813a.75.75 0 1 1-1.5-.062c0-.46.07-.917.208-1.356L6.047 6.563a6.7 6.7 0 0 0-.797 3.188c0 2.503.8 3.274 1.647 4.091.81.784 1.728 1.666 1.728 3.784A3.375 3.375 0 0 0 12 21c.96 0 1.73-.39 2.422-1.227a.75.75 0 1 1 1.156.954C14.608 21.903 13.406 22.5 12 22.5a4.88 4.88 0 0 1-4.875-4.875c0-1.48-.532-1.994-1.27-2.704-.937-.906-2.105-2.03-2.105-5.171a8.2 8.2 0 0 1 1.238-4.348L3.945 4.255a.75.75 0 1 1 1.11-1.009zM8.54 3.954a6.75 6.75 0 0 1 10.21 5.797.75.75 0 1 0 1.5 0A8.25 8.25 0 0 0 7.77 2.667a.75.75 0 0 0 .77 1.287m6.49 7.969a.75.75 0 0 0 1.01-.322 3.9 3.9 0 0 0 .46-1.85 4.5 4.5 0 0 0-5.96-4.258.75.75 0 0 0 .487 1.419A3 3 0 0 1 15 9.751c0 .404-.1.801-.293 1.157a.75.75 0 0 0 .323 1.01z"/></svg>