<svg viewBox="0 0 24 24" xmlns="http://www.w3.org/2000/svg" aria-hidden="true" fill="currentColor" height="24px" width="24px"><path d="M20.209 9.75a1.125 1.125 0 1 1-2.25 0 6.375 6.375 0 0 0-12.75 0c0 2.344.71 3.028 1.532 3.821s1.843 1.777 1.843 4.054a3 3 0 0 0 3 3c.843 0 1.517-.347 2.132-1.091a1.125 1.125 0 0 1 1.735 1.432c-1.047 1.267-2.348 1.909-3.867 1.909a5.256 5.256 0 0 1-5.25-5.25c0-1.32-.435-1.74-1.155-2.437-.99-.951-2.22-2.139-2.22-5.438a8.625 8.625 0 0 1 17.25 0m-3.763 5.026a1.125 1.125 0 0 0-1.537.41.375.375 0 0 1-.7-.187c0-.713.342-1.206.9-1.95.6-.8 1.35-1.799 1.35-3.299a4.875 4.875 0 1 0-9.75 0 1.125 1.125 0 1 0 2.25 0 2.625 2.625 0 0 1 5.25 0c0 .713-.343 1.206-.9 1.95-.6.802-1.35 1.8-1.35 3.3a2.625 2.625 0 0 0 4.898 1.313 1.125 1.125 0 0 0-.41-1.537"/></svg>