<svg width="24" height="24" viewBox="0 0 24 24" xmlns="http://www.w3.org/2000/svg">
<path d="M20.25 9.75C20.25 9.94891 20.171 10.1397 20.0303 10.2803C19.8897 10.421 19.6989 10.5 19.5 10.5C19.3011 10.5 19.1103 10.421 18.9697 10.2803C18.829 10.1397 18.75 9.94891 18.75 9.75C18.75 7.95979 18.0388 6.2429 16.773 4.97703C15.5071 3.71116 13.7902 3 12 3C10.2098 3 8.4929 3.71116 7.22703 4.97703C5.96116 6.2429 5.25 7.95979 5.25 9.75C5.25 12.2531 6.04969 13.0238 6.89719 13.8412C7.70719 14.625 8.625 15.5072 8.625 17.625C8.625 18.5201 8.98058 19.3785 9.61351 20.0115C10.2464 20.6444 11.1049 21 12 21C12.96 21 13.7297 20.61 14.4216 19.7728C14.4835 19.6947 14.5604 19.6298 14.6478 19.5818C14.7352 19.5337 14.8312 19.5036 14.9304 19.4932C15.0295 19.4827 15.1297 19.4921 15.2252 19.5209C15.3206 19.5496 15.4094 19.5971 15.4863 19.6605C15.5632 19.7239 15.6267 19.8021 15.673 19.8903C15.7194 19.9786 15.7477 20.0752 15.7563 20.1745C15.7648 20.2738 15.7535 20.3739 15.723 20.4688C15.6925 20.5636 15.6433 20.6515 15.5784 20.7272C14.6072 21.9037 13.4062 22.5 12 22.5C10.7075 22.4985 9.46842 21.9844 8.5545 21.0705C7.64058 20.1566 7.12649 18.9175 7.125 17.625C7.125 16.1447 6.5925 15.6309 5.85562 14.9213C4.91812 14.0156 3.75 12.8906 3.75 9.75C3.75 7.56196 4.61919 5.46354 6.16637 3.91637C7.71354 2.36919 9.81196 1.5 12 1.5C14.188 1.5 16.2865 2.36919 17.8336 3.91637C19.3808 5.46354 20.25 7.56196 20.25 9.75ZM16.6753 15.1012C16.59 15.0518 16.4958 15.0197 16.3981 15.0066C16.3003 14.9936 16.201 15 16.1057 15.0255C16.0105 15.0509 15.9212 15.0949 15.8429 15.1548C15.7647 15.2148 15.699 15.2896 15.6497 15.375C15.5672 15.5181 15.4397 15.6299 15.2872 15.6931C15.1346 15.7564 14.9654 15.7675 14.8059 15.7247C14.6464 15.682 14.5054 15.5878 14.4049 15.4568C14.3044 15.3257 14.2499 15.1652 14.25 15C14.25 14.1253 14.7019 13.5225 15.225 12.825C15.8222 12.0281 16.5 11.1253 16.5 9.75C16.5 8.55653 16.0259 7.41193 15.182 6.56802C14.3381 5.72411 13.1935 5.25 12 5.25C10.8065 5.25 9.66193 5.72411 8.81802 6.56802C7.97411 7.41193 7.5 8.55653 7.5 9.75C7.5 9.94891 7.57902 10.1397 7.71967 10.2803C7.86032 10.421 8.05109 10.5 8.25 10.5C8.44891 10.5 8.63968 10.421 8.78033 10.2803C8.92098 10.1397 9 9.94891 9 9.75C9 8.95435 9.31607 8.19129 9.87868 7.62868C10.4413 7.06607 11.2044 6.75 12 6.75C12.7956 6.75 13.5587 7.06607 14.1213 7.62868C14.6839 8.19129 15 8.95435 15 9.75C15 10.6247 14.5481 11.2275 14.025 11.925C13.4278 12.7219 12.75 13.6247 12.75 15C12.7502 15.4952 12.9137 15.9764 13.2152 16.3692C13.5167 16.762 13.9393 17.0444 14.4176 17.1726C14.8959 17.3007 15.4031 17.2676 15.8606 17.0782C16.3181 16.8888 16.7004 16.5537 16.9481 16.125C17.0475 15.953 17.0746 15.7486 17.0234 15.5567C16.9723 15.3648 16.8471 15.201 16.6753 15.1012Z"/>
</svg>
