<svg viewBox="0 0 24 24" xmlns="http://www.w3.org/2000/svg" aria-hidden="true" fill="currentColor"><path d="M20.25 4.5V9a.75.75 0 1 1-1.5 0V6.31l-3.97 3.97a.75.75 0 1 1-1.06-1.06l3.97-3.97H15a.75.75 0 1 1 0-1.5h4.5a.75.75 0 0 1 .75.75M9.22 13.72l-3.97 3.97V15a.75.75 0 1 0-1.5 0v4.5a.75.75 0 0 0 .75.75H9a.75.75 0 1 0 0-1.5H6.31l3.97-3.97a.75.75 0 1 0-1.06-1.06m10.28.53a.75.75 0 0 0-.75.75v2.69l-3.97-3.97a.75.75 0 1 0-1.06 1.06l3.97 3.97H15a.75.75 0 1 0 0 1.5h4.5a.75.75 0 0 0 .75-.75V15a.75.75 0 0 0-.75-.75m-13.19-9H9a.75.75 0 0 0 0-1.5H4.5a.75.75 0 0 0-.75.75V9a.75.75 0 0 0 1.5 0V6.31l3.97 3.97a.75.75 0 1 0 1.06-1.06z"/></svg>