<svg viewBox="0 0 24 24" xmlns="http://www.w3.org/2000/svg" aria-hidden="true" fill="currentColor" height="24px" width="24px"><g clip-path="url(#a)"><path d="M4.832 2.993a1.125 1.125 0 1 0-1.665 1.514l1.5 1.654c-3.23 2.15-4.63 5.237-4.698 5.382a1.13 1.13 0 0 0 0 .915c.034.076.856 1.899 2.67 3.713 2.427 2.423 5.486 3.704 8.86 3.704 1.641.01 3.267-.31 4.782-.937l1.884 2.071a1.125 1.125 0 0 0 1.665-1.513zM11.5 17.625c-2.774 0-5.2-1.006-7.21-2.989A12.3 12.3 0 0 1 2.267 12c.494-.873 1.762-2.803 3.938-4.152l8.446 9.291a10.3 10.3 0 0 1-3.151.486m11.531-5.167c-.034.075-.844 1.874-2.625 3.67a1.124 1.124 0 1 1-1.594-1.584A12.2 12.2 0 0 0 20.732 12a12.2 12.2 0 0 0-2.022-2.636C16.7 7.38 14.274 6.375 11.5 6.375q-.472 0-.938.04a1.125 1.125 0 1 1-.187-2.242c.368-.032.75-.048 1.125-.048 3.375 0 6.434 1.282 8.858 3.705 1.814 1.814 2.636 3.637 2.67 3.713a1.13 1.13 0 0 1 .003.915"/></g><defs><clipPath id="a"><path d="M0 0h24v24H0z"/></clipPath></defs></svg>