<svg viewBox="0 0 24 24" xmlns="http://www.w3.org/2000/svg" aria-hidden="true" fill="currentColor"><g clip-path="url(#a)"><path d="M4.555 3.245a.75.75 0 1 0-1.11 1.01l1.804 1.984c-3.405 2.09-4.87 5.31-4.934 5.457a.75.75 0 0 0 0 .61c.032.074.827 1.834 2.592 3.6C5.259 18.255 8.23 19.5 11.5 19.5a11.9 11.9 0 0 0 4.882-1.015l2.062 2.27a.75.75 0 1 0 1.11-1.01zm4.437 7.11 3.907 4.299a3 3 0 0 1-3.907-4.299M11.5 18c-2.886 0-5.407-1.05-7.493-3.117A12.5 12.5 0 0 1 1.844 12c.44-.824 1.843-3.13 4.439-4.63L7.97 9.222a4.5 4.5 0 0 0 5.968 6.563l1.381 1.518A10.5 10.5 0 0 1 11.5 18m.563-8.947a.75.75 0 0 1 .28-1.473 4.515 4.515 0 0 1 3.635 3.997.75.75 0 0 1-.676.817h-.07a.75.75 0 0 1-.75-.681 3.01 3.01 0 0 0-2.42-2.66m10.62 3.252c-.04.089-.99 2.191-3.128 4.107a.75.75 0 0 1-1.068-.05.75.75 0 0 1 .068-1.068A12.5 12.5 0 0 0 21.16 12a12.5 12.5 0 0 0-2.168-2.885C16.907 7.05 14.386 6 11.5 6q-.913 0-1.815.147a.75.75 0 1 1-.248-1.48A12.6 12.6 0 0 1 11.5 4.5c3.27 0 6.24 1.243 8.593 3.595 1.765 1.765 2.56 3.527 2.592 3.601a.75.75 0 0 1 0 .61z"/></g><defs><clipPath id="a"><path d="M0 0h24v24H0z"/></clipPath></defs></svg>