<svg viewBox="0 0 24 24" xmlns="http://www.w3.org/2000/svg" aria-hidden="true" fill="currentColor"><g clip-path="url(#a)"><path d="M23.031 11.543c-.035-.075-.856-1.899-2.67-3.713-2.427-2.423-5.486-3.705-8.861-3.705S5.066 5.407 2.64 7.83C.827 9.644.006 11.467-.03 11.543a1.13 1.13 0 0 0 0 .915c.034.076.856 1.899 2.67 3.713 2.427 2.423 5.486 3.704 8.86 3.704 3.376 0 6.435-1.28 8.858-3.704 1.815-1.814 2.637-3.637 2.671-3.713a1.13 1.13 0 0 0 .003-.915m-4.318 3.094c-2.013 1.982-4.44 2.988-7.213 2.988-2.774 0-5.2-1.006-7.21-2.989A12.2 12.2 0 0 1 2.267 12 12.2 12.2 0 0 1 4.29 9.365c2.01-1.984 4.436-2.99 7.21-2.99s5.2 1.006 7.21 2.99A12.2 12.2 0 0 1 20.732 12a12.2 12.2 0 0 1-2.022 2.636zM11.5 7.875a4.125 4.125 0 1 0 0 8.25 4.125 4.125 0 0 0 0-8.25m0 6a1.875 1.875 0 1 1 0-3.75 1.875 1.875 0 0 1 0 3.75"/></g><defs><clipPath id="a"><path d="M0 0h24v24H0z"/></clipPath></defs></svg>