<svg viewBox="0 0 24 24" xmlns="http://www.w3.org/2000/svg" aria-hidden="true" fill="currentColor"><path d="M12.828 21.031a.75.75 0 0 1-1.04.21 17.17 17.17 0 0 0-9.538-2.875.75.75 0 1 1 0-1.5 18.67 18.67 0 0 1 10.369 3.125.75.75 0 0 1 .209 1.04M2.25 13.866a.75.75 0 1 0 0 1.5 20.14 20.14 0 0 1 14.172 5.785.75.75 0 1 0 1.05-1.07A21.63 21.63 0 0 0 2.25 13.865m19.5 1.5a20.3 20.3 0 0 0-4.555.514q.773.586 1.5 1.234a19 19 0 0 1 3.055-.248.75.75 0 1 1 0 1.5q-.842 0-1.673.08.78.814 1.494 1.701a.75.75 0 1 1-1.17.938 23.16 23.16 0 0 0-18.151-8.72.75.75 0 1 1 0-1.5 25 25 0 0 1 4.5.41v-3.41a.75.75 0 0 1 .3-.6l6-4.5a.75.75 0 0 1 .9 0l6 4.5a.75.75 0 0 1 .3.6v3.047q.746-.046 1.5-.046a.75.75 0 1 1 0 1.5 23.1 23.1 0 0 0-7.9 1.377q.886.469 1.731 1.01c2.003-.59 4.08-.889 6.169-.887a.75.75 0 1 1 0 1.5m-10.5-6.75h4.5a.75.75 0 0 1 .75.75v2.057q1.113-.24 2.25-.375V8.24L13.5 4.303 8.25 8.241v3.357q1.143.281 2.25.673V9.366a.75.75 0 0 1 .75-.75m.757 4.244A25 25 0 0 1 15 11.798v-1.682h-3v2.741z"/></svg>