<svg viewBox="0 0 24 24" xmlns="http://www.w3.org/2000/svg" aria-hidden="true" fill="currentColor"><path d="M19.028 22.269H8.9a.68.68 0 0 1-.682-.683v-6.955c0-.377.306-.682.682-.682h10.127c.377 0 .682.305.682.682v6.955a.68.68 0 0 1-.682.683m-9.444-1.365h8.761v-5.59h-8.76z"/><path d="M21.318 17.8h-2.08a.682.682 0 1 1 0-1.364h1.397v-6.141c0-.376-.357-.682-.795-.682H8.036c-.439 0-.796.306-.796.682v6.14h1.255a.682.682 0 1 1 0 1.365H6.558a.68.68 0 0 1-.683-.682v-6.823c0-1.128.97-2.047 2.16-2.047H19.84c1.191 0 2.16.919 2.16 2.047v6.823a.68.68 0 0 1-.682.682"/><path d="M17.565 13.024a1.024 1.024 0 1 0 0-2.047 1.024 1.024 0 0 0 0 2.047m-.87 4.57h-5.46a.682.682 0 1 1 0-1.364h5.46a.682.682 0 1 1 0 1.365m-2.557 2.316h-2.902a.682.682 0 1 1 0-1.364h2.902a.682.682 0 1 1 0 1.364m4.845-10.607a.68.68 0 0 1-.683-.682V6.01l-2.916-2.916H9.53v5.438a.682.682 0 1 1-1.365 0V2.887c0-.637.519-1.156 1.156-1.156h6.345c.181 0 .355.072.483.2l3.316 3.316c.128.128.2.302.2.482v2.893a.68.68 0 0 1-.682.681"/><path d="M18.983 6.41h-3.317a.68.68 0 0 1-.682-.681V2.414a.682.682 0 1 1 1.365 0v2.633h2.634a.682.682 0 1 1 0 1.364M5.833 18.999H3.407A1.41 1.41 0 0 1 2 17.59V8.424a1.41 1.41 0 0 1 1.407-1.408h2.426A1.41 1.41 0 0 1 7.24 8.424v9.167c0 .776-.631 1.407-1.407 1.407M3.408 8.382a.043.043 0 0 0-.043.043v9.166c0 .023.02.043.043.043h2.426a.043.043 0 0 0 .042-.043V8.425a.043.043 0 0 0-.042-.043z"/></svg>