<svg viewBox="0 0 24 24" xmlns="http://www.w3.org/2000/svg" aria-hidden="true" fill="currentColor"><path d="M5.438 14.25h-1.5a.75.75 0 0 0-.75.75v5.25a.75.75 0 1 0 1.5 0v-.75h.75a2.625 2.625 0 0 0 0-5.25m0 3.75h-.75v-2.25h.75a1.125 1.125 0 1 1 0 2.25m15.375 1.582a.75.75 0 0 1-.209.518 2.82 2.82 0 0 1-2.041.9c-1.655 0-3-1.514-3-3.375s1.345-3.374 3-3.374a2.76 2.76 0 0 1 1.545.479.752.752 0 1 1-.844 1.244 1.24 1.24 0 0 0-.701-.223c-.827 0-1.5.843-1.5 1.874s.673 1.875 1.5 1.875c.27-.003.533-.092.75-.255v-.495a.75.75 0 1 1 0-1.5h.75a.75.75 0 0 1 .75.75zm-6.375-4.581v5.25a.75.75 0 0 1-1.36.435l-2.39-3.342v2.906a.75.75 0 1 1-1.5 0V15a.75.75 0 0 1 1.36-.435l2.39 3.342V15a.75.75 0 1 1 1.5 0M4.313 12a.75.75 0 0 0 .75-.75V4.5h8.25V9a.75.75 0 0 0 .75.75h4.5v1.5a.75.75 0 1 0 1.5 0V9a.75.75 0 0 0-.22-.531l-5.25-5.25a.75.75 0 0 0-.53-.22h-9a1.5 1.5 0 0 0-1.5 1.5v6.75a.75.75 0 0 0 .75.75m10.5-6.44 2.69 2.69h-2.69z"/></svg>