<svg viewBox="0 0 24 24" xmlns="http://www.w3.org/2000/svg" aria-hidden="true" fill="currentColor" height="24px" width="24px"><path d="M11.812 13.876h-1.5A1.125 1.125 0 0 0 9.187 15v5.25a1.125 1.125 0 0 0 2.25 0v-.376h.375a3 3 0 1 0 0-6m0 3.75h-.375v-1.5h.375a.75.75 0 1 1 0 1.5m9.75 1.956c0 .29-.111.569-.312.778a3.2 3.2 0 0 1-2.313 1.015c-1.86 0-3.375-1.681-3.375-3.75s1.515-3.75 3.375-3.75a3.13 3.13 0 0 1 1.755.544 1.124 1.124 0 1 1-1.259 1.865.9.9 0 0 0-.496-.159c-.609 0-1.125.688-1.125 1.5s.516 1.5 1.125 1.5a1 1 0 0 0 .254-.039 1.125 1.125 0 0 1 .871-1.835h.375a1.125 1.125 0 0 1 1.125 1.124zm-13.5-4.581v3.562a2.812 2.812 0 1 1-5.625 0 1.125 1.125 0 0 1 2.25 0 .562.562 0 1 0 1.125 0v-3.562a1.125 1.125 0 0 1 2.25 0m-3-3a1.125 1.125 0 0 0 1.125-1.125v-6h7.125v4.5a1.125 1.125 0 0 0 1.125 1.125h4.5v.375a1.125 1.125 0 0 0 2.25 0V9c0-.298-.118-.584-.329-.795l-5.25-5.25a1.13 1.13 0 0 0-.796-.33h-9A1.875 1.875 0 0 0 3.937 4.5v6.376A1.125 1.125 0 0 0 5.062 12m10.5-5.907L17.72 8.25h-2.157z"/></svg>