<svg width="24" height="24" viewBox="0 0 24 24" xmlns="http://www.w3.org/2000/svg">
<path d="M7.00581 12.0269C7.01118 13.9942 6.55658 15.9355 5.67831 17.6959C5.63639 17.7872 5.57656 17.8691 5.50238 17.9368C5.42819 18.0045 5.34117 18.0566 5.24646 18.0901C5.15175 18.1235 5.05129 18.1376 4.95104 18.1315C4.85079 18.1253 4.75279 18.0992 4.66286 18.0544C4.57293 18.0097 4.49289 17.9474 4.4275 17.8712C4.36211 17.7949 4.3127 17.7063 4.28219 17.6106C4.25169 17.5149 4.24072 17.4141 4.24993 17.3141C4.25914 17.2141 4.28834 17.1169 4.33581 17.0284C5.11019 15.4752 5.51084 13.7624 5.50581 12.0269C5.50405 11.0148 5.73076 10.0153 6.16904 9.10307C6.60732 8.1908 7.24586 7.38923 8.03706 6.75811C8.19234 6.63379 8.39064 6.57624 8.58834 6.59813C8.78605 6.62002 8.96696 6.71955 9.09128 6.87482C9.2156 7.0301 9.27314 7.2284 9.25126 7.42611C9.22937 7.62381 9.12984 7.80472 8.97456 7.92904C8.35904 8.41977 7.86229 9.04317 7.5214 9.75272C7.1805 10.4623 7.00425 11.2397 7.00581 12.0269ZM12.2558 11.2769C12.0569 11.2769 11.8661 11.3559 11.7255 11.4965C11.5848 11.6372 11.5058 11.8279 11.5058 12.0269C11.5057 14.9489 10.7637 17.823 9.34956 20.38C9.25309 20.554 9.22971 20.7593 9.28456 20.9506C9.33942 21.1418 9.46801 21.3035 9.64206 21.4C9.81611 21.4965 10.0214 21.5198 10.2126 21.465C10.4039 21.4101 10.5656 21.2815 10.6621 21.1075C12.1992 18.3277 13.0056 15.2033 13.0058 12.0269C13.0058 11.8279 12.9268 11.6372 12.7861 11.4965C12.6455 11.3559 12.4547 11.2769 12.2558 11.2769ZM12.2558 8.27686C11.2612 8.27686 10.3074 8.67194 9.60416 9.37521C8.9009 10.0785 8.50581 11.0323 8.50581 12.0269C8.50581 12.2258 8.58483 12.4165 8.72548 12.5572C8.86613 12.6978 9.0569 12.7769 9.25581 12.7769C9.45472 12.7769 9.64549 12.6978 9.78614 12.5572C9.92679 12.4165 10.0058 12.2258 10.0058 12.0269C10.0058 11.4301 10.2429 10.8578 10.6648 10.4359C11.0868 10.0139 11.6591 9.77686 12.2558 9.77686C12.8525 9.77686 13.4248 10.0139 13.8468 10.4359C14.2688 10.8578 14.5058 11.4301 14.5058 12.0269C14.5136 15.009 13.8567 17.9554 12.583 20.6519C12.541 20.7412 12.5169 20.8379 12.5123 20.9365C12.5076 21.0351 12.5224 21.1337 12.5558 21.2266C12.5893 21.3195 12.6407 21.4049 12.7071 21.4779C12.7735 21.5509 12.8537 21.6101 12.943 21.6522C13.0323 21.6942 13.129 21.7183 13.2277 21.7229C13.3263 21.7276 13.4248 21.7128 13.5177 21.6793C13.6106 21.6459 13.696 21.5945 13.769 21.5281C13.842 21.4617 13.9013 21.3815 13.9433 21.2922C15.3105 18.3953 16.0151 15.2302 16.0058 12.0269C16.0058 11.0323 15.6107 10.0785 14.9075 9.37521C14.2042 8.67194 13.2504 8.27686 12.2558 8.27686ZM12.2558 2.27686C9.67079 2.27959 7.19242 3.30769 5.36453 5.13558C3.53665 6.96347 2.50854 9.44183 2.50581 12.0269C2.5072 12.9634 2.34867 13.8933 2.03706 14.7765C1.9708 14.9641 1.98177 15.1704 2.06757 15.3499C2.15337 15.5294 2.30696 15.6675 2.49456 15.7337C2.68216 15.8 2.8884 15.789 3.06791 15.7032C3.24741 15.6174 3.38549 15.4638 3.45175 15.2762C3.81969 14.2324 4.00706 13.1336 4.00581 12.0269C4.00581 9.83882 4.875 7.7404 6.42218 6.19322C7.96935 4.64605 10.0678 3.77686 12.2558 3.77686C14.4438 3.77686 16.5423 4.64605 18.0894 6.19322C19.6366 7.7404 20.5058 9.83882 20.5058 12.0269C20.5062 13.7405 20.3401 15.4501 20.0099 17.1315C19.9908 17.2282 19.9909 17.3277 20.0102 17.4242C20.0296 17.5208 20.0678 17.6127 20.1226 17.6945C20.1775 17.7764 20.2479 17.8466 20.3299 17.9012C20.4119 17.9558 20.5038 17.9937 20.6005 18.0128C20.6484 18.0221 20.697 18.0268 20.7458 18.0269C20.9194 18.0267 21.0875 17.9663 21.2215 17.856C21.3555 17.7458 21.4472 17.5924 21.4808 17.4222C21.8301 15.645 22.0059 13.838 22.0058 12.0269C22.0028 9.44191 20.9746 6.96369 19.1468 5.13585C17.319 3.30802 14.8408 2.27983 12.2558 2.27686ZM9.10581 14.2928C8.9113 14.2541 8.70937 14.294 8.54422 14.4038C8.37907 14.5136 8.26413 14.6844 8.22456 14.8787C7.92024 16.3765 7.37538 17.8151 6.61112 19.1387C6.51167 19.311 6.48473 19.5158 6.53625 19.708C6.58776 19.9001 6.7135 20.064 6.88581 20.1634C7.05812 20.2629 7.26288 20.2898 7.45504 20.2383C7.64721 20.1868 7.81104 20.061 7.9105 19.8887C8.75508 18.4251 9.35665 16.8341 9.69175 15.1778C9.71145 15.0812 9.71193 14.9817 9.69314 14.8849C9.67435 14.7881 9.63667 14.696 9.58225 14.6138C9.52783 14.5316 9.45774 14.461 9.37599 14.4059C9.29423 14.3508 9.20243 14.3124 9.10581 14.2928ZM12.2558 5.27686C11.9737 5.27692 11.692 5.29445 11.4121 5.32936C11.2184 5.35843 11.0438 5.4621 10.9255 5.61822C10.8073 5.77434 10.7548 5.97052 10.7793 6.16482C10.8038 6.35913 10.9033 6.53614 11.0566 6.65804C11.2099 6.77994 11.4047 6.83705 11.5996 6.81717C12.3384 6.72529 13.0884 6.7914 13.7998 7.01111C14.5112 7.23082 15.1678 7.59913 15.7261 8.09165C16.2845 8.58417 16.7319 9.18967 17.0387 9.86807C17.3455 10.5465 17.5047 11.2823 17.5058 12.0269C17.5056 12.9984 17.4455 13.969 17.3258 14.9331C17.3127 15.0312 17.319 15.1308 17.3446 15.2264C17.3701 15.322 17.4143 15.4116 17.4746 15.49C17.5349 15.5684 17.6101 15.6341 17.6959 15.6834C17.7817 15.7326 17.8764 15.7644 17.9746 15.7769C18.0057 15.7806 18.037 15.7825 18.0683 15.7825C18.2507 15.7821 18.4267 15.7152 18.5634 15.5944C18.7 15.4737 18.788 15.3072 18.8108 15.1262C18.9373 14.0999 18.9999 13.0666 18.9983 12.0325C18.9978 10.2432 18.2877 8.52715 17.0237 7.26071C15.7597 5.99427 14.0451 5.28083 12.2558 5.27686ZM17.6867 17.3003C17.5913 17.2756 17.492 17.27 17.3944 17.2837C17.2968 17.2975 17.2029 17.3303 17.118 17.3804C17.0331 17.4304 16.9589 17.4968 16.8997 17.5755C16.8404 17.6543 16.7973 17.7439 16.7727 17.8394C16.6358 18.3728 16.4774 18.9081 16.3039 19.4331C16.2405 19.6212 16.2542 19.8268 16.342 20.0048C16.4299 20.1828 16.5848 20.3188 16.7727 20.3828C16.8497 20.409 16.9304 20.4223 17.0117 20.4222C17.1689 20.422 17.322 20.3726 17.4495 20.2807C17.577 20.1889 17.6725 20.0593 17.7224 19.9103C17.9099 19.3553 18.0777 18.7853 18.2239 18.2181C18.2491 18.1227 18.2551 18.0233 18.2418 17.9255C18.2284 17.8277 18.1959 17.7336 18.1461 17.6484C18.0963 17.5632 18.0301 17.4887 17.9515 17.4291C17.8728 17.3696 17.7832 17.3261 17.6877 17.3012L17.6867 17.3003Z"/>
</svg>
