<svg width="24" height="24" viewBox="0 0 24 24" xmlns="http://www.w3.org/2000/svg">
<path d="M15.2708 11.999C15.2705 15.45 14.4215 18.8478 12.7986 21.8934C12.7302 22.0258 12.6361 22.1433 12.5218 22.239C12.4075 22.3347 12.2754 22.4068 12.1331 22.451C11.9907 22.4952 11.841 22.5107 11.6926 22.4965C11.5442 22.4824 11.4001 22.4389 11.2687 22.3686C11.1373 22.2983 11.0211 22.2025 10.927 22.0869C10.8329 21.9714 10.7627 21.8382 10.7204 21.6953C10.6782 21.5523 10.6648 21.4024 10.681 21.2542C10.6973 21.1061 10.7428 20.9626 10.8149 20.8321C12.2635 18.1133 13.0211 15.0798 13.0208 11.999C13.0208 11.8001 12.9418 11.6093 12.8012 11.4687C12.6605 11.328 12.4697 11.249 12.2708 11.249C12.0719 11.249 11.8812 11.328 11.7405 11.4687C11.5998 11.6093 11.5208 11.8001 11.5208 11.999C11.5208 12.2974 11.4023 12.5835 11.1913 12.7945C10.9803 13.0055 10.6942 13.124 10.3958 13.124C10.0975 13.124 9.81131 13.0055 9.60034 12.7945C9.38936 12.5835 9.27083 12.2974 9.27083 11.999C9.27083 11.2034 9.5869 10.4403 10.1495 9.8777C10.7121 9.31509 11.4752 8.99902 12.2708 8.99902C13.0665 8.99902 13.8295 9.31509 14.3922 9.8777C14.9548 10.4403 15.2708 11.2034 15.2708 11.999ZM12.2708 5.24902C11.9725 5.24902 11.6863 5.36755 11.4753 5.57853C11.2644 5.78951 11.1458 6.07565 11.1458 6.37402C11.1458 6.67239 11.2644 6.95854 11.4753 7.16952C11.6863 7.3805 11.9725 7.49902 12.2708 7.49902C13.4639 7.50026 14.6078 7.97477 15.4514 8.81841C16.2951 9.66206 16.7696 10.8059 16.7708 11.999C16.7708 12.7134 16.7371 13.4353 16.6705 14.1431C16.6559 14.2905 16.6706 14.4394 16.7136 14.5811C16.7567 14.7229 16.8274 14.8547 16.9215 14.9691C17.0157 15.0835 17.1315 15.1781 17.2624 15.2476C17.3932 15.3171 17.5365 15.3601 17.684 15.374C17.7196 15.374 17.7552 15.374 17.7908 15.374C18.0706 15.3736 18.3402 15.269 18.547 15.0806C18.7538 14.8922 18.8829 14.6335 18.9093 14.355C18.9833 13.5768 19.0199 12.7837 19.0199 11.999C19.0179 10.2096 18.3062 8.49399 17.041 7.22858C15.7758 5.96316 14.0603 5.25126 12.2708 5.24902ZM9.27083 8.64559C9.48526 8.44462 9.61254 8.16773 9.62544 7.87413C9.63834 7.58053 9.53584 7.29354 9.33987 7.07454C9.1439 6.85554 8.87001 6.72192 8.57679 6.70226C8.28356 6.6826 7.99429 6.77846 7.77083 6.96934C7.06361 7.60268 6.49774 8.3779 6.11007 9.24451C5.7224 10.1111 5.52163 11.0497 5.52083 11.999C5.52132 13.9139 5.03344 15.7973 4.10333 17.4712C3.958 17.7323 3.92233 18.0404 4.00418 18.3278C4.08602 18.6151 4.27867 18.8582 4.53974 19.0036C4.80081 19.1489 5.10892 19.1846 5.39629 19.1027C5.68366 19.0209 5.92675 18.8282 6.07208 18.5671C7.18765 16.5578 7.77232 14.2972 7.77083 11.999C7.7714 11.3661 7.90526 10.7403 8.1637 10.1626C8.42214 9.58478 8.79937 9.0679 9.27083 8.64559ZM10.2177 14.655C10.0739 14.6207 9.92475 14.615 9.77878 14.6384C9.6328 14.6618 9.49286 14.7137 9.36696 14.7912C9.24106 14.8687 9.13167 14.9702 9.04504 15.09C8.95841 15.2098 8.89624 15.3455 8.86208 15.4893C8.50117 17.0064 7.90387 18.4573 7.09208 19.7887C6.93693 20.0436 6.88937 20.3496 6.95988 20.6395C7.03038 20.9295 7.21316 21.1795 7.46802 21.3346C7.72288 21.4898 8.02893 21.5374 8.31885 21.4669C8.60877 21.3964 8.85881 21.2136 9.01396 20.9587C9.94817 19.4262 10.6359 17.7565 11.0521 16.0106C11.0864 15.8668 11.092 15.7176 11.0686 15.5717C11.0453 15.4257 10.9934 15.2857 10.9159 15.1598C10.8384 15.0339 10.7368 14.9245 10.617 14.8379C10.4972 14.7513 10.3615 14.6891 10.2177 14.655ZM17.4111 16.9115C17.2681 16.8743 17.1191 16.8656 16.9727 16.8859C16.8262 16.9063 16.6853 16.9553 16.5578 17.0302C16.4303 17.1051 16.3189 17.2043 16.2298 17.3223C16.1407 17.4403 16.0758 17.5747 16.0386 17.7178C15.8309 18.5079 15.5805 19.2862 15.2886 20.0493C15.1821 20.3278 15.1906 20.6372 15.312 20.9095C15.4335 21.1818 15.6581 21.3947 15.9365 21.5015C16.0647 21.5514 16.2011 21.5768 16.3386 21.5765C16.5664 21.5766 16.7888 21.5075 16.9764 21.3784C17.1641 21.2494 17.3082 21.0664 17.3896 20.8537C17.7113 20.0142 17.9865 19.1576 18.2136 18.2878C18.2515 18.1447 18.2608 17.9956 18.241 17.8489C18.2211 17.7023 18.1725 17.561 18.098 17.4331C18.0234 17.3053 17.9244 17.1934 17.8065 17.1039C17.6887 17.0144 17.5543 16.949 17.4111 16.9115ZM12.2708 1.49902C9.49603 1.50194 6.83495 2.60193 4.86796 4.55909C2.90097 6.51624 1.78766 9.17178 1.77083 11.9465C1.77083 11.9643 1.77083 11.9821 1.77083 12C1.771 12.8903 1.61226 13.7735 1.30208 14.6081C1.24949 14.7468 1.22488 14.8946 1.22965 15.043C1.23442 15.1913 1.26848 15.3372 1.32988 15.4723C1.39128 15.6074 1.4788 15.729 1.5874 15.8301C1.696 15.9312 1.82353 16.0099 1.96265 16.0615C2.10177 16.1131 2.24973 16.1367 2.39801 16.1309C2.54629 16.1251 2.69195 16.09 2.82662 16.0277C2.96128 15.9654 3.08229 15.877 3.18266 15.7677C3.28303 15.6584 3.36079 15.5304 3.41146 15.3909C3.80884 14.3228 4.01511 13.193 4.02083 12.0534C4.02083 12.0356 4.02083 12.0178 4.02083 12C4.01462 9.81192 4.87785 7.71104 6.42063 6.15946C7.96341 4.60789 10.0594 3.73274 12.2474 3.72652C14.4354 3.72031 16.5363 4.58354 18.0879 6.12632C19.6395 7.6691 20.5146 9.76505 20.5208 11.9531C20.5208 11.9681 20.5208 11.984 20.5208 12C20.5214 13.9354 20.3095 15.8651 19.889 17.7543C19.8238 18.0455 19.877 18.3506 20.0368 18.6025C20.1966 18.8545 20.45 19.0326 20.7411 19.0978C20.8227 19.1158 20.906 19.1246 20.9896 19.124C21.2451 19.1238 21.4929 19.0366 21.6923 18.8768C21.8917 18.7169 22.0307 18.494 22.0865 18.2446C22.5389 16.211 22.7684 14.134 22.7708 12.0506C22.7708 12.0337 22.7708 12.0168 22.7708 12C22.7679 9.21601 21.6607 6.54693 19.6922 4.5783C17.7238 2.60966 15.0548 1.50225 12.2708 1.49902Z"/>
</svg>
