<svg viewBox="0 0 24 24" xmlns="http://www.w3.org/2000/svg" aria-hidden="true" fill="currentColor" height="24px" width="24px"><path d="M20.25 7.875h-4.125V3.75a1.875 1.875 0 0 0-1.875-1.875h-4.5A1.875 1.875 0 0 0 7.875 3.75v4.125H3.75A1.875 1.875 0 0 0 1.875 9.75v4.5a1.875 1.875 0 0 0 1.875 1.875h4.125v4.125a1.875 1.875 0 0 0 1.875 1.875h4.5a1.875 1.875 0 0 0 1.875-1.875v-4.125h4.125a1.875 1.875 0 0 0 1.875-1.874v-4.5a1.875 1.875 0 0 0-1.875-1.876m-.375 6H15a1.125 1.125 0 0 0-1.125 1.126v4.874h-3.75v-4.874A1.125 1.125 0 0 0 9 13.876H4.125v-3.75H9A1.125 1.125 0 0 0 10.125 9V4.125h3.75V9A1.125 1.125 0 0 0 15 10.126h4.875z"/></svg>