<svg width="24" height="24" viewBox="0 0 24 24" xmlns="http://www.w3.org/2000/svg">
<g clip-path="url(#clip0_2001_46258)">
<path d="M15.75 7.12503C15.75 7.34753 15.684 7.56504 15.5604 7.75004C15.4368 7.93505 15.2611 8.07924 15.0555 8.16439C14.8499 8.24954 14.6237 8.27182 14.4055 8.22841C14.1873 8.185 13.9868 8.07786 13.8295 7.92052C13.6722 7.76319 13.565 7.56273 13.5216 7.34451C13.4782 7.12628 13.5005 6.90008 13.5856 6.69451C13.6708 6.48894 13.815 6.31324 14 6.18962C14.185 6.06601 14.4025 6.00003 14.625 6.00003C14.9234 6.00003 15.2095 6.11855 15.4205 6.32953C15.6315 6.54051 15.75 6.82666 15.75 7.12503ZM20.3175 13.4663C18.5016 16.7382 15.12 18.5063 10.2637 18.7257L8.20125 23.5453C8.14328 23.6807 8.04676 23.7959 7.92373 23.8768C7.8007 23.9577 7.65659 24.0005 7.50937 24H7.46156C7.30701 23.9903 7.15924 23.9331 7.03855 23.836C6.91786 23.739 6.83016 23.607 6.78749 23.4582L5.39999 18.5991L0.543745 17.2088C0.394467 17.1669 0.261854 17.0797 0.164157 16.9593C0.0664603 16.8389 0.00848201 16.6912 -0.00179789 16.5364C-0.0120778 16.3817 0.025846 16.2276 0.106754 16.0954C0.187662 15.9631 0.307577 15.8591 0.449995 15.7978L5.26968 13.7353C5.48999 8.88097 7.25812 5.50034 10.5281 3.68347C12.8484 2.39534 15.4725 2.19847 17.2669 2.26034C19.0144 2.32034 20.6419 2.66065 20.91 2.82284C21.0195 2.88737 21.1108 2.97867 21.1753 3.08815C21.3337 3.35534 21.675 4.98284 21.7378 6.73034C21.8016 8.52097 21.6056 11.146 20.3175 13.4663ZM15.1444 16.185C14.2778 15.8547 13.5231 15.2844 12.9686 14.541C12.4142 13.7976 12.0827 12.9117 12.0131 11.9869C11.0885 11.9174 10.2028 11.5861 9.45954 11.0318C8.71628 10.4775 8.14619 9.72299 7.81593 8.85659C7.16281 10.3435 6.80968 12.1432 6.75656 14.2557C6.75324 14.3995 6.7086 14.5394 6.62798 14.6586C6.54736 14.7777 6.43415 14.8712 6.30187 14.9278L2.98406 16.3472L6.21374 17.2716C6.33628 17.3067 6.44785 17.3725 6.5379 17.4627C6.62796 17.5529 6.69353 17.6646 6.72843 17.7872L7.65093 21.016L9.07218 17.6972C9.12894 17.5651 9.22248 17.4521 9.34166 17.3716C9.46083 17.2912 9.60062 17.2467 9.74437 17.2435C11.855 17.1928 13.655 16.84 15.1444 16.185ZM19.9144 4.08472C18.5878 3.80347 13.905 3.05347 10.5112 5.46753C9.94953 5.86831 9.44491 6.3436 9.01124 6.88034C8.97571 7.3701 9.04747 7.86171 9.22153 8.32087C9.39558 8.78003 9.66773 9.19568 10.019 9.53881C10.3702 9.88195 10.7921 10.1443 11.2553 10.3076C11.7184 10.4708 12.2115 10.5311 12.7003 10.4841C12.8104 10.4735 12.9215 10.4874 13.0256 10.5248C13.1297 10.5621 13.2243 10.6221 13.3025 10.7003C13.3808 10.7785 13.4407 10.8731 13.4781 10.9772C13.5155 11.0813 13.5293 11.1924 13.5187 11.3025C13.4719 11.7915 13.5323 12.2848 13.6958 12.748C13.8592 13.2112 14.1219 13.6332 14.4653 13.9844C14.8087 14.3356 15.2247 14.6076 15.6841 14.7814C16.1436 14.9552 16.6354 15.0266 17.1253 14.9907C17.66 14.5569 18.1332 14.0522 18.5316 13.4907C20.9456 10.0997 20.1956 5.41315 19.9144 4.08472Z"/>
</g>
<defs>
<clipPath id="clip0_2001_46258">
<rect width="24" height="24"/>
</clipPath>
</defs>
</svg>
