<svg viewBox="0 0 24 24" xmlns="http://www.w3.org/2000/svg" aria-hidden="true" fill="currentColor" height="24px" width="24px"><path d="M6.963 17.096a5.04 5.04 0 0 1-5.032-5.032A5.04 5.04 0 0 1 6.963 7.03a5.04 5.04 0 0 1 5.033 5.033 5.04 5.04 0 0 1-5.033 5.032m0-7.816a2.785 2.785 0 0 0-2.782 2.783 2.785 2.785 0 0 0 2.782 2.782 2.785 2.785 0 0 0 2.783-2.782A2.786 2.786 0 0 0 6.963 9.28m10.757 7.816a5.04 5.04 0 0 1-5.032-5.032A5.04 5.04 0 0 1 17.72 7.03a5.04 5.04 0 0 1 5.033 5.033 5.04 5.04 0 0 1-5.033 5.032m0-7.816a2.785 2.785 0 0 0-2.782 2.783 2.786 2.786 0 0 0 2.782 2.782 2.786 2.786 0 0 0 2.783-2.782A2.785 2.785 0 0 0 17.72 9.28"/></svg>