<svg viewBox="0 0 24 24" xmlns="http://www.w3.org/2000/svg" aria-hidden="true" fill="currentColor" height="24px" width="24px"><path d="M20.25 6h-7.875l-2.5-1.875A1.9 1.9 0 0 0 8.75 3.75h-5a1.875 1.875 0 0 0-1.875 1.875v12.75A1.875 1.875 0 0 0 3.75 20.25h16.583a1.793 1.793 0 0 0 1.792-1.791V7.875A1.875 1.875 0 0 0 20.25 6m-.375 12H4.125V6h4.5l2.7 2.025c.195.147.432.225.675.225h7.875zM12 9.75a1.125 1.125 0 0 1 1.125 1.126V12h1.125a1.125 1.125 0 0 1 0 2.25h-1.125v1.125a1.125 1.125 0 0 1-2.25 0V14.25H9.75a1.125 1.125 0 1 1 0-2.25h1.125v-1.125A1.125 1.125 0 0 1 12 9.75"/></svg>