<svg width="24" height="24" viewBox="0 0 24 24" xmlns="http://www.w3.org/2000/svg">
<path d="M21.5306 5.46935L18.5306 2.46935C18.461 2.39962 18.3783 2.3443 18.2872 2.30656C18.1962 2.26882 18.0986 2.24939 18 2.24939C17.9014 2.24939 17.8038 2.26882 17.7128 2.30656C17.6217 2.3443 17.539 2.39962 17.4694 2.46935L8.46937 11.4694C8.39975 11.5391 8.34454 11.6218 8.3069 11.7128C8.26926 11.8039 8.24992 11.9015 8.25 12V15C8.25 15.1989 8.32902 15.3897 8.46967 15.5303C8.61032 15.671 8.80109 15.75 9 15.75H12C12.0985 15.7501 12.1961 15.7307 12.2871 15.6931C12.3782 15.6554 12.4609 15.6002 12.5306 15.5306L21.5306 6.53061C21.6004 6.46095 21.6557 6.37823 21.6934 6.28718C21.7312 6.19614 21.7506 6.09854 21.7506 5.99998C21.7506 5.90142 21.7312 5.80382 21.6934 5.71277C21.6557 5.62173 21.6004 5.53901 21.5306 5.46935ZM11.6897 14.25H9.75V12.3103L15.75 6.31029L17.6897 8.24998L11.6897 14.25ZM18.75 7.18967L16.8103 5.24998L18 4.06029L19.9397 5.99998L18.75 7.18967ZM21 12V19.5C21 19.8978 20.842 20.2793 20.5607 20.5606C20.2794 20.8419 19.8978 21 19.5 21H4.5C4.10218 21 3.72064 20.8419 3.43934 20.5606C3.15804 20.2793 3 19.8978 3 19.5V4.49998C3 4.10215 3.15804 3.72062 3.43934 3.43932C3.72064 3.15801 4.10218 2.99998 4.5 2.99998H12C12.1989 2.99998 12.3897 3.079 12.5303 3.21965C12.671 3.3603 12.75 3.55107 12.75 3.74998C12.75 3.94889 12.671 4.13966 12.5303 4.28031C12.3897 4.42096 12.1989 4.49998 12 4.49998H4.5V19.5H19.5V12C19.5 11.8011 19.579 11.6103 19.7197 11.4697C19.8603 11.329 20.0511 11.25 20.25 11.25C20.4489 11.25 20.6397 11.329 20.7803 11.4697C20.921 11.6103 21 11.8011 21 12Z"/>
</svg>
