<svg viewBox="0 0 24 24" xmlns="http://www.w3.org/2000/svg" aria-hidden="true" fill="currentColor"><path d="m22.025 11.725-1.5-1.5a1.5 1.5 0 0 0-1.953-.143l-4.654-4.654a1.5 1.5 0 0 0-.143-1.954l-1.5-1.5a1.5 1.5 0 0 0-2.121 0l-6 6a1.5 1.5 0 0 0 0 2.122l1.5 1.5a1.5 1.5 0 0 0 1.953.142l.672.672-6.13 6.13a2.344 2.344 0 0 0 3.312 3.311l6.128-6.13.672.672a1.5 1.5 0 0 0 .143 1.954l1.5 1.5a1.5 1.5 0 0 0 2.121 0l6-6a1.5 1.5 0 0 0 0-2.122m-15.311-1.19-1.5-1.5 6-6 1.5 1.5zM4.4 20.79a.844.844 0 0 1-1.19 0 .844.844 0 0 1 0-1.189l6.129-6.13 1.19 1.19zm4.283-10.1 4.187-4.187 4.625 4.626-4.186 4.187zm6.281 8.094-1.5-1.5.375-.375 5.25-5.25.375-.375 1.5 1.5z"/></svg>