<svg width="25" height="24" viewBox="0 0 25 24" xmlns="http://www.w3.org/2000/svg" fill="currentColor" aria-hidden="true"> <path d="M19.9331 7.04721C20.1487 6.27881 20.2081 5.47498 20.1078 4.68323C20.0075 3.89148 19.7495 3.12787 19.3491 2.43752C19.2503 2.26653 19.1084 2.12454 18.9374 2.0258C18.7664 1.92706 18.5724 1.87506 18.375 1.87502C17.4746 1.87249 16.5853 2.07356 15.7736 2.46318C14.9618 2.85281 14.2487 3.42092 13.6875 4.12502H11.8125C11.2513 3.42092 10.5382 2.85281 9.72643 2.46318C8.91471 2.07356 8.02539 1.87249 7.125 1.87502C6.92756 1.87506 6.7336 1.92706 6.56262 2.0258C6.39164 2.12454 6.24966 2.26653 6.15094 2.43752C5.7505 3.12787 5.49251 3.89148 5.39219 4.68323C5.29187 5.47498 5.35127 6.27881 5.56687 7.04721C5.11846 7.87792 4.88088 8.80603 4.875 9.75002V10.5C4.87676 11.7591 5.30022 12.9814 6.0778 13.9717C6.85537 14.962 7.94225 15.6633 9.165 15.9638C8.81042 16.5838 8.62426 17.2858 8.625 18V18.375H7.125C6.62772 18.375 6.15081 18.1775 5.79917 17.8258C5.44754 17.4742 5.25 16.9973 5.25 16.5C5.24876 15.4064 4.81376 14.3579 4.04045 13.5846C3.26713 12.8113 2.21864 12.3763 1.125 12.375C0.826631 12.375 0.540483 12.4936 0.329505 12.7045C0.118526 12.9155 0 13.2017 0 13.5C0 13.7984 0.118526 14.0845 0.329505 14.2955C0.540483 14.5065 0.826631 14.625 1.125 14.625C1.62228 14.625 2.09919 14.8226 2.45083 15.1742C2.80246 15.5258 3 16.0027 3 16.5C3.00124 17.5937 3.43624 18.6422 4.20955 19.4155C4.98287 20.1888 6.03136 20.6238 7.125 20.625H8.625V21.75C8.625 22.0484 8.74353 22.3345 8.9545 22.5455C9.16548 22.7565 9.45163 22.875 9.75 22.875C10.0484 22.875 10.3345 22.7565 10.5455 22.5455C10.7565 22.3345 10.875 22.0484 10.875 21.75V18C10.875 17.5027 11.0725 17.0258 11.4242 16.6742C11.7758 16.3226 12.2527 16.125 12.75 16.125C13.2473 16.125 13.7242 16.3226 14.0758 16.6742C14.4275 17.0258 14.625 17.5027 14.625 18V21.75C14.625 22.0484 14.7435 22.3345 14.9545 22.5455C15.1655 22.7565 15.4516 22.875 15.75 22.875C16.0484 22.875 16.3345 22.7565 16.5455 22.5455C16.7565 22.3345 16.875 22.0484 16.875 21.75V18C16.8757 17.2858 16.6896 16.5838 16.335 15.9638C17.5577 15.6633 18.6446 14.962 19.4222 13.9717C20.1998 12.9814 20.6232 11.7591 20.625 10.5V9.75002C20.6191 8.80603 20.3815 7.87792 19.9331 7.04721ZM18.375 10.5C18.375 11.3951 18.0194 12.2536 17.3865 12.8865C16.7535 13.5194 15.8951 13.875 15 13.875H10.5C9.60489 13.875 8.74645 13.5194 8.11351 12.8865C7.48058 12.2536 7.125 11.3951 7.125 10.5V9.75002C7.13461 9.07962 7.33386 8.42565 7.69969 7.86377C7.8163 7.7128 7.89134 7.53391 7.91732 7.34492C7.94331 7.15593 7.91935 6.96343 7.84781 6.78659C7.5251 5.95266 7.5118 5.03072 7.81031 4.18784C8.31553 4.28091 8.79614 4.47713 9.22214 4.76425C9.64814 5.05137 10.0104 5.42322 10.2863 5.85659C10.388 6.01546 10.528 6.1462 10.6934 6.2368C10.8589 6.32739 11.0445 6.37492 11.2331 6.37502H14.2659C14.4547 6.37508 14.6405 6.32762 14.8061 6.23702C14.9718 6.14642 15.112 6.01559 15.2137 5.85659C15.4895 5.42311 15.8517 5.05117 16.2777 4.76404C16.7037 4.47691 17.1844 4.28075 17.6897 4.18784C17.9882 5.03072 17.9749 5.95266 17.6522 6.78659C17.5835 6.96476 17.5614 7.15748 17.5878 7.34658C17.6142 7.53569 17.6883 7.71496 17.8031 7.86752C18.1674 8.42858 18.3656 9.08116 18.375 9.75002V10.5Z"/> </svg>