<svg viewBox="0 0 24 24" xmlns="http://www.w3.org/2000/svg" aria-hidden="true" fill="currentColor" height="24px" width="24px"><path d="M21.046 16.546 19.594 18l1.455 1.455a1.126 1.126 0 1 1-1.594 1.593L18 19.594l-1.454 1.455a1.127 1.127 0 1 1-1.594-1.593L16.406 18l-1.455-1.454a1.127 1.127 0 1 1 1.594-1.593L18 16.407l1.454-1.455a1.128 1.128 0 0 1 1.594 1.594zm1.079-4.545A1.125 1.125 0 0 1 21 13.126H9.426c.41 4.646 3.246 6.972 3.28 6.996A1.125 1.125 0 0 1 12 22.125a10.125 10.125 0 1 1 10.125-10.124m-7.293-7.347a13.5 13.5 0 0 1 2.002 6.222h2.96a7.9 7.9 0 0 0-4.962-6.222M11.03 5.928a11.2 11.2 0 0 0-1.604 4.948h5.15c-.281-3.179-1.696-5.271-2.573-6.282q-.541.628-.973 1.334m-6.822 4.948h2.96a13.5 13.5 0 0 1 2-6.222 7.9 7.9 0 0 0-4.96 6.222m2.96 2.25h-2.96a7.9 7.9 0 0 0 4.96 6.22 13.5 13.5 0 0 1-2-6.22"/></svg>