<svg width="24" height="24" viewBox="0 0 24 24" xmlns="http://www.w3.org/2000/svg">
<path d="M16.5 9C16.5 9.2225 16.434 9.44001 16.3104 9.62502C16.1868 9.81002 16.0111 9.95422 15.8055 10.0394C15.6 10.1245 15.3738 10.1468 15.1555 10.1034C14.9373 10.06 14.7368 9.95283 14.5795 9.7955C14.4222 9.63816 14.315 9.43771 14.2716 9.21948C14.2282 9.00125 14.2505 8.77505 14.3356 8.56948C14.4208 8.36391 14.565 8.18821 14.75 8.0646C14.935 7.94098 15.1525 7.875 15.375 7.875C15.6734 7.875 15.9595 7.99353 16.1705 8.2045C16.3815 8.41548 16.5 8.70163 16.5 9ZM12.375 10.875C12.1525 10.875 11.935 10.941 11.75 11.0646C11.565 11.1882 11.4208 11.3639 11.3356 11.5695C11.2505 11.775 11.2282 12.0012 11.2716 12.2195C11.315 12.4377 11.4222 12.6382 11.5795 12.7955C11.7368 12.9528 11.9373 13.06 12.1555 13.1034C12.3738 13.1468 12.6 13.1245 12.8055 13.0394C13.0111 12.9542 13.1868 12.81 13.3104 12.625C13.434 12.44 13.5 12.2225 13.5 12C13.5 11.7016 13.3815 11.4155 13.1705 11.2045C12.9595 10.9935 12.6734 10.875 12.375 10.875ZM20.25 8.625C20.25 10.2567 19.7661 11.8517 18.8596 13.2085C17.9531 14.5652 16.6646 15.6226 15.1571 16.247C13.6497 16.8714 11.9909 17.0348 10.3905 16.7165C8.79017 16.3981 7.32016 15.6124 6.16637 14.4586C5.01259 13.3048 4.22685 11.8348 3.90853 10.2345C3.5902 8.63415 3.75357 6.97535 4.378 5.46786C5.00242 3.96037 6.05984 2.6719 7.41655 1.76538C8.77325 0.858854 10.3683 0.375 12 0.375C14.1873 0.377481 16.2843 1.24747 17.8309 2.79411C19.3775 4.34075 20.2475 6.43773 20.25 8.625ZM18.75 8.625C18.75 7.28998 18.3541 5.98493 17.6124 4.8749C16.8707 3.76487 15.8165 2.8997 14.5831 2.38881C13.3497 1.87792 11.9925 1.74425 10.6831 2.0047C9.37377 2.26515 8.17104 2.90802 7.22703 3.85203C6.28303 4.79603 5.64015 5.99877 5.3797 7.30814C5.11925 8.61751 5.25293 9.97471 5.76382 11.2081C6.27471 12.4415 7.13987 13.4957 8.2499 14.2374C9.35994 14.9791 10.665 15.375 12 15.375C13.7896 15.373 15.5053 14.6612 16.7708 13.3958C18.0362 12.1303 18.748 10.4146 18.75 8.625ZM15.4819 17.6747C14.25 18.1462 13.1109 18.375 12 18.375C10.8891 18.375 9.75 18.1462 8.51813 17.6747C8.42576 17.6375 8.32689 17.619 8.22731 17.6204C8.12773 17.6218 8.02942 17.643 7.93812 17.6828C7.84682 17.7226 7.76436 17.7802 7.69555 17.8522C7.62675 17.9242 7.57297 18.0091 7.53736 18.1022C7.50175 18.1952 7.48502 18.2943 7.48815 18.3939C7.49128 18.4934 7.5142 18.5913 7.55558 18.6819C7.59696 18.7725 7.65597 18.854 7.72916 18.9215C7.80235 18.989 7.88826 19.0413 7.98188 19.0753C9.02901 19.4863 10.1295 19.7455 11.25 19.845V22.875C11.25 23.0739 11.329 23.2647 11.4697 23.4053C11.6103 23.546 11.8011 23.625 12 23.625C12.1989 23.625 12.3897 23.546 12.5303 23.4053C12.671 23.2647 12.75 23.0739 12.75 22.875V19.845C13.8705 19.7455 14.971 19.4863 16.0181 19.0753C16.1117 19.0413 16.1977 18.989 16.2708 18.9215C16.344 18.854 16.403 18.7725 16.4444 18.6819C16.4858 18.5913 16.5087 18.4934 16.5119 18.3939C16.515 18.2943 16.4983 18.1952 16.4626 18.1022C16.427 18.0091 16.3733 17.9242 16.3045 17.8522C16.2356 17.7802 16.1532 17.7226 16.0619 17.6828C15.9706 17.643 15.8723 17.6218 15.7727 17.6204C15.6731 17.619 15.5743 17.6375 15.4819 17.6747Z"/>
</svg>
