<svg width="24" height="24" viewBox="0 0 24 24" xmlns="http://www.w3.org/2000/svg" fill="currentColor" aria-hidden="true"> <path d="M16.8749 9.18799C16.8749 9.48466 16.787 9.77467 16.6221 10.0213C16.4573 10.268 16.2231 10.4603 15.949 10.5738C15.6749 10.6873 15.3733 10.717 15.0823 10.6592C14.7913 10.6013 14.5241 10.4584 14.3143 10.2486C14.1045 10.0389 13.9616 9.7716 13.9038 9.48062C13.8459 9.18965 13.8756 8.88805 13.9891 8.61396C14.1027 8.33987 14.2949 8.10561 14.5416 7.94078C14.7883 7.77596 15.0783 7.68799 15.3749 7.68799C15.7728 7.68799 16.1543 7.84602 16.4356 8.12733C16.7169 8.40863 16.8749 8.79016 16.8749 9.18799ZM12.3749 10.688C12.0783 10.688 11.7883 10.776 11.5416 10.9408C11.2949 11.1056 11.1027 11.3399 10.9891 11.614C10.8756 11.8881 10.8459 12.1897 10.9038 12.4806C10.9616 12.7716 11.1045 13.0389 11.3143 13.2486C11.5241 13.4584 11.7913 13.6013 12.0823 13.6592C12.3733 13.717 12.6749 13.6873 12.949 13.5738C13.2231 13.4603 13.4573 13.268 13.6221 13.0213C13.787 12.7747 13.8749 12.4847 13.8749 12.188C13.8749 11.7902 13.7169 11.4086 13.4356 11.1273C13.1543 10.846 12.7728 10.688 12.3749 10.688ZM20.6249 8.81299C20.6249 10.5189 20.1191 12.1864 19.1714 13.6048C18.2236 15.0232 16.8766 16.1286 15.3006 16.7814C13.7246 17.4343 11.9904 17.6051 10.3173 17.2723C8.6442 16.9395 7.10737 16.118 5.90115 14.9118C4.69492 13.7056 3.87347 12.1687 3.54067 10.4956C3.20787 8.82256 3.37868 7.08836 4.03148 5.51234C4.68429 3.93633 5.78978 2.58929 7.20815 1.64156C8.62652 0.693836 10.2941 0.187988 11.9999 0.187988C14.2867 0.19047 16.479 1.09997 18.096 2.71693C19.713 4.3339 20.6225 6.52626 20.6249 8.81299ZM18.3749 8.81299C18.3749 7.55213 18.0011 6.31959 17.3006 5.27123C16.6001 4.22286 15.6044 3.40577 14.4395 2.92326C13.2747 2.44075 11.9929 2.3145 10.7562 2.56048C9.51961 2.80646 8.3837 3.41362 7.49214 4.30518C6.60058 5.19674 5.99342 6.33266 5.74744 7.56929C5.50146 8.80592 5.6277 10.0877 6.11021 11.2526C6.59272 12.4175 7.40982 13.4131 8.45818 14.1136C9.50655 14.8141 10.7391 15.188 11.9999 15.188C13.6902 15.1863 15.3107 14.514 16.5058 13.3189C17.701 12.1237 18.3732 10.5032 18.3749 8.81299ZM15.3749 18.3624C13.1904 19.1298 10.8095 19.1298 8.62494 18.3624C8.34361 18.2629 8.03428 18.2793 7.76502 18.4079C7.6317 18.4716 7.51222 18.5609 7.41341 18.6707C7.31461 18.7806 7.23841 18.9088 7.18916 19.0481C7.13992 19.1874 7.11859 19.3351 7.1264 19.4826C7.13421 19.6302 7.17101 19.7747 7.23469 19.9081C7.3633 20.1773 7.59361 20.3845 7.87494 20.4839C8.84377 20.8265 9.85155 21.047 10.8749 21.1402V22.688C10.8749 22.9864 10.9935 23.2725 11.2044 23.4835C11.4154 23.6945 11.7016 23.813 11.9999 23.813C12.2983 23.813 12.5845 23.6945 12.7954 23.4835C13.0064 23.2725 13.1249 22.9864 13.1249 22.688V21.1374C14.1483 21.0442 15.1561 20.8237 16.1249 20.4811C16.4063 20.3817 16.6366 20.1745 16.7652 19.9053C16.8938 19.636 16.9102 19.3267 16.8107 19.0453C16.7113 18.764 16.5041 18.5337 16.2349 18.4051C15.9656 18.2765 15.6563 18.2601 15.3749 18.3596V18.3624Z"/> </svg>