<svg width="24" height="24" viewBox="0 0 24 24" xmlns="http://www.w3.org/2000/svg">
<path d="M22.4998 11.25H20.2151C20.0374 9.3301 19.1938 7.53282 17.8304 6.16944C16.467 4.80606 14.6697 3.96244 12.7498 3.78469V1.5C12.7498 1.30109 12.6708 1.11032 12.5301 0.96967C12.3895 0.829018 12.1987 0.75 11.9998 0.75C11.8009 0.75 11.6101 0.829018 11.4695 0.96967C11.3288 1.11032 11.2498 1.30109 11.2498 1.5V3.78469C9.32992 3.96244 7.53264 4.80606 6.16926 6.16944C4.80588 7.53282 3.96226 9.3301 3.7845 11.25H1.49982C1.3009 11.25 1.11014 11.329 0.969487 11.4697C0.828834 11.6103 0.749817 11.8011 0.749817 12C0.749817 12.1989 0.828834 12.3897 0.969487 12.5303C1.11014 12.671 1.3009 12.75 1.49982 12.75H3.7845C3.96226 14.6699 4.80588 16.4672 6.16926 17.8306C7.53264 19.1939 9.32992 20.0376 11.2498 20.2153V22.5C11.2498 22.6989 11.3288 22.8897 11.4695 23.0303C11.6101 23.171 11.8009 23.25 11.9998 23.25C12.1987 23.25 12.3895 23.171 12.5301 23.0303C12.6708 22.8897 12.7498 22.6989 12.7498 22.5V20.2153C14.6697 20.0376 16.467 19.1939 17.8304 17.8306C19.1938 16.4672 20.0374 14.6699 20.2151 12.75H22.4998C22.6987 12.75 22.8895 12.671 23.0301 12.5303C23.1708 12.3897 23.2498 12.1989 23.2498 12C23.2498 11.8011 23.1708 11.6103 23.0301 11.4697C22.8895 11.329 22.6987 11.25 22.4998 11.25ZM11.9998 18.75C10.6648 18.75 9.35975 18.3541 8.24972 17.6124C7.13969 16.8707 6.27452 15.8165 5.76363 14.5831C5.25274 13.3497 5.11907 11.9925 5.37952 10.6831C5.63997 9.37377 6.28284 8.17103 7.22685 7.22703C8.17085 6.28302 9.37359 5.64015 10.683 5.3797C11.9923 5.11925 13.3495 5.25292 14.5829 5.76381C15.8163 6.2747 16.8705 7.13987 17.6122 8.2499C18.3539 9.35993 18.7498 10.665 18.7498 12C18.7478 13.7896 18.036 15.5053 16.7706 16.7708C15.5052 18.0362 13.7894 18.748 11.9998 18.75Z"/>
</svg>
