<svg viewBox="0 0 24 24" xmlns="http://www.w3.org/2000/svg" aria-hidden="true" fill="currentColor" height="24px" width="24px"><g clip-path="url(#a)"><path d="m23.419 7.265-10.875-6a1.13 1.13 0 0 0-1.088 0l-10.875 6a1.125 1.125 0 0 0 0 1.969l2.044 1.125v4.477c0 .461.17.906.477 1.25 1.27 1.418 4.117 3.79 8.898 3.79 1.27.006 2.534-.175 3.75-.54v2.414a1.125 1.125 0 1 0 2.25 0v-3.363a11.2 11.2 0 0 0 2.898-2.298c.308-.343.478-.788.477-1.249v-4.477l2.044-1.125a1.125 1.125 0 0 0 0-1.97zM12 3.535l8.546 4.715-3.108 1.716-.017-.011-4.875-2.69a1.125 1.125 0 0 0-1.088 1.969l3.656 2.015L12 12.966 3.454 8.25zm0 14.09c-3.79 0-6.061-1.787-7.125-2.931V11.6l6.581 3.632a1.13 1.13 0 0 0 1.088 0l3.206-1.765v3.49c-1.198.453-2.47.68-3.75.668m7.125-2.931q-.518.556-1.125 1.013v-3.482l1.125-.621z"/></g><defs><clipPath id="a"><path d="M0 0h24v24H0z"/></clipPath></defs></svg>