<svg viewBox="0 0 24 24" xmlns="http://www.w3.org/2000/svg" aria-hidden="true" fill="currentColor" height="24px" width="24px"><path d="M21.376 14.991v3.375c0 1.299-.153 2.486-.43 3.345a1.124 1.124 0 1 1-2.141-.69c.2-.623.32-1.616.32-2.655v-3.375a.75.75 0 1 0-1.5 0v.375a1.125 1.125 0 0 1-2.25 0v-1.875a.75.75 0 1 0-1.5 0v1.125a1.125 1.125 0 0 1-2.25 0V8.241a.75.75 0 0 0-1.5 0v10.125a1.126 1.126 0 0 1-2.079.595l-1.751-2.813-.02-.032a.751.751 0 0 0-1.306.743l2.37 3.926a1.125 1.125 0 1 1-1.928 1.162l-2.373-3.938-.011-.019a3 3 0 0 1 4.848-3.483V8.24a3 3 0 1 1 6 0v2.344a3 3 0 0 1 3.449 1.594 3 3 0 0 1 4.051 2.812M5.25 9.366a1.125 1.125 0 0 0 1.125-1.125 4.5 4.5 0 1 1 9 0 1.125 1.125 0 1 0 2.25 0 6.75 6.75 0 0 0-13.5 0A1.125 1.125 0 0 0 5.25 9.366"/></svg>