<svg width="24" height="24" viewBox="0 0 24 24" xmlns="http://www.w3.org/2000/svg">
<path d="M21 14.25V12.75C20.995 10.89 20.416 9.07696 19.3421 7.55831C18.2683 6.03965 16.7519 4.88943 15 4.26469V3.75C15 3.35218 14.842 2.97064 14.5607 2.68934C14.2794 2.40804 13.8978 2.25 13.5 2.25H10.5C10.1022 2.25 9.72064 2.40804 9.43934 2.68934C9.15804 2.97064 9 3.35218 9 3.75V4.26469C7.2481 4.88943 5.7317 6.03965 4.65785 7.55831C3.584 9.07696 3.00504 10.89 3 12.75V14.25C2.60218 14.25 2.22064 14.408 1.93934 14.6893C1.65804 14.9706 1.5 15.3522 1.5 15.75V18C1.5 18.3978 1.65804 18.7794 1.93934 19.0607C2.22064 19.342 2.60218 19.5 3 19.5H21C21.3978 19.5 21.7794 19.342 22.0607 19.0607C22.342 18.7794 22.5 18.3978 22.5 18V15.75C22.5 15.3522 22.342 14.9706 22.0607 14.6893C21.7794 14.408 21.3978 14.25 21 14.25ZM19.5 12.75V14.25H15V5.87531C16.335 6.46264 17.4709 7.42486 18.2697 8.64519C19.0685 9.86552 19.4959 11.2915 19.5 12.75ZM13.5 3.75V14.25H10.5V3.75H13.5ZM4.5 12.75C4.50411 11.2915 4.93151 9.86552 5.73031 8.64519C6.5291 7.42486 7.66496 6.46264 9 5.87531V14.25H4.5V12.75ZM21 18H3V15.75H21V18Z"/>
</svg>
