<svg aria-hidden="true" xmlns="http://www.w3.org/2000/svg" version="1.1" width="18" height="16" viewBox="0 0 18 16">
  <path d="M17.0237 7.0722L9.30036 0.927602C9.19873 0.831935 9.07786 0.79496 8.9564 0.800529C8.83461 0.794945 8.71342 0.832135 8.61162 0.928378L1.03369 7.08378L1.01076 7.10241L0.994194 7.12687L0.888117 7.28349L0.853713 7.33429V7.39564L0.853713 7.39826C0.8537 7.42428 0.853675 7.47749 0.86315 7.53345C0.870059 7.57426 0.88496 7.63615 0.923353 7.69443C0.926537 7.70298 0.93039 7.71196 0.935066 7.72116C0.950555 7.75165 0.976767 7.78777 1.0194 7.81574C1.045 7.83255 1.07243 7.84371 1.10034 7.85008L1.28902 7.94121L1.36208 7.97649L1.43907 7.9509L1.75325 7.84648L1.78558 7.83574L1.81253 7.81489L2.23271 7.48992V14.4439C2.23271 14.5884 2.304 14.7153 2.39185 14.8018C2.4799 14.8885 2.60744 14.9572 2.75093 14.9572H15.2679C15.4114 14.9572 15.539 14.8885 15.627 14.8018C15.7149 14.7153 15.7862 14.5884 15.7862 14.4439V7.44624L16.3099 7.86509L16.3754 7.91749C16.3977 7.94541 16.4241 7.96744 16.4513 7.98389C16.545 8.04056 16.6577 8.04086 16.7485 8.01067C16.8067 7.9913 16.8629 7.95745 16.9095 7.9089H17.006L17.006 7.8126C17.0081 7.80989 17.0101 7.80718 17.012 7.80448H17.0879L17.1435 7.69505C17.1901 7.60329 17.2069 7.4859 17.1975 7.38378C17.1895 7.29706 17.1544 7.15023 17.0237 7.0722ZM14.6967 6.65513V13.9307H10.8006V9.9539C10.8006 9.79137 10.7209 9.62067 10.5555 9.52699C10.5457 9.51902 10.533 9.50937 10.5181 9.49954C10.4881 9.47985 10.4211 9.44065 10.3354 9.44065H7.57741C7.38909 9.44065 7.28541 9.54291 7.22889 9.59865C7.22755 9.59997 7.22624 9.60127 7.22495 9.60254C7.17846 9.6483 7.14027 9.70722 7.11401 9.75891C7.09106 9.80409 7.05918 9.8785 7.05918 9.9539V13.9307H3.16309V6.65566L8.95584 1.96268L14.6967 6.65513ZM8.14867 13.8784V10.4149H9.76412V13.8784H8.14867Z" fill="#14558F" stroke="#14558F" stroke-width="0.4"/>
</svg>
