<svg viewBox="0 0 24 24" xmlns="http://www.w3.org/2000/svg" aria-hidden="true" fill="currentColor" height="24px" width="24px"><path d="M14.25 9.75a1.5 1.5 0 1 1-3.001 0 1.5 1.5 0 0 1 3 0m8.624 2.393a10.153 10.153 0 0 1-9.92 9.982h-.211a10.06 10.06 0 0 1-6.744-2.537 1.124 1.124 0 1 1 1.5-1.676c.462.412.972.767 1.52 1.056l2.018-2.777c-1.912-.657-3.929-.313-5.102-.114a3.36 3.36 0 0 1-3.347-1.414l-1.292-2.062a1.125 1.125 0 0 1 .337-1.539l9.241-6.045V3A1.125 1.125 0 0 1 12 1.875h.75a10.125 10.125 0 0 1 10.125 10.268m-2.25-.03a7.875 7.875 0 0 0-7.5-7.98v1.492a1.13 1.13 0 0 1-.509.938l-8.827 5.775.685 1.095a1.13 1.13 0 0 0 1.086.426c1.521-.258 4.631-.784 7.466.75a3.375 3.375 0 0 0 3.1-3.359 1.125 1.125 0 1 1 2.25 0 5.634 5.634 0 0 1-5.03 5.593l-2.104 2.894a7.902 7.902 0 0 0 9.383-7.625"/></svg>