<svg viewBox="0 0 24 24" xmlns="http://www.w3.org/2000/svg" aria-hidden="true" fill="currentColor"><path d="M13.5 9.375a1.125 1.125 0 1 1-2.25 0 1.125 1.125 0 0 1 2.25 0m9 2.764a9.78 9.78 0 0 1-9.554 9.611h-.203a9.7 9.7 0 0 1-6.493-2.437.753.753 0 0 1 1-1.125 8 8 0 0 0 1.884 1.253l2.49-3.425c-2.135-.921-4.45-.53-5.756-.308a2.98 2.98 0 0 1-2.934-1.203l-.028-.04-1.292-2.063a.75.75 0 0 1 .243-1.036l9.392-5.785V3a.75.75 0 0 1 .75-.75h.75a9.75 9.75 0 0 1 9.75 9.889m-1.5-.02a8.25 8.25 0 0 0-8.25-8.369V6a.75.75 0 0 1-.358.638l-9.106 5.605.878 1.406a1.49 1.49 0 0 0 1.46.58c1.5-.254 4.573-.773 7.32.766A3.756 3.756 0 0 0 16.5 11.25a.75.75 0 1 1 1.5 0 5.256 5.256 0 0 1-4.857 5.234l-2.541 3.495a8.5 8.5 0 0 0 2.314.271A8.277 8.277 0 0 0 21 12.118"/></svg>