<svg viewBox="0 0 24 24" xmlns="http://www.w3.org/2000/svg" aria-hidden="true" fill="currentColor" height="24px" width="24px"><path d="M21.656 10.5a1.13 1.13 0 0 0-1.013-.154l-2.232.743a1.13 1.13 0 0 0-.689.65l-1.281 3.204-3.204 1.282a1.12 1.12 0 0 0-.65.688l-.744 2.232a1.125 1.125 0 0 0 1.07 1.48h7.337a1.875 1.875 0 0 0 1.875-1.875v-7.337a1.12 1.12 0 0 0-.469-.912m-1.781 7.875h-5.402l.085-.255 3.168-1.267a1.13 1.13 0 0 0 .627-.626l1.266-3.168.256-.085zm.375-15H3.75A1.875 1.875 0 0 0 1.875 5.25v13.5a1.875 1.875 0 0 0 1.875 1.875h5.21a1.125 1.125 0 0 0 1.071-.77l1.52-4.573 3.29-1.313a1.12 1.12 0 0 0 .628-.628l1.312-3.29 4.574-1.52a1.125 1.125 0 0 0 .77-1.07V5.25a1.875 1.875 0 0 0-1.875-1.876M9.581 14.078 8.15 18.375H4.125v-2.094l4.5-4.5 1.607 1.607a1.12 1.12 0 0 0-.65.69m10.294-7.429-4.297 1.433a1.13 1.13 0 0 0-.69.65l-1.33 3.326-1.053.42-2.554-2.553a1.875 1.875 0 0 0-2.652 0l-3.174 3.174V5.625h15.75z"/></svg>