<svg width="24" height="24" viewBox="0 0 24 24" xmlns="http://www.w3.org/2000/svg">
<path d="M17.0459 8.95406C17.1508 9.05858 17.234 9.18277 17.2908 9.31952C17.3476 9.45626 17.3768 9.60287 17.3768 9.75094C17.3768 9.899 17.3476 10.0456 17.2908 10.1824C17.234 10.3191 17.1508 10.4433 17.0459 10.5478L11.7959 15.7978C11.6914 15.9027 11.5672 15.9859 11.4305 16.0427C11.2937 16.0995 11.1471 16.1287 10.9991 16.1287C10.851 16.1287 10.7044 16.0995 10.5676 16.0427C10.4309 15.9859 10.3067 15.9027 10.2022 15.7978L7.95219 13.5478C7.84754 13.4432 7.76453 13.3189 7.7079 13.1822C7.65127 13.0455 7.62212 12.8989 7.62212 12.7509C7.62212 12.6029 7.65127 12.4564 7.7079 12.3197C7.76453 12.1829 7.84754 12.0587 7.95219 11.9541C8.05684 11.8494 8.18107 11.7664 8.3178 11.7098C8.45453 11.6531 8.60107 11.624 8.74907 11.624C8.89706 11.624 9.0436 11.6531 9.18033 11.7098C9.31706 11.7664 9.44129 11.8494 9.54594 11.9541L11 13.4062L15.4541 8.95125C15.5587 8.84684 15.683 8.76408 15.8196 8.7077C15.9563 8.65133 16.1027 8.62245 16.2506 8.62271C16.3984 8.62297 16.5448 8.65237 16.6812 8.70922C16.8177 8.76608 16.9416 8.84928 17.0459 8.95406ZM22.625 12C22.625 14.0025 22.0312 15.9601 20.9186 17.6251C19.8061 19.2902 18.2248 20.5879 16.3747 21.3543C14.5246 22.1206 12.4888 22.3211 10.5247 21.9305C8.56066 21.5398 6.75656 20.5755 5.34055 19.1595C3.92454 17.7435 2.96023 15.9393 2.56955 13.9753C2.17888 12.0112 2.37939 9.97543 3.14572 8.12533C3.91206 6.27523 5.20981 4.69392 6.87486 3.58137C8.5399 2.46882 10.4975 1.875 12.5 1.875C15.1844 1.87798 17.758 2.94567 19.6562 4.84383C21.5543 6.74199 22.622 9.3156 22.625 12ZM20.375 12C20.375 10.4425 19.9131 8.91992 19.0478 7.62488C18.1825 6.32985 16.9526 5.32049 15.5136 4.72445C14.0747 4.12841 12.4913 3.97246 10.9637 4.27632C9.43607 4.58017 8.03288 5.3302 6.93154 6.43153C5.8302 7.53287 5.08018 8.93606 4.77632 10.4637C4.47246 11.9913 4.62841 13.5747 5.22445 15.0136C5.82049 16.4526 6.82985 17.6825 8.12489 18.5478C9.41993 19.4131 10.9425 19.875 12.5 19.875C14.5879 19.8728 16.5896 19.0424 18.066 17.566C19.5424 16.0896 20.3728 14.0879 20.375 12Z"/>
</svg>
