<svg width="24" height="24" viewBox="0 0 24 24" xmlns="http://www.w3.org/2000/svg" fill="currentColor" aria-hidden="true"> <path d="M12.5 7.5C11.61 7.5 10.74 7.76392 9.99993 8.25839C9.25991 8.75285 8.68314 9.45566 8.34254 10.2779C8.00195 11.1002 7.91283 12.005 8.08647 12.8779C8.2601 13.7508 8.68868 14.5526 9.31802 15.182C9.94736 15.8113 10.7492 16.2399 11.6221 16.4135C12.495 16.5872 13.3998 16.4981 14.2221 16.1575C15.0443 15.8169 15.7471 15.2401 16.2416 14.5001C16.7361 13.76 17 12.89 17 12C16.9988 10.8069 16.5243 9.66303 15.6806 8.81939C14.837 7.97575 13.6931 7.50124 12.5 7.5ZM12.5 14.25C12.055 14.25 11.62 14.118 11.25 13.8708C10.88 13.6236 10.5916 13.2722 10.4213 12.861C10.251 12.4499 10.2064 11.9975 10.2932 11.561C10.38 11.1246 10.5943 10.7237 10.909 10.409C11.2237 10.0943 11.6246 9.88005 12.061 9.79323C12.4975 9.70642 12.9499 9.75097 13.361 9.92127C13.7722 10.0916 14.1236 10.38 14.3708 10.75C14.618 11.12 14.75 11.555 14.75 12C14.75 12.5967 14.5129 13.169 14.091 13.591C13.669 14.0129 13.0967 14.25 12.5 14.25ZM17 1.875H8C6.50869 1.87674 5.07896 2.46993 4.02444 3.52444C2.96993 4.57896 2.37674 6.00869 2.375 7.5V16.5C2.37674 17.9913 2.96993 19.421 4.02444 20.4756C5.07896 21.5301 6.50869 22.1233 8 22.125H17C18.4913 22.1233 19.921 21.5301 20.9756 20.4756C22.0301 19.421 22.6233 17.9913 22.625 16.5V7.5C22.6233 6.00869 22.0301 4.57896 20.9756 3.52444C19.921 2.46993 18.4913 1.87674 17 1.875ZM20.375 16.5C20.375 17.3951 20.0194 18.2535 19.3865 18.8865C18.7535 19.5194 17.8951 19.875 17 19.875H8C7.10489 19.875 6.24645 19.5194 5.61351 18.8865C4.98058 18.2535 4.625 17.3951 4.625 16.5V7.5C4.625 6.60489 4.98058 5.74645 5.61351 5.11351C6.24645 4.48058 7.10489 4.125 8 4.125H17C17.8951 4.125 18.7535 4.48058 19.3865 5.11351C20.0194 5.74645 20.375 6.60489 20.375 7.5V16.5ZM18.875 7.125C18.875 7.42167 18.787 7.71168 18.6222 7.95835C18.4574 8.20503 18.2231 8.39729 17.949 8.51082C17.6749 8.62435 17.3733 8.65406 17.0824 8.59618C16.7914 8.5383 16.5241 8.39544 16.3143 8.18566C16.1046 7.97588 15.9617 7.70861 15.9038 7.41764C15.8459 7.12666 15.8756 6.82506 15.9892 6.55097C16.1027 6.27689 16.295 6.04262 16.5416 5.8778C16.7883 5.71297 17.0783 5.625 17.375 5.625C17.7728 5.625 18.1544 5.78304 18.4357 6.06434C18.717 6.34564 18.875 6.72718 18.875 7.125Z"/> </svg>