<svg viewBox="0 0 24 24" xmlns="http://www.w3.org/2000/svg" aria-hidden="true" fill="currentColor" height="24px" width="24px"><path d="M22.25 14.625h-.375V6.75a2.625 2.625 0 0 0-2.625-2.625H5.75A2.625 2.625 0 0 0 3.125 6.75v7.875H2.75a1.125 1.125 0 0 0-1.125 1.125V18a2.625 2.625 0 0 0 2.625 2.625h16.5A2.625 2.625 0 0 0 23.375 18v-2.25a1.125 1.125 0 0 0-1.125-1.125M5.375 6.75a.375.375 0 0 1 .375-.375h13.5a.375.375 0 0 1 .375.375v7.875H5.375zM21.125 18a.375.375 0 0 1-.375.375H4.25A.375.375 0 0 1 3.875 18v-1.125h17.25zm-6-9A1.125 1.125 0 0 1 14 10.125h-3a1.125 1.125 0 1 1 0-2.25h3A1.125 1.125 0 0 1 15.125 9"/></svg>