<svg viewBox="0 0 24 24" xmlns="http://www.w3.org/2000/svg" aria-hidden="true" fill="currentColor" height="24px" width="24px"><path d="M12.5 1.875A10.125 10.125 0 1 0 22.625 12 10.137 10.137 0 0 0 12.5 1.875m0 17.531a10.6 10.6 0 0 1-1.912-3.281h3.827c-.247.678-.561 1.33-.937 1.947q-.435.707-.978 1.334m-2.483-5.531a12.7 12.7 0 0 1 0-3.75h4.968a12.7 12.7 0 0 1 0 3.75zM4.625 12c0-.632.076-1.261.228-1.875h2.89a15 15 0 0 0 0 3.75h-2.89A7.8 7.8 0 0 1 4.625 12M12.5 4.594a10.6 10.6 0 0 1 1.912 3.281h-3.825c.247-.678.561-1.33.937-1.947q.434-.707.976-1.334m4.756 5.531h2.89a7.8 7.8 0 0 1 0 3.75h-2.888a15 15 0 0 0 0-3.75zm1.947-2.25h-2.418a13.2 13.2 0 0 0-1.453-3.221 7.92 7.92 0 0 1 3.873 3.221zM9.668 4.654a13.2 13.2 0 0 0-1.453 3.221h-2.42a7.92 7.92 0 0 1 3.873-3.221M5.795 16.125h2.42a13.2 13.2 0 0 0 1.453 3.221 7.92 7.92 0 0 1-3.873-3.221m9.537 3.221a13.2 13.2 0 0 0 1.453-3.221h2.42a7.92 7.92 0 0 1-3.873 3.221"/></svg>