<svg width="44" height="50" fill="none" xmlns="http://www.w3.org/2000/svg"><path d="m18.254 33.676-5.547 1.755 1.513-6.437m4.034 4.682 23.71-27.514c.553-.64.553-1.681 0-2.323l-2.032-2.357c-.553-.643-1.45-.643-2.002 0L14.22 28.994m4.034 4.682-4.034-4.682m23.198-17.556-4.034-4.681 2.017-2.342 4.035 4.682-2.018 2.34Z" stroke="#000" stroke-width="2" stroke-linejoin="round"/><path d="m12.707 35.43-1.009 1.171" stroke="#000" stroke-width="2" stroke-linecap="round" stroke-linejoin="round"/><path clip-rule="evenodd" d="m18.254 33.676-5.547 1.755 1.513-6.437L35.492 4.31H1V49h38.514V9.007l-21.26 24.669Z" stroke="#000" stroke-width="2" stroke-linejoin="round"/></svg>