<svg viewBox="0 0 24 24" xmlns="http://www.w3.org/2000/svg" aria-hidden="true" fill="currentColor" height="24px" width="24px"><path d="m21.296 5.204-3-3a1.125 1.125 0 0 0-1.594 0l-9 9c-.21.211-.328.498-.327.796v3A1.125 1.125 0 0 0 8.5 16.125h3a1.13 1.13 0 0 0 .796-.33l9-9a1.125 1.125 0 0 0 0-1.59m-3.796-.61L18.906 6l-1.031 1.031-1.406-1.406zm-6.469 9.281H9.625V12.47l5.25-5.25 1.406 1.406zm9.844-.697V19.5A1.875 1.875 0 0 1 19 21.375H4A1.875 1.875 0 0 1 2.125 19.5v-15A1.875 1.875 0 0 1 4 2.625h6.322a1.125 1.125 0 0 1 0 2.25H4.375v14.25h14.25v-5.947a1.125 1.125 0 0 1 2.25 0"/></svg>