<svg viewBox="0 0 24 24" xmlns="http://www.w3.org/2000/svg" aria-hidden="true" fill="currentColor" height="24px" width="24px"><g clip-path="url(#a)"><path d="M15.625 7.125a1.5 1.5 0 1 1-3 0 1.5 1.5 0 0 1 3 0m4.52 6.523a9.6 9.6 0 0 1-2.578 2.986q-.604.461-1.27.828c-1.716.944-3.832 1.49-6.302 1.627l-1.964 4.255a1.13 1.13 0 0 1-1.02.656h-.077a1.125 1.125 0 0 1-.999-.791l-1.328-4.313-4.312-1.33a1.125 1.125 0 0 1-.139-2.097l4.256-1.961c.138-2.469.685-4.586 1.629-6.3q.366-.667.825-1.274l.048-.061A9.6 9.6 0 0 1 9.85 3.356c2.395-1.33 5.093-1.534 6.937-1.47 1.665.057 3.421.374 3.822.61.163.097.3.234.396.397.236.4.555 2.156.612 3.821.06 1.842-.143 4.536-1.472 6.934m-6.44 2.5a5.3 5.3 0 0 1-1.043-.81 5.23 5.23 0 0 1-1.49-3.01 5.23 5.23 0 0 1-3.01-1.49 5.3 5.3 0 0 1-.809-1.044q-.656 1.92-.721 4.471a1.13 1.13 0 0 1-.657.995l-2.208 1.019 2.071.64a1.13 1.13 0 0 1 .745.744l.636 2.07 1.021-2.211a1.13 1.13 0 0 1 .995-.656q2.546-.057 4.47-.718m5.389-11.742c-1.524-.294-5.795-.843-8.907 1.398-.486.35-.927.76-1.312 1.219a3 3 0 0 0 3.281 3.088 1.125 1.125 0 0 1 1.227 1.227 3 3 0 0 0 3.094 3.281c.46-.384.87-.825 1.219-1.312 2.246-3.106 1.696-7.38 1.398-8.9"/></g><defs><clipPath id="a"><path d="M0 0h24v24H0z"/></clipPath></defs></svg>