<svg viewBox="0 0 24 24" xmlns="http://www.w3.org/2000/svg" aria-hidden="true" fill="currentColor" height="24px" width="24px"><path d="M9.125 8.625A1.125 1.125 0 0 1 10.25 7.5h5.625a1.125 1.125 0 0 1 0 2.25H10.25a1.125 1.125 0 0 1-1.125-1.125M10.25 13.5h5.625a1.125 1.125 0 1 0 0-2.25H10.25a1.125 1.125 0 1 0 0 2.25M22.625 18a3.375 3.375 0 0 1-3.375 3.375H8.75A3.375 3.375 0 0 1 5.375 18V6a1.125 1.125 0 0 0-2.25 0c0 .35.314.61.317.613L3.425 6.6a1.125 1.125 0 1 1-1.35 1.8c-.123-.092-1.2-.942-1.2-2.4A3.375 3.375 0 0 1 4.25 2.625H17A3.375 3.375 0 0 1 20.375 6v9.375h.375c.243 0 .48.079.675.225.123.092 1.2.942 1.2 2.4M9.183 16.144a1.125 1.125 0 0 1 1.067-.769h7.875V6A1.125 1.125 0 0 0 17 4.875H7.432c.128.361.193.742.193 1.125v12a1.125 1.125 0 0 0 2.25 0c0-.336-.297-.598-.3-.6a1.125 1.125 0 0 1-.392-1.256M20.375 18a.7.7 0 0 0-.116-.375h-8.157q.025.187.025.375c0 .383-.065.764-.193 1.125h7.316A1.125 1.125 0 0 0 20.375 18"/></svg>