<svg viewBox="0 0 24 24" xmlns="http://www.w3.org/2000/svg" aria-hidden="true" fill="currentColor" height="24px" width="24px"><path d="M17.75 1.875H7.25A3.375 3.375 0 0 0 3.875 5.25v12a3.375 3.375 0 0 0 3.375 3.375l-.9 1.2a1.125 1.125 0 1 0 1.8 1.35l1.912-2.55h4.876l1.912 2.55a1.125 1.125 0 1 0 1.8-1.35l-.9-1.2a3.375 3.375 0 0 0 3.375-3.375v-12a3.375 3.375 0 0 0-3.375-3.375m-11.625 9v-3h5.25v3zm7.5-3h5.25v3h-5.25zM7.25 4.125h10.5a1.125 1.125 0 0 1 1.125 1.125v.375H6.125V5.25A1.125 1.125 0 0 1 7.25 4.125m10.5 14.25H7.25a1.125 1.125 0 0 1-1.125-1.125v-4.125h12.75v4.125a1.125 1.125 0 0 1-1.125 1.125m-7.5-2.625a1.5 1.5 0 1 1-3 0 1.5 1.5 0 0 1 3 0m7.5 0a1.5 1.5 0 1 1-3 0 1.5 1.5 0 0 1 3 0"/></svg>