<svg viewBox="0 0 24 24" xmlns="http://www.w3.org/2000/svg" aria-hidden="true" fill="currentColor" height="24px" width="24px"><path d="M18.36 5.59a7.5 7.5 0 0 0-13.72 0 7.125 7.125 0 0 0 5.735 13.03v3.13a1.125 1.125 0 1 0 2.25 0v-3.128a7.2 7.2 0 0 0 2.625.503h.18a7.125 7.125 0 0 0 2.93-13.536m-2.983 11.285a4.87 4.87 0 0 1-2.752-.77v-3.41l3.878-1.94a1.126 1.126 0 1 0-1.006-2.011l-2.872 1.435V8.25a1.125 1.125 0 1 0-2.25 0v4.18l-2.872-1.435a1.125 1.125 0 0 0-1.006 2.012l3.878 1.94v1.16a4.9 4.9 0 0 1-2.752.769c-2.58-.065-4.755-2.303-4.748-4.887a4.86 4.86 0 0 1 3.057-4.51 1.13 1.13 0 0 0 .636-.656 5.25 5.25 0 0 1 9.864 0 1.12 1.12 0 0 0 .636.656 4.86 4.86 0 0 1 3.057 4.508c.008 2.584-2.168 4.822-4.748 4.889"/></svg>