<svg viewBox="0 0 24 24" xmlns="http://www.w3.org/2000/svg" aria-hidden="true" fill="currentColor" height="24px" width="24px"><path d="M20.625 8.625A1.125 1.125 0 0 0 19.5 9.75v.75h-1.419l-.462-4.613a1.13 1.13 0 0 0-.369-.731l-4.022-3.573-.028-.023a1.875 1.875 0 0 0-2.4 0l-.028.023L6.75 5.156a1.13 1.13 0 0 0-.375.728L5.918 10.5H4.5v-.75a1.125 1.125 0 0 0-2.25 0v1.875a1.125 1.125 0 0 0 1.125 1.125h2.317l-.809 8.072a1.875 1.875 0 0 0 1.867 2.053h10.5a1.876 1.876 0 0 0 1.866-2.058l-.808-8.067h2.317a1.125 1.125 0 0 0 1.125-1.125V9.75a1.125 1.125 0 0 0-1.125-1.125M12 3.502l1.543 1.373h-3.086zM8.518 7.125h6.964l.338 3.375h-2.695v-.75a1.125 1.125 0 0 0-2.25 0v.75H8.18zm-1.354 13.5.301-3h9.07l.3 3zm9.149-5.25H7.687l.263-2.625h8.093z"/></svg>