<svg viewBox="0 0 24 24" xmlns="http://www.w3.org/2000/svg" aria-hidden="true" fill="currentColor"><path d="M19.5 8.25a.75.75 0 0 0-.75.75v1.5h-1.045l-.455-4.575a.75.75 0 0 0-.251-.488l-4.02-3.574-.019-.016a1.5 1.5 0 0 0-1.92 0l-.019.016-4.02 3.574a.75.75 0 0 0-.251.488L6.295 10.5H5.25V9a.75.75 0 1 0-1.5 0v2.25a.75.75 0 0 0 .75.75h1.644l-.887 8.857A1.5 1.5 0 0 0 6.75 22.5h10.5a1.5 1.5 0 0 0 1.492-1.647L17.857 12H19.5a.75.75 0 0 0 .75-.75V9a.75.75 0 0 0-.75-.75M12 3l2.531 2.25H9.47zM8.179 6.75h7.642l.375 3.75H12.75V9a.75.75 0 1 0-1.5 0v1.5H7.803zM6.75 21l.375-3.75h9.75L17.25 21zm9.974-5.25H7.276L7.65 12h8.696z"/></svg>