<svg width="24" height="24" viewBox="0 0 24 24" xmlns="http://www.w3.org/2000/svg">
<path d="M22.4991 8.27232C22.4615 9.57793 21.9246 10.8194 20.9991 11.7411L17.7413 15.0008C17.2668 15.4778 16.7024 15.8561 16.0808 16.1135C15.4592 16.371 14.7926 16.5026 14.1198 16.5008H14.1151C13.4307 16.5003 12.7534 16.3626 12.1232 16.096C11.4929 15.8294 10.9225 15.4391 10.4456 14.9483C9.96866 14.4575 9.59496 13.8761 9.34652 13.2385C9.09809 12.6008 8.97996 11.9198 8.99913 11.2358C9.00472 11.0368 9.08911 10.8483 9.23372 10.7116C9.37832 10.5749 9.57131 10.5013 9.77022 10.5068C9.96914 10.5124 10.1577 10.5968 10.2944 10.7414C10.4311 10.886 10.5047 11.079 10.4991 11.2779C10.4855 11.7616 10.5689 12.2431 10.7445 12.694C10.9201 13.1449 11.1843 13.556 11.5215 13.9031C11.8586 14.2501 12.262 14.5261 12.7076 14.7146C13.1532 14.9031 13.6321 15.0004 14.116 15.0008C14.5917 15.002 15.0628 14.9089 15.5023 14.7269C15.9418 14.5449 16.3408 14.2776 16.6763 13.9404L19.9341 10.6826C20.6063 10.002 20.9819 9.08311 20.9789 8.12654C20.9759 7.16997 20.5946 6.25344 19.9182 5.57704C19.2418 4.90064 18.3252 4.51932 17.3687 4.51633C16.4121 4.51333 15.4932 4.88891 14.8126 5.56106L13.7813 6.59231C13.6395 6.72703 13.4507 6.80102 13.2551 6.79852C13.0596 6.79602 12.8727 6.71721 12.7344 6.57891C12.5961 6.44061 12.5173 6.25375 12.5148 6.05818C12.5123 5.86261 12.5863 5.6738 12.721 5.532L13.7523 4.50075C14.228 4.02481 14.7929 3.64726 15.4146 3.38968C16.0364 3.13209 16.7027 2.99951 17.3757 2.99951C18.0487 2.99951 18.715 3.13209 19.3368 3.38968C19.9585 3.64726 20.5234 4.02481 20.9991 4.50075C21.4919 4.99477 21.879 5.58391 22.1369 6.2323C22.3948 6.88069 22.518 7.57478 22.4991 8.27232ZM10.2179 17.4064L9.18663 18.4376C8.85028 18.7762 8.44997 19.0446 8.00899 19.2271C7.568 19.4096 7.09514 19.5026 6.61788 19.5008C5.90191 19.5002 5.20218 19.2874 4.6071 18.8893C4.01201 18.4912 3.54828 17.9256 3.27449 17.2641C3.0007 16.6025 2.92914 15.8747 3.06885 15.1725C3.20857 14.4703 3.55328 13.8252 4.05944 13.3189L7.31163 10.0611C7.82387 9.54612 8.47911 9.1971 9.19225 9.05933C9.90539 8.92156 10.6435 9.00141 11.3107 9.2885C11.9778 9.57559 12.5433 10.0567 12.9335 10.6692C13.3238 11.2818 13.5209 11.9976 13.4991 12.7236C13.4935 12.9225 13.5672 13.1155 13.7039 13.2601C13.8406 13.4047 14.0291 13.4891 14.228 13.4947C14.4269 13.5003 14.6199 13.4266 14.7645 13.2899C14.9092 13.1532 14.9935 12.9647 14.9991 12.7658C15.0171 12.0693 14.8935 11.3765 14.6356 10.7293C14.3778 10.0821 13.9911 9.49401 13.4991 9.00075C12.5384 8.0404 11.2355 7.50092 9.8771 7.50092C8.51866 7.50092 7.21584 8.0404 6.25507 9.00075L2.99913 12.2586C2.2831 12.9743 1.7953 13.8862 1.59739 14.8791C1.39948 15.872 1.50033 16.9013 1.88721 17.8369C2.27409 18.7725 2.92962 19.5724 3.77097 20.1355C4.61231 20.6986 5.60171 20.9997 6.61413 21.0008C7.28713 21.0027 7.95384 20.8711 8.57564 20.6136C9.19745 20.3562 9.76201 19.9779 10.2366 19.5008L11.2679 18.4695C11.3893 18.3265 11.4527 18.1433 11.4456 17.9559C11.4385 17.7685 11.3615 17.5905 11.2298 17.4571C11.098 17.3237 10.921 17.2444 10.7337 17.235C10.5464 17.2257 10.3623 17.2868 10.2179 17.4064Z"/>
</svg>
