<svg width="24" height="24" viewBox="0 0 24 24" xmlns="http://www.w3.org/2000/svg">
<path d="M10.9872 17.6945C11.0921 17.799 11.1753 17.9232 11.2321 18.06C11.2889 18.1967 11.3181 18.3433 11.3181 18.4914C11.3181 18.6394 11.2889 18.7861 11.2321 18.9228C11.1753 19.0595 11.0921 19.1837 10.9872 19.2883L10.5072 19.7683C9.99769 20.2797 9.39182 20.685 8.72466 20.9608C8.05749 21.2366 7.34227 21.3775 6.62035 21.3751C5.53316 21.3755 4.47029 21.0534 3.56622 20.4495C2.66214 19.8457 1.95748 18.9872 1.54139 17.9828C1.12529 16.9784 1.01646 15.8732 1.22865 14.8069C1.44085 13.7406 1.96454 12.7612 2.73347 11.9926L5.99128 8.73482C6.68422 8.04198 7.54975 7.54695 8.49826 7.30096C9.44678 7.05498 10.4438 7.06698 11.3861 7.33574C12.3284 7.60449 13.1818 8.12023 13.8578 8.82955C14.5339 9.53887 15.0081 10.416 15.2313 11.3701C15.2683 11.5152 15.2759 11.6662 15.2538 11.8143C15.2316 11.9623 15.1802 12.1045 15.1024 12.2324C15.0246 12.3603 14.9221 12.4714 14.8008 12.5592C14.6796 12.647 14.542 12.7097 14.3962 12.7436C14.2504 12.7776 14.0993 12.7821 13.9517 12.7569C13.8041 12.7317 13.6631 12.6772 13.5368 12.5968C13.4105 12.5164 13.3016 12.4116 13.2163 12.2885C13.1311 12.1655 13.0712 12.0266 13.0403 11.8801C12.9079 11.3169 12.6274 10.7993 12.2279 10.3808C11.8284 9.96225 11.3244 9.65803 10.7679 9.49956C10.2114 9.34109 9.62275 9.33412 9.06269 9.47937C8.50263 9.62462 7.99153 9.91682 7.58222 10.3258L4.32441 13.5836C3.87029 14.0373 3.56093 14.6155 3.43546 15.2451C3.30998 15.8747 3.37402 16.5273 3.61948 17.1205C3.86494 17.7137 4.28079 18.2207 4.81444 18.5776C5.34809 18.9344 5.97558 19.1249 6.61753 19.1251C7.04407 19.1263 7.46661 19.0429 7.86071 18.8798C8.2548 18.7166 8.61263 18.4769 8.91347 18.1745L9.39253 17.6945C9.49707 17.5895 9.62132 17.5061 9.75815 17.4493C9.89498 17.3924 10.0417 17.3631 10.1899 17.3631C10.3381 17.3631 10.4848 17.3924 10.6216 17.4493C10.7584 17.5061 10.8827 17.5895 10.9872 17.6945ZM21.2669 4.23482C20.2358 3.20405 18.8375 2.625 17.3796 2.625C15.9216 2.625 14.5233 3.20405 13.4922 4.23482L13.0132 4.71388C12.8018 4.92522 12.6831 5.21187 12.6831 5.51075C12.6831 5.80964 12.8018 6.09628 13.0132 6.30763C13.2245 6.51897 13.5111 6.6377 13.81 6.6377C14.1089 6.6377 14.3956 6.51897 14.6069 6.30763L15.0869 5.82763C15.6961 5.21846 16.5223 4.87623 17.3838 4.87623C18.2453 4.87623 19.0715 5.21846 19.6807 5.82763C20.2898 6.4368 20.6321 7.26301 20.6321 8.1245C20.6321 8.986 20.2898 9.81221 19.6807 10.4214L16.4172 13.6745C16.1164 13.977 15.7586 14.2167 15.3645 14.3799C14.9704 14.5431 14.5478 14.6264 14.1213 14.6251C13.3896 14.6246 12.6795 14.3769 12.1062 13.9222C11.5329 13.4675 11.13 12.8325 10.9628 12.1201C10.8952 11.8295 10.7149 11.5776 10.4615 11.4199C10.2082 11.2622 9.90257 11.2116 9.61191 11.2792C9.32125 11.3468 9.06936 11.5271 8.91165 11.7805C8.75395 12.0338 8.70334 12.3395 8.77097 12.6301C9.05326 13.8366 9.73482 14.9123 10.7051 15.6828C11.6754 16.4533 12.8776 16.8735 14.1166 16.8751H14.1213C14.8435 16.8771 15.559 16.7359 16.2264 16.4596C16.8937 16.1833 17.4996 15.7774 18.0091 15.2654L21.2669 12.0076C21.7773 11.4973 22.1823 10.8914 22.4585 10.2246C22.7348 9.55774 22.877 8.84302 22.877 8.12122C22.877 7.39943 22.7348 6.6847 22.4585 6.01787C22.1823 5.35103 21.7773 4.74515 21.2669 4.23482Z"/>
</svg>
