<svg width="24" height="24" viewBox="0 0 24 24" fill="none" xmlns="http://www.w3.org/2000/svg">
<path d="M7.125 6.00049C7.125 5.70212 7.24353 5.41597 7.45451 5.20499C7.66548 4.99401 7.95163 4.87549 8.25 4.87549H20.25C20.5484 4.87549 20.8345 4.99401 21.0455 5.20499C21.2565 5.41597 21.375 5.70212 21.375 6.00049C21.375 6.29886 21.2565 6.58501 21.0455 6.79598C20.8345 7.00696 20.5484 7.12549 20.25 7.12549H8.25C7.95163 7.12549 7.66548 7.00696 7.45451 6.79598C7.24353 6.58501 7.125 6.29886 7.125 6.00049ZM20.25 10.8755H8.25C7.95163 10.8755 7.66548 10.994 7.45451 11.205C7.24353 11.416 7.125 11.7021 7.125 12.0005C7.125 12.2989 7.24353 12.585 7.45451 12.796C7.66548 13.007 7.95163 13.1255 8.25 13.1255H20.25C20.5484 13.1255 20.8345 13.007 21.0455 12.796C21.2565 12.585 21.375 12.2989 21.375 12.0005C21.375 11.7021 21.2565 11.416 21.0455 11.205C20.8345 10.994 20.5484 10.8755 20.25 10.8755ZM20.25 16.8755H8.25C7.95163 16.8755 7.66548 16.994 7.45451 17.205C7.24353 17.416 7.125 17.7021 7.125 18.0005C7.125 18.2989 7.24353 18.585 7.45451 18.796C7.66548 19.007 7.95163 19.1255 8.25 19.1255H20.25C20.5484 19.1255 20.8345 19.007 21.0455 18.796C21.2565 18.585 21.375 18.2989 21.375 18.0005C21.375 17.7021 21.2565 17.416 21.0455 17.205C20.8345 16.994 20.5484 16.8755 20.25 16.8755ZM4.125 10.5005C3.82833 10.5005 3.53832 10.5885 3.29165 10.7533C3.04497 10.9181 2.85271 11.1524 2.73918 11.4265C2.62565 11.7006 2.59594 12.0022 2.65382 12.2931C2.7117 12.5841 2.85456 12.8514 3.06434 13.0611C3.27412 13.2709 3.54139 13.4138 3.83237 13.4717C4.12334 13.5295 4.42494 13.4998 4.69903 13.3863C4.97312 13.2728 5.20738 13.0805 5.37221 12.8338C5.53703 12.5872 5.625 12.2972 5.625 12.0005C5.625 11.6027 5.46697 11.2211 5.18566 10.9398C4.90436 10.6585 4.52283 10.5005 4.125 10.5005ZM4.125 4.50049C3.82833 4.50049 3.53832 4.58846 3.29165 4.75328C3.04497 4.91811 2.85271 5.15237 2.73918 5.42646C2.62565 5.70055 2.59594 6.00215 2.65382 6.29312C2.7117 6.5841 2.85456 6.85137 3.06434 7.06115C3.27412 7.27093 3.54139 7.41379 3.83237 7.47167C4.12334 7.52954 4.42494 7.49984 4.69903 7.38631C4.97312 7.27278 5.20738 7.08052 5.37221 6.83384C5.53703 6.58717 5.625 6.29716 5.625 6.00049C5.625 5.60266 5.46697 5.22113 5.18566 4.93983C4.90436 4.65852 4.52283 4.50049 4.125 4.50049ZM4.125 16.5005C3.82833 16.5005 3.53832 16.5885 3.29165 16.7533C3.04497 16.9181 2.85271 17.1524 2.73918 17.4265C2.62565 17.7006 2.59594 18.0022 2.65382 18.2931C2.7117 18.5841 2.85456 18.8514 3.06434 19.0611C3.27412 19.2709 3.54139 19.4138 3.83237 19.4717C4.12334 19.5295 4.42494 19.4998 4.69903 19.3863C4.97312 19.2728 5.20738 19.0805 5.37221 18.8338C5.53703 18.5872 5.625 18.2972 5.625 18.0005C5.625 17.6027 5.46697 17.2211 5.18566 16.9398C4.90436 16.6585 4.52283 16.5005 4.125 16.5005Z" fill="black"/>
</svg>
