<svg width="24" height="24" viewBox="0 0 24 24" xmlns="http://www.w3.org/2000/svg">
<path d="M7.49994 6.00049C7.49994 5.80158 7.57896 5.61081 7.71961 5.47016C7.86026 5.32951 8.05103 5.25049 8.24994 5.25049H20.2499C20.4489 5.25049 20.6396 5.32951 20.7803 5.47016C20.9209 5.61081 20.9999 5.80158 20.9999 6.00049C20.9999 6.1994 20.9209 6.39017 20.7803 6.53082C20.6396 6.67147 20.4489 6.75049 20.2499 6.75049H8.24994C8.05103 6.75049 7.86026 6.67147 7.71961 6.53082C7.57896 6.39017 7.49994 6.1994 7.49994 6.00049ZM20.2499 11.2505H8.24994C8.05103 11.2505 7.86026 11.3295 7.71961 11.4702C7.57896 11.6108 7.49994 11.8016 7.49994 12.0005C7.49994 12.1994 7.57896 12.3902 7.71961 12.5308C7.86026 12.6715 8.05103 12.7505 8.24994 12.7505H20.2499C20.4489 12.7505 20.6396 12.6715 20.7803 12.5308C20.9209 12.3902 20.9999 12.1994 20.9999 12.0005C20.9999 11.8016 20.9209 11.6108 20.7803 11.4702C20.6396 11.3295 20.4489 11.2505 20.2499 11.2505ZM20.2499 17.2505H8.24994C8.05103 17.2505 7.86026 17.3295 7.71961 17.4702C7.57896 17.6108 7.49994 17.8016 7.49994 18.0005C7.49994 18.1994 7.57896 18.3902 7.71961 18.5308C7.86026 18.6715 8.05103 18.7505 8.24994 18.7505H20.2499C20.4489 18.7505 20.6396 18.6715 20.7803 18.5308C20.9209 18.3902 20.9999 18.1994 20.9999 18.0005C20.9999 17.8016 20.9209 17.6108 20.7803 17.4702C20.6396 17.3295 20.4489 17.2505 20.2499 17.2505ZM4.12494 4.87549C3.90244 4.87549 3.68493 4.94147 3.49992 5.06509C3.31492 5.1887 3.17072 5.3644 3.08557 5.56997C3.00043 5.77554 2.97815 6.00174 3.02156 6.21997C3.06496 6.43819 3.17211 6.63865 3.32944 6.79598C3.48678 6.95332 3.68723 7.06046 3.90546 7.10387C4.12369 7.14728 4.34989 7.125 4.55546 7.03985C4.76103 6.9547 4.93673 6.81051 5.06034 6.6255C5.18396 6.4405 5.24994 6.22299 5.24994 6.00049C5.24994 5.70212 5.13141 5.41597 4.92043 5.20499C4.70946 4.99401 4.42331 4.87549 4.12494 4.87549ZM4.12494 10.8755C3.90244 10.8755 3.68493 10.9415 3.49992 11.0651C3.31492 11.1887 3.17072 11.3644 3.08557 11.57C3.00043 11.7755 2.97815 12.0017 3.02156 12.22C3.06496 12.4382 3.17211 12.6386 3.32944 12.796C3.48678 12.9533 3.68723 13.0605 3.90546 13.1039C4.12369 13.1473 4.34989 13.125 4.55546 13.0399C4.76103 12.9547 4.93673 12.8105 5.06034 12.6255C5.18396 12.4405 5.24994 12.223 5.24994 12.0005C5.24994 11.7021 5.13141 11.416 4.92043 11.205C4.70946 10.994 4.42331 10.8755 4.12494 10.8755ZM4.12494 16.8755C3.90244 16.8755 3.68493 16.9415 3.49992 17.0651C3.31492 17.1887 3.17072 17.3644 3.08557 17.57C3.00043 17.7755 2.97815 18.0017 3.02156 18.22C3.06496 18.4382 3.17211 18.6386 3.32944 18.796C3.48678 18.9533 3.68723 19.0605 3.90546 19.1039C4.12369 19.1473 4.34989 19.125 4.55546 19.0399C4.76103 18.9547 4.93673 18.8105 5.06034 18.6255C5.18396 18.4405 5.24994 18.223 5.24994 18.0005C5.24994 17.7021 5.13141 17.416 4.92043 17.205C4.70946 16.994 4.42331 16.8755 4.12494 16.8755Z"/>
</svg>
