<svg width="24" height="24" viewBox="0 0 24 24" xmlns="http://www.w3.org/2000/svg" fill="currentColor" aria-hidden="true"> <path d="M21.75 12.375C21.75 12.6734 21.6315 12.9595 21.4205 13.1705C21.2095 13.3815 20.9234 13.5 20.625 13.5H4.125C3.82663 13.5 3.54048 13.3815 3.3295 13.1705C3.11853 12.9595 3 12.6734 3 12.375C3 12.0766 3.11853 11.7905 3.3295 11.5795C3.54048 11.3685 3.82663 11.25 4.125 11.25H20.625C20.9234 11.25 21.2095 11.3685 21.4205 11.5795C21.6315 11.7905 21.75 12.0766 21.75 12.375ZM4.125 7.5H20.625C20.9234 7.5 21.2095 7.38147 21.4205 7.1705C21.6315 6.95952 21.75 6.67337 21.75 6.375C21.75 6.07663 21.6315 5.79048 21.4205 5.5795C21.2095 5.36853 20.9234 5.25 20.625 5.25H4.125C3.82663 5.25 3.54048 5.36853 3.3295 5.5795C3.11853 5.79048 3 6.07663 3 6.375C3 6.67337 3.11853 6.95952 3.3295 7.1705C3.54048 7.38147 3.82663 7.5 4.125 7.5ZM20.625 17.25H4.125C3.82663 17.25 3.54048 17.3685 3.3295 17.5795C3.11853 17.7905 3 18.0766 3 18.375C3 18.6734 3.11853 18.9595 3.3295 19.1705C3.54048 19.3815 3.82663 19.5 4.125 19.5H20.625C20.9234 19.5 21.2095 19.3815 21.4205 19.1705C21.6315 18.9595 21.75 18.6734 21.75 18.375C21.75 18.0766 21.6315 17.7905 21.4205 17.5795C21.2095 17.3685 20.9234 17.25 20.625 17.25Z"/> </svg>