<?xml version="1.0" encoding="utf-8"?>
<!-- Generator: Adobe Illustrator 24.2.1, SVG Export Plug-In . SVG Version: 6.00 Build 0)  -->
<svg version="1.1" id="Layer_1" xmlns="http://www.w3.org/2000/svg" xmlns:xlink="http://www.w3.org/1999/xlink" x="0px" y="0px"
	 viewBox="0 0 14 20" style="enable-background:new 0 0 14 20;" xml:space="preserve">
<style type="text/css">
	.st0{fill:#14558F;}
	.st1{fill:#FFFFFF;}
</style>
<g>
	<path class="st0" d="M1.6,11.8c-2-2.7-1.7-7.2,0.6-9.5c1.3-1.3,3-2,4.8-2c1.8,0,3.5,0.7,4.8,2c2.4,2.4,2.7,6.8,0.6,9.5L7,19.6
		L1.6,11.8z M7.1,4.1c-1.5,0-2.8,1.3-2.8,2.8s1.3,2.8,2.8,2.8c1.5,0,2.8-1.3,2.8-2.8S8.6,4.1,7.1,4.1z"/>
	<path class="st1" d="M7,0.5c1.7,0,3.4,0.7,4.6,1.9c2.3,2.3,2.6,6.6,0.6,9.2L7,19.1l-5.2-7.5c-2-2.6-1.7-6.9,0.6-9.2
		C3.6,1.2,5.3,0.5,7,0.5 M7.1,10c1.7,0,3.1-1.4,3.1-3.1S8.8,3.9,7.1,3.9C5.4,3.9,4,5.3,4,6.9S5.4,10,7.1,10 M7,0
		C5.1,0,3.4,0.7,2.1,2.1c-2.4,2.4-2.8,7.1-0.7,9.8L7,20l5.6-8.1c2.1-2.8,1.8-7.4-0.7-9.9C10.6,0.7,8.9,0,7,0L7,0z M7.1,9.5
		c-1.4,0-2.6-1.1-2.6-2.6c0-1.4,1.2-2.6,2.6-2.6c1.4,0,2.6,1.2,2.6,2.6C9.6,8.4,8.5,9.5,7.1,9.5L7.1,9.5z"/>
</g>
</svg>
