<svg width="24" height="24" viewBox="0 0 24 24" xmlns="http://www.w3.org/2000/svg">
<path d="M20.2499 9.00246C20.2507 7.61215 19.9002 6.24418 19.2308 5.02561C18.5615 3.80703 17.595 2.77739 16.4212 2.0323C15.2474 1.28722 13.9043 0.850863 12.5167 0.763765C11.1292 0.676667 9.74207 0.941653 8.48432 1.53411C7.22656 2.12657 6.13892 3.02728 5.32243 4.15258C4.50595 5.27789 3.98709 6.59129 3.81405 7.97079C3.64102 9.35029 3.81942 10.7511 4.33269 12.0432C4.84596 13.3353 5.67744 14.4768 6.74991 15.3615V22.5025C6.74982 22.6304 6.78244 22.7562 6.84468 22.8679C6.90691 22.9797 6.99669 23.0736 7.10548 23.1409C7.21428 23.2082 7.33846 23.2465 7.46624 23.2522C7.59402 23.258 7.72115 23.2309 7.83554 23.1737L11.9999 21.0962L16.1652 23.1784C16.2696 23.2284 16.3842 23.2537 16.4999 23.2525C16.6988 23.2525 16.8896 23.1734 17.0302 23.0328C17.1709 22.8921 17.2499 22.7014 17.2499 22.5025V15.3615C18.1883 14.5887 18.9439 13.6177 19.4626 12.5182C19.9813 11.4188 20.2502 10.2181 20.2499 9.00246ZM5.24991 9.00246C5.24991 7.66743 5.64579 6.36239 6.38749 5.25236C7.12919 4.14233 8.1834 3.27716 9.4168 2.76627C10.6502 2.25538 12.0074 2.12171 13.3168 2.38216C14.6261 2.64261 15.8289 3.28548 16.7729 4.22949C17.7169 5.17349 18.3598 6.37623 18.6202 7.6856C18.8807 8.99497 18.747 10.3522 18.2361 11.5856C17.7252 12.819 16.86 13.8732 15.75 14.6149C14.64 15.3566 13.3349 15.7525 11.9999 15.7525C10.2103 15.7505 8.49457 15.0387 7.22913 13.7732C5.96369 12.5078 5.25189 10.7921 5.24991 9.00246ZM15.7499 21.2893L12.3346 19.5821C12.2304 19.53 12.1155 19.5029 11.999 19.5029C11.8825 19.5029 11.7675 19.53 11.6633 19.5821L8.24991 21.2893V16.3496C9.41088 16.943 10.6961 17.2524 11.9999 17.2524C13.3037 17.2524 14.5889 16.943 15.7499 16.3496V21.2893ZM11.9999 14.2525C13.0383 14.2525 14.0533 13.9446 14.9167 13.3677C15.78 12.7908 16.4529 11.9709 16.8503 11.0115C17.2476 10.0522 17.3516 8.99663 17.149 7.97823C16.9465 6.95983 16.4464 6.02437 15.7122 5.29015C14.978 4.55592 14.0425 4.05591 13.0241 3.85333C12.0057 3.65076 10.9501 3.75473 9.99082 4.15209C9.03151 4.54945 8.21157 5.22236 7.63469 6.08571C7.05782 6.94907 6.74991 7.96411 6.74991 9.00246C6.7514 10.3944 7.305 11.7289 8.28924 12.7131C9.27349 13.6974 10.608 14.251 11.9999 14.2525ZM11.9999 5.25246C12.7416 5.25246 13.4666 5.47239 14.0833 5.88445C14.7 6.2965 15.1806 6.88217 15.4645 7.56739C15.7483 8.25262 15.8225 9.00662 15.6779 9.73405C15.5332 10.4615 15.176 11.1297 14.6516 11.6541C14.1271 12.1786 13.4589 12.5357 12.7315 12.6804C12.0041 12.8251 11.2501 12.7508 10.5648 12.467C9.87962 12.1832 9.29395 11.7025 8.8819 11.0858C8.46984 10.4692 8.24991 9.74414 8.24991 9.00246C8.24991 8.0079 8.645 7.05407 9.34826 6.35081C10.0515 5.64755 11.0053 5.25246 11.9999 5.25246Z"/>
</svg>
