<svg viewBox="0 0 24 24" xmlns="http://www.w3.org/2000/svg" aria-hidden="true" fill="currentColor"><path d="M6.75 6a6 6 0 1 0 6 6 6.006 6.006 0 0 0-6-6m0 10.5a4.5 4.5 0 1 1 0-9 4.5 4.5 0 0 1 0 9M17.25 6c-.532 0-1.537.259-2.28 1.992-.464 1.083-.72 2.508-.72 4.008s.256 2.925.72 4.008C15.712 17.74 16.718 18 17.25 18s1.538-.259 2.28-1.992c.464-1.083.72-2.508.72-4.008s-.256-2.925-.72-4.008C18.788 6.26 17.782 6 17.25 6m0 10.5c-.529 0-1.5-1.708-1.5-4.5s.971-4.5 1.5-4.5 1.5 1.708 1.5 4.5-.971 4.5-1.5 4.5m6-9.75v10.5a.75.75 0 1 1-1.5 0V6.75a.75.75 0 1 1 1.5 0"/></svg>