<svg width="24" height="24" viewBox="0 0 24 24" xmlns="http://www.w3.org/2000/svg">
<path d="M13.125 11.9999C13.125 12.2224 13.059 12.4399 12.9354 12.6249C12.8118 12.8099 12.6361 12.9541 12.4305 13.0393C12.225 13.1244 11.9988 13.1467 11.7805 13.1033C11.5623 13.0599 11.3618 12.9527 11.2045 12.7954C11.0472 12.6381 10.94 12.4376 10.8966 12.2194C10.8532 12.0012 10.8755 11.775 10.9606 11.5694C11.0458 11.3638 11.19 11.1881 11.375 11.0645C11.56 10.9409 11.7775 10.8749 12 10.8749C12.2984 10.8749 12.5845 10.9934 12.7955 11.2044C13.0065 11.4154 13.125 11.7015 13.125 11.9999ZM7.875 10.8749C7.6525 10.8749 7.43499 10.9409 7.24998 11.0645C7.06498 11.1881 6.92078 11.3638 6.83564 11.5694C6.75049 11.775 6.72821 12.0012 6.77162 12.2194C6.81502 12.4376 6.92217 12.6381 7.0795 12.7954C7.23684 12.9527 7.43729 13.0599 7.65552 13.1033C7.87375 13.1467 8.09995 13.1244 8.30552 13.0393C8.51109 12.9541 8.68679 12.8099 8.8104 12.6249C8.93402 12.4399 9 12.2224 9 11.9999C9 11.7015 8.88147 11.4154 8.6705 11.2044C8.45952 10.9934 8.17337 10.8749 7.875 10.8749ZM16.125 10.8749C15.9025 10.8749 15.685 10.9409 15.5 11.0645C15.315 11.1881 15.1708 11.3638 15.0856 11.5694C15.0005 11.775 14.9782 12.0012 15.0216 12.2194C15.065 12.4376 15.1722 12.6381 15.3295 12.7954C15.4868 12.9527 15.6873 13.0599 15.9055 13.1033C16.1238 13.1467 16.35 13.1244 16.5555 13.0393C16.7611 12.9541 16.9368 12.8099 17.0604 12.6249C17.184 12.4399 17.25 12.2224 17.25 11.9999C17.25 11.7015 17.1315 11.4154 16.9205 11.2044C16.7095 10.9934 16.4234 10.8749 16.125 10.8749ZM21.75 11.9999C21.7504 13.6832 21.3149 15.338 20.486 16.803C19.6572 18.2681 18.4631 19.4937 17.02 20.3604C15.577 21.2271 13.9341 21.7054 12.2514 21.7488C10.5686 21.7922 8.9033 21.3992 7.4175 20.608L4.22531 21.6721C3.96102 21.7602 3.6774 21.773 3.40624 21.709C3.13509 21.645 2.88711 21.5068 2.69011 21.3098C2.49311 21.1128 2.35486 20.8648 2.29087 20.5937C2.22688 20.3225 2.23967 20.0389 2.32781 19.7746L3.39187 16.5824C2.69639 15.2748 2.30793 13.826 2.256 12.3458C2.20406 10.8657 2.49001 9.39316 3.09213 8.04003C3.69425 6.6869 4.59672 5.48873 5.73105 4.53646C6.86537 3.58419 8.20173 2.90285 9.63869 2.54416C11.0756 2.18548 12.5754 2.15886 14.0242 2.46635C15.473 2.77383 16.8327 3.40733 18.0001 4.31875C19.1675 5.23018 20.1119 6.39558 20.7616 7.7265C21.4114 9.05741 21.7494 10.5189 21.75 11.9999ZM20.25 11.9999C20.2496 10.7344 19.9582 9.48593 19.3981 8.3511C18.838 7.21627 18.0244 6.2255 17.0201 5.45544C16.0159 4.68537 14.8479 4.15666 13.6067 3.91021C12.3654 3.66375 11.084 3.70616 9.86178 4.03415C8.63951 4.36215 7.50909 4.96693 6.55796 5.80171C5.60682 6.6365 4.86049 7.6789 4.37668 8.84828C3.89288 10.0177 3.68458 11.2827 3.7679 12.5454C3.85122 13.8082 4.22393 15.0349 4.85719 16.1305C4.91034 16.2225 4.94334 16.3247 4.954 16.4304C4.96467 16.5361 4.95276 16.6429 4.91906 16.7437L3.75 20.2499L7.25625 19.0808C7.33262 19.0548 7.41275 19.0415 7.49344 19.0415C7.62516 19.0417 7.7545 19.0766 7.86844 19.1427C9.12263 19.8684 10.5458 20.2509 11.9948 20.2518C13.4438 20.2527 14.8674 19.872 16.1225 19.1479C17.3776 18.4239 18.4199 17.382 19.1445 16.1272C19.869 14.8724 20.2503 13.4489 20.25 11.9999Z"/>
</svg>
