<svg width="24" height="24" viewBox="0 0 24 24" xmlns="http://www.w3.org/2000/svg">
<path d="M11.75 11.9999C11.75 12.2966 11.662 12.5866 11.4972 12.8333C11.3324 13.0799 11.0981 13.2722 10.824 13.3857C10.5499 13.4993 10.2483 13.529 9.95737 13.4711C9.6664 13.4132 9.39912 13.2704 9.18934 13.0606C8.97957 12.8508 8.8367 12.5835 8.77883 12.2926C8.72095 12.0016 8.75065 11.7 8.86418 11.4259C8.97772 11.1518 9.16997 10.9175 9.41665 10.7527C9.66332 10.5879 9.95333 10.4999 10.25 10.4999C10.6478 10.4999 11.0294 10.658 11.3107 10.9393C11.592 11.2206 11.75 11.6021 11.75 11.9999ZM14.75 10.4999C14.4533 10.4999 14.1633 10.5879 13.9166 10.7527C13.67 10.9175 13.4777 11.1518 13.3642 11.4259C13.2507 11.7 13.2209 12.0016 13.2788 12.2926C13.3367 12.5835 13.4796 12.8508 13.6893 13.0606C13.8991 13.2704 14.1664 13.4132 14.4574 13.4711C14.7483 13.529 15.0499 13.4993 15.324 13.3857C15.5981 13.2722 15.8324 13.0799 15.9972 12.8333C16.162 12.5866 16.25 12.2966 16.25 11.9999C16.25 11.6021 16.092 11.2206 15.8107 10.9393C15.5294 10.658 15.1478 10.4999 14.75 10.4999ZM22.625 11.9999C22.6254 13.7343 22.1802 15.4396 21.3323 16.9525C20.4843 18.4654 19.2619 19.7351 17.7823 20.64C16.3027 21.5448 14.6154 22.0544 12.8823 22.1199C11.1492 22.1853 9.42837 21.8046 7.88469 21.014L4.84438 22.0312C4.5134 22.1427 4.15785 22.1596 3.8178 22.0799C3.47774 22.0002 3.1667 21.8272 2.91973 21.5802C2.67277 21.3332 2.49969 21.0222 2.42001 20.6821C2.34033 20.3421 2.35721 19.9865 2.46875 19.6555L3.48219 16.6152C2.78628 15.2521 2.40845 13.7489 2.37713 12.2187C2.34581 10.6885 2.6618 9.17109 3.30135 7.7806C3.9409 6.39011 4.88736 5.1627 6.06958 4.19066C7.25179 3.21862 8.63899 2.52724 10.1269 2.16851C11.6148 1.80979 13.1646 1.79304 14.6599 2.11954C16.1552 2.44603 17.557 3.10727 18.76 4.05354C19.9629 4.99982 20.9357 6.20649 21.6051 7.58284C22.2746 8.95919 22.6233 10.4694 22.625 11.9999ZM20.375 11.9999C20.3745 10.792 20.0962 9.60036 19.5615 8.5172C19.0269 7.43405 18.2502 6.48841 17.2916 5.75343C16.333 5.01846 15.2182 4.51386 14.0334 4.27865C12.8486 4.04345 11.6255 4.08396 10.4589 4.39704C9.29224 4.71012 8.21325 5.28739 7.30539 6.08418C6.39752 6.88097 5.68512 7.87593 5.2233 8.99208C4.76147 10.1082 4.5626 11.3157 4.64206 12.521C4.72153 13.7263 5.0772 14.8972 5.68157 15.943C5.76144 16.081 5.81111 16.2343 5.82727 16.3928C5.84343 16.5514 5.82572 16.7115 5.77532 16.8627L4.84438 19.6555L7.63719 18.7246C7.75208 18.6863 7.87235 18.6667 7.99344 18.6665C8.19102 18.6668 8.38503 18.7192 8.55594 18.8184C9.75315 19.5111 11.1117 19.8763 12.4949 19.8772C13.8781 19.8781 15.2371 19.5147 16.4352 18.8235C17.6333 18.1323 18.6282 17.1377 19.3199 15.9399C20.0115 14.742 20.3754 13.3831 20.375 11.9999Z"/>
</svg>
