<svg aria-hidden="true" version="1.1" xmlns="http://www.w3.org/2000/svg" x="0" y="0" viewBox="0 0 34.8 33" xml:space="preserve"><style>.st1{fill-rule:evenodd;clip-rule:evenodd;fill:#fff}</style><path d="M17.4.4C8 .4.4 7.2.4 15.7c0 3.1 1 6 2.8 8.4-.2 2.8-.9 6.7-2.8 8.6 0 0 5.8-.8 9.8-3.2 2.2.9 4.6 1.4 7.2 1.4 9.4 0 17-6.8 17-15.3S26.8.4 17.4.4" fill-rule="evenodd" clip-rule="evenodd"/><g id="dots"><path class="st1" d="M10.9 16.1c0 1.4-1.2 2.6-2.6 2.6s-2.6-1.2-2.6-2.6 1.2-2.6 2.6-2.6 2.6 1.1 2.6 2.6"/><path class="st1" d="M20.5 16.1c0 1.4-1.2 2.6-2.6 2.6-1.4 0-2.6-1.2-2.6-2.6s1.2-2.6 2.6-2.6c1.4-.1 2.6 1.1 2.6 2.6"/><path class="st1" d="M30.1 16.1c0 1.4-1.2 2.6-2.6 2.6s-2.6-1.2-2.6-2.6 1.2-2.6 2.6-2.6 2.6 1.1 2.6 2.6"/></g></svg>