<svg width="24" height="24" viewBox="0 0 24 24" xmlns="http://www.w3.org/2000/svg">
<path d="M21 20.25H19.1194C20.0728 19.0914 20.6923 17.6949 20.9115 16.2106C21.1307 14.7263 20.9412 13.2103 20.3633 11.8257C19.7855 10.441 18.8411 9.24003 17.6319 8.35184C16.4226 7.46365 14.9941 6.92185 13.5 6.78469V3.75C13.5 3.35218 13.342 2.97064 13.0607 2.68934C12.7794 2.40804 12.3978 2.25 12 2.25H7.5C7.10218 2.25 6.72064 2.40804 6.43934 2.68934C6.15804 2.97064 6 3.35218 6 3.75V13.5C6 13.8978 6.15804 14.2794 6.43934 14.5607C6.72064 14.842 7.10218 15 7.5 15H12C12.3978 15 12.7794 14.842 13.0607 14.5607C13.342 14.2794 13.5 13.8978 13.5 13.5V8.29313C14.8232 8.44143 16.073 8.97776 17.0921 9.83464C18.1112 10.6915 18.8542 11.8307 19.2275 13.1087C19.6007 14.3868 19.5877 15.7468 19.19 17.0175C18.7922 18.2882 18.0276 19.4128 16.9922 20.25H3C2.80109 20.25 2.61032 20.329 2.46967 20.4697C2.32902 20.6103 2.25 20.8011 2.25 21C2.25 21.1989 2.32902 21.3897 2.46967 21.5303C2.61032 21.671 2.80109 21.75 3 21.75H21C21.1989 21.75 21.3897 21.671 21.5303 21.5303C21.671 21.3897 21.75 21.1989 21.75 21C21.75 20.8011 21.671 20.6103 21.5303 20.4697C21.3897 20.329 21.1989 20.25 21 20.25ZM12 13.5H7.5V3.75H12V13.5ZM6.75 18C6.55109 18 6.36032 17.921 6.21967 17.7803C6.07902 17.6397 6 17.4489 6 17.25C6 17.0511 6.07902 16.8603 6.21967 16.7197C6.36032 16.579 6.55109 16.5 6.75 16.5H12.75C12.9489 16.5 13.1397 16.579 13.2803 16.7197C13.421 16.8603 13.5 17.0511 13.5 17.25C13.5 17.4489 13.421 17.6397 13.2803 17.7803C13.1397 17.921 12.9489 18 12.75 18H6.75Z"/>
</svg>
