<svg viewBox="0 0 24 24" xmlns="http://www.w3.org/2000/svg" aria-hidden="true" fill="currentColor" height="24px" width="24px"><g clip-path="url(#a)"><path d="M19.875 12.375q-.172 0-.34.015l-3.107-8.285a1.125 1.125 0 0 0-1.053-.73h-3a1.125 1.125 0 0 0 0 2.25h2.22l2.834 7.556A4.15 4.15 0 0 0 16.03 15h-2.738l-2.115-5.645a1.125 1.125 0 0 0-1.053-.73h-7.5a1.125 1.125 0 0 0 0 2.25H3v.274a5.64 5.64 0 0 0-3 4.976 1.125 1.125 0 0 0 1.125 1.125h.444a4.125 4.125 0 0 0 8.111 0h6.139a4.125 4.125 0 1 0 4.056-4.875M4.5 12.942a1.125 1.125 0 0 0 .75-1.061v-1.006h4.095L10.892 15h-8.45A3.37 3.37 0 0 1 4.5 12.942m1.125 5.433a1.88 1.88 0 0 1-1.718-1.125h3.435a1.88 1.88 0 0 1-1.717 1.125m14.25 0a1.875 1.875 0 1 1 0-3.751 1.875 1.875 0 0 1 0 3.751"/></g><defs><clipPath id="a"><path d="M0 0h24v24H0z"/></clipPath></defs></svg>