<svg viewBox="0 0 24 24" xmlns="http://www.w3.org/2000/svg" aria-hidden="true" fill="currentColor"><g clip-path="url(#a)"><path d="M20.25 12.748q-.295 0-.587.047l-3.21-8.56a.75.75 0 0 0-.702-.487h-3a.75.75 0 0 0 0 1.5h2.48l3.028 8.075a3.76 3.76 0 0 0-1.687 2.425h-3.77l-2.344-6.263a.75.75 0 0 0-.707-.487h-7.5a.75.75 0 1 0 0 1.5H3v1.255a5.26 5.26 0 0 0-3 4.745.75.75 0 0 0 .75.75h.825a3.75 3.75 0 0 0 7.35 0h7.65a3.75 3.75 0 1 0 3.675-4.5m-16.249.213a.75.75 0 0 0 .5-.707v-1.756h4.73l1.97 5.25H1.576A3.76 3.76 0 0 1 4 12.961m1.25 5.787a2.25 2.25 0 0 1-2.12-1.5h4.24a2.25 2.25 0 0 1-2.12 1.5m15 0a2.25 2.25 0 0 1-1.447-3.971l.745 1.985a.752.752 0 0 0 1.406-.527l-.746-1.987h.042a2.25 2.25 0 1 1 0 4.5"/></g><defs><clipPath id="a"><path d="M0 0h24v24H0z"/></clipPath></defs></svg>