<svg viewBox="0 0 24 24" xmlns="http://www.w3.org/2000/svg" aria-hidden="true" fill="currentColor" height="24px" width="24px"><g clip-path="url(#a)"><path d="m22.096 2.299-.125-.125C20.56.777 18.712.111 17.267.476c-.951.241-1.632.887-1.917 1.82l-2.155 7.078.176-2.771a.75.75 0 0 0-.187-.545l-1.447-1.633.075-1.328a.75.75 0 0 0-1.498-.085L10.22 4.65a.75.75 0 0 0 .187.54l1.445 1.63-.147 2.313-.068-.067a1.94 1.94 0 0 0-.995-.535 2.44 2.44 0 0 0-.69-2.063L9.784 6.3a2.42 2.42 0 0 0-1.726-.712c-.394 0-.772.092-1.112.266L2.333 1.238a.75.75 0 0 0-1.06 1.06l4.614 4.614a2.45 2.45 0 0 0 .446 2.838l.168.168a2.43 2.43 0 0 0 1.798.711c.026.296.12.575.268.825l-2.018.129-1.632-1.445a.75.75 0 0 0-.539-.187l-1.636.092a.75.75 0 1 0 .084 1.498l1.328-.075 1.633 1.446a.75.75 0 0 0 .497.189l.048-.002 2.771-.176-7.077 2.155c-.934.284-1.58.966-1.82 1.917-.366 1.446.3 3.293 1.696 4.704l.063.063.001.001.061.061c1.155 1.143 2.602 1.796 3.881 1.796q.43 0 .824-.098c.952-.241 1.633-.887 1.918-1.82l2.353-7.726.71.71a.74.74 0 0 0-.15.3l-.677 2.815a.75.75 0 0 0 .164.667l1.805 2.081v1.41a.75.75 0 0 0 1.501 0v-1.69a.75.75 0 0 0-.184-.49l-1.737-2.001.46-1.909.232.233c.37.369.863.573 1.388.573s1.018-.203 1.387-.573a1.965 1.965 0 0 0 0-2.775l-.025-.026 1.705-.41 2 1.737a.75.75 0 0 0 .492.184h1.69a.75.75 0 1 0 0-1.5h-1.41l-2.08-1.807a.75.75 0 0 0-.668-.163l-2.814.677a.7.7 0 0 0-.145.051l-.706-.706 8.032-2.445c.934-.285 1.581-.965 1.821-1.918.366-1.445-.3-3.292-1.698-4.705zM7.562 8.859l-.168-.168a.943.943 0 0 1 .666-1.607c.24 0 .482.092.666.275l.167.168a.943.943 0 0 1 0 1.332.943.943 0 0 1-1.33 0m-.347 12.408q-.195.638-.85.804c-.775.196-2.092-.133-3.281-1.31l-.057-.057-.057-.056c-1.177-1.19-1.506-2.506-1.31-3.283.11-.435.381-.72.804-.849l6.833-2.081zm7.627-6.225a.46.46 0 0 1-.327.134.46.46 0 0 1-.328-.134L9.926 10.78a.46.46 0 0 1 .327-.787.46.46 0 0 1 .327.134l4.263 4.263a.47.47 0 0 1 0 .653m7.498-8.405q-.167.654-.803.849l-6.833 2.081 2.081-6.832q.196-.638.85-.804.207-.052.46-.053c.779 0 1.844.395 2.824 1.364l.111.112c1.178 1.19 1.507 2.505 1.31 3.283"/></g><defs><clipPath id="a"><path d="M0 0h24v24H0z"/></clipPath></defs></svg>