<svg viewBox="0 0 24 24" xmlns="http://www.w3.org/2000/svg" aria-hidden="true" fill="currentColor"><path d="M20.25 22.477H3.75c-.827 0-1.5-.674-1.5-1.5V10.478c0-.826.673-1.5 1.5-1.5h16.5c.827 0 1.5.674 1.5 1.5v10.499c0 .826-.673 1.5-1.5 1.5M3.75 10.478v10.499h16.5V10.478z"/><path d="M10.789 18.436a.75.75 0 0 1-.53-.22l-1.883-1.882a.75.75 0 0 1 1.06-1.06l1.353 1.353 3.773-3.774a.75.75 0 0 1 1.06 1.06l-4.304 4.305a.75.75 0 0 1-.53.219zm-4.04-8.08a.75.75 0 0 1-.558-1.252L9.93 4.938a.75.75 0 0 1 1.117 1.002l-3.738 4.166a.75.75 0 0 1-.559.25m10.501 0a.75.75 0 0 1-.557-.248L12.958 5.97a.75.75 0 0 1 1.114-1.005l3.735 4.14a.75.75 0 0 1-.557 1.252"/><path d="M12 3.023a.722.722 0 1 1 0 1.445.722.722 0 0 1 0-1.445m0-1.5a2.224 2.224 0 0 0-2.222 2.222c0 1.226.997 2.222 2.222 2.222a2.224 2.224 0 0 0 2.222-2.222A2.224 2.224 0 0 0 12 1.523"/></svg>