<svg viewBox="0 0 24 24" xmlns="http://www.w3.org/2000/svg" aria-hidden="true" fill="currentColor" height="24px" width="24px"><path d="M20.194 9.43h-2.3l-3.078-3.362c.19-.376.296-.8.296-1.248 0-1.555-1.284-2.82-2.862-2.82S9.388 3.265 9.388 4.82c0 .443.105.862.29 1.236L6.605 9.43h-2.3c-.995 0-1.805.798-1.805 1.78v9.96c0 .982.81 1.78 1.806 1.78h15.888c.996 0 1.806-.798 1.806-1.78v-9.96c0-.982-.81-1.78-1.806-1.78M12.25 4.136a.69.69 0 0 1 .695.685.69.69 0 0 1-.695.685.69.69 0 0 1-.695-.685.69.69 0 0 1 .695-.685m-.956 3.342a2.88 2.88 0 0 0 1.898.004l1.784 1.948h-5.46zm8.54 13.337H4.666v-9.25h15.166z"/><path d="M10.318 18.804c.211.208.489.312.767.312s.554-.104.766-.312l4.145-4.084a1.056 1.056 0 0 0 0-1.51 1.094 1.094 0 0 0-1.532 0l-3.379 3.329-1.047-1.032a1.094 1.094 0 0 0-1.532 0 1.057 1.057 0 0 0 0 1.51z"/></svg>