<svg width="24" height="24" viewBox="0 0 24 24" xmlns="http://www.w3.org/2000/svg" fill="currentColor" aria-hidden="true"> <path d="M20.4812 12.6055L12.7881 20.293C11.7328 21.3479 10.3018 21.9403 8.80972 21.9401C7.31766 21.9398 5.88682 21.3468 4.83196 20.2916C3.77711 19.2364 3.18464 17.8053 3.18491 16.3133C3.18517 14.8212 3.77814 13.3904 4.83337 12.3355L14.0359 3.15832C14.7394 2.45516 15.6934 2.06028 16.6881 2.06055C17.1806 2.06068 17.6683 2.15781 18.1233 2.34641C18.5782 2.53501 18.9916 2.81137 19.3398 3.15973C19.6879 3.50808 19.9641 3.92159 20.1524 4.37667C20.3408 4.83174 20.4377 5.31946 20.4375 5.81197C20.4374 6.30448 20.3403 6.79215 20.1517 7.24712C19.9631 7.70209 19.6867 8.11546 19.3384 8.46363L19.3224 8.47863L10.3412 17.1243C10.2347 17.2267 10.1091 17.3071 9.97148 17.361C9.83389 17.4149 9.68704 17.4412 9.53931 17.4383C9.39157 17.4354 9.24585 17.4035 9.11047 17.3443C8.97508 17.2851 8.85268 17.1998 8.75025 17.0933C8.64781 16.9868 8.56736 16.8612 8.51348 16.7236C8.4596 16.586 8.43335 16.4392 8.43622 16.2914C8.43909 16.1437 8.47104 15.998 8.53022 15.8626C8.58941 15.7272 8.67469 15.6048 8.78118 15.5024L17.754 6.86613C18.0345 6.58392 18.1913 6.20186 18.1901 5.80399C18.1889 5.40612 18.0296 5.02504 17.7474 4.74457C17.6077 4.6057 17.442 4.49571 17.2597 4.42088C17.0775 4.34605 16.8823 4.30785 16.6853 4.30846C16.2874 4.30969 15.9063 4.46892 15.6259 4.75113L6.42337 13.9255C5.79046 14.5587 5.43499 15.4173 5.43516 16.3126C5.43525 16.7559 5.52265 17.1948 5.69236 17.6043C5.86208 18.0138 6.1108 18.3859 6.42431 18.6993C6.73782 19.0126 7.10998 19.2612 7.51956 19.4308C7.92913 19.6003 8.36809 19.6875 8.81138 19.6875C9.70663 19.6873 10.5651 19.3315 11.1981 18.6983L18.8912 11.0108C18.9958 10.9062 19.1201 10.8232 19.2568 10.7665C19.3935 10.7099 19.5401 10.6807 19.6881 10.6807C19.8361 10.6807 19.9826 10.7099 20.1193 10.7665C20.2561 10.8232 20.3803 10.9062 20.4849 11.0108C20.5896 11.1155 20.6726 11.2397 20.7292 11.3764C20.7859 11.5132 20.815 11.6597 20.815 11.8077C20.815 11.9557 20.7859 12.1022 20.7292 12.239C20.6726 12.3757 20.5896 12.4999 20.4849 12.6046L20.4812 12.6055Z"/> </svg>