<svg width="24" height="24" viewBox="0 0 24 24" xmlns="http://www.w3.org/2000/svg">
<path d="M20.031 11.4667C20.1007 11.5364 20.156 11.6191 20.1938 11.7102C20.2315 11.8012 20.251 11.8988 20.251 11.9974C20.251 12.0959 20.2315 12.1935 20.1938 12.2846C20.156 12.3756 20.1007 12.4583 20.031 12.528L12.3388 20.2155C11.3541 21.2001 10.0185 21.7532 8.62597 21.7531C7.23342 21.753 5.89795 21.1998 4.91333 20.215C3.92872 19.2303 3.37561 17.8947 3.3757 16.5022C3.37579 15.1096 3.92906 13.7742 4.9138 12.7895L14.2194 3.34705C14.9225 2.64327 15.8763 2.2476 16.871 2.24707C17.8658 2.24654 18.82 2.64121 19.5238 3.34424C20.2276 4.04727 20.6233 5.00108 20.6238 5.99584C20.6243 6.9906 20.2296 7.94483 19.5266 8.64861L10.2191 18.0911C9.79642 18.5138 9.22314 18.7513 8.62536 18.7513C8.02759 18.7513 7.4543 18.5138 7.03161 18.0911C6.60892 17.6684 6.37146 17.0951 6.37146 16.4974C6.37146 15.8996 6.60892 15.3263 7.03161 14.9036L14.841 6.97049C14.9094 6.89751 14.9917 6.83895 15.0831 6.79827C15.1745 6.75758 15.2731 6.73558 15.3731 6.73357C15.4731 6.73155 15.5725 6.74957 15.6654 6.78654C15.7584 6.82352 15.843 6.87872 15.9143 6.94888C15.9855 7.01905 16.0421 7.10277 16.0805 7.19511C16.119 7.28745 16.1386 7.38655 16.1382 7.48657C16.1377 7.5866 16.1173 7.68553 16.0781 7.77755C16.0389 7.86956 15.9816 7.9528 15.9097 8.02236L8.09943 15.9639C8.0295 16.0333 7.97392 16.1158 7.93586 16.2066C7.8978 16.2975 7.87801 16.3949 7.87762 16.4934C7.87723 16.5919 7.89624 16.6896 7.93358 16.7807C7.97091 16.8719 8.02583 16.9548 8.09521 17.0247C8.16458 17.0946 8.24705 17.1502 8.33791 17.1883C8.42876 17.2263 8.52622 17.2461 8.62472 17.2465C8.72323 17.2469 8.82084 17.2279 8.912 17.1906C9.00315 17.1532 9.08606 17.0983 9.15599 17.0289L18.4626 7.59111C18.8852 7.16929 19.1231 6.59684 19.1237 5.99968C19.1243 5.40252 18.8877 4.82958 18.4658 4.40689C18.044 3.9842 17.4716 3.74639 16.8744 3.74578C16.2772 3.74516 15.7043 3.98179 15.2816 4.40361L5.97786 13.8424C5.62933 14.1903 5.35274 14.6036 5.16391 15.0584C4.97507 15.5133 4.87767 16.0009 4.87728 16.4934C4.87689 16.986 4.97351 17.4737 5.16162 17.9289C5.34974 18.3841 5.62566 18.7977 5.97364 19.1463C6.32163 19.4948 6.73485 19.7714 7.18972 19.9602C7.6446 20.1491 8.13221 20.2465 8.62472 20.2469C9.11724 20.2472 9.60501 20.1506 10.0602 19.9625C10.5154 19.7744 10.929 19.4985 11.2776 19.1505L18.9707 11.463C19.1118 11.3229 19.3028 11.2447 19.5016 11.2454C19.7004 11.2461 19.8909 11.3257 20.031 11.4667Z"/>
</svg>
