<svg width="24" height="24" viewBox="0 0 24 24" xmlns="http://www.w3.org/2000/svg">
<path d="M21.75 18H18.75V15.75H21C21.114 15.75 21.2264 15.724 21.3288 15.674C21.4313 15.6241 21.5209 15.5514 21.5911 15.4616C21.6612 15.3717 21.7099 15.2671 21.7336 15.1556C21.7572 15.0441 21.7551 14.9287 21.7275 14.8182L18.7275 2.81816C18.6869 2.65599 18.5932 2.51205 18.4614 2.4092C18.3296 2.30635 18.1672 2.25049 18 2.25049C17.8328 2.25049 17.6704 2.30635 17.5386 2.4092C17.4068 2.51205 17.3131 2.65599 17.2725 2.81816L14.2725 14.8182C14.2449 14.9287 14.2428 15.0441 14.2664 15.1556C14.2901 15.2671 14.3388 15.3717 14.4089 15.4616C14.4791 15.5514 14.5687 15.6241 14.6712 15.674C14.7736 15.724 14.886 15.75 15 15.75H17.25V18H11.25V16.5H12C12.1989 16.5 12.3897 16.421 12.5303 16.2804C12.671 16.1397 12.75 15.9489 12.75 15.75C12.75 15.5511 12.671 15.3604 12.5303 15.2197C12.3897 15.0791 12.1989 15 12 15H11.25V13.5H12C12.1989 13.5 12.3897 13.421 12.5303 13.2804C12.671 13.1397 12.75 12.9489 12.75 12.75C12.75 12.5511 12.671 12.3604 12.5303 12.2197C12.3897 12.0791 12.1989 12 12 12H3.75C3.55109 12 3.36032 12.0791 3.21967 12.2197C3.07902 12.3604 3 12.5511 3 12.75C3 12.9489 3.07902 13.1397 3.21967 13.2804C3.36032 13.421 3.55109 13.5 3.75 13.5H4.5V15H3.75C3.55109 15 3.36032 15.0791 3.21967 15.2197C3.07902 15.3604 3 15.5511 3 15.75C3 15.9489 3.07902 16.1397 3.21967 16.2804C3.36032 16.421 3.55109 16.5 3.75 16.5H4.5V18H2.25C2.05109 18 1.86032 18.0791 1.71967 18.2197C1.57902 18.3604 1.5 18.5511 1.5 18.75C1.5 18.9489 1.57902 19.1397 1.71967 19.2804C1.86032 19.421 2.05109 19.5 2.25 19.5H21.75C21.9489 19.5 22.1397 19.421 22.2803 19.2804C22.421 19.1397 22.5 18.9489 22.5 18.75C22.5 18.5511 22.421 18.3604 22.2803 18.2197C22.1397 18.0791 21.9489 18 21.75 18ZM18 6.09378L20.0391 14.25H15.9609L18 6.09378ZM6 13.5H9.75V15H6V13.5ZM6 16.5H9.75V18H6V16.5ZM10.875 9.00003C11.3942 9.00003 11.9017 8.84608 12.3334 8.55764C12.7651 8.2692 13.1015 7.85923 13.3002 7.37958C13.4989 6.89992 13.5508 6.37212 13.4496 5.86292C13.3483 5.35372 13.0983 4.88599 12.7312 4.51888C12.364 4.15177 11.8963 3.90176 11.3871 3.80047C10.8779 3.69919 10.3501 3.75117 9.87046 3.94985C9.3908 4.14853 8.98083 4.48498 8.69239 4.91666C8.40395 5.34834 8.25 5.85586 8.25 6.37503C8.25 7.07123 8.52656 7.73891 9.01884 8.23119C9.51113 8.72347 10.1788 9.00003 10.875 9.00003ZM10.875 5.25003C11.0975 5.25003 11.315 5.31601 11.5 5.43963C11.685 5.56325 11.8292 5.73895 11.9144 5.94452C11.9995 6.15008 12.0218 6.37628 11.9784 6.59451C11.935 6.81274 11.8278 7.0132 11.6705 7.17053C11.5132 7.32786 11.3127 7.43501 11.0945 7.47842C10.8762 7.52183 10.65 7.49955 10.4445 7.4144C10.2389 7.32925 10.0632 7.18506 9.9396 7.00005C9.81598 6.81505 9.75 6.59754 9.75 6.37503C9.75 6.07667 9.86853 5.79052 10.0795 5.57954C10.2905 5.36856 10.5766 5.25003 10.875 5.25003Z"/>
</svg>
