<svg viewBox="0 0 24 24" xmlns="http://www.w3.org/2000/svg" aria-hidden="true" fill="currentColor"><path d="M21.75 18h-3v-2.25H21a.75.75 0 0 0 .727-.932l-3-12a.75.75 0 0 0-1.454 0l-3 12a.75.75 0 0 0 .727.932h2.25V18h-6v-1.5H12a.75.75 0 1 0 0-1.5h-.75v-1.5H12a.75.75 0 1 0 0-1.5H3.75a.75.75 0 0 0 0 1.5h.75V15h-.75a.75.75 0 0 0 0 1.5h.75V18H2.25a.75.75 0 0 0 0 1.5h19.5a.75.75 0 1 0 0-1.5M18 6.094l2.04 8.156h-4.08zM6 13.5h3.75V15H6zm0 3h3.75V18H6zM10.875 9a2.625 2.625 0 1 0 0-5.25 2.625 2.625 0 0 0 0 5.25m0-3.75a1.125 1.125 0 1 1 0 2.25 1.125 1.125 0 0 1 0-2.25"/></svg>