<svg viewBox="0 0 24 24" xmlns="http://www.w3.org/2000/svg" aria-hidden="true" fill="currentColor"><path d="M20.303 3.696a7.5 7.5 0 0 0-12.436 7.627L2.69 16.5a1.5 1.5 0 0 0-.44 1.06v2.69a1.5 1.5 0 0 0 1.5 1.5h3A.75.75 0 0 0 7.5 21v-1.5H9a.75.75 0 0 0 .75-.75v-1.5h1.5a.75.75 0 0 0 .53-.22l.897-.897c.75.244 1.534.368 2.323.367h.01a7.5 7.5 0 0 0 5.293-12.804m.697 5.5c-.102 3.197-2.79 5.8-5.99 5.804H15a6 6 0 0 1-2.217-.423.75.75 0 0 0-.829.158L10.94 15.75H9a.75.75 0 0 0-.75.75V18h-1.5a.75.75 0 0 0-.75.75v1.5H3.75v-2.69l5.515-5.514a.75.75 0 0 0 .158-.829A6 6 0 0 1 9 8.992c0-3.2 2.607-5.887 5.803-5.99A6 6 0 0 1 21 9.198m-3-2.071a1.125 1.125 0 1 1-2.25 0 1.125 1.125 0 0 1 2.25 0"/></svg>