<svg width="24" height="24" viewBox="0 0 24 24" xmlns="http://www.w3.org/2000/svg" fill="currentColor"> <path d="M22.1249 9.75C22.1249 10.195 21.993 10.63 21.7457 11C21.4985 11.37 21.1471 11.6584 20.736 11.8287C20.3248 11.999 19.8724 12.0436 19.436 11.9568C18.9995 11.87 18.5986 11.6557 18.284 11.341C17.9693 11.0263 17.755 10.6254 17.6682 10.189C17.5814 9.7525 17.6259 9.3001 17.7962 8.88896C17.9665 8.47783 18.2549 8.12643 18.6249 7.87919C18.9949 7.63196 19.4299 7.5 19.8749 7.5C20.4717 7.5 21.044 7.73705 21.4659 8.15901C21.8879 8.58097 22.1249 9.15326 22.1249 9.75ZM6.37494 9.75C6.37494 9.30499 6.24298 8.86998 5.99575 8.49997C5.74851 8.12996 5.39711 7.84157 4.98598 7.67127C4.57484 7.50097 4.12244 7.45642 3.68599 7.54323C3.24953 7.63005 2.84862 7.84434 2.53395 8.15901C2.21928 8.47368 2.00499 8.87459 1.91817 9.31105C1.83136 9.74751 1.87591 10.1999 2.04621 10.611C2.21651 11.0222 2.5049 11.3736 2.87491 11.6208C3.24492 11.868 3.67993 12 4.12494 12C4.72168 12 5.29397 11.7629 5.71593 11.341C6.13789 10.919 6.37494 10.3467 6.37494 9.75ZM8.62494 7.5C9.06995 7.5 9.50496 7.36804 9.87497 7.12081C10.245 6.87357 10.5334 6.52217 10.7037 6.11104C10.874 5.6999 10.9185 5.24751 10.8317 4.81105C10.7449 4.37459 10.5306 3.97368 10.2159 3.65901C9.90126 3.34434 9.50035 3.13005 9.06389 3.04323C8.62744 2.95642 8.17504 3.00097 7.7639 3.17127C7.35277 3.34157 7.00137 3.62996 6.75413 3.99997C6.5069 4.36998 6.37494 4.80499 6.37494 5.25C6.37494 5.84674 6.61199 6.41903 7.03395 6.84099C7.45591 7.26295 8.0282 7.5 8.62494 7.5ZM15.3749 7.5C15.8199 7.5 16.255 7.36804 16.625 7.12081C16.995 6.87357 17.2834 6.52217 17.4537 6.11104C17.624 5.6999 17.6685 5.24751 17.5817 4.81105C17.4949 4.37459 17.2806 3.97368 16.9659 3.65901C16.6513 3.34434 16.2504 3.13005 15.8139 3.04323C15.3774 2.95642 14.925 3.00097 14.5139 3.17127C14.1028 3.34157 13.7514 3.62996 13.5041 3.99997C13.2569 4.36998 13.1249 4.80499 13.1249 5.25C13.1249 5.84674 13.362 6.41903 13.7839 6.84099C14.2059 7.26295 14.7782 7.5 15.3749 7.5ZM19.8749 16.875C19.8751 17.5557 19.7068 18.2258 19.385 18.8257C19.0633 19.4255 18.5981 19.9364 18.0309 20.3128C17.4638 20.6892 16.8123 20.9194 16.1346 20.9829C15.4569 21.0463 14.774 20.9411 14.1468 20.6766C12.7716 20.1103 11.2283 20.1103 9.85306 20.6766C8.87721 21.089 7.78009 21.1102 6.78905 20.7357C5.79802 20.3612 4.98906 19.6198 4.52984 18.665C4.07062 17.7103 3.99633 16.6155 4.32238 15.6075C4.64844 14.5995 5.34982 13.7556 6.28119 13.2506C6.96139 12.8732 7.4641 12.2414 7.679 11.4938C7.95109 10.5583 8.51943 9.73637 9.2986 9.15154C10.0778 8.5667 11.0257 8.25053 11.9999 8.25053C12.9742 8.25053 13.9221 8.5667 14.7013 9.15154C15.4805 9.73637 16.0488 10.5583 16.3209 11.4938C16.5359 12.2413 17.0386 12.8731 17.7187 13.2506C18.3709 13.6049 18.9155 14.1285 19.295 14.7664C19.6745 15.4043 19.8749 16.1328 19.8749 16.875ZM17.6249 16.875C17.625 16.5369 17.5337 16.205 17.3606 15.9145C17.1874 15.624 16.939 15.3858 16.6415 15.225L16.6321 15.2194C15.4306 14.5565 14.5414 13.4438 14.1599 12.1256C14.0236 11.6583 13.7394 11.2477 13.3499 10.9556C12.9605 10.6635 12.4868 10.5056 11.9999 10.5056C11.5131 10.5056 11.0394 10.6635 10.6499 10.9556C10.2605 11.2477 9.97625 11.6583 9.83994 12.1256C9.65165 12.7792 9.3364 13.3892 8.9122 13.9209C8.48801 14.4525 7.96319 14.8954 7.36775 15.2241L7.35838 15.2297C6.99345 15.4291 6.70519 15.7442 6.53893 16.1254C6.37266 16.5066 6.33784 16.9322 6.43994 17.3354C6.54204 17.7385 6.77527 18.0962 7.10292 18.3523C7.43058 18.6084 7.83408 18.7483 8.24994 18.75C8.50121 18.7507 8.75 18.7003 8.98119 18.6019H8.99338C10.9188 17.8065 13.081 17.8065 15.0065 18.6019H15.0187C15.2499 18.7003 15.4987 18.7507 15.7499 18.75C16.2472 18.75 16.7241 18.5525 17.0758 18.2008C17.4274 17.8492 17.6249 17.3723 17.6249 16.875Z"/> </svg>