<svg width="24" height="24" viewBox="0 0 24 24" xmlns="http://www.w3.org/2000/svg">
<path d="M19.8754 7.4917C19.3563 7.4917 18.8487 7.64565 18.4171 7.93409C17.9854 8.22253 17.6489 8.6325 17.4502 9.11216C17.2516 9.59181 17.1996 10.1196 17.3009 10.6288C17.4022 11.138 17.6522 11.6057 18.0193 11.9729C18.3864 12.34 18.8541 12.59 19.3633 12.6913C19.8725 12.7925 20.4003 12.7406 20.88 12.5419C21.3596 12.3432 21.7696 12.0068 22.058 11.5751C22.3465 11.1434 22.5004 10.6359 22.5004 10.1167C22.5004 9.42051 22.2239 8.75283 21.7316 8.26055C21.2393 7.76826 20.5716 7.4917 19.8754 7.4917ZM19.8754 11.2417C19.6529 11.2417 19.4354 11.1757 19.2504 11.0521C19.0654 10.9285 18.9212 10.7528 18.8361 10.5472C18.7509 10.3417 18.7286 10.1155 18.772 9.89722C18.8155 9.67899 18.9226 9.47854 19.0799 9.3212C19.2373 9.16387 19.4377 9.05672 19.656 9.01332C19.8742 8.96991 20.1004 8.99219 20.3059 9.07734C20.5115 9.16248 20.6872 9.30668 20.8108 9.49168C20.9344 9.67669 21.0004 9.8942 21.0004 10.1167C21.0004 10.4151 20.8819 10.7012 20.6709 10.9122C20.4599 11.1232 20.1738 11.2417 19.8754 11.2417ZM6.75043 10.1167C6.75043 9.59752 6.59648 9.09001 6.30804 8.65833C6.0196 8.22665 5.60963 7.8902 5.12997 7.69152C4.65032 7.49284 4.12252 7.44085 3.61332 7.54214C3.10412 7.64342 2.63639 7.89343 2.26927 8.26055C1.90216 8.62766 1.65215 9.09539 1.55087 9.60459C1.44958 10.1138 1.50156 10.6416 1.70024 11.1212C1.89892 11.6009 2.23538 12.0109 2.66706 12.2993C3.09874 12.5877 3.60625 12.7417 4.12543 12.7417C4.82162 12.7417 5.4893 12.4651 5.98158 11.9729C6.47387 11.4806 6.75043 10.8129 6.75043 10.1167ZM4.12543 11.2417C3.90292 11.2417 3.68542 11.1757 3.50041 11.0521C3.31541 10.9285 3.17121 10.7528 3.08606 10.5472C3.00092 10.3417 2.97864 10.1155 3.02204 9.89722C3.06545 9.67899 3.1726 9.47854 3.32993 9.3212C3.48727 9.16387 3.68772 9.05672 3.90595 9.01332C4.12418 8.96991 4.35038 8.99219 4.55595 9.07734C4.76151 9.16248 4.93721 9.30668 5.06083 9.49168C5.18445 9.67669 5.25043 9.8942 5.25043 10.1167C5.25043 10.4151 5.1319 10.7012 4.92092 10.9122C4.70995 11.1232 4.4238 11.2417 4.12543 11.2417ZM8.62543 8.2417C9.1446 8.2417 9.65212 8.08775 10.0838 7.79931C10.5155 7.51087 10.8519 7.1009 11.0506 6.62124C11.2493 6.14159 11.3013 5.61379 11.2 5.10459C11.0987 4.59539 10.8487 4.12766 10.4816 3.76055C10.1145 3.39343 9.64674 3.14343 9.13754 3.04214C8.62834 2.94085 8.10054 2.99284 7.62088 3.19152C7.14123 3.3902 6.73126 3.72665 6.44282 4.15833C6.15438 4.59001 6.00043 5.09752 6.00043 5.6167C6.00043 6.31289 6.27699 6.98057 6.76927 7.47286C7.26156 7.96514 7.92924 8.2417 8.62543 8.2417ZM8.62543 4.4917C8.84793 4.4917 9.06544 4.55768 9.25044 4.6813C9.43545 4.80491 9.57964 4.98061 9.66479 5.18618C9.74994 5.39175 9.77222 5.61795 9.72881 5.83618C9.6854 6.05441 9.57826 6.25486 9.42092 6.4122C9.26359 6.56953 9.06313 6.67668 8.84491 6.72008C8.62668 6.76349 8.40048 6.74121 8.19491 6.65606C7.98934 6.57092 7.81364 6.42672 7.69003 6.24172C7.56641 6.05671 7.50043 5.8392 7.50043 5.6167C7.50043 5.31833 7.61896 5.03218 7.82993 4.82121C8.04091 4.61023 8.32706 4.4917 8.62543 4.4917ZM15.3754 8.2417C15.8946 8.2417 16.4021 8.08775 16.8338 7.79931C17.2655 7.51087 17.6019 7.1009 17.8006 6.62124C17.9993 6.14159 18.0513 5.61379 17.95 5.10459C17.8487 4.59539 17.5987 4.12766 17.2316 3.76055C16.8645 3.39343 16.3967 3.14343 15.8875 3.04214C15.3783 2.94085 14.8505 2.99284 14.3709 3.19152C13.8912 3.3902 13.4813 3.72665 13.1928 4.15833C12.9044 4.59001 12.7504 5.09752 12.7504 5.6167C12.7504 6.31289 13.027 6.98057 13.5193 7.47286C14.0116 7.96514 14.6792 8.2417 15.3754 8.2417ZM15.3754 4.4917C15.5979 4.4917 15.8154 4.55768 16.0004 4.6813C16.1855 4.80491 16.3296 4.98061 16.4148 5.18618C16.4999 5.39175 16.5222 5.61795 16.4788 5.83618C16.4354 6.05441 16.3283 6.25486 16.1709 6.4122C16.0136 6.56953 15.8131 6.67668 15.5949 6.72008C15.3767 6.76349 15.1505 6.74121 14.9449 6.65606C14.7393 6.57092 14.5636 6.42672 14.44 6.24172C14.3164 6.05671 14.2504 5.8392 14.2504 5.6167C14.2504 5.31833 14.369 5.03218 14.5799 4.82121C14.7909 4.61023 15.0771 4.4917 15.3754 4.4917ZM17.5429 13.9473C17.162 13.7372 16.8262 13.4539 16.5548 13.1139C16.2834 12.7738 16.0818 12.3835 15.9614 11.9655C15.712 11.1079 15.191 10.3544 14.4768 9.81824C13.7625 9.28209 12.8935 8.99223 12.0004 8.99223C11.1073 8.99223 10.2383 9.28209 9.52409 9.81824C8.80982 10.3544 8.28886 11.1079 8.03949 11.9655C7.7986 12.8067 7.23388 13.5181 6.46918 13.9436C5.7356 14.3405 5.1553 14.9707 4.82005 15.7344C4.4848 16.4982 4.41374 17.3519 4.61811 18.1605C4.82248 18.9692 5.29061 19.6866 5.94846 20.1994C6.60632 20.7122 7.41635 20.991 8.25043 20.9917C8.75027 20.9931 9.24522 20.8933 9.70543 20.6983C11.1727 20.0932 12.8197 20.0932 14.287 20.6983C15.1757 21.0848 16.1795 21.1122 17.088 20.7749C17.9965 20.4375 18.7392 19.7615 19.1602 18.8886C19.5812 18.0158 19.648 17.0138 19.3465 16.0927C19.045 15.1717 18.3986 14.4032 17.5429 13.9483V13.9473ZM15.7504 19.4917C15.4459 19.492 15.1445 19.4304 14.8645 19.3108C13.0276 18.552 10.9648 18.552 9.12793 19.3108C8.59411 19.5406 7.99207 19.555 7.4479 19.3509C6.90373 19.1467 6.45966 18.74 6.2087 18.2157C5.95774 17.6915 5.91936 17.0905 6.1016 16.5386C6.28385 15.9868 6.67258 15.5268 7.18637 15.2551C7.73878 14.9501 8.22564 14.5391 8.61911 14.0457C9.01258 13.5524 9.30495 12.9863 9.47949 12.3798C9.63799 11.8338 9.96947 11.354 10.4241 11.0126C10.8787 10.6712 11.4319 10.4866 12.0004 10.4866C12.569 10.4866 13.1222 10.6712 13.5768 11.0126C14.0314 11.354 14.3629 11.8338 14.5214 12.3798C14.6965 12.9874 14.9897 13.5544 15.3844 14.0485C15.779 14.5425 16.2672 14.9538 16.8211 15.2589C17.2634 15.4961 17.6137 15.8745 17.8163 16.3337C18.0188 16.793 18.062 17.3068 17.9389 17.7934C17.8158 18.2801 17.5336 18.7116 17.137 19.0193C16.7404 19.327 16.2524 19.4933 15.7504 19.4917Z"/>
</svg>
