<svg viewBox="0 0 24 24" xmlns="http://www.w3.org/2000/svg" aria-hidden="true" fill="currentColor"><path d="M19.5 3.375H15a1.5 1.5 0 0 0-1.5 1.5v15a1.5 1.5 0 0 0 1.5 1.5h4.5a1.5 1.5 0 0 0 1.5-1.5v-15a1.5 1.5 0 0 0-1.5-1.5m0 16.5H15v-3h2.25a.75.75 0 1 0 0-1.5H15v-2.25h2.25a.75.75 0 1 0 0-1.5H15v-2.25h2.25a.75.75 0 1 0 0-1.5H15v-3h4.5zM7.28 2.845a.75.75 0 0 0-1.06 0l-3 3a.75.75 0 0 0-.22.53v13.5a1.5 1.5 0 0 0 1.5 1.5H9a1.5 1.5 0 0 0 1.5-1.5v-13.5a.75.75 0 0 0-.22-.53zM4.5 16.874v-9H6v9zm3-9H9v9H7.5zm-.75-3.44 1.94 1.94H4.81zM4.5 19.875v-1.5H9v1.5z"/></svg>