<svg viewBox="0 0 24 24" xmlns="http://www.w3.org/2000/svg" aria-hidden="true" fill="currentColor" height="24px" width="24px"><path d="M16.531 8.814a3 3 0 1 0 0-5.999 3 3 0 0 0 0 6m0-3.75a.75.75 0 1 1 0 1.5.75.75 0 0 1 0-1.5M2.701 7.75a1.125 1.125 0 0 1 1.395-.765l6.328 1.845.812-.81a1.124 1.124 0 0 1 1.594 0l2.67 2.67h3.281a1.125 1.125 0 1 1 0 2.25h-3.75c-.298 0-.584-.118-.795-.329l-.458-.458L3.465 9.145a1.125 1.125 0 0 1-.764-1.396m19.704 12.275a6.92 6.92 0 0 1-5.78.884L1.967 16.643a1.123 1.123 0 0 1-.616-1.813 1.125 1.125 0 0 1 1.245-.343l7.493 2.182 1.294-1.295-3.411-.979a1.126 1.126 0 0 1-.248-2.076 1.12 1.12 0 0 1 .866-.086l5.25 1.5a1.124 1.124 0 0 1 .487 1.875l-1.775 1.775 4.697 1.369a4.67 4.67 0 0 0 3.908-.6 1.126 1.126 0 0 1 1.247 1.876z"/></svg>