<svg viewBox="0 0 24 24" xmlns="http://www.w3.org/2000/svg" aria-hidden="true" fill="currentColor"><path d="M15.187 7.5a3 3 0 1 0 0-6 3 3 0 0 0 0 6m0-4.5a1.5 1.5 0 1 1 0 3 1.5 1.5 0 0 1 0-3m4.5 10.5v8.25a.75.75 0 1 1-1.5 0v-7.532c-2.414-.21-3.22-1.455-3.937-2.565-.267-.411-.521-.803-.856-1.143l-1.256 2.89 3.487 2.49a.75.75 0 0 1 .312.611v5.25a.75.75 0 1 1-1.5 0v-4.864l-2.912-2.081-3.15 7.244A.75.75 0 0 1 7 21.451l5.393-12.404a.75.75 0 0 1 1.03-.368q.406.212.75.513c.598.518.986 1.117 1.328 1.646.72 1.11 1.24 1.912 3.432 1.912a.75.75 0 0 1 .754.75m-12 .75a.75.75 0 0 0 .69-.455l2.25-5.25a.75.75 0 0 0-.394-.984L7.608 6.436a.75.75 0 0 0-.985.394l-2.25 5.25a.75.75 0 0 0 .394.984l2.625 1.125a.8.8 0 0 0 .295.061m-1.64-2.269 1.66-3.872 1.246.535-1.66 3.87z"/></svg>