<svg viewBox="0 0 24 24" xmlns="http://www.w3.org/2000/svg" aria-hidden="true" fill="currentColor"><path d="M16.5 9.75a3 3 0 1 0 0-6 3 3 0 0 0 0 6m0-4.5a1.5 1.5 0 1 1 0 3 1.5 1.5 0 0 1 0-3m4.328 12.116a.75.75 0 0 1-.094 1.056c-1.627 1.349-3.08 1.828-4.406 1.828-1.742 0-3.264-.827-4.681-1.594-2.377-1.29-4.429-2.404-7.413.07a.75.75 0 1 1-.958-1.154c3.766-3.121 6.593-1.588 9.087-.234 2.377 1.291 4.429 2.405 7.413-.07a.75.75 0 0 1 1.052.098M3.271 13.821a.75.75 0 1 0 .959 1.154c2.984-2.473 5.036-1.36 7.412-.07 1.417.77 2.94 1.594 4.681 1.594 1.326 0 2.779-.479 4.407-1.828a.75.75 0 0 0 .102-1.06.75.75 0 0 0-1.06-.094 7.1 7.1 0 0 1-1.808 1.13l-5.048-5.045A9.7 9.7 0 0 0 6.023 6.75H3.75a.75.75 0 0 0 0 1.5h2.273a8.2 8.2 0 0 1 3.926.99l-2.778 2.776c-1.187.11-2.476.625-3.9 1.805m8.585-3.157 4.325 4.324c-1.313-.04-2.52-.693-3.822-1.4-1.008-.547-2.071-1.125-3.227-1.41l2.087-2.088q.333.27.637.574"/></svg>