<svg width="24" height="24" viewBox="0 0 24 24" xmlns="http://www.w3.org/2000/svg">
<path d="M16.132 8.625C16.6511 8.625 17.1586 8.47105 17.5903 8.18261C18.022 7.89417 18.3585 7.4842 18.5571 7.00454C18.7558 6.52489 18.8078 5.99709 18.7065 5.48789C18.6052 4.97869 18.3552 4.51096 17.9881 4.14385C17.621 3.77673 17.1533 3.52673 16.6441 3.42544C16.1349 3.32415 15.6071 3.37614 15.1274 3.57482C14.6478 3.7735 14.2378 4.10995 13.9493 4.54163C13.6609 4.97331 13.507 5.48083 13.507 6C13.507 6.69619 13.7835 7.36387 14.2758 7.85616C14.7681 8.34844 15.4358 8.625 16.132 8.625ZM16.132 4.875C16.3545 4.875 16.572 4.94098 16.757 5.0646C16.942 5.18821 17.0862 5.36392 17.1713 5.56948C17.2565 5.77505 17.2787 6.00125 17.2353 6.21948C17.1919 6.43771 17.0848 6.63816 16.9274 6.7955C16.7701 6.95283 16.5697 7.05998 16.3514 7.10338C16.1332 7.14679 15.907 7.12451 15.7014 7.03937C15.4959 6.95422 15.3202 6.81002 15.1966 6.62502C15.0729 6.44001 15.007 6.22251 15.007 6C15.007 5.70163 15.1255 5.41548 15.3365 5.20451C15.5474 4.99353 15.8336 4.875 16.132 4.875ZM3.03695 7.665C3.06453 7.57045 3.11046 7.48225 3.17212 7.40545C3.23379 7.32865 3.30997 7.26475 3.39633 7.21739C3.48269 7.17003 3.57753 7.14015 3.67544 7.12944C3.77334 7.11874 3.8724 7.12742 3.96695 7.155L10.507 9.06281L11.4745 8.09438C11.5441 8.02464 11.6268 7.96932 11.7179 7.93158C11.8089 7.89384 11.9065 7.87441 12.0051 7.87441C12.1036 7.87441 12.2012 7.89384 12.2923 7.93158C12.3833 7.96932 12.466 8.02464 12.5357 8.09438L15.3173 10.875H18.757C18.9559 10.875 19.1466 10.954 19.2873 11.0947C19.4279 11.2353 19.507 11.4261 19.507 11.625C19.507 11.8239 19.4279 12.0147 19.2873 12.1553C19.1466 12.296 18.9559 12.375 18.757 12.375H15.007C14.9084 12.3751 14.8109 12.3557 14.7198 12.3181C14.6288 12.2805 14.546 12.2253 14.4763 12.1556L13.9504 11.625L3.54414 8.59125C3.35455 8.53493 3.19489 8.40599 3.0999 8.23252C3.00491 8.05905 2.98229 7.85507 3.03695 7.665ZM22.1732 19.5225C21.3779 20.0539 20.4757 20.4045 19.5302 20.5494C18.5848 20.6944 17.619 20.6303 16.701 20.3616L2.04789 16.0941C1.95169 16.068 1.86164 16.023 1.78301 15.9618C1.70439 15.9005 1.63876 15.8242 1.58997 15.7373C1.54118 15.6504 1.5102 15.5546 1.49884 15.4556C1.48749 15.3566 1.49598 15.2563 1.52383 15.1606C1.55168 15.0649 1.59833 14.9757 1.66105 14.8982C1.72376 14.8208 1.80129 14.7566 1.8891 14.7094C1.97691 14.6622 2.07324 14.6331 2.17246 14.6236C2.27167 14.6141 2.37179 14.6244 2.46695 14.6541L9.59195 16.7288L12.0754 14.25L8.0507 13.0959C7.95597 13.0689 7.86749 13.0234 7.79033 12.9621C7.71317 12.9008 7.64884 12.8249 7.601 12.7388C7.50439 12.5648 7.48085 12.3596 7.53555 12.1683C7.56263 12.0735 7.60811 11.9851 7.66939 11.9079C7.73067 11.8308 7.80654 11.7664 7.89268 11.7186C8.06665 11.622 8.27187 11.5984 8.4632 11.6531L13.7132 13.1531C13.8388 13.189 13.9529 13.257 14.0441 13.3505C14.1353 13.444 14.2005 13.5597 14.2333 13.6861C14.2661 13.8126 14.2653 13.9454 14.2309 14.0714C14.1966 14.1975 14.13 14.3123 14.0376 14.4047L11.2345 17.2078L17.121 18.9216C17.8287 19.1288 18.5733 19.1783 19.3022 19.0665C20.0311 18.9548 20.7267 18.6845 21.3398 18.2747C21.4217 18.22 21.5136 18.182 21.6102 18.1629C21.7068 18.1437 21.8063 18.1438 21.9029 18.1631C21.9994 18.1824 22.0913 18.2205 22.1731 18.2753C22.255 18.33 22.3253 18.4004 22.3799 18.4823C22.4346 18.5643 22.4726 18.6562 22.4917 18.7528C22.5109 18.8494 22.5108 18.9488 22.4915 19.0454C22.4722 19.142 22.4341 19.2339 22.3793 19.3157C22.3246 19.3976 22.2542 19.4678 22.1723 19.5225H22.1732Z"/>
</svg>
