<svg viewBox="0 0 24 24" xmlns="http://www.w3.org/2000/svg" aria-hidden="true" fill="currentColor" height="24px" width="24px"><path d="M15.186 7.862a3.375 3.375 0 1 0 0-6.75 3.375 3.375 0 0 0 0 6.75m0-4.5a1.125 1.125 0 1 1 0 2.25 1.125 1.125 0 0 1 0-2.25m4.875 10.125v8.25a1.125 1.125 0 0 1-2.25 0V14.54c-2.336-.316-3.182-1.621-3.88-2.697-.145-.224-.285-.441-.437-.645l-.895 2.063 3.243 2.309a1.12 1.12 0 0 1 .469.916v5.25a1.125 1.125 0 0 1-2.25 0v-4.672l-2.379-1.699-2.965 6.819a1.124 1.124 0 1 1-2.062-.897l5.392-12.404a1.125 1.125 0 0 1 1.545-.553q.447.232.829.562c.636.552 1.04 1.175 1.396 1.724.707 1.089 1.131 1.745 3.119 1.745a1.125 1.125 0 0 1 1.125 1.125m-13.069.926-2.375-1.02a1.125 1.125 0 0 1-.587-1.475l2.25-5.25a1.125 1.125 0 0 1 1.474-.587l2.401 1.03a1.124 1.124 0 1 1-.886 2.063L7.901 8.59l-1.363 3.182 1.34.574a1.127 1.127 0 0 1 .351 1.845 1.125 1.125 0 0 1-1.237.223"/></svg>