<svg width="24" height="24" viewBox="0 0 24 24" xmlns="http://www.w3.org/2000/svg">
<path d="M15.375 8.25C15.8942 8.25 16.4017 8.09605 16.8334 7.80761C17.2651 7.51917 17.6015 7.1092 17.8002 6.62955C17.9989 6.14989 18.0508 5.62209 17.9496 5.11289C17.8483 4.60369 17.5983 4.13596 17.2312 3.76885C16.864 3.40173 16.3963 3.15173 15.8871 3.05044C15.3779 2.94915 14.8501 3.00114 14.3705 3.19982C13.8908 3.3985 13.4808 3.73495 13.1924 4.16663C12.904 4.59831 12.75 5.10583 12.75 5.625C12.75 6.32119 13.0266 6.98887 13.5188 7.48116C14.0111 7.97344 14.6788 8.25 15.375 8.25ZM15.375 4.5C15.5975 4.5 15.815 4.56598 16 4.6896C16.185 4.81321 16.3292 4.98892 16.4144 5.19448C16.4995 5.40005 16.5218 5.62625 16.4784 5.84448C16.435 6.06271 16.3278 6.26316 16.1705 6.4205C16.0132 6.57783 15.8127 6.68498 15.5945 6.72838C15.3762 6.77179 15.1501 6.74951 14.9445 6.66437C14.7389 6.57922 14.5632 6.43502 14.4396 6.25002C14.316 6.06501 14.25 5.84751 14.25 5.625C14.25 5.32663 14.3685 5.04048 14.5795 4.82951C14.7905 4.61853 15.0766 4.5 15.375 4.5ZM18.75 13.5C18.0083 13.5 17.2833 13.7199 16.6666 14.132C16.0499 14.544 15.5693 15.1297 15.2855 15.8149C15.0016 16.5002 14.9274 17.2542 15.0721 17.9816C15.2168 18.709 15.5739 19.3772 16.0984 19.9017C16.6228 20.4261 17.291 20.7833 18.0184 20.9279C18.7458 21.0726 19.4998 20.9984 20.1851 20.7146C20.8703 20.4307 21.456 19.9501 21.868 19.3334C22.2801 18.7167 22.5 17.9917 22.5 17.25C22.5 16.2554 22.1049 15.3016 21.4017 14.5984C20.6984 13.8951 19.7446 13.5 18.75 13.5ZM18.75 19.5C18.305 19.5 17.87 19.368 17.5 19.1208C17.13 18.8736 16.8416 18.5222 16.6713 18.111C16.501 17.6999 16.4564 17.2475 16.5432 16.811C16.6301 16.3746 16.8443 15.9737 17.159 15.659C17.4737 15.3443 17.8746 15.1301 18.311 15.0432C18.7475 14.9564 19.1999 15.001 19.611 15.1713C20.0222 15.3416 20.3736 15.63 20.6208 16C20.868 16.37 21 16.805 21 17.25C21 17.8467 20.7629 18.419 20.341 18.841C19.919 19.263 19.3467 19.5 18.75 19.5ZM5.25 13.5C4.50832 13.5 3.7833 13.7199 3.16661 14.132C2.54993 14.544 2.06928 15.1297 1.78545 15.8149C1.50162 16.5002 1.42736 17.2542 1.57206 17.9816C1.71675 18.709 2.0739 19.3772 2.59835 19.9017C3.1228 20.4261 3.79098 20.7833 4.51841 20.9279C5.24584 21.0726 5.99984 20.9984 6.68506 20.7146C7.37029 20.4307 7.95596 19.9501 8.36801 19.3334C8.78007 18.7167 9 17.9917 9 17.25C9 16.7575 8.90301 16.2699 8.71455 15.8149C8.52609 15.36 8.24987 14.9466 7.90165 14.5984C7.55343 14.2501 7.14004 13.9739 6.68506 13.7855C6.23009 13.597 5.74246 13.5 5.25 13.5ZM5.25 19.5C4.80499 19.5 4.36998 19.368 3.99997 19.1208C3.62996 18.8736 3.34157 18.5222 3.17127 18.111C3.00098 17.6999 2.95642 17.2475 3.04323 16.811C3.13005 16.3746 3.34434 15.9737 3.65901 15.659C3.97368 15.3443 4.37459 15.1301 4.81105 15.0432C5.24751 14.9564 5.69991 15.001 6.11104 15.1713C6.52217 15.3416 6.87358 15.63 7.12081 16C7.36804 16.37 7.5 16.805 7.5 17.25C7.5 17.8467 7.26295 18.419 6.84099 18.841C6.41904 19.263 5.84674 19.5 5.25 19.5ZM18 12H14.25C14.1515 12.0001 14.0539 11.9807 13.9629 11.9431C13.8718 11.9055 13.7891 11.8503 13.7194 11.7806L11.25 9.31031L9.31031 11.25L12.5306 14.4694C12.6003 14.5391 12.6555 14.6218 12.6931 14.7129C12.7307 14.8039 12.7501 14.9015 12.75 15V19.5C12.75 19.6989 12.671 19.8897 12.5303 20.0303C12.3897 20.171 12.1989 20.25 12 20.25C11.8011 20.25 11.6103 20.171 11.4697 20.0303C11.329 19.8897 11.25 19.6989 11.25 19.5V15.3103L7.71938 11.7806C7.64964 11.711 7.59433 11.6283 7.55658 11.5372C7.51884 11.4462 7.49941 11.3486 7.49941 11.25C7.49941 11.1514 7.51884 11.0538 7.55658 10.9628C7.59433 10.8717 7.64964 10.789 7.71938 10.7194L10.7194 7.71938C10.789 7.64964 10.8717 7.59433 10.9628 7.55658C11.0538 7.51884 11.1514 7.49941 11.25 7.49941C11.3486 7.49941 11.4462 7.51884 11.5372 7.55658C11.6283 7.59433 11.711 7.64964 11.7806 7.71938L14.5603 10.5H18C18.1989 10.5 18.3897 10.579 18.5303 10.7197C18.671 10.8603 18.75 11.0511 18.75 11.25C18.75 11.4489 18.671 11.6397 18.5303 11.7803C18.3897 11.921 18.1989 12 18 12Z"/>
</svg>
