<svg width="24" height="24" viewBox="0 0 24 24" xmlns="http://www.w3.org/2000/svg">
<g clip-path="url(#clip0_2001_46303)">
<path d="M23.25 12H18.8381L16.2131 6.75H18C18.1989 6.75 18.3897 6.67098 18.5303 6.53033C18.671 6.38968 18.75 6.19891 18.75 6C18.75 5.80109 18.671 5.61032 18.5303 5.46967C18.3897 5.32902 18.1989 5.25 18 5.25H6C5.80109 5.25 5.61032 5.32902 5.46967 5.46967C5.32902 5.61032 5.25 5.80109 5.25 6C5.25 6.19891 5.32902 6.38968 5.46967 6.53033C5.61032 6.67098 5.80109 6.75 6 6.75H7.78687L5.16188 12H0.75C0.551088 12 0.360322 12.079 0.21967 12.2197C0.0790176 12.3603 0 12.5511 0 12.75C0 12.9489 0.0790176 13.1397 0.21967 13.2803C0.360322 13.421 0.551088 13.5 0.75 13.5H4.41188L2.32875 17.6644C2.2399 17.8423 2.22535 18.0482 2.28828 18.2368C2.35122 18.4255 2.4865 18.5814 2.66438 18.6703C2.76842 18.7229 2.88341 18.7502 3 18.75C3.13949 18.7503 3.2763 18.7116 3.39504 18.6384C3.51379 18.5652 3.60976 18.4604 3.67219 18.3356L6.08813 13.5H17.9119L20.3288 18.3356C20.3911 18.4602 20.4869 18.565 20.6055 18.6382C20.7241 18.7114 20.8607 18.7501 21 18.75C21.1163 18.7501 21.2309 18.7228 21.3347 18.6703C21.5126 18.5814 21.6478 18.4255 21.7108 18.2368C21.7737 18.0482 21.7592 17.8423 21.6703 17.6644L19.5881 13.5H23.25C23.4489 13.5 23.6397 13.421 23.7803 13.2803C23.921 13.1397 24 12.9489 24 12.75C24 12.5511 23.921 12.3603 23.7803 12.2197C23.6397 12.079 23.4489 12 23.25 12ZM6.83813 12L9.46313 6.75H14.5369L17.1619 12H6.83813Z"/>
</g>
<defs>
<clipPath id="clip0_2001_46303">
<rect width="24" height="24"/>
</clipPath>
</defs>
</svg>
