<?xml version="1.0" encoding="UTF-8"?>
<svg width="18px" height="18px" viewBox="0 0 18 18" version="1.1" xmlns="http://www.w3.org/2000/svg" xmlns:xlink="http://www.w3.org/1999/xlink">
    <!-- Generator: Sketch 63.1 (92452) - https://sketch.com -->
    <title>48 pin business office desk solid</title>
    <desc>Created with Sketch.</desc>
    <g id="Page-1" stroke="none" stroke-width="1" fill="none" fill-rule="evenodd">
        <g id="48-pin-business-office-desk-solid" fill="#141414" fill-rule="nonzero">
            <path d="M14.51808,7.72032 C14.34408,7.69902 14.16858,7.65942 13.99308,7.61112 C13.63698,7.51332 13.28358,7.36032 12.94008,7.16172 C12.89478,7.13532 12.84948,7.11012 12.80448,7.08222 C12.75288,7.05012 12.70218,7.01592 12.65118,6.98172 C12.59358,6.94332 12.53628,6.90402 12.47958,6.86262 C12.43548,6.83052 12.39138,6.79812 12.34788,6.76452 C12.28188,6.71352 12.21678,6.66042 12.15198,6.60582 C12.11718,6.57642 12.08178,6.54822 12.04758,6.51792 C11.94858,6.43062 11.85048,6.34032 11.75508,6.24492 C11.66088,6.15072 11.57208,6.05352 11.48628,5.95512 C11.45658,5.92092 11.42898,5.88582 11.40018,5.85132 C11.34708,5.78712 11.29488,5.72202 11.24538,5.65632 C11.21178,5.61162 11.17908,5.56662 11.14728,5.52132 C11.10858,5.46642 11.07168,5.41092 11.03538,5.35512 C11.00028,5.30082 10.96518,5.24682 10.93248,5.19192 C10.90908,5.15262 10.88808,5.11272 10.86588,5.07312 C10.66878,4.71852 10.51998,4.34952 10.42878,3.97392 C10.42878,3.97362 10.42848,3.97332 10.42848,3.97302 C10.38528,3.79452 10.35018,3.61572 10.33368,3.43722 C10.26378,2.69382 10.42668,1.99662 10.80798,1.38402 C10.82688,1.44072 10.84878,1.49952 10.87308,1.55982 C10.87398,1.56222 10.87458,1.56432 10.87548,1.56672 C10.91058,1.65312 10.95258,1.74402 10.99818,1.83732 C11.00928,1.85982 11.02068,1.88262 11.03208,1.90542 C11.08038,2.00052 11.13198,2.09772 11.19108,2.19972 C11.64468,2.98302 12.37248,3.89202 13.24008,4.75992 C13.33428,4.85412 13.43058,4.94712 13.52748,5.03982 C13.55328,5.06442 13.57878,5.08872 13.60458,5.11302 C13.69728,5.20032 13.79088,5.28732 13.88538,5.37222 C13.90308,5.38842 13.92078,5.40372 13.93848,5.41932 C14.01798,5.49042 14.09808,5.56032 14.17848,5.62932 C14.20728,5.65392 14.23578,5.67822 14.26428,5.70252 C14.46558,5.87262 14.66808,6.03432 14.86968,6.18612 C14.87298,6.18852 14.87658,6.19122 14.88018,6.19392 C15.33078,6.53232 15.77388,6.81552 16.17738,7.00932 C16.19088,7.01562 16.20438,7.02222 16.21788,7.02852 C16.31808,7.07562 16.41588,7.11672 16.51068,7.15182 C16.54518,7.16472 16.57878,7.17612 16.61208,7.18722 C16.62588,7.19172 16.63998,7.19772 16.65348,7.20162 C16.02018,7.63662 15.29238,7.81602 14.51808,7.72032 M10.58208,13.62612 C10.52148,14.18082 10.21338,14.65632 9.73668,14.92992 C9.26178,15.20322 8.69778,15.23022 8.18868,15.00342 C7.22628,14.57472 6.15408,13.79622 5.16948,12.81162 C4.18458,11.82672 3.40608,10.75422 2.97768,9.79212 C2.75118,9.28362 2.77788,8.71932 3.05118,8.24382 C3.32478,7.76742 3.79998,7.45992 4.35498,7.39932 C4.47888,7.38582 4.60458,7.37892 4.73208,7.37892 C5.18958,7.37892 5.66928,7.46592 6.16548,7.63962 C6.16518,7.64112 6.16518,7.64262 6.16488,7.64412 C6.16008,7.66002 6.15828,7.67652 6.15648,7.69332 C6.15528,7.70262 6.15258,7.71192 6.15228,7.72152 C6.15138,7.74792 6.15408,7.77432 6.16038,7.80072 C6.35958,8.62122 6.85668,9.40752 7.72458,10.27542 C8.53488,11.08572 9.36438,11.61132 10.19118,11.83782 C10.21728,11.84472 10.24398,11.84832 10.27038,11.84832 L10.27038,11.84832 C10.29708,11.84832 10.32348,11.84472 10.34898,11.83782 C10.56498,12.46422 10.64328,13.06422 10.58208,13.62612 M17.41038,5.19912 C16.95708,4.41552 16.22928,3.50652 15.36138,2.63892 C14.49348,1.77072 13.58448,1.04292 12.80088,0.58962 C11.88558,0.05952 11.24838,-0.03618 10.90668,0.30522 C10.04028,1.17162 9.62448,2.30352 9.73638,3.49302 C9.75048,3.64602 9.77508,3.79872 9.80628,3.95142 L6.59538,7.16202 C5.79378,6.84552 5.01888,6.72372 4.28988,6.80262 C3.54228,6.88422 2.90118,7.30062 2.53098,7.94502 C2.16138,8.58852 2.12418,9.35082 2.42988,10.03632 C2.73228,10.71522 3.19638,11.44152 3.77358,12.15522 L0.05328,17.52912 C-0.02922,17.64852 -0.01452,17.80962 0.08778,17.91222 C0.14598,17.97012 0.22278,18.00012 0.29988,18.00012 C0.35958,18.00012 0.41898,17.98242 0.47088,17.94672 L5.84688,14.22492 C6.55368,14.79402 7.27218,15.25182 7.94448,15.55152 C8.25228,15.68862 8.57538,15.75672 8.89668,15.75672 C9.29028,15.75672 9.68118,15.65382 10.03578,15.45042 C10.68018,15.07992 11.09688,14.43912 11.17848,13.69092 C11.25708,12.97122 11.13828,12.20532 10.82958,11.41332 L14.00628,8.23632 C14.15298,8.27052 14.29938,8.29812 14.44548,8.31582 C14.60718,8.33592 14.76678,8.34552 14.92458,8.34552 C15.92058,8.34552 16.83378,7.95432 17.58858,7.19952 C17.60178,7.18632 17.60808,7.16982 17.61828,7.15512 C17.64468,7.13562 17.67138,7.11702 17.69478,7.09332 C18.03618,6.75162 17.94048,6.11442 17.41038,5.19912" id="Fill-19"></path>
        </g>
    </g>
</svg>