<svg width="24" height="24" viewBox="0 0 24 24" xmlns="http://www.w3.org/2000/svg">
<path d="M21.7875 10.7334L8.28 2.47029C8.05227 2.33084 7.79144 2.25471 7.52445 2.24977C7.25746 2.24482 6.99399 2.31124 6.76125 2.44217C6.53073 2.57106 6.3387 2.75902 6.2049 2.98673C6.07111 3.21445 6.00039 3.47368 6 3.73779V20.2622C6.00174 20.6583 6.16072 21.0376 6.442 21.3166C6.72328 21.5956 7.10383 21.7515 7.5 21.75C7.77652 21.7499 8.04767 21.6736 8.28375 21.5297L21.7875 13.2665C22.0046 13.1342 22.184 12.9483 22.3084 12.7267C22.4329 12.5051 22.4983 12.2551 22.4983 12.0009C22.4983 11.7467 22.4329 11.4968 22.3084 11.2751C22.184 11.0535 22.0046 10.8676 21.7875 10.7353V10.7334ZM7.5 20.2444V3.74998L20.9841 12L7.5 20.2444Z"/>
</svg>
