<svg viewBox="0 0 24 24" xmlns="http://www.w3.org/2000/svg" aria-hidden="true" fill="currentColor" height="24px" width="24px"><g clip-path="url(#a)"><path d="M22.5 10.688h-.844l-2.463-4.305a1.88 1.88 0 0 0-1.628-.945H6.435a1.88 1.88 0 0 0-1.628.945l-2.463 4.305H1.5a1.125 1.125 0 1 0 0 2.25h.375v7.125a1.875 1.875 0 0 0 1.875 1.875h2.625a1.875 1.875 0 0 0 1.875-1.875v-1.875h7.5v1.875a1.875 1.875 0 0 0 1.875 1.875h2.625a1.875 1.875 0 0 0 1.875-1.875v-7.125h.375a1.125 1.125 0 0 0 0-2.25m-15.844-3h10.688l1.713 3H4.94zm-.656 12H4.125v-1.5H6zm13.875 0H18v-1.5h1.875zm0-3.75H4.125v-3h15.75zM8.625 3.188A1.125 1.125 0 0 1 9.75 2.063h4.5a1.125 1.125 0 0 1 0 2.25h-4.5a1.125 1.125 0 0 1-1.125-1.125"/></g><defs><clipPath id="a"><path d="M0 0h24v24H0z"/></clipPath></defs></svg>