<svg viewBox="0 0 24 24" xmlns="http://www.w3.org/2000/svg" aria-hidden="true" fill="currentColor" height="24px" width="24px"><path d="M20.25 3.75h-7.125V2.625a1.125 1.125 0 1 0-2.25 0V3.75H3.75a1.875 1.875 0 0 0-1.875 1.875v11.25A1.875 1.875 0 0 0 3.75 18.75h2.906L5.12 20.672a1.125 1.125 0 0 0 1.757 1.406l2.662-3.328h4.918l2.663 3.328a1.124 1.124 0 1 0 1.757-1.406l-1.532-1.922h2.906a1.875 1.875 0 0 0 1.875-1.875V5.625A1.875 1.875 0 0 0 20.25 3.75m-.375 12.75H4.125V6h15.75zM9.75 11.625v2.25a1.125 1.125 0 0 1-2.25 0v-2.25a1.125 1.125 0 0 1 2.25 0M12 9a1.125 1.125 0 0 1 1.125 1.125v3.75a1.125 1.125 0 1 1-2.25 0v-3.75A1.125 1.125 0 0 1 12 9m2.25 4.875v-5.25a1.125 1.125 0 1 1 2.25 0v5.25a1.125 1.125 0 1 1-2.25 0"/></svg>