<svg viewBox="0 0 24 24" xmlns="http://www.w3.org/2000/svg" aria-hidden="true" fill="currentColor"><path d="M20.25 4.125h-7.5v-1.5a.75.75 0 0 0-1.5 0v1.5h-7.5a1.5 1.5 0 0 0-1.5 1.5v11.25a1.5 1.5 0 0 0 1.5 1.5h3.69l-2.026 2.531a.75.75 0 1 0 1.172.938l2.774-3.469h5.28l2.774 3.469a.751.751 0 0 0 1.172-.938l-2.026-2.531h3.69a1.5 1.5 0 0 0 1.5-1.5V5.625a1.5 1.5 0 0 0-1.5-1.5m0 12.75H3.75V5.625h16.5zm-10.5-5.25v2.25a.75.75 0 1 1-1.5 0v-2.25a.75.75 0 1 1 1.5 0m3-1.5v3.75a.75.75 0 0 1-1.5 0v-3.75a.75.75 0 1 1 1.5 0m3-1.5v5.25a.75.75 0 0 1-1.5 0v-5.25a.75.75 0 1 1 1.5 0"/></svg>