<svg width="24" height="24" viewBox="0 0 24 24" xmlns="http://www.w3.org/2000/svg" fill="currentColor"> <path d="M22.4731 19.6874C21.1878 17.4315 19.1807 15.6737 16.775 14.6971C17.9713 13.7998 18.855 12.5489 19.3009 11.1215C19.7468 9.69412 19.7322 8.16262 19.2593 6.74395C18.7865 5.32527 17.8792 4.09135 16.666 3.21697C15.4529 2.34259 13.9954 1.87207 12.5 1.87207C11.0046 1.87207 9.54706 2.34259 8.33392 3.21697C7.12078 4.09135 6.2135 5.32527 5.74061 6.74395C5.26772 8.16262 5.25319 9.69412 5.69907 11.1215C6.14496 12.5489 7.02865 13.7998 8.22498 14.6971C5.81928 15.6737 3.81221 17.4315 2.52686 19.6874C2.44721 19.8154 2.39413 19.9582 2.37076 20.1072C2.3474 20.2562 2.35423 20.4084 2.39084 20.5547C2.42746 20.701 2.49312 20.8384 2.58392 20.9588C2.67472 21.0792 2.7888 21.1802 2.91938 21.2556C3.04996 21.3311 3.19438 21.3795 3.34405 21.398C3.49373 21.4165 3.64559 21.4047 3.79062 21.3634C3.93566 21.322 4.07089 21.252 4.1883 21.1573C4.3057 21.0626 4.40288 20.9453 4.47404 20.8124C6.17279 17.8761 9.17279 16.1249 12.5 16.1249C15.8272 16.1249 18.8272 17.8771 20.5259 20.8124C20.6802 21.0604 20.9248 21.2387 21.2081 21.3096C21.4914 21.3805 21.7912 21.3385 22.044 21.1924C22.2969 21.0463 22.4831 20.8076 22.5631 20.5267C22.6432 20.2458 22.6109 19.9449 22.4731 19.6874ZM7.62498 8.99988C7.62498 8.0357 7.91089 7.09317 8.44657 6.29148C8.98224 5.48979 9.74361 4.86495 10.6344 4.49597C11.5252 4.12699 12.5054 4.03045 13.451 4.21855C14.3967 4.40666 15.2653 4.87096 15.9471 5.55274C16.6289 6.23452 17.0932 7.10316 17.2813 8.04882C17.4694 8.99447 17.3729 9.97467 17.0039 10.8655C16.6349 11.7563 16.0101 12.5176 15.2084 13.0533C14.4067 13.589 13.4642 13.8749 12.5 13.8749C11.2075 13.8734 9.9684 13.3593 9.05448 12.4454C8.14056 11.5315 7.62647 10.2924 7.62498 8.99988Z"/> </svg>