<svg viewBox="0 0 24 24" xmlns="http://www.w3.org/2000/svg" aria-hidden="true" fill="currentColor" height="24px" width="24px"><path d="M22.722 14.573a.75.75 0 0 0-.579.273V13.43a1.96 1.96 0 0 0-1.955-1.955H14.56a1.96 1.96 0 0 0-1.956 1.955v1.414a.75.75 0 0 0-1.326.48v1.205a.75.75 0 0 0 1.326.479v3.658q.001.098.025.188a.7.7 0 0 0-.025.187v1.206c0 .635.517 1.152 1.152 1.152h1.206c.636 0 1.152-.517 1.152-1.152v-.831h2.52v.83c0 .636.517 1.153 1.152 1.153h1.206c.636 0 1.152-.517 1.152-1.152V21.04a.8.8 0 0 0-.024-.187.7.7 0 0 0 .024-.188v-3.66a.75.75 0 0 0 1.328-.477v-1.206a.75.75 0 0 0-.75-.75m-8.618-1.143c0-.25.205-.455.456-.455h5.628c.25 0 .455.204.455.455v2.484h-6.539zm.51 8.469h-.51v-.483h.51zm-.51-1.983v-2.502h6.54v2.502zm6.54 1.983h-.51v-.483h.51zm-18.16-10.5a1.96 1.96 0 0 0-1.956 1.955v6.434c0 1.028.8 1.872 1.809 1.948l-.452.602a.75.75 0 1 0 1.2.9l1.123-1.495h2.184l1.123 1.495a.75.75 0 0 0 1.2-.9l-.451-.602a1.957 1.957 0 0 0 1.808-1.948v-6.434A1.96 1.96 0 0 0 8.116 11.4zm-.456 1.955c0-.25.205-.455.456-.455h2.064v3.324h-2.52zm6.54 6.434a.456.456 0 0 1-.455.455H2.484a.456.456 0 0 1-.456-.455v-2.065h6.54zm0-3.565h-2.52V12.9h2.065c.251 0 .455.204.455.455zm-4.728-6.4c.442 0 .63.11.913.274.365.213.82.477 1.667.477s1.302-.265 1.666-.476c.284-.165.471-.274.914-.274.442 0 .63.109.913.274.365.212.82.476 1.667.476s1.302-.265 1.666-.476c.284-.165.471-.274.914-.274.442 0 .63.109.913.274.365.212.82.476 1.667.476s1.302-.265 1.666-.476c.284-.165.471-.274.914-.274a.75.75 0 1 0 0-1.5c-.848 0-1.302.264-1.667.476-.121.07-.224.13-.337.175q.147-.476.147-.974V6.61c0-.505-.322-.952-.802-1.114l-.469-.156V2.91c0-.648-.527-1.175-1.175-1.175h-2.645v-.523a.75.75 0 1 0-1.5 0v.523H8.228c-.648 0-1.175.527-1.175 1.175v2.43l-.47.156c-.48.16-.803.608-.803 1.114v1.391q0 .516.159 1.008a2 2 0 0 1-.433-.21c-.365-.213-.819-.476-1.666-.476a.75.75 0 1 0 0 1.5m12.123-2.977v1.156q0 .397-.175.776c-.36-.209-.81-.454-1.628-.454s-1.302.264-1.667.476l-.122.07V5.65zm-7.41-3.61h6.14v1.605l-2.817-.938a.74.74 0 0 0-.506-.001l-2.817.938zM7.28 6.846l3.592-1.197v3.202q0 .033.004.066a4 4 0 0 1-.209-.116c-.365-.213-.819-.476-1.666-.476-.768 0-1.213.216-1.561.415a1.8 1.8 0 0 1-.159-.737V6.847"/></svg>