<svg width="24" height="24" viewBox="0 0 24 24" xmlns="http://www.w3.org/2000/svg" fill="currentColor" aria-hidden="true"> <path d="M13.5 16.8755C13.5 17.1722 13.412 17.4622 13.2472 17.7088C13.0824 17.9555 12.8481 18.1478 12.574 18.2613C12.2999 18.3748 11.9983 18.4045 11.7074 18.3467C11.4164 18.2888 11.1491 18.1459 10.9393 17.9361C10.7296 17.7264 10.5867 17.4591 10.5288 17.1681C10.4709 16.8772 10.5007 16.5756 10.6142 16.3015C10.7277 16.0274 10.92 15.7931 11.1666 15.6283C11.4133 15.4635 11.7033 15.3755 12 15.3755C12.3978 15.3755 12.7794 15.5335 13.0607 15.8148C13.342 16.0961 13.5 16.4777 13.5 16.8755ZM22.125 12.0005C22.125 14.003 21.5312 15.9606 20.4186 17.6256C19.3061 19.2907 17.7248 20.5884 15.8747 21.3548C14.0246 22.1211 11.9888 22.3216 10.0247 21.9309C8.06066 21.5403 6.25656 20.576 4.84055 19.1599C3.42454 17.7439 2.46023 15.9398 2.06955 13.9758C1.67888 12.0117 1.87939 9.97592 2.64572 8.12582C3.41206 6.27572 4.70981 4.69441 6.37486 3.58186C8.0399 2.46931 9.99747 1.87549 12 1.87549C14.6844 1.87847 17.258 2.94616 19.1562 4.84432C21.0543 6.74248 22.122 9.31609 22.125 12.0005ZM19.875 12.0005C19.875 10.443 19.4131 8.92041 18.5478 7.62537C17.6825 6.33034 16.4526 5.32098 15.0136 4.72494C13.5747 4.1289 11.9913 3.97295 10.4637 4.2768C8.93607 4.58066 7.53288 5.33068 6.43154 6.43202C5.3302 7.53336 4.58018 8.93655 4.27632 10.4642C3.97246 11.9918 4.12841 13.5752 4.72445 15.0141C5.32049 16.4531 6.32985 17.683 7.62489 18.5483C8.91993 19.4136 10.4425 19.8755 12 19.8755C14.0879 19.8733 16.0896 19.0429 17.566 17.5665C19.0424 16.0901 19.8728 14.0884 19.875 12.0005ZM12 6.00049C9.72563 6.00049 7.875 7.68236 7.875 9.75049V10.1255C7.875 10.4239 7.99353 10.71 8.20451 10.921C8.41549 11.132 8.70164 11.2505 9 11.2505C9.29837 11.2505 9.58452 11.132 9.7955 10.921C10.0065 10.71 10.125 10.4239 10.125 10.1255V9.75049C10.125 8.92361 10.9688 8.25049 12 8.25049C13.0313 8.25049 13.875 8.92361 13.875 9.75049C13.875 10.5774 13.0313 11.2505 12 11.2505C11.7016 11.2505 11.4155 11.369 11.2045 11.58C10.9935 11.791 10.875 12.0771 10.875 12.3755V13.1255C10.8743 13.4034 10.9766 13.6718 11.162 13.8788C11.3475 14.0858 11.603 14.2169 11.8793 14.2467C12.1557 14.2765 12.4333 14.203 12.6586 14.0403C12.8839 13.8776 13.0411 13.6372 13.0997 13.3655C14.8416 12.9267 16.125 11.4727 16.125 9.75049C16.125 7.68236 14.2744 6.00049 12 6.00049Z"/> </svg>