<svg viewBox="0 0 24 24" xmlns="http://www.w3.org/2000/svg" aria-hidden="true" fill="currentColor" height="24px" width="24px"><path d="M15.125 19.875h5.625A1.875 1.875 0 0 0 22.625 18v-6a1.875 1.875 0 0 0-1.875-1.875H15.5V9.75a2.625 2.625 0 0 1 2.625-2.625 1.125 1.125 0 1 0 0-2.25A4.88 4.88 0 0 0 13.25 9.75V18a1.875 1.875 0 0 0 1.875 1.875m.375-7.5h4.875v5.25H15.5zm-11.25 7.5h5.625A1.875 1.875 0 0 0 11.75 18v-6a1.875 1.875 0 0 0-1.875-1.875h-5.25V9.75A2.625 2.625 0 0 1 7.25 7.125a1.125 1.125 0 0 0 0-2.25A4.88 4.88 0 0 0 2.375 9.75V18a1.875 1.875 0 0 0 1.875 1.875m.375-7.5H9.5v5.25H4.625z"/></svg>