<svg viewBox="0 0 24 24" xmlns="http://www.w3.org/2000/svg" aria-hidden="true" fill="currentColor" height="24px" width="24px"><path d="M21.252 6.87 16.08 1.698a1.13 1.13 0 0 0-.81-.33l-8.473.106a1.866 1.866 0 0 0-1.855 1.863v2.694a1.125 1.125 0 1 0 2.25 0V3.719l6.968-.086v4.74c0 .622.503 1.126 1.125 1.126h4.047v10.87h-.353a1.125 1.125 0 1 0 0 2.25h.74a1.866 1.866 0 0 0 1.863-1.865V7.666c0-.298-.12-.584-.33-.796M16.41 5.21l2.039 2.039h-2.04z"/><path d="M16.12 20.369v-3.886c0-.622-.504-1.125-1.126-1.125H12.78v-2.215c0-.622-.504-1.125-1.125-1.125H8.882V9.375c0-.622-.503-1.125-1.125-1.125H3.86c-.621 0-1.125.503-1.125 1.125v10.993a1.125 1.125 0 0 0 .012 2.25h13.36a1.125 1.125 0 0 0 .011-2.25zm-2.25-2.76v2.76h-1.091v-2.76zm-3.341-3.34v6.1H8.882v-6.1zM6.632 10.5v9.868H4.985V10.5z"/></svg>