<svg viewBox="0 0 24 24" xmlns="http://www.w3.org/2000/svg" aria-hidden="true" fill="currentColor"><path d="M20.855 9.13h-5.173a.75.75 0 0 1-.75-.75V3.208a.75.75 0 1 1 1.5 0V7.63h4.423a.75.75 0 1 1 0 1.5"/><path d="M20.116 22.25h-.739a.75.75 0 1 1 0-1.5h.728V7.983l-4.73-4.729-8.16.101v2.682a.75.75 0 1 1-1.5 0V3.344a1.49 1.49 0 0 1 1.489-1.489l8.47-.105h.008a.75.75 0 0 1 .531.22l5.172 5.172c.14.14.22.332.22.53v13.089a1.49 1.49 0 0 1-1.49 1.489"/><path d="M15.392 22.25a.75.75 0 0 1-.75-.75v-4.26h-2.59a.75.75 0 1 1 0-1.5h3.34a.75.75 0 0 1 .75.75v5.01a.75.75 0 0 1-.75.75"/><path d="M16.506 22.25H3.146a.75.75 0 1 1 0-1.5h13.36a.75.75 0 1 1 0 1.5"/><path d="M12.052 22.25a.75.75 0 0 1-.75-.75v-7.6H8.155a.75.75 0 1 1 0-1.5h3.897a.75.75 0 0 1 .75.75v8.35a.75.75 0 0 1-.75.75"/><path d="M8.155 22.25a.75.75 0 0 1-.75-.75V10.132H5.008V21.5a.75.75 0 1 1-1.5 0V9.382a.75.75 0 0 1 .75-.75h3.897a.75.75 0 0 1 .75.75v12.119a.75.75 0 0 1-.75.749"/></svg>