<svg aria-hidden="true" width="14" height="18" xmlns="http://www.w3.org/2000/svg"><g fill-rule="nonzero"><path d="M3.1 10.7h1.8v3.7H3.1zM5.9 11.6h1.8v2.9H5.9zM8.7 9.1h1.8v5.3H8.7z"/><path d="M8.7 0H0v17.8h13.7V4.5L8.7 0zm2.2 4.1H9.3V2.6l1.6 1.5zM1.4 16.3V1.5h6.4v3c0 .9.6 1.1 1 1.1H12.1v10.7H1.4z"/><path d="M3 3h4.5v1H3zM3 5h4.5v1H3zM9.8 6.6l-1.3.3c-.1 0-.1.2-.1.2l.5.4-2.2 2.9-1.4-1.8c0-.1-.1-.1-.2-.1s-.1 0-.2.1L3.6 9.9c-.1.1-.1.3 0 .3.1.1.3.1.3 0L5 9.1l1.4 1.8c0 .1.1.1.2.1s.1 0 .2-.1l2.4-3.1.5.4c.1.1.2 0 .2-.1V6.7c.1-.1 0-.1-.1-.1z"/></g></svg>