<svg viewBox="0 0 24 24" xmlns="http://www.w3.org/2000/svg" aria-hidden="true" fill="currentColor"><path d="M8.25 9.75h-4.5A.75.75 0 0 1 3 9V4.5a.75.75 0 0 1 1.5 0v2.69l1.372-1.372a8.95 8.95 0 0 1 6.316-2.636h.05a8.94 8.94 0 0 1 6.287 2.562.75.75 0 0 1-1.048 1.073 7.46 7.46 0 0 0-5.24-2.135h-.042a7.46 7.46 0 0 0-5.263 2.196L5.56 8.25h2.69a.75.75 0 0 1 0 1.5m12 4.5h-4.5a.75.75 0 0 0 0 1.5h2.69l-1.372 1.372a7.46 7.46 0 0 1-5.262 2.196h-.042a7.46 7.46 0 0 1-5.24-2.135.748.748 0 0 0-1.234.25.75.75 0 0 0 .186.823 8.94 8.94 0 0 0 6.288 2.562h.049a8.95 8.95 0 0 0 6.315-2.636L19.5 16.81v2.69a.75.75 0 1 0 1.5 0V15a.75.75 0 0 0-.75-.75"/></svg>