<svg viewBox="0 0 24 24" xmlns="http://www.w3.org/2000/svg" aria-hidden="true" fill="currentColor" height="24px" width="24px"><g clip-path="url(#a)"><path d="M19.87 13.125h-.063l-2.994-8.98a1.125 1.125 0 0 0-1.067-.77h-3a1.125 1.125 0 0 0 0 2.25h2.189l1.39 4.17-5.586 6.33H7.796a3.75 3.75 0 1 0-.24 2.25h3.69a1.13 1.13 0 0 0 .844-.38l5.062-5.732.525 1.576a3.75 3.75 0 1 0 2.194-.714m-15.75 5.25a1.5 1.5 0 1 1 .001-3 1.5 1.5 0 0 1 0 3m15.75 0a1.5 1.5 0 1 1 .001-3 1.5 1.5 0 0 1 0 3"/></g><defs><clipPath id="a"><path d="M0 0h24v24H0z"/></clipPath></defs></svg>