<svg width="24" height="24" viewBox="0 0 24 24" xmlns="http://www.w3.org/2000/svg">
<path d="M21.7498 5.25V18.75C21.7498 19.1478 21.5917 19.5294 21.3104 19.8107C21.0291 20.092 20.6476 20.25 20.2498 20.25H13.4998C13.3008 20.25 13.1101 20.171 12.9694 20.0303C12.8288 19.8897 12.7498 19.6989 12.7498 19.5C12.7498 19.3011 12.8288 19.1103 12.9694 18.9697C13.1101 18.829 13.3008 18.75 13.4998 18.75H20.2498V5.25H3.74976V9C3.74976 9.19891 3.67074 9.38968 3.53009 9.53033C3.38943 9.67098 3.19867 9.75 2.99976 9.75C2.80084 9.75 2.61008 9.67098 2.46943 9.53033C2.32877 9.38968 2.24976 9.19891 2.24976 9V5.25C2.24976 4.85218 2.40779 4.47064 2.6891 4.18934C2.9704 3.90804 3.35193 3.75 3.74976 3.75H20.2498C20.6476 3.75 21.0291 3.90804 21.3104 4.18934C21.5917 4.47064 21.7498 4.85218 21.7498 5.25ZM2.99976 17.25C2.80084 17.25 2.61008 17.329 2.46943 17.4697C2.32877 17.6103 2.24976 17.8011 2.24976 18C2.24976 18.1989 2.32877 18.3897 2.46943 18.5303C2.61008 18.671 2.80084 18.75 2.99976 18.75C3.19867 18.75 3.38943 18.829 3.53009 18.9697C3.67074 19.1103 3.74976 19.3011 3.74976 19.5C3.74976 19.6989 3.82877 19.8897 3.96943 20.0303C4.11008 20.171 4.30084 20.25 4.49976 20.25C4.69867 20.25 4.88943 20.171 5.03009 20.0303C5.17074 19.8897 5.24976 19.6989 5.24976 19.5C5.24976 18.9033 5.0127 18.331 4.59075 17.909C4.16879 17.4871 3.59649 17.25 2.99976 17.25ZM2.99976 14.25C2.80084 14.25 2.61008 14.329 2.46943 14.4697C2.32877 14.6103 2.24976 14.8011 2.24976 15C2.24976 15.1989 2.32877 15.3897 2.46943 15.5303C2.61008 15.671 2.80084 15.75 2.99976 15.75C3.99432 15.75 4.94814 16.1451 5.65141 16.8483C6.35467 17.5516 6.74976 18.5054 6.74976 19.5C6.74976 19.6989 6.82877 19.8897 6.96943 20.0303C7.11008 20.171 7.30084 20.25 7.49976 20.25C7.69867 20.25 7.88943 20.171 8.03009 20.0303C8.17074 19.8897 8.24976 19.6989 8.24976 19.5C8.24827 18.1081 7.69466 16.7736 6.71042 15.7893C5.72618 14.8051 4.39169 14.2515 2.99976 14.25ZM2.99976 11.25C2.80084 11.25 2.61008 11.329 2.46943 11.4697C2.32877 11.6103 2.24976 11.8011 2.24976 12C2.24976 12.1989 2.32877 12.3897 2.46943 12.5303C2.61008 12.671 2.80084 12.75 2.99976 12.75C4.78936 12.752 6.50509 13.4638 7.77053 14.7292C9.03597 15.9947 9.74777 17.7104 9.74976 19.5C9.74976 19.6989 9.82877 19.8897 9.96943 20.0303C10.1101 20.171 10.3008 20.25 10.4998 20.25C10.6987 20.25 10.8894 20.171 11.0301 20.0303C11.1707 19.8897 11.2498 19.6989 11.2498 19.5C11.2473 17.3127 10.3773 15.2157 8.83065 13.6691C7.28401 12.1225 5.18703 11.2525 2.99976 11.25Z"/>
</svg>
