<svg width="24" height="24" viewBox="0 0 24 24" xmlns="http://www.w3.org/2000/svg">
<path d="M14.0459 12.7959L6.54593 20.2959C6.44128 20.4005 6.31705 20.4836 6.18032 20.5402C6.04359 20.5968 5.89705 20.626 5.74905 20.626C5.60106 20.626 5.45451 20.5968 5.31779 20.5402C5.18106 20.4836 5.05682 20.4005 4.95218 20.2959C4.84753 20.1912 4.76452 20.067 4.70789 19.9303C4.65125 19.7936 4.6221 19.647 4.6221 19.499C4.6221 19.351 4.65125 19.2045 4.70789 19.0678C4.76452 18.931 4.84753 18.8068 4.95218 18.7021L11.6562 12L4.95405 5.2959C4.74271 5.08455 4.62398 4.79791 4.62398 4.49902C4.62398 4.20014 4.74271 3.91349 4.95405 3.70215C5.1654 3.4908 5.45204 3.37207 5.75093 3.37207C6.04981 3.37207 6.33646 3.4908 6.5478 3.70215L14.0478 11.2021C14.1526 11.3068 14.2356 11.4311 14.2923 11.5679C14.3489 11.7047 14.3779 11.8513 14.3778 11.9994C14.3776 12.1475 14.3482 12.2941 14.2912 12.4307C14.2343 12.5674 14.1509 12.6915 14.0459 12.7959ZM21.5459 11.2021L14.0459 3.70215C13.9413 3.5975 13.817 3.51449 13.6803 3.45785C13.5436 3.40122 13.397 3.37207 13.2491 3.37207C13.1011 3.37207 12.9545 3.40122 12.8178 3.45785C12.6811 3.51449 12.5568 3.5975 12.4522 3.70215C12.3475 3.80679 12.2645 3.93103 12.2079 4.06776C12.1513 4.20448 12.1221 4.35103 12.1221 4.49902C12.1221 4.64702 12.1513 4.79356 12.2079 4.93029C12.2645 5.06702 12.3475 5.19125 12.4522 5.2959L19.1562 12L12.4512 18.704C12.2399 18.9154 12.1212 19.202 12.1212 19.5009C12.1212 19.7998 12.2399 20.0864 12.4512 20.2978C12.6626 20.5091 12.9492 20.6278 13.2481 20.6278C13.547 20.6278 13.8336 20.5091 14.045 20.2978L21.545 12.7978C21.6499 12.6933 21.7332 12.5692 21.7901 12.4325C21.8469 12.2957 21.8763 12.1492 21.8763 12.0011C21.8764 11.853 21.8473 11.7064 21.7906 11.5696C21.7339 11.4328 21.6507 11.3086 21.5459 11.204V11.2021Z"/>
</svg>
