<svg viewBox="0 0 24 24" xmlns="http://www.w3.org/2000/svg" aria-hidden="true" fill="currentColor"><path d="M9 9.75A.75.75 0 0 1 9.75 9h6a.75.75 0 1 1 0 1.5h-6A.75.75 0 0 1 9 9.75m.75 3.75h6a.75.75 0 1 0 0-1.5h-6a.75.75 0 1 0 0 1.5m12 4.5a3 3 0 0 1-3 3H8.25a3 3 0 0 1-3-3V6a1.5 1.5 0 0 0-3 0c0 .538.453.902.458.906A.75.75 0 0 1 1.8 8.099C1.692 8.02.75 7.276.75 6a3 3 0 0 1 3-3H16.5a3 3 0 0 1 3 3v9.75h.75a.75.75 0 0 1 .45.15c.113.08 1.05.824 1.05 2.1M9.024 16.264a.76.76 0 0 1 .726-.514H18V6a1.5 1.5 0 0 0-1.5-1.5H6.346c.265.455.405.973.404 1.5v12a1.5 1.5 0 0 0 3 0c0-.538-.453-.902-.457-.906a.73.73 0 0 1-.269-.83M20.25 18a1.18 1.18 0 0 0-.303-.75h-8.812c.075.243.113.496.113.75 0 .527-.138 1.044-.402 1.5h7.904a1.5 1.5 0 0 0 1.5-1.5"/></svg>