<svg viewBox="0 0 24 24" xmlns="http://www.w3.org/2000/svg" aria-hidden="true" fill="currentColor"><path d="M12 7.5a4.5 4.5 0 1 0 0 9 4.5 4.5 0 0 0 0-9m0 7.5a3 3 0 1 1 0-6 3 3 0 0 1 0 6m8.25-2.797a7 7 0 0 0 0-.405l1.399-1.748a.75.75 0 0 0 .139-.662 10 10 0 0 0-1.02-2.46.75.75 0 0 0-.563-.37l-2.224-.247a8 8 0 0 0-.281-.281l-.262-2.23a.75.75 0 0 0-.37-.562c-.772-.447-1.6-.79-2.46-1.019a.75.75 0 0 0-.663.14L12.203 3.75h-.405L10.05 2.354a.75.75 0 0 0-.662-.139c-.862.23-1.69.573-2.46 1.02a.75.75 0 0 0-.37.563l-.247 2.227a9 9 0 0 0-.281.282l-2.23.256a.75.75 0 0 0-.562.369c-.447.772-.79 1.6-1.019 2.46a.75.75 0 0 0 .14.663l1.391 1.742v.406L2.354 13.95a.75.75 0 0 0-.139.662c.23.862.573 1.69 1.02 2.46a.75.75 0 0 0 .563.37l2.224.247q.14.146.28.281l.26 2.23a.75.75 0 0 0 .37.562c.772.447 1.6.79 2.46 1.019a.75.75 0 0 0 .663-.14l1.742-1.391q.202.006.406 0l1.747 1.399a.75.75 0 0 0 .662.139 10 10 0 0 0 2.46-1.02.75.75 0 0 0 .37-.563l.247-2.224q.146-.138.281-.281l2.23-.262a.75.75 0 0 0 .562-.37 10 10 0 0 0 1.019-2.46.75.75 0 0 0-.14-.663zm-1.51-.61q.026.407 0 .814a.75.75 0 0 0 .164.514l1.33 1.662a8.6 8.6 0 0 1-.584 1.406l-2.119.24a.75.75 0 0 0-.478.248q-.27.305-.576.575a.75.75 0 0 0-.247.478l-.235 2.117q-.676.355-1.407.584l-1.663-1.33a.75.75 0 0 0-.469-.164h-.044a7 7 0 0 1-.814 0 .75.75 0 0 0-.514.163l-1.667 1.331a8.6 8.6 0 0 1-1.406-.584l-.24-2.116a.75.75 0 0 0-.248-.478 7 7 0 0 1-.575-.576.75.75 0 0 0-.478-.247l-2.117-.236a8.6 8.6 0 0 1-.584-1.406l1.33-1.664a.75.75 0 0 0 .163-.513 7 7 0 0 1 0-.814.75.75 0 0 0-.163-.514l-1.33-1.666q.229-.73.584-1.406l2.116-.24a.75.75 0 0 0 .478-.248q.271-.304.575-.575a.75.75 0 0 0 .249-.48l.235-2.115q.677-.355 1.406-.584l1.664 1.33a.75.75 0 0 0 .513.163q.407-.024.814 0a.75.75 0 0 0 .514-.163l1.666-1.33q.73.229 1.406.584l.24 2.116a.75.75 0 0 0 .248.478q.305.27.575.576a.75.75 0 0 0 .478.247l2.117.235q.355.676.584 1.407l-1.33 1.663a.75.75 0 0 0-.163.518z"/></svg>