<svg viewBox="0 0 24 24" xmlns="http://www.w3.org/2000/svg" aria-hidden="true" fill="currentColor" height="24px" width="24px"><path d="M12.5 7.125a4.875 4.875 0 1 0 0 9.75 4.875 4.875 0 0 0 0-9.75m0 7.5a2.625 2.625 0 1 1 0-5.25 2.625 2.625 0 0 1 0 5.25m8.625-2.55v-.149l1.313-1.642a1.12 1.12 0 0 0 .209-.992 10.5 10.5 0 0 0-1.053-2.552 1.13 1.13 0 0 0-.854-.552l-2.09-.235-.103-.104-.235-2.09a1.12 1.12 0 0 0-.552-.853 10.5 10.5 0 0 0-2.553-1.056 1.13 1.13 0 0 0-.991.213l-1.642 1.312h-.148l-1.642-1.312a1.13 1.13 0 0 0-.992-.21c-.894.239-1.752.594-2.552 1.058a1.13 1.13 0 0 0-.553.85l-.234 2.088-.104.104-2.09.235a1.13 1.13 0 0 0-.853.552c-.462.8-.816 1.659-1.053 2.553a1.13 1.13 0 0 0 .21.991l1.312 1.642v.148l-1.312 1.642a1.13 1.13 0 0 0-.21.993c.24.893.595 1.751 1.059 2.551a1.13 1.13 0 0 0 .848.553l2.09.232.103.104.234 2.092a1.13 1.13 0 0 0 .553.853c.8.463 1.659.819 2.553 1.056a1.12 1.12 0 0 0 .991-.212l1.642-1.313h.148l1.642 1.313a1.13 1.13 0 0 0 .992.209 10.5 10.5 0 0 0 2.552-1.053 1.13 1.13 0 0 0 .554-.85l.233-2.088.104-.104 2.09-.24a1.13 1.13 0 0 0 .849-.553c.463-.801.819-1.66 1.057-2.553a1.13 1.13 0 0 0-.21-.99zm-2.261-.46q.023.385 0 .77c-.017.278.07.552.244.77l1.204 1.505a8 8 0 0 1-.406.983l-1.915.213a1.13 1.13 0 0 0-.717.375q-.256.288-.544.544c-.21.184-.343.44-.375.717l-.212 1.914a8 8 0 0 1-.983.408l-1.505-1.205a1.12 1.12 0 0 0-.703-.245h-.068a7 7 0 0 1-.768 0 1.13 1.13 0 0 0-.771.244L9.84 19.812a8 8 0 0 1-.983-.406l-.213-1.915a1.13 1.13 0 0 0-.375-.717 7 7 0 0 1-.544-.544 1.13 1.13 0 0 0-.717-.375l-1.914-.212a8 8 0 0 1-.408-.983l1.204-1.505c.174-.218.261-.492.244-.77a7 7 0 0 1 0-.77 1.13 1.13 0 0 0-.244-.77L4.688 9.34q.17-.504.406-.983l1.915-.213c.277-.032.533-.165.717-.375q.255-.288.544-.544c.21-.184.343-.44.375-.717l.212-1.914q.478-.237.983-.408l1.505 1.205c.218.173.492.26.77.243q.385-.022.77 0c.278.017.552-.07.77-.243l1.505-1.205q.505.171.983.408l.213 1.915c.032.277.165.533.375.717q.288.256.544.544c.184.21.44.343.717.375l1.914.212q.237.478.408.983l-1.204 1.505a1.13 1.13 0 0 0-.246.77"/></svg>