<svg width="24" height="24" viewBox="0 0 24 24" xmlns="http://www.w3.org/2000/svg">
<path d="M21.5303 9.53104L17.0303 14.031C16.8895 14.1718 16.6987 14.2508 16.4996 14.2508C16.3006 14.2508 16.1097 14.1718 15.969 14.031C15.8283 13.8903 15.7492 13.6994 15.7492 13.5004C15.7492 13.3014 15.8283 13.1105 15.969 12.9698L19.1893 9.75042H15.4684C13.639 9.74991 11.8613 10.3575 10.4149 11.4775C8.96852 12.5976 7.93542 14.1666 7.47807 15.9379C7.42834 16.1306 7.3041 16.2957 7.13268 16.3968C6.96126 16.4979 6.7567 16.5267 6.56401 16.477C6.37131 16.4273 6.20626 16.303 6.10517 16.1316C6.00408 15.9602 5.97522 15.7556 6.02495 15.5629C6.56458 13.469 7.78534 11.6141 9.495 10.2903C11.2047 8.96639 13.3061 8.24878 15.4684 8.25042H19.1912L15.969 5.03104C15.8993 4.96136 15.8441 4.87863 15.8063 4.78759C15.7686 4.69654 15.7492 4.59896 15.7492 4.50042C15.7492 4.40187 15.7686 4.30429 15.8063 4.21324C15.8441 4.1222 15.8993 4.03947 15.969 3.96979C16.1097 3.82906 16.3006 3.75 16.4996 3.75C16.5982 3.75 16.6958 3.76941 16.7868 3.80712C16.8779 3.84483 16.9606 3.90011 17.0303 3.96979L21.5303 8.46979C21.6 8.53945 21.6553 8.62216 21.6931 8.71321C21.7308 8.80426 21.7502 8.90186 21.7502 9.00042C21.7502 9.09898 21.7308 9.19657 21.6931 9.28762C21.6553 9.37867 21.6 9.46139 21.5303 9.53104ZM17.9996 18.7504H3.74963V7.50042C3.74963 7.3015 3.67062 7.11074 3.52996 6.97009C3.38931 6.82943 3.19855 6.75042 2.99963 6.75042C2.80072 6.75042 2.60996 6.82943 2.4693 6.97009C2.32865 7.11074 2.24963 7.3015 2.24963 7.50042V19.5004C2.24963 19.6993 2.32865 19.8901 2.4693 20.0307C2.60996 20.1714 2.80072 20.2504 2.99963 20.2504H17.9996C18.1985 20.2504 18.3893 20.1714 18.53 20.0307C18.6706 19.8901 18.7496 19.6993 18.7496 19.5004C18.7496 19.3015 18.6706 19.1107 18.53 18.9701C18.3893 18.8294 18.1985 18.7504 17.9996 18.7504Z"/>
</svg>
