<svg viewBox="0 0 24 24" xmlns="http://www.w3.org/2000/svg" aria-hidden="true" fill="currentColor"><path d="M7.553 10.969a.75.75 0 0 1 .978-.416l2.719 1.089V9a.75.75 0 1 1 1.5 0v2.642l2.719-1.089a.751.751 0 1 1 .562 1.394l-2.841 1.136 1.66 2.217a.75.75 0 0 1-1.2.9L12 14l-1.65 2.2a.75.75 0 1 1-1.2-.9l1.663-2.217-2.844-1.136a.75.75 0 0 1-.416-.978M21 5.25v5.25c0 4.943-2.392 7.938-4.4 9.58-2.162 1.768-4.312 2.37-4.406 2.394a.75.75 0 0 1-.394 0c-.093-.025-2.241-.626-4.406-2.394C5.393 18.438 3 15.443 3 10.5V5.25a1.5 1.5 0 0 1 1.5-1.5h15a1.5 1.5 0 0 1 1.5 1.5m-1.5 0h-15v5.25c0 3.497 1.296 6.33 3.85 8.42A12 12 0 0 0 12 20.964a12.1 12.1 0 0 0 3.695-2.08c2.524-2.088 3.805-4.909 3.805-8.384z"/></svg>