<svg width="24" height="24" viewBox="0 0 24 24" xmlns="http://www.w3.org/2000/svg">
<path d="M7.55344 10.9688C7.59024 10.8772 7.64476 10.7938 7.71386 10.7233C7.78296 10.6528 7.8653 10.5967 7.95613 10.5581C8.04697 10.5195 8.14454 10.4993 8.24323 10.4985C8.34192 10.4977 8.43979 10.5163 8.53125 10.5534L11.25 11.6419V9C11.25 8.80109 11.329 8.61032 11.4697 8.46967C11.6103 8.32902 11.8011 8.25 12 8.25C12.1989 8.25 12.3897 8.32902 12.5303 8.46967C12.671 8.61032 12.75 8.80109 12.75 9V11.6419L15.4688 10.5534C15.5602 10.5165 15.6581 10.4979 15.7567 10.4988C15.8554 10.4997 15.9529 10.52 16.0437 10.5586C16.1345 10.5971 16.2168 10.6532 16.2859 10.7236C16.355 10.794 16.4096 10.8773 16.4466 10.9688C16.4835 11.0602 16.5021 11.1581 16.5012 11.2567C16.5003 11.3554 16.48 11.4529 16.4414 11.5437C16.4029 11.6345 16.3468 11.7168 16.2764 11.7859C16.206 11.855 16.1227 11.9096 16.0312 11.9466L13.1897 13.0828L14.85 15.3C14.9693 15.4591 15.0206 15.6592 14.9925 15.8561C14.9643 16.053 14.8591 16.2307 14.7 16.35C14.5409 16.4693 14.3408 16.5206 14.1439 16.4925C13.947 16.4643 13.7693 16.3591 13.65 16.2L12 13.9997L10.35 16.2C10.2909 16.2788 10.2169 16.3452 10.1321 16.3954C10.0474 16.4455 9.95357 16.4785 9.85607 16.4925C9.75856 16.5064 9.65927 16.501 9.56386 16.4765C9.46845 16.4521 9.37879 16.4091 9.3 16.35C9.22121 16.2909 9.15482 16.2169 9.10464 16.1321C9.05446 16.0474 9.02147 15.9536 9.00754 15.8561C8.99361 15.7586 8.99902 15.6593 9.02346 15.5639C9.04791 15.4685 9.09091 15.3788 9.15 15.3L10.8131 13.0828L7.96875 11.9466C7.87718 11.9098 7.79377 11.8552 7.7233 11.7861C7.65284 11.717 7.59671 11.6347 7.55812 11.5439C7.51954 11.453 7.49927 11.3555 7.49846 11.2568C7.49766 11.1581 7.51634 11.0602 7.55344 10.9688ZM21 5.25V10.5C21 15.4425 18.6075 18.4378 16.6003 20.0803C14.4384 21.8484 12.2878 22.4494 12.1941 22.4738C12.0652 22.5088 11.9292 22.5088 11.8003 22.4738C11.7066 22.4494 9.55875 21.8484 7.39406 20.0803C5.3925 18.4378 3 15.4425 3 10.5V5.25C3 4.85218 3.15804 4.47064 3.43934 4.18934C3.72064 3.90804 4.10218 3.75 4.5 3.75H19.5C19.8978 3.75 20.2794 3.90804 20.5607 4.18934C20.842 4.47064 21 4.85218 21 5.25ZM19.5 5.25H4.5V10.5C4.5 13.9969 5.79562 16.8291 8.35031 18.9197C9.43805 19.8093 10.6733 20.5013 12 20.9644C13.3443 20.4931 14.595 19.7886 15.6947 18.8831C18.2194 16.7962 19.5 13.9753 19.5 10.5V5.25Z"/>
</svg>
