<svg viewBox="0 0 24 24" xmlns="http://www.w3.org/2000/svg" aria-hidden="true" fill="currentColor" height="24px" width="24px"><g clip-path="url(#a)"><path d="M6.167 1.69c.155 0 .31.057.431.174a.64.64 0 0 1 .016.879q-1.14 1.267-1.758 2.69a.234.234 0 0 0 .215.33.23.23 0 0 0 .176-.085C6.41 4.322 7.904 3.318 9.754 2.64a.62.62 0 0 1 .804.39c.106.32-.081.667-.398.783-1.44.532-2.638 1.288-3.607 2.285a.232.232 0 0 0 .166.396h.021a4 4 0 0 1 3.161 1.16 4.06 4.06 0 0 1 .944 4.25.62.62 0 0 1-.823.362.637.637 0 0 1-.338-.804 2.82 2.82 0 0 0-.661-2.93 2.77 2.77 0 0 0-1.96-.81 2.77 2.77 0 0 0-1.96 4.73 2.82 2.82 0 0 0 2.947.656.623.623 0 0 1 .817.44c.076.313-.116.63-.42.737a4.06 4.06 0 0 1-4.767-1.632.6.6 0 0 1-.123-.134C1.652 9.661 1.17 6.687 2.083 3.427a.62.62 0 0 1 .785-.425.637.637 0 0 1 .406.78 10.6 10.6 0 0 0-.359 1.965c-.013.159.113.253.237.253.091 0 .181-.05.217-.16.457-1.413 1.234-2.722 2.338-3.944a.62.62 0 0 1 .461-.205m0-1.501c-.599 0-1.174.255-1.575.7q-.406.451-.764.92a2.1 2.1 0 0 0-1.148-.338 2.13 2.13 0 0 0-2.042 1.55C.124 4.857.005 6.653.283 8.364c.276 1.707.958 3.385 2.025 4.987q.095.141.21.266.29.419.645.775a5.6 5.6 0 0 0 3.934 1.627c.634 0 1.257-.108 1.853-.32a2.14 2.14 0 0 0 1.431-1.887 2.13 2.13 0 0 0 1.874-1.393 5.57 5.57 0 0 0-1.293-5.825 5.5 5.5 0 0 0-1.266-.948 9 9 0 0 1 .983-.424 2.126 2.126 0 0 0 1.304-2.661 2.12 2.12 0 0 0-2.745-1.33q-.54.198-1.05.433a2.1 2.1 0 0 0-.547-.88A2.1 2.1 0 0 0 6.168.19m.927 11.587c-.348 0-.687-.14-.93-.383a1.26 1.26 0 0 1-.362-1.076 1.275 1.275 0 0 1 2.16-.722c.357.356.478.891.309 1.365-.072.202-.113.41-.124.614q-.314.017-.611.126a1.3 1.3 0 0 1-.442.075"/><path d="M16.903 9.482a4.06 4.06 0 0 1 3.414 1.86q.072.058.125.14c1.906 2.858 2.387 5.831 1.474 9.091a.621.621 0 1 1-1.196-.336q.299-1.065.372-2.086c.01-.15-.106-.237-.223-.237a.214.214 0 0 0-.21.157c-.454 1.448-1.24 2.786-2.366 4.034a.62.62 0 0 1-.881.041.637.637 0 0 1-.028-.889c.781-.87 1.378-1.788 1.791-2.766.07-.165-.065-.308-.208-.308-.06 0-.12.025-.166.081-1.171 1.385-2.681 2.408-4.556 3.097a.622.622 0 0 1-.82-.446.634.634 0 0 1 .41-.727c1.453-.536 2.66-1.3 3.633-2.31.137-.142.029-.372-.162-.372h-.021q-.173.015-.35.015a4 4 0 0 1-2.838-1.176 4.06 4.06 0 0 1-.944-4.25.62.62 0 0 1 .823-.362c.308.128.45.489.339.804a2.82 2.82 0 0 0 .661 2.929c.524.524 1.22.811 1.96.811a2.77 2.77 0 0 0 1.96-4.731 2.81 2.81 0 0 0-2.948-.655.62.62 0 0 1-.818-.44c-.075-.316.12-.632.424-.74a4 4 0 0 1 1.347-.23m.002-1.5c-.632 0-1.254.107-1.848.317a2.14 2.14 0 0 0-1.437 1.89 2.13 2.13 0 0 0-1.874 1.393 5.57 5.57 0 0 0 2.559 6.773q-.466.233-.986.426a2.135 2.135 0 0 0-1.353 2.47 2.114 2.114 0 0 0 2.797 1.52 14 14 0 0 0 1.055-.435 2.11 2.11 0 0 0 2.016 1.476c.6 0 1.174-.256 1.576-.701q.406-.452.763-.92a2.1 2.1 0 0 0 1.148.336 2.13 2.13 0 0 0 2.043-1.55c.514-1.834.633-3.63.356-5.34-.276-1.708-.958-3.386-2.026-4.988a2 2 0 0 0-.215-.271 5.6 5.6 0 0 0-.64-.77 5.6 5.6 0 0 0-3.933-1.627zm-1.051 4.446a2.1 2.1 0 0 0 .61-.125q.213-.077.442-.077c.35 0 .688.14.93.382.305.305.429.712.352 1.148a1.264 1.264 0 0 1-1.249 1.024 1.25 1.25 0 0 1-.9-.374 1.31 1.31 0 0 1-.308-1.365c.072-.202.112-.41.123-.614z"/></g><defs><clipPath id="a"><path d="M0 0h24v24H0z"/></clipPath></defs></svg>