<svg viewBox="0 0 24 24" xmlns="http://www.w3.org/2000/svg" aria-hidden="true" fill="currentColor" height="24px" width="24px"><path d="M6.375 9.569V3.75a1.125 1.125 0 1 0-2.25 0V9.57a3.375 3.375 0 0 0 0 6.363v4.318a1.125 1.125 0 1 0 2.25 0v-4.318a3.375 3.375 0 0 0 0-6.363M5.25 13.876a1.125 1.125 0 1 1 0-2.25 1.125 1.125 0 0 1 0 2.25M15.375 8.25a3.38 3.38 0 0 0-2.25-3.181V3.75a1.125 1.125 0 1 0-2.25 0V5.07a3.375 3.375 0 0 0 0 6.363v8.818a1.125 1.125 0 0 0 2.25 0v-8.818a3.38 3.38 0 0 0 2.25-3.182M12 9.375a1.125 1.125 0 1 1 0-2.25 1.125 1.125 0 0 1 0 2.25m10.125 6.376a3.38 3.38 0 0 0-2.25-3.182V3.75a1.125 1.125 0 1 0-2.25 0v8.819a3.374 3.374 0 0 0 0 6.363v1.319a1.125 1.125 0 0 0 2.25 0v-1.319a3.38 3.38 0 0 0 2.25-3.181m-3.375 1.124a1.125 1.125 0 1 1 0-2.25 1.125 1.125 0 0 1 0 2.25"/></svg>