<svg viewBox="0 0 24 24" xmlns="http://www.w3.org/2000/svg" aria-hidden="true" fill="currentColor"><path d="M3.75 8.625h2.818a3.375 3.375 0 0 0 6.364 0h7.318a1.125 1.125 0 0 0 0-2.25h-7.318a3.375 3.375 0 0 0-6.364 0H3.75a1.125 1.125 0 0 0 0 2.25m6-2.25a1.125 1.125 0 1 1 0 2.25 1.125 1.125 0 0 1 0-2.25m10.5 9h-1.318a3.375 3.375 0 0 0-6.364 0H3.75a1.125 1.125 0 1 0 0 2.25h8.818a3.375 3.375 0 0 0 6.364 0h1.318a1.125 1.125 0 1 0 0-2.25m-4.5 2.25a1.125 1.125 0 1 1 0-2.25 1.125 1.125 0 0 1 0 2.25"/></svg>