<svg viewBox="0 0 24 24" xmlns="http://www.w3.org/2000/svg" aria-hidden="true" fill="currentColor"><path d="M6.003 9.844V3.75a.75.75 0 0 0-1.5 0v6.094a3 3 0 0 0 0 5.812v4.594a.75.75 0 1 0 1.5 0v-4.594a3 3 0 0 0 0-5.812m-.75 4.406a1.5 1.5 0 1 1 0-3 1.5 1.5 0 0 1 0 3m7.5-8.906V3.75a.75.75 0 1 0-1.5 0v1.594a3 3 0 0 0 0 5.812v9.094a.75.75 0 1 0 1.5 0v-9.094a3 3 0 0 0 0-5.812m-.75 4.406a1.5 1.5 0 1 1 0-2.999 1.5 1.5 0 0 1 0 2.999m9.75 6a3.005 3.005 0 0 0-2.25-2.906V3.75a.75.75 0 1 0-1.5 0v9.094a3 3 0 0 0 0 5.812v1.594a.75.75 0 1 0 1.5 0v-1.594a3.006 3.006 0 0 0 2.25-2.906m-3 1.5a1.5 1.5 0 1 1 0-3 1.5 1.5 0 0 1 0 3"/></svg>