<svg width="24" height="24" viewBox="0 0 24 24" fill="none" xmlns="http://www.w3.org/2000/svg">
<path d="M3.75 8.62519H6.56812C6.80081 9.28313 7.23174 9.85277 7.80157 10.2557C8.37141 10.6586 9.05212 10.8749 9.75 10.8749C10.4479 10.8749 11.1286 10.6586 11.6984 10.2557C12.2683 9.85277 12.6992 9.28313 12.9319 8.62519H20.25C20.5484 8.62519 20.8345 8.50666 21.0455 8.29569C21.2565 8.08471 21.375 7.79856 21.375 7.50019C21.375 7.20182 21.2565 6.91567 21.0455 6.70469C20.8345 6.49372 20.5484 6.37519 20.25 6.37519H12.9319C12.6992 5.71725 12.2683 5.14761 11.6984 4.74472C11.1286 4.34183 10.4479 4.12549 9.75 4.12549C9.05212 4.12549 8.37141 4.34183 7.80157 4.74472C7.23174 5.14761 6.80081 5.71725 6.56812 6.37519H3.75C3.45163 6.37519 3.16548 6.49372 2.9545 6.70469C2.74353 6.91567 2.625 7.20182 2.625 7.50019C2.625 7.79856 2.74353 8.08471 2.9545 8.29569C3.16548 8.50666 3.45163 8.62519 3.75 8.62519ZM9.75 6.37519C9.9725 6.37519 10.19 6.44117 10.375 6.56479C10.56 6.6884 10.7042 6.8641 10.7894 7.06967C10.8745 7.27524 10.8968 7.50144 10.8534 7.71967C10.81 7.9379 10.7028 8.13835 10.5455 8.29569C10.3882 8.45302 10.1877 8.56017 9.96948 8.60357C9.75125 8.64698 9.52505 8.6247 9.31948 8.53955C9.11391 8.45441 8.93821 8.31021 8.8146 8.12521C8.69098 7.9402 8.625 7.72269 8.625 7.50019C8.625 7.20182 8.74353 6.91567 8.9545 6.70469C9.16548 6.49372 9.45163 6.37519 9.75 6.37519ZM20.25 15.3752H18.9319C18.6992 14.7172 18.2683 14.1476 17.6984 13.7447C17.1286 13.3418 16.4479 13.1255 15.75 13.1255C15.0521 13.1255 14.3714 13.3418 13.8016 13.7447C13.2317 14.1476 12.8008 14.7172 12.5681 15.3752H3.75C3.45163 15.3752 3.16548 15.4937 2.9545 15.7047C2.74353 15.9157 2.625 16.2018 2.625 16.5002C2.625 16.7986 2.74353 17.0847 2.9545 17.2957C3.16548 17.5067 3.45163 17.6252 3.75 17.6252H12.5681C12.8008 18.2831 13.2317 18.8528 13.8016 19.2557C14.3714 19.6586 15.0521 19.8749 15.75 19.8749C16.4479 19.8749 17.1286 19.6586 17.6984 19.2557C18.2683 18.8528 18.6992 18.2831 18.9319 17.6252H20.25C20.5484 17.6252 20.8345 17.5067 21.0455 17.2957C21.2565 17.0847 21.375 16.7986 21.375 16.5002C21.375 16.2018 21.2565 15.9157 21.0455 15.7047C20.8345 15.4937 20.5484 15.3752 20.25 15.3752ZM15.75 17.6252C15.5275 17.6252 15.31 17.5592 15.125 17.4356C14.94 17.312 14.7958 17.1363 14.7106 16.9307C14.6255 16.7251 14.6032 16.4989 14.6466 16.2807C14.69 16.0625 14.7972 15.862 14.9545 15.7047C15.1118 15.5474 15.3123 15.4402 15.5305 15.3968C15.7488 15.3534 15.975 15.3757 16.1805 15.4608C16.3861 15.546 16.5618 15.6902 16.6854 15.8752C16.809 16.0602 16.875 16.2777 16.875 16.5002C16.875 16.7986 16.7565 17.0847 16.5455 17.2957C16.3345 17.5067 16.0484 17.6252 15.75 17.6252Z" fill="black"/>
</svg>
