<svg width="24" height="24" viewBox="0 0 24 24" xmlns="http://www.w3.org/2000/svg" fill="currentColor" aria-hidden="true"> <path d="M6.37482 9.56861V3.75049C6.37482 3.45212 6.2563 3.16597 6.04532 2.95499C5.83434 2.74401 5.54819 2.62549 5.24982 2.62549C4.95146 2.62549 4.66531 2.74401 4.45433 2.95499C4.24335 3.16597 4.12482 3.45212 4.12482 3.75049V9.56861C3.46688 9.8013 2.89725 10.2322 2.49435 10.8021C2.09146 11.3719 1.87512 12.0526 1.87512 12.7505C1.87512 13.4484 2.09146 14.1291 2.49435 14.6989C2.89725 15.2688 3.46688 15.6997 4.12482 15.9324V20.2505C4.12482 20.5489 4.24335 20.835 4.45433 21.046C4.66531 21.257 4.95146 21.3755 5.24982 21.3755C5.54819 21.3755 5.83434 21.257 6.04532 21.046C6.2563 20.835 6.37482 20.5489 6.37482 20.2505V15.9324C7.03277 15.6997 7.6024 15.2688 8.00529 14.6989C8.40819 14.1291 8.62453 13.4484 8.62453 12.7505C8.62453 12.0526 8.40819 11.3719 8.00529 10.8021C7.6024 10.2322 7.03277 9.8013 6.37482 9.56861ZM5.24982 13.8755C5.02732 13.8755 4.80981 13.8095 4.62481 13.6859C4.4398 13.5623 4.29561 13.3866 4.21046 13.181C4.12531 12.9754 4.10303 12.7492 4.14644 12.531C4.18985 12.3128 4.29699 12.1123 4.45433 11.955C4.61166 11.7977 4.81212 11.6905 5.03035 11.6471C5.24858 11.6037 5.47478 11.626 5.68034 11.7111C5.88591 11.7963 6.06161 11.9405 6.18523 12.1255C6.30884 12.3105 6.37482 12.528 6.37482 12.7505C6.37482 13.0489 6.2563 13.335 6.04532 13.546C5.83434 13.757 5.54819 13.8755 5.24982 13.8755ZM15.3748 8.25049C15.3738 7.5528 15.1571 6.8725 14.7543 6.30284C14.3514 5.73319 13.7823 5.30208 13.1248 5.06861V3.75049C13.1248 3.45212 13.0063 3.16597 12.7953 2.95499C12.5843 2.74401 12.2982 2.62549 11.9998 2.62549C11.7015 2.62549 11.4153 2.74401 11.2043 2.95499C10.9934 3.16597 10.8748 3.45212 10.8748 3.75049V5.06861C10.2169 5.3013 9.64725 5.73223 9.24435 6.30206C8.84146 6.87189 8.62512 7.55261 8.62512 8.25049C8.62512 8.94837 8.84146 9.62908 9.24435 10.1989C9.64725 10.7688 10.2169 11.1997 10.8748 11.4324V20.2505C10.8748 20.5489 10.9934 20.835 11.2043 21.046C11.4153 21.257 11.7015 21.3755 11.9998 21.3755C12.2982 21.3755 12.5843 21.257 12.7953 21.046C13.0063 20.835 13.1248 20.5489 13.1248 20.2505V11.4324C13.7823 11.1989 14.3514 10.7678 14.7543 10.1981C15.1571 9.62848 15.3738 8.94817 15.3748 8.25049ZM11.9998 9.37549C11.7773 9.37549 11.5598 9.30951 11.3748 9.18589C11.1898 9.06228 11.0456 8.88657 10.9605 8.68101C10.8753 8.47544 10.853 8.24924 10.8964 8.03101C10.9398 7.81278 11.047 7.61233 11.2043 7.45499C11.3617 7.29766 11.5621 7.19051 11.7803 7.1471C11.9986 7.1037 12.2248 7.12598 12.4303 7.21112C12.6359 7.29627 12.8116 7.44047 12.9352 7.62547C13.0588 7.81048 13.1248 8.02798 13.1248 8.25049C13.1248 8.54886 13.0063 8.83501 12.7953 9.04598C12.5843 9.25696 12.2982 9.37549 11.9998 9.37549ZM22.1248 15.7505C22.1238 15.0528 21.9071 14.3725 21.5043 13.8028C21.1014 13.2332 20.5323 12.8021 19.8748 12.5686V3.75049C19.8748 3.45212 19.7563 3.16597 19.5453 2.95499C19.3343 2.74401 19.0482 2.62549 18.7498 2.62549C18.4515 2.62549 18.1653 2.74401 17.9543 2.95499C17.7434 3.16597 17.6248 3.45212 17.6248 3.75049V12.5686C16.9669 12.8013 16.3972 13.2322 15.9944 13.8021C15.5915 14.3719 15.3751 15.0526 15.3751 15.7505C15.3751 16.4484 15.5915 17.1291 15.9944 17.6989C16.3972 18.2688 16.9669 18.6997 17.6248 18.9324V20.2505C17.6248 20.5489 17.7434 20.835 17.9543 21.046C18.1653 21.257 18.4515 21.3755 18.7498 21.3755C19.0482 21.3755 19.3343 21.257 19.5453 21.046C19.7563 20.835 19.8748 20.5489 19.8748 20.2505V18.9324C20.5323 18.6989 21.1014 18.2678 21.5043 17.6981C21.9071 17.1285 22.1238 16.4482 22.1248 15.7505ZM18.7498 16.8755C18.5273 16.8755 18.3098 16.8095 18.1248 16.6859C17.9398 16.5623 17.7956 16.3866 17.7105 16.181C17.6253 15.9754 17.603 15.7492 17.6464 15.531C17.6898 15.3128 17.797 15.1123 17.9543 14.955C18.1117 14.7977 18.3121 14.6905 18.5303 14.6471C18.7486 14.6037 18.9748 14.626 19.1803 14.7111C19.3859 14.7963 19.5616 14.9405 19.6852 15.1255C19.8088 15.3105 19.8748 15.528 19.8748 15.7505C19.8748 16.0489 19.7563 16.335 19.5453 16.546C19.3343 16.757 19.0482 16.8755 18.7498 16.8755Z"/> </svg>