<svg width="24" height="24" viewBox="0 0 24 24" xmlns="http://www.w3.org/2000/svg">
<path d="M6.00271 9.84375V3.75C6.00271 3.55109 5.92369 3.36032 5.78304 3.21967C5.64239 3.07902 5.45162 3 5.25271 3C5.0538 3 4.86303 3.07902 4.72238 3.21967C4.58173 3.36032 4.50271 3.55109 4.50271 3.75V9.84375C3.8574 10.009 3.28543 10.3843 2.87698 10.9105C2.46853 11.4367 2.24683 12.0839 2.24683 12.75C2.24683 13.4161 2.46853 14.0633 2.87698 14.5895C3.28543 15.1157 3.8574 15.491 4.50271 15.6562V20.25C4.50271 20.4489 4.58173 20.6397 4.72238 20.7803C4.86303 20.921 5.0538 21 5.25271 21C5.45162 21 5.64239 20.921 5.78304 20.7803C5.92369 20.6397 6.00271 20.4489 6.00271 20.25V15.6562C6.64802 15.491 7.21999 15.1157 7.62844 14.5895C8.03689 14.0633 8.25859 13.4161 8.25859 12.75C8.25859 12.0839 8.03689 11.4367 7.62844 10.9105C7.21999 10.3843 6.64802 10.009 6.00271 9.84375ZM5.25271 14.25C4.95604 14.25 4.66603 14.162 4.41935 13.9972C4.17268 13.8324 3.98042 13.5981 3.86689 13.324C3.75336 13.0499 3.72365 12.7483 3.78153 12.4574C3.83941 12.1664 3.98227 11.8991 4.19205 11.6893C4.40183 11.4796 4.6691 11.3367 4.96007 11.2788C5.25104 11.2209 5.55264 11.2506 5.82673 11.3642C6.10082 11.4777 6.33509 11.67 6.49991 11.9166C6.66473 12.1633 6.75271 12.4533 6.75271 12.75C6.75271 13.1478 6.59467 13.5294 6.31337 13.8107C6.03206 14.092 5.65053 14.25 5.25271 14.25ZM12.7527 5.34375V3.75C12.7527 3.55109 12.6737 3.36032 12.533 3.21967C12.3924 3.07902 12.2016 3 12.0027 3C11.8038 3 11.613 3.07902 11.4724 3.21967C11.3317 3.36032 11.2527 3.55109 11.2527 3.75V5.34375C10.6074 5.50898 10.0354 5.88428 9.62698 6.41048C9.21853 6.93669 8.99683 7.58387 8.99683 8.25C8.99683 8.91613 9.21853 9.56331 9.62698 10.0895C10.0354 10.6157 10.6074 10.991 11.2527 11.1562V20.25C11.2527 20.4489 11.3317 20.6397 11.4724 20.7803C11.613 20.921 11.8038 21 12.0027 21C12.2016 21 12.3924 20.921 12.533 20.7803C12.6737 20.6397 12.7527 20.4489 12.7527 20.25V11.1562C13.398 10.991 13.97 10.6157 14.3784 10.0895C14.7869 9.56331 15.0086 8.91613 15.0086 8.25C15.0086 7.58387 14.7869 6.93669 14.3784 6.41048C13.97 5.88428 13.398 5.50898 12.7527 5.34375ZM12.0027 9.75C11.706 9.75 11.416 9.66203 11.1694 9.4972C10.9227 9.33238 10.7304 9.09811 10.6169 8.82403C10.5034 8.54994 10.4737 8.24834 10.5315 7.95736C10.5894 7.66639 10.7323 7.39912 10.942 7.18934C11.1518 6.97956 11.4191 6.8367 11.7101 6.77882C12.001 6.72094 12.3026 6.75065 12.5767 6.86418C12.8508 6.97771 13.0851 7.16997 13.2499 7.41665C13.4147 7.66332 13.5027 7.95333 13.5027 8.25C13.5027 8.64782 13.3447 9.02936 13.0634 9.31066C12.7821 9.59196 12.4005 9.75 12.0027 9.75ZM21.7527 15.75C21.7521 15.0849 21.5309 14.4388 21.1237 13.9129C20.7165 13.387 20.1464 13.011 19.5027 12.8438V3.75C19.5027 3.55109 19.4237 3.36032 19.283 3.21967C19.1424 3.07902 18.9516 3 18.7527 3C18.5538 3 18.363 3.07902 18.2224 3.21967C18.0817 3.36032 18.0027 3.55109 18.0027 3.75V12.8438C17.3574 13.009 16.7854 13.3843 16.377 13.9105C15.9685 14.4367 15.7468 15.0839 15.7468 15.75C15.7468 16.4161 15.9685 17.0633 16.377 17.5895C16.7854 18.1157 17.3574 18.491 18.0027 18.6562V20.25C18.0027 20.4489 18.0817 20.6397 18.2224 20.7803C18.363 20.921 18.5538 21 18.7527 21C18.9516 21 19.1424 20.921 19.283 20.7803C19.4237 20.6397 19.5027 20.4489 19.5027 20.25V18.6562C20.1464 18.489 20.7165 18.113 21.1237 17.5871C21.5309 17.0612 21.7521 16.4151 21.7527 15.75ZM18.7527 17.25C18.456 17.25 18.166 17.162 17.9194 16.9972C17.6727 16.8324 17.4804 16.5981 17.3669 16.324C17.2534 16.0499 17.2237 15.7483 17.2815 15.4574C17.3394 15.1664 17.4823 14.8991 17.692 14.6893C17.9018 14.4796 18.1691 14.3367 18.4601 14.2788C18.751 14.2209 19.0526 14.2506 19.3267 14.3642C19.6008 14.4777 19.8351 14.67 19.9999 14.9166C20.1647 15.1633 20.2527 15.4533 20.2527 15.75C20.2527 16.1478 20.0947 16.5294 19.8134 16.8107C19.5321 17.092 19.1505 17.25 18.7527 17.25Z"/>
</svg>
