<svg width="24" height="24" viewBox="0 0 24 24" xmlns="http://www.w3.org/2000/svg">
<path d="M3.74982 8.25002H6.84357C7.00879 8.89533 7.38409 9.4673 7.9103 9.87575C8.43651 10.2842 9.08369 10.5059 9.74982 10.5059C10.4159 10.5059 11.0631 10.2842 11.5893 9.87575C12.1155 9.4673 12.4908 8.89533 12.6561 8.25002H20.2498C20.4487 8.25002 20.6395 8.17101 20.7801 8.03035C20.9208 7.8897 20.9998 7.69894 20.9998 7.50002C20.9998 7.30111 20.9208 7.11035 20.7801 6.96969C20.6395 6.82904 20.4487 6.75002 20.2498 6.75002H12.6561C12.4908 6.10471 12.1155 5.53274 11.5893 5.12429C11.0631 4.71584 10.4159 4.49414 9.74982 4.49414C9.08369 4.49414 8.43651 4.71584 7.9103 5.12429C7.38409 5.53274 7.00879 6.10471 6.84357 6.75002H3.74982C3.5509 6.75002 3.36014 6.82904 3.21949 6.96969C3.07883 7.11035 2.99982 7.30111 2.99982 7.50002C2.99982 7.69894 3.07883 7.8897 3.21949 8.03035C3.36014 8.17101 3.5509 8.25002 3.74982 8.25002ZM9.74982 6.00002C10.0465 6.00002 10.3365 6.088 10.5832 6.25282C10.8298 6.41764 11.0221 6.65191 11.1356 6.926C11.2492 7.20009 11.2789 7.50169 11.221 7.79266C11.1631 8.08363 11.0203 8.3509 10.8105 8.56068C10.6007 8.77046 10.3334 8.91332 10.0425 8.9712C9.75148 9.02908 9.44988 8.99937 9.17579 8.88584C8.9017 8.77231 8.66743 8.58005 8.50261 8.33338C8.33779 8.0867 8.24982 7.7967 8.24982 7.50002C8.24982 7.1022 8.40785 6.72067 8.68916 6.43936C8.97046 6.15806 9.35199 6.00002 9.74982 6.00002ZM20.2498 15.75H18.6561C18.4908 15.1047 18.1155 14.5327 17.5893 14.1243C17.0631 13.7158 16.4159 13.4941 15.7498 13.4941C15.0837 13.4941 14.4365 13.7158 13.9103 14.1243C13.3841 14.5327 13.0088 15.1047 12.8436 15.75H3.74982C3.5509 15.75 3.36014 15.829 3.21949 15.9697C3.07883 16.1103 2.99982 16.3011 2.99982 16.5C2.99982 16.6989 3.07883 16.8897 3.21949 17.0304C3.36014 17.171 3.5509 17.25 3.74982 17.25H12.8436C13.0088 17.8953 13.3841 18.4673 13.9103 18.8758C14.4365 19.2842 15.0837 19.5059 15.7498 19.5059C16.4159 19.5059 17.0631 19.2842 17.5893 18.8758C18.1155 18.4673 18.4908 17.8953 18.6561 17.25H20.2498C20.4487 17.25 20.6395 17.171 20.7801 17.0304C20.9208 16.8897 20.9998 16.6989 20.9998 16.5C20.9998 16.3011 20.9208 16.1103 20.7801 15.9697C20.6395 15.829 20.4487 15.75 20.2498 15.75ZM15.7498 18C15.4531 18 15.1631 17.912 14.9165 17.7472C14.6698 17.5824 14.4775 17.3481 14.364 17.074C14.2505 16.8 14.2208 16.4984 14.2786 16.2074C14.3365 15.9164 14.4794 15.6491 14.6892 15.4394C14.8989 15.2296 15.1662 15.0867 15.4572 15.0288C15.7482 14.971 16.0498 15.0007 16.3238 15.1142C16.5979 15.2277 16.8322 15.42 16.997 15.6667C17.1618 15.9133 17.2498 16.2034 17.2498 16.5C17.2498 16.8978 17.0918 17.2794 16.8105 17.5607C16.5292 17.842 16.1476 18 15.7498 18Z"/>
</svg>
