<svg viewBox="0 0 24 24" xmlns="http://www.w3.org/2000/svg" aria-hidden="true" fill="currentColor"><path d="M22.551 20.94c-1.152 0-1.395-1.065-1.395-1.96v-6.32c0-.591.122-1.091.343-1.407.21-.3.508-.44.94-.44a.74.74 0 0 0 .75-.75.75.75 0 0 0-.75-.75c-1.716 0-2.782 1.282-2.782 3.345v2.072h-.995l-.022-.773c-.005-2.131-1.314-3.404-3.503-3.404h-2.784L9.925 4.81a1.645 1.645 0 0 0-1.53-1.026H2.98q-.076 0-.147.015a.75.75 0 0 0-.897.735v6.02H1.45a.75.75 0 1 0 0 1.5h13.687c.86 0 2.003.2 2.003 1.915v.022l.147 4.996a.153.153 0 0 1-.153.147h-2.201a3.864 3.864 0 0 0-3.843-3.51 3.865 3.865 0 0 0-3.843 3.51H1.543a.75.75 0 1 0 0 1.5h5.862a3.87 3.87 0 0 0 3.684 2.709 3.87 3.87 0 0 0 3.685-2.71h2.36c.91 0 1.652-.741 1.652-1.652v-.023l-.08-2.727h.95v2.75c0 2.1 1.136 3.46 2.895 3.46a.75.75 0 1 0 0-1.5M3.435 10.555v-5.27h4.96c.063 0 .118.037.141.095l.005.01 2.184 5.165zm7.654 11.288a2.36 2.36 0 0 1-2.359-2.359c0-1.3 1.059-2.359 2.36-2.359s2.358 1.059 2.358 2.36-1.059 2.358-2.359 2.358"/><path d="M14.456 5.945 13.3 5.66a.75.75 0 1 0-.358 1.457l.705.173-.183.683a.75.75 0 0 0 1.448.389l.301-1.124 1.072-.618v1.236l-.848.848a.75.75 0 0 0 1.06 1.06l.538-.537.537.537a.75.75 0 0 0 1.061 0 .75.75 0 0 0 0-1.06l-.847-.848V6.621l1.071.618.301 1.124a.75.75 0 1 0 1.449-.389l-.183-.683.705-.173a.75.75 0 1 0-.358-1.457l-1.156.284-1.08-.624 1.08-.623 1.156.284q.09.022.179.022a.749.749 0 0 0 .178-1.479l-.705-.173.183-.684a.75.75 0 0 0-1.45-.388l-.3 1.123-1.072.619V2.785l.847-.847a.75.75 0 0 0-1.06-1.06l-.537.537-.537-.537a.75.75 0 0 0-1.06 1.06l.847.847v1.237l-1.072-.619-.3-1.123a.75.75 0 1 0-1.45.388l.183.684-.705.173a.75.75 0 0 0 .357 1.457l1.156-.284 1.079.623-1.079.624zm-8.95 8.977a.75.75 0 1 0 0-1.5h-2.37a.75.75 0 1 0 0 1.5z"/></svg>