<svg viewBox="0 0 24 24" xmlns="http://www.w3.org/2000/svg" aria-hidden="true" fill="currentColor"><path d="M22.313 18.75a1.125 1.125 0 0 1-1.125 1.125h-3.75a1.125 1.125 0 1 1 0-2.25h3.75a1.125 1.125 0 0 1 1.125 1.125m-2.063-7.722-8.437 4.92-8.433-4.92a1.125 1.125 0 0 0-1.13 1.944l9 5.25a1.13 1.13 0 0 0 1.134 0l9-5.25a1.125 1.125 0 1 0-1.134-1.944M1.688 7.5a1.13 1.13 0 0 1 .562-.972l9-5.25a1.13 1.13 0 0 1 1.134 0l9 5.25a1.126 1.126 0 0 1 0 1.944l-9 5.25a1.13 1.13 0 0 1-1.134 0l-9-5.25a1.13 1.13 0 0 1-.562-.972m3.358 0 6.767 3.948L18.579 7.5l-6.767-3.948zm7.704 12.403-.937.545-8.433-4.92a1.125 1.125 0 0 0-1.13 1.944l9 5.25a1.13 1.13 0 0 0 1.134 0l1.5-.876a1.126 1.126 0 0 0-1.134-1.943"/></svg>