<svg viewBox="0 0 24 24" xmlns="http://www.w3.org/2000/svg" aria-hidden="true" fill="currentColor"><path d="M8.25 14.006a.75.75 0 0 0 .75-.75V12h6v1.433a.75.75 0 0 0 1.5 0V3A.75.75 0 1 0 15 3v1.5H9V3a.75.75 0 0 0-1.5 0v10.256a.75.75 0 0 0 .75.75M9 10.5V9h6v1.5zM15 6v1.5H9V6zM2.25 15.75A.75.75 0 0 1 3 15c1.352 0 2.08.485 2.666.875.521.349.936.624 1.834.624s1.312-.275 1.834-.624c.585-.39 1.312-.875 2.665-.875s2.081.485 2.666.875c.523.349.938.624 1.835.624s1.312-.275 1.834-.624C18.92 15.485 19.646 15 21 15a.75.75 0 1 1 0 1.5c-.898 0-1.313.275-1.834.624-.586.39-1.312.875-2.666.875s-2.081-.485-2.666-.875c-.522-.349-.937-.625-1.834-.625s-1.313.276-1.834.625c-.585.39-1.312.875-2.665.875s-2.08-.485-2.666-.875C4.312 16.776 3.898 16.5 3 16.5a.75.75 0 0 1-.75-.75m19.5 3.75a.75.75 0 0 1-.75.75c-.898 0-1.313.275-1.834.624-.586.39-1.312.875-2.666.875s-2.081-.485-2.666-.875c-.522-.349-.937-.625-1.834-.625s-1.313.276-1.834.625c-.585.39-1.312.875-2.665.875s-2.08-.485-2.666-.875c-.523-.349-.937-.625-1.835-.625a.75.75 0 1 1 0-1.5c1.352 0 2.08.486 2.666.876.521.349.936.624 1.834.624s1.312-.275 1.834-.624c.585-.39 1.312-.876 2.665-.876s2.081.486 2.666.876c.523.349.938.624 1.835.624s1.312-.275 1.834-.624c.586-.39 1.312-.876 2.666-.876a.75.75 0 0 1 .75.75"/></svg>