<svg width="24" height="24" viewBox="0 0 24 24" xmlns="http://www.w3.org/2000/svg">
<g clip-path="url(#clip0_2087_4475)">
<path d="M23.9353 18.4453L17.9353 4.94531C17.8764 4.81276 17.7803 4.70015 17.6586 4.62111C17.537 4.54207 17.3951 4.5 17.25 4.5H6.74999C6.60619 4.50024 6.46549 4.54181 6.34465 4.61976C6.22381 4.69772 6.12793 4.80877 6.06843 4.93969C6.06816 4.94155 6.06816 4.94345 6.06843 4.94531V4.95656L0.0646787 18.4453C0.0139116 18.5595 -0.00751847 18.6846 0.00233557 18.8091C0.0121896 18.9337 0.0530154 19.0539 0.121104 19.1586C0.189192 19.2634 0.282384 19.3495 0.392213 19.4092C0.502042 19.4688 0.625026 19.5 0.749991 19.5H23.25C23.375 19.5 23.4979 19.4688 23.6078 19.4092C23.7176 19.3495 23.8108 19.2634 23.8789 19.1586C23.947 19.0539 23.9878 18.9337 23.9976 18.8091C24.0075 18.6846 23.9861 18.5595 23.9353 18.4453ZM5.99999 18H1.90405L5.99999 8.78437V18ZM7.49999 18V8.78437L11.5959 18H7.49999ZM13.2375 18L7.90405 6H16.7625L22.0959 18H13.2375Z"/>
</g>
<defs>
<clipPath id="clip0_2087_4475">
<rect width="24" height="24"/>
</clipPath>
</defs>
</svg>
