<svg width="23" height="23" fill="none" xmlns="http://www.w3.org/2000/svg"><g clip-path="url(#a)"><path d="M17.578 10.813c-.091-.046-.206-.091-.297-.137-.184-3.322-1.993-5.2-5.04-5.224h-.046c-1.81 0-3.322.78-4.261 2.177l1.672 1.145c.687-1.053 1.787-1.283 2.589-1.283h.023c1.008 0 1.764.298 2.245.871.366.412.595.985.71 1.695a11.727 11.727 0 0 0-2.864-.137c-2.886.16-4.742 1.855-4.627 4.192.068 1.192.664 2.2 1.672 2.864.848.573 1.947.848 3.093.779 1.512-.092 2.703-.665 3.528-1.718.618-.802 1.03-1.833 1.191-3.139.71.435 1.26 1.008 1.558 1.695.504 1.169.527 3.093-1.031 4.651-1.375 1.375-3.024 1.97-5.521 1.97-2.772-.023-4.857-.916-6.209-2.634-1.283-1.627-1.924-3.964-1.947-6.942.023-3.001.687-5.338 1.947-6.942 1.352-1.718 3.46-2.611 6.209-2.634 2.795.023 4.902.916 6.323 2.657.687.848 1.214 1.925 1.558 3.162L22 7.354c-.412-1.535-1.077-2.864-1.97-3.963C18.22 1.168 15.585.023 12.172 0h-.023c-3.39.023-6.025 1.168-7.766 3.39C2.848 5.43 2.023 8.18 2 11.66c.023 3.46.825 6.232 2.405 8.226 1.765 2.245 4.376 3.367 7.767 3.39h.023c3.024-.023 5.154-.802 6.918-2.566 2.291-2.29 2.223-5.177 1.467-6.941-.55-1.26-1.581-2.268-3.002-2.956Zm-5.223 4.903c-1.26.069-2.589-.481-2.635-1.718-.045-.894.642-1.902 2.727-2.04.229-.022.48-.022.71-.022.756 0 1.466.069 2.108.206-.275 3.024-1.673 3.505-2.91 3.574Z" fill="#000"/></g><defs><clipPath id="a"><path fill="#fff" d="M0 0h23v23H0z"/></clipPath></defs></svg>