<?xml version="1.0" encoding="utf-8"?>
<!-- Generator: Adobe Illustrator 27.7.0, SVG Export Plug-In . SVG Version: 6.00 Build 0)  -->
<svg version="1.1" id="Layer_1" xmlns="http://www.w3.org/2000/svg" xmlns:xlink="http://www.w3.org/1999/xlink" x="0px" y="0px"
	 viewBox="0 0 150 150" style="enable-background:new 0 0 150 150;" xml:space="preserve">
<!--<style type="text/css">-->
<!--	.st0{fill:#14558F;}-->
<!--	.st1{fill:#FFFFFF;}-->
<!--</style>-->
<rect class="st0" width="150" height="150"/>
<path class="st1" d="M99.3,71.3c-0.4-0.2-0.9-0.4-1.3-0.6C97.2,56.2,89.3,48,76,47.9c-0.1,0-0.1,0-0.2,0c-7.9,0-14.5,3.4-18.6,9.5
	l7.3,5c3-4.6,7.8-5.6,11.3-5.6c0,0,0.1,0,0.1,0c4.4,0,7.7,1.3,9.8,3.8c1.6,1.8,2.6,4.3,3.1,7.4c-3.9-0.7-8.1-0.9-12.5-0.6
	c-12.6,0.7-20.7,8.1-20.2,18.3c0.3,5.2,2.9,9.6,7.3,12.5c3.7,2.5,8.5,3.7,13.5,3.4c6.6-0.4,11.8-2.9,15.4-7.5
	c2.7-3.5,4.5-8,5.2-13.7c3.1,1.9,5.5,4.4,6.8,7.4c2.2,5.1,2.3,13.5-4.5,20.3c-6,6-13.2,8.6-24.1,8.6c-12.1-0.1-21.2-4-27.1-11.5
	c-5.6-7.1-8.4-17.3-8.5-30.3c0.1-13.1,3-23.3,8.5-30.3c5.9-7.5,15.1-11.4,27.1-11.5c12.2,0.1,21.4,4,27.6,11.6
	c3,3.7,5.3,8.4,6.8,13.8l8.5-2.3c-1.8-6.7-4.7-12.5-8.6-17.3c-7.9-9.7-19.4-14.7-34.3-14.8h-0.1c-14.8,0.1-26.3,5.1-33.9,14.8
	C35,47.8,31.4,59.8,31.3,75l0,0l0,0c0.1,15.1,3.6,27.2,10.5,35.9c7.7,9.8,19.1,14.7,33.9,14.8h0.1c13.2-0.1,22.5-3.5,30.2-11.2
	c10-10,9.7-22.6,6.4-30.3C110,78.7,105.5,74.3,99.3,71.3z M76.5,92.7C71,93,65.2,90.6,65,85.2c-0.2-3.9,2.8-8.3,11.9-8.9
	c1-0.1,2.1-0.1,3.1-0.1c3.3,0,6.4,0.3,9.2,0.9C88,90.3,81.9,92.4,76.5,92.7z"/>
</svg>
