<svg aria-hidden="true" xmlns="http://www.w3.org/2000/svg" version="1.1" viewBox="0 0 19 22"><path d="M14.7244 10.2205C14.6378 10.1772 14.5295 10.1339 14.4429 10.0906C14.2697 6.95079 12.5591 5.1752 9.67913 5.15354C9.65748 5.15354 9.65748 5.15354 9.63583 5.15354C7.9252 5.15354 6.49606 5.88976 5.60827 7.21063L7.18898 8.29331C7.83858 7.29724 8.87795 7.08071 9.63583 7.08071H9.65748C10.6102 7.08071 11.3248 7.3622 11.7795 7.90354C12.126 8.29331 12.3425 8.83465 12.4508 9.50591C11.6063 9.35433 10.6969 9.31102 9.7441 9.37598C7.01575 9.52756 5.26181 11.1299 5.37008 13.3386C5.43504 14.4646 5.99803 15.4173 6.95079 16.0453C7.75197 16.5866 8.79134 16.8465 9.87402 16.7815C11.3032 16.6949 12.4291 16.1535 13.2087 15.1575C13.7933 14.3996 14.1831 13.4252 14.3346 12.1909C15.0059 12.6024 15.5256 13.1437 15.8071 13.7933C16.2835 14.8976 16.3051 16.7165 14.8327 18.189C13.5335 19.4882 11.9744 20.0512 9.61417 20.0512C6.99409 20.0295 5.02362 19.185 3.74606 17.561C2.53346 16.0236 1.92717 13.815 1.90551 11C1.92717 8.16339 2.55512 5.95472 3.74606 4.43898C5.02362 2.81496 7.01575 1.97047 9.61417 1.94882C12.2559 1.97047 14.248 2.81496 15.5906 4.46063C16.2402 5.26181 16.7382 6.27953 17.063 7.44882L18.9035 6.95079C18.5138 5.5 17.8858 4.24409 17.0413 3.20472C15.3307 1.10433 12.8406 0.0216535 9.61417 0H9.59252C6.3878 0.0216535 3.89764 1.10433 2.25197 3.20472C0.801181 5.13189 0.0216535 7.73032 0 11.0217C0.0216535 14.2913 0.779528 16.9114 2.27362 18.7953C3.94094 20.9173 6.40945 21.9783 9.61417 22H9.63583C12.4941 21.9783 14.5079 21.2421 16.1752 19.5748C18.3406 17.4094 18.2756 14.6811 17.561 13.0138C17.0413 11.8228 16.0669 10.8701 14.7244 10.2205ZM9.7874 14.8543C8.59646 14.9193 7.34055 14.3996 7.29724 13.2303C7.25394 12.3858 7.90354 11.4331 9.87402 11.3032C10.0906 11.2815 10.3287 11.2815 10.5453 11.2815C11.2598 11.2815 11.9311 11.3465 12.5374 11.4764C12.2776 14.3346 10.9567 14.7894 9.7874 14.8543Z"/></svg>
