<svg viewBox="0 0 24 24" xmlns="http://www.w3.org/2000/svg" aria-hidden="true" fill="currentColor" height="24px" width="24px"><path d="m21.335 10.204-2.1-7.697a1.875 1.875 0 0 0-1.808-1.382H6.573a1.875 1.875 0 0 0-1.809 1.382l-2.1 7.697a1.14 1.14 0 0 0 0 .592l2.1 7.697a1.875 1.875 0 0 0 1.809 1.382h.177l-.9 1.2a1.125 1.125 0 1 0 1.8 1.35l1.912-2.55h4.875l1.913 2.55a1.125 1.125 0 1 0 1.8-1.35l-.9-1.2h.177a1.875 1.875 0 0 0 1.808-1.382l2.1-7.697a1.14 1.14 0 0 0 0-.592M6.86 3.375h10.28l1.704 6.237L12 10.856 5.156 9.612zm-1.555 8.55 5.57 1.012v4.688H6.859zm11.835 5.7h-4.015v-4.687l5.57-1.013zM7.875 7.5A1.125 1.125 0 0 1 9 6.375h6a1.125 1.125 0 0 1 0 2.25H9A1.125 1.125 0 0 1 7.875 7.5"/></svg>