<svg width="24" height="24" viewBox="0 0 24 24" xmlns="http://www.w3.org/2000/svg">
<path d="M17.25 2.25H6.75C5.95435 2.25 5.19129 2.56607 4.62868 3.12868C4.06607 3.69129 3.75 4.45435 3.75 5.25V17.25C3.75 18.0457 4.06607 18.8087 4.62868 19.3713C5.19129 19.9339 5.95435 20.25 6.75 20.25H7.5L6.15 22.05C6.0909 22.1288 6.04791 22.2185 6.02346 22.3139C5.99902 22.4093 5.99361 22.5086 6.00754 22.6061C6.02147 22.7036 6.05446 22.7974 6.10464 22.8821C6.15482 22.9669 6.22121 23.0409 6.3 23.1C6.37879 23.1591 6.46845 23.2021 6.56386 23.2265C6.65927 23.251 6.75856 23.2564 6.85607 23.2425C6.95357 23.2285 7.04737 23.1955 7.13212 23.1454C7.21687 23.0952 7.29091 23.0288 7.35 22.95L9.375 20.25H14.625L16.65 22.95C16.7693 23.1091 16.947 23.2143 17.1439 23.2425C17.3408 23.2706 17.5409 23.2193 17.7 23.1C17.8591 22.9807 17.9643 22.803 17.9925 22.6061C18.0206 22.4092 17.9693 22.2091 17.85 22.05L16.5 20.25H17.25C18.0456 20.25 18.8087 19.9339 19.3713 19.3713C19.9339 18.8087 20.25 18.0457 20.25 17.25V5.25C20.25 4.45435 19.9339 3.69129 19.3713 3.12868C18.8087 2.56607 18.0456 2.25 17.25 2.25ZM5.25 11.25V7.5H11.25V11.25H5.25ZM12.75 7.5H18.75V11.25H12.75V7.5ZM6.75 3.75H17.25C17.6478 3.75 18.0294 3.90804 18.3107 4.18934C18.592 4.47064 18.75 4.85218 18.75 5.25V6H5.25V5.25C5.25 4.85218 5.40804 4.47064 5.68934 4.18934C5.97064 3.90804 6.35218 3.75 6.75 3.75ZM17.25 18.75H6.75C6.35218 18.75 5.97064 18.592 5.68934 18.3107C5.40804 18.0294 5.25 17.6478 5.25 17.25V12.75H18.75V17.25C18.75 17.6478 18.592 18.0294 18.3107 18.3107C18.0294 18.592 17.6478 18.75 17.25 18.75ZM9 16.125C9 16.3475 8.93402 16.565 8.8104 16.75C8.68679 16.935 8.51109 17.0792 8.30552 17.1644C8.09995 17.2495 7.87375 17.2718 7.65552 17.2284C7.43729 17.185 7.23684 17.0778 7.0795 16.9205C6.92217 16.7632 6.81502 16.5627 6.77162 16.3445C6.72821 16.1262 6.75049 15.9001 6.83564 15.6945C6.92078 15.4889 7.06498 15.3132 7.24998 15.1896C7.43499 15.066 7.6525 15 7.875 15C8.17337 15 8.45952 15.1185 8.6705 15.3295C8.88147 15.5405 9 15.8266 9 16.125ZM17.25 16.125C17.25 16.3475 17.184 16.565 17.0604 16.75C16.9368 16.935 16.7611 17.0792 16.5555 17.1644C16.35 17.2495 16.1238 17.2718 15.9055 17.2284C15.6873 17.185 15.4868 17.0778 15.3295 16.9205C15.1722 16.7632 15.065 16.5627 15.0216 16.3445C14.9782 16.1262 15.0005 15.9001 15.0856 15.6945C15.1708 15.4889 15.315 15.3132 15.5 15.1896C15.685 15.066 15.9025 15 16.125 15C16.4234 15 16.7095 15.1185 16.9205 15.3295C17.1315 15.5405 17.25 15.8266 17.25 16.125Z"/>
</svg>
