<svg viewBox="0 0 24 24" xmlns="http://www.w3.org/2000/svg" aria-hidden="true" fill="currentColor"><path d="m20.974 10.303-2.1-7.698A1.5 1.5 0 0 0 17.428 1.5H6.573a1.5 1.5 0 0 0-1.448 1.105l-2.099 7.698a.76.76 0 0 0 0 .394l2.1 7.698A1.5 1.5 0 0 0 6.572 19.5H7.5l-1.35 1.8a.75.75 0 0 0 1.2.9l2.025-2.7h5.25l2.025 2.7a.75.75 0 0 0 1.2-.9l-1.35-1.8h.927a1.5 1.5 0 0 0 1.448-1.105l2.099-7.698a.76.76 0 0 0 0-.394M6.573 3h10.854l1.886 6.908L12 11.238l-7.312-1.33zm-1.781 8.45 6.458 1.176V18H6.573zM17.427 18H12.75v-5.374l6.463-1.175zM8.25 7.5A.75.75 0 0 1 9 6.75h6a.75.75 0 0 1 0 1.5H9a.75.75 0 0 1-.75-.75"/></svg>