<svg width="24" height="24" viewBox="0 0 24 24" xmlns="http://www.w3.org/2000/svg">
<path d="M18.5719 5.86789C18.0293 4.5725 17.1161 3.46633 15.9468 2.68837C14.7775 1.91041 13.4044 1.49536 12 1.49536C10.5956 1.49536 9.22248 1.91041 8.05322 2.68837C6.88395 3.46633 5.97068 4.5725 5.42813 5.86789C4.25645 6.40343 3.26331 7.26434 2.56692 8.34816C1.87052 9.43197 1.50019 10.6931 1.50001 11.9813C1.49063 15.5626 4.50001 18.6563 8.07563 18.7501C9.17544 18.7766 10.2651 18.5343 11.25 18.0441V21.7501C11.25 21.949 11.329 22.1398 11.4697 22.2804C11.6103 22.4211 11.8011 22.5001 12 22.5001C12.1989 22.5001 12.3897 22.4211 12.5303 22.2804C12.671 22.1398 12.75 21.949 12.75 21.7501V18.0441C13.6824 18.5071 14.709 18.7487 15.75 18.7501H15.9206C19.5 18.6563 22.5103 15.5626 22.5 11.9813C22.4998 10.6931 22.1295 9.43197 21.4331 8.34816C20.7367 7.26434 19.7436 6.40343 18.5719 5.86789ZM15.8859 17.2501C14.7675 17.2792 13.6689 16.9508 12.75 16.3126V12.4688L16.8356 10.427C16.9238 10.3829 17.0024 10.3219 17.067 10.2474C17.1315 10.173 17.1808 10.0865 17.212 9.99303C17.2431 9.89953 17.2556 9.80081 17.2486 9.7025C17.2416 9.6042 17.2153 9.50823 17.1713 9.42008C17.1272 9.33193 17.0662 9.25332 16.9917 9.18875C16.9173 9.12418 16.8308 9.0749 16.7373 9.04374C16.6438 9.01257 16.5451 9.00013 16.4468 9.00711C16.3485 9.0141 16.2525 9.04038 16.1644 9.08446L12.75 10.787V8.25008C12.75 8.05117 12.671 7.8604 12.5303 7.71975C12.3897 7.5791 12.1989 7.50008 12 7.50008C11.8011 7.50008 11.6103 7.5791 11.4697 7.71975C11.329 7.8604 11.25 8.05117 11.25 8.25008V13.037L7.83563 11.3288C7.65761 11.2398 7.45151 11.2252 7.26268 11.2881C7.07386 11.3511 6.91777 11.4864 6.82876 11.6645C6.73974 11.8425 6.7251 12.0486 6.78804 12.2374C6.85098 12.4262 6.98636 12.5823 7.16438 12.6713L11.25 14.7132V16.307C10.3313 16.9456 9.23258 17.2741 8.11407 17.2445C5.33438 17.1779 2.99251 14.7676 3.00001 11.9851C2.9993 10.9386 3.31262 9.91603 3.89943 9.04959C4.48625 8.18315 5.31957 7.51274 6.29157 7.12508C6.38908 7.08593 6.47727 7.02672 6.55043 6.9513C6.62359 6.87587 6.68009 6.78592 6.71626 6.68727C7.11186 5.60388 7.83094 4.66829 8.77606 4.00725C9.72118 3.34621 10.8467 2.99167 12 2.99167C13.1534 2.99167 14.2788 3.34621 15.224 4.00725C16.1691 4.66829 16.8882 5.60388 17.2838 6.68727C17.3199 6.78592 17.3764 6.87587 17.4496 6.9513C17.5227 7.02672 17.6109 7.08593 17.7084 7.12508C18.6803 7.51295 19.5135 8.18342 20.1003 9.04981C20.687 9.9162 21.0005 10.9387 21 11.9851C21.0075 14.7676 18.6656 17.1779 15.8859 17.2501Z"/>
</svg>
