<svg viewBox="0 0 24 24" xmlns="http://www.w3.org/2000/svg" aria-hidden="true" fill="currentColor"><path d="m23.196 9.84-1.313-3.28a1.49 1.49 0 0 0-1.39-.938H17.25v-.75a.75.75 0 0 0-.75-.75H2.25a1.5 1.5 0 0 0-1.5 1.5v10.5a1.5 1.5 0 0 0 1.5 1.5h1.594a3 3 0 0 0 5.813 0h4.687a3 3 0 0 0 5.813 0h1.593a1.5 1.5 0 0 0 1.5-1.5v-6a.8.8 0 0 0-.054-.281M17.25 7.123h3.242l.9 2.25H17.25zm-15-1.5h13.5v6H2.25zm4.5 12.75a1.5 1.5 0 1 1 0-3 1.5 1.5 0 0 1 0 3m7.594-2.25H9.657a3 3 0 0 0-5.813 0H2.25v-3h13.5v1.154a3 3 0 0 0-1.406 1.846m2.906 2.25a1.5 1.5 0 1 1 0-3 1.5 1.5 0 0 1 0 3m4.5-2.25h-1.593a3.005 3.005 0 0 0-2.907-2.25v-3h4.5z"/></svg>