<svg viewBox="0 0 24 24" xmlns="http://www.w3.org/2000/svg" aria-hidden="true" fill="currentColor" height="24px" width="24px"><path d="m23.357 9.707-1.313-3.281a1.86 1.86 0 0 0-1.74-1.176h-2.491v-.375a1.125 1.125 0 0 0-1.125-1.125H2.438A1.875 1.875 0 0 0 .562 5.625v10.5A1.875 1.875 0 0 0 2.439 18h1.318a3.375 3.375 0 0 0 6.363 0h4.137a3.375 3.375 0 0 0 6.363 0h.944a1.875 1.875 0 0 0 1.875-1.875v-6a2 2 0 0 0-.081-.418M17.813 7.5h2.238l.6 1.5h-2.838zM6.938 18a1.125 1.125 0 1 1 0-2.25 1.125 1.125 0 0 1 0 2.25m8.625-3.93a3.4 3.4 0 0 0-1.307 1.68h-4.137a3.376 3.376 0 0 0-6.363 0h-.943V12h12.75zm0-4.32H2.813V6h12.75zM17.437 18a1.125 1.125 0 1 1 0-2.25 1.125 1.125 0 0 1 0 2.25m3.75-2.25h-.568a3.38 3.38 0 0 0-2.806-2.228V11.25h3.375z"/></svg>