<svg width="24" height="24" viewBox="0 0 24 24" xmlns="http://www.w3.org/2000/svg">
<path d="M19.5 7.5H9V5.25C9 4.45435 9.31607 3.69129 9.87868 3.12868C10.4413 2.56607 11.2044 2.25 12 2.25C13.4409 2.25 14.7375 3.28125 15.015 4.64906C15.0562 4.84234 15.172 5.01155 15.3373 5.11991C15.5026 5.22827 15.7039 5.26702 15.8976 5.22774C16.0913 5.18846 16.2616 5.07433 16.3716 4.91014C16.4816 4.74596 16.5224 4.545 16.485 4.35094C16.0612 2.26406 14.175 0.75 12 0.75C10.8069 0.751241 9.66303 1.22575 8.81939 2.06939C7.97575 2.91303 7.50124 4.05691 7.5 5.25V7.5H4.5C4.10218 7.5 3.72064 7.65804 3.43934 7.93934C3.15804 8.22064 3 8.60218 3 9V19.5C3 19.8978 3.15804 20.2794 3.43934 20.5607C3.72064 20.842 4.10218 21 4.5 21H19.5C19.8978 21 20.2794 20.842 20.5607 20.5607C20.842 20.2794 21 19.8978 21 19.5V9C21 8.60218 20.842 8.22064 20.5607 7.93934C20.2794 7.65804 19.8978 7.5 19.5 7.5ZM19.5 19.5H4.5V9H19.5V19.5Z"/>
</svg>
