<?xml version="1.0" encoding="UTF-8"?>
<svg width="24px" height="29px" viewBox="0 0 24 29" version="1.1" xmlns="http://www.w3.org/2000/svg" xmlns:xlink="http://www.w3.org/1999/xlink">
    <!-- Generator: Sketch 63.1 (92452) - https://sketch.com -->
    <title>Group 6</title>
    <desc>Created with Sketch.</desc>
    <g id="headers" stroke="none" stroke-width="1" fill="none" fill-rule="evenodd">
        <g id="icon/lock-copy" fill="#141414">
            <g id="Group-6">
                <path d="M12.0627451,-3.55626639e-12 C16.1395875,-3.55626639e-12 19.4596568,3.24013117 19.5882882,7.28572882 L19.5921569,7.52941176 L19.592,12 L22,12 C23.1045695,12 24,12.8954305 24,14 L24,27 C24,28.1045695 23.1045695,29 22,29 L2,29 C0.8954305,29 0,28.1045695 0,27 L0,14 C0,12.8954305 0.8954305,12 2,12 L17.832,12 L17.8320346,7.52941176 L17.8278686,7.30811616 C17.7115689,4.22437862 15.1749359,1.76012223 12.0627451,1.76012223 C8.95055425,1.76012223 6.41392133,4.22437862 6.29762158,7.30811616 L6.29345556,7.52941176 L4.53333333,7.52941176 C4.53333333,3.37103247 7.90436581,-3.55626639e-12 12.0627451,-3.55626639e-12 Z" id="Combined-Shape"></path>
            </g>
        </g>
    </g>
</svg>