<svg viewBox="0 0 24 24" xmlns="http://www.w3.org/2000/svg" aria-hidden="true" fill="currentColor"><path d="M12.74 15.529a6.375 6.375 0 1 0-6.74 0c-1.936.634-3.678 1.818-5.079 3.485a.75.75 0 1 0 1.148.965c1.882-2.246 4.475-3.483 7.296-3.483s5.414 1.237 7.3 3.483a.75.75 0 1 0 1.15-.965c-1.402-1.667-3.144-2.851-5.075-3.485M4.49 10.12a4.875 4.875 0 1 1 9.75 0 4.875 4.875 0 0 1-9.75 0m18.4 4.04-.437-.252c.051-.271.051-.55 0-.821l.437-.252a.75.75 0 1 0-.75-1.3l-.438.253c-.21-.18-.45-.319-.71-.411v-.505a.75.75 0 1 0-1.5 0v.505a2.2 2.2 0 0 0-.711.411l-.438-.253a.75.75 0 0 0-.75 1.3l.437.252a2.2 2.2 0 0 0 0 .821l-.437.252a.751.751 0 0 0 .75 1.3l.438-.253c.21.18.45.319.71.411v.504a.75.75 0 1 0 1.5 0v-.504c.26-.092.501-.232.71-.412l.439.254a.75.75 0 1 0 .75-1.3m-3.399-.663a.75.75 0 1 1 1.501 0 .75.75 0 0 1-1.5 0"/></svg>