<svg viewBox="0 0 24 24" xmlns="http://www.w3.org/2000/svg" aria-hidden="true" fill="currentColor"><g clip-path="url(#a)"><path d="M13.602 15.429a6.75 6.75 0 1 0-8.344 0A11.6 11.6 0 0 0 .694 18.78a1.125 1.125 0 0 0 1.723 1.447C4.23 18.07 6.722 16.88 9.43 16.88c3.469 0 5.73 1.82 7.014 3.348a1.126 1.126 0 0 0 1.723-1.447 11.6 11.6 0 0 0-4.565-3.352m-8.672-5.3a4.5 4.5 0 1 1 9 0 4.5 4.5 0 0 1-9 0m17.862 3.75-.666.216.411.567a1.125 1.125 0 1 1-1.82 1.323l-.412-.568-.412.568a1.125 1.125 0 1 1-1.82-1.322l.412-.568-.667-.216a1.126 1.126 0 0 1 .695-2.14l.667.216v-.701a1.125 1.125 0 1 1 2.25 0v.701l.668-.216a1.126 1.126 0 0 1 .694 2.14"/></g><defs><clipPath id="a"><path d="M0 0h24v24H0z"/></clipPath></defs></svg>