<svg viewBox="0 0 24 24" xmlns="http://www.w3.org/2000/svg" aria-hidden="true" fill="currentColor"><path d="M23.07 9.634 18.8 4.659a1.5 1.5 0 0 0-1.15-.537H2.25a1.5 1.5 0 0 0-1.5 1.5v10.5a1.5 1.5 0 0 0 1.5 1.5h1.594a3 3 0 0 0 5.813 0h4.687a3 3 0 0 0 5.813 0h1.593a1.5 1.5 0 0 0 1.5-1.5v-6a.75.75 0 0 0-.18-.488m-2.202-.262H15.75v-3.75h1.9zM9 9.372v-3.75h5.25v3.75zm-1.5-3.75v3.75H2.25v-3.75zm-.75 12.75a1.5 1.5 0 1 1 0-3 1.5 1.5 0 0 1 0 3m10.5 0a1.5 1.5 0 1 1 0-3 1.5 1.5 0 0 1 0 3m2.907-2.25a3 3 0 0 0-5.813 0H9.657a3 3 0 0 0-5.813 0H2.25v-5.25h19.5v5.25z"/></svg>