<svg width="24" height="24" viewBox="0 0 24 24" fill="none" xmlns="http://www.w3.org/2000/svg">
<path d="M23.0244 17.4469L14.8259 3.2091C14.5885 2.80299 14.2488 2.46613 13.8408 2.23203C13.4327 1.99793 12.9705 1.87476 12.5 1.87476C12.0296 1.87476 11.5673 1.99793 11.1593 2.23203C10.7512 2.46613 10.4115 2.80299 10.1741 3.2091L1.97564 17.4469C1.74522 17.841 1.62378 18.2893 1.62378 18.7458C1.62378 19.2023 1.74522 19.6506 1.97564 20.0447C2.21047 20.4529 2.54966 20.7912 2.9584 21.025C3.36714 21.2587 3.83072 21.3796 4.30157 21.375H20.6985C21.169 21.3792 21.6322 21.2582 22.0406 21.0245C22.4489 20.7907 22.7878 20.4526 23.0225 20.0447C23.2532 19.6508 23.375 19.2026 23.3753 18.7461C23.3756 18.2896 23.2545 17.8412 23.0244 17.4469ZM21.0744 18.9188C21.0363 18.9838 20.9813 19.0372 20.9153 19.0735C20.8493 19.1098 20.7747 19.1276 20.6994 19.125H4.30157C4.22628 19.1276 4.15169 19.1098 4.08568 19.0735C4.01968 19.0372 3.9647 18.9838 3.92657 18.9188C3.89423 18.8662 3.87711 18.8057 3.87711 18.7439C3.87711 18.6822 3.89423 18.6217 3.92657 18.5691L12.125 4.33129C12.1656 4.2688 12.2212 4.21745 12.2867 4.1819C12.3522 4.14635 12.4255 4.12773 12.5 4.12773C12.5745 4.12773 12.6479 4.14635 12.7134 4.1819C12.7788 4.21745 12.8344 4.2688 12.875 4.33129L21.0725 18.5691C21.1051 18.6215 21.1226 18.6819 21.1229 18.7437C21.1232 18.8054 21.1064 18.866 21.0744 18.9188ZM11.375 12.75V9.75004C11.375 9.45167 11.4935 9.16552 11.7045 8.95455C11.9155 8.74357 12.2016 8.62504 12.5 8.62504C12.7984 8.62504 13.0845 8.74357 13.2955 8.95455C13.5065 9.16552 13.625 9.45167 13.625 9.75004V12.75C13.625 13.0484 13.5065 13.3346 13.2955 13.5455C13.0845 13.7565 12.7984 13.875 12.5 13.875C12.2016 13.875 11.9155 13.7565 11.7045 13.5455C11.4935 13.3346 11.375 13.0484 11.375 12.75ZM14 16.5C14 16.7967 13.912 17.0867 13.7472 17.3334C13.5824 17.5801 13.3481 17.7723 13.074 17.8859C12.7999 17.9994 12.4983 18.0291 12.2074 17.9712C11.9164 17.9133 11.6491 17.7705 11.4394 17.5607C11.2296 17.3509 11.0867 17.0836 11.0288 16.7927C10.971 16.5017 11.0007 16.2001 11.1142 15.926C11.2277 15.6519 11.42 15.4177 11.6667 15.2528C11.9133 15.088 12.2033 15 12.5 15C12.8978 15 13.2794 15.1581 13.5607 15.4394C13.842 15.7207 14 16.1022 14 16.5Z" fill="black"/>
</svg>
