<svg width="24" height="24" viewBox="0 0 24 24" xmlns="http://www.w3.org/2000/svg">
<path d="M22.2 17.6334L14.0016 3.39556C13.7967 3.04674 13.5042 2.75752 13.1531 2.55656C12.802 2.3556 12.4045 2.24988 12 2.24988C11.5955 2.24988 11.198 2.3556 10.8469 2.55656C10.4958 2.75752 10.2033 3.04674 9.99844 3.39556L1.8 17.6334C1.60288 17.9708 1.49899 18.3545 1.49899 18.7453C1.49899 19.136 1.60288 19.5197 1.8 19.8571C2.00225 20.2081 2.29422 20.4989 2.64596 20.6997C2.9977 20.9005 3.39655 21.0041 3.80156 20.9999H20.1984C20.6031 21.0038 21.0016 20.9 21.353 20.6992C21.7044 20.4984 21.996 20.2078 22.1981 19.8571C22.3955 19.5199 22.4997 19.1363 22.5001 18.7455C22.5004 18.3548 22.3968 17.9709 22.2 17.6334ZM20.8997 19.1062C20.8282 19.2281 20.7256 19.3288 20.6024 19.398C20.4792 19.4672 20.3397 19.5024 20.1984 19.4999H3.80156C3.66026 19.5024 3.52085 19.4672 3.39762 19.398C3.27439 19.3288 3.17178 19.2281 3.10031 19.1062C3.03557 18.9966 3.00142 18.8716 3.00142 18.7443C3.00142 18.617 3.03557 18.492 3.10031 18.3824L11.2987 4.14463C11.3717 4.02329 11.4747 3.92288 11.5979 3.85318C11.7212 3.78347 11.8603 3.74684 12.0019 3.74684C12.1434 3.74684 12.2826 3.78347 12.4058 3.85318C12.529 3.92288 12.6321 4.02329 12.705 4.14463L20.9034 18.3824C20.9676 18.4924 21.0011 18.6175 21.0005 18.7448C20.9998 18.8721 20.965 18.9969 20.8997 19.1062ZM11.25 13.4999V9.74994C11.25 9.55103 11.329 9.36026 11.4697 9.21961C11.6103 9.07896 11.8011 8.99994 12 8.99994C12.1989 8.99994 12.3897 9.07896 12.5303 9.21961C12.671 9.36026 12.75 9.55103 12.75 9.74994V13.4999C12.75 13.6989 12.671 13.8896 12.5303 14.0303C12.3897 14.1709 12.1989 14.2499 12 14.2499C11.8011 14.2499 11.6103 14.1709 11.4697 14.0303C11.329 13.8896 11.25 13.6989 11.25 13.4999ZM13.125 16.8749C13.125 17.0974 13.059 17.3149 12.9354 17.5C12.8118 17.685 12.6361 17.8292 12.4305 17.9143C12.2249 17.9995 11.9988 18.0217 11.7805 17.9783C11.5623 17.9349 11.3618 17.8278 11.2045 17.6704C11.0472 17.5131 10.94 17.3126 10.8966 17.0944C10.8532 16.8762 10.8755 16.65 10.9606 16.4444C11.0458 16.2389 11.19 16.0632 11.375 15.9395C11.56 15.8159 11.7775 15.7499 12 15.7499C12.2984 15.7499 12.5845 15.8685 12.7955 16.0794C13.0065 16.2904 13.125 16.5766 13.125 16.8749Z"/>
</svg>
