<svg viewBox="0 0 24 24" xmlns="http://www.w3.org/2000/svg" aria-hidden="true" fill="currentColor"><path d="M20.835 16.617a.75.75 0 0 1-.094 1.055c-1.628 1.349-3.08 1.828-4.407 1.828-1.741 0-3.264-.827-4.68-1.594-2.377-1.29-4.43-2.404-7.413.07a.748.748 0 0 1-1.23-.646.75.75 0 0 1 .272-.509c3.766-3.12 6.592-1.586 9.087-.232 2.376 1.289 4.429 2.403 7.413-.07a.75.75 0 0 1 1.051.098m-1.057-5.344c-2.984 2.473-5.036 1.36-7.413.07-2.495-1.353-5.321-2.887-9.087.233a.75.75 0 0 0 .958 1.154c2.984-2.473 5.036-1.36 7.413-.07 1.416.769 2.939 1.595 4.68 1.595 1.326 0 2.78-.48 4.407-1.829a.75.75 0 0 0 .102-1.06.75.75 0 0 0-1.06-.094zM4.236 7.481c2.984-2.472 5.036-1.358 7.413-.07 1.416.77 2.939 1.594 4.68 1.594 1.326 0 2.78-.48 4.407-1.828a.748.748 0 0 0-.126-1.245.75.75 0 0 0-.832.091c-2.984 2.473-5.036 1.36-7.413.07-2.495-1.351-5.321-2.885-9.087.235a.75.75 0 1 0 .958 1.153"/></svg>