<svg viewBox="0 0 24 24" xmlns="http://www.w3.org/2000/svg" aria-hidden="true" fill="currentColor" height="24px" width="24px"><path d="M21.123 16.382a1.125 1.125 0 0 1-.148 1.583c-1.703 1.414-3.244 1.91-4.642 1.91-1.852 0-3.455-.87-4.863-1.635-2.35-1.277-4.206-2.284-6.995.028a1.125 1.125 0 1 1-1.436-1.732c3.96-3.281 7.031-1.616 9.505-.274 2.35 1.276 4.206 2.285 6.995-.028a1.126 1.126 0 0 1 1.584.148m-1.584-5.399c-2.79 2.313-4.646 1.304-6.995.028-2.47-1.34-5.544-3.01-9.505.274a1.125 1.125 0 1 0 1.436 1.732c2.79-2.312 4.645-1.305 6.995-.028 1.406.764 3.011 1.635 4.864 1.635 1.397 0 2.938-.496 4.641-1.908a1.126 1.126 0 0 0-1.436-1.733M4.475 7.766c2.79-2.312 4.645-1.305 6.995-.028 1.406.764 3.011 1.635 4.864 1.635 1.397 0 2.938-.496 4.641-1.908a1.125 1.125 0 0 0-1.436-1.733c-2.79 2.313-4.646 1.305-6.995.028C10.074 4.42 7 2.75 3.04 6.035a1.125 1.125 0 1 0 1.436 1.731"/></svg>