<svg viewBox="0 0 24 24" xmlns="http://www.w3.org/2000/svg" aria-hidden="true" fill="currentColor"><path d="M17 7.875a3.375 3.375 0 1 0 0-6.75 3.375 3.375 0 0 0 0 6.75m0-4.5a1.125 1.125 0 1 1 0 2.25 1.125 1.125 0 0 1 0-2.25m2.745 9.037a1.13 1.13 0 0 1 .233.937l-1.5 7.5a1.125 1.125 0 0 1-2.207-.444l1.232-6.155h-5.378a1.127 1.127 0 0 1-.975-1.687l1.68-2.926a7.13 7.13 0 0 0-7.489.99A1.125 1.125 0 0 1 3.91 8.893a9.375 9.375 0 0 1 11.08-.626 1.125 1.125 0 0 1 .361 1.5L14.07 12h4.805a1.13 1.13 0 0 1 .87.412m-3.888 4.173a6 6 0 1 1-6.904-6.39 1.125 1.125 0 1 1 .344 2.224 3.75 3.75 0 1 0 4.317 3.996 1.126 1.126 0 0 1 2.193-.268c.046.141.063.29.05.438"/></svg>