<svg width="24" height="24" viewBox="0 0 24 24" xmlns="http://www.w3.org/2000/svg">
<path d="M13.125 16.126C13.125 16.3485 13.059 16.566 12.9354 16.751C12.8118 16.936 12.6361 17.0802 12.4305 17.1654C12.2249 17.2505 11.9987 17.2728 11.7805 17.2294C11.5623 17.186 11.3618 17.0788 11.2045 16.9215C11.0472 16.7642 10.94 16.5637 10.8966 16.3455C10.8532 16.1272 10.8755 15.901 10.9606 15.6955C11.0458 15.4899 11.19 15.3142 11.375 15.1906C11.56 15.067 11.7775 15.001 12 15.001C12.2984 15.001 12.5845 15.1195 12.7955 15.3305C13.0065 15.5415 13.125 15.8276 13.125 16.126ZM19.2187 8.51068C17.165 6.8847 14.6223 6 12.0028 6C9.38332 6 6.84061 6.8847 4.78686 8.51068C4.63096 8.63425 4.53054 8.81469 4.50769 9.01231C4.48483 9.20993 4.54141 9.40853 4.66499 9.56443C4.78856 9.72032 4.969 9.82075 5.16662 9.8436C5.36424 9.86646 5.56284 9.80988 5.71874 9.6863C7.50736 8.27052 9.72166 7.50021 12.0028 7.50021C14.2839 7.50021 16.4982 8.27052 18.2869 9.6863C18.364 9.7475 18.4525 9.79289 18.5473 9.81989C18.642 9.84688 18.7411 9.85495 18.839 9.84364C18.9368 9.83232 19.0315 9.80184 19.1176 9.75393C19.2036 9.70602 19.2794 9.64163 19.3406 9.56443C19.4018 9.48724 19.4472 9.39875 19.4742 9.30402C19.5012 9.20928 19.5093 9.11016 19.4979 9.01231C19.4866 8.91446 19.4561 8.81979 19.4082 8.73372C19.3603 8.64765 19.2959 8.57186 19.2187 8.51068ZM16.1944 11.8632C14.9761 10.9778 13.5088 10.5009 12.0028 10.5009C10.4968 10.5009 9.02948 10.9778 7.81124 11.8632C7.65037 11.9803 7.54261 12.1565 7.51166 12.3531C7.48072 12.5496 7.52913 12.7504 7.64624 12.9113C7.76335 13.0722 7.93957 13.1799 8.13613 13.2109C8.33269 13.2418 8.53349 13.1934 8.69436 13.0763C9.65578 12.3771 10.814 12.0005 12.0028 12.0005C13.1916 12.0005 14.3498 12.3771 15.3112 13.0763C15.3909 13.1343 15.4812 13.176 15.577 13.1991C15.6728 13.2222 15.7721 13.2262 15.8695 13.2109C15.9668 13.1956 16.0602 13.1612 16.1442 13.1098C16.2283 13.0584 16.3014 12.991 16.3594 12.9113C16.4173 12.8316 16.4591 12.7414 16.4822 12.6456C16.5053 12.5498 16.5093 12.4504 16.4939 12.3531C16.4786 12.2557 16.4443 12.1624 16.3929 12.0783C16.3415 11.9943 16.274 11.9212 16.1944 11.8632Z"/>
</svg>
