<svg viewBox="0 0 24 24" xmlns="http://www.w3.org/2000/svg" aria-hidden="true" fill="currentColor" height="24px" width="24px"><path d="M21.597 6.336a1.126 1.126 0 0 0-1.805-.405L16.156 9.29l-1.189-.255-.257-1.191 3.355-3.636a1.126 1.126 0 0 0-.405-1.805 7.132 7.132 0 0 0-9.38 9.01l-5.39 4.926-.037.035a3.375 3.375 0 0 0 4.773 4.773l.035-.037 4.926-5.39a7.13 7.13 0 0 0 9.01-9.383m-6.606 7.547a4.8 4.8 0 0 1-2.19-.517 1.125 1.125 0 0 0-1.336.245l-5.445 5.96a1.127 1.127 0 0 1-1.594-1.595l5.958-5.444a1.125 1.125 0 0 0 .246-1.337 4.88 4.88 0 0 1 4.361-7.062h.083l-2.411 2.613a1.12 1.12 0 0 0-.273.998l.53 2.47a1.12 1.12 0 0 0 .864.864l2.47.53a1.13 1.13 0 0 0 .999-.272l2.613-2.41v.083a4.88 4.88 0 0 1-4.875 4.874"/></svg>