<svg viewBox="0 0 24 24" xmlns="http://www.w3.org/2000/svg" aria-hidden="true" fill="currentColor"><path d="m15.416 11.376-4.5-3A.75.75 0 0 0 9.75 9v6a.75.75 0 0 0 1.166.624l4.5-3a.75.75 0 0 0 0-1.248m-4.166 2.222v-3.192L13.648 12zm10.718-7.08A2.25 2.25 0 0 0 20.61 4.98C17.396 3.739 12.281 3.75 12 3.75s-5.396-.011-8.61 1.23a2.25 2.25 0 0 0-1.358 1.537C1.789 7.454 1.5 9.164 1.5 12s.289 4.547.532 5.483A2.25 2.25 0 0 0 3.39 19.02c3.079 1.188 7.897 1.229 8.548 1.229h.124c.65 0 5.472-.041 8.548-1.23a2.25 2.25 0 0 0 1.358-1.537c.243-.938.532-2.646.532-5.483s-.289-4.547-.532-5.482M20.516 17.11a.75.75 0 0 1-.447.515c-2.967 1.146-8.014 1.125-8.062 1.125H12c-.05 0-5.093.019-8.062-1.125a.75.75 0 0 1-.448-.515C3.262 16.255 3 14.678 3 12s.263-4.255.484-5.107a.75.75 0 0 1 .447-.518C6.792 5.27 11.587 5.25 11.979 5.25h.026c.05 0 5.098-.017 8.062 1.125a.75.75 0 0 1 .447.515c.224.855.486 2.432.486 5.11s-.262 4.255-.484 5.107z"/></svg>