<svg viewBox="0 0 24 24" xmlns="http://www.w3.org/2000/svg" aria-hidden="true" fill="currentColor"><path d="M21 4.125H3c-1.034 0-1.875.841-1.875 1.875v12c0 1.035.84 1.875 1.875 1.875h18c1.034 0 1.875-.84 1.875-1.875V6c0-1.034-.841-1.875-1.875-1.875m-.375 13.5H3.375V6.375h17.25z"/><path d="M4.562 16.1a1.125 1.125 0 0 0 1.51-.504l.456-.913h3.215l.457.913a1.124 1.124 0 1 0 2.013-1.006l-3.07-6.14a1.124 1.124 0 0 0-2.012 0l-3.07 6.14a1.125 1.125 0 0 0 .503 1.51zm4.055-3.666h-.965l.483-.966zm5.538 3.738h.768c3.19 0 5.02-1.512 5.02-4.149 0-1.223-.542-2.314-1.523-3.074-.908-.702-2.117-1.074-3.497-1.074h-.768c-.621 0-1.125.504-1.125 1.125v6.047c0 .622.504 1.125 1.125 1.125m1.125-6.033c1.252.093 2.412.687 2.412 1.884 0 .589 0 1.785-2.412 1.892z"/></svg>