<svg viewBox="0 0 24 24" xmlns="http://www.w3.org/2000/svg" aria-hidden="true" fill="currentColor"><path d="M19.5 5.25h-2.398l-1.165-1.749a1.13 1.13 0 0 0-.937-.5H9a1.13 1.13 0 0 0-.938.5l-1.165 1.75H4.5a2.625 2.625 0 0 0-2.625 2.624v10.5A2.625 2.625 0 0 0 4.5 21h15a2.625 2.625 0 0 0 2.625-2.625v-10.5A2.625 2.625 0 0 0 19.5 5.25m.375 13.125a.375.375 0 0 1-.375.375h-15a.375.375 0 0 1-.375-.375v-10.5A.375.375 0 0 1 4.5 7.5h3a1.13 1.13 0 0 0 .937-.5l1.165-1.75h4.795L15.562 7a1.13 1.13 0 0 0 .938.5h3a.375.375 0 0 1 .375.375zM12 8.25a4.5 4.5 0 1 0 0 9 4.5 4.5 0 0 0 0-9M12 15a2.25 2.25 0 1 1 0-4.5 2.25 2.25 0 0 1 0 4.5"/></svg>