<svg viewBox="0 0 24 24" xmlns="http://www.w3.org/2000/svg" aria-hidden="true" fill="currentColor"><path d="M11.5 13.125a1.125 1.125 0 0 1-1.125 1.125H6.25a1.125 1.125 0 1 1 0-2.25h4.125a1.125 1.125 0 0 1 1.125 1.125M10.375 8.25H6.25a1.125 1.125 0 0 0 0 2.25h4.125a1.125 1.125 0 1 0 0-2.25m11.25 7.42v5.705a1.125 1.125 0 0 1-1.683.977l-2.067-1.181-2.062 1.18a1.125 1.125 0 0 1-1.688-.976v-2.25H3.25a1.875 1.875 0 0 1-1.875-1.875v-12A1.875 1.875 0 0 1 3.25 3.375h16.5a1.875 1.875 0 0 1 1.875 1.875v3.08a5.24 5.24 0 0 1 0 7.34m-3.75-.67a3 3 0 1 0 0-5.999 3 3 0 0 0 0 5.999m-3.75 1.875v-1.206a5.25 5.25 0 0 1 5.25-8.7V5.625H3.625v11.25zm5.25 2.561v-2.405a5.24 5.24 0 0 1-3 0v2.405l.942-.538a1.13 1.13 0 0 1 1.116 0z"/></svg>