<svg viewBox="0 0 24 24" xmlns="http://www.w3.org/2000/svg" aria-hidden="true" fill="currentColor"><path d="M19.25 15.375v.75h1.125a1.125 1.125 0 1 1 0 2.25H19.25V19.5a1.125 1.125 0 1 1-2.25 0v-5.25a1.125 1.125 0 0 1 1.125-1.125h3a1.125 1.125 0 1 1 0 2.25zm-10.125.75a3 3 0 0 1-3 3H5.75v.375a1.125 1.125 0 0 1-2.25 0v-5.25a1.125 1.125 0 0 1 1.125-1.125h1.5a3 3 0 0 1 3 3m-2.25 0a.75.75 0 0 0-.75-.75H5.75v1.5h.375a.75.75 0 0 0 .75-.75m9.375.75a3.75 3.75 0 0 1-3.75 3.75H11A1.125 1.125 0 0 1 9.875 19.5v-5.25A1.125 1.125 0 0 1 11 13.125h1.5a3.75 3.75 0 0 1 3.75 3.75m-2.25 0a1.5 1.5 0 0 0-1.5-1.5h-.375v3h.375a1.5 1.5 0 0 0 1.5-1.5m-10.125-6.75V3.75A1.875 1.875 0 0 1 5.75 1.875h9a1.13 1.13 0 0 1 .796.33l5.25 5.25c.21.21.329.497.329.795v1.875a1.125 1.125 0 1 1-2.25 0V9.75h-4.5a1.125 1.125 0 0 1-1.125-1.125v-4.5H6.125v6a1.125 1.125 0 0 1-2.25 0M15.5 5.344V7.5h2.156z"/></svg>