<svg viewBox="0 0 24 24" xmlns="http://www.w3.org/2000/svg" aria-hidden="true" fill="currentColor"><path d="M19.676 7.672A10.8 10.8 0 0 0 12 4.501h-.039C5.986 4.52 1.125 9.447 1.125 15.48v2.144A1.875 1.875 0 0 0 3 19.5h18a1.875 1.875 0 0 0 1.875-1.875v-2.25a10.8 10.8 0 0 0-3.199-7.703m.949 9.578h-8.689l4.354-6.093a1.125 1.125 0 1 0-1.83-1.313L9.17 17.25H3.376v-1.768c0-.162 0-.322.013-.481H5.25a1.125 1.125 0 1 0 0-2.25H3.808c1.023-3.13 3.75-5.487 7.067-5.926v1.8a1.125 1.125 0 0 0 2.25 0v-1.8a8.63 8.63 0 0 1 7.093 5.926H18.75a1.125 1.125 0 0 0 0 2.25h1.866q.008.186.009.375z"/></svg>