<svg viewBox="0 0 24 24" xmlns="http://www.w3.org/2000/svg" aria-hidden="true" fill="currentColor"><path d="M20.625 9.003a8.624 8.624 0 1 0-14.25 6.533v6.967a1.125 1.125 0 0 0 1.628 1.006L12 21.51l3.997 1.998a1.125 1.125 0 0 0 1.628-1.006v-6.967a8.61 8.61 0 0 0 3-6.533m-15 0A6.375 6.375 0 1 1 12 15.378a6.38 6.38 0 0 1-6.375-6.375m9.75 11.68-2.873-1.436a1.13 1.13 0 0 0-1.006 0l-2.871 1.435V16.94a8.62 8.62 0 0 0 6.75 0zM12 13.878a4.875 4.875 0 1 0-4.875-4.875A4.88 4.88 0 0 0 12 13.878m0-7.5a2.625 2.625 0 1 1 0 5.25 2.625 2.625 0 0 1 0-5.25"/></svg>