<svg viewBox="0 0 24 24" xmlns="http://www.w3.org/2000/svg" aria-hidden="true" fill="currentColor"><path d="M18.818 16.229A8.67 8.67 0 0 0 21.75 9.75c0-4.755-3.87-8.625-8.625-8.625-4.756 0-8.47 3.716-8.621 8.341L2.437 13.44q-.019.037-.035.075c-.39.909-.003 1.97.882 2.415l.037.017 1.929.884v2.67c0 1.035.84 1.875 1.875 1.875h4.5a1.125 1.125 0 1 0 0-2.25H7.5v-3.017c0-.44-.257-.84-.656-1.023l-2.202-1.008 1.981-3.807c.084-.16.127-.339.127-.52a6.38 6.38 0 0 1 6.375-6.375A6.38 6.38 0 0 1 19.5 9.75a6.4 6.4 0 0 1-2.55 5.1 1.13 1.13 0 0 0-.442 1.04l.75 6a1.125 1.125 0 0 0 2.233-.28z"/><path d="M14.917 6.471c-.78 0-1.448.425-1.726 1.105-.278-.68-.946-1.105-1.726-1.105-1.03 0-1.865.834-1.865 1.865 0 2.279 3.59 4.213 3.59 4.213s3.591-1.933 3.591-4.213c0-1.03-.834-1.865-1.864-1.865"/></svg>