<svg viewBox="0 0 24 24" xmlns="http://www.w3.org/2000/svg" aria-hidden="true" fill="currentColor"><path d="M22.25 17.625h-2.625v-1.5H21.5a1.13 1.13 0 0 0 1.1-.892 1.1 1.1 0 0 0-.009-.506l-3-12a1.125 1.125 0 0 0-2.182 0l-3 12a1.125 1.125 0 0 0 1.091 1.398h1.875v1.5h-6V16.5a1.125 1.125 0 0 0 0-2.25v-1.125a1.125 1.125 0 0 0 0-2.25H3.5a1.125 1.125 0 1 0 0 2.25v1.125a1.125 1.125 0 1 0 0 2.25v1.125h-.75a1.125 1.125 0 1 0 0 2.25h19.5a1.125 1.125 0 0 0 0-2.25M18.5 7.64l1.56 6.236h-3.12zM5.75 13.125h3.375v1.125H5.75zm0 3.375h3.375v1.125H5.75zm5.625-7.125a3 3 0 1 0 0-6 3 3 0 0 0 0 6m0-3.75a.75.75 0 1 1 0 1.5.75.75 0 0 1 0-1.5"/></svg>