<svg viewBox="0 0 24 24" xmlns="http://www.w3.org/2000/svg" aria-hidden="true" fill="currentColor"><g clip-path="url(#a)"><path d="M22.721 14.197q-.105 0-.203.02v-.788a2.333 2.333 0 0 0-2.33-2.33h-5.629a2.333 2.333 0 0 0-2.33 2.33v.787a1.125 1.125 0 0 0-1.326 1.106v1.205a1.125 1.125 0 0 0 1.326 1.107v3.03q0 .122.024.235a1 1 0 0 0-.024.234v1.206a1.53 1.53 0 0 0 1.527 1.527h1.205a1.53 1.53 0 0 0 1.528-1.527v-.55h1.77v.55a1.53 1.53 0 0 0 1.527 1.527h1.205a1.53 1.53 0 0 0 1.528-1.527v-1.206q0-.12-.025-.234.024-.114.025-.234v-3.032q.099.019.203.02c.622 0 1.125-.504 1.125-1.126v-1.205c0-.622-.504-1.125-1.126-1.125m-2.453 5.343h-5.79v-1.753h5.79zm0-4.003h-5.79V13.43c0-.044.037-.08.081-.08h5.628c.044 0 .08.036.08.08zM8.112 11.022H2.483a2.333 2.333 0 0 0-2.33 2.331v6.433c0 1.005.64 1.864 1.533 2.19l-.103.136a1.125 1.125 0 1 0 1.8 1.35l1.01-1.345H6.2l1.01 1.345a1.124 1.124 0 1 0 1.8-1.35l-.103-.136a2.33 2.33 0 0 0 1.533-2.19v-6.433a2.333 2.333 0 0 0-2.33-2.33zm-5.71 2.331c0-.044.037-.08.081-.08h1.69v2.574h-1.77zm5.79 6.433c0 .044-.036.08-.08.08H2.483a.08.08 0 0 1-.08-.08v-1.69h5.79zm0-3.94h-1.77v-2.574h1.69c.044 0 .08.037.08.081zM3.84 10.198c.342 0 .454.066.725.223.382.222.907.527 1.855.527s1.473-.304 1.855-.527c.271-.158.383-.223.725-.223s.454.066.725.223c.382.222.907.527 1.855.527s1.473-.304 1.855-.527c.271-.158.383-.223.725-.223s.454.066.725.223c.382.222.907.527 1.855.527s1.473-.304 1.855-.527c.271-.158.383-.223.725-.223a1.125 1.125 0 1 0 0-2.25c-.682 0-1.143.158-1.492.33a4 4 0 0 0 .01-.275V6.61c0-.667-.424-1.258-1.059-1.47l-.211-.07v-2.16c0-.855-.696-1.55-1.55-1.55h-2.27v-.148a1.125 1.125 0 1 0-2.25 0v.148h-2.27c-.854 0-1.55.696-1.55 1.55v2.16l-.211.07c-.635.21-1.061.8-1.061 1.47V8q0 .164.015.321c-.359-.187-.84-.374-1.581-.374a1.125 1.125 0 1 0 0 2.25m11.749-3.082V8q0 .119-.02.236a3.3 3.3 0 0 0-1.409-.29c-.628 0-1.074.135-1.413.292v-2.07zM14.317 3.61v.71l-2.13-.71zm-5.39 0h2.129l-2.128.71zM7.656 7.115l2.841-.947V8.28c-.349-.172-.812-.33-1.497-.33-.58 0-1.002.114-1.33.253a1.4 1.4 0 0 1-.014-.2z"/></g><defs><clipPath id="a"><path d="M0 0h24v24H0z"/></clipPath></defs></svg>