<svg viewBox="0 0 24 24" xmlns="http://www.w3.org/2000/svg" aria-hidden="true" fill="currentColor"><path d="M9.449 15.452a1.125 1.125 0 1 0 0-2.25 1.125 1.125 0 0 0 0 2.25m10.077 0a1.125 1.125 0 1 0 0-2.25 1.125 1.125 0 0 0 0 2.25M3.904 8.916h-1.46a.52.52 0 0 0-.37.153l-1.032 1.033a.52.52 0 0 0-.153.368v1.46c0 .139.055.272.153.37l1.033 1.032c.097.098.23.153.368.153h1.46c.139 0 .272-.055.37-.153L5.304 12.3a.52.52 0 0 0 .153-.368v-1.46a.52.52 0 0 0-.153-.37L4.272 9.07a.52.52 0 0 0-.368-.153"/><path d="M23.111 11.592V4.893a3.38 3.38 0 0 0-3.375-3.375h-10.5a3.38 3.38 0 0 0-3.375 3.375v13.304a1 1 0 0 0-.013.16v2.25c0 1.035.841 1.875 1.875 1.875h2.25c1.034 0 1.875-.84 1.875-1.875v-1.125h5.25v1.125c0 1.035.841 1.875 1.875 1.875h2.25c1.034 0 1.875-.84 1.875-1.875V18.52q.012-.079.013-.162zm-15 5.641V12.53l2.814-.568c.154-.031.3-.095.428-.186l.847-.6a.83.83 0 0 1 .48-.154h3.411c.186 0 .368.062.514.177l.695.544c.142.112.309.188.486.22l3.075.578v4.692H8.111zm12.75-10.465v3.484l-2.39-.45-.478-.374a3.1 3.1 0 0 0-1.902-.657h-3.41a3.06 3.06 0 0 0-1.783.569l-.652.462-2.135.431V6.768zm-8.99-2.25-.129-.75h5.567l-.128.75zm8.925 0h-1.332l.129-.75h.143c.489 0 .905.314 1.06.75m-11.56-.75h.224l.129.75H8.178c.154-.436.57-.75 1.058-.75m.362 16.465h-1.5v-.75h1.5zm9.75 0v-.75h1.5v.75z"/><path d="M17.003 11.992h-5.034a1.125 1.125 0 1 0 0 2.25h5.034a1.125 1.125 0 1 0 0-2.25m0 2.494h-5.034a1.125 1.125 0 1 0 0 2.25h5.034a1.125 1.125 0 1 0 0-2.25"/></svg>