<svg viewBox="0 0 24 24" xmlns="http://www.w3.org/2000/svg" aria-hidden="true" fill="currentColor"><path d="M23.024 17.447 14.826 3.209a2.694 2.694 0 0 0-4.652 0L1.976 17.447a2.57 2.57 0 0 0 0 2.598 2.65 2.65 0 0 0 2.326 1.33h16.396a2.655 2.655 0 0 0 2.677-2.629c0-.456-.12-.905-.35-1.3m-1.95 1.472a.42.42 0 0 1-.375.206H4.302a.42.42 0 0 1-.375-.206.33.33 0 0 1 0-.35l8.198-14.238a.447.447 0 0 1 .75 0l8.198 14.238a.33.33 0 0 1 .001.35m-9.699-6.169v-3a1.125 1.125 0 1 1 2.25 0v3a1.125 1.125 0 1 1-2.25 0M14 16.5a1.5 1.5 0 1 1-3 0 1.5 1.5 0 0 1 3 0"/></svg>