<svg version="1.1" id="Layer_1" xmlns="http://www.w3.org/2000/svg" xmlns:xlink="http://www.w3.org/1999/xlink" x="0px" y="0px"
   viewBox="0 0 20 20" style="enable-background:new 0 0 20 20;" xml:space="preserve" aria-hidden="true">
<path d="M20,1.7V20H0V1.7h2.5v0.8C2.6,3.4,3.4,4.1,4.3,4C5.1,4,5.8,3.3,5.8,2.5V1.7h8.3v0.8C14.2,3.4,15,4.1,16,4
  c0.8-0.1,1.5-0.7,1.5-1.5V1.7L20,1.7z M18.3,6.7H1.7v11.7h16.7V6.7z M16.7,2.5c0,0.5-0.4,0.8-0.8,0.8S15,3,15,2.5V0.8
  C15,0.4,15.4,0,15.8,0s0.8,0.4,0.8,0.8V2.5z M5,2.5C5,3,4.6,3.3,4.2,3.3S3.3,3,3.3,2.5V0.8C3.3,0.4,3.7,0,4.2,0S5,0.4,5,0.8V2.5z"/>
</svg>

