<svg
  aria-hidden="true"
  width="18"
  height="16"
  viewBox="0 0 18 16"
  version="1.1"
  xmlns="http://www.w3.org/2000/svg"
>
  <path d="M8.960796,12.0357689 C10.053396,12.0357689 11.145636,12.0375467 12.237876,12.0350578 C12.811356,12.0336356 13.090356,11.6503467 12.915036,11.1049244 C12.806316,10.7667911 12.689676,10.4307911 12.573756,10.0951467 C12.513996,9.92128 12.477996,9.73745778 12.376476,9.57959111 C12.202596,9.30972444 11.873916,9.21088 11.577996,9.33710222 C11.296476,9.45728 11.140236,9.76163556 11.216556,10.0624356 C11.255436,10.2142578 11.310876,10.3621689 11.359476,10.5115022 C11.431116,10.7305244 11.420676,10.7483022 11.194236,10.7490133 C10.661796,10.7507911 10.129716,10.7493689 9.596916,10.7490133 C8.608356,10.7490133 7.619796,10.7454578 6.631236,10.7511467 C6.448356,10.7522133 6.391116,10.70208 6.459156,10.5253689 C6.513156,10.38528 6.555996,10.2398578 6.589116,10.0937244 C6.672996,9.72643556 6.477156,9.39008 6.140916,9.30901333 C5.772996,9.22048 5.454396,9.40679111 5.343876,9.77692444 C5.208516,10.2288356 5.092236,10.6867911 4.934916,11.13088 C4.763556,11.61408 5.107716,12.0450133 5.642316,12.0389689 C6.748236,12.0265244 7.854516,12.0350578 8.960796,12.0357689 L8.960796,12.0357689 Z M8.790156,0.752213333 L8.790156,0.751857778 C6.826716,0.751857778 4.863276,0.754702222 2.899836,0.747229438 C2.698596,0.746524444 2.610396,0.80768 2.548836,0.997546667 C2.109636,2.35648 1.658196,3.71150222 1.209996,5.06794667 C1.127916,5.31719111 1.126476,5.31683556 1.389996,5.31683556 C2.952756,5.31683556 4.515156,5.31968 6.077556,5.31328 C6.272316,5.31221333 6.371676,5.34385778 6.399756,5.56608 C6.445836,5.93159111 6.691356,6.13105778 7.069356,6.13283556 C8.258076,6.13959111 9.447516,6.13959111 10.636596,6.13283556 C10.992996,6.13070222 11.264796,5.91808 11.301876,5.57816889 C11.329596,5.32821333 11.452356,5.31185778 11.652876,5.31292444 C13.174236,5.31825778 14.694876,5.31648 16.215876,5.31683556 C16.493076,5.31683556 16.493436,5.31576889 16.405956,5.05834667 C15.941916,3.69336889 15.474636,2.32910222 15.017076,0.961635556 C14.960556,0.792035556 14.871636,0.748302222 14.701356,0.749013333 C12.730716,0.754346667 10.760796,0.752213333 8.790156,0.752213333 L8.790156,0.752213333 Z M8.840196,15.3385244 C6.406596,15.3385244 3.973356,15.3321244 1.540116,15.3431718 C0.890676,15.3459911 0.418356,15.1077689 0.140076,14.5211022 C0.071316,14.3767467 0.043236,14.2242133 0.043236,14.0642133 C0.044676,11.5792356 0.043956,9.09390222 0.043956,6.60856889 C0.043956,6.42261333 0.080316,6.24199111 0.138276,6.06599111 C0.755676,4.19754667 1.373796,2.32910222 1.992276,0.460657778 C2.106036,0.117191111 2.167956,0.0727466667 2.525076,0.0727466667 C6.707196,0.07248 10.889676,0.07248 15.071796,0.0727466667 C15.396876,0.0727466667 15.469596,0.121102222 15.571476,0.42048 C16.161156,2.15381333 16.750116,3.88785778 17.339076,5.62190222 C17.387676,5.76412444 17.438796,5.90421333 17.513316,6.03683556 C17.612316,6.21319111 17.656956,6.40448 17.656956,6.60679111 C17.656596,9.09888 17.659836,11.5909689 17.655156,14.0834133 C17.653716,14.75648 17.041716,15.3363911 16.347636,15.3367467 C13.844916,15.3385244 11.342556,15.3374578 8.840196,15.3374578 L8.840196,15.3385244 Z"></path>
  <path d="M8.74458,4.68455111 C6.73362,4.68455111 4.7223,4.68455111 2.71134,4.68455111 C2.63538,4.68455111 2.55726,4.69095111 2.48382,4.67744 C2.30346,4.64401778 2.20698,4.52917333 2.20439866,4.34890667 C2.20158,4.16686222 2.30022,4.05486222 2.47698,4.01397333 C2.5299,4.00152889 2.58714,4.00615111 2.64222,4.00615111 C6.71958,4.00579556 10.79766,4.00579556 14.87502,4.00579556 C14.9301,4.00579556 14.98662,4.00152889 15.04062,4.01148444 C15.21846,4.04384 15.32286,4.14766222 15.33114,4.33077333 C15.33906,4.50926222 15.22386,4.65255111 15.0471,4.67744 C14.96574,4.68917333 14.8815,4.68561778 14.7987,4.68561778 C12.78054,4.68597333 10.76274,4.68561778 8.74458,4.68561778 L8.74458,4.68455111 Z"></path>
  <path d="M8.745984,3.37429333 C6.810984,3.37429333 4.875624,3.37322667 2.940624,3.37536171 C2.754864,3.37571556 2.609784,3.32060444 2.550384,3.13856 C2.501784,2.98922667 2.542104,2.85553778 2.673144,2.75598222 C2.762784,2.68771556 2.867544,2.69447111 2.971224,2.69447111 C5.141304,2.69447111 7.311744,2.69411556 9.481824,2.69411556 C11.182104,2.69411556 12.882384,2.69376 14.582304,2.69518222 C14.829984,2.69518222 14.971104,2.79438222 14.997384,2.97713778 C15.030144,3.20576 14.876784,3.37038222 14.613624,3.37216 C13.984704,3.37607111 13.355784,3.37429333 12.726864,3.37429333 C11.400264,3.37429333 10.072944,3.37429333 8.745984,3.37429333"></path>
  <path d="M8.746164,1.38229333 C10.494684,1.38229333 12.243564,1.38229333 13.992084,1.38229333 C14.054004,1.38229333 14.116644,1.38051556 14.178564,1.38584889 C14.372964,1.40327111 14.500764,1.53589333 14.502959,1.71793778 C14.505444,1.90816 14.371524,2.05429333 14.167764,2.06033778 C13.877604,2.06851556 13.587084,2.06353778 13.297284,2.06353778 C10.028124,2.06353778 6.758604,2.06247111 3.489804,2.06424889 C3.305484,2.06424889 3.140604,2.04433778 3.057444,1.85624889 C2.950884,1.61304889 3.121884,1.38584889 3.417444,1.38478222 C4.191804,1.38158222 4.965804,1.38229333 5.739804,1.38229333 C6.742044,1.38229333 7.743924,1.38229333 8.746164,1.38229333"></path>
</svg>
