<svg
  aria-hidden="true"
  width="15"
  height="18"
  viewBox="0 0 15 18"
  version="1.1"
  xmlns="http://www.w3.org/2000/svg"
>
  <g id="search-icon/data" transform="translate(-903.000000, -51.000000)">
    <g id="icon/data" transform="translate(903.000000, 51.000000)">
      <g id="Group-3" transform="translate(0.000000, 8.460300)">
        <g id="Clip-2"></g>
        <path d="M8.28192,1.76073 C8.02122,1.76883 7.76022,1.77303 7.50012,1.77303 C7.23912,1.77303 6.97722,1.76883 6.71592,1.76073 C4.51332,1.70043 2.75832,1.38933 1.49472,0.94563 C0.90102,0.74553 0.39282,0.50943 0.00012,0.23973 L0.00012,3.05973 C0.85392,3.95103 3.71832,4.77333 7.50012,4.77333 C11.28192,4.77333 14.14632,3.95103 15.00012,3.05973 L15.00012,0.23973 C14.60442,0.51153 14.09142,0.74883 13.49232,0.95013 C12.22932,1.39143 10.47792,1.70073 8.28192,1.76073"></path>
      </g>
      <path d="M0,4.7667 L0,7.5867 C0.7914,8.4129 3.3099,9.1794 6.6858,9.2871 C6.7206,9.2883 6.756,9.2889 6.7908,9.2898 C6.8883,9.2925 6.9861,9.2952 7.0851,9.2967 C7.2222,9.2988 7.3605,9.3 7.5,9.3 C7.6395,9.3 7.7778,9.2988 7.9149,9.2967 C8.0139,9.2952 8.1117,9.2925 8.2092,9.2898 C8.244,9.2889 8.2794,9.2883 8.3142,9.2871 C11.6901,9.1794 14.2086,8.4129 15,7.5867 L15,4.7667 C13.5399,5.7699 10.4532,6.3 7.5,6.3 C4.5468,6.3 1.4601,5.7699 0,4.7667"></path>
      <path d="M14.95956,2.80224 C14.62296,1.51194 12.03456,0.23964 7.50006,0.23964 C2.97696,0.23964 0.39126,1.50564 0.04386,2.79264 C0.01866,2.83674 6e-05,2.88504 6e-05,2.93964 L6e-05,3.63144 C0.85086,4.51974 3.69486,5.33964 7.50006,5.33964 C11.30496,5.33964 14.14926,4.51974 15.00006,3.63144 L15.00006,2.93964 C15.00006,2.88924 14.98326,2.84394 14.95956,2.80224"></path>
      <path d="M0,12.59994 L0,15.06024 C0,15.10884 0.0129,15.15504 0.0351,15.19554 C0.3894,16.66404 3.5592,17.76024 7.5,17.76024 C11.4318,17.76024 14.5965,16.66884 14.9625,15.20574 C14.9865,15.16254 15,15.11304 15,15.06024 L15,12.60054 C13.7595,13.47354 11.2035,14.16024 7.5,14.16024 C3.7962,14.16024 1.2402,13.47324 0,12.59994"></path>
    </g>
  </g>
</svg>
