<?xml version="1.0" encoding="UTF-8"?>
<svg width="13px" height="16px" viewBox="0 0 13 16" version="1.1" xmlns="http://www.w3.org/2000/svg" xmlns:xlink="http://www.w3.org/1999/xlink">
    <!-- Generator: Sketch 55.2 (78181) - https://sketchapp.com -->
    <title>icon/copy</title>
    <desc>Created with Sketch.</desc>
    <defs>
        <polygon id="path-1" points="0 0.0165290323 12.9379347 0.0165290323 12.9379347 16 0 16"></polygon>
    </defs>
    <g id="Data-Tab-wireframes" stroke="none" stroke-width="1" fill="none" fill-rule="evenodd">
        <g id="search-data-teasers-drafts" transform="translate(-1160.000000, -2750.000000)">
            <g id="Group-6" transform="translate(929.000000, 2657.000000)">
                <g id="icon/copy" transform="translate(231.000000, 93.000000)">
                    <g id="Group-12-Copy">
                        <g id="Group-3">
                            <mask id="mask-2" fill="white">
                                <use xlink:href="#path-1"></use>
                            </mask>
                            <g id="Clip-2"></g>
                            <path d="M11.9725881,12.3868516 C11.9725881,12.4742065 11.8989,12.5481419 11.811697,12.5481419 L10.7516822,12.5481419 L10.7516822,3.62975484 C10.7516822,3.00717419 10.2464842,2.50072258 9.62544455,2.50072258 L3.15157327,2.50072258 L3.15157327,1.14556129 C3.15157327,1.05814194 3.22513267,0.984270968 3.31246436,0.984270968 L11.811697,0.984270968 C11.8989,0.984270968 11.9725881,1.05814194 11.9725881,1.14556129 L11.9725881,12.3868516 Z M9.78633564,14.8709806 C9.78633564,14.9583355 9.71271188,15.032271 9.62544455,15.032271 L1.12621188,15.032271 C1.03900891,15.032271 0.965320792,14.9583355 0.965320792,14.8709806 L0.965320792,3.62975484 C0.965320792,3.54227097 1.03900891,3.46846452 1.12621188,3.46846452 L9.62544455,3.46846452 C9.71271188,3.46846452 9.78633564,3.54227097 9.78633564,3.62975484 L9.78633564,14.8709806 Z M11.811697,0.0165290323 L3.31246436,0.0165290323 C2.69142475,0.0165290323 2.18622673,0.523045161 2.18622673,1.14556129 L2.18622673,2.50072258 L1.12621188,2.50072258 C0.505236634,2.50072258 -2.57425743e-05,3.00717419 -2.57425743e-05,3.62975484 L-2.57425743e-05,14.8709806 C-2.57425743e-05,15.4934323 0.505236634,16.0000129 1.12621188,16.0000129 L9.62544455,16.0000129 C10.2464842,16.0000129 10.7516822,15.4934323 10.7516822,14.8709806 L10.7516822,13.5158839 L11.811697,13.5158839 C12.4326723,13.5158839 12.9379347,13.0093032 12.9379347,12.3868516 L12.9379347,1.14556129 C12.9379347,0.523045161 12.4327366,0.0165290323 11.811697,0.0165290323 L11.811697,0.0165290323 Z" id="Fill-1" fill="#000002" mask="url(#mask-2)"></path>
                        </g>
                        <path d="M8.45161799,4.8 L2.92338201,4.8 C2.65498079,4.8 2.4375,4.97904 2.4375,5.2 C2.4375,5.42096 2.65498079,5.6 2.92338201,5.6 L8.45161799,5.6 C8.720084,5.6 8.9375,5.42096 8.9375,5.2 C8.9375,4.97909333 8.720084,4.8 8.45161799,4.8" id="Fill-4" fill="#000002"></path>
                        <path d="M8.45161799,7.2 L2.92338201,7.2 C2.65498079,7.2 2.4375,7.37904 2.4375,7.6 C2.4375,7.82096 2.65498079,8 2.92338201,8 L8.45161799,8 C8.720084,8 8.9375,7.82096 8.9375,7.6 C8.9375,7.37904 8.720084,7.2 8.45161799,7.2" id="Fill-6" fill="#000002"></path>
                        <path d="M8.45161799,9.6 L2.92338201,9.6 C2.65498079,9.6 2.4375,9.77904 2.4375,10 C2.4375,10.2210133 2.65498079,10.4 2.92338201,10.4 L8.45161799,10.4 C8.720084,10.4 8.9375,10.2210133 8.9375,10 C8.9375,9.77904 8.720084,9.6 8.45161799,9.6" id="Fill-8" fill="#000002"></path>
                        <path d="M8.45161799,12 L2.92338201,12 C2.65498079,12 2.4375,12.1789867 2.4375,12.4 C2.4375,12.62096 2.65498079,12.8 2.92338201,12.8 L8.45161799,12.8 C8.720084,12.8 8.9375,12.62096 8.9375,12.4 C8.9375,12.17904 8.720084,12 8.45161799,12" id="Fill-10" fill="#000002"></path>
                    </g>
                </g>
            </g>
        </g>
    </g>
</svg>