<svg
  aria-hidden="true"
  width="18"
  height="17"
  viewBox="0 0 18 17"
  version="1.1"
  xmlns="http://www.w3.org/2000/svg"
>
  <g id="data-icon/map" stroke="none" stroke-width="1">
    <g id="search-icon/map" transform="translate(-902.000000, -166.000000)">
      <g id="icon/map" transform="translate(902.000000, 166.000000)">
        <g id="Group-8" transform="translate(0.000000, 0.000000)">
          <path d="M6.21850909,0.982210909 C6.1452,0.982210909 6.07352727,1.00675636 6.01494545,1.05290182 C5.93672727,1.11475636 5.89090909,1.20933818 5.89090909,1.30948364 L5.89090909,15.3822109 C5.89090909,15.5412655 6.0048,15.6770836 6.16123636,15.7045745 L11.7248727,16.6863927 C11.7438545,16.6896655 11.7628364,16.6913018 11.7818182,16.6913018 C11.8580727,16.6913018 11.9326909,16.6644655 11.9922545,16.61472 C12.0662182,16.5525382 12.1090909,16.4609018 12.1090909,16.3640291 L12.1090909,2.61857455 C12.1090909,2.46672 12.0046909,2.33482909 11.8567636,2.30013818 L6.29312727,0.99072 C6.26858182,0.985156364 6.24338182,0.982210909 6.21850909,0.982210909 M6.54545455,1.72282909 L11.4545455,2.87777455 L11.4545455,15.97392 L6.54545455,15.1076291 L6.54545455,1.72282909"></path>
          <g id="Group-5" transform="translate(11.454545, 0.000393)">
            <g id="Clip-4"></g>
            <path d="M6.40963636,0.389127273 C6.32389091,0.327272727 6.21425455,0.309927273 6.11476364,0.344290909 L0.223854545,2.30792727 C0.09,2.35243636 0,2.47712727 0,2.61818182 L0,16.3636364 C0,16.4716364 0.0533454545,16.5727636 0.142690909,16.6336364 C0.197672727,16.6712727 0.262145455,16.6909091 0.327272727,16.6909091 C0.367527273,16.6909091 0.407454545,16.6837091 0.445745455,16.6686545 L6.33665455,14.3777455 C6.46265455,14.3286545 6.54545455,14.2075636 6.54545455,14.0727273 L6.54545455,0.654545455 C6.54545455,0.549490909 6.49505455,0.450654545 6.40963636,0.389127273"></path>
          </g>
            <path d="M6.14722909,0.990032727 L0.25632,2.29912364 C0.106756364,2.33250545 6.54545455e-05,2.46505091 6.54545455e-05,2.61854182 L6.54545455e-05,16.6912691 C6.54545455e-05,16.79076 0.0452290909,16.88436 0.122465455,16.9465418 C0.181047273,16.9936691 0.253374545,17.0185418 0.327338182,17.0185418 C0.350901818,17.0185418 0.374792727,17.0159236 0.398356364,17.0110145 L6.28926545,15.7019236 C6.43882909,15.6682145 6.54552,15.5356691 6.54552,15.3821782 L6.54552,1.30945091 C6.54552,1.20996 6.50035636,1.11636 6.42312,1.05417818 C6.34588364,0.991996364 6.24442909,0.969087273 6.14722909,0.990032727"></path>
        </g>
      </g>
    </g>
  </g>
</svg>
