<svg height="100%" style="fill-rule:evenodd;clip-rule:evenodd;stroke-linejoin:round;stroke-miterlimit:2;" version="1.1" viewBox="0 0 512 512" width="100%" xml:space="preserve" xmlns="http://www.w3.org/2000/svg" xmlns:serif="http://www.serif.com/" xmlns:xlink="http://www.w3.org/1999/xlink"><g><g><path d="M107.57,323.544c0,29.603 -24.182,53.785 -53.785,53.785c-29.602,0 -53.785,-24.182 -53.785,-53.785c0,-29.602 24.183,-53.785 53.785,-53.785l53.785,0l0,53.785Z" style="fill-rule:nonzero;"/><path d="M134.671,323.544c0,-29.602 24.183,-53.785 53.785,-53.785c29.603,0 53.785,24.183 53.785,53.785l0,134.671c0,29.603 -24.182,53.785 -53.785,53.785c-29.602,0 -53.785,-24.182 -53.785,-53.785l0,-134.671Z" style="fill-rule:nonzero;"/></g><g><path d="M188.456,107.57c-29.602,0 -53.785,-24.182 -53.785,-53.785c0,-29.602 24.183,-53.785 53.785,-53.785c29.603,0 53.785,24.183 53.785,53.785l0,53.785l-53.785,0Z" style="fill-rule:nonzero;"/><path d="M188.456,134.671c29.603,0 53.785,24.183 53.785,53.785c0,29.603 -24.182,53.785 -53.785,53.785l-134.671,0c-29.602,0 -53.785,-24.182 -53.785,-53.785c0,-29.602 24.183,-53.785 53.785,-53.785l134.671,0Z" style="fill-rule:nonzero;"/></g><g><path d="M404.43,188.456c0,-29.602 24.183,-53.785 53.785,-53.785c29.603,0 53.785,24.183 53.785,53.785c0,29.603 -24.182,53.785 -53.785,53.785l-53.785,0l0,-53.785Z" style="fill-rule:nonzero;"/><path d="M377.329,188.456c0,29.603 -24.182,53.785 -53.785,53.785c-29.602,0 -53.785,-24.182 -53.785,-53.785l0,-134.671c0,-29.602 24.183,-53.785 53.785,-53.785c29.603,0 53.785,24.183 53.785,53.785l0,134.671Z" style="fill-rule:nonzero;"/></g><g><path d="M323.544,404.43c29.603,0 53.785,24.183 53.785,53.785c0,29.603 -24.182,53.785 -53.785,53.785c-29.602,0 -53.785,-24.182 -53.785,-53.785l0,-53.785l53.785,0Z" style="fill-rule:nonzero;"/><path d="M323.544,377.329c-29.602,0 -53.785,-24.182 -53.785,-53.785c0,-29.602 24.183,-53.785 53.785,-53.785l134.671,0c29.603,0 53.785,24.183 53.785,53.785c0,29.603 -24.182,53.785 -53.785,53.785l-134.671,0Z" style="fill-rule:nonzero;"/></g></g></svg>