<svg version="1.1" id="Layer_1" xmlns="http://www.w3.org/2000/svg" x="0" y="0" viewBox="0 0 339 341" xml:space="preserve"><style>.st2,.st3,.st5,.st7{fill:#00649b;stroke:#fff;stroke-width:.5;stroke-miterlimit:3.8637}.st3,.st5,.st7{stroke:#00649b}.st5,.st7{fill:#fdb827;stroke-width:.25}.st7{fill:#00649b;stroke-width:.15}.st10,.st9{fill:#00649b}.st10,.st11{fill-rule:evenodd;clip-rule:evenodd}.st11,.st12,.st13{fill:#fdb827}.st13{stroke:#fdb827;stroke-width:.5;stroke-miterlimit:3.8637}.st14{fill:#fff}</style><path d="M11.3 169.5c0-86.6 70.4-157 157-157s157 70.4 157 157-70.4 157-157 157-157-70.4-157-157h0z" fill="none" stroke="#fdb827" stroke-width="2" stroke-miterlimit="3.864"/><path d="M85.2 124.9c-.9-.5 12 .4 12.8 1.5.7 1 7.4 10.3 2.5 36.7-2 6.6-2.4 20.3-2 25.8.5 5.5 3 16.7 9.3 23.6.5.5-7.6 4.1-12 2.2-.2-.1-8.2-5.2-8.9-29.7-.3-12.1 2.7-30.7 2.7-38.3 0-5.2 2.2-18.3-4.4-21.8h0z" fill="#00649b" stroke="#00649b" stroke-width=".05" stroke-miterlimit="3.864"/><path class="st2" d="M107.9 212.5s-1-.6-2.5-3.6c-1.5-2.9 4.5-.6 4.5-.6l-2 4.2z"/><path class="st3" d="M108.7 219.7c.1.4-10.3 3.9-9.9 5.7 9.4 48.5 59.9 55.4 59.4 53.5-.8-3.7.8-8.3.8-8.3 4.9-.5 4.5-1.7 4.5-1.7.3-1.3-2.1-1.5-2.4-1.5-46.1-6.2-52.5-48.1-52.4-47.7z"/><path class="st2" d="M110.4 225.4s-3.1-5.1-.9-6c2.2-.9 4.2 4.2 4.4 4.6.3.4-3.5 1.4-3.5 1.4z"/><path class="st2" d="M110 208.6s8.2 7.1 4.3 15.3c-.1.3-2.9-7.2-6.3-4-.2.2-4.2 1.4-4.8 1.9-.2.2.1-4-1.6-6.2-.4-.5 5.3-1.6 6-2.7 1.1-1.7 2.4-4.3 2.4-4.3z"/><path d="M176 282.2c-1.8 2.1-15.6 1.7-16.2-.5-1.5-5 0-10 0-10-2.1 2.2 15 3.6 17.2.4.5 2.8 1 7.8-1 10.1h0z" fill-rule="evenodd" clip-rule="evenodd" fill="#00649b" stroke="#fff" stroke-width=".5" stroke-miterlimit="3.864"/><path class="st3" d="M163.5 271c.2-.2.2 2.1.2 2.1-.9-.4-4.5-.9-3.8-1.2.7-.3 3-.1 3.6-.9zM178.3 278.8c0-1.9.2-6-.6-7.9-.4-.8-3.1-.1-4.5-1.9-.8-.6 1.2-1.6 1.8-1.6 48.5-.3 54.9-51.8 58-60.9.7-2.1 3.9-5.8 6.9-4.1 1.1.6 7.9 1.8 7.9 1.8s-2.4 2.7-3.6 5.1c-5.7 11.2-9.4 64.2-65.9 69.5z"/><path class="st2" d="M240 202s2.5-1.9 2.3-7.2c-.8-18-13.5-56.5-.3-70.5.4-.4 14-.2 14-.2s-16.8 8.7-2 65c2.7 10.3-6.6 28.6-9.2 24.8-1.3-1.8 6.2-8 2.8-9.5-3-1.3-7.6-2.4-7.6-2.4z"/><path class="st2" d="M248.3 146.3c0-4.9 1.5-22.5 8.2-22.2 5.4.2 2.3 10 2.3 10.2 0 .2-7.3 10.4-3.6 13 .6.4-6.9-1-6.9-1z"/><path class="st2" d="M255 147s-2.9-2.4.4-7.3c.1-.1 5.7-3 5.7-2.3-.5 5.6-6.1 9.6-6.1 9.6zM244.8 213.8c-.1.8-1.8-.3-1.8-.3s3-9.9 4.9-9.1c2.1.7-2.8 6.8-3.1 9.4z"/><path class="st3" d="M173.3 271c-.2-.2-.2 2.1-.2 2.1.9-.4 4.5-.9 3.8-1.2-.7-.3-3-.2-3.6-.9z"/><path class="st5" d="M157.1 63.8c-.6-1.4 1-1.8 1-1.8-.2-1.4 1.1-1.5 1.1-1.5s2.1 2.7 6.4 6.2c.2.9-1.5 1.3-1.5 1.3-.8 1.3-2.2.7-2.2.7l-4.8-4.9z"/><path d="M159.1 60.6c1.5 1.3-2.8 2-1.8 3.2 1.4 1.4 2-3.4 3-2 1.5 1.3-3 2.3-1.9 3.3 1.7 1.9 2-3.1 3.5-1.6 1.2 1-2.9 2.2-2 3.1 1.4 1.3 2.5-2.8 3.7-1.5 1.6 1.4-3.5 1.8-2.2 3.1 1.5 1.7 2.2-3.4 4.3-1.3" fill="none" stroke="#00649b" stroke-width=".25" stroke-miterlimit="3.864"/><path class="st5" d="M167.7 90l-1.5-.4s-1.2-.4-.1-1.9c.4-2.3 1.3-4.6-.4-7.6 0 0 1.5 1.2 2.3 1.7 1.1.6 2.7.8 3.8 1.5 1.1.7 1.2 1.7 1.9 2.8.3.5 1 1 1.1 1.6.1.6-.1 1.6-.1 1.9-3.7-1.1-7 .4-7 .4zM173.4 61.3C191.5 75 205.2 90.6 206 97.4c-1.2-2.5-23.6-25.6-34.7-33.5l2.1-2.6zM155.3 93.6c-.6.4-1.4.7-2 .9-2.1.9-5.5 1.4-8.1-.2-1.5-.9-1.5-3.1 0-4.1 1.2-.8 3.7-1.3 5.8-.2l4.3 3.6c.1-.1.2-.2 0 0z"/><path class="st7" d="M155.4 93.5c-1-.8-4.3-3.5-4.3-3.5.7-.4 2.5-.7 3.4-.8 1.5-.2 3.8.4 4.9.8 1.5 1.2 4.4 3.4 4.4 3.4-.3.2-.8.4-1.1.6-1 .5-2.5 1.4-4.3.8-1.5-.4-2.5-1-3-1.3z"/><path class="st5" d="M163.6 93.4c-1-.8-4.3-3.5-4.3-3.5.7-.4 2.5-.7 3.4-.8 1.5-.2 3.8.4 4.9.8 1.5 1.2 4.4 3.4 4.4 3.4-.3.2-.8.4-1.1.6-1 .5-2.5 1.4-4.3.8-1.4-.3-2.4-.9-3-1.3z"/><path class="st7" d="M171.9 93.4c-1-.8-4.3-3.5-4.3-3.5.7-.4 2.5-.7 3.4-.8 1.5-.2 3.8.4 4.9.8 1.5 1.2 4.4 3.4 4.4 3.4-.3.2-.8.4-1.1.6-1 .5-2.5 1.4-4.3.8-1.4-.3-2.4-1-3-1.3z"/><path class="st5" d="M180.5 93.5c-1-.8-4.3-3.5-4.3-3.5.7-.4 2.5-.7 3.4-.8 1.5-.2 3.8.4 4.8.8 1.5 1.2 4.4 3.4 4.4 3.4-.3.2-.8.4-1.1.6-1 .5-2.5 1.4-4.3.8-1.3-.3-2.3-1-2.9-1.3z"/><path class="st7" d="M184.8 90.3c.6-.4.7-.3 1.3-.6 2.1-.9 6.8-.9 8.6.2 1.5.9 1.4 3 .1 4.1-1.5 1.3-3.6 1.1-5.9-.5l-4.1-3.2s-.2.1 0 0z"/><path d="M4.5 169.5c0-90.5 73.5-164 164-164s164 73.5 164 164-73.5 164-164 164-164-73.5-164-164h0z" fill="none" stroke="#00649b" stroke-width="5" stroke-miterlimit="3.864"/><path class="st9" d="M226.6 46.6c1.4-3.2-1-5.9-2.3-7.3-1.9-1.9-3.2-3.3-2.4-5.4.5-1.1 1.9-2.4 4.3-1.4s2.2 2.8 2.1 4.1c-.1 1 0 1.2.2 1.3.4.2.5-.1.8-.7 1.1-2.5 1.2-2.8.9-3.1-.3-.4-1.8-1.5-3.5-2.2-3.6-1.5-6.6-.1-7.7 2.5-1.3 3 .5 5.1 2.4 7.1 1.7 1.8 3.1 3.7 2.2 5.9-1 2.3-3.5 2.2-4.7 1.7-2-.9-3.2-3.5-2.7-6.2.1-.3.1-.5-.2-.7-.3-.1-.5.2-.6.4-.5 1-1.1 2.4-1.2 2.5-.3.7-.4 1.1-.2 1.5.4.6 1.8 2.1 4.1 3.1 3.7 1.8 7.2.1 8.5-3.1zM241.1 42.6c.6-1.1.9-1.8 2.4-1.2.6.3 1 .5 1.2.1.2-.4-.1-.6-.4-.7-.4-.2-1.3-.6-3.3-1.6-1.7-.9-2.6-1.5-3.2-1.8-.2-.1-.6-.3-.8.1-.2.4.2.6.7 1 1.3.8.9 1.5.3 2.7l-6 11.5c-.6 1.1-1 1.8-2.4 1.2-.6-.3-1-.5-1.2-.1-.2.4.1.6.4.7.3.1 1.7.8 3.3 1.6 1.8 1 2.7 1.5 3.2 1.9.2.1.6.3.8-.1.2-.4-.2-.6-.7-1-1.3-.8-.9-1.5-.3-2.7l6-11.6zM253.8 66c-1.5 2.1-2.4 2.6-4.7.9-3.7-2.8-3.4-8-.7-11.6 2.5-3.3 7.8-5.9 11.6-3 2.7 2.1 2.4 4.5 2.2 5.6-.1.5-.1.8.2 1 .1.1.4.1.6-.2.2-.2 1.4-2.4 1.4-2.9 0-.3-1.1-2-3.4-3.7-6.6-5-12.9-2.9-15.7.8-1.8 2.4-4.2 9 2.7 14.2.6.5 3 2.3 6.2 2.7 1 .2 1.1.1 1.9-1 1.1-1.4 1.6-2.3 1.8-2.6l.2-.2c.8-1.1 1.2-1.4 2.4-.6.7.5 1 .6 1.2.3.2-.3-.1-.5-.2-.6-.4-.3-2.8-2-3.2-2.3-1.7-1.2-2.3-1.9-2.7-2.2-1-.7-1.1-.8-1.4-.5-.2.2-.1.5.7 1.1 1.1.8 1.4 1.4.4 2.7l-1.5 2.1zM274.3 68.2c.9-.9 1.4-1.4 2.6-.4.5.4.8.7 1.1.4.3-.3 0-.6-.1-.8-.3-.3-1.1-.9-2.7-2.5-1.3-1.3-2-2.2-2.5-2.7-.2-.2-.5-.5-.8-.2-.3.3 0 .7.4 1.2 1 1.2.4 1.8-.5 2.7l-9.2 9.2c-.9.9-1.5 1.5-2.7.5-.5-.4-.8-.7-1.1-.4-.3.3 0 .6.1.8.2.2 1.4 1.2 2.7 2.5 1.4 1.4 2.1 2.3 2.5 2.7.2.2.5.5.8.2.3-.3 0-.7-.4-1.2-1-1.2-.4-1.8.5-2.7l9.3-9.3zM271.6 84.7c-1 .8-1.7 1.3-2.7.1-.4-.5-.7-.8-1.1-.5-.3.3-.1.6 0 .8.2.2.3.2 3.5 4.3 4.3 5.5 4.2 5.6 4.4 5.8.3.4.6.5 1.1.2.4-.3 2.9-1.7 3.1-1.8.2-.2.3-.4.1-.6-.1-.1-.3-.2-.6-.1-3.5.6-5.1-1-6-2.1-1.2-1.5-.7-2.6.8-3.8l9.7-7.6c.9-.7 1.6-1.2 2.7 0 .4.5.7.8 1.1.5.3-.3.1-.6-.1-.8-.4-.5-1.1-1.2-2.3-2.8-1-1.3-1.9-2.6-2.2-3.1-.2-.2-.4-.5-.7-.2-.4.3-.1.6.3 1.2.9 1.3.2 1.8-.8 2.6l-10.3 7.9zM282.6 99.7c-1.1.7-1.9 1.1-2.7-.3-.4-.5-.6-.9-1-.7-.4.2-.2.6-.1.8.2.3.3.2 2.9 4.7 3.5 6.1 3.4 6.1 3.5 6.4.3.5.5.5 1 .3s3.1-1.3 3.3-1.4c.2-.1.4-.3.2-.6-.1-.2-.3-.2-.5-.2-3.5.1-4.9-1.7-5.6-2.9-1-1.7-.3-2.7 1.4-3.7l10.7-6.2c1-.6 1.8-1 2.6.4.3.5.6.9 1 .7.4-.2.2-.6.1-.8-.3-.5-.9-1.4-1.9-3.1-.8-1.4-1.5-2.9-1.8-3.3-.1-.2-.3-.6-.7-.3-.4.2-.2.6.1 1.2.7 1.4 0 1.8-1.1 2.5l-11.4 6.5zM298.9 127.5c-1.7.7-4.9 1.6-6.8-3-2-4.9 1.5-6.3 3.5-7.1l9-3.6c1.1-.5 1.9-.8 2.6.7.3.6.5 1 .9.8.4-.2.3-.5.2-.7-.1-.2-.7-1.4-1.5-3.4s-1.1-3.1-1.3-3.4c-.1-.2-.2-.6-.6-.4-.4.2-.3.6-.1 1.2.5 1.5-.3 1.8-1.5 2.3l-9.3 3.8c-4.8 2-4.4 6-2.8 9.9 2.6 6.4 6.7 4.8 8.3 4.1l9-3.6c2.4-1 2.7-.7 3.3.6.2.4.4.9.8.7.1 0 .4-.2.2-.7-.2-.4-.8-1.6-1.2-2.7-.5-1.3-.7-2-.9-2.5-.1-.3-.3-.7-.6-.5-.4.2-.3.5-.1 1.1.5 1.6.3 2-2.1 2.9l-9 3.5zM315.3 151.5l-13.1 2.6c-1.4.3-2.2.4-2.6-1-.2-.9-.3-1.2-.7-1.1-.4.1-.3.4-.3.6.1.6.5 2.2.8 3.8.2 1.1.4 2.8.4 3.2.1.3.1.8.6.7.3-.1.4-.4.3-1-.2-1.3.2-1.5 2.1-1.8l12.9-2.7c1.6-.3 2-.4 2.4 1.1.2.8.3 1.1.7 1 .4-.1.3-.5.3-.8-.1-.3-.3-1.1-.4-1.8-.1-.7-.2-1.9-.3-2.6-.1-.5-.2-.8-1.3-1l-13.2-2.7 11.8-7.4c.7-.4.6-.7.6-1-.1-.4-.3-1-.5-2.1-.1-.8-.3-2.5-.4-2.9-.1-.5-.3-.6-.5-.6-.3.1-.5.3-.3 1.3.2 1.4.2 1.4-1.3 1.7-4 .7-13.1 1.7-13.4 1.7-2.1.3-2.4-.1-2.7-1.1-.3-.8-.4-1.1-.8-1.1-.3.1-.3.4-.3.6.1.5.4 1.7.6 2.7.2 1.3.3 2.3.4 2.8.1.3.2.9.6.8.4-.1.4-.6.2-1.3-.2-1.5-.1-1.8 4.7-2.7 3.1-.6 6.7-1 10.1-1.3v.1l-13.6 8.6c-.5.3-.7.5-.6.8.1.3.4.4 1.1.6l15.7 3.3z"/><path class="st10" d="M301.8 189.5c-1.3-.2-2.1-.4-1.9-1.9.1-.6.1-1.1-.3-1.2-.5-.1-.5.3-.5.6-.1.5-.4 3-.5 3.6 0 .1-.7 3.1-.8 3.6 0 .2-.1.6.3.7.5.1.6-.3.7-1 .4-1.5 1.2-1.4 2.5-1.1l5.5 1c.5.1.7.2.6.7-.2 1.4-.4 1.5-1.8 1.9l-7.6 2.5c-.7.2-1 .3-1.1.8 0 .3-.1 1.4-.2 1.7-.1.5-.6 2.4-.6 2.8 0 .2-.1.5.3.6.4.1.5-.2.8-1.2.3-.8 1.1-1.1 2.3-1.5l5.8-2c1.4-.5 1.7-.8 2-1.2 0 1.1.2 4.3 3.8 5 1.1.2 4.9.4 5.8-5 .2-.9.8-5 .9-5.8.1-.4.5-1.8.5-2.1.2-1 .2-1.1-.2-1.2-.4-.1-.5.3-.7 1-.4 1.5-1.2 1.3-2.4 1.1l-13.2-2.4zm12.7 5.6c1.2.2 1.9.4 1.7 1.8-.7 3.8-4 3.6-5.1 3.4-3.8-.7-3.3-3.7-3.1-4.8.3-1.5.3-1.5 1.4-1.3l5.1.9z"/><path class="st9" d="M297 211.3c-1.2-.4-2-.7-1.5-2.2.2-.6.3-1.1-.1-1.2-.4-.2-.6.2-.7.5-.1.2-.1.4-.3.9-.1.5-.4 1.2-.8 2.4l-.1.3c-.1.2-.6 1.5-1.2 3.2-.6 1.7-1.4 3.7-2 5.2-.3.8-.1 1.3.5 1.5 1 .5 2.8 1.5 3.2 1.6.2.1.5.1.6-.2.1-.3 0-.4-.8-1.3-2-2.2-1.4-4-.9-5.3.9-2.4 1.4-2.9 3.5-2.2l5 1.8c.9.3.8.6.3 1.9-.9 2.4-1.2 3.2-3.7 3-.6-.1-.8.1-.9.3-.1.3.3.5.5.6.2.1 1.3.4 1.5.4.6.2 3.6 1.5 4 1.7.3.1.5 0 .5-.2.1-.1 0-.3-.3-.6-1.4-1.1-1.9-1.6-.7-4.8.6-1.7.8-1.6 1.8-1.3l4.2 1.5c1.5.5 1.6.7 1.1 2.2-1.5 4.1-2.9 4.4-3.8 4.5-1.3.1-1.4.1-1.5.5-.1.3.2.4.4.5l2.7 1c.7.2.9.3 1 0 0-.1 0-.1.3-.9s.8-2.3 1.9-5.3l.5-1.4c.9-2.5 1.4-3.7 1.6-4.3.3-.6.3-.6.3-.7.1-.2.2-.6-.2-.7-.4-.2-.6.2-.9.9-.6 1.4-1.4 1.1-2.6.7l-12.4-4.5zM300.1 238c1.1.5 1.8.9 1.2 2.4-.3.6-.5 1-.1 1.2.4.2.6-.1.7-.4.2-.4.6-1.4 1.6-3.3.9-1.7 1.5-2.6 1.8-3.2.1-.2.3-.6-.1-.8-.4-.2-.6.2-1 .8-.8 1.3-1.5 1-2.7.4l-11.7-5.9c-1.1-.6-1.9-.9-1.3-2.4.3-.6.5-1 .1-1.2-.4-.2-.6.1-.7.4-.1.3-.7 1.7-1.5 3.3-.9 1.8-1.5 2.7-1.8 3.3-.1.2-.3.6.1.8.4.2.6-.2 1-.8.8-1.3 1.5-1 2.7-.4l11.7 5.8z"/><path class="st10" d="M283.8 240.5c-1.1-.7-1.7-1.2-.9-2.5.3-.6.6-.9.2-1.2-.4-.3-.6.1-.7.3-.3.5-1.7 2.7-2 3.2-.6.9-1.6 2.2-2.2 3.1-.1.2-.4.5 0 .8.4.3.7-.1 1.1-.6 1-1.4 1.7-.9 2.8-.2l4.7 3.1c.3.2.5.3.3.5-.1.1-.7.6-.8.7-1.1.8-1.6 1.3-2 1.9-1.4 2.1-1.9 5.9 1.2 8 1.8 1.2 5.3 1.9 8.2-2.3.5-.7 2.3-3.7 2.8-4.3.3-.4 1.6-2.2 1.9-2.6.6-.8.6-1 .3-1.2-.4-.3-.6.1-1 .6-1 1.3-1.7.8-2.7.1l-11.2-7.4zm8.9 10.1c1.3.8 1.9 1.5.9 3-1.4 2.1-4.1 2.7-6.3 1.2-2.5-1.7-2.3-4.4-1.3-5.7.4-.5.9-1.2 1.4-1.5.3-.2.4-.2.9.1l4.4 2.9z"/><path class="st9" d="M264.5 268.8c-1.3-1.3-3.5-3.9 0-7.4 3.7-3.8 6.4-1.2 8 .3l7 6.7c.9.8 1.4 1.4.4 2.6-.4.5-.7.8-.4 1.1.3.3.6.1.8-.1.1-.1 1-1.2 2.5-2.8 1.5-1.5 2.4-2.3 2.6-2.5.2-.2.5-.5.1-.8-.3-.3-.7 0-1.2.4-1.1 1.1-1.7.5-2.7-.4l-7.2-7c-3.7-3.6-7.3-1.6-10.2 1.4-4.8 5-1.6 8.1-.4 9.3l7 6.7c1.9 1.8 1.7 2.2.8 3.3-.3.3-.6.8-.3 1.1.1.1.4.3.7-.1.3-.3 1.2-1.4 2-2.2 1-1 1.6-1.4 1.9-1.8.2-.2.5-.5.2-.8-.3-.3-.6-.1-1.1.4-1.3 1.1-1.7 1.1-3.5-.8l-7-6.6z"/><path class="st10" d="M254.9 274.1c-.8-1-1.3-1.7-.1-2.7.5-.4.9-.7.6-1.1-.3-.4-.6-.1-.8 0l-3 2.4c-.7.5-4.3 3.1-4.6 3.3-4.9 3.7-2.5 7.7-1.9 8.6.6.8 1.5 1.5 2.7 1.8 2 .5 3.4-.4 4.5-1.2-.8.9-2.8 3.2-.9 5.8 2.8 3.7 7.9-.1 9.2-1.1 0 0 3.6-2.8 5.1-4.2.5-.4.7-.9.5-1.2-.2-.3-.5 0-.6 0 0 0-.2.2-.5.4-1.2.9-1.4.7-3-1.3l-7.2-9.5zm1.3 8.9c.8-.6 1.1-.2 1.4.2l3 4c.5.6.9 1.2-.6 2.4-2.2 1.6-4.1 1.5-5.6-.5-.7-.9-1.9-3.3.9-5.4l.9-.7zm-.5-2.2c.7.9.7 1-.9 2.3-.7.6-4.1 3-7-.8-.8-1.1-1.6-2.9-.7-4.7.4-.8 1.4-1.5 1.6-1.7 1.8-1.4 2.8-.6 4.4 1.5l2.6 3.4z"/><path class="st9" d="M237.4 286.4c-.6-1.1-1-1.9.3-2.7.5-.4.9-.6.7-1-.2-.4-.6-.2-.8-.1-.3.2-.2.3-4.8 2.8-6.2 3.4-6.2 3.3-6.4 3.4-.5.3-.5.5-.3 1s1.2 3.1 1.3 3.3c.1.2.3.4.6.2.2-.1.2-.3.2-.5 0-3.5 1.7-4.9 3-5.6 1.7-.9 2.7-.3 3.6 1.4l6 10.8c.6 1 .9 1.8-.4 2.6-.5.3-.9.6-.7 1 .2.4.6.2.8.1.5-.3 1.4-.9 3.1-1.9 1.4-.8 2.9-1.5 3.4-1.7.2-.1.6-.3.4-.7-.2-.4-.6-.2-1.2.1-1.4.7-1.8 0-2.4-1.2l-6.4-11.3zM222.8 308.1c.5 1.1.8 1.9-.6 2.6-.6.3-1 .5-.8.9.2.4.5.3.8.2.4-.2 1.3-.7 3.4-1.5 1.8-.7 2.8-1 3.4-1.3.2-.1.6-.2.4-.6-.2-.4-.6-.3-1.2-.1-1.5.5-1.8-.3-2.3-1.5l-4.9-12.1c-.5-1.2-.8-1.9.6-2.6.6-.3 1-.5.8-.9-.2-.4-.5-.3-.8-.2-.3.1-1.7.8-3.3 1.5-1.9.8-2.9 1-3.5 1.3-.2.1-.6.2-.4.6.2.4.6.3 1.2.1 1.5-.5 1.8.3 2.3 1.5l4.9 12.1zM197.8 317.3c.3.8.6 1 2 .9 2.1-.2 2.7-.3 4-.6 7.8-2.1 10-8.4 8.9-12.6-1-3.8-5.9-8.7-13.5-6.7-3 .8-4.8 2.3-5.2 2.7-.5.5-.5.8-.4 1.2l.4 2.6c.1.2.1.5.6.4.3-.1.4-.6.4-.7.6-2.6 1.5-4.7 4.3-5.4 4.5-1.2 8.3 2.9 9.4 7.1 1 3.8 0 9.2-4.9 10.5-2.8.7-4.2-.4-5.7-1.7-.5-.4-.7-.4-.9-.3-.4.1-.3.3-.2.6l.8 2z"/><path class="st10" d="M177.2 311.5c-.6 0-.7-.2-.7-.9l-.3-5.7c-.1-1.3-.1-2.1 1.4-2.3.6-.1 1.1-.2 1.1-.6 0-.5-.4-.4-.7-.4-.1 0-.4.1-.9.1-.6.1-1.4.1-2.6.2h-.4c-.3 0-2.3.1-4.4.2-2 .1-4.1.2-4.6.2-.9 0-1.2.4-1.2 1 0 1.1-.3 3.1-.2 3.6 0 .2.1.5.4.4.3 0 .3-.1.8-1.3 1.2-2.7 3.1-2.8 4.5-2.9 2.6-.1 3.3.2 3.4 2.4l.3 5.3c0 .9-.2.9-1.7 1-2.5.1-3.4.1-4.2-2.2-.2-.6-.4-.7-.6-.7-.4 0-.3.5-.3.6 0 .2.2 1.3.2 1.5v4.3c0 .3.2.4.4.4s.3-.1.4-.5c.5-1.7.7-2.4 4.1-2.5 1.8-.1 1.8.2 1.9 1.1l.2 4.5c.1 1.5 0 1.8-1.6 1.9-4.4.2-5.2-.9-5.6-1.7-.6-1.1-.7-1.2-1-1.2-.3 0-.3.4-.3.5l.1 2.8c0 .7.1 1 .4.9.1 0 .1 0 .9-.1s2.4-.2 5.6-.4l1.5-.1c2-.1 3.1-.1 3.8-.1h1.2c.3 0 .8 0 .8-.5 0-.1-.4-.5-.4-.8 0-.3.2-.7.3-.9l7.8-13.8c1.6-2.8 2-2.9 3.4-3.2.1 0 .6-.1.6-.5s-.4-.4-.7-.4c-.5 0-1 .2-2.4.2-1.6.1-3.6.1-4.2.1-.4 0-.7.1-.7.5s.3.4.6.4c1.2 0 2.1.1 2.2 1 0 .8-.7 2.1-.7 2.3l-2.6 5.1c-.2.5-.5.6-1 .6l-4.3.6zm-.6 1.9c0-.6 0-.9.8-.9l3.8-.2c.2 0 .3.1.3.2v.3l-3.2 6c-.2.4-.5.9-.8.9-.5 0-.5-.6-.5-1l-.4-5.3z"/><path class="st9" d="M114.2 308.1l4.3-12.7c.5-1.4.8-2.1 2.1-1.7.9.3 1.2.3 1.3-.1.1-.3-.2-.5-.4-.6-.6-.2-2.2-.7-3.7-1.2-1.1-.4-2.6-1.1-3-1.2-.3-.1-.8-.3-.9.1-.1.3.1.5.7.8 1.3.5 1.2.9.6 2.7l-4.1 12.5c-.5 1.6-.7 1.9-2.1 1.5-.8-.2-1.1-.3-1.2 0-.1.4.3.5.6.6.3.1 1.1.3 1.8.5.6.2 1.7.8 2.4 1 .5.2.8.2 1.5-.6l8.9-10.1.5 13.9c0 .8.3.9.6 1 .3.1 1 .2 2.1.6.8.3 2.3 1 2.7 1.1.4.2.7.1.8-.1.1-.3 0-.6-1-.9-1.3-.5-1.4-.5-.8-2 1.4-3.8 5.1-12.2 5.2-12.4.8-2 1.3-2 2.3-1.8.9.2 1.2.2 1.3-.1.1-.3-.2-.5-.4-.6-.5-.2-1.6-.5-2.7-.8-1.3-.5-2.2-.9-2.6-1.1-.3-.1-.8-.3-1 .1-.1.4.3.6 1 .9 1.4.6 1.7.8 0 5.4-1.1 3-2.5 6.2-3.9 9.4h-.1l-.7-16.1c0-.6-.1-.9-.4-1-.3-.1-.5.1-1 .7l-10.7 12.3z"/><path class="st10" d="M98.8 289.9c-.7-.4-.8-.5-.6-1.4l.7-3.9c0-.1.1-.6.3-.9.2-.4.6-.4 1.3 0 .6.3 1 .4 1.2.1.2-.4-.1-.6-.4-.7-.1 0-1.5-.7-3.2-1.7-.5-.3-2.6-1.7-3.1-1.9-.2-.1-.6-.4-.8 0-.2.3.1.6.5.9 1 .8.9 1.5.6 4.1L93.6 297c-.1.6-.2 1.6-.4 2.5-.2 1.3-.3 1.6 0 1.7.3.2.3.1 2.8-1.9 4.5-3.6 10.4-8.5 12.3-9.7 1.1-.6 1.3-.5 2.2-.1.5.2.9.4 1.1 0 .2-.4-.1-.6-.3-.7-.3-.2-2-1-2.3-1.2-.8-.5-2.3-1.5-2.6-1.6-.6-.4-.9-.5-1.2-.2-.2.3.1.6.8 1 .6.4 1.2.8.9 1.5-.2.3-.8.9-.9 1l-2.6 2.3c-.6.6-.6.6-1.4.1l-3.2-1.8zm2.4 2.7c.5.3.6.4.5.6-.1.2-.3.4-.4.4l-4.3 3.6.8-5.7c0-.2.1-.5.1-.6 0-.1.1-.2.7.2l2.6 1.5z"/><path class="st9" d="M78.3 274c-2.2 2.7-.6 5.9.2 7.6 1.3 2.4 2.2 4.1.8 5.8-.8.9-2.5 1.8-4.5.2s-1.3-3.3-.8-4.5c.4-.9.4-1.2.1-1.4-.3-.3-.5-.1-.9.4-1.7 2.1-1.9 2.3-1.7 2.7.2.4 1.3 2 2.7 3.1 3.1 2.5 6.3 1.9 8.1-.3 2.1-2.6.9-5-.3-7.5-1.1-2.2-2-4.4-.5-6.3 1.6-2 4-1.2 5-.4 1.7 1.4 2.1 4.2.8 6.7-.1.3-.2.5 0 .7.3.2.6-.1.7-.2.8-.8 1.7-2 1.8-2.1.5-.6.7-1 .6-1.4-.2-.7-1.2-2.5-3-4.1-3.1-2.4-6.9-1.7-9.1 1zM65.7 261.3c-2.5 2.4-1.4 5.8-.7 7.6 1 2.5 1.7 4.3.1 5.9-.9.8-2.7 1.5-4.5-.4-1.8-1.8-.9-3.5-.3-4.6.5-.9.5-1.1.3-1.3-.3-.3-.5-.1-1 .3-2 1.9-2.2 2.1-2.1 2.5.1.5 1.1 2.1 2.3 3.4 2.7 2.8 6 2.7 8.1.7 2.4-2.3 1.5-4.9.6-7.5-.8-2.3-1.4-4.6.3-6.3 1.8-1.7 4.1-.7 5 .3 1.5 1.6 1.6 4.5 0 6.8-.2.2-.3.5-.1.7.3.3.6 0 .7-.1.9-.7 2-1.8 2.1-1.9.6-.5.8-.9.8-1.3-.1-.7-.9-2.7-2.5-4.4-2.8-2.9-6.6-2.7-9.1-.4z"/><path class="st10" d="M55.8 250c-.5-.7-.5-.8 0-1.6l2.3-3.2c.1-.1.4-.5.6-.7.4-.3.7-.1 1.2.5.4.5.8.8 1.1.6.4-.2.1-.6-.1-.8-.1-.1-1.1-1.3-2.2-2.9-.3-.4-1.7-2.6-2-3-.1-.2-.4-.6-.7-.4-.3.2-.2.5.1 1 .6 1.1.2 1.8-1.2 4L48 254.2c-.3.5-.9 1.3-1.4 2.1-.8 1.1-.9 1.3-.7 1.6.2.3.2.2 3.3-.5 5.6-1.4 13.1-3.3 15.2-3.6 1.2-.1 1.4.1 2.1.9.3.4.6.7 1 .5.4-.3.1-.6 0-.7-.2-.3-1.4-1.8-1.6-2-.5-.7-1.5-2.3-1.6-2.6-.4-.6-.6-.9-1-.6-.3.2-.2.6.3 1.2.4.6.8 1.3.1 1.7-.3.2-1.2.5-1.2.5l-3.3 1c-.8.3-.8.3-1.3-.5l-2.1-3.2zm1.1 3.4c.3.5.4.6.2.8-.2.1-.5.2-.6.2l-5.4 1.4 3.1-4.8c.1-.2.2-.4.4-.5.1-.1.2-.1.6.5l1.7 2.4z"/><path class="st9" d="M31.5 228.4c-.7.5-.9.7-.5 2.1.6 2 .8 2.6 1.4 3.8 3.5 7.3 10.2 8.2 14 6.3 3.5-1.7 7.4-7.5 4-14.5-1.4-2.8-3.1-4.3-3.6-4.6-.6-.4-.9-.4-1.3-.2l-2.5.9c-.2.1-.4.2-.2.6.1.3.7.3.8.3 2.7.1 4.9.6 6.1 3.2 2.1 4.2-1.3 8.7-5.2 10.6-3.6 1.7-9.1 1.8-11.3-2.8-1.2-2.6-.4-4.2.6-6 .3-.5.3-.7.2-.9-.2-.3-.4-.2-.6-.1l-1.9 1.3zM28.5 214.9c-1.2.4-2 .6-2.5-.9-.2-.6-.4-1-.8-.9-.4.1-.3.5-.2.7.2.9.7 2 1.1 3.5.4 1.5.6 2.6.9 3.5.1.4.2.7.6.6.4-.1.3-.5.2-1.2-.3-1.5.5-1.7 1.7-2.1l12.6-3.6c1.2-.3 2-.6 2.5.9.2.6.4 1 .8.9.4-.1.3-.5.3-.8-.2-.6-.6-1.7-1.1-3.5-.6-2.2-.8-3.1-.9-3.5-.1-.2-.2-.6-.6-.5-.4.1-.4.6-.2 1.2.3 1.5-.5 1.7-1.7 2.1l-5.8 1.7c-.7.2-.7.1-1-.9l-1.8-6.3c-.2-.8-.3-1 .5-1.2l5.8-1.7c1.2-.3 2-.6 2.5.9.2.6.4 1.1.8.9.4-.1.3-.5.3-.8-.1-.4-.6-1.7-1.1-3.5-.6-2.1-.7-3-.9-3.5-.1-.2-.2-.6-.6-.5-.4.1-.4.6-.2 1.2.3 1.5-.5 1.7-1.7 2.1l-12.6 3.6c-1.2.4-2 .6-2.5-.9-.2-.6-.4-1-.8-.9-.4.1-.3.5-.2.7.3 1.1.7 2.1 1.1 3.5.4 1.5.6 2.5.9 3.5.1.3.2.7.6.6.4-.1.3-.5.2-1.2-.3-1.5.5-1.7 1.7-2.1l4.2-1.2c.9-.3.9-.2 1.2.8l1.8 6.4c.3 1 .3 1-.6 1.2l-4.5 1.2zM32.1 176.6c1.9-.2 5.2-.1 5.6 4.8.5 5.3-3.3 5.6-5.5 5.8l-9.7.8c-1.2.1-2 .2-2.3-1.4-.1-.6-.2-1.1-.6-1-.5 0-.4.4-.4.7 0 .2.3 1.6.5 3.7s.2 3.3.2 3.7c0 .2.1.6.5.6.5 0 .5-.5.4-1.2 0-1.6.8-1.6 2.1-1.7l10-.9c5.2-.5 6-4.4 5.6-8.6-.6-6.9-5.1-6.5-6.7-6.4l-9.6.8c-2.6.2-2.8-.1-3-1.5-.1-.4-.1-1-.6-.9-.1 0-.4.1-.4.6 0 .4.3 1.8.4 3 .1 1.4.1 2.1.1 2.6 0 .3.1.7.5.7s.4-.4.4-1.1c0-1.7.3-2 2.9-2.2l9.6-.9zM32.7 155.5c-3.5-.2-5.2 2.9-6.1 4.6-1.2 2.4-2.1 4.1-4.3 4-1.2-.1-2.9-1-2.7-3.6.2-2.6 2-3 3.2-3.3 1-.2 1.2-.4 1.2-.7 0-.4-.2-.5-.9-.5-2.7-.2-3-.2-3.2.1-.2.4-.9 2.2-1 4-.3 3.9 2 6.3 4.9 6.5 3.3.2 4.7-2.1 5.9-4.6 1.2-2.2 2.5-4.2 4.9-4 2.5.2 3.3 2.6 3.2 3.9-.2 2.2-2.2 4.2-5 4.6-.3 0-.5.1-.6.4 0 .4.4.4.5.4 1.1.2 2.7.3 2.8.3.8.1 1.2.1 1.5-.3.4-.5 1.4-2.4 1.6-4.8.2-4-2.5-6.8-5.9-7zM36.8 148c1.2.2 2.1.4 1.9 1.9-.1.7-.1 1.1.3 1.2.5.1.5-.3.6-.5 0-.2.1-.5.1-1 .1-.5.2-1.3.4-2.5l.1-.4c0-.2.3-1.6.7-3.3.4-1.8.8-3.9 1.1-5.4.2-.9-.1-1.3-.7-1.4-1.1-.3-3-1-3.4-1.1-.2 0-.5 0-.5.3-.1.3.1.4 1 1.1 2.3 1.8 2 3.7 1.7 5.1-.5 2.6-1 3.1-3.1 2.7l-5.2-1c-.9-.2-.9-.4-.6-1.9.5-2.5.7-3.3 3.1-3.5.6 0 .8-.2.8-.4.1-.4-.4-.4-.5-.5-.2 0-1.3-.2-1.5-.2-.7-.1-3.8-1-4.2-1-.3-.1-.5.1-.5.3 0 .2 0 .3.4.5 1.5.9 2.1 1.3 1.5 4.6-.3 1.8-.6 1.7-1.6 1.5l-4.4-.9c-1.5-.3-1.7-.5-1.4-2 .8-4.3 2.1-4.8 3-5 1.2-.3 1.4-.4 1.4-.7.1-.3-.3-.4-.5-.4l-2.8-.5c-.7-.1-.9-.2-1 .2 0 .1 0 .1-.1.9s-.4 2.4-1 5.5l-.3 1.5c-.5 2.6-.8 3.9-.9 4.6l-.2.7c0 .2-.1.6.3.7.5.1.6-.3.7-1 .4-1.5 1.2-1.3 2.5-1.1l12.8 2.4zM30.8 117.3c-1-.3-.9-.5-.3-2.2.7-1.9 1.2-3.3 4.2-2.8.7.1.8-.1.8-.2.1-.4-.2-.6-.8-.8l-3.5-1.5c-.7-.3-1.2-.4-1.3 0-.1.2.1.4.3.6.4.4.8.7-.3 3.7l-3.4 9.3c-.2.6-.5 1.2-1.3 1-.3-.1-.4 0-.5.2-.1.3 0 .4.4.6l3.7 2.7c.1.1.3.2.4.3.2.1.4 0 .5-.2.1-.3 0-.5-.3-.9-2.2-2.5-1.5-4.4-.9-6.2.2-.6.3-.8 1.1-.5l13.5 4.9c1.1.4 1.9.7 1.5 2.2-.2.6-.3 1.1.1 1.2.4.2.6-.2.7-.5.2-.6.9-3 1.1-3.4.3-1 1-2.4 1.4-3.4.1-.2.2-.6-.2-.8-.4-.2-.6.2-.9.8-.6 1.4-1.4 1.1-2.6.7l-13.4-4.8zM41.3 95.8c-.9-.5-.8-.6.1-2.2 1-1.7 1.8-3.1 4.6-2 .6.2.8 0 .8-.1.2-.3-.1-.6-.6-.9L43 88.5c-.6-.4-1.1-.6-1.3-.2-.1.2 0 .4.2.6.4.5.6.8-.9 3.6l-5 8.6c-.3.6-.6 1.1-1.4.8-.3-.1-.4-.1-.6.1-.1.2 0 .4.3.7l3.1 3.3c.1.1.2.3.4.3.2.1.4.1.6-.1.1-.2.1-.4-.2-.9-1.8-2.8-.7-4.6.2-6.2.3-.5.4-.8 1.1-.3L52 106c1 .6 1.8 1 1.1 2.4-.3.6-.5 1-.1 1.2.4.2.6-.1.7-.3.3-.5 1.4-2.7 1.7-3.2.5-.9 1.4-2.2 1.9-3.1.1-.2.3-.6-.1-.8-.4-.2-.6.1-1 .7-.9 1.3-1.6.9-2.7.2l-12.2-7.3zM61.4 91c1 .8 1.7 1.3.8 2.6-.4.6-.6.9-.3 1.2.4.3.6 0 .8-.2.1-.2.3-.4.5-.8.3-.4.7-1 1.5-2l.2-.3c.1-.1 1-1.3 2.1-2.6 1.1-1.4 2.5-3.1 3.5-4.3.6-.7.5-1.2 0-1.5-.8-.8-2.2-2.3-2.5-2.5-.1-.1-.4-.2-.6 0-.2.2-.1.3.4 1.5 1.2 2.7.1 4.2-.8 5.3-1.6 2.1-2.3 2.4-4 1l-4.2-3.3c-.7-.6-.6-.8.3-1.9 1.6-2 2.1-2.7 4.4-1.7.6.2.8.2.9 0 .2-.3-.1-.6-.3-.7-.2-.2-1.1-.7-1.3-.9-.5-.4-2.9-2.6-3.3-2.8-.3-.2-.4-.1-.6 0-.1.1-.1.3.1.7 1 1.5 1.3 2.1-.8 4.8-1.1 1.4-1.3 1.3-2.1.7l-3.5-2.8c-1.2-1-1.3-1.2-.4-2.4 2.7-3.5 4.1-3.3 5-3.1 1.2.3 1.4.3 1.6 0 .2-.2-.1-.5-.2-.6l-2.2-1.8c-.6-.4-.8-.6-1-.3-.1.1-.1.1-.5.8-.5.7-1.4 1.9-3.4 4.5l-.9 1.2c-1.6 2.1-2.5 3.1-2.9 3.6-.4.5-.5.5-.5.6-.1.2-.4.5 0 .8.4.3.7 0 1.1-.6 1-1.2 1.7-.6 2.7.1L61.4 91zM83.7 64.9L66.9 62c-.3-.1-1-.4-1.4 0-.3.3-.8.9-1.4 1.4-.7.7-1.9 1.5-2.1 1.7-.4.4-.7.7-.4 1 .3.3.7 0 1.2-.4 1-.9 1.4-.8 3 .9l6.9 7.7c2.8 3.1 2.8 3.3 1.9 4.4-.9 1-.9 1.1-.7 1.4.3.3.6 0 .7-.1l2.5-2.5c.7-.6 1.7-1.3 1.9-1.6.2-.2.6-.5.3-.8-.2-.2-.3-.1-1.3.6-1.1.8-1.6.9-4.6-2.5l-7.2-7.8v-.1L87 68.7c.8.2 1 0 1.2-.1.3-.3 0-.7-.3-1L77 55.6c-1.2-1.2-.9-1.6-.1-2.5.6-.6.8-.9.5-1.2-.3-.3-.6-.1-.7 0-.4.4-2 2-2.4 2.3-.3.3-1.7 1.3-1.9 1.6-.2.1-.6.5-.3.8.3.3.7 0 1.4-.6 1-.8 1.2-1 3.8 1.7l6.4 7.2zM100.5 52.1c-1.9-2.9-5.5-2.4-7.3-2.1-2.6.5-4.6.8-5.8-1-.7-1-.9-3 1.2-4.3 2.2-1.4 3.6-.2 4.6.6.8.6 1 .7 1.2.6.4-.2.2-.4-.1-1-1.5-2.3-1.6-2.5-2.1-2.5-.5.1-2.3.6-3.8 1.6-3.3 2.1-3.8 5.4-2.2 7.8 1.8 2.8 4.5 2.4 7.2 2 2.4-.4 4.8-.5 6.2 1.5 1.4 2.1-.1 4.2-1.2 4.9-1.8 1.2-4.7.7-6.7-1.3-.2-.2-.4-.4-.7-.2-.3.2-.1.6 0 .7.5 1 1.4 2.3 1.4 2.4.4.6.7 1 1.1 1 .7 0 2.8-.3 4.8-1.6 3.5-2.4 4-6.2 2.2-9.1zM105.9 38c-.5-1.1-.9-1.8.5-2.6.6-.3 1-.5.8-.9-.2-.4-.6-.2-.8-.1-.4.2-1.3.8-3.3 1.7-1.7.8-2.8 1.2-3.3 1.5-.2.1-.6.3-.4.7.2.4.6.3 1.2 0 1.4-.6 1.8.2 2.4 1.3l5.7 11.8c.6 1.1.9 1.9-.4 2.7-.6.3-1 .5-.8.9.2.4.6.2.8.1.3-.1 1.6-.9 3.2-1.7 1.8-.9 2.8-1.2 3.4-1.5.2-.1.6-.3.4-.7-.2-.4-.6-.3-1.2 0-1.4.6-1.8-.2-2.4-1.3L105.9 38zM128.9 39.8c-1.2-3.3-4.8-3.6-6.7-3.7-2.7-.1-4.6-.2-5.4-2.3-.4-1.1-.2-3.1 2.2-4 2.4-.9 3.5.6 4.3 1.6.6.8.8.9 1.1.8.4-.1.3-.4.1-1-.9-2.6-1-2.8-1.5-2.9-.5-.1-2.4.1-4.1.7-3.7 1.3-4.9 4.4-3.9 7.1 1.1 3.1 3.8 3.4 6.6 3.6 2.4.2 4.8.6 5.7 2.9.9 2.4-1.1 4-2.3 4.5-2.1.8-4.7-.4-6.2-2.8-.2-.2-.3-.4-.6-.3-.3.1-.2.5-.2.7.3 1.1.8 2.5.9 2.7.3.7.4 1.1.8 1.2.7.2 2.8.3 5.1-.5 3.8-1.5 5.2-5 4.1-8.3z"/><path class="st11" d="M41.7 168.1c0 1.4 1.1 2.6 2.5 2.6s2.5-1.1 2.5-2.4c0-1.4-1.1-2.5-2.5-2.6-1.3 0-2.5 1-2.5 2.4zm1.1.1c0-.8.7-1.4 1.4-1.4.8 0 1.4.6 1.4 1.4 0 .8-.7 1.3-1.4 1.3-.4 0-.7-.1-1-.4-.2-.2-.4-.6-.4-.9zM42 161.6c-.1 1.4.9 2.6 2.3 2.7 1.4.1 2.6-1 2.7-2.3.1-1.4-.9-2.6-2.3-2.7-1.4 0-2.6 1-2.7 2.3zm1.1.2c.1-.8.7-1.3 1.5-1.3.8.1 1.3.7 1.3 1.5-.1.8-.7 1.3-1.5 1.3-.4 0-.7-.2-.9-.5-.3-.3-.4-.7-.4-1zM42.6 155.2c-.2 1.4.8 2.7 2.2 2.8 1.4.2 2.6-.8 2.8-2.2.2-1.4-.8-2.6-2.2-2.8-1.3-.1-2.6.8-2.8 2.2zm1.1.2c.1-.8.8-1.3 1.6-1.2.8.1 1.3.8 1.2 1.5-.1.8-.8 1.3-1.5 1.2-.4 0-.7-.2-.9-.5-.3-.3-.4-.7-.4-1zM43.5 148.8c-.2 1.4.7 2.7 2.1 2.9 1.4.2 2.6-.7 2.9-2.1.2-1.4-.7-2.7-2.1-2.9-1.3-.1-2.6.8-2.9 2.1zm1.1.3c.1-.8.8-1.3 1.6-1.1.8.1 1.3.8 1.2 1.6-.1.8-.8 1.2-1.6 1.1-.4-.1-.7-.2-.9-.5-.2-.4-.3-.8-.3-1.1zM44.8 142.5c-.3 1.4.6 2.7 1.9 3 1.3.3 2.7-.6 3-1.9.3-1.4-.6-2.7-1.9-3-1.3-.3-2.7.5-3 1.9zm1.1.3c.2-.8.9-1.2 1.7-1.1.8.2 1.2.9 1.1 1.6-.2.8-.9 1.2-1.6 1-.4-.1-.7-.3-.9-.6-.3-.2-.4-.6-.3-.9zM46.5 136c-.4 1.3.3 2.8 1.7 3.2 1.3.4 2.7-.4 3.1-1.7.4-1.3-.3-2.7-1.7-3.1-1.2-.4-2.7.3-3.1 1.6zm1.1.4c.2-.7 1-1.1 1.8-.9.8.2 1.2 1 .9 1.7-.2.7-1 1.1-1.7.9-.4-.1-.6-.3-.8-.7-.3-.2-.3-.6-.2-1zM48.4 129.9c-.5 1.3.2 2.8 1.6 3.2 1.3.4 2.7-.3 3.2-1.5.5-1.3-.2-2.7-1.5-3.2-1.4-.4-2.8.2-3.3 1.5zm1 .4c.3-.7 1.1-1.1 1.8-.9.7.3 1.1 1 .9 1.8-.3.7-1 1.1-1.8.8-.4-.1-.6-.4-.8-.7-.1-.2-.2-.6-.1-1zM50.7 123.8c-.5 1.3.1 2.8 1.4 3.3 1.3.5 2.7-.1 3.2-1.4.5-1.3-.1-2.7-1.4-3.3-1.2-.4-2.7.2-3.2 1.4zm1 .5c.3-.7 1.1-1 1.8-.8.7.3 1.1 1.1.8 1.8-.3.7-1.1 1-1.8.7-.3-.1-.6-.4-.8-.7-.1-.2-.1-.7 0-1zM53.3 117.9c-.6 1.3-.1 2.8 1.2 3.4 1.2.6 2.7 0 3.3-1.2.6-1.3.1-2.7-1.2-3.3-1.3-.7-2.8-.2-3.3 1.1zm.9.5c.3-.7 1.2-1 1.9-.7.7.3 1 1.1.7 1.8-.3.7-1.2 1-1.8.6-.3-.2-.6-.4-.7-.8-.2-.2-.2-.6-.1-.9zM56.1 112.1c-.7 1.2-.2 2.8 1 3.4 1.2.6 2.7.2 3.4-1 .7-1.2.2-2.7-1-3.4-1.2-.7-2.7-.2-3.4 1zm1 .5c.4-.7 1.2-.9 1.9-.6.7.4 1 1.2.6 1.9s-1.2.9-1.9.5c-.3-.2-.6-.4-.7-.8-.1-.2-.1-.6.1-1zM59.3 106.4c-.7 1.2-.4 2.7.8 3.5 1.2.7 2.7.3 3.4-.8.7-1.2.3-2.7-.8-3.4-1.1-.8-2.7-.5-3.4.7zm.9.6c.4-.7 1.3-.9 1.9-.5.7.4.9 1.2.5 1.9s-1.2.8-1.9.4c-.3-.2-.5-.5-.6-.8-.1-.2 0-.7.1-1zM62.7 101c-.8 1.2-.5 2.7.7 3.5 1.1.7 2.7.4 3.5-.7.8-1.2.4-2.7-.7-3.5-1.2-.8-2.8-.5-3.5.7zm.9.6c.4-.7 1.3-.8 1.9-.4.7.4.8 1.3.4 1.9-.4.6-1.3.8-1.9.4-.3-.2-.5-.5-.6-.9-.1-.3 0-.7.2-1zM66.4 95.7c-.8 1.1-.6 2.7.5 3.5 1.1.8 2.7.6 3.5-.5.8-1.1.6-2.7-.5-3.5-1.1-.9-2.7-.7-3.5.5zm.9.7c.5-.6 1.3-.7 2-.3.6.5.8 1.3.3 1.9-.5.6-1.3.7-1.9.3-.3-.2-.5-.5-.6-.9-.1-.3 0-.8.2-1zM70.4 90.6c-.9 1.1-.7 2.7.4 3.6 1.1.9 2.7.7 3.5-.4.9-1.1.7-2.7-.4-3.5-1-.9-2.6-.8-3.5.3zm.8.7c.5-.6 1.4-.7 2-.2.6.5.7 1.3.2 2-.5.6-1.4.7-1.9.2-.3-.3-.5-.6-.5-1-.1-.3 0-.7.2-1zM74.7 85.6c-1 1-.9 2.6.1 3.6 1 .9 2.6.9 3.5-.1.9-1 .9-2.6-.1-3.5-1-1-2.5-1-3.5 0zm.8.8c.5-.6 1.4-.6 2-.1.6.5.6 1.4.1 2-.5.6-1.4.6-1.9 0-.3-.3-.4-.6-.4-1-.2-.3-.1-.7.2-.9zM79.2 80.9c-1 1-1.1 2.6-.1 3.6s2.5 1 3.5.1c1-1 1-2.5.1-3.5-.9-1.1-2.5-1.2-3.5-.2zm.7.8c.6-.5 1.4-.5 2 .1.5.6.5 1.4 0 2-.6.5-1.4.5-1.9-.1-.3-.3-.4-.6-.4-1-.1-.3.1-.7.3-1zM83.8 76.5c-1 .9-1.1 2.5-.2 3.6.9 1 2.5 1.1 3.5.2 1-.9 1.1-2.5.2-3.5-.9-1.1-2.4-1.2-3.5-.3zm.7.8c.6-.5 1.5-.5 2 .1s.5 1.4-.1 2c-.6.5-1.4.4-1.9-.1-.3-.3-.4-.6-.4-1 0-.3.2-.7.4-1zM88.8 72.3c-1.1.9-1.3 2.5-.4 3.6s2.5 1.2 3.5.4c1.1-.9 1.3-2.4.4-3.5-.9-1.2-2.4-1.4-3.5-.5zm.7.9c.6-.5 1.5-.4 2 .2.5.6.4 1.5-.2 2-.6.5-1.5.4-1.9-.2-.2-.3-.4-.6-.3-1-.1-.4.1-.8.4-1zM94 68.4c-1.1.8-1.4 2.4-.6 3.5.8 1.1 2.4 1.4 3.5.6 1.1-.8 1.4-2.4.6-3.5-.9-1.2-2.4-1.5-3.5-.6zm.6.9c.6-.5 1.5-.3 2 .3s.3 1.5-.3 1.9c-.6.5-1.5.3-1.9-.3-.2-.3-.3-.7-.3-1 0-.3.2-.7.5-.9zM99.3 64.7c-1.2.8-1.5 2.3-.8 3.5.7 1.1 2.3 1.5 3.4.7 1.2-.8 1.5-2.3.7-3.5-.6-1.1-2.1-1.5-3.3-.7zm.6.9c.7-.4 1.5-.2 1.9.4.4.7.3 1.5-.4 1.9-.6.4-1.5.2-1.9-.4-.2-.3-.3-.7-.2-1 0-.3.3-.7.6-.9zM104.7 61.3c-1.2.7-1.6 2.3-.9 3.5.7 1.2 2.3 1.6 3.4.9 1.2-.7 1.6-2.2.9-3.4-.7-1.3-2.2-1.7-3.4-1zm.6 1c.7-.4 1.5-.2 1.9.5.4.7.2 1.5-.5 1.9-.7.4-1.5.2-1.9-.5-.2-.3-.3-.7-.2-1 .1-.4.4-.8.7-.9zM110.4 58.2c-1.2.7-1.7 2.2-1.1 3.4.6 1.2 2.2 1.7 3.4 1 1.2-.7 1.7-2.2 1-3.4-.6-1.2-2.1-1.7-3.3-1zm.5 1c.7-.4 1.5-.1 1.9.6.4.7.1 1.5-.6 1.9-.7.4-1.5.1-1.9-.6-.2-.3-.2-.7-.1-1 .1-.4.4-.8.7-.9zM116.3 55.3c-1.3.6-1.9 2-1.3 3.3.6 1.2 2 1.8 3.3 1.3 1.3-.6 1.8-2 1.3-3.3-.5-1.2-2-1.9-3.3-1.3zm.4 1c.7-.3 1.5 0 1.8.7.3.7 0 1.5-.7 1.8-.7.3-1.5 0-1.8-.7-.2-.3-.2-.7 0-1.1.1-.2.4-.5.7-.7zM122.3 52.8c-1.3.5-2 1.9-1.5 3.3.5 1.3 2 1.9 3.2 1.4 1.3-.5 2-1.9 1.5-3.2-.5-1.3-1.9-2-3.2-1.5zm.4 1.1c.7-.3 1.5.1 1.8.8.3.7 0 1.5-.8 1.8-.7.3-1.5-.1-1.8-.8-.1-.3-.1-.7 0-1.1.1-.3.4-.6.8-.7zM128.4 50.6c-1.3.4-2.1 1.8-1.6 3.2.4 1.3 1.8 2 3.1 1.6 1.3-.4 2.1-1.8 1.6-3.2-.4-1.3-1.8-2-3.1-1.6zm.3 1.1c.7-.2 1.5.2 1.8.9.2.8-.1 1.5-.9 1.8-.7.2-1.5-.2-1.7-.9-.1-.4-.1-.7.1-1.1.1-.3.4-.6.7-.7zM134.6 48.7c-1.4.4-2.2 1.7-1.8 3.1.4 1.3 1.7 2.1 3.1 1.8 1.3-.4 2.1-1.7 1.8-3.1-.4-1.3-1.7-2.1-3.1-1.8zm.3 1.1c.8-.2 1.5.3 1.7 1 .2.8-.2 1.5-1 1.7-.7.2-1.5-.3-1.7-1-.1-.4-.1-.7.1-1 .2-.3.5-.6.9-.7zM140.9 47.2c-1.4.3-2.3 1.6-2 3 .3 1.3 1.6 2.2 3 1.9 1.4-.3 2.2-1.6 1.9-3-.2-1.3-1.5-2.2-2.9-1.9zm.2 1.1c.8-.2 1.5.3 1.6 1.1.2.8-.3 1.5-1.1 1.7-.8.2-1.5-.3-1.6-1.1-.1-.4 0-.7.2-1 .2-.4.6-.7.9-.7zM147.3 45.9c-1.4.2-2.3 1.5-2.1 2.9.2 1.4 1.5 2.3 2.9 2.1 1.4-.2 2.3-1.5 2.1-2.9-.3-1.3-1.5-2.3-2.9-2.1zm.1 1.1c.8-.1 1.5.4 1.6 1.2.1.8-.4 1.5-1.1 1.6-.8.1-1.4-.4-1.6-1.2-.1-.4 0-.7.2-1 .2-.3.6-.5.9-.6zM153.6 45c-1.4.2-2.4 1.4-2.2 2.8.2 1.4 1.4 2.3 2.8 2.2 1.4-.2 2.4-1.4 2.2-2.8-.2-1.4-1.4-2.4-2.8-2.2zm.1 1.1c.8-.1 1.5.5 1.5 1.2.1.8-.4 1.5-1.2 1.6-.8.1-1.4-.5-1.5-1.2 0-.4 0-.7.3-1 .2-.3.6-.6.9-.6zM160.1 44.4c-1.4.1-2.5 1.3-2.4 2.7.1 1.4 1.3 2.4 2.7 2.3 1.4-.1 2.4-1.3 2.3-2.7-.1-1.3-1.2-2.4-2.6-2.3zm0 1.1c.8-.1 1.4.5 1.5 1.3.1.8-.5 1.4-1.3 1.5-.8.1-1.4-.5-1.5-1.3 0-.4.1-.7.3-1 .3-.3.7-.5 1-.5zM166.6 44.1c-1.4 0-2.5 1.1-2.5 2.6 0 1.4 1.2 2.5 2.5 2.5 1.4 0 2.5-1.1 2.5-2.5s-1.1-2.6-2.5-2.6zm-.1 1.2c.8 0 1.4.6 1.4 1.4 0 .8-.6 1.4-1.4 1.4-.8 0-1.4-.6-1.4-1.4 0-.4.1-.7.4-1 .3-.3.7-.4 1-.4zM173.1 44.2c-1.4 0-2.6 1-2.6 2.4s1 2.5 2.4 2.6c1.4 0 2.6-1 2.6-2.4 0-1.3-1-2.5-2.4-2.6zm-.1 1.1c.8 0 1.4.7 1.3 1.5 0 .8-.6 1.4-1.4 1.3-.8 0-1.3-.7-1.3-1.4 0-.4.2-.7.4-1 .2-.2.6-.4 1-.4zM179.5 44.6c-1.4-.1-2.6.9-2.8 2.3-.1 1.4.9 2.6 2.3 2.7 1.4.1 2.6-.9 2.7-2.3.2-1.3-.8-2.6-2.2-2.7zm-.1 1.1c.8.1 1.3.8 1.3 1.5-.1.8-.7 1.3-1.5 1.3-.8-.1-1.3-.8-1.2-1.5 0-.4.2-.7.5-.9.2-.3.5-.4.9-.4zM186 45.3c-1.4-.2-2.7.7-2.9 2.1-.2 1.4.8 2.6 2.1 2.8 1.4.2 2.6-.7 2.8-2.1.3-1.3-.6-2.6-2-2.8zm-.2 1.1c.8.1 1.3.8 1.2 1.6-.1.8-.8 1.3-1.6 1.2-.8-.1-1.3-.8-1.2-1.6.1-.4.2-.7.5-.9.3-.2.7-.3 1.1-.3zM192.4 46.4c-1.4-.3-2.7.6-3 2-.3 1.3.6 2.7 2 2.9 1.4.3 2.7-.6 2.9-2 .3-1.3-.5-2.6-1.9-2.9zm-.3 1.1c.8.1 1.2.9 1.1 1.6-.2.8-.8 1.3-1.6 1.1-.8-.1-1.2-.9-1.1-1.6.1-.4.3-.7.6-.9.3-.2.7-.3 1-.2zM198.7 47.8c-1.4-.3-2.7.5-3.1 1.8-.3 1.3.5 2.7 1.8 3 1.3.3 2.7-.5 3-1.8.4-1.3-.3-2.7-1.7-3zm-.3 1c.8.2 1.2 1 1 1.7-.2.8-.9 1.2-1.7 1-.8-.2-1.2-.9-1-1.7.1-.4.3-.7.6-.9.4-.1.8-.1 1.1-.1zM205 49.5c-1.3-.4-2.8.3-3.2 1.7-.4 1.3.3 2.7 1.7 3.1 1.3.4 2.7-.3 3.1-1.7.4-1.3-.3-2.7-1.6-3.1zm-.4 1c.7.2 1.1 1 .9 1.8-.2.8-1 1.2-1.7.9-.7-.2-1.1-1-.9-1.7.1-.4.3-.6.7-.8.3-.2.7-.3 1-.2zM211.1 51.5c-1.3-.5-2.8.2-3.2 1.6-.4 1.3.3 2.7 1.5 3.2 1.3.5 2.7-.2 3.2-1.5.4-1.5-.2-2.9-1.5-3.3zm-.4 1c.7.3 1.1 1.1.9 1.8-.3.7-1 1.1-1.8.9-.7-.3-1.1-1-.8-1.8.1-.4.4-.6.7-.8.2-.2.6-.2 1-.1zM217.1 53.8c-1.3-.5-2.8.1-3.3 1.4-.5 1.3.1 2.7 1.4 3.2 1.3.5 2.7-.1 3.3-1.4.5-1.2-.1-2.7-1.4-3.2zm-.4 1c.7.3 1 1.1.8 1.8-.3.7-1.1 1.1-1.8.8-.7-.3-1-1.1-.7-1.8.1-.3.4-.6.7-.8.2-.1.7-.1 1 0zM223.1 56.4c-1.3-.6-2.8-.1-3.4 1.2-.6 1.2 0 2.7 1.2 3.3 1.3.6 2.7.1 3.3-1.2.6-1.2.1-2.7-1.1-3.3zm-.6 1c.7.3 1 1.2.7 1.9-.3.7-1.1 1-1.8.7-.7-.3-1-1.2-.6-1.8.2-.3.4-.6.8-.7.2-.2.6-.2.9-.1zM228.8 59.4c-1.2-.7-2.8-.2-3.4 1-.6 1.2-.2 2.7 1 3.4 1.2.7 2.7.2 3.4-1 .7-1.2.3-2.8-1-3.4zm-.5.9c.7.4.9 1.2.6 1.9-.4.7-1.2 1-1.9.6s-.9-1.2-.5-1.9c.2-.3.4-.6.8-.7.2 0 .7 0 1 .1zM234.5 62.7c-1.2-.7-2.7-.4-3.5.8-.7 1.2-.4 2.7.8 3.4 1.2.7 2.7.4 3.5-.8.7-1.2.4-2.7-.8-3.4zm-.6.9c.7.4.8 1.3.4 1.9-.4.7-1.2.9-1.9.4-.7-.4-.8-1.3-.4-1.9.2-.3.5-.5.8-.6.4-.1.8 0 1.1.2zM240 66.2c-1.2-.8-2.7-.6-3.5.6-.8 1.1-.5 2.7.6 3.5 1.1.8 2.7.5 3.5-.6.7-1.1.5-2.7-.6-3.5zm-.7.9c.6.4.8 1.3.3 2-.5.6-1.3.8-1.9.3-.6-.4-.7-1.3-.3-1.9.2-.3.5-.5.9-.6.3-.1.7 0 1 .2zM245.2 69.9c-1.1-.8-2.7-.6-3.5.5-.8 1.1-.6 2.7.5 3.5 1.1.8 2.7.6 3.5-.5.8-1.1.6-2.7-.5-3.5zm-.7.9c.6.5.7 1.3.3 2-.5.6-1.3.8-1.9.3-.6-.5-.7-1.3-.2-1.9.2-.3.5-.5.9-.5.2-.2.6-.1.9.1zM250.2 74c-1.1-.9-2.7-.8-3.6.3-.9 1-.7 2.6.3 3.5 1.1.9 2.6.8 3.5-.3 1-1.1.9-2.6-.2-3.5zm-.7.8c.6.5.7 1.4.2 2-.5.6-1.3.7-2 .2-.6-.5-.6-1.4-.1-1.9.2-.3.6-.5.9-.5.3-.1.7 0 1 .2zM255.1 78.3c-1-1-2.6-.9-3.6.1-.9 1-.9 2.6.1 3.5 1 .9 2.6.9 3.5-.1 1-1 1-2.6 0-3.5zm-.8.8c.6.5.6 1.4.1 2-.5.6-1.4.6-2 .1-.6-.5-.6-1.4 0-1.9.3-.3.6-.4 1-.4.2-.2.6-.1.9.2zM259.7 82.9c-1-1-2.6-1.1-3.6-.1s-1 2.5-.1 3.5c1 1 2.5 1 3.5.1 1.1-1 1.2-2.5.2-3.5zm-.8.7c.5.6.5 1.4-.1 2-.6.5-1.4.5-2 0-.5-.6-.5-1.4.1-1.9.3-.3.6-.4 1-.4.3-.1.7 0 1 .3zM264.1 87.5c-.9-1-2.5-1.1-3.6-.2-1 .9-1.1 2.5-.2 3.5.9 1 2.5 1.1 3.5.2 1.1-.9 1.2-2.4.3-3.5zm-.9.7c.5.6.5 1.5-.1 2s-1.4.5-2-.1c-.5-.6-.4-1.4.1-1.9.3-.2.6-.4 1-.4s.8.2 1 .4zM268.2 92.5c-.9-1.1-2.5-1.3-3.6-.4s-1.2 2.5-.4 3.5c.9 1.1 2.4 1.3 3.5.4 1.2-.8 1.4-2.4.5-3.5zm-.9.7c.5.6.4 1.5-.2 2-.6.5-1.5.4-2-.2-.5-.6-.4-1.5.2-1.9.3-.2.6-.4 1-.3.4-.1.8.1 1 .4zM272.1 97.8c-.8-1.2-2.4-1.4-3.5-.6-1.1.8-1.4 2.4-.6 3.5.8 1.1 2.3 1.4 3.5.6 1.1-.8 1.4-2.4.6-3.5zm-.9.6c.4.6.3 1.5-.4 1.9-.6.5-1.5.3-1.9-.3-.4-.6-.3-1.5.4-1.9.3-.2.7-.3 1-.2.3 0 .7.2.9.5zM275.7 103.2c-.7-1.2-2.3-1.6-3.5-.8-1.2.7-1.5 2.3-.8 3.4.7 1.2 2.3 1.5 3.5.8 1.2-.7 1.6-2.2.8-3.4zm-.9.5c.4.7.2 1.5-.5 1.9-.7.4-1.5.2-1.9-.4-.4-.7-.2-1.5.5-1.9.3-.2.7-.3 1-.2.3.1.7.4.9.6zM279.1 108.8c-.7-1.2-2.2-1.7-3.4-1-1.2.7-1.6 2.2-1 3.4.7 1.2 2.2 1.7 3.4 1 1.2-.7 1.6-2.2 1-3.4zm-1 .5c.4.7.1 1.5-.6 1.9-.7.4-1.5.2-1.9-.5-.4-.7-.1-1.5.6-1.9.3-.2.7-.2 1-.1.4 0 .7.3.9.6zM282.1 114.5c-.6-1.3-2.1-1.8-3.4-1.2-1.2.6-1.8 2.1-1.2 3.3.6 1.2 2.1 1.8 3.3 1.2 1.3-.6 1.9-2 1.3-3.3zm-1 .5c.3.7 0 1.5-.7 1.9-.7.3-1.5.1-1.9-.6-.3-.7 0-1.5.7-1.8.3-.2.7-.2 1-.1.4 0 .7.2.9.6zM284.8 120.3c-.6-1.3-2-1.9-3.3-1.3-1.2.6-1.8 2-1.3 3.3.6 1.3 2 1.8 3.3 1.3 1.3-.6 1.9-2 1.3-3.3zm-1 .4c.3.7 0 1.5-.7 1.8-.7.3-1.5 0-1.8-.7-.3-.7 0-1.5.7-1.8.3-.2.7-.2 1.1 0 .2.1.6.4.7.7zM287.3 126.3c-.5-1.3-1.9-2-3.3-1.5-1.3.5-1.9 2-1.4 3.2.5 1.3 1.9 2 3.2 1.5 1.3-.5 2-1.9 1.5-3.2zm-1.1.4c.3.7-.1 1.5-.8 1.8-.7.3-1.5 0-1.8-.8-.3-.7.1-1.5.8-1.8.3-.1.7-.1 1.1 0 .3.1.6.4.7.8zM289.4 132.4c-.4-1.3-1.8-2.1-3.2-1.6-1.3.4-2 1.8-1.6 3.1.4 1.3 1.8 2.1 3.2 1.6 1.3-.4 2-1.7 1.6-3.1zm-1.1.3c.2.7-.2 1.5-.9 1.8-.8.2-1.5-.1-1.8-.9-.2-.7.2-1.5.9-1.7.4-.1.7-.1 1 .1.4.1.7.4.8.7zM291.2 138.7c-.4-1.4-1.7-2.2-3.1-1.8-1.3.4-2.1 1.7-1.8 3.1.4 1.3 1.7 2.1 3.1 1.8 1.3-.4 2.2-1.8 1.8-3.1zm-1.1.2c.2.8-.3 1.5-1 1.7-.8.2-1.5-.2-1.7-1-.2-.7.3-1.5 1-1.7.4-.1.7-.1 1 .1.4.3.6.6.7.9zM292.7 145c-.3-1.4-1.6-2.3-3-2-1.3.3-2.2 1.6-1.9 3 .3 1.4 1.6 2.2 3 1.9 1.3-.3 2.2-1.5 1.9-2.9zm-1.1.2c.2.8-.3 1.5-1.1 1.6-.8.2-1.5-.3-1.7-1.1-.2-.8.3-1.5 1.1-1.6.4-.1.7 0 1 .2.4.2.6.5.7.9zM293.8 151.4c-.2-1.4-1.5-2.3-2.9-2.1-1.4.2-2.3 1.5-2.1 2.9.2 1.4 1.5 2.3 2.9 2.1 1.4-.3 2.3-1.6 2.1-2.9zm-1.1.1c.1.8-.4 1.5-1.2 1.6-.8.1-1.5-.4-1.6-1.2-.1-.8.4-1.4 1.2-1.6.4-.1.7 0 1 .2.3.3.6.7.6 1zM294.7 157.7c-.2-1.4-1.4-2.4-2.8-2.2-1.4.2-2.3 1.4-2.2 2.8.2 1.4 1.4 2.4 2.8 2.2 1.4-.2 2.4-1.4 2.2-2.8zm-1.1.1c.1.8-.5 1.5-1.2 1.5-.8.1-1.5-.4-1.6-1.2-.1-.8.5-1.4 1.2-1.5.4 0 .7 0 1 .3.3.2.5.6.6.9zM295.2 164.2c-.1-1.4-1.3-2.5-2.7-2.4-1.4.1-2.4 1.3-2.3 2.7.1 1.4 1.3 2.4 2.7 2.3 1.3-.1 2.4-1.2 2.3-2.6zm-1.1 0c.1.8-.5 1.4-1.3 1.5-.8.1-1.4-.5-1.5-1.3-.1-.8.5-1.4 1.3-1.5.4 0 .7.1 1 .3.3.3.5.7.5 1zM295.4 170.7c0-1.4-1.1-2.5-2.6-2.5-1.4 0-2.5 1.2-2.5 2.5 0 1.4 1.1 2.5 2.5 2.5 1.5 0 2.6-1.1 2.6-2.5zm-1.1-.1c0 .8-.6 1.4-1.4 1.4-.8 0-1.4-.6-1.4-1.4 0-.8.6-1.4 1.4-1.4.4 0 .7.1 1 .4.2.3.4.7.4 1zM295.2 177.2c0-1.4-1-2.6-2.4-2.6s-2.5 1-2.6 2.4c0 1.4 1 2.6 2.4 2.6s2.6-1 2.6-2.4zm-1.1-.1c0 .8-.7 1.4-1.5 1.3-.8 0-1.4-.6-1.3-1.4 0-.8.7-1.3 1.4-1.3.4 0 .7.2 1 .4.3.2.4.6.4 1zM294.7 183.6c.1-1.4-.9-2.6-2.3-2.8-1.4-.1-2.6.9-2.7 2.3-.1 1.4.9 2.6 2.3 2.7 1.4.2 2.6-.8 2.7-2.2zm-1.1-.1c-.1.8-.8 1.3-1.5 1.3-.8-.1-1.3-.7-1.3-1.5.1-.8.8-1.3 1.5-1.2.4 0 .7.2.9.5.3.1.5.5.4.9zM293.9 190.1c.2-1.4-.7-2.7-2.1-2.9-1.4-.2-2.6.8-2.8 2.1-.2 1.4.7 2.6 2.1 2.8 1.4.3 2.6-.7 2.8-2zm-1.1-.2c-.1.8-.8 1.3-1.6 1.2-.8-.1-1.3-.8-1.2-1.6.1-.8.8-1.3 1.6-1.2.4.1.7.2.9.5.3.3.4.7.3 1.1zM292.8 196.5c.3-1.4-.6-2.7-2-3-1.3-.3-2.7.6-2.9 2-.3 1.4.6 2.7 2 2.9 1.3.3 2.6-.6 2.9-1.9zm-1.1-.3c-.1.8-.9 1.2-1.6 1.1-.8-.2-1.3-.8-1.1-1.6.1-.8.9-1.2 1.6-1.1.4.1.7.3.9.6.2.3.3.7.2 1zM291.3 202.9c.4-1.4-.4-2.7-1.8-3.1-1.3-.4-2.7.4-3.1 1.8-.4 1.3.4 2.7 1.8 3.1 1.4.3 2.8-.5 3.1-1.8zm-1-.4c-.2.8-1 1.2-1.7 1-.8-.2-1.2-.9-1-1.7.2-.7 1-1.1 1.7-1 .4.1.7.3.8.6.2.4.3.8.2 1.1zM289.5 209.1c.4-1.3-.3-2.8-1.6-3.2-1.3-.4-2.7.3-3.1 1.6-.4 1.3.3 2.7 1.6 3.2 1.3.4 2.7-.3 3.1-1.6zm-1-.4c-.2.7-1 1.1-1.8.9-.8-.2-1.1-1-.9-1.7.2-.7 1-1.1 1.7-.9.4.1.6.3.8.7.3.3.3.7.2 1zM287.4 215.2c.5-1.3-.1-2.8-1.4-3.3-1.3-.5-2.7.2-3.2 1.4-.5 1.3.1 2.7 1.4 3.2 1.3.6 2.7 0 3.2-1.3zm-1-.4c-.3.7-1.1 1.1-1.8.8-.7-.3-1.1-1-.8-1.8.3-.7 1.1-1 1.8-.8.3.1.6.4.8.7.1.3.1.8 0 1.1zM285 221.3c.6-1.3 0-2.8-1.3-3.3-1.2-.6-2.7 0-3.3 1.3-.6 1.3 0 2.7 1.3 3.3 1.2.4 2.7-.1 3.3-1.3zm-1-.5c-.3.7-1.1 1-1.9.7-.7-.3-1-1.1-.7-1.8.3-.7 1.1-1 1.8-.7.3.2.6.4.7.8.2.2.2.6.1 1zM282.3 227.1c.6-1.3.1-2.8-1.1-3.4-1.2-.6-2.7-.1-3.3 1.1-.6 1.2-.1 2.7 1.1 3.4 1.2.6 2.7.1 3.3-1.1zm-.9-.5c-.3.7-1.2 1-1.9.6-.7-.3-1-1.1-.6-1.9.3-.7 1.2-.9 1.8-.6.3.2.6.4.7.8.1.3.1.7 0 1.1zM279.3 232.8c.7-1.2.3-2.8-1-3.4-1.2-.7-2.7-.2-3.4 1-.7 1.2-.3 2.7 1 3.4 1.2.6 2.7.2 3.4-1zm-.9-.6c-.4.7-1.2.9-1.9.5s-.9-1.2-.5-1.9 1.2-.9 1.9-.5c.3.2.6.5.7.8 0 .4-.1.8-.2 1.1zM276 238.4c.7-1.2.4-2.7-.8-3.5-1.2-.7-2.7-.4-3.4.8-.7 1.2-.4 2.7.8 3.5 1.1.7 2.7.4 3.4-.8zm-.9-.6c-.4.7-1.3.8-1.9.4-.7-.4-.9-1.2-.4-1.9.4-.7 1.3-.8 1.9-.4.3.2.5.5.6.8 0 .4 0 .8-.2 1.1zM272.4 243.8c.8-1.2.6-2.7-.6-3.5-1.1-.8-2.7-.5-3.5.6-.8 1.1-.5 2.7.6 3.5 1.1.8 2.7.5 3.5-.6zm-.9-.7c-.4.6-1.3.8-2 .3-.6-.5-.8-1.3-.3-1.9.4-.6 1.3-.7 1.9-.3.3.2.5.5.6.9.1.3 0 .7-.2 1zM268.6 249c.8-1.1.6-2.7-.5-3.5-1.1-.8-2.7-.6-3.5.5-.8 1.1-.6 2.7.5 3.5 1.1.7 2.7.6 3.5-.5zm-.8-.7c-.5.6-1.3.7-2 .3-.6-.5-.8-1.3-.3-1.9.5-.6 1.3-.7 1.9-.2.3.2.5.5.5.9.2.2.1.6-.1.9zM264.3 254.1c.9-1 .9-2.6-.2-3.6-1-.9-2.6-.8-3.5.2-.9 1-.9 2.6.2 3.5 1 .9 2.6.9 3.5-.1zm-.7-.8c-.5.6-1.4.6-2 .1-.6-.5-.6-1.4-.1-2 .5-.6 1.4-.6 1.9-.1.3.2.4.6.5.9 0 .4-.1.8-.3 1.1zM260.1 258.8c1-1 1-2.6 0-3.6s-2.6-.9-3.5.1c-1 1-1 2.6 0 3.5.9 1 2.5 1 3.5 0zm-.8-.8c-.5.6-1.4.6-2 0-.6-.5-.6-1.4 0-2 .5-.6 1.4-.5 1.9 0 .3.3.4.6.4 1 .1.4-.1.8-.3 1zM255.4 263.4c1-1 1.1-2.5.1-3.6-.9-1-2.5-1.1-3.5-.1-1 .9-1.1 2.5-.1 3.5s2.5 1.1 3.5.2zm-.7-.9c-.6.5-1.4.5-2-.1-.5-.6-.5-1.4.1-2 .6-.5 1.4-.5 1.9.1.3.3.4.6.4 1s-.1.8-.4 1zM250.6 267.7c1.1-.9 1.2-2.5.3-3.6-.9-1-2.5-1.2-3.5-.3-1.1.9-1.2 2.5-.3 3.5.9 1.1 2.4 1.3 3.5.4zm-.7-.9c-.6.5-1.5.4-2-.2-.5-.6-.4-1.4.2-2 .6-.5 1.5-.4 1.9.2.2.3.4.6.3 1 .1.4-.1.8-.4 1zM245.5 271.8c1.1-.8 1.4-2.4.5-3.5-.8-1.1-2.4-1.3-3.5-.5s-1.3 2.4-.5 3.5c.9 1 2.4 1.3 3.5.5zm-.6-1c-.6.5-1.5.3-2-.3s-.4-1.5.3-1.9c.6-.5 1.5-.3 1.9.3.2.3.3.6.3 1s-.2.7-.5.9zM240.4 275.6c1.2-.8 1.4-2.4.6-3.5-.8-1.1-2.4-1.4-3.5-.6-1.1.8-1.4 2.3-.6 3.5.8 1 2.3 1.3 3.5.6zm-.6-1c-.6.4-1.5.3-1.9-.4-.5-.6-.3-1.5.3-1.9.6-.4 1.5-.3 1.9.4.2.3.3.7.2 1 0 .4-.2.7-.5.9zM234.9 279.1c1.2-.7 1.6-2.3.8-3.5-.7-1.2-2.3-1.5-3.4-.8-1.2.7-1.5 2.3-.8 3.5.7 1.1 2.3 1.5 3.4.8zm-.5-1c-.7.4-1.5.2-1.9-.5-.4-.7-.2-1.5.4-1.9.7-.4 1.5-.2 1.9.5.2.3.3.7.2 1-.1.4-.3.7-.6.9zM229.3 282.3c1.2-.7 1.7-2.2 1-3.4-.7-1.2-2.2-1.6-3.4-1-1.2.7-1.7 2.2-1 3.4.7 1.2 2.2 1.7 3.4 1zm-.5-1c-.7.4-1.5.1-1.9-.6-.4-.7-.2-1.5.5-1.9.7-.4 1.5-.1 1.9.6.2.3.2.7.1 1 0 .4-.3.8-.6.9zM223.5 285.4c1.3-.6 1.8-2.1 1.2-3.4-.6-1.2-2.1-1.8-3.3-1.2-1.3.6-1.8 2.1-1.2 3.3.6 1.3 2 1.8 3.3 1.3zm-.4-1.1c-.7.3-1.5 0-1.9-.7-.3-.7-.1-1.5.7-1.8.7-.3 1.5 0 1.8.7.2.3.2.7.1 1.1-.2.3-.4.6-.7.7zM217.6 288c1.3-.5 1.9-2 1.4-3.3-.5-1.3-2-1.9-3.2-1.4-1.3.5-1.9 2-1.4 3.3.4 1.3 1.9 1.9 3.2 1.4zm-.4-1c-.7.3-1.5-.1-1.8-.8-.3-.7 0-1.5.8-1.8.7-.3 1.5.1 1.8.8.1.3.1.7 0 1.1-.2.2-.5.5-.8.7zM211.5 290.4c1.3-.5 2-1.9 1.6-3.2-.4-1.3-1.9-2-3.2-1.6-1.3.5-2 1.9-1.6 3.2.5 1.3 1.9 2 3.2 1.6zm-.3-1.1c-.7.3-1.5-.2-1.8-.9-.3-.7.1-1.5.9-1.8.7-.3 1.5.2 1.7.9.1.4.1.7-.1 1.1-.1.3-.4.6-.7.7zM205.4 292.4c1.3-.4 2.1-1.8 1.7-3.1-.4-1.3-1.8-2.1-3.1-1.7-1.3.4-2.1 1.8-1.7 3.1.5 1.3 1.8 2.1 3.1 1.7zm-.2-1.1c-.7.2-1.5-.2-1.7-.9-.2-.8.2-1.5.9-1.7.7-.2 1.5.2 1.7.9.1.4.1.7-.1 1-.2.4-.5.6-.8.7zM199.2 294.1c1.4-.3 2.2-1.7 1.9-3.1-.3-1.3-1.7-2.2-3-1.8-1.3.3-2.2 1.7-1.8 3 .2 1.4 1.5 2.3 2.9 1.9zm-.2-1.1c-.8.2-1.5-.3-1.7-1-.2-.8.2-1.5 1-1.7.8-.2 1.5.3 1.7 1 .1.4 0 .7-.1 1-.3.4-.6.7-.9.7zM192.9 295.5c1.4-.3 2.3-1.6 2-3-.3-1.3-1.6-2.2-2.9-2-1.4.3-2.3 1.6-2 2.9.2 1.5 1.5 2.4 2.9 2.1zm-.2-1.1c-.8.1-1.5-.4-1.6-1.1-.2-.8.3-1.5 1.1-1.6.8-.1 1.5.4 1.6 1.1.1.4 0 .7-.2 1-.2.3-.6.6-.9.6zM186.5 296.6c1.4-.2 2.4-1.4 2.2-2.8-.2-1.4-1.5-2.3-2.8-2.1-1.4.2-2.3 1.4-2.1 2.8.1 1.3 1.3 2.3 2.7 2.1zm-.1-1.1c-.8.1-1.5-.4-1.6-1.2-.1-.8.4-1.5 1.2-1.6.8-.1 1.4.4 1.5 1.2.1.4 0 .7-.3 1-.1.3-.5.5-.8.6zM180 297.3c1.4-.1 2.4-1.3 2.3-2.7-.1-1.4-1.3-2.4-2.7-2.3-1.4.1-2.4 1.3-2.3 2.7.2 1.4 1.3 2.5 2.7 2.3zm0-1.1c-.8.1-1.4-.5-1.5-1.3-.1-.8.5-1.4 1.3-1.5.8-.1 1.4.5 1.5 1.3 0 .4-.1.7-.3 1-.3.3-.7.5-1 .5zM173.5 297.7c1.4 0 2.5-1.2 2.5-2.6 0-1.4-1.2-2.5-2.6-2.4-1.4 0-2.5 1.2-2.4 2.6 0 1.4 1.2 2.5 2.5 2.4zm0-1.1c-.8 0-1.4-.6-1.4-1.4 0-.8.5-1.4 1.3-1.4s1.4.6 1.4 1.3c0 .4-.1.7-.4 1-.1.3-.5.5-.9.5zM167 297.8c1.4 0 2.6-1.1 2.6-2.5s-1.1-2.5-2.4-2.5c-1.4 0-2.5 1.1-2.6 2.5 0 1.3 1.1 2.5 2.4 2.5zm.1-1.1c-.8 0-1.4-.7-1.4-1.4 0-.8.6-1.4 1.4-1.4.8 0 1.3.7 1.3 1.4 0 .4-.1.7-.4 1-.1.3-.5.4-.9.4zM160.6 297.6c1.4.1 2.6-.9 2.7-2.3.1-1.4-1-2.6-2.3-2.7-1.4-.1-2.6.9-2.7 2.3-.1 1.4.9 2.6 2.3 2.7zm.1-1.1c-.8-.1-1.3-.7-1.3-1.5.1-.8.7-1.3 1.5-1.3.8.1 1.3.7 1.3 1.5 0 .4-.2.7-.5.9-.3.3-.7.4-1 .4zM154.1 297c1.4.2 2.7-.8 2.8-2.2.2-1.4-.8-2.6-2.2-2.8-1.4-.2-2.6.8-2.8 2.2-.1 1.4.8 2.7 2.2 2.8zm.2-1.1c-.8-.1-1.3-.8-1.2-1.6.1-.8.8-1.3 1.5-1.2.8.1 1.3.8 1.2 1.5 0 .4-.2.7-.5.9-.3.3-.7.5-1 .4zM147.8 296.2c1.4.2 2.7-.7 2.9-2.1.2-1.4-.7-2.6-2.1-2.9-1.4-.2-2.7.7-2.9 2.1-.2 1.4.7 2.7 2.1 2.9zm.2-1.1c-.8-.1-1.3-.8-1.1-1.6.1-.8.8-1.3 1.6-1.2.8.1 1.2.8 1.1 1.6-.1.4-.2.7-.5.9-.4.2-.8.4-1.1.3zM141.4 295c1.4.3 2.7-.6 3-1.9.3-1.3-.6-2.7-1.9-3-1.4-.3-2.7.6-3 1.9-.3 1.3.5 2.7 1.9 3zm.3-1.1c-.8-.2-1.2-.9-1.1-1.7.2-.8.9-1.2 1.6-1.1.8.2 1.2.9 1 1.6-.1.4-.3.7-.6.9-.2.3-.6.4-.9.3zM135.1 293.4c1.4.4 2.7-.4 3.1-1.8.4-1.3-.4-2.7-1.8-3.1-1.3-.4-2.7.4-3.1 1.8-.3 1.4.4 2.8 1.8 3.1zm.3-1c-.8-.2-1.2-1-1-1.7.2-.8.9-1.2 1.7-1 .7.2 1.1 1 1 1.7-.1.4-.3.7-.6.8-.3.2-.7.2-1.1.2zM128.9 291.5c1.3.4 2.8-.3 3.2-1.6.4-1.3-.3-2.7-1.6-3.1-1.3-.4-2.7.3-3.2 1.6-.4 1.3.3 2.7 1.6 3.1zm.4-1c-.7-.2-1.1-1-.9-1.8.2-.8 1-1.1 1.7-.9.7.2 1.1 1 .9 1.7-.1.4-.3.6-.7.8-.3.3-.7.3-1 .2zM122.8 289.3c1.3.5 2.8-.1 3.3-1.4.5-1.3-.2-2.7-1.4-3.2-1.3-.5-2.7.1-3.2 1.4-.6 1.3 0 2.8 1.3 3.2zm.4-1c-.7-.3-1.1-1.1-.8-1.8.3-.7 1-1.1 1.8-.8.7.3 1 1.1.8 1.8-.1.3-.4.6-.7.8-.3.1-.8.2-1.1 0zM116.8 286.8c1.3.6 2.8 0 3.3-1.3.6-1.2 0-2.7-1.3-3.3-1.3-.6-2.7 0-3.3 1.3-.5 1.3 0 2.8 1.3 3.3zm.5-.9c-.7-.3-1-1.1-.7-1.9.3-.7 1.1-1 1.8-.7.7.3 1 1.1.7 1.8-.2.3-.4.6-.8.7-.3.2-.7.2-1 .1zM111 284.1c1.3.6 2.8.1 3.4-1.1.6-1.2.1-2.7-1.1-3.3-1.2-.6-2.7-.1-3.4 1.1-.6 1.2-.2 2.7 1.1 3.3zm.5-.9c-.7-.3-1-1.2-.6-1.9.3-.7 1.1-1 1.9-.6.7.3.9 1.2.6 1.8-.2.3-.4.6-.8.7-.4.1-.8.1-1.1 0zM105.2 280.9c1.2.7 2.7.4 3.5-.8.7-1.2.3-2.7-.8-3.4-1.2-.7-2.7-.3-3.4.8-.9 1.2-.5 2.7.7 3.4zm.6-.9c-.7-.4-.9-1.3-.5-1.9.4-.7 1.2-.9 1.9-.5s.8 1.2.4 1.9c-.2.3-.5.5-.8.6-.3.1-.7.1-1-.1zM99.7 277.6c1.2.8 2.7.5 3.5-.7.7-1.1.4-2.7-.7-3.5-1.2-.8-2.7-.4-3.5.7-.8 1.2-.5 2.7.7 3.5zm.6-.9c-.7-.4-.8-1.3-.4-1.9.4-.7 1.3-.8 1.9-.4.6.4.8 1.3.4 1.9-.2.3-.5.5-.9.6-.3 0-.7 0-1-.2zM94.3 273.9c1.1.8 2.7.6 3.5-.5.8-1.1.6-2.7-.5-3.5-1.1-.8-2.7-.6-3.5.5-.8 1.1-.6 2.7.5 3.5zm.7-.8c-.6-.5-.7-1.3-.3-2 .5-.6 1.3-.8 1.9-.3.6.5.7 1.3.3 1.9-.2.3-.5.5-.9.6-.3 0-.7 0-1-.2zM89.2 270c1.1.9 2.7.7 3.6-.4.9-1.1.7-2.7-.4-3.5-1.1-.9-2.7-.7-3.5.4-.9 1-.8 2.6.3 3.5zm.7-.8c-.6-.5-.7-1.4-.2-2 .5-.6 1.3-.7 2-.2.6.5.7 1.4.2 1.9-.2.3-.5.5-.9.5-.4.1-.8 0-1.1-.2zM84.2 265.8c1 .9 2.6.9 3.6-.2.9-1 .8-2.6-.2-3.5-1-.9-2.6-.9-3.5.2-.9 1-.9 2.6.1 3.5zm.8-.8c-.6-.5-.6-1.4-.1-2 .5-.6 1.4-.6 2-.1.6.5.6 1.4.1 1.9-.3.3-.6.4-.9.5-.4.1-.8-.1-1.1-.3zM79.5 261.4c1 1 2.6 1 3.6 0s.9-2.6-.1-3.5c-1-1-2.6-1-3.5 0-1 1-1 2.6 0 3.5zm.8-.7c-.6-.5-.6-1.4 0-2 .5-.6 1.4-.6 2 0 .6.5.5 1.4 0 1.9-.3.3-.6.4-1 .4-.3.1-.7-.1-1-.3zM75 256.8c1 1 2.5 1.1 3.6.1 1-.9 1.1-2.5.1-3.5-.9-1-2.5-1.1-3.5-.1-1 .9-1.1 2.5-.2 3.5zm.9-.8c-.5-.6-.5-1.4.1-2 .6-.5 1.4-.5 2 .1.5.6.5 1.4-.1 1.9-.3.3-.6.4-1 .4-.4.1-.8-.1-1-.4zM70.8 251.9c.9 1.1 2.5 1.2 3.6.3 1-.9 1.2-2.5.3-3.5-.9-1.1-2.5-1.2-3.5-.3-1.1.8-1.3 2.4-.4 3.5zm.8-.7c-.5-.6-.4-1.5.2-2 .6-.5 1.4-.4 2 .2.5.6.4 1.5-.2 1.9-.3.2-.6.4-1 .3-.3 0-.7-.1-1-.4zM66.7 246.7c.8 1.1 2.4 1.4 3.5.6 1.1-.8 1.4-2.4.6-3.5-.8-1.1-2.4-1.4-3.5-.6-1.1.8-1.4 2.4-.6 3.5zm.9-.6c-.5-.6-.3-1.5.3-2s1.5-.3 1.9.3c.5.6.3 1.5-.3 1.9-.3.2-.7.3-1 .3-.3 0-.7-.2-.9-.5zM63 241.4c.8 1.2 2.3 1.5 3.5.8 1.1-.7 1.5-2.3.7-3.4-.8-1.2-2.3-1.5-3.5-.7-1.1.6-1.5 2.1-.7 3.3zm.9-.6c-.4-.7-.2-1.5.4-1.9.7-.4 1.5-.3 1.9.4.4.6.2 1.5-.4 1.9-.3.2-.7.3-1 .2-.3 0-.7-.3-.9-.6zM59.5 236c.7 1.2 2.3 1.6 3.5.9 1.2-.7 1.6-2.3.9-3.4-.7-1.2-2.2-1.6-3.4-.9-1.3.7-1.7 2.2-1 3.4zm1-.5c-.4-.7-.2-1.5.5-1.9.7-.4 1.5-.2 1.9.5.4.7.2 1.5-.5 1.9-.3.2-.7.3-1 .2-.4-.2-.7-.4-.9-.7zM56.3 230.3c.7 1.2 2.2 1.7 3.4 1.1 1.2-.6 1.7-2.2 1-3.4-.7-1.2-2.2-1.7-3.4-1-1.1.6-1.6 2.1-1 3.3zm1-.4c-.4-.7-.1-1.5.6-1.9.7-.4 1.5-.1 1.9.6.4.7.1 1.5-.6 1.9-.3.2-.7.2-1 .1-.4-.2-.7-.4-.9-.7zM53.5 224.5c.6 1.3 2.1 1.8 3.4 1.2 1.2-.6 1.8-2.1 1.2-3.3-.6-1.3-2.1-1.8-3.3-1.2-1.3.6-1.9 2.1-1.3 3.3zm1-.4c-.3-.7 0-1.5.7-1.9.7-.3 1.5-.1 1.8.7.3.7 0 1.5-.7 1.8-.3.2-.7.2-1.1.1-.2-.1-.6-.4-.7-.7zM50.9 218.6c.5 1.3 2 1.9 3.3 1.4 1.3-.5 1.9-2 1.4-3.2-.5-1.3-2-1.9-3.3-1.4-1.3.5-1.9 1.9-1.4 3.2zm1-.4c-.3-.7.1-1.5.8-1.8.7-.3 1.5 0 1.8.8.3.7-.1 1.5-.8 1.8-.3.1-.7.1-1.1 0-.2-.2-.5-.5-.7-.8zM48.6 212.5c.5 1.3 1.9 2 3.2 1.6 1.3-.4 2-1.9 1.6-3.2-.5-1.3-1.9-2-3.2-1.6-1.3.5-2 1.9-1.6 3.2zm1.1-.3c-.3-.7.2-1.5.9-1.8.7-.3 1.5.1 1.8.9.3.7-.2 1.5-.9 1.7-.4.1-.7.1-1.1-.1-.3-.1-.6-.4-.7-.7zM46.6 206.4c.4 1.3 1.8 2.1 3.1 1.7 1.3-.4 2.1-1.8 1.7-3.1-.4-1.3-1.8-2.1-3.1-1.7-1.3.4-2.1 1.8-1.7 3.1zm1.1-.3c-.2-.7.2-1.5.9-1.7.8-.2 1.5.2 1.7.9.2.7-.2 1.5-.9 1.7-.4.1-.7.1-1-.1-.3-.1-.6-.4-.7-.8zM45 200.1c.3 1.4 1.7 2.2 3.1 1.9 1.3-.3 2.2-1.7 1.8-3-.3-1.3-1.7-2.2-3-1.8-1.4.3-2.2 1.6-1.9 2.9zm1.1-.2c-.2-.8.3-1.5 1-1.7.8-.2 1.5.2 1.7 1 .2.8-.3 1.5-1 1.7-.4.1-.7 0-1-.1-.4-.2-.6-.5-.7-.9zM43.7 193.8c.3 1.4 1.6 2.3 3 2 1.3-.3 2.2-1.6 2-2.9-.3-1.4-1.6-2.3-2.9-2-1.5.2-2.4 1.5-2.1 2.9zm1.1-.2c-.1-.8.4-1.5 1.1-1.6.8-.2 1.5.3 1.6 1.1.1.8-.4 1.5-1.1 1.6-.4.1-.7 0-1-.2-.3-.2-.6-.5-.6-.9zM42.7 187.4c.2 1.4 1.4 2.4 2.8 2.2 1.4-.2 2.3-1.5 2.1-2.8-.2-1.4-1.4-2.3-2.8-2.1-1.3.1-2.3 1.3-2.1 2.7zm1.1-.1c-.1-.8.4-1.5 1.2-1.6.8-.1 1.5.4 1.6 1.2.1.8-.4 1.4-1.2 1.5-.4.1-.7 0-1-.3-.3-.1-.6-.5-.6-.8zM42 180.9c.1 1.4 1.3 2.4 2.7 2.3 1.4-.1 2.4-1.3 2.3-2.7-.1-1.4-1.3-2.4-2.7-2.3-1.3.2-2.4 1.3-2.3 2.7zm1.1 0c-.1-.8.5-1.4 1.3-1.5.8-.1 1.4.5 1.5 1.3.1.8-.5 1.4-1.3 1.5-.4 0-.7-.1-1-.3-.2-.3-.4-.7-.5-1z"/><path class="st12" d="M187.4 269.7c-.5-.2-1-.2-1.5-.2-1.1.2-2.1 1.2-1.9 2.4.1.5.4 1 .9 1.2.4.2 1 .2 1.5.2l1 .1c.4 0 1 0 1.1.5.1.6-.5.9-1 1-1.1.2-2-.4-2.6-1.2l-.6.4 1.2 2.1.5-.1v-.4c.5.2 1.2.3 1.7.2 1.3-.2 2.3-1.3 2.1-2.7-.1-.5-.4-1-.9-1.2-.4-.2-1-.2-1.5-.2H186.5c-.3 0-1 0-1.1-.4-.1-.5.5-.7.8-.8.4-.1.8 0 1.2.2.3.1.6.4.9.7l.1.1.6-.4-.9-1.7-.5.1-.2.1zM194.9 272l-2.1-2.5c-.1-.1-.2-.2-.2-.3-.1-.3.4-.5.6-.6l-.2-.7-3.1 1.1.2.7c.7-.2.8-.1 1.3.4l3.1 3.8 1.2-.4.1-4.7c0-.5.1-1.1.7-1.3l-.2-.7-2.4.8.2.7c.3 0 .7-.2.8.1v3.6z"/><path class="st11" d="M203.1 270.2c.6-.3 1.1-.6 1.4-1.2.3-.5.2-1.1 0-1.6-.3-.6-1-.9-1.7-.8.3-.4.4-1 .2-1.5-.3-.5-.7-.8-1.3-.8-.5 0-1.2.3-1.6.6l-2.9 1.6.3.7.2-.1c.6-.2.6.1.9.5l1.4 2.6c.3.6.4.7-.2 1.1l.3.7 3-1.8zm-2.8-2.7l-.5-.9c-.1-.1-.2-.3-.1-.5.1-.1.4-.3.5-.4.5-.3 1.1-.4 1.5.2.3.6-.3 1-.8 1.3l-.6.3zm.4.7l.6-.3c.7-.3 1.3-.6 1.7.2.4.7-.1 1.2-.7 1.5-.2.1-.5.2-.7.2-.2 0-.2-.2-.3-.3l-.6-1.3z"/><path class="st12" d="M214.1 259.6l-.7.2c.2 1 .1 2.1-.7 2.8-.5.4-.5.2-.9-.2l-2-2.3c-.1-.1-.4-.4-.4-.6 0-.2.2-.4.4-.6l-.5-.6-2.4 2.1.5.6c.6-.4.7-.3 1.1.2l1.9 2.2c.4.5.5.6 0 1.2l.5.6 3.7-3.2-.5-2.4zM218.3 257.1c-.2.2-.5.4-.7.4-.2 0-.4-.3-.5-.4l-2.1-2c-.1-.1-.4-.4-.4-.6 0-.2.2-.5.4-.6l-.5-.5-2.2 2.4.5.5c.1-.1.4-.3.6-.3.2 0 .4.3.5.4l2.1 2c.1.1.4.4.4.6 0 .2-.2.4-.3.6l.5.5 2.2-2.4-.5-.6z"/><path class="st11" d="M222.4 253.2c.4-.5.8-1 .8-1.7 0-.6-.3-1.1-.7-1.5-.6-.4-1.3-.4-1.9 0 .1-.5-.1-1.1-.5-1.4-.4-.3-1-.4-1.5-.2s-.9.8-1.3 1.2l-2 2.6.6.4.2-.1c.4-.4.6-.2 1 .1l2.3 1.7c.6.4.6.5.3 1.1l.6.4 2.1-2.6zm-3.6-1.3l-.8-.6c-.1-.1-.3-.2-.3-.4 0-.1.2-.4.3-.5.3-.4.8-.9 1.4-.5.5.4.1 1.1-.2 1.5l-.4.5zm.6.5l.4-.5c.4-.6.9-1.1 1.6-.5.6.5.4 1.1 0 1.6-.1.2-.3.4-.5.5-.1 0-.3-.1-.4-.2l-1.1-.9z"/><path class="st12" d="M223.3 243.4l-.3.6c.2.1.5.3.6.5.1.3-.1.5-.2.7l-.1.2-.6-.3c-.2-.1-.5-.3-.6-.5-.1-.2.2-.6.3-.8.5-.9 1.3-1.2 2.3-1.3l.1-.7-2.1-.2-2.7 4.5.6.4.1-.2c.4-.4.6-.3 1 0l2.5 1.5c.5.3.6.4.4.9l-.1.1.6.4 2.8-4.6-1.3-1.9-.6.4c.5 1.1.6 2 0 3.1-.1.2-.3.5-.5.5-.1 0-.7-.3-.8-.4l-.8-.5.1-.1c.1-.2.3-.5.6-.6.3 0 .5.1.8.2l.4-.6-2.5-1.3z"/><path class="st11" d="M228.9 236.9c.2-.8-.1-1.7-.9-2.1-.6-.3-1.3-.1-1.7.3-.4.4-.7 1-.9 1.5l-1.5 3 .7.3.1-.1c.3-.6.5-.5 1.1-.2l2.6 1.3c.6.3.7.4.5 1v.1l.7.3 1.4-2.9-.7-.3-.1.1c-.3.6-.5.6-1.1.3l-.9-.5.2-.4 3.2-.6.9-1.9-.7-.3c-.3.6-.6.6-1.1.7l-1.8.4zm-1.6 1.8l-1.2-.6c-.1 0-.3-.1-.3-.2-.1-.2.1-.5.2-.7.1-.3.3-.6.6-.7.2-.1.6-.2.8-.1.3.2.4.5.4.9s-.2.7-.4 1.1l-.1.3z"/><path class="st12" d="M232.6 231.8c.2.1.5.2.6.3.1.2 0 .5 0 .7v.1l.7.3 1.3-3-.7-.3v.1c-.1.2-.2.5-.5.5-.2.1-.5-.1-.6-.2L230 229c-.2-.1-.2-.1-.1-.2.1-.3.5-.5.8-.7.3-.1.6-.2 1-.2v-.7l-2-.1-1.9 4.5 1.4 1.4.5-.5c-.2-.3-.4-.6-.5-.9-.1-.3-.2-.7 0-1 .1-.2.1-.1.3-.1l3.1 1.3z"/><path class="st11" d="M231.6 221.7l-.5 1.3 3.4 3c.5.5.9.8.7 1.6l.7.2.9-2.6-.7-.2v.1c-.1.2-.3.7-.6.6-.1 0-.3-.2-.4-.2l-.5-.5.6-1.8h1.2c.3.1.1.6 0 .8l.7.2 1.1-3.1-.7-.2v.1c-.3.5-.5.5-1.1.6l-4.8.1zm2.4 2.7l-1.4-1.2 1.9-.1-.5 1.3z"/><path class="st12" d="M237.8 217.4c.2.1.5.1.6.3.1.2.1.5 0 .7v.1l.7.2 1-3.1-.7-.2v.1c-.1.2-.2.5-.4.5-.2.1-.5 0-.7-.1l-3.3-1c-.2 0-.2-.1-.2-.2.1-.3.4-.6.7-.8.3-.2.6-.3 1-.3l-.1-.7-2 .1-1.4 4.7 1.6 1.2.4-.6c-.3-.3-.5-.5-.6-.9-.1-.3-.2-.7-.2-1 .1-.2.1-.2.3-.1l3.3 1.1zM237.7 207.2l-.2.7c.2.1.6.2.7.4.2.2 0 .5 0 .8l-.1.3-.6-.2c-.2-.1-.6-.1-.7-.3-.1-.2 0-.7.1-.8.3-1 1-1.5 1.9-1.8l-.1-.7-2 .3-1.4 5 .7.2.1-.2c.3-.5.5-.4 1-.3l2.8.8c.5.2.7.2.7.8v.2l.7.2 1.5-5.1-1.8-1.5-.5.5c.8 1 1.1 1.8.8 3-.1.2-.2.6-.4.6s-.7-.2-.9-.2l-.9-.3v-.1c.1-.3.2-.6.4-.7.2-.1.5-.1.8 0l.2-.7-2.8-.9z"/><path class="st11" d="M108.1 236.1l.2.7c.4 1.2 1.1 2.4 2.6 1.9.6-.2 1.1-.7 1.2-1.4.1-.6-.1-1.2-.3-1.7l-1-3-.8.4c.2.7 0 .8-.6 1l-2.7.9c-.6.2-.8.3-1.1-.4l-.7.2 1 2.9.7-.2c-.2-.7 0-.8.6-1l.9-.3zm.7-.2l1.4-.5c.1 0 .3-.1.4 0 .1.1.2.3.3.5.2.6 0 1.1-.6 1.3-.3.1-.6.1-.9-.1-.3-.2-.4-.6-.5-.9l-.1-.3z"/><path class="st12" d="M112.1 246.2v-.7c-1 0-2-.4-2.5-1.3-.3-.5-.1-.6.4-.8l2.7-1.4c.2-.1.5-.3.7-.2.2.1.4.3.5.5l.7-.3-1.4-2.8-.7.3c.3.7.1.8-.4 1.1l-2.6 1.3c-.6.3-.7.4-1.1-.3l-.7.3 2.2 4.4 2.2-.1z"/><path class="st11" d="M118.3 248.1l-.8-1.1-4.4 1c-.7.2-1.2.3-1.7-.3l-.6.4 1.6 2.3.6-.4v-.1c-.1-.2-.4-.6-.1-.8.1-.1.3-.1.4-.2l.7-.2 1.1 1.6-.4.6c-.1.1-.2.3-.3.4-.2.2-.5-.3-.7-.4l-.6.4 1.9 2.7.6-.4-.1-.1c-.3-.6-.2-.7.2-1.2l2.6-4.2zm-3.6.5l1.8-.5-1 1.6-.8-1.1z"/><path class="st12" d="M121.5 257.6c-.8.2-1.8.2-2.4-.4-.4-.4-.5-.9-.4-1.5.1-.5.5-1.1.8-1.4.7-.7 1.9-1.4 2.8-.5.3.3.5.8.5 1.3 0 .4-.1.9-.2 1.3v.1l.7.3.9-2.1-.4-.4-.2.1c-.2-.5-.4-.9-.8-1.3-1.4-1.4-3.2-1.2-4.5.1-1.3 1.3-1.3 3.2 0 4.5.9.9 2.3 1.3 3.5.7l-.3-.8zM125.1 262.5c-.2-.2-.4-.4-.4-.6 0-.2.2-.4.3-.6l1.8-2.2c.1-.2.3-.4.5-.5.2 0 .5.2.7.3l.5-.6-2.5-2-.5.6c.1.1.4.4.4.6 0 .2-.2.4-.3.6l-1.8 2.2c-.1.2-.3.4-.5.5-.2 0-.5-.2-.6-.3l-.5.6 2.5 2 .4-.6z"/><path class="st11" d="M126.3 264.3l2.5 1.6c.8.5 1.5 1 2.5.8.9-.1 1.6-.7 2.1-1.5.4-.6.6-1.2.5-1.9 0-.6-.2-1.2-.6-1.7-.3-.4-1-.8-1.4-1.1l-2.3-1.5-.4.6c.6.5.5.6.2 1.2l-1.6 2.4c-.3.5-.5.7-1.1.3l-.4.8zm4.6-2.7c.3-.5.4-.4.9-.1.4.3.8.7.8 1.3 0 .6-.2 1.1-.5 1.6-.7 1-1.7 1.6-2.8.9-.1-.1-.3-.2-.4-.4-.1-.1.1-.3.1-.4l1.9-2.9zM140 265l-1.3-.6-3.3 3c-.5.5-.9.8-1.6.6l-.3.7 2.5 1.2.3-.7h-.1c-.2-.1-.6-.3-.5-.6 0-.1.2-.2.3-.3l.5-.5 1.8.8-.1.7c0 .1 0 .4-.1.5-.1.3-.6 0-.8-.1l-.3.7 3 1.4.3-.7h-.1c-.5-.4-.5-.5-.4-1.1l.2-5zm-3 2.1l1.4-1.3-.1 1.9-1.3-.6z"/><path class="st12" d="M145.8 267.2l-2.7-.8-.2.7c.7.3.7.5.5 1.1l-.8 2.8c-.2.6-.3.8-1 .6l-.2.7 2.4.7.2-.7h-.1c-.2-.1-.5-.2-.5-.4-.1-.2 0-.5.1-.7l.9-3 .1 5 1 .3 2.8-4-.9 2.9c-.1.2-.2.5-.3.6-.2.1-.5 0-.7 0h-.1l-.2.7 3.1 1 .2-.7h-.1c-.2-.1-.5-.2-.6-.4-.1-.2.1-.5.1-.7l.8-2.8c.1-.2.1-.5.3-.6.2-.1.5 0 .7 0l.2-.7-2.7-.8-2.3 3.3v-4.1zM97 145.9l.1-.7c-.2 0-.6-.1-.8-.2-.2-.2-.1-.5-.1-.8v-.3l.6.1c.2 0 .6 0 .8.2.1.1.1.6.1.8-.1 1-.7 1.7-1.6 2.1l.2.6 2-.7.6-5.2-.7-.1-.1.2c-.2.6-.4.5-.9.4l-2.9-.4c-.6-.1-.7-.1-.8-.7v-.2l-.7-.1-.7 5.3 2 1.2.4-.6c-.9-.8-1.4-1.6-1.3-2.9 0-.2.1-.6.3-.6.1 0 .7.1.9.1l.9.1v.1c0 .3-.1.6-.3.8-.2.1-.5.1-.8.1l-.1.7 2.9.7zM97.8 152.5l.2-2.6-.7-.1c0 .2-.1.6-.3.7-.2.1-.5 0-.7 0l-2.9-.3c-.2 0-.5 0-.7-.2-.1-.1-.1-.5-.1-.7l-.7-.1-.2 2.4.7.1c0-.2.1-.6.3-.7.2-.1.5 0 .7 0l3.1.3-5 2.4-.1 1.1 4.5.4c.6.1.8.1.8.9l.7.1.2-2.4-.7-.1c-.1.8-.3.7-.9.7l-1.9-.2 3.7-1.7zM96.8 162.1c.3-.4.5-.9.5-1.4.1-1.2-.6-2.3-1.8-2.4-.5 0-1 .1-1.4.5-.3.4-.5.9-.6 1.3l-.3 1c-.1.4-.2.9-.7.9-.6 0-.7-.7-.7-1.2.1-1.1.9-1.8 1.8-2.2l-.2-.7-2.3.6v.5l.4.2c-.4.4-.6 1.1-.6 1.6-.1 1.3.6 2.6 2 2.7.5 0 1-.1 1.3-.6.3-.4.4-.9.6-1.4l.2-.6.1-.3c.1-.3.2-1 .7-.9.5 0 .6.6.6 1s-.2.8-.4 1.1c-.2.3-.6.5-.9.7l-.1.1.2.7 1.9-.5v-.5l-.3-.2zM95 170l.1-.7c-.2 0-.6-.1-.8-.2-.2-.2-.1-.5-.1-.8v-.3l.6.1c.2 0 .6 0 .8.2.1.1.1.6.1.8-.1 1-.7 1.7-1.5 2.1l.2.6 1.9-.7.5-5.2-.7-.1-.1.2c-.1.6-.4.5-.9.4l-2.9-.3c-.6 0-.8-.1-.8-.6v-.2l-.7-.1-.5 5.3 2 1.2.4-.6c-.9-.8-1.5-1.6-1.4-2.8 0-.2.1-.6.3-.6h.9l.9.1v.1c0 .3 0 .6-.3.8-.2.1-.5.2-.8.2l-.1.7 2.9.4z"/><path class="st11" d="M91.6 180.9l-.1.8c-.1 1.2.1 2.6 1.6 2.7.6 0 1.3-.2 1.6-.8.3-.5.3-1.1.4-1.7l.2-3.1-.7-.1c-.1.7-.3.7-.9.7l-2.9-.2c-.6 0-.8-.1-.8-.8l-.7-.1-.2 3.1.7.1c.1-.7.3-.7.9-.6h.9zm.8.1l1.4.1c.1 0 .3 0 .4.1.1.1.1.4.1.5 0 .6-.4 1-1.1 1-.3 0-.6-.2-.8-.5-.2-.3-.2-.7-.1-1.1l.1-.1z"/><path class="st12" d="M93.8 189.9v-.7c-.2 0-.6 0-.8-.1-.2-.1-.2-.5-.2-.7v-.3h.6c.2 0 .6-.1.8 0 .2.1.2.6.2.8.1 1-.4 1.8-1.2 2.4l.3.6 1.8-1-.4-5.2-.7.1v.2c-.1.6-.3.5-.8.6l-2.9.2c-.6 0-.8 0-.9-.5v-.2l-.7.1.4 5.3 2.2.8.3-.7c-1.1-.6-1.7-1.3-1.8-2.6 0-.2 0-.6.2-.7.1-.1.7-.1.9-.1l.9-.1v.1c0 .3.1.6-.2.8-.2.2-.5.2-.7.3v.7l2.7-.1zM91.7 196c-.2 0-.5.2-.7.1-.2-.1-.3-.4-.4-.6v-.1l-.7.2.9 3.2.7-.2v-.1c0-.2-.1-.5.1-.7.1-.2.4-.2.6-.3l3.4-.9c.2-.1.2-.1.3.1.1.3 0 .7-.2 1-.2.3-.4.5-.7.8l.4.6 1.6-1.2-1.3-4.8-2-.2-.1.7c.4.1.7.2 1 .4.3.2.6.5.7.8 0 .2 0 .2-.2.2l-3.4 1zM93.8 204.7c-.1-.3-.2-.6-.1-.8.1-.2.4-.3.6-.3l2.7-1.1c.2-.1.5-.2.7-.2.2.1.3.4.4.6l.7-.3-1.3-3-.7.3v.1c.1.2.1.5.1.7-.1.2-.4.3-.6.3l-2.7 1.1c-.2.1-.5.2-.7.2-.2-.1-.3-.3-.4-.6l-.7.3 1.3 3 .7-.3zM96.6 208c-.2.1-.4.3-.6.2-.2 0-.4-.3-.5-.4l-.1-.1-.6.4 1.6 2.9.6-.4-.1-.1c-.1-.2-.2-.5-.1-.7.1-.2.4-.3.5-.4l3-1.7c.1-.1.2-.1.3 0 .2.3.1.7.1 1-.1.3-.2.6-.5 1l.5.4 1.3-1.5-2.4-4.3-2 .3.1.7c.4 0 .7 0 1.1.1.3.1.7.3.8.6.1.2 0 .2-.1.3l-2.9 1.7z"/><path class="st11" d="M250.7 189.4c.1-.1.3-.2.5-.2.4 0 .7.4.9.7.2.4.3 1 .4 1.5 0 .3 0 1-.2 1.2-.1.1-.2.2-.3.2-.3.1-.6.4-.6.7 0 .3.3.6.7.6.6 0 .9-.8 1-1.3.2-.6.2-1.2.2-1.8 0-.7-.2-1.5-.6-2.1-.4-.6-1-1.2-1.8-1.2-.5 0-.9.3-1.2.7-.6-.3-1.3-.5-1.9-.4-1.9.1-3 1.7-2.9 3.5.1 1.9 1.6 3.2 3.5 3.1 1.8-.1 3-1.6 2.9-3.4 0-.7-.2-1.3-.6-1.8zm-.7 2.8c-.4.5-1.2.7-1.8.7-1 .1-2.3-.2-2.4-1.5-.1-1.2 1.2-1.6 2.1-1.7.4 0 .7 0 1.1.1 0 .3-.1.7-.1 1 .1.5.4 1.4 1.1 1.4zm.1-1.8c.2.2.3.5.3.7 0 .1 0 .4-.2.4s-.2-.3-.3-.4c0-.2.1-.5.2-.7z"/><path class="st12" d="M248.3 182.1l-2.8 1.7c-.1.1-.3.2-.3.2-.3.1-.4-.4-.5-.7l-.7.1.6 3.3.7-.1c-.1-.7 0-.8.6-1.2l4.1-2.6-.2-1.2-4.6-.8c-.5-.1-1.1-.2-1.2-.8l-.7.1.5 2.5.7-.1c0-.3-.1-.7.2-.8h.4l3.2.4zM247.4 173.5c0 .3.1.6-.1.8-.1.1-.4.2-.6.2l-2.8.6c-.2 0-.5.1-.7 0-.2-.1-.3-.4-.3-.7l-.7.2.7 3.2.7-.2v-.1c0-.2 0-.5.1-.7.1-.1.4-.2.6-.2l2.8-.6c.2 0 .5-.1.7 0 .2.1.3.4.3.6l.7-.2-.7-3.2-.7.3zM242.1 167.6l.1.7c.2 0 .6-.1.8 0 .3.1.3.5.3.7v.3l-.6.1c-.2 0-.6.1-.8.1-.2-.1-.3-.6-.3-.8-.2-1 .2-1.8.9-2.5l-.4-.5-1.7 1.2 1 5.1.7-.1v-.2c0-.6.2-.6.7-.7l2.8-.6c.5-.1.7-.1.9.4l.1.1.7-.1-1-5.2-2.3-.6-.2.7c1.1.5 1.8 1.1 2.1 2.3 0 .2.1.6-.1.7-.1.1-.7.2-.9.2l-.9.2v-.1c0-.3-.1-.6.1-.8.2-.2.5-.3.7-.4l-.1-.7-2.6.5zM244 160.3c.2 0 .5-.1.7 0 .2.1.3.4.3.6v.1l.7-.1-.4-3.3-.7.1v.1c0 .2 0 .5-.1.7-.1.1-.5.2-.6.2l-3.4.4c-.2 0-.2 0-.2-.1 0-.3.1-.7.3-1 .2-.3.5-.5.8-.7l-.3-.6-1.8.9.6 4.9 1.9.5.2-.7c-.4-.2-.7-.3-.9-.5-.2-.2-.5-.5-.6-.9 0-.2 0-.2.2-.2l3.3-.4zM240.2 149.6v.7c.2 0 .6 0 .8.1.2.2.2.5.2.8v.3h-.6c-.2 0-.6 0-.8-.1-.2-.1-.2-.6-.2-.8 0-1 .5-1.7 1.3-2.3l-.3-.6-1.8.9.1 5.2h.7v-.2c.1-.6.3-.5.8-.5l2.9-.1c.6 0 .8 0 .9.6v.2h.7l-.1-5.3-2.1-1-.3.6c1 .7 1.6 1.4 1.6 2.7 0 .2 0 .6-.2.7-.1 0-.7 0-.9.1h-.9v-.1c0-.3 0-.6.2-.8.2-.1.5-.2.8-.2v-.7l-2.8-.2zM239.3 141.4l-.4 2.7.7.1c.2-.7.3-.7 1-.6l2.9.4c.6.1.8.1.8.9l.7.1.3-2.4-.7-.1v.1c0 .2-.1.5-.3.6-.2.1-.5 0-.7 0l-3.1-.4 4.9-.9.1-1-4.4-2.2 3 .4c.2 0 .6.1.7.2.1.2.1.5.1.7v.1l.7.1.5-3.2-.7-.1v.1c0 .2-.1.5-.3.6-.2.1-.5 0-.7 0l-2.9-.4c-.2 0-.5 0-.7-.2-.1-.2-.1-.5-.1-.7l-.7-.1-.4 2.8 3.6 1.8-3.9.6z"/><path class="st13" d="M136.7 33.2c0-1.1.9-2 2-2s2 .9 2 2-.9 2-2 2c-1.2 0-2-.9-2-2zM141.6 32c0-1.1.9-2 2-2s2 .9 2 2-.9 2-2 2c-1.2 0-2-.9-2-2zM146.4 31c0 2.5 2.6 4.8 5.7 4.8 4.9-.7 3.3 1.9 3.6 3.3.3 1.6 2.4-3.7.4-5.2-1.2-.9 1.8-1.6 1.8-2.9 0-1.3-2.7-1.9-1.5-2.8 2-1.5.2-6.8-.4-5.2-.5 1.3 1.3 4-3.6 3.3-3.1 0-6 2.2-6 4.7z"/><path class="st14" d="M154.1 31.1c0-.4.6-.8 1.2-.8.7 0 1.2.3 1.2.8 0 .4-.6.8-1.2.8-.7 0-1.2-.4-1.2-.8z"/><path class="st13" d="M196.3 33.1c0-1.1.9-2 2-2s2 .9 2 2-.9 2-2 2c-1.2 0-2-.9-2-2zM191.4 31.9c0-1.1.9-2 2-2s2 .9 2 2-.9 2-2 2c-1.2 0-2-.9-2-2zM190.6 30.9c0 2.5-2.6 4.8-5.7 4.8-4.9-.7-3.3 1.9-3.6 3.3-.3 1.6-2.4-3.7-.4-5.2 1.2-.9-1.8-1.6-1.8-2.9 0-1.3 2.7-1.9 1.5-2.8-2-1.5-.2-6.8.4-5.2.5 1.3-1.3 4 3.6 3.3 3.1 0 6 2.2 6 4.7z"/><path class="st14" d="M180.4 31c0-.4.6-.8 1.2-.8.7 0 1.2.3 1.2.8 0 .4-.6.8-1.2.8-.7 0-1.2-.4-1.2-.8z"/><path class="st13" d="M162.3 34.1c0-1 .8-1.9 1.9-1.9 1 0 1.9.9 1.9 1.9 0 1.1-.9 1.9-1.9 1.9-1.1 0-1.9-.8-1.9-1.9zM170.2 34c0-1 .8-1.9 1.9-1.9 1 0 1.9.9 1.9 1.9 0 1.1-.9 1.9-1.9 1.9-1.1 0-1.9-.8-1.9-1.9zM170.5 26c0-1 .8-1.9 1.9-1.9 1 0 1.9.9 1.9 1.9 0 1.1-.9 1.9-1.9 1.9-1.1 0-1.9-.8-1.9-1.9zM162.4 26c0-1 .8-1.9 1.9-1.9 1 0 1.9.9 1.9 1.9 0 1.1-.9 1.9-1.9 1.9-1.1 0-1.9-.8-1.9-1.9zM166.4 29.9c0-1 .8-1.9 1.9-1.9 1 0 1.9.9 1.9 1.9 0 1.1-.9 1.9-1.9 1.9-1.1 0-1.9-.8-1.9-1.9zM166.8 37.1c-.7-.8-.7-1.9 0-2.7.8-.7 1.9-.7 2.7 0 .8.8.8 1.9 0 2.7-.8.7-1.9.7-2.7 0zM172.7 31.5c-.8-.8-.7-2 0-2.7.7-.8 1.9-.9 2.7-.1.8.8.7 2-.1 2.8-.7.6-1.9.7-2.6 0zM166.9 25.6c-.7-.8-.7-1.9 0-2.7.8-.8 1.9-.8 2.7 0 .8.8.8 1.9 0 2.7-.8.7-1.9.7-2.7 0zM161.1 31.5c-.7-.8-.8-2-.1-2.8.8-.8 2-.7 2.8.1.6.7.7 1.9 0 2.7-.8.7-2 .6-2.7 0z"/><path d="M168.5 266c10 0 69-54 61-165h-121c-12 114 51 165 60 165h0z" fill="#00649b" stroke="#00649b" stroke-width="4" stroke-miterlimit="3.864"/><path fill="#fff" stroke="#fff" stroke-width=".5" stroke-miterlimit="3.864" d="M127.7 111l-2.3 7h-7.5l6.1 4.6-2.3 7.2 6-4.4 6.1 4.4-2.4-7.2 6.1-4.6h-7.6l-2.2-7z"/><path class="st11" d="M41.4 174.3c0 1.4 1.1 2.6 2.5 2.6s2.5-1.1 2.5-2.4c0-1.4-1.1-2.5-2.5-2.6-1.3 0-2.5 1-2.5 2.4zm1.1.1c0-.8.7-1.4 1.4-1.4.8 0 1.4.6 1.4 1.4 0 .8-.7 1.3-1.4 1.3-.4 0-.7-.1-1-.4-.2-.2-.4-.6-.4-.9z"/><path class="st5" d="M166.3 89.6c-2.5-.5-2.3-.6-4.8-.1-.3.1-3.1-1.7-3.5-2-5-3.1-7-5.3-7-5.3-1-1.1-5.7-5.8-5.3-7.8.2-1 1.8-2 2.4-2.7.3-.3.3-.7.5-1.1.1-.1.5-.8.7-.9 1-1.3 2.4-2 3.8-2.8.5-.3 3.8-2.8 3.9-3.1 0 0 4.8 4.8 4.8 4.9-.3.5-.9 1.8-1.3 2.1-.2.2-.6.1-.8.3-.3.2-.4 1-.7 1.3-.4.5-1.1 1.2-1.6 1.6-.3.2-1 .3-1.1.7-.1.2.1.4 0 .7 1.4.5 1.9.9 2.4 2.3.3 0 .7-.2 1.1-.1.6.2.8 1.3 1.3 1.6.5.2.8 0 1.2.3.4.3.6 1 1.1 1.2l2.6.3c1.1 2.6.4 4.7 0 6.8-1 1.4.2 1.9.3 1.8l1.4.4-1.4-.4zM163.1 58.1c1.3.1 1.6-1.6 2.3-2 1.6-.8 5 2.1 5.5 3 .3.5 0 2.3 0 2.3-.2.5-2.4 2.3-2.4 2.3-1.1.1-2.1.9-3.2.7 0 0-.1 1.4-.5 1.9-2.5-2.3-4.7-4.7-4.7-4.7.2 0 .3-1.8 1.6-.8.1-.2-.1-.4-.1-.6.1 0 0-2.1 1.5-2.1z"/><path class="st2" d="M84.3 124.8c2.4.3 4.7 4.7 4.9 10 .1 2.4.2 3.8.2 6.1 0 3.9-.4 7.5-.8 6.1-.3-1.2-1.2-1.7-2.2-2.2-1.8 1.8-3.1 2.9-4 5.2-1.2-1.6-1.8-2.9-1.8-4.9 0-3.3 1-5.2 1-8.5 0-2.9-.7-4.6-1-7.5-.2-2.7 1.5-4.6 3.7-4.3z"/><path class="st7" d="M155.5 74.9c-1.7-.3-2.2 2-2 2.8 0 0-.5.5-.5-.5-.1-2.9 2.5-2.3 2.5-2.3zM162.8 89.2c-1.5-.7-2.7-1.8-3.8-3.7-.5-1-1.7-1.9-2.7-2.4.8.2 1.4.2 2 .5 1.1.6 1.6 1.7 2.3 2.7.5.7 2.4 2.4 3.2 2.9h-1zM165.9 87.8c-2.9-1.4-3.2-5.3-3.2-5.3 1.1 2.6 2.6 3.3 3.6 4.1l-.4 1.2z"/><path class="st7" d="M165.9 87.8c-1.6-.8-1.1-.8-2.7-.8 1.7.6 1.9 2.4 1.9 2.4s.5-.1.9.1c-.7-.6-.4-1.4-.1-1.7zM158.8 77.6c.3 1.8.8 1.5.5 2.4-1.2.4-2-.3-1.8-1.1 1.1 1.5 1.1.3 1.3-1.3zM156.4 75.3s-.1 1.3 1 1.5c.6.8-.7 1.1-1.2.2-.5-1.1.2-1.7.2-1.7zM155 75.8c-1.4.9-.3 2.9.4 3.4 0 0-.1.7-.8 0-1.9-2.2.4-3.4.4-3.4zM157.2 71.3s1.1-.1 2.7-.7c.6-.5.1-.9.1-.9-.8.6-2.8 1.6-2.8 1.6z"/><path d="M158.7 66.2c-.5.6-2.7 1.3-2.7 1.3s2.1-.3 2.9-.6c.6-.6.4-1.5-.2-.7h0z" fill-rule="evenodd" clip-rule="evenodd" fill="#00649b" stroke="#00649b" stroke-width=".15" stroke-miterlimit="3.864"/><path class="st7" d="M170 59.6s-.1.4-.1.5l.5.4c.1-.1-.5.3.3-.3 0-.1-.1-.4 0-.5 0 0-.6 0-.7-.1zM168.8 58.6c-.3.3-.7.7-.9 1.1-.3.4-.3.3-.5.9.1.1.2.4.2.6.2 0 .5-.2.7-.1.8-.5.9-.8 1.5-1.5-.1-.3 0-.8-.3-.9-.2-.2-.5 0-.7-.1zM166.5 58.9c-.3.5-.2.1-.2 1.1.1 0 .7 0 .8.1.3-.3.8-.6 1.3-1.6.2-.3-.3-.6-.2-.9-.2-.1-1 .2-1.7 1.3zM166.1 56.7c-.4.3-.8.6-.9 1.1-.1.2-.2 1-.1.8l.1.4c.2-.1.5.1.7 0l1.1-1.3c.3-.5-.1-.8-.1-.8-.5-.2-.6-.1-.8-.2z"/><path class="st7" d="M163.4 58.4s1.5 1.5 1 3.3c1.6-1.2 3.3.3 3.3.3l.9-.4-.4-.5-.9-.3-1-.8-1.2-1.2-1.7-.4z"/><path class="st5" d="M163.2 58.2c1.3.1 1.5-1.7 2.2-2.1 1.6-.8 5 2.1 5.5 3 .3.5 0 2.3 0 2.3-.2.5-2 1.8-2.3 3 .4.6.9 1.3 2.1.7.4-.2-.1-.9.5-1.1l2.1-2.7c.1-.3 2-2.8.4-3.1-.9 0-1.3-.1-1.7 1.5-.1-2.5-2.8-4.2-5.1-4.9-.4-.1-.8-.2-1.5 0-.8.1-.7.9-.9 1-.4-.8-.7-1.1-1.6-1-.3 0-.5.3-.7.5-.7 1.3.2 2.3 1 2.9z"/><path class="st12" d="M166.1 122.1c-.5.1-1.7.3-2.1.6-.7.5-1.1 3.2-.7 4.4.2.5.9 1 1 1.4.2.8-.4 1.5-.3 2.2 0 .2.4.6.6.8.2.4.4 1.2.7 1.5.3.3 2.8.5 3.6.4.5-.1.7-.6 1-1 .6-.8 1.3-1.4 1.1-2.9 0-.3-.4-.7-.3-1.2 0-.1.4-.2.4-.3.2-.3.5-.9.6-1.2.8-4.1-1.5-5.2-5.6-4.7zM159.4 234.2c-.5 1.1-1.2 1.9-1.9 2.8.7-.6 1.6-1.1 1.9-2.1.1-.3 0-.8 0-.7z"/><path class="st12" d="M160.1 234c-.5 1.2-1 2.8-2.2 3.3-.3.1-.8 0-.8 0-.2-.1-.6-.2-.7-.4-.1-.2.1-.5 0-.7.7-.6 1.2-1.1 1.8-1.8-.1.1-.3-.1-.4 0-.2.1-.5.7-.7.8-.8.6-1.8 1.2-2.2 2.2-.3.7 0 1.4.1 2.1.5 1.8.8 1.9 2.5 1 .7-.4.9-.4 0-.7.7-.2 1.4-.3 1.9-.7 1.1-.7 1.7-2 2.8-2.8.6-.4 1-.5 1.7-.8.2-.1.5-.5.7-.7 0 0-1.5.3-.7-.1.4-.2.4-.4.6-.6-.6.2-2.7 1-3.6.7-.3 0-.7-.6-.8-.8zM177.6 231.7c.1.4.1.8.1 1.1 0 0 .5.3.3-.1 0 .1.2-.4.1-.6-.1-.2-.5-.2-.5-.4z"/><path class="st12" d="M176.7 231.7c.3 1.9.9 2.5 2.1 3.4 0-.1-.2-.6-.1-.6-.7-1.1-1.2-1.3-1.7-2.9h-.3v.1zM164.6 231.6c-.6.4-1.4 1-2.2 1.2-.7.2-1.2.2-2.1.3 0 .1.2.5.1.6.1.3.4.7.6 1 1.3-.2 4-1.2 4.3-2.1.1-.3-.1-.6 0-.8 0-.1-.6-.2-.7-.2zM158.7 231.3v.3l-.1.1c-.1.1-1.3 2.1-.6 2.1.1 0 .3-.5.4-.6 1.2-.8 1-.3.6-1.9h-.3z"/><path class="st12" d="M161.4 230.9c-.2 0-.9.4-1.1.4-.4 0-.7-.1-1-.1.3 1.4.3 1.6 2.2 1.4.5-.1 1.5-.4 1.9-.7.2-.1.1-.4.3-.6-.4-.1-.7 0-1.1-.1-.2-.1-.7-.4-1.2-.3zM177.8 229.6c-.2.5-.3.9-.6 1.4.4.2 1.1.5 1.2 1 .3.8-.2.3-.1.8.1.4.9.9 1.1 1.2.1.3 0 .4.1.7h.1c.3.1-.3.6-.3.6l-.1.3c-1.2-.1-1.4-.3-1.9-1s-.9-1.4-1.2-2.2h-.3c-.1.4-.1.7-.3 1.1 0 .1-.2 0-.3.1-1.2-.7-2-1.7-3-2.5 0 .2-.3.8-.1 1.2.1.4 1.7.9 2.1 1.4.6.9.7 2.1 1.4 3 .4.5 4.3 3.2 5.1 1.7.3-.5.2-3.4 0-4.1-.1-.4-1.1-1.9-1.4-2.1l-.4-.1c-.2-.3 0-.8-.1-1.2 0-.1-.5-.5-.6-.6-.1-.3 0-.5-.1-.7h-.3z"/><path class="st12" d="M172.2 229.2c0 .3-.2.2-.1.6 0 .5 2 2.8 2.5 3 .1.1.4 0 .6.1.2-.3.4-.6.6-.8.2-.3.2-.5.4-.8-.2-.1-.4.1-.7 0-.4-.1-1.7-1-2.1-1.2-.2-.1-.4-.6-.6-.7-.2-.1-.5-.1-.6-.2zM177.3 200.6c0 .1-.1.2-.1.3.3 0 .1.1.1.3.2-.1 0 .5-.1.6-.3.1-.8-.1-1.1 0-.1 0-.2.7 0 .6.2 1.2.3 2.2.6 3.2.3-.2.7-.3 1-.6v-.3c.1-.2.6-.4.7-.6.4-.5.5-.9.8-1.5-.3-.2-.6-.3-.8-.6.1-.1 0-.3 0-.4 0-.1.5-.2.6-.3v-.3c-.8-.2-1.1-.3-1.7-.4zM183.2 183.8l-.1.1c-.1.1-.1.2-.1.3-.4.7-.4 1.5-.7 2.3-.5 1.7-1.1 3.5-1.7 5.4-.6 1.9-1.2 3.8-1.8 5.8-.2.6-.7 1.5-.8 2.1 0 .3.2.4.1.6l.4-.1c.3-.3.8-2.7 1-3.3 1.1-3.6 2.5-7.5 3.6-11.2 0-.4.7-2.2.1-2zM180.2 171.9c.1.4.1.4.1.8 0 0 .2-.3.1-.6l-.2-.2zM178.5 165.6c-.9 0-1.8 1-2.5 1.2-1.2.5-2.5 0-3.9.1-.1 0-.9.3-1 .3-.9.1-3.4.3-1.9-.6-1.8 0-2.9.2-4.5 0-1.2-.1-3.3-.9-4.4-.8-1 0-.7.2-.8 1.1 1.3-.1 3.3-.1 4.7.3.6.2 1.6.6 2.3.7 1.4.2 2.7-.2 3.9-.3.6 0 1.1.1 1.7.1v.3c-1.3-.2-2.5.3-3.7.4-2.5.3-3.7-.8-5.4-1.1-1.4-.2-2.5.2-3.4.6.1.1.2.4.3.4.9.5 2.1.1 3.3.3.9.1 1.9.8 2.8 1 1.3.2 2.2-.6 3.4-.3.2 0 .1.3.1.6 1.4 0 2.8 0 4.1-.3 1.3-.3 2.4-1.1 3.4-1.5.7-.3 1.8-.3 2.6-.4-.1-.1-.1-.4-.1-.6-.5 0-.9-.1-1.7 0-2.6.4-4.9 1.8-7.8 1.5 1.2-.1 3.1-.4 4.1-.8.3-.1.8-.5 1.1-.6 1.3-.4 2.5-.4 3.6-1 .2-.1.3-.1.6-.1-.4-.1.2-.5-.9-.5zM191 161.1c-.1.4-.3.9-.4 1.2v.6c.2-.1.4 0 .6-.1.4-.3.3-1.1.4-1.7h-.6zM188.8 160.9c-.1 1.3.1 2.4.6.3-.1 0-.5-.2-.6-.3z"/><path class="st12" d="M183.2 160.6c-1 .2-2.1 2-2.2 3-.3 2.2 1 3.8 1.2 5.6.1 1.1-.1 2.9 0 3.6.1 1 .3 2.5.1 3.7-.1 1.1-.6 2.1-.8 3.3l-.3-.3c-.3-1-.1-2.2-.3-3.2 0 .1-.3-.3-.3-.3 0 .5.1 1.1 0 1.7l-.3.8c-.2-1.1-.2-2.3-.6-3.3-.2-.4-.7-1.1-.8-1.5 0-.1.1-.3 0-.4-.1-.1-.5-.1-.6-.3-.2-.3-.1-.8-.3-1.1-.1-.1-.4 0-.6-.1l-.1-.4c-.9 0-1.7.2-2.6.4v-.3c.3-.2.5-.2.8-.4v-.1c-2 .4-3.7.8-6.1.6-1.2-.1-2.1-.2-3.2-.4 1.8-.1 4.1-.1 5.9-.3 1.5-.2 3-.8 4.4-1 1-.1 1.8.1 2.9.1-.1-.1.2-.5-.4-.7-.6-.2-1.7.1-2.1.1-1.9.2-3.5.5-5.4.7-2 .1-4.3.2-6.2 0-1.9-.2-4.1-.8-6.1-.7 0 0 .3.5.4.6.2.1.5 0 .7 0 .9.1 1.8.4 2.9.6 0 0 .2.6.1.8 0 .2-.5.4-.6.6-.1.3-.2 4.3-.4 2.9-.1-.4-.1-1.1-.1-1.7-.1-.5-.4-1.5-.4-2.1.1 0-.3-.3-.3-.3-.1.1-.3.1-.4.3-.3.6-.2 1.4-.3 2.2h.2c-.1-.9-.2-2-.4-2.8-.3.1-.4.2-.7.1-.2.4-.5.8-.7 1.2-.3.7-.2 1.1-.3 1.9-.2 1.7-.4 3.5-.7 5.4-.1.7-.3 1.5-.6 2.3l-.3.3c-.2.8-.1 1.3-.3 2.1-.2.8-.7 1.9-.8 2.8-.2 1.3.2 2.3 0 3.9-.1.6-.3 1.5-.4 2.2.2 0 .4.2.6.3.2-.3.1-.7.4-.8.2-.1.2.3.4.3.1 0 .1-.3.1-.4.3 0 .6.2.7.1.1 0 .1-.3.1-.4.3-.1.4.2.6.1l.1-.3c.3-.1.5.2.7.1.1 0 .1-.2.4-.3.1.2.1.5.3.6-.1.1.1.4 0 .6 0 .1-.4.3-.4.4-.3 0-.2-.3-.6-.3l-.1.3c-.4.2-1.1.1-1.2.1-.1 0-.2.4-.3.4-.2.1-.3-.1-.4 0v-.4c-.1 0-.2.2-.3.1.6 1.8.3 4.3.6 6.5.1.9.7 1.9.8 2.8.2 1.5-.2 3.1.1 4.4.1.3.3.7.4 1.1 0 .1.2.1.3.1.3.7.4 1.4.6 2.2-.2-.1-.1.2-.1.3h-.3c-.1-.5-.2-.8-.3-1.1-.2 2.2-.5 3.9-.3 6.5.2 2.1.9 4 1.4 5.8v.3c-.3.2-.2 0-.6 0 .2 2 1 3.6.8 5.5-.1.7-.4 1.7-.7 2.2-.1.1-.5.4-.6.6-.1.3.2.2.1.4 1.1 0 1.8-.4 2.8-.3 1.1.1 2.1.6 3.6.6-.5-1.7-.7-1.9-2.1-2.8.1 0 .7-.1 1.1-.1-.1-.9-.1-1.5-.1-2.5-.2-.1-.6-.1-1-.1v-.3c1.4-.8 1.2-1.5 1.4-3.4-.1.1-.4 0-.4.1v.4s-.3.1-.4.1c0-.1.1-.8 0-.8.3-.9.9-1.8 1.1-2.8.5-2.6.2-5.7-.1-8.3 0 0-.4.2-.4.3-.2.4-.2 1.3-.3 1.7 0-.3-.2-1.1-.1-1.7.2-1 .9-1.9 1.1-2.9.3-1.6.1-3.3.3-5 .1-.5.4-1.4.4-1.9.1-1.2-.1-2 0-3l.3-.6c.1-.7-.2-.9-.1-1.7l.3-.4c.1-.4 0-.9 0-1.2h-.3c-.2.6-.1.9-.3 1.5-.1.3-.8 1.1-.8 1.2-.1.5.2.5.1 1 0 .1-.4.4-.4.4v.3c-.8.5.3-1.6-.4-1 .2.1-.4.1-.4.1v-.6c.1.2.1-.4.1-.4-.1.4-.3-.4-.3-.4.1-.3.5-.7.6-1 .1-.4-.3-.6-.1-1.1 0-.1.2-.2.3-.4-.2-.1-.4.2-.7 0-.2-.1-.1-.5-.3-.7-.1-.1-.5-.3-.6-.4-.1-.3 0-1.1.1-1.2.5-.3.3.4.4 1h.3c0-.3-.1-.6 0-1 .1.1.2-.1.3-.1.1.3.2.7.3 1.2h.4v-1s.3-.1.4-.1c0 .2 0 .8.1 1.1l.3.1c.1-.5 0-1.1.4-.8.3.2.1.7.1 1.1l.4-.1c.1-.2 0-.6 0-.8h.4v1c0-.1.4 0 .4-.1v-.6s.3-.1.4-.1v1.2h.3c0-.4-.1-.9.1-1.1.5-.4.5 1 .6 1.4l.3-.1c.1-.3.1-1 .1-1.2.1 0 .4.3.4.3v1.2h.3c0-.4-.1-1.1.1-1.2.4-.2.3.7.4 1.2h.3c.1-.5 0-.9.1-1.4l.3-.1c0 .4.2 1.1.3 1.5h.3c0-.4.1-.9 0-1.5.1-.1.4-.2.4-.3.1.5.1.8.1 1.4l.4.1v-1.5h.4c.2 1.6.3 1.3-.7 2.2-.1.1-.3.2-.4.3-.5.7-.1 1.6 0 2.3.1.6.1.8.1 1.4h.3c0-.2 0-1 .1-1.4l.3-.1c.2 2-.3 4.5-.1 6.7.2 2.7 1 4.9 1 7.8-.1-.4-.4-1.4-.6-1.8-.1-.4-.2-.6-.3-1l-.3.3c-.1.3 0 .7 0 1.1-.2 1.6-.3 3.9-.1 5.6 0 .4.4 1.2.4 1.7.4 3.4.3 7.7-.7 10.2-.2-.1-.1.4-.1.6.5-.1 3.5-1.1 1.8-.1-.3.2-.5.1-.8.3-.1.1-.2.2-.4.3.1.2 0 .4.1.6.3.4 2.6 2 3.6 1.8.9-.2.9-1 1.1-1.9-1-.3-1.3-.2-2.3 0-.4.1-1.1.1-1.7.1l-.1-.3c2.1-.1 2.3-.8 4.4-.4-.5-1-.6-1.6-.3-2.8-.2.1-1.1 1-1.1 1s-.5 0-.3-.1c.5-.4 1.2-1.2 1.4-1.8.4-1.2.2-2.6.4-4s.6-2.9 1-4.3c.2-.6.6-1.5.7-2.1.1-.6-.1-1.2 0-1.8l.3-.3c.1-.4-.2-.5-.1-1l.3-.7c.1-1 0-1.9-.1-2.8-.3 0-.4.2-.7.3.1-1 .2-1.3.6-2.1h-.3c-.2.1-.9 1.4-.7.3.1-.3 1-1.9 1.2-2.1.1-.1-.8.3-1 .4 1.4-2.7 2.4-5.7 2.1-9.8h-.3c-.4 1-.5 1.8-.8 2.9-.2.6-.8 1.5-.8 2.1v.8l.3.1c0 .4-.1.8-.4.8v.3c.1.4.7.3.6 1.1 0 .2-2.3 2.5-2.6 3h-.6c-.1-.2.1-.3-.1-.3-.2-1.5-.6-2.6-.6-4.3.1 0 .2-.3.3-.3.2-.1.5 0 .7 0 0 0 .1-.9.1-1 .1-.2.7-.1.8-.3.1-.1 1.3-3.9 1.4-4.3.5-1.6.6-2.3-1-2.9.2-.6.2-1 .3-1.8l.4.1c.1.5-.1 1.2.3 1 .3-.2.1-.7.1-1.1l.4-.1c.1.4 0 .6.1 1.1.2 1 .2-.9.3-1.1h.4c.1-.2.2-.3.3-.4.4-.8.4-1.8.7-2.8 0 0 .2-.6.3-.6.1 0-.1-.6-.1-.6h-.3c.1-1.8.3-3.5.3-5.5h.3c.3.9.5 1.3.6 2.5 0 0 .7-.1.6-.1 0 0 .2-.6.1-1-.1-.8-.4-1.4-.6-2.5l.4.3c.1.3 0 .5 0 .8.1.4.4.9.6 1.2.2.4.4.9.6 1.2.1.2 0 .5 0 .7.2-.2.6-.2.7-.4.2-.5 0-1.4 0-1.9h.4c0 .2-.1.5 0 .7h.3c.1-.3.1-1 .3-1.2h.6c.1-.2 0-.6.1-.8.1-.1.5-.4.6-.6.4-1.8-1.2-3.2-1.4-4.5-.4-2.7.7-5.1 1-7.2.2-1.6 0-3.1-.1-4.5 0 .3-.2 1.9-.4 2.1-.3.2-.1-.5-.1-.8-.1-.5-.3-1.5-.4-1.9-.6-.8-.8-2.4-2.4-2.2zM189.9 157.8c-.3.8-.5 1.3-.7 2.3.2.1.1.3.1.6 0-.1.4-.1.4-.1.4-.6.5-1.8.7-2.5.1-.1-.5-.3-.5-.3zM192.8 156.5c-.4.1-1.4 2.9-1.5 3.4 0 .3-.1.8.3.7.4-.1 1.3-3.2 1.5-3.9-.1 0 .1-.3-.3-.2z"/><path class="st12" d="M191.5 156.2c-1.1 2.8-1.8 6-2.8 9-.5 1.6-1 3.3-1.5 5-.3.9-1.6 4-1.5 4.8 0 .1.2.4.3.6l.3-.1c.2-.6.2-1.1.4-1.8.7-2.2 1.6-4.7 2.3-6.9.2-.7.2-1.2.4-1.9.9-2.7 2-5.4 2.6-8.4-.2-.2-.4-.1-.5-.3zM190.6 155.7c-.7 1.6.1 2.9.3.1l-.3-.1zM140 150c-.3 0-1.1.2-1.4.4-.3.2-.1.4-.3.8 1.2-.3 2.1-.5 3.3-.1-.1-.2.1-.4 0-.6 0-.1-.4-.2-.4-.3-.3 0-.7-.2-1.2-.2zM139.3 148.7c-.2 0-.6.4-.8.6-.1-.2 0 .6 0 .7 1-.2 2-.3 3.2-.1-.1-.1.1-.3 0-.4-.3-.7-1.6-1-2.4-.8z"/><path class="st12" d="M139 147.3c-.1.1-.4.4-.4.6-.1.4.2.2.1.6.2-.1.4-.4.4-.4.5-.2 1.9.4 2.3.6l.1-.6c-.1-.1-.3-.2-.4-.3-.4-.5-1.1-.5-2.1-.5zM171.5 138.6c-.8.5-1.9 2.3-2.3 3.3.2-.2.5-.4.7-.6.3-.2.7-.2 1-.4.4-.4.3-1.2.6-1.8-.1.1.5-.8 0-.5zM169.2 138.6v.4c.6.1.4-.4 0-.4zM170.1 138.3c-.2 0-.2.2.1.3 0-.1.2-.3-.1-.3zM168.3 138.2l.1.3c.6.1.1-.3-.1-.3zM167.2 138.1c-.1 0-.4.1-.6.1v.4c.3-.1.3-.3.7-.3l.6.3v-.3c-.2-.1-.5-.1-.7-.2zM164.5 138.1l.1.3c.4 0 0-.3-.1-.3zM170.8 137.8c-.1 0-.1.3-.1.4h.4c-.2-.2.2-.5-.3-.4zM171.5 137.4v.4h.3c-.3-.2.2-.4-.3-.4zM169.8 137.4l.1.4c.4.1.4-.4-.1-.4zM170.7 136.8s-.1.3-.1.4c.4 0 .5-.4.1-.4zM173 135c.2.4.7 1.8.6 1.2-.2-.5-.4-.7-.6-1.2zM172.9 134.6l.1.3c0-.2.1-.3-.1-.3z"/><path class="st12" d="M163.4 132.4c0 2.8-1 4-1.2 6.5 0-.1 1-1.7 1-1.7.1 0 .4.1.4 0 .1-.1 0-.5 0-.7.6-.2.5-.2.3-1.1h.4c.1.2 0 .3.1.4.3.2.5.6.7.7.2.1.4 0 .6.1.1.1 0 .4.1.4.4.2.9.2 1.4.3l.3.3c.4.1 1.2 0 1.9-.1.1-.2 0-.3.1-.6 0 0 .4-.7.3-.7 0 0-.5-1.5-.6-1.5-.6-.1-1.7-.1-2.3-.3-.2-.1-.4-.5-.6-.6-.5-.2-1-.1-1.4-.1-.3.5-.5.9-1 1.2-.1-.6-.3-1.7-.4-2.2v-.4c0 .1-.1.1-.1.1z"/><path class="st9" d="M166.8 131s.8.1 1.1.1l-.3.4c-.3-.1-.7 0-1 0 .2 0-.3-.4.2-.5z"/><path class="st12" d="M162.3 131c.3 2.2-.6 3.6-.8 5.6 0 .3-.2 1-.1 1.5l.3.4c.1-.7 0-1 .1-1.7.3-1.4 1.1-2.8 1-4.7-.1-.1-.5-.9-.5-1.1z"/><path class="st9" d="M166.5 130.4c.9 0 1.8 0 2.8.1v.3c-1.3 0-2.8 0-3.9.1l.1-.4c.4 0 .9-.1 1-.1zM164.6 124.7c.5-.1 1.2.1 1.5.1.2 0 .5-.1.8-.1 0 1.2 0 1-.6 1.8-.6-.1-1 0-1.5-.1-.2-.1-.5-.6-.7-.7-.2-.1-.3.1-.4 0 .4-.5.2-.8.9-1zM169.4 124.6c.7 0 1.2.4 1.7.7 0 .1-.1.4-.1.4-.2.1-.4 0-.6.1-.1.1-.2.5-.4.6-.4.1-1.1-.1-1.5 0-.1 0-.1.2-.3.3.1.5 0 .9.1 1.2 0 0 .2.1.3.1.4.2 1.1 1.2 1.2 1.7 0 .1-.1.6-.1.4h-.1s-.4-.6-.4-.7l-.4-.4c-.2.1-.7.5-1 .6-1.2.2-1.7-.8-2.3-.3-.1.1-.5.6-.6.7.2-.4.2-.5.4-.8.2-.2.4-.4.7-.6-.2-.1.1-.4.3-.3l.1.4c1 .1 1.6.4 1.5-1 0-.2-.4-.9-.4-1.1-.1-.7.1-1.5.1-1.9.4.1.5.2 1 .1.1 0 .7-.2.8-.2z"/><path class="st12" d="M163.9 117.3c.1.1-.1.4 0 .6.2.5.8.7 1.2 1 0 0 .4-.5.1-.4-.3-.4-.5-.9-1-1.1 0-.2-.1-.1-.3-.1zM163.1 115.8v.4c.4.2.6.3 1.1.4 1.3.2-.8-.7-1.1-.8zM161 112.7c.1.3.1.9.4 1.1.4.4 1 .3 1.8.4-.3-.6-.3-.9-.6-1.4-.6.1-1.1 0-1.6-.1zM158.4 112.3c-.2 1.8.4 3 2.1 3.3h-1.2v.6c.7 1.4.9 1.6 2.6 2.1l-.7.3c-.1-.2-.4.4.1.8.2.2.6.2.8.4l.3.7c.4 0 .5.1.8.1-.8-2.9-2.6-5.4-4.1-7.6.1.1.5.3.6.4 0 .1.4.8.4.8h.3c1.1 1.4 1.9 3.1 2.9 4.7.2.3.4.5.6.8.1 0 .2-.2.3-.1-.7-2.8-2-5.3-4.1-6.7-.2-.1-.5-.5-.7-.6-.4-.1-.7.1-1 0zM141.7 154.7c.6 0-.1-.1-.1-.1-.6-.8-.6-.4-.6-1.8h.3c.9 0-.3-2.3-2.5-1l-.6.3c.3.7.4 1.4 1 1.8.1.1.4 0 .4.1.3.8-.2 4.5-.3 5.4-.1 1.2.1 2.4 0 3.6-.3 3.5-.6 7.7-.3 11.6.3 3.6.3 7.2.6 10.7.3 4.1.9 8.6 1.5 12.5.2 1.5.2 2.5.4 4 1.8 10.6 4.7 20.6 8 29.7.7 1.9 1.3 3.6 1.9 5.5l.3.7c-.2.1 0 .5-.1.6.1.1.4 0 .6.1.1.1.1.5.3.6.1.1.3-.1.4 0-.1-.7-.3-1.2-.4-1.7-.1-.8.1-1.7 0-2.5-.1-.7-.4-2-.4-2.8-.2-2.7-.2-4.9-.4-7.6-.2-2.8-.8-6.2-1-9.1-.5-6.2-.9-12-1.4-18.3-.6-8-1.5-16-2.1-24.2-.3-3.9-1-8-1-12.3-3.7-6.1-4.5-5.8-4.5-5.8z"/><path class="st12" d="M145.7 154.2c-.4-.3-1.5-1.2-1.8-1.6-.1-.1-.1-.4-.1-.6l-1.4-.8c-.2 1.3-.7-.5-.2.5-.5-.5-.3 3.2-.8 2.7 1.7.5 5 6.3 5 6.3.7.5 1.3 1.4 2 1.8.8.4 1.6.5 2.3 1 .6.4 1.3 1.4 2.2 1.4.6 0 1-.4 1.4-.7-.2-.7-.2-1.3.1-2.2.4-.9 1.4-1.4 1.2-2.9-.1-.9-1.1-2.8-1.9-3-1.1-.3-1.8.2-1.4 1 .1.1.5.3.6.4.2.3.1.5.3.8-.8-.7-1.7-1.4-2.6-1.9-1.1-.8-4.4-1.3-4.9-2.2z"/><path class="st9" d="M141.2 154.9c.4.1.3.2.6.4.1.1.5.3.6.4.1.2.5.4.6.6.4.5.7.8 1.1 1.3.4.5.8 1.6 1.1 2.1l.5.8s.1 1.6 0 .2c.5 1.2.3 2.2.4 3.7.3 3.9.6 8.1 1 12.3.2 2.8.8 6.1 1 9 .6 8.2 1.2 16.1 1.8 24.4.1 1.8.6 4.1.7 5.9.3 3.9.7 7.7 1 11.4.2 2.7.2 5.2.6 7.7 0 0-.2.1-.3.1-1.4-3.6-2.4-7.3-3.4-11.2-.4-1.5-1.2-3.3-1.5-4.8-.7-2.9-1.1-5.5-1.7-8.5-.6-3-1.4-6.4-1.7-9.6-.1-1.3 0-2.2-.1-3.4 0-.4-.3-1.6-.3-2.1 0-1 .5-1.8.4-3-.2-2.2-.4-4.4-.6-6.7-.1-1.5-.4-3.5-.6-5.1-.1-.9.1-1.5-.1-2.3-.1-.3-.6-.8-.7-1.2-.2-1-.4-2.5-.4-3.3-.2-3.2-.5-7.1-.3-9.8.2-2.4-.2-5.6 0-7.6 0-.3.3-1.5.3-1.7z"/><path class="st12" d="M145.8 154.2c-.2-.4-.1-.9-.2-1.4-.3-2-.4-4-.6-6.2-.3-4.1-.8-8.3-1.1-12.7-.1-1.7-.7-4.8-.7-4.8-.4.7-1.1 4.2-1.4 5.8-.6 4-1 7.7-1.5 11.8.5.2 1.1.3 1.4.7.1.1 0 .3.1.4l.3.1c.1.3-.1.6-.1.7-.1.6.3 2.1.5 2.3l3.3 3.3z"/><path class="st9" d="M143.2 151.7c-.3-.3-.8-1-.8-1.2-.1-.5-.1-2.1-.3-2.5-.3-.9-.6-.1-.9-1.2-.1-.2.2-1.4.3-1.8.1-1 .3-2 .3-2.8.2-2.8 1-8.9 1.2-9.6l.1-1.2c.7 5 1.3 11 1.7 16.2.1 1.8.6 4.1.4 5.9l-2-1.8z"/><path class="st12" d="M160.9 110c-.5 1.9-.2 1.9 1.4 2.6 0-.1-.2-.5-.1-.6-.1-.2-1-1.5-.7-1.2.2.1.3.4.4.6 1.4 1.8 2.8 3.9 3.7 6.2h.4c0 .1-.2.3-.1.6 0 .1.3.4.4.6-1.3.6-2 1.3-2.8 2.5-.1.2-.4.4-.6.6-1.9 3.2-.7 6.6.3 10.3 0 0 .1-.6 0-1-.7-3.5-1.1-7.7 1.2-9.9.2.4 0 .3.3.6.8-.5.8-.7 1.8-.4h.8c.2-.1.5.1.7 0l.1-.4c.7.3 1.3.2 2.1.6 2.5 1.1 1.7 5.4 1.5 8.3-.1 1.2.1 2.4 0 3.6 0 .5-.2 1.5-.1 2.2.1.7.7 1.4.8 1.9 0 .1-.1.4 0 .6h.3l.7.8c0 .1-.3 2.7-.1 1.9 0 .1.1.5-.1.4v.3c-.3-.1 0 .7 0 .8 0 .1-.4.2-.4.3.1.1 0 1 0 1h-.3c0 .3.1.7 0 1l-.4.1c-.1.2.1.5 0 .7-.1.1-.5.2-.6.3-.1.2 0 .6-.1.7-.2.2-.5 0-.7.1l-.3.7c-.1 0-.6-.1-.6-.1-.1 0-.2.5-.3.6-.5.2-.5-.2-.8-.1l-.3.4c-.4 0-.5-.4-.7-.4-.5-.1-.4.3-.8.1-.1 0-.1-.3-.3-.3.2-.1-.3-.3.3-.6v-.1c.2.1.4.1.6.1 0 0 .1.2.1.3.4 0 .9.1 1.2 0l.3-.4c.3-.1.2.2.6.1.1 0 .1-.4.1-.4.2-.1.5 0 .7-.1.1-.1.1-.6.3-.7.1 0 .4.1.4 0 .2-.3-.1-.6.1-.8.1-.1.3 0 .4-.1.1-.2-.1-.5 0-.7 0-.1.4-.1.4-.1.1-.4-.2-.3-.1-.7 0-.1.4-.3.4-.3.1-.2-.1-.4-.1-.4 0-.2.2-.8.3-1.1 0 0-.3-.4.1-.6 0-.4.1-1.4-.3-1.5-.5.8-.9 2.2-1.8 2.6l-.4.1c-.5.2-.6.5-1 .7-.2.1-.2-.2-.3-.3-.1 0-.2.2-.3.1v.1l-.4.4c.3-1.2.6-2.4.4-3.7-.3 0-.3.2-.7.1-.1 0-.1-.3-.4-.3-.1 0-.2.3-.6.3-.1 0-.3-.5-.4-.6 0 0-.5.2-.6.3l-.6-.6c-.3-.1-.2.2-.6.1.4.5.7.9 1.1 1.4.6.8.6.6-.6.6.1.2 0 .4.1.7.2.4 1.1.5 1.5 1 .2.3 1.1 1.8.4 1.2-.3-.2-.6-1.3-1-1.5-.5-.3-.9-.1-1.2-.6-.4-.5-.7-1.5-1-2.1h-.6l-.1-.3c-.8-.1-.3.7-.1.7-.1.3-.4.4-.3.8l.4.3s0 .6-.1.4v.4s.4.2.4.3c.1.4-.3.4-.1.8 0 0 .5.2.6.3.2.5-.1.5 0 .8.1.1.4.2.6.3 0 .2-.2.6-.1.7-.4-.2-.7.1-.8-.3-.1-.3.3-.3.1-.7 0-.1-.5-.2-.6-.3-.1-.3.1-.7 0-1 0-.1-.3-.1-.4-.1-.1-.1-.2-.9 0-1l-.3-.1c-.1-.2 0-.7 0-.7v-.4c-.3 0-.3.2-.6.3-.2-.2 0-.4-.1-.6-.1-.1-.5-.2-.6-.4-.1-.3 0-.5-.1-.8l-.4-.1c-.2-.2-.2-.6-.3-.8-.8.2-1.6.5-2.2.7-.8.2-1.5.1-2.1.4-.8.5-2.5 3.6-2.6 4.7-.2 1.2.2 2.4 0 3.6-.1.8-.7 1.7-.8 2.5-.2 1.3 0 2.2-.3 3.3-.2.7-.7 1.5-1 2.3.1-.1.4.1.6 0 .3-.1.6-.6 1.1-.6.1 0 .3.4.4.4.1.1.3-.1.4 0l1.1 1c.3.5.1 1.1.3 1.8.2.7.5 1.8.6 2.8 0-1.1-.3-2.9-.1-3.7 0 0 .1-.3.1-.4 0 0 .3.2.3.1.1 1.3.2 1.8.6 2.6 0-1.9-.4-3-.4-4.8 0 0 .1.2.1.3l.4.8c.1.3.2.5.3.7 0-2.9-.9-4.5-1.1-7.2.3 1 .7 2.3 1.1 3.2 0 0 .2-.2.3-.1 0-2.7-.6-4.2-1.2-6.2-.2-.6-.3-1.1-.4-2.1.2.7.6 1.7 1 2.3.3.6.3.4.7.8-.5-2.5-1.2-3.8-1.2-6.9l.3.1c0 1.9.5 3.6 1 5.1h.3c.1-.4.3-.7.4-1-.1 2.4-.5 5-.3 7.7.2 2.2.6 4.6.4 7-.1 1.2-.5 3.5-.1 5 0 .1.5.6.6.7 1 .5.9-.4 1-1 .1 0 .2.2.3.1.1.1.2.3.4.4.7.6.5.6.7-.6h.3c.3.6.4.9.8 1.4.1 0 .2-.2.3-.1-.2-1.7.4-3.7.4-5.4 0-.7-.3-1.6-.3-2.2 0-.5-.1-.6.3-.8.4 2.4-.4 5.7.3 8 0-1.2.3-3 .4-4.1 0 1.1.1 3 .4 4 .1.3.6.7.7 1v.3c.5.3 2.4.1 3.3.1.1-.2.4-.6.4-.8 0-.3-.1-.6 0-.8l.3-.1v1.4c.1 0 .2.3.3.3.7.2 1.5.1 2.2.3 0-.3 0-.6.1-1h.3c.2.4.3.6.4 1 .1 0 .8-.1.7-.1.4-.2.7-.2 1-.6.2-.3.1-.6.3-1 .4-.9 1.1-2.3 1.2-3.3.1-.3-.2-.3-.1-.7 0-.8.2-1.9.3-2.9h.3c0 3-.3 5-.8 7.4.3 0 .8.1 1.2.1.1-.2.1-.4.3-.6.1-.1.5 0 .6 0 .1-.2-.1-.5 0-.7 0-.1.5-.2.6-.3.1-.1.1-.7.1-.7.1-.5.2-1.3.1-1.9 0-.3-.3-.9-.4-1.2 0 0 .6.3.3.3.1.4.6.9.7 1.4.2 1.2-.1 2.5-.3 3.4.1 0 .4-.2.4-.1.1-.1.5-.3.6-.4.6-1.4-1.1-6-1.4-7.3-.3-1.4-.1-3.2-.1-4.8 0 0 .4-.2.4-.3-.2 1.4-.2 2.8.3 4 .1.2.5.6.6.8 0 .1-.1.3 0 .4 0 .1.4.1.4.1-.4-1.3-.8-2.6-1-4.3-.2-2.7.7-4.7.8-7 .1-1.8-.1-3.7-.1-5.4l.3.1c.1.2 0 .5 0 .7.1.5.5 1.5.6 2.1.1 1.1-.3 2.1-.4 2.9-.3 1.4-.4 2.7-.4 4.3 0 0 .2.1.3.1.1-1 .4-2.1.6-2.9.1-.7 0-1.5 0-2.2h.3c0 .1.1.4.1.4.1.6-.3 1.9-.4 2.5-.1 1 0 1.6-.1 2.6-.1.9-.4 2.1-.3 3.3l.3.7c.4 1.1.5-3.5.6-3.9.2 1.1.3 2.4.4 3.4 0 .1-.1 2.2-.1 2.2.2.1 0 .5.1.6-.1 2.1-.8 4-.6 6.2h.3c.3-.8.4-1.6.8-2.3.1-.2.4-.4.6-.6.3-.4.7-1.3 1.2-1.4 1-.2 2.8 1.4 3.3 1.9 0-.4.1-.7 0-1.1-.1-.3-.4-1.1-.6-1.4-.4-.6-.5-.1-1-.4-.1-.1-.9-1.3-1-1.4-.1-.3 0-.9 0-1.2h.3c.1.5.2 1.1.4 1.5l.3.1c-.3-1.7-.7-3.5-1-5.1-.3-1.7-.3-3.1-.7-4.5-.6-2-1.6-4-2.3-5.9-.4-1.1-.7-2.6-1.7-3.2-.8-.5-3.1-.9-4.3-1.1-.2.3-.4.6-.6.8-.2-.1.2-.4-.3-.3-.1.8-.2 1.3-.3 1.8-.1-.7 0-1.3-.3-1.9-.1-.1-.4-.3-.4-.4-.4-.6-.9-1.6-1.1-2.2-.5-1.8 0-4.2.1-6.1 0-.3.2-2.6.1-2.2.2-.1 0-.8 0-.8.1-1.8-.3-3.5-.8-5 .2.3.7.7.8 1.1 1 2.7 0 6.8.1 9.8 0 .1.3 1 .3 1.1v-1l.3.1c.2.6.2 1.2.4 1.8.3.8.8 1.5 1.1 2.3-.3-2.1-1.3-3.2-1.5-5.2-.3-3.3.6-6.7-.3-9.5-.1-.4-.6-.9-.8-1.2-1-1.7-2.2-2.2-5-2.2-.1-.5.1-1.4-.3-1.5-.2-.1-.5.3-.7.6.1-.7.1-1.4.1-2.2 0 0-.2-.1-.3-.1-.1.5-.3.8-.4 1.1 0-.7.1-1.5 0-2.2-.1-.3-1.2-2.4-1.4-2.5-.1-.1-.3.1-.4 0v1.2l-.3.1c0-.8-.1-1.4-.3-1.9-.1-.2.1-.3 0-.4-.1-.2-.3-.1-.4-.1-.7-.4-.6-.4-1.8-.5z"/><path class="st9" d="M165.8 145.9c1-.1.5.4.6.8-.1-.1-.4 0-.6 0 0 0-.3-.8 0-.8z"/><path class="st9" d="M165.3 144.9c.1.2.2.2.4.3 0 .1-.1.4 0 .6-.1 0 0 .2-.3.1.2.1-.5-.1-.6-.1.1-.2 0-.5 0-.7.2-.1.5 0 .5-.2z"/><path d="M132.3 42.6c0-.9.7-1.7 1.7-1.7.9 0 1.7.7 1.7 1.7s-.7 1.7-1.7 1.7c-1-.1-1.7-.8-1.7-1.7h0z" fill="#00649b" stroke="#00649b" stroke-miterlimit="3.864"/></svg>