<svg version="1.1" id="Layer_1" xmlns="http://www.w3.org/2000/svg" x="0" y="0" viewBox="0 0 210 210" xml:space="preserve"><style>.st2,.st3,.st5,.st7{fill:#00649b;stroke:#fff;stroke-width:.5;stroke-miterlimit:3.8637}.st3,.st5,.st7{stroke:#00649b}.st5,.st7{fill:#fdb827;stroke-width:.25}.st7{fill:#00649b;stroke-width:.15}.st10,.st9{fill:#00649b}.st10,.st11{fill-rule:evenodd;clip-rule:evenodd}.st11,.st12,.st13{fill:#fdb827}.st13{stroke:#fdb827;stroke-width:.5;stroke-miterlimit:3.8637}.st14{fill:#fff}</style><path d="M9.1 105C9.1 52.2 52 9.3 104.8 9.3s95.7 42.9 95.7 95.7-42.9 95.7-95.7 95.7S9.1 157.8 9.1 105h0z" fill="none" stroke="#fdb827" stroke-width="2" stroke-miterlimit="3.864"/><path d="M54.2 77.8c-.5-.3 7.3.2 7.8.9.4.6 4.5 6.3 1.5 22.4-1.2 4-1.5 12.4-1.2 15.7.3 3.4 1.8 10.2 5.7 14.4.3.3-4.6 2.5-7.3 1.3-.1-.1-5-3.2-5.4-18.1-.2-7.4 1.6-18.7 1.6-23.4 0-3.1 1.3-11.1-2.7-13.2 0 0 0 0 0 0z" fill="#00649b" stroke="#00649b" stroke-width=".05" stroke-miterlimit="3.864"/><path class="st2" d="M68 131.2s-.6-.4-1.5-2.2 2.7-.4 2.7-.4l-1.2 2.6z"/><path class="st3" d="M68.5 135.6c.1.2-6.3 2.4-6 3.5 5.7 29.6 36.5 33.8 36.2 32.6-.5-2.3.5-5.1.5-5.1 3-.3 2.7-1 2.7-1 .2-.8-1.3-.9-1.5-.9-28-3.8-31.9-29.3-31.9-29.1z"/><path class="st2" d="M69.6 139.1s-1.9-3.1-.5-3.7c1.3-.5 2.6 2.6 2.7 2.8.1.3-2.2.9-2.2.9z"/><path class="st2" d="M69.3 128.8s5 4.3 2.6 9.3c-.1.2-1.8-4.4-3.8-2.4-.1.1-2.6.9-2.9 1.2-.1.1.1-2.4-1-3.8-.2-.3 3.2-1 3.7-1.6.6-1.1 1.4-2.7 1.4-2.7z"/><path d="M109.6 173.7c-1.1 1.3-9.5 1-9.9-.3-.9-3 0-6.1 0-6.1-1.3 1.3 9.1 2.2 10.5.2.3 1.8.6 4.8-.6 6.2h0z" fill-rule="evenodd" clip-rule="evenodd" fill="#00649b" stroke="#fff" stroke-width=".5" stroke-miterlimit="3.864"/><path class="st3" d="M102 166.9c.1-.1.1 1.3.1 1.3-.5-.2-2.7-.5-2.3-.7.4-.2 1.8-.1 2.2-.6zm9 4.7c0-1.2.1-3.7-.4-4.8-.2-.5-1.9-.1-2.7-1.2-.5-.4.7-1 1.1-1 29.6-.2 33.5-31.6 35.4-37.1.4-1.3 2.4-3.5 4.2-2.5.7.4 4.8 1.1 4.8 1.1s-1.5 1.6-2.2 3.1c-3.5 6.9-5.8 39.2-40.2 42.4z"/><path class="st2" d="M148.6 124.8s1.5-1.2 1.4-4.4c-.5-11-8.2-34.5-.2-43 .2-.2 8.5-.1 8.5-.1s-10.2 5.3-1.2 39.6c1.6 6.3-4 17.4-5.6 15.1-.8-1.1 3.8-4.9 1.7-5.8-1.8-.7-4.6-1.4-4.6-1.4z"/><path class="st2" d="M153.7 90.9c0-3 .9-13.7 5-13.5 3.3.1 1.4 6.1 1.4 6.2s-4.5 6.3-2.2 7.9c.3.2-4.2-.6-4.2-.6z"/><path class="st2" d="M157.7 91.3s-1.8-1.5.2-4.5c.1-.1 3.5-1.8 3.5-1.4-.2 3.4-3.7 5.9-3.7 5.9zm-6.2 40.7c-.1.5-1.1-.2-1.1-.2s1.8-6 3-5.5c1.3.4-1.7 4.1-1.9 5.7z"/><path class="st3" d="M107.9 166.9c-.1-.1-.1 1.3-.1 1.3.5-.2 2.7-.5 2.3-.7-.4-.2-1.8-.2-2.2-.6z"/><path class="st5" d="M98 40.5c-.4-.9.6-1.1.6-1.1-.1-.9.7-.9.7-.9s1.3 1.6 3.9 3.8c.1.5-.9.8-.9.8-.5.8-1.3.4-1.3.4l-3-3z"/><path d="M99.3 38.6c.9.8-1.7 1.2-1.1 2 .9.9 1.2-2.1 1.8-1.2.9.8-1.8 1.4-1.2 2 1 1.2 1.2-1.9 2.1-1 .7.6-1.8 1.3-1.2 1.9.9.8 1.5-1.7 2.3-.9 1 .9-2.1 1.1-1.3 1.9.9 1 1.3-2.1 2.6-.8" fill="none" stroke="#00649b" stroke-width=".25" stroke-miterlimit="3.864"/><path class="st5" d="M104.5 56.5l-.9-.2s-.7-.2-.1-1.2c.2-1.4.8-2.8-.2-4.6 0 0 .9.7 1.4 1 .7.4 1.6.5 2.3.9.7.4.7 1 1.2 1.7.2.3.6.6.7 1s-.1 1-.1 1.2c-2.3-.7-4.3.2-4.3.2zM108 39c11 8.4 19.4 17.9 19.9 22-.7-1.5-14.4-15.6-21.2-20.4L108 39zM97 58.7c-.4.2-.9.4-1.2.5-1.3.5-3.4.9-4.9-.1-.9-.5-.9-1.9 0-2.5.7-.5 2.3-.8 3.5-.1l2.6 2.2s.1-.1 0 0z"/><path class="st7" d="M97 58.7c-.6-.5-2.6-2.1-2.6-2.1.4-.2 1.5-.4 2.1-.5.9-.1 2.3.2 3 .5l2.7 2.1c-.2.1-.5.2-.7.4-.6.3-1.5.9-2.6.5-1-.4-1.6-.8-1.9-.9z"/><path class="st5" d="M102 58.6c-.6-.5-2.6-2.1-2.6-2.1.4-.2 1.5-.4 2.1-.5.9-.1 2.3.2 3 .5l2.7 2.1c-.2.1-.5.2-.7.4-.6.3-1.5.9-2.6.5-.9-.3-1.5-.7-1.9-.9z"/><path class="st7" d="M107.1 58.6c-.6-.5-2.6-2.1-2.6-2.1.4-.2 1.5-.4 2.1-.5.9-.1 2.3.2 3 .5l2.7 2.1c-.2.1-.5.2-.7.4-.6.3-1.5.9-2.6.5-1-.3-1.6-.7-1.9-.9z"/><path class="st5" d="M112.3 58.7c-.6-.5-2.6-2.1-2.6-2.1.4-.2 1.5-.4 2.1-.5.9-.1 2.3.2 2.9.5l2.7 2.1c-.2.1-.5.2-.7.4-.6.3-1.5.9-2.6.5-.8-.3-1.4-.8-1.8-.9z"/><path class="st7" d="M114.9 56.7l.8-.4c1.3-.5 4.1-.5 5.2.1.9.5.9 1.8.1 2.5-.9.8-2.2.7-3.6-.3l-2.5-1.9s-.1.1 0 0z"/><path d="M5 105C5 49.8 49.8 5 105 5s100 44.8 100 100-44.8 100-100 100S5 160.2 5 105h0z" fill="none" stroke="#00649b" stroke-width="3" stroke-miterlimit="3.864"/><path class="st9" d="M140.4 30.1c.9-2-.6-3.6-1.4-4.5-1.2-1.2-2-2-1.5-3.3.3-.7 1.2-1.5 2.6-.9 1.5.6 1.3 1.7 1.3 2.5-.1.6 0 .7.1.8.2.1.3-.1.5-.4.7-1.5.7-1.7.5-1.9-.2-.2-1.1-.9-2.1-1.3-2.2-.9-4-.1-4.7 1.5-.8 1.8.3 3.1 1.5 4.3 1 1.1 1.9 2.3 1.3 3.6-.6 1.4-2.1 1.3-2.9 1-1.2-.5-2-2.1-1.6-3.8.1-.2.1-.3-.1-.4-.2-.1-.3.1-.4.2-.3.6-.7 1.5-.7 1.5-.2.4-.2.7-.1.9.2.4 1.1 1.3 2.5 1.9 2.3 1.2 4.4.2 5.2-1.7zm8.9-2.5c.4-.7.5-1.1 1.5-.7.4.2.6.3.7.1.1-.2-.1-.4-.2-.4l-2-1c-1-.5-1.6-.9-2-1.1-.1-.1-.4-.2-.5.1s.1.4.4.6c.8.5.5.9.2 1.6l-3.7 7c-.4.7-.6 1.1-1.5.7-.4-.2-.6-.3-.7-.1-.1.2.1.4.2.4l2 1c1.1.6 1.6.9 2 1.2.1.1.4.2.5-.1.1-.2-.1-.4-.4-.6-.8-.5-.5-.9-.2-1.6l3.7-7.1zm7.7 14.3c-.9 1.3-1.5 1.6-2.9.5-2.3-1.7-2.1-4.9-.4-7.1 1.5-2 4.8-3.6 7.1-1.8 1.6 1.3 1.5 2.7 1.3 3.4-.1.3-.1.5.1.6.1.1.2.1.4-.1.1-.1.9-1.5.9-1.8 0-.2-.7-1.2-2.1-2.3-4-3-7.9-1.8-9.6.5-1.1 1.5-2.6 5.5 1.6 8.7.4.3 1.8 1.4 3.8 1.6.6.1.7.1 1.2-.6.7-.9 1-1.4 1.1-1.6l.1-.1c.5-.7.7-.9 1.5-.4.4.3.6.4.7.2.1-.2-.1-.3-.1-.4-.2-.2-1.7-1.2-2-1.4-1-.7-1.4-1.2-1.6-1.3-.6-.4-.7-.5-.9-.3-.1.1-.1.3.4.7.7.5.9.9.2 1.6l-.8 1.4zm12.5 1.3c.5-.5.9-.9 1.6-.2.3.2.5.4.7.2s0-.4-.1-.5c-.2-.2-.7-.5-1.6-1.5-.8-.8-1.2-1.3-1.5-1.6-.1-.1-.3-.3-.5-.1s0 .4.2.7c.6.7.2 1.1-.3 1.6l-5.6 5.6c-.5.5-.9.9-1.6.3-.3-.2-.5-.4-.7-.2s0 .4.1.5.9.7 1.6 1.5c.9.9 1.3 1.4 1.5 1.6.1.1.3.3.5.1s0-.4-.2-.7c-.6-.7-.2-1.1.3-1.6l5.6-5.7zm-1.6 10.1c-.6.5-1 .8-1.6.1-.2-.3-.4-.5-.7-.3-.2.2-.1.4 0 .5s.2.1 2.1 2.6c2.6 3.4 2.6 3.4 2.7 3.5.2.2.4.3.7.1.2-.2 1.8-1 1.9-1.1.1-.1.2-.2.1-.4-.1-.1-.2-.1-.4-.1-2.1.4-3.1-.6-3.7-1.3-.7-.9-.4-1.6.5-2.3l5.9-4.6c.5-.4 1-.7 1.6 0 .2.3.4.5.7.3.2-.2.1-.4-.1-.5-.2-.3-.7-.7-1.4-1.7-.6-.8-1.2-1.6-1.3-1.9-.1-.1-.2-.3-.4-.1s-.1.4.2.7c.5.8.1 1.1-.5 1.6l-6.3 4.9zm6.7 9.1c-.7.4-1.2.7-1.6-.2-.2-.3-.4-.5-.6-.4-.2.1-.1.4-.1.5.1.2.2.1 1.8 2.9 2.1 3.7 2.1 3.7 2.1 3.9.2.3.3.3.6.2.3-.1 1.9-.8 2-.9s.2-.2.1-.4c-.1-.1-.2-.1-.3-.1-2.1.1-3-1-3.4-1.8-.6-1-.2-1.6.9-2.3l6.5-3.8c.6-.4 1.1-.6 1.6.2.2.3.4.5.6.4.2-.1.1-.4.1-.5-.2-.3-.5-.9-1.2-1.9-.5-.9-.9-1.8-1.1-2-.1-.1-.2-.4-.4-.2-.2.1-.1.4.1.7.4.9 0 1.1-.7 1.5l-7 4.2zm9.9 17c-1 .4-3 1-4.1-1.8-1.2-3 .9-3.8 2.1-4.3L188 71c.7-.3 1.2-.5 1.6.4.2.4.3.6.5.5s.2-.3.1-.4c-.1-.1-.4-.9-.9-2.1s-.7-1.9-.8-2.1c-.1-.1-.1-.4-.4-.2s-.2.4-.1.7c.3.9-.2 1.1-.9 1.4l-5.7 2.3c-2.9 1.2-2.7 3.7-1.7 6 1.6 3.9 4.1 2.9 5.1 2.5l5.5-2.2c1.5-.6 1.6-.4 2 .4.1.2.2.5.5.4.1 0 .2-.1.1-.4-.1-.2-.5-1-.7-1.6-.3-.8-.4-1.2-.5-1.5-.1-.2-.2-.4-.4-.3s-.2.3-.1.7c.3 1 .2 1.2-1.3 1.8l-5.4 2.1zm10 14.6l-8 1.6c-.9.2-1.3.2-1.6-.6-.1-.5-.2-.7-.4-.7-.2.1-.2.2-.2.4.1.4.3 1.3.5 2.3.1.7.2 1.7.2 2 .1.2.1.5.4.4.2-.1.2-.2.2-.6-.1-.8.1-.9 1.3-1.1l7.9-1.6c1-.2 1.2-.2 1.5.7.1.5.2.7.4.6s.2-.3.2-.5c-.1-.2-.2-.7-.2-1.1-.1-.4-.1-1.2-.2-1.6-.1-.3-.1-.5-.8-.6l-8-1.6 7.2-4.5c.4-.2.4-.4.4-.6-.1-.2-.2-.6-.3-1.3-.1-.5-.2-1.5-.2-1.8-.1-.3-.2-.4-.3-.4-.2.1-.3.2-.2.8.1.9.1.9-.8 1-2.4.4-8 1-8.2 1-1.3.2-1.5-.1-1.6-.7-.2-.5-.2-.7-.5-.7-.2.1-.2.2-.2.4.1.3.2 1 .4 1.6.1.8.2 1.4.2 1.7.1.2.1.5.4.5.2-.1.2-.4.1-.8-.1-.9-.1-1.1 2.9-1.6 1.9-.4 4.1-.6 6.2-.8v.1l-8.3 5.2c-.3.2-.4.3-.4.5s.2.2.7.4l9.3 2z"/><path class="st10" d="M186.3 117.2c-.8-.1-1.3-.2-1.2-1.2.1-.4.1-.7-.2-.7-.3-.1-.3.2-.3.4-.1.3-.2 1.8-.3 2.2 0 .1-.4 1.9-.5 2.2 0 .1-.1.4.2.4.3.1.4-.2.4-.6.2-.9.7-.9 1.5-.7l3.4.6c.3.1.4.1.4.4-.1.9-.2.9-1.1 1.2l-4.6 1.5c-.4.1-.6.2-.7.5 0 .2-.1.9-.1 1-.1.3-.4 1.5-.4 1.7 0 .1-.1.3.2.4.2.1.3-.1.5-.7.2-.5.7-.7 1.4-.9l3.5-1.2c.9-.3 1-.5 1.2-.7 0 .7.1 2.6 2.3 3 .7.1 3 .2 3.5-3 .1-.5.5-3 .5-3.5.1-.2.3-1.1.3-1.3.1-.6.1-.7-.1-.7-.2-.1-.3.2-.4.6-.2.9-.7.8-1.5.7l-7.9-1.6zm7.7 3.4c.7.1 1.2.2 1 1.1-.4 2.3-2.4 2.2-3.1 2.1-2.3-.4-2-2.3-1.9-2.9.2-.9.2-.9.9-.8l3.1.5z"/><path class="st9" d="M183.4 130.5c-.7-.2-1.2-.4-.9-1.3.1-.4.2-.7-.1-.7-.2-.1-.4.1-.4.3-.1.1-.1.2-.2.5s-.2.7-.5 1.5l-.1.2c-.1.1-.4.9-.7 2-.4 1-.9 2.3-1.2 3.2-.2.5-.1.8.3.9.6.3 1.7.9 2 1 .1.1.3.1.4-.1.1-.2 0-.2-.5-.8-1.2-1.3-.9-2.4-.5-3.2.5-1.5.9-1.8 2.1-1.3l3 1.1c.5.2.5.4.2 1.2-.5 1.5-.7 2-2.3 1.8-.4-.1-.5.1-.5.2-.1.2.2.3.3.4.1.1.8.2.9.2.4.1 2.2.9 2.4 1s.3 0 .3-.1c.1-.1 0-.2-.2-.4-.9-.7-1.2-1-.4-2.9.4-1 .5-1 1.1-.8l2.6.9c.9.3 1 .4.7 1.3-.9 2.5-1.8 2.7-2.3 2.7-.8.1-.9.1-.9.3-.1.2.1.2.2.3l1.6.6c.4.1.5.2.6 0 0-.1 0-.1.2-.5.2-.5.5-1.4 1.2-3.2l.3-.9c.5-1.5.9-2.3 1-2.6l.2-.4c.1-.1.1-.4-.1-.4-.2-.1-.4.1-.5.5-.4.9-.9.7-1.6.4l-7.7-2.9zm1.8 16.3c.7.3 1.1.5.7 1.5-.2.4-.3.6-.1.7s.4-.1.4-.2c.1-.2.4-.9 1-2 .5-1 .9-1.6 1.1-2 .1-.1.2-.4-.1-.5s-.4.1-.6.5c-.5.8-.9.6-1.6.2l-7.1-3.6c-.7-.4-1.2-.5-.8-1.5.2-.4.3-.6.1-.7-.2-.1-.4.1-.4.2-.1.2-.4 1-.9 2-.5 1.1-.9 1.6-1.1 2-.1.1-.2.4.1.5s.4-.1.6-.5c.5-.8.9-.6 1.6-.2l7.1 3.6z"/><path class="st10" d="M175.3 148.3c-.7-.4-1-.7-.5-1.5.2-.4.4-.5.1-.7-.2-.2-.4.1-.4.2-.2.3-1 1.6-1.2 2-.4.5-1 1.3-1.3 1.9-.1.1-.2.3 0 .5s.4-.1.7-.4c.6-.9 1-.5 1.7-.1l2.9 1.9c.2.1.3.2.2.3s-.4.4-.5.4c-.7.5-1 .8-1.2 1.2-.9 1.3-1.2 3.6.7 4.9 1.1.7 3.2 1.2 5-1.4.3-.4 1.4-2.3 1.7-2.6.2-.2 1-1.3 1.2-1.6.4-.5.4-.6.2-.7-.2-.2-.4.1-.6.4-.6.8-1 .5-1.6.1l-7.1-4.8zm5.4 6.2c.8.5 1.2.9.5 1.8-.9 1.3-2.5 1.6-3.8.7-1.5-1-1.4-2.7-.8-3.5.2-.3.5-.7.9-.9.2-.1.2-.1.5.1l2.7 1.8z"/><path class="st9" d="M163.5 165.5c-.8-.8-2.1-2.4 0-4.5 2.3-2.3 3.9-.7 4.9.2l4.3 4.1c.5.5.9.9.2 1.6-.2.3-.4.5-.2.7s.4.1.5-.1c.1-.1.6-.7 1.5-1.7.9-.9 1.5-1.4 1.6-1.5s.3-.3.1-.5-.4 0-.7.2c-.7.7-1 .3-1.6-.2l-4.4-4.3c-2.3-2.2-4.5-1-6.2.9-2.9 3-1 4.9-.2 5.7l4.3 4.1c1.2 1.1 1 1.3.5 2-.2.2-.4.5-.2.7.1.1.2.2.4-.1.2-.2.7-.9 1.2-1.3.6-.6 1-.9 1.2-1.1.1-.1.3-.3.1-.5s-.4-.1-.7.2c-.8.7-1 .7-2.1-.5l-4.5-4.1z"/><path class="st10" d="M157.7 168.8c-.5-.6-.8-1-.1-1.6.3-.2.5-.4.4-.7-.2-.2-.4-.1-.5 0l-1.8 1.5c-.4.3-2.6 1.9-2.8 2-3 2.3-1.5 4.7-1.2 5.2.4.5.9.9 1.6 1.1 1.2.3 2.1-.2 2.7-.7-.5.5-1.7 2-.5 3.5 1.7 2.3 4.8-.1 5.6-.7 0 0 2.2-1.7 3.1-2.6.3-.2.4-.5.3-.7-.1-.2-.3 0-.4 0 0 0-.1.1-.3.2-.7.5-.9.4-1.8-.8l-4.3-5.7zm.8 5.4c.5-.4.7-.1.9.1l1.8 2.4c.3.4.5.7-.4 1.5-1.3 1-2.5.9-3.4-.3-.4-.5-1.2-2 .5-3.3l.6-.4zm-.3-1.3c.4.5.4.6-.5 1.4-.4.4-2.5 1.8-4.3-.5-.5-.7-1-1.8-.4-2.9.2-.5.9-.9 1-1 1.1-.9 1.7-.4 2.7.9l1.5 2.1z"/><path class="st9" d="M147 176.3c-.4-.7-.6-1.2.2-1.6.3-.2.5-.4.4-.6s-.4-.1-.5-.1c-.2.1-.1.2-2.9 1.7-3.8 2.1-3.8 2-3.9 2.1-.3.2-.3.3-.2.6s.7 1.9.8 2 .2.2.4.1c.1-.1.1-.2.1-.3 0-2.1 1-3 1.8-3.4 1-.5 1.6-.2 2.2.9l3.7 6.6c.4.6.5 1.1-.2 1.6-.3.2-.5.4-.4.6s.4.1.5.1c.3-.2.9-.5 1.9-1.2.9-.5 1.8-.9 2.1-1 .1-.1.4-.2.2-.4-.1-.2-.4-.1-.7.1-.9.4-1.1 0-1.5-.7l-4-7.1zm-8.9 13.2c.3.7.5 1.2-.4 1.6-.4.2-.6.3-.5.5s.3.2.5.1.8-.4 2.1-.9c1.1-.4 1.7-.6 2.1-.8.1-.1.4-.1.2-.4-.1-.2-.4-.2-.7-.1-.9.3-1.1-.2-1.4-.9l-3-7.4c-.3-.7-.5-1.2.4-1.6.4-.2.6-.3.5-.5s-.3-.2-.5-.1-1 .5-2 .9c-1.2.5-1.8.6-2.1.8-.1.1-.4.1-.2.4.1.2.4.2.7.1.9-.3 1.1.2 1.4.9l2.9 7.4zm-15.2 5.6c.2.5.4.6 1.2.5 1.3-.1 1.6-.2 2.4-.4 4.8-1.3 6.1-5.1 5.4-7.7-.6-2.3-3.6-5.3-8.2-4.1-1.8.5-2.9 1.4-3.2 1.6-.3.3-.3.5-.2.7l.2 1.6c.1.1.1.3.4.2.2-.1.2-.4.2-.4.4-1.6.9-2.9 2.6-3.3 2.7-.7 5.1 1.8 5.7 4.3.6 2.3 0 5.6-3 6.4-1.7.4-2.6-.2-3.5-1-.3-.2-.4-.2-.5-.2-.2.1-.2.2-.1.4l.6 1.4z"/><path class="st10" d="M110.3 191.6c-.4 0-.4-.1-.4-.5l-.2-3.5c-.1-.8-.1-1.3.9-1.4.4-.1.7-.1.7-.4 0-.3-.2-.2-.4-.2-.1 0-.2.1-.5.1-.4.1-.9.1-1.6.1h-.2c-.2 0-1.4.1-2.7.1-1.2.1-2.5.1-2.8.1-.5 0-.7.2-.7.6 0 .7-.2 1.9-.1 2.2 0 .1.1.3.2.2.2 0 .2-.1.5-.8.7-1.6 1.9-1.7 2.7-1.8 1.6-.1 2 .1 2.1 1.5l.2 3.2c0 .5-.1.5-1 .6-1.5.1-2.1.1-2.6-1.3-.1-.4-.2-.4-.4-.4s-.2.3-.2.4c0 .1.1.8.1.9v2.6c0 .2.1.2.2.2s.2-.1.2-.3c.3-1 .4-1.5 2.5-1.5 1.1-.1 1.1.1 1.2.7l.1 2.7c.1.9 0 1.1-1 1.2-2.7.1-3.2-.5-3.4-1-.4-.7-.4-.7-.6-.7s-.2.2-.2.3l.1 1.7c0 .4.1.6.2.5.1 0 .1 0 .5-.1.5-.1 1.5-.1 3.4-.2l.9-.1c1.2-.1 1.9-.1 2.3-.1h.7c.2 0 .5 0 .5-.3 0-.1-.2-.3-.2-.5s.1-.4.2-.5l4.8-8.4c1-1.7 1.2-1.8 2.1-2 .1 0 .4-.1.4-.3s-.2-.2-.4-.2c-.3 0-.6.1-1.5.1-1 .1-2.2.1-2.6.1-.2 0-.4.1-.4.3s.2.2.4.2c.7 0 1.3.1 1.3.6s-.4 1.3-.4 1.4l-1.6 3.1c-.1.3-.3.4-.6.4l-2.7.4zm-.4 1.1c0-.4 0-.5.5-.5l2.3-.1c.1 0 .2.1.2.1v.2l-2 3.7c-.1.2-.3.5-.5.5-.3 0-.3-.4-.3-.6l-.2-3.3z"/><path class="st9" d="M71.9 189.5l2.6-7.7c.3-.9.5-1.3 1.3-1 .5.2.7.2.8-.1.1-.2-.1-.3-.2-.4-.4-.1-1.3-.4-2.3-.7-.7-.2-1.6-.7-1.8-.7-.2-.1-.5-.2-.5.1-.1.2.1.3.4.5.8.3.7.5.4 1.6l-2.5 7.6c-.3 1-.4 1.2-1.3.9-.5-.1-.7-.2-.7 0-.1.2.2.3.4.4.2.1.7.2 1.1.3s1 .5 1.5.6c.3.1.5.1.9-.4l5.4-6.2.3 8.5c0 .5.2.5.4.6.2.1.6.1 1.3.4.5.2 1.4.6 1.6.7.2.1.4.1.5-.1.1-.2 0-.4-.6-.5-.8-.3-.9-.3-.5-1.2.9-2.3 3.1-7.4 3.2-7.6.5-1.2.8-1.2 1.4-1.1.5.1.7.1.8-.1.1-.2-.1-.3-.2-.4-.3-.1-1-.3-1.6-.5-.8-.3-1.3-.5-1.6-.7-.2-.1-.5-.2-.6.1-.1.2.2.4.6.5.9.4 1 .5 0 3.3-.7 1.8-1.5 3.8-2.4 5.7h-.1l-.4-9.8c0-.4-.1-.5-.2-.6-.2-.1-.3.1-.6.4l-6.8 7.6z"/><path class="st10" d="M62.5 178.4c-.4-.2-.5-.3-.4-.9l.4-2.4c0-.1.1-.4.2-.5.1-.2.4-.2.8 0s.6.2.7.1c.1-.2-.1-.4-.2-.4s-.9-.4-2-1c-.3-.2-1.6-1-1.9-1.2-.1-.1-.4-.2-.5 0s.1.4.3.5c.6.5.5.9.4 2.5l-1 7.6c-.1.4-.1 1-.2 1.5-.1.8-.2 1 0 1 .2.1.2.1 1.7-1.2 2.7-2.2 6.3-5.2 7.5-5.9.7-.4.8-.3 1.3-.1.3.1.5.2.7 0s-.1-.4-.2-.4l-1.4-.7c-.5-.3-1.4-.9-1.6-1-.4-.2-.5-.3-.7-.1-.1.2.1.4.5.6.4.2.7.5.5.9-.1.2-.5.5-.5.6l-1.6 1.4c-.4.4-.4.4-.9.1l-1.9-1zm1.5 1.7c.3.2.4.2.3.4s-.2.2-.2.2l-2.6 2.2.5-3.5c0-.1.1-.3.1-.4 0-.1.1-.1.4.1-.1 0 1.5 1 1.5 1z"/><path class="st9" d="M50 168.7c-1.3 1.6-.4 3.6.1 4.6.8 1.5 1.3 2.5.5 3.5-.5.5-1.5 1.1-2.7.1s-.8-2-.5-2.7c.2-.5.2-.7.1-.9-.2-.2-.3-.1-.5.2-1 1.3-1.2 1.4-1 1.6.1.2.8 1.2 1.6 1.9 1.9 1.5 3.8 1.2 4.9-.2 1.3-1.6.5-3-.2-4.6-.7-1.3-1.2-2.7-.3-3.8 1-1.2 2.4-.7 3-.2 1 .9 1.3 2.6.5 4.1-.1.2-.1.3 0 .4.2.1.4-.1.4-.1.5-.5 1-1.2 1.1-1.3.3-.4.4-.6.4-.9-.1-.4-.7-1.5-1.8-2.5-1.9-1.3-4.3-.8-5.6.8zm-7.7-7.7c-1.5 1.5-.9 3.5-.4 4.6.6 1.5 1 2.6.1 3.6-.5.5-1.6.9-2.7-.2s-.5-2.1-.2-2.8c.3-.5.3-.7.2-.8-.2-.2-.3-.1-.6.2-1.2 1.2-1.3 1.3-1.3 1.5.1.3.7 1.3 1.4 2.1 1.6 1.7 3.7 1.6 4.9.4 1.5-1.4.9-3 .4-4.6-.5-1.4-.9-2.8.2-3.8s2.5-.4 3 .2c.9 1 1 2.7 0 4.1-.1.1-.2.3-.1.4.2.2.4 0 .4-.1.5-.4 1.2-1.1 1.3-1.2.4-.3.5-.5.5-.8-.1-.4-.5-1.6-1.5-2.7-1.7-1.6-4.1-1.5-5.6-.1z"/><path class="st10" d="M36.3 154.1c-.3-.4-.3-.5 0-1l1.4-2c.1-.1.2-.3.4-.4.2-.2.4-.1.7.3.2.3.5.5.7.4s.1-.4-.1-.5c-.1-.1-.7-.8-1.3-1.8-.2-.2-1-1.6-1.2-1.8-.1-.1-.2-.4-.4-.2-.2.1-.1.3.1.6.4.7.1 1.1-.7 2.4l-4.2 6.5c-.2.3-.5.8-.9 1.3-.5.7-.5.8-.4 1s.1.1 2-.3c3.4-.9 8-2 9.3-2.2.7-.1.9.1 1.3.5.2.2.4.4.6.3.2-.2.1-.4 0-.4-.1-.2-.9-1.1-1-1.2-.3-.4-.9-1.4-1-1.6-.2-.4-.4-.5-.6-.4-.2.1-.1.4.2.7.2.4.5.8.1 1-.2.1-.7.3-.7.3l-2 .6c-.5.2-.5.2-.8-.3l-1.5-1.8zm.7 2.1c.2.3.2.4.1.5-.1.1-.3.1-.4.1l-3.3.9 1.9-2.9c.1-.1.1-.2.2-.3.1-.1.1-.1.4.3l1.1 1.4z"/><path class="st9" d="M21.5 140.9c-.4.3-.5.4-.3 1.3.4 1.2.5 1.6.9 2.3 2.1 4.5 6.2 5 8.5 3.8 2.1-1 4.5-4.6 2.4-8.8-.9-1.7-1.9-2.6-2.2-2.8-.4-.2-.5-.2-.8-.1l-1.5.5c-.1.1-.2.1-.1.4.1.2.4.2.5.2 1.6.1 3 .4 3.7 2 1.3 2.6-.8 5.3-3.2 6.5-2.2 1-5.5 1.1-6.9-1.7-.7-1.6-.2-2.6.4-3.7.2-.3.2-.4.1-.5-.1-.2-.2-.1-.4-.1l-1.1.7zm-1.9-8.2c-.7.2-1.2.4-1.5-.5-.1-.4-.2-.6-.5-.5-.2.1-.2.3-.1.4.1.5.4 1.2.7 2.1.2.9.4 1.6.5 2.1.1.2.1.4.4.4s.2-.3.1-.7c-.2-.9.3-1 1-1.3l7.7-2.2c.7-.2 1.2-.4 1.5.5.1.4.2.6.5.5.2-.1.2-.3.2-.5-.1-.4-.4-1-.7-2.1-.4-1.3-.5-1.9-.5-2.1-.1-.1-.1-.4-.4-.3-.2.1-.2.4-.1.7.2.9-.3 1-1 1.3l-3.5 1c-.4.1-.4.1-.6-.5l-1.1-3.8c-.1-.5-.2-.6.3-.7l3.5-1c.7-.2 1.2-.4 1.5.5.1.4.2.7.5.5.2-.1.2-.3.2-.5-.1-.2-.4-1-.7-2.1-.4-1.3-.4-1.8-.5-2.1-.1-.1-.1-.4-.4-.3-.2.1-.2.4-.1.7.2.9-.3 1-1 1.3l-7.7 2.2c-.7.2-1.2.4-1.5-.5-.1-.4-.2-.6-.5-.5-.2.1-.2.3-.1.4.2.7.4 1.3.7 2.1.2.9.4 1.5.5 2.1.1.2.1.4.4.4s.2-.3.1-.7c-.2-.9.3-1 1-1.3l2.6-.7c.5-.2.5-.1.7.5l1.1 3.9c.2.6.2.6-.4.7 0-.1-2.8.6-2.8.6zm2.2-23.4c1.2-.1 3.2-.1 3.4 2.9.3 3.2-2 3.4-3.4 3.5l-5.9.5c-.7.1-1.2.1-1.4-.9-.1-.4-.1-.7-.4-.6-.3 0-.2.2-.2.4 0 .1.2 1 .3 2.3s.1 2 .1 2.3c0 .1.1.4.3.4.3 0 .3-.3.2-.7 0-1 .5-1 1.3-1l6.1-.5c3.2-.3 3.7-2.7 3.4-5.2-.4-4.2-3.1-4-4.1-3.9l-5.9.5c-1.6.1-1.7-.1-1.8-.9-.1-.2-.1-.6-.4-.5-.1 0-.2.1-.2.4 0 .2.2 1.1.2 1.8.1.9.1 1.3.1 1.6 0 .2.1.4.3.4s.2-.2.2-.7c0-1 .2-1.2 1.8-1.3l6-.8zm.4-12.8c-2.1-.1-3.2 1.8-3.7 2.8-.7 1.5-1.3 2.5-2.6 2.4-.7-.1-1.8-.6-1.6-2.2.1-1.6 1.2-1.8 2-2 .6-.1.7-.2.7-.4s-.1-.3-.5-.3c-1.6-.1-1.8-.1-2 .1-.1.2-.5 1.3-.6 2.4-.2 2.4 1.2 3.8 3 4 2 .1 2.9-1.3 3.6-2.8.7-1.3 1.5-2.6 3-2.4 1.5.1 2 1.6 2 2.4-.1 1.3-1.3 2.6-3 2.8-.2 0-.3.1-.4.2 0 .2.2.2.3.2.7.1 1.6.2 1.7.2.5.1.7.1.9-.2.2-.3.9-1.5 1-2.9-.1-2.5-1.7-4.2-3.8-4.3zm2.5-4.6c.7.1 1.3.2 1.2 1.2-.1.4-.1.7.2.7.3.1.3-.2.4-.3 0-.1.1-.3.1-.6.1-.3.1-.8.2-1.5l.1-.2c0-.1.2-1 .4-2 .2-1.1.5-2.4.7-3.3.1-.5-.1-.8-.4-.9-.7-.2-1.8-.6-2.1-.7-.1 0-.3 0-.3.2-.1.2.1.2.6.7 1.4 1.1 1.2 2.3 1 3.1-.3 1.6-.6 1.9-1.9 1.6l-3.2-.6c-.5-.1-.5-.2-.4-1.2.3-1.5.4-2 1.9-2.1.4 0 .5-.1.5-.2.1-.2-.2-.2-.3-.3-.1 0-.8-.1-.9-.1-.4-.1-2.3-.6-2.6-.6-.2-.1-.3.1-.3.2s0 .2.2.3c.9.5 1.3.8.9 2.8-.2 1.1-.4 1-1 .9l-2.7-.5c-.9-.2-1-.3-.9-1.2.5-2.6 1.3-2.9 1.8-3 .7-.2.9-.2.9-.4.1-.2-.2-.2-.3-.2l-1.7-.3c-.4-.1-.5-.1-.6.1 0 .1 0 .1-.1.5-.1.5-.2 1.5-.6 3.4l-.1.6c-.3 1.6-.5 2.4-.5 2.8l-.1.4c0 .1-.1.4.2.4.3.1.4-.2.4-.6.2-.9.7-.8 1.5-.7l7.8 1.6zM21 73.2c-.6-.2-.5-.3-.2-1.3.4-1.2.7-2 2.6-1.7.4.1.5-.1.5-.1.1-.2-.1-.4-.5-.5l-2.1-.9c-.4-.2-.7-.2-.8 0-.1.1.1.2.2.4.2.2.5.4-.2 2.3l-2.1 5.7c-.1.4-.3.7-.8.6-.2-.1-.2 0-.3.1-.1.2 0 .2.2.4l2.3 1.6c.1.1.2.1.2.2.1.1.2 0 .3-.1.1-.2 0-.3-.2-.5-1.3-1.5-.9-2.7-.5-3.8.1-.4.2-.5.7-.3l8.2 3c.7.2 1.2.4.9 1.3-.1.4-.2.7.1.7.2.1.4-.1.4-.3.1-.4.5-1.8.7-2.1.2-.6.6-1.5.9-2.1.1-.1.1-.4-.1-.5s-.4.1-.5.5c-.4.9-.9.7-1.6.4l-8.3-3zm6.4-13.1c-.5-.3-.5-.4.1-1.3.6-1 1.1-1.9 2.8-1.2.4.1.5 0 .5-.1.1-.2-.1-.4-.4-.5l-2-1.3c-.4-.2-.7-.4-.8-.1-.1.1 0 .2.1.4.2.3.4.5-.5 2.2l-3 5.2c-.2.4-.4.7-.9.5-.2-.1-.2-.1-.4.1-.1.1 0 .2.2.4l1.9 2c.1.1.1.2.2.2.1.1.2.1.4-.1.1-.1.1-.2-.1-.5-1.1-1.7-.4-2.8.1-3.8.2-.3.2-.5.7-.2l7.6 4.4c.6.4 1.1.6.7 1.5-.2.4-.3.6-.1.7s.4-.1.4-.2c.2-.3.9-1.6 1-2 .3-.5.9-1.3 1.2-1.9.1-.1.2-.4-.1-.5-.2-.1-.4.1-.6.4-.5.8-1 .5-1.6.1l-7.4-4.4zm12.3-3c.6.5 1 .8.5 1.6-.2.4-.4.5-.2.7s.4 0 .5-.1.2-.2.3-.5c.2-.2.4-.6.9-1.2l.1-.2c.1-.1.6-.8 1.3-1.6.7-.9 1.5-1.9 2.1-2.6.4-.4.3-.7 0-.9-.5-.5-1.3-1.4-1.5-1.5-.1-.1-.2-.1-.4 0-.1.1-.1.2.2.9.7 1.6.1 2.6-.5 3.2-1 1.3-1.4 1.5-2.4.6l-2.6-2c-.4-.4-.4-.5.2-1.2 1-1.2 1.3-1.6 2.7-1 .4.1.5.1.5 0 .1-.2-.1-.4-.2-.4-.1-.1-.7-.4-.8-.5-.3-.2-1.8-1.6-2-1.7-.2-.1-.2-.1-.4 0-.1.1-.1.2.1.4.6.9.8 1.3-.5 2.9-.7.9-.8.8-1.3.4l-2.1-1.7c-.7-.6-.8-.7-.2-1.5 1.6-2.1 2.5-2 3-1.9.7.2.9.2 1 0 .1-.1-.1-.3-.1-.4l-1.3-1.1c-.4-.2-.5-.4-.6-.2-.1.1-.1.1-.3.5-.3.4-.9 1.2-2.1 2.7l-.5.7c-1 1.3-1.5 1.9-1.8 2.2-.2.3-.3.3-.3.4-.1.1-.2.3 0 .5s.4 0 .7-.4c.6-.7 1-.4 1.6.1l6.4 4.8zm13.6-15.9L43 39.5c-.2-.1-.6-.2-.9 0l-.9.9c-.4.4-1.2.9-1.3 1-.2.2-.4.4-.2.6.2.2.4 0 .7-.2.6-.5.9-.5 1.8.5l4.2 4.7c1.7 1.9 1.7 2 1.2 2.7-.5.6-.5.7-.4.9.2.2.4 0 .4-.1l1.5-1.5c.4-.4 1-.8 1.2-1 .1-.1.4-.3.2-.5-.1-.1-.2-.1-.8.4-.7.5-1 .5-2.8-1.5l-4.4-4.8v-.1l12.7 2.1c.5.1.6 0 .7-.1.2-.2 0-.4-.2-.6l-6.6-7.3c-.7-.7-.5-1-.1-1.5.4-.4.5-.5.3-.7s-.4-.1-.4 0c-.2.2-1.2 1.2-1.5 1.4-.2.2-1 .8-1.2 1-.1.1-.4.3-.2.5s.4 0 .9-.4c.6-.5.7-.6 2.3 1 .2-.1 4.1 4.3 4.1 4.3zm10.2-7.8c-1.2-1.8-3.4-1.5-4.5-1.3-1.6.3-2.8.5-3.5-.6-.4-.6-.5-1.8.7-2.6 1.3-.9 2.2-.1 2.8.4.5.4.6.4.7.4.2-.1.1-.2-.1-.6-.9-1.4-1-1.5-1.3-1.5-.3.1-1.4.4-2.3 1-2 1.3-2.3 3.3-1.3 4.8 1.1 1.7 2.7 1.5 4.4 1.2 1.5-.2 2.9-.3 3.8.9.9 1.3-.1 2.6-.7 3-1.1.7-2.9.4-4.1-.8-.1-.1-.2-.2-.4-.1s-.1.4 0 .4c.3.6.9 1.4.9 1.5.2.4.4.6.7.6.4 0 1.7-.2 2.9-1 2.1-1.6 2.4-3.9 1.3-5.7zm3.3-8.6c-.3-.7-.5-1.1.3-1.6.4-.2.6-.3.5-.5s-.4-.1-.5-.1c-.2.1-.8.5-2 1-1 .5-1.7.7-2 .9-.1.1-.4.2-.2.4.1.2.4.2.7 0 .9-.4 1.1.1 1.5.8l3.5 7.2c.4.7.5 1.2-.2 1.6-.4.2-.6.3-.5.5s.4.1.5.1l2-1c1.1-.5 1.7-.7 2.1-.9.1-.1.4-.2.2-.4-.1-.2-.4-.2-.7 0-.9.4-1.1-.1-1.5-.8l-3.7-7.2zm14.1 1.1c-.7-2-2.9-2.2-4.1-2.3-1.6-.1-2.8-.1-3.3-1.4-.2-.7-.1-1.9 1.3-2.4 1.5-.5 2.1.4 2.6 1 .4.5.5.5.7.5.2-.1.2-.2.1-.6-.5-1.6-.6-1.7-.9-1.8s-1.5.1-2.5.4c-2.3.8-3 2.7-2.4 4.3.7 1.9 2.3 2.1 4 2.2 1.5.1 2.9.4 3.5 1.8.5 1.5-.7 2.4-1.4 2.7-1.3.5-2.9-.2-3.8-1.7-.1-.1-.2-.2-.4-.2-.2.1-.1.3-.1.4.2.7.5 1.5.5 1.6.2.4.2.7.5.7.4.1 1.7.2 3.1-.3 2.4-.7 3.2-2.9 2.6-4.9z"/><path class="st11" d="M27.7 104.1c0 .9.7 1.6 1.5 1.6.9 0 1.5-.7 1.5-1.5 0-.9-.7-1.5-1.5-1.6-.8.1-1.5.7-1.5 1.5zm.7.1c0-.5.4-.9.9-.9s.9.4.9.9-.4.8-.9.8c-.2 0-.4-.1-.6-.2-.2-.2-.3-.4-.3-.6zm-.5-4c-.1.9.5 1.6 1.4 1.6.9.1 1.6-.6 1.6-1.4.1-.9-.5-1.6-1.4-1.6-.8 0-1.6.6-1.6 1.4zm.6.1c.1-.5.4-.8.9-.8.5.1.8.4.8.9-.1.5-.4.8-.9.8-.2 0-.4-.1-.5-.3-.2-.2-.3-.4-.3-.6zm-.3-4c-.1.9.5 1.6 1.3 1.7.9.1 1.6-.5 1.7-1.3.1-.9-.5-1.6-1.3-1.7s-1.5.4-1.7 1.3zm.7.1c.1-.5.5-.8 1-.7s.8.5.7.9c-.1.5-.5.8-.9.7-.2 0-.4-.1-.5-.3-.2-.2-.3-.4-.3-.6zm-.1-4c-.1.9.4 1.6 1.3 1.8.9.1 1.6-.4 1.8-1.3.1-.9-.4-1.6-1.3-1.8-.8-.1-1.6.5-1.8 1.3zm.7.2c.1-.5.5-.8 1-.7.5.1.8.5.7 1-.1.5-.5.7-1 .7-.2-.1-.4-.1-.5-.3-.2-.3-.2-.6-.2-.7zm.1-4.1c-.2.9.4 1.6 1.2 1.8.8.2 1.6-.4 1.8-1.2.2-.9-.4-1.6-1.2-1.8s-1.6.4-1.8 1.2zm.6.2c.1-.5.5-.7 1-.7.5.1.7.5.7 1-.1.5-.5.7-1 .6-.2-.1-.4-.2-.5-.4-.2-.1-.2-.3-.2-.5zm.4-4.1c-.2.8.2 1.7 1 2 .8.2 1.6-.2 1.9-1 .2-.8-.2-1.6-1-1.9-.7-.3-1.6.1-1.9.9zm.7.2c.1-.4.6-.7 1.1-.5.5.1.7.6.5 1-.1.4-.6.7-1 .5-.2-.1-.4-.2-.5-.4-.2-.1-.2-.3-.1-.6zm.5-3.9c-.3.8.1 1.7 1 2 .8.2 1.6-.2 2-.9.3-.8-.1-1.6-.9-2-1-.3-1.8.1-2.1.9zm.6.2c.2-.4.7-.7 1.1-.5.4.2.7.6.5 1.1-.2.4-.6.7-1.1.5-.2-.1-.4-.2-.5-.4 0-.2-.1-.5 0-.7zm.8-4c-.3.8.1 1.7.9 2s1.6-.1 2-.9-.1-1.6-.9-2c-.8-.2-1.7.2-2 .9zm.6.3c.2-.4.7-.6 1.1-.5.4.2.7.7.5 1.1s-.7.6-1.1.4c-.2-.1-.4-.2-.5-.4-.1-.1-.1-.4 0-.6zm1-3.9c-.4.8-.1 1.7.7 2.1.7.4 1.6 0 2-.7.4-.8.1-1.6-.7-2-.8-.5-1.7-.2-2 .6zm.5.3c.2-.4.7-.6 1.2-.4s.6.7.4 1.1c-.2.4-.7.6-1.1.4-.2-.1-.4-.2-.4-.5-.2-.1-.2-.4-.1-.6zm1.2-3.8c-.4.7-.1 1.7.6 2.1s1.6.1 2.1-.6c.4-.7.1-1.6-.6-2.1-.8-.4-1.7-.1-2.1.6zm.6.3c.2-.4.7-.5 1.2-.4.4.2.6.7.4 1.2-.2.4-.7.5-1.2.3-.2-.1-.4-.2-.4-.5-.1-.1-.1-.4 0-.6zm1.3-3.8c-.4.7-.2 1.6.5 2.1.7.4 1.6.2 2.1-.5.4-.7.2-1.6-.5-2.1-.7-.4-1.7-.2-2.1.5zm.6.4c.2-.4.8-.5 1.2-.3s.5.7.3 1.2-.7.5-1.2.2c-.2-.1-.3-.3-.4-.5-.1-.1 0-.4.1-.6zm1.5-3.7c-.5.7-.3 1.6.4 2.1.7.4 1.6.2 2.1-.4.5-.7.2-1.6-.4-2.1-.7-.5-1.7-.3-2.1.4zm.5.4c.2-.4.8-.5 1.2-.2.4.2.5.8.2 1.2s-.8.5-1.2.2c-.2-.1-.3-.3-.4-.5.1-.3.1-.5.2-.7zm1.7-3.6c-.5.7-.4 1.6.3 2.1s1.6.4 2.1-.3.4-1.6-.3-2.1c-.6-.6-1.6-.4-2.1.3zm.6.4c.3-.4.8-.4 1.2-.2.4.3.5.8.2 1.2s-.8.4-1.2.2c-.2-.1-.3-.3-.4-.5 0-.2.1-.6.2-.7zm1.9-3.5c-.5.7-.4 1.6.2 2.2.7.5 1.6.4 2.1-.2.5-.7.4-1.6-.2-2.1-.6-.6-1.6-.6-2.1.1zm.5.4c.3-.4.9-.4 1.2-.1s.4.8.1 1.2c-.3.4-.9.4-1.2.1-.2-.2-.3-.4-.3-.6 0-.2 0-.4.2-.6zm2.1-3.5c-.6.6-.5 1.6.1 2.2.6.5 1.6.5 2.1-.1s.5-1.6-.1-2.1c-.6-.6-1.5-.6-2.1 0zm.5.5c.3-.4.9-.4 1.2-.1s.4.9.1 1.2-.9.4-1.2 0c-.2-.2-.2-.4-.2-.6-.2-.1-.1-.3.1-.5zm2.2-3.3c-.6.6-.7 1.6-.1 2.2s1.5.6 2.1.1c.6-.6.6-1.5.1-2.1-.5-.8-1.4-.8-2.1-.2zm.5.5c.4-.3.9-.3 1.2.1.3.4.3.9 0 1.2-.4.2-.9.2-1.2-.1-.2-.2-.2-.4-.2-.6-.1-.2.1-.5.2-.6zm2.4-3.2c-.6.5-.7 1.5-.1 2.2.5.6 1.5.7 2.1.1s.7-1.5.1-2.1c-.6-.7-1.5-.8-2.1-.2zm.4.5c.4-.3.9-.3 1.2.1s.3.9-.1 1.2c-.4.3-.9.2-1.2-.1-.2-.2-.2-.4-.2-.6 0-.2.2-.4.3-.6zm2.6-3.1c-.7.5-.8 1.5-.2 2.2.5.7 1.5.7 2.1.2.7-.5.8-1.5.2-2.1-.5-.7-1.4-.8-2.1-.3zm.4.6c.4-.3.9-.2 1.2.1.3.4.2.9-.1 1.2s-.9.2-1.2-.1c-.1-.2-.2-.4-.2-.6 0-.3.1-.5.3-.6zm2.8-2.9c-.7.5-.9 1.5-.4 2.1.5.7 1.5.9 2.1.4.7-.5.9-1.5.4-2.1-.5-.8-1.5-1-2.1-.4zm.3.5c.4-.3.9-.2 1.2.2s.2.9-.2 1.2-.9.2-1.2-.2c-.1-.2-.2-.4-.2-.6.1-.2.3-.5.4-.6zm2.9-2.8c-.7.5-.9 1.4-.5 2.1.4.7 1.4.9 2.1.4s.9-1.4.4-2.1c-.3-.6-1.3-.9-2-.4zm.4.5c.4-.2.9-.1 1.2.2.2.4.2.9-.2 1.2-.4.2-.9.1-1.2-.2-.1-.2-.2-.4-.1-.6-.1-.2.1-.4.3-.6zm2.9-2.6c-.7.4-1 1.4-.5 2.1.4.7 1.4 1 2.1.5.7-.4 1-1.3.5-2.1-.5-.7-1.4-.9-2.1-.5zm.4.6c.4-.2.9-.1 1.2.3.2.4.1.9-.3 1.2s-.9.1-1.2-.3c-.2-.2-.2-.4-.2-.6.1-.3.3-.5.5-.6zm3.1-2.5c-.7.4-1 1.3-.7 2.1s1.3 1 2.1.6c.7-.4 1-1.3.6-2.1-.4-.7-1.3-1-2-.6zm.3.6c.4-.2.9-.1 1.2.4.2.4.1.9-.4 1.2-.4.2-.9.1-1.2-.4-.1-.2-.1-.4-.1-.6.1-.3.3-.5.5-.6zm3.3-2.3c-.8.4-1.2 1.2-.8 2 .4.7 1.2 1.1 2 .8.8-.4 1.1-1.2.8-2-.3-.8-1.2-1.2-2-.8zm.2.6c.4-.2.9 0 1.1.4s0 .9-.4 1.1-.9 0-1.1-.4c-.1-.2-.1-.4 0-.7 0-.1.2-.3.4-.4zm3.4-2.2c-.8.3-1.2 1.2-.9 2 .3.8 1.2 1.2 2 .9s1.2-1.2.9-2-1.2-1.2-2-.9zm.3.7c.4-.2.9.1 1.1.5s0 .9-.5 1.1c-.4.2-.9-.1-1.1-.5-.1-.2-.1-.4 0-.7 0-.1.2-.3.5-.4zm3.4-2c-.8.2-1.3 1.1-1 2 .2.8 1.1 1.2 1.9 1s1.3-1.1 1-2c-.2-.8-1.1-1.2-1.9-1zm.2.7c.4-.1.9.1 1.1.5.1.5-.1.9-.5 1.1-.4.1-.9-.1-1-.5-.1-.2-.1-.4.1-.7 0-.2.1-.4.3-.4zm3.6-1.9c-.9.2-1.3 1-1.1 1.9.2.8 1 1.3 1.9 1.1.8-.2 1.3-1 1.1-1.9-.2-.8-1-1.2-1.9-1.1zm.2.7c.5-.1.9.2 1 .6.1.5-.1.9-.6 1-.4.1-.9-.2-1-.6-.1-.2-.1-.4.1-.6.1-.1.3-.3.5-.4zm3.7-1.6c-.9.2-1.4 1-1.2 1.8.2.8 1 1.3 1.8 1.2.9-.2 1.3-1 1.2-1.8-.2-.8-1-1.4-1.8-1.2zm.1.7c.5-.1.9.2 1 .7s-.2.9-.7 1-.9-.2-1-.7c-.1-.2 0-.4.1-.6.2-.2.4-.4.6-.4zm3.8-1.5c-.9.1-1.4.9-1.3 1.8.1.9.9 1.4 1.8 1.3.9-.1 1.4-.9 1.3-1.8-.2-.8-1-1.4-1.8-1.3zm0 .7c.5-.1.9.2 1 .7s-.2.9-.7 1c-.5.1-.9-.2-1-.7-.1-.2 0-.4.1-.6s.5-.3.6-.4zm3.8-1.2c-.9.1-1.5.9-1.3 1.7.1.9.9 1.4 1.7 1.3.9-.1 1.5-.9 1.3-1.7-.1-.8-.8-1.4-1.7-1.3zm.1.7c.5-.1.9.3.9.7.1.5-.2.9-.7 1s-.9-.3-.9-.7c0-.2 0-.4.2-.6 0-.3.3-.4.5-.4zm3.9-1.1c-.9.1-1.5.8-1.5 1.6.1.9.8 1.5 1.6 1.4.9-.1 1.5-.8 1.4-1.6 0-.8-.7-1.4-1.5-1.4zm0 .7c.5-.1.9.3.9.8s-.3.9-.8.9-.9-.3-.9-.8c0-.2.1-.4.2-.6.2-.2.4-.3.6-.3zm3.9-.9c-.9 0-1.5.7-1.5 1.6s.7 1.5 1.5 1.5c.9 0 1.5-.7 1.5-1.5.1-.8-.6-1.6-1.5-1.6zm0 .8c.5 0 .9.4.9.9s-.4.9-.9.9-.9-.4-.9-.9c0-.2.1-.4.2-.6.3-.3.5-.3.7-.3zm4-.7c-.9 0-1.6.6-1.6 1.5s.6 1.5 1.5 1.6c.9 0 1.6-.6 1.6-1.5 0-.8-.6-1.5-1.5-1.6zm-.1.7c.5 0 .9.4.8.9 0 .5-.4.9-.9.8-.5 0-.8-.4-.8-.9 0-.2.1-.4.2-.6.3-.1.5-.2.7-.2zm4-.5c-.9-.1-1.6.5-1.7 1.4s.5 1.6 1.4 1.6c.9.1 1.6-.5 1.6-1.4.2-.7-.4-1.5-1.3-1.6zm-.1.7c.5.1.8.5.8.9-.1.5-.4.8-.9.8-.5-.1-.8-.5-.7-.9 0-.2.1-.4.3-.5.1-.2.3-.3.5-.3zm4.1-.2c-.9-.1-1.6.4-1.8 1.3-.1.9.5 1.6 1.3 1.7.9.1 1.6-.4 1.7-1.3.2-.8-.4-1.6-1.2-1.7zm-.2.6c.5.1.8.5.7 1s-.5.8-1 .7c-.5-.1-.8-.5-.7-1 .1-.2.1-.4.3-.5.3-.1.5-.2.7-.2zm4.1 0c-.9-.2-1.6.4-1.8 1.2-.2.8.4 1.6 1.2 1.8.9.2 1.6-.4 1.8-1.2.1-.8-.4-1.6-1.2-1.8zm-.2.7c.5.1.7.5.7 1-.1.5-.5.8-1 .7-.5-.1-.7-.5-.7-1 .1-.2.2-.4.4-.5.2-.2.4-.3.6-.2zm4 .2c-.9-.2-1.6.3-1.9 1.1-.2.8.3 1.6 1.1 1.8s1.6-.3 1.8-1.1c.3-.8-.1-1.6-1-1.8zm-.2.6c.5.1.7.6.6 1-.1.5-.5.7-1 .6-.5-.1-.7-.5-.6-1 .1-.2.2-.4.4-.5.2-.1.4-.1.6-.1zm4.1.4c-.8-.2-1.7.2-2 1-.2.8.2 1.6 1 1.9.8.2 1.6-.2 1.9-1 .3-.8-.2-1.6-.9-1.9zm-.3.6c.4.1.7.6.5 1.1-.1.5-.6.7-1 .5-.4-.1-.7-.6-.5-1 .1-.2.2-.4.4-.5.2-.1.4-.1.6-.1zm4 .6c-.8-.3-1.7.1-2 1-.2.8.2 1.6.9 2 .8.3 1.6-.1 2-.9.2-1-.1-1.8-.9-2.1zm-.3.7c.4.2.7.7.5 1.1-.2.4-.6.7-1.1.5-.4-.2-.7-.6-.5-1.1.1-.2.2-.4.4-.5s.5-.1.7 0zm3.9.8c-.8-.3-1.7.1-2 .9-.3.8.1 1.6.9 2 .8.3 1.6-.1 2-.9.3-.8-.1-1.7-.9-2zm-.2.6c.4.2.6.7.5 1.1-.2.4-.7.7-1.1.5-.4-.2-.6-.7-.4-1.1.1-.2.2-.4.4-.5.1-.1.4-.1.6 0zm3.9.9c-.8-.4-1.7-.1-2.1.7-.4.7 0 1.6.7 2 .8.4 1.6.1 2-.7.4-.7.1-1.6-.6-2zm-.4.6c.4.2.6.7.4 1.2-.2.4-.7.6-1.1.4-.4-.2-.6-.7-.4-1.1.1-.2.2-.4.5-.4.2-.1.4-.1.6-.1zm3.9 1.3c-.7-.4-1.7-.1-2.1.6-.4.7-.1 1.6.6 2.1.7.4 1.6.1 2.1-.6.4-.8.2-1.8-.6-2.1zm-.3.5c.4.2.5.7.4 1.2-.2.4-.7.6-1.2.4-.4-.2-.5-.7-.3-1.2.1-.2.2-.4.5-.4h.6zm3.7 1.5c-.7-.4-1.6-.2-2.1.5-.4.7-.2 1.6.5 2.1.7.4 1.6.2 2.1-.5.5-.8.3-1.7-.5-2.1zm-.3.5c.4.2.5.8.2 1.2-.2.4-.7.5-1.2.2-.4-.2-.5-.8-.2-1.2.1-.2.3-.3.5-.4.3 0 .5.1.7.2zm3.7 1.6c-.7-.5-1.6-.4-2.1.4-.5.7-.3 1.6.4 2.1s1.6.3 2.1-.4c.4-.6.3-1.6-.4-2.1zm-.4.6c.4.2.5.8.2 1.2s-.8.5-1.2.2c-.4-.2-.4-.8-.2-1.2.1-.2.3-.3.5-.4.2 0 .5 0 .7.2zm3.6 1.7c-.7-.5-1.6-.4-2.1.3s-.4 1.6.3 2.1 1.6.4 2.1-.3.3-1.6-.3-2.1zm-.5.5c.4.3.4.8.2 1.2-.3.4-.8.5-1.2.2s-.4-.8-.1-1.2c.1-.2.3-.3.5-.3.2-.1.5 0 .6.1zm3.5 2c-.7-.5-1.6-.5-2.2.2-.5.6-.4 1.6.2 2.1.7.5 1.6.5 2.1-.2.6-.7.6-1.6-.1-2.1zm-.4.5c.4.3.4.9.1 1.2-.3.4-.8.4-1.2.1-.4-.3-.4-.9-.1-1.2.1-.2.4-.3.5-.3.3 0 .5 0 .7.2zm3.4 2.1c-.6-.6-1.6-.5-2.2.1-.5.6-.5 1.6.1 2.1s1.6.5 2.1-.1c.6-.6.6-1.6 0-2.1zm-.5.5c.4.3.4.9.1 1.2-.3.4-.9.4-1.2.1s-.4-.9 0-1.2c.2-.2.4-.2.6-.2.1-.2.3-.1.5.1zm3.3 2.3c-.6-.6-1.6-.7-2.2-.1s-.6 1.5-.1 2.1c.6.6 1.5.6 2.1.1.8-.6.8-1.5.2-2.1zm-.5.4c.3.4.3.9-.1 1.2-.4.3-.9.3-1.2 0-.3-.4-.3-.9.1-1.2.2-.2.4-.2.6-.2.2 0 .4 0 .6.2zm3.2 2.4c-.5-.6-1.5-.7-2.2-.1-.6.5-.7 1.5-.1 2.1s1.5.7 2.1.1c.7-.5.7-1.4.2-2.1zm-.6.4c.3.4.3.9-.1 1.2-.4.3-.9.3-1.2-.1-.3-.4-.2-.9.1-1.2.2-.1.4-.2.6-.2s.5.2.6.3zm3.1 2.6c-.5-.7-1.5-.8-2.2-.2-.7.5-.7 1.5-.2 2.1.5.7 1.5.8 2.1.2.7-.4.8-1.4.3-2.1zm-.6.5c.3.4.2.9-.1 1.2-.4.3-.9.2-1.2-.1-.3-.4-.2-.9.1-1.2.2-.1.4-.2.6-.2.3 0 .5.1.6.3zm3 2.8c-.5-.7-1.5-.9-2.1-.4-.7.5-.9 1.5-.4 2.1s1.4.9 2.1.4c.7-.5.9-1.4.4-2.1zm-.6.3c.2.4.2.9-.2 1.2s-.9.2-1.2-.2c-.2-.4-.2-.9.2-1.2.2-.1.4-.2.6-.1.3 0 .5.2.6.3zm2.8 3c-.4-.7-1.4-1-2.1-.5-.7.4-.9 1.4-.5 2.1s1.4.9 2.1.5c.7-.5 1-1.4.5-2.1zm-.6.3c.2.4.1.9-.3 1.2s-.9.1-1.2-.2c-.2-.4-.1-.9.3-1.2.2-.1.4-.2.6-.1s.5.2.6.3zm2.6 3.1c-.4-.7-1.3-1-2.1-.6-.7.4-1 1.3-.6 2.1.4.7 1.3 1 2.1.6.8-.5 1-1.4.6-2.1zm-.6.3c.2.4.1.9-.4 1.2-.4.2-.9.1-1.2-.3s-.1-.9.4-1.2c.2-.1.4-.1.6-.1.3 0 .5.2.6.4zm2.5 3.2c-.4-.8-1.3-1.1-2.1-.7-.7.4-1.1 1.3-.7 2 .4.7 1.3 1.1 2 .7.8-.4 1.1-1.2.8-2zm-.6.3c.2.4 0 .9-.4 1.2-.4.2-.9.1-1.2-.4-.2-.4 0-.9.4-1.1.2-.1.4-.1.6-.1.3 0 .4.1.6.4zm2.2 3.2c-.4-.8-1.2-1.2-2-.8-.7.4-1.1 1.2-.8 2 .4.8 1.2 1.1 2 .8.8-.4 1.2-1.2.8-2zm-.6.2c.2.4 0 .9-.4 1.1s-.9 0-1.1-.4c-.2-.4 0-.9.4-1.1.2-.1.4-.1.7 0l.4.4zm2.1 3.5c-.3-.8-1.2-1.2-2-.9-.8.3-1.2 1.2-.9 2s1.2 1.2 2 .9c.8-.4 1.2-1.2.9-2zm-.6.2c.2.4-.1.9-.5 1.1s-.9 0-1.1-.5c-.2-.4.1-.9.5-1.1.2-.1.4-.1.7 0 .1.1.3.3.4.5zm1.9 3.5c-.2-.8-1.1-1.3-2-1-.8.2-1.2 1.1-1 1.9s1.1 1.3 2 1c.8-.3 1.3-1.1 1-1.9zm-.7.2c.1.4-.1.9-.5 1.1-.5.1-.9-.1-1.1-.5-.1-.4.1-.9.5-1 .2-.1.4-.1.6.1.3-.1.5.1.5.3zm1.8 3.6c-.2-.9-1-1.3-1.9-1.1-.8.2-1.3 1-1.1 1.9.2.8 1 1.3 1.9 1.1.8-.2 1.4-1.1 1.1-1.9zm-.7.1c.1.5-.2.9-.6 1-.5.1-.9-.1-1-.6-.1-.4.2-.9.6-1 .2-.1.4-.1.6.1.3.2.4.4.4.5zm1.6 3.8c-.2-.9-1-1.4-1.8-1.2-.8.2-1.3 1-1.2 1.8.2.9 1 1.3 1.8 1.2.9-.3 1.4-1 1.2-1.8zm-.6.1c.1.5-.2.9-.7 1s-.9-.2-1-.7.2-.9.7-1c.2-.1.4 0 .6.1.2.2.3.3.4.6zm1.3 3.8c-.1-.9-.9-1.4-1.8-1.3-.9.1-1.4.9-1.3 1.8.1.9.9 1.4 1.8 1.3.9-.3 1.4-1 1.3-1.8zm-.7 0c.1.5-.2.9-.7 1s-.9-.2-1-.7.2-.9.7-1c.2-.1.4 0 .6.1.2.2.4.4.4.6zm1.3 3.8c-.1-.9-.9-1.5-1.7-1.3s-1.4.9-1.3 1.7c.1.9.9 1.5 1.7 1.3.8-.1 1.4-.8 1.3-1.7zm-.7.1c.1.5-.3.9-.7.9-.5.1-.9-.2-1-.7s.3-.9.7-.9c.2 0 .4 0 .6.2.2 0 .3.3.4.5zm1 3.9c-.1-.9-.8-1.5-1.6-1.5-.9.1-1.5.8-1.4 1.6.1.9.8 1.5 1.6 1.4.7 0 1.4-.7 1.4-1.5zm-.7 0c.1.5-.3.9-.8.9-.5.1-.9-.3-.9-.8-.1-.5.3-.9.8-.9.2 0 .4.1.6.2.2.1.3.4.3.6zm.8 3.9c0-.9-.7-1.5-1.6-1.5-.9 0-1.5.7-1.5 1.5 0 .9.7 1.5 1.5 1.5.9.1 1.6-.6 1.6-1.5zm-.7 0c0 .5-.4.9-.9.9s-.9-.4-.9-.9.4-.9.9-.9c.2 0 .4.1.6.2.2.2.3.5.3.7zm.6 4c0-.9-.6-1.6-1.5-1.6s-1.5.6-1.6 1.5c0 .9.6 1.6 1.5 1.6s1.6-.7 1.6-1.5zm-.7-.1c0 .5-.4.9-.9.8-.5 0-.9-.4-.8-.9 0-.5.4-.8.9-.8.2 0 .4.1.6.2.1.2.2.5.2.7zm.4 4c.1-.9-.5-1.6-1.4-1.7s-1.6.5-1.6 1.4c-.1.9.5 1.6 1.4 1.6.8.2 1.5-.4 1.6-1.3zm-.7-.1c-.1.5-.5.8-.9.8-.5-.1-.8-.4-.8-.9.1-.5.5-.8.9-.7.2 0 .4.1.5.3.2 0 .3.3.3.5zm.2 4.1c.1-.9-.4-1.6-1.3-1.8-.9-.1-1.6.5-1.7 1.3-.1.9.4 1.6 1.3 1.7.8.2 1.5-.4 1.7-1.2zm-.7-.2c-.1.5-.5.8-1 .7-.5-.1-.8-.5-.7-1s.5-.8 1-.7c.2.1.4.1.5.3.2.3.3.5.2.7zm0 4.1c.2-.9-.4-1.6-1.2-1.8-.8-.2-1.6.4-1.8 1.2-.2.9.4 1.6 1.2 1.8.8.1 1.6-.4 1.8-1.2zm-.7-.2c-.1.5-.5.7-1 .7-.5-.1-.8-.5-.7-1s.5-.7 1-.7c.2.1.4.2.5.4s.3.4.2.6zm-.2 4.1c.2-.9-.2-1.6-1.1-1.9-.8-.2-1.6.2-1.9 1.1-.2.8.2 1.6 1.1 1.9.8.1 1.7-.3 1.9-1.1zm-.6-.3c-.1.5-.6.7-1 .6-.5-.1-.7-.5-.6-1 .1-.4.6-.7 1-.6.2.1.4.2.5.4.1.2.1.4.1.6zm-.5 4c.2-.8-.2-1.7-1-2-.8-.2-1.6.2-1.9 1-.2.8.2 1.6 1 2 .8.3 1.6-.2 1.9-1zm-.6-.2c-.1.4-.6.7-1.1.5-.5-.1-.7-.6-.5-1 .1-.4.6-.7 1-.5.2.1.4.2.5.4s.1.4.1.6zm-.7 4c.3-.8-.1-1.7-.9-2-.8-.3-1.6.1-2 .9-.3.8.1 1.6.9 2 .8.2 1.7-.1 2-.9zm-.6-.3c-.2.4-.7.7-1.1.5-.4-.2-.7-.6-.5-1.1.2-.4.7-.6 1.1-.5.2.1.4.2.5.4s.1.5 0 .7zm-.9 4c.4-.8 0-1.7-.8-2-.7-.4-1.6 0-2 .8s0 1.6.8 2c.8.2 1.7-.1 2-.8zm-.6-.3c-.2.4-.7.6-1.2.4-.4-.2-.6-.7-.4-1.1.2-.4.7-.6 1.1-.4.2.1.4.2.4.5.2.1.2.3.1.6zm-1 3.8c.4-.8.1-1.7-.7-2.1-.7-.4-1.6-.1-2 .7-.4.7-.1 1.6.7 2.1.7.4 1.6.1 2-.7zm-.6-.3c-.2.4-.7.6-1.2.4-.4-.2-.6-.7-.4-1.2.2-.4.7-.5 1.1-.4.2.1.4.2.4.5.2.2.2.5.1.7zm-1.2 3.8c.4-.7.2-1.7-.6-2.1-.7-.4-1.6-.1-2.1.6-.4.7-.2 1.6.6 2.1.7.4 1.6.1 2.1-.6zm-.6-.4c-.2.4-.7.5-1.2.3-.4-.2-.5-.7-.3-1.2.2-.4.7-.5 1.2-.3.2.1.4.3.4.5 0 .3 0 .5-.1.7zm-1.5 3.8c.4-.7.2-1.6-.5-2.1-.7-.4-1.6-.2-2.1.5-.4.7-.2 1.6.5 2.1.7.4 1.7.2 2.1-.5zm-.5-.4c-.2.4-.8.5-1.2.2-.4-.2-.5-.7-.2-1.2.2-.4.8-.5 1.2-.2.2.1.3.3.4.5-.1.3-.1.6-.2.7zm-1.6 3.7c.5-.7.4-1.6-.4-2.1-.7-.5-1.6-.3-2.1.4s-.3 1.6.4 2.1c.6.5 1.6.3 2.1-.4zm-.6-.4c-.2.4-.8.5-1.2.2s-.5-.8-.2-1.2c.2-.4.8-.4 1.2-.2.2.1.3.3.4.5 0 .3-.1.5-.2.7zm-1.8 3.6c.5-.7.4-1.6-.3-2.1s-1.6-.4-2.1.3-.4 1.6.3 2.1c.7.4 1.6.3 2.1-.3zm-.5-.5c-.3.4-.8.4-1.2.2-.4-.3-.5-.8-.2-1.2s.8-.4 1.2-.1c.2.1.3.3.3.5.1.2.1.5-.1.6zm-2.1 3.6c.5-.6.5-1.6-.1-2.2-.6-.5-1.6-.5-2.1.1s-.5 1.6.1 2.1c.6.6 1.6.6 2.1 0zm-.4-.5c-.3.4-.9.4-1.2.1-.4-.3-.4-.9-.1-1.2.3-.4.9-.4 1.2-.1.2.1.2.4.3.5 0 .3-.1.5-.2.7zm-2.1 3.4c.6-.6.6-1.6 0-2.2s-1.6-.5-2.1.1c-.6.6-.6 1.6 0 2.1.5.6 1.4.6 2.1 0zm-.5-.5c-.3.4-.9.4-1.2 0-.4-.3-.4-.9 0-1.2.3-.4.9-.3 1.2 0 .2.2.2.4.2.6 0 .2-.1.4-.2.6zm-2.4 3.3c.6-.6.7-1.5.1-2.2-.5-.6-1.5-.7-2.1-.1-.6.5-.7 1.5-.1 2.1s1.5.7 2.1.2zm-.4-.6c-.4.3-.9.3-1.2-.1-.3-.4-.3-.9.1-1.2.4-.3.9-.3 1.2.1.2.2.2.4.2.6s-.2.5-.3.6zm-2.5 3.2c.7-.5.7-1.5.2-2.2-.5-.6-1.5-.7-2.1-.2-.7.5-.7 1.5-.2 2.1.5.7 1.4.8 2.1.3zm-.5-.6c-.4.3-.9.2-1.2-.1-.3-.4-.2-.9.1-1.2.4-.3.9-.2 1.2.1.1.2.2.4.2.6 0 .3-.1.5-.3.6zm-2.6 3.1c.7-.5.9-1.5.3-2.1-.5-.7-1.5-.8-2.1-.3-.7.5-.8 1.5-.3 2.1s1.4.8 2.1.3zm-.4-.6c-.4.3-.9.2-1.2-.2s-.2-.9.2-1.2.9-.2 1.2.2c.1.2.2.4.2.6s-.2.4-.4.6zm-2.8 2.9c.7-.5.9-1.5.4-2.1-.5-.7-1.5-.9-2.1-.4-.7.5-.9 1.4-.4 2.1.5.6 1.4.8 2.1.4zm-.3-.6c-.4.2-.9.2-1.2-.2s-.2-.9.2-1.2.9-.2 1.2.2c.1.2.2.4.1.6 0 .3-.1.5-.3.6zm-3 2.7c.7-.4 1-1.4.5-2.1-.4-.7-1.4-.9-2.1-.5-.7.4-.9 1.4-.5 2.1.4.7 1.4 1 2.1.5zm-.3-.6c-.4.2-.9.1-1.2-.3-.2-.4-.1-.9.2-1.2.4-.2.9-.1 1.2.3.1.2.2.4.1.6 0 .3-.1.5-.3.6zm-3.1 2.6c.7-.4 1-1.3.6-2.1-.4-.7-1.3-1-2.1-.6-.7.4-1 1.3-.6 2.1.4.7 1.3 1 2.1.6zm-.3-.6c-.4.2-.9.1-1.2-.4s-.1-.9.3-1.2c.4-.2.9-.1 1.2.4.1.2.1.4.1.6-.1.3-.2.5-.4.6zm-3.3 2.5c.8-.4 1.1-1.3.7-2.1-.4-.7-1.3-1.1-2-.7-.8.4-1.1 1.3-.7 2 .4.8 1.2 1.1 2 .8zm-.2-.7c-.4.2-.9 0-1.2-.4-.2-.4-.1-.9.4-1.1.4-.2.9 0 1.1.4.1.2.1.4.1.7-.1.2-.2.3-.4.4zm-3.4 2.3c.8-.3 1.2-1.2.9-2s-1.2-1.2-2-.9-1.2 1.2-.9 2 1.2 1.2 2 .9zm-.2-.7c-.4.2-.9-.1-1.1-.5-.2-.4 0-.9.5-1.1.4-.2.9.1 1.1.5.1.2.1.4 0 .7-.1.1-.3.3-.5.4zm-3.5 2.1c.8-.3 1.2-1.2 1-2s-1.2-1.2-2-1c-.8.3-1.2 1.2-1 2 .4.8 1.2 1.3 2 1zm-.2-.7c-.4.2-.9-.1-1.1-.5-.2-.4.1-.9.5-1.1.4-.2.9.1 1 .5.1.2.1.4-.1.7.1.2-.1.4-.3.4zm-3.5 1.9c.8-.2 1.3-1.1 1-1.9-.2-.8-1.1-1.3-1.9-1s-1.3 1.1-1 1.9c.3.8 1.1 1.3 1.9 1zm-.1-.6c-.4.1-.9-.1-1-.5-.1-.5.1-.9.5-1s.9.1 1 .5c.1.2.1.4-.1.6-.1.2-.2.3-.4.4zm-3.7 1.7c.9-.2 1.3-1 1.2-1.9-.2-.8-1-1.3-1.8-1.1s-1.3 1-1.1 1.8c.1.9.9 1.4 1.7 1.2zm-.1-.7c-.5.1-.9-.2-1-.6-.1-.5.1-.9.6-1s.9.2 1 .6c.1.2 0 .4-.1.6-.1.2-.3.4-.5.4zm-3.7 1.5c.9-.2 1.4-1 1.2-1.8-.2-.8-1-1.3-1.8-1.2-.9.2-1.4 1-1.2 1.8.1.9.9 1.4 1.8 1.2zm-.1-.6c-.5.1-.9-.2-1-.7s.2-.9.7-1 .9.2 1 .7c.1.2 0 .4-.1.6-.2.2-.5.4-.6.4zm-3.8 1.3c.9-.1 1.5-.9 1.3-1.7s-.9-1.4-1.7-1.3c-.9.1-1.4.9-1.3 1.7s.8 1.4 1.7 1.3zm-.1-.7c-.5.1-.9-.2-1-.7s.2-.9.7-1 .9.2.9.7c.1.2 0 .4-.2.6 0 .2-.2.4-.4.4zm-3.9 1.1c.9-.1 1.5-.8 1.4-1.6-.1-.9-.8-1.5-1.6-1.4-.9.1-1.5.8-1.4 1.6.1.9.8 1.5 1.6 1.4zm0-.6c-.5.1-.9-.3-.9-.8-.1-.5.3-.9.8-.9.5-.1.9.3.9.8 0 .2-.1.4-.2.6-.2.1-.4.3-.6.3zm-4 .9c.9 0 1.5-.7 1.5-1.6s-.7-1.5-1.6-1.5-1.5.7-1.5 1.6c.1.9.9 1.5 1.6 1.5zm0-.7c-.5 0-.9-.4-.9-.9s.3-.9.8-.9.9.4.9.8c0 .2-.1.4-.2.6-.1.3-.3.4-.6.4zm-3.9.7c.9 0 1.6-.7 1.6-1.5s-.7-1.5-1.5-1.5c-.9 0-1.5.7-1.6 1.5 0 .8.7 1.5 1.5 1.5zm0-.6c-.5 0-.9-.4-.9-.9s.4-.9.9-.9.8.4.8.9c0 .2-.1.4-.2.6-.1.2-.3.3-.6.3zm-3.9.5c.9.1 1.6-.5 1.6-1.4.1-.9-.6-1.6-1.4-1.6-.9-.1-1.6.5-1.6 1.4s.5 1.5 1.4 1.6zm0-.7c-.5-.1-.8-.4-.8-.9.1-.5.4-.8.9-.8.5.1.8.4.8.9 0 .2-.1.4-.3.5-.1.3-.4.3-.6.3zm-4 .3c.9.1 1.6-.5 1.7-1.3.1-.9-.5-1.6-1.3-1.7-.9-.1-1.6.5-1.7 1.3-.1.9.5 1.7 1.3 1.7zm.1-.6c-.5-.1-.8-.5-.7-1 .1-.5.5-.8.9-.7.5.1.8.5.7.9 0 .2-.1.4-.3.5-.1.2-.4.3-.6.3zm-3.9.2c.9.1 1.6-.4 1.8-1.3s-.4-1.6-1.3-1.8c-.9-.1-1.6.4-1.8 1.3-.1.8.4 1.6 1.3 1.8zm.1-.7c-.5-.1-.8-.5-.7-1 .1-.5.5-.8 1-.7s.7.5.7 1c-.1.2-.1.4-.3.5-.3.1-.5.2-.7.2zm-4-.1c.9.2 1.6-.4 1.8-1.2.2-.8-.4-1.6-1.2-1.8-.9-.2-1.6.4-1.8 1.2-.2.8.3 1.6 1.2 1.8zm.2-.6c-.5-.1-.7-.5-.7-1 .1-.5.5-.7 1-.7.5.1.7.5.6 1-.1.2-.2.4-.4.5-.1.2-.4.2-.5.2zm-4.1-.4c.9.2 1.6-.2 1.9-1.1.2-.8-.2-1.6-1.1-1.9-.8-.2-1.6.2-1.9 1.1-.1.9.3 1.8 1.1 1.9zm.2-.6c-.5-.1-.7-.6-.6-1 .1-.5.5-.7 1-.6.4.1.7.6.6 1-.1.2-.2.4-.4.5-.1.1-.3.1-.6.1zm-3.9-.5c.8.2 1.7-.2 2-1 .2-.8-.2-1.6-1-1.9-.8-.2-1.6.2-2 1-.3.8.2 1.6 1 1.9zm.2-.6c-.4-.1-.7-.6-.5-1.1.1-.5.6-.7 1-.5s.7.6.5 1c-.1.2-.2.4-.4.5-.2.1-.4.1-.6.1zm-4-.8c.8.3 1.7-.1 2-.9s-.1-1.6-.9-2c-.8-.3-1.6.1-2 .9-.2.9.1 1.8.9 2zm.3-.6c-.4-.2-.7-.7-.5-1.1.2-.4.6-.7 1.1-.5.4.2.6.7.5 1.1-.1.2-.2.4-.4.5-.2.1-.5.2-.7 0zm-3.9-.9c.8.4 1.7 0 2-.8.4-.7 0-1.6-.8-2s-1.6 0-2 .8c-.3.8 0 1.7.8 2zm.3-.5c-.4-.2-.6-.7-.4-1.2.2-.4.7-.6 1.1-.4.4.2.6.7.4 1.1-.1.2-.2.4-.5.4-.2.1-.4.1-.6.1zm-3.9-1.1c.8.4 1.7.1 2.1-.7.4-.7.1-1.6-.7-2-.7-.4-1.6-.1-2.1.7-.3.7-.1 1.6.7 2zm.3-.6c-.4-.2-.6-.7-.4-1.2.2-.4.7-.6 1.2-.4.4.2.5.7.4 1.1-.1.2-.2.4-.5.4-.2.2-.5.2-.7.1zm-3.8-1.4c.7.4 1.6.2 2.1-.5.4-.7.2-1.6-.5-2.1-.7-.4-1.6-.2-2.1.5-.5.8-.2 1.7.5 2.1zm.4-.5c-.4-.2-.5-.8-.3-1.2s.7-.5 1.2-.3.5.7.2 1.2c-.1.2-.3.3-.5.4s-.4 0-.6-.1zm-3.8-1.5c.7.5 1.6.3 2.1-.4.4-.7.2-1.6-.4-2.1-.7-.5-1.6-.2-2.1.4-.5.7-.3 1.6.4 2.1zm.4-.5c-.4-.2-.5-.8-.2-1.2.2-.4.8-.5 1.2-.2.4.2.5.8.2 1.2-.1.2-.3.3-.5.4-.3-.1-.5-.1-.7-.2zm-3.6-1.7c.7.5 1.6.4 2.1-.3s.4-1.6-.3-2.1-1.6-.4-2.1.3c-.5.6-.4 1.6.3 2.1zm.4-.5c-.4-.3-.4-.8-.2-1.2.3-.4.8-.5 1.2-.2s.4.8.2 1.2c-.1.2-.3.3-.5.4-.3-.1-.5-.1-.7-.2zm-3.6-1.9c.7.5 1.6.4 2.2-.2s.4-1.6-.2-2.1c-.7-.5-1.6-.4-2.1.2-.6.6-.5 1.5.1 2.1zm.5-.5c-.4-.3-.4-.9-.1-1.2s.8-.4 1.2-.1c.4.3.4.9.1 1.2-.1.2-.3.3-.5.3-.3 0-.5-.1-.7-.2zm-3.5-2.1c.6.5 1.6.5 2.2-.1.5-.6.5-1.6-.1-2.1s-1.6-.5-2.1.1c-.6.6-.6 1.6 0 2.1zm.5-.5c-.4-.3-.4-.9-.1-1.2s.9-.4 1.2-.1c.4.3.4.9.1 1.2-.2.2-.4.2-.5.3-.3.1-.5 0-.7-.2zm-3.4-2.2c.6.6 1.6.6 2.2 0 .6-.6.5-1.6-.1-2.1-.6-.6-1.6-.6-2.1 0-.6.6-.6 1.6 0 2.1zm.5-.4c-.4-.3-.4-.9 0-1.2.3-.4.9-.4 1.2 0 .4.3.3.9 0 1.2-.2.2-.4.2-.6.2-.2.1-.4-.1-.6-.2zm-3.2-2.4c.6.6 1.5.7 2.2.1.6-.5.7-1.5.1-2.1-.5-.6-1.5-.7-2.1-.1-.7.5-.8 1.5-.2 2.1zm.5-.5c-.3-.4-.3-.9.1-1.2.4-.3.9-.3 1.2.1.3.4.3.9-.1 1.2-.2.2-.4.2-.6.2-.2 0-.4-.1-.6-.3zm-3.1-2.5c.5.7 1.5.7 2.2.2.6-.5.7-1.5.2-2.1-.5-.7-1.5-.7-2.1-.2-.7.5-.8 1.5-.3 2.1zm.5-.4c-.3-.4-.2-.9.1-1.2.4-.3.9-.2 1.2.1.3.4.2.9-.1 1.2-.2.1-.4.2-.6.2-.2 0-.4-.1-.6-.3zm-3-2.7c.5.7 1.5.9 2.1.4.7-.5.9-1.5.4-2.1-.5-.7-1.5-.9-2.1-.4s-.9 1.4-.4 2.1zm.6-.4c-.3-.4-.2-.9.2-1.2s.9-.2 1.2.2.2.9-.2 1.2c-.2.1-.4.2-.6.2-.3-.1-.5-.2-.6-.4zm-2.8-2.9c.5.7 1.4.9 2.1.5.7-.4.9-1.4.4-2.1-.5-.7-1.4-.9-2.1-.4-.7.4-.9 1.3-.4 2zm.5-.3c-.2-.4-.1-.9.2-1.2.4-.2.9-.2 1.2.2.2.4.1.9-.2 1.2-.2.1-.4.2-.6.1-.2 0-.5-.1-.6-.3zm-2.7-3c.4.7 1.4 1 2.1.5.7-.4 1-1.4.5-2.1-.4-.7-1.3-1-2.1-.5-.6.5-.9 1.4-.5 2.1zm.6-.3c-.2-.4-.1-.9.3-1.2.4-.2.9-.1 1.2.3.2.4.1.9-.3 1.2-.2.1-.4.2-.6.1-.2-.1-.4-.2-.6-.4zm-2.5-3.1c.4.7 1.3 1 2.1.7.7-.4 1-1.3.6-2.1-.4-.7-1.3-1-2.1-.6-.7.3-1 1.2-.6 2zm.6-.3c-.2-.4-.1-.9.4-1.2.4-.2.9-.1 1.2.4.2.4.1.9-.4 1.2-.2.1-.4.1-.6.1-.3-.2-.5-.3-.6-.5zm-2.3-3.3c.4.8 1.3 1.1 2.1.7.7-.4 1.1-1.3.7-2-.4-.8-1.3-1.1-2-.7-.8.4-1.2 1.3-.8 2zm.6-.2c-.2-.4 0-.9.4-1.2.4-.2.9-.1 1.1.4.2.4 0 .9-.4 1.1-.2.1-.4.1-.7.1-.1 0-.4-.2-.4-.4zm-2.2-3.4c.3.8 1.2 1.2 2 .9s1.2-1.2.9-2-1.2-1.2-2-.9c-.8.4-1.2 1.2-.9 2zm.6-.2c-.2-.4.1-.9.5-1.1.4-.2.9 0 1.1.5.2.4-.1.9-.5 1.1-.2.1-.4.1-.7 0-.1-.1-.3-.3-.4-.5zm-2-3.5c.3.8 1.2 1.2 2 1s1.2-1.2 1-2c-.3-.8-1.2-1.2-2-1-.8.4-1.3 1.2-1 2zm.7-.2c-.2-.4.1-.9.5-1.1.4-.2.9.1 1.1.5.2.4-.1.9-.5 1-.2.1-.4.1-.7-.1-.2.1-.4-.1-.4-.3zm-1.9-3.5c.2.8 1.1 1.3 1.9 1 .8-.2 1.3-1.1 1-1.9-.2-.8-1.1-1.3-1.9-1-.8.3-1.3 1.1-1 1.9zm.6-.2c-.1-.4.1-.9.5-1 .5-.1.9.1 1 .5s-.1.9-.5 1c-.2.1-.4.1-.6-.1-.1 0-.3-.1-.4-.4zm-1.6-3.6c.2.9 1 1.3 1.9 1.2.8-.2 1.3-1 1.1-1.8s-1-1.3-1.8-1.1c-.9.1-1.4.9-1.2 1.7zm.7-.2c-.1-.5.2-.9.6-1 .5-.1.9.1 1 .6.1.5-.2.9-.6 1-.2.1-.4 0-.6-.1-.3 0-.4-.2-.4-.5zm-1.5-3.7c.2.9 1 1.4 1.8 1.2.8-.2 1.3-1 1.2-1.8-.2-.9-1-1.4-1.8-1.2-.8.2-1.4 1-1.2 1.8zm.7-.1c-.1-.5.2-.9.7-1s.9.2 1 .7-.2.9-.7 1c-.2.1-.4 0-.6-.1-.2-.2-.4-.4-.4-.6zm-1.3-3.8c.1.9.9 1.5 1.7 1.3.9-.1 1.4-.9 1.3-1.7-.1-.9-.9-1.4-1.7-1.3-.8.1-1.4.9-1.3 1.7zm.7 0c-.1-.5.2-.9.7-1s.9.2 1 .7-.2.9-.7.9c-.2.1-.4 0-.6-.2-.3 0-.4-.3-.4-.4zm-1.1-3.9c.1.9.8 1.5 1.6 1.4s1.5-.8 1.4-1.6c-.1-.9-.8-1.5-1.6-1.4-.8 0-1.5.7-1.4 1.6zm.6 0c-.1-.5.3-.9.8-.9s.9.3.9.8c.1.5-.3.9-.8.9-.2 0-.4-.1-.6-.2-.1-.2-.2-.5-.3-.6z"/><path class="st12" d="M116.5 166.1c-.3-.1-.6-.1-.9-.1-.7.1-1.3.7-1.2 1.5.1.3.2.6.5.7.2.1.6.1.9.1l.6.1c.2 0 .6 0 .7.3.1.4-.3.5-.6.6-.7.1-1.2-.2-1.6-.7l-.4.2.7 1.3.3-.1v-.2c.3.1.7.2 1 .1.8-.1 1.4-.8 1.3-1.6-.1-.3-.2-.6-.5-.7-.2-.1-.6-.1-.9-.1h-.4c-.2 0-.6 0-.7-.2-.1-.3.3-.4.5-.5s.5 0 .7.1.4.2.5.4l.1.1.4-.2-.5-1-.3.1-.2-.2zm4.6 1.4l-1.3-1.5c-.1-.1-.1-.1-.1-.2-.1-.2.2-.3.4-.4l-.1-.4-1.9.7.1.4c.4-.1.5-.1.8.2l1.9 2.3.7-.2.1-2.9c0-.3.1-.7.4-.8l-.1-.4-1.5.5.1.4c.2 0 .4-.1.5.1v2.2z"/><path class="st11" d="M126.1 166.4c.4-.2.7-.4.9-.7.2-.3.1-.7 0-1-.2-.4-.6-.5-1-.5.2-.2.2-.6.1-.9-.2-.3-.4-.5-.8-.5-.3 0-.7.2-1 .4l-1.8 1 .2.4.1-.1c.4-.1.4.1.5.3l.9 1.6c.2.4.2.4-.1.7l.2.4 1.8-1.1zm-1.7-1.6l-.3-.5c-.1-.1-.1-.2-.1-.3.1-.1.2-.2.3-.2.3-.2.7-.2.9.1.2.4-.2.6-.5.8l-.3.1zm.2.4l.4-.2c.4-.2.8-.4 1 .1.2.4-.1.7-.4.9-.1.1-.3.1-.4.1s-.1-.1-.2-.2l-.4-.7z"/><path class="st12" d="M132.8 159.9l-.4.1c.1.6.1 1.3-.4 1.7-.3.2-.3.1-.5-.1l-1.2-1.4c-.1-.1-.2-.2-.2-.4 0-.1.1-.2.2-.4l-.3-.4-1.5 1.3.3.4c.4-.2.4-.2.7.1l1.2 1.3c.2.3.3.4 0 .7l.3.4 2.3-2-.5-1.3zm2.6-1.5c-.1.1-.3.2-.4.2s-.2-.2-.3-.2l-1.3-1.2c-.1-.1-.2-.2-.2-.4 0-.1.1-.3.2-.4l-.3-.3-1.3 1.5.3.3c.1-.1.2-.2.4-.2.1 0 .2.2.3.2l1.3 1.2c.1.1.2.2.2.4 0 .1-.1.2-.2.4l.3.3 1.3-1.5-.3-.3z"/><path class="st11" d="M137.9 156c.2-.3.5-.6.5-1s-.2-.7-.4-.9c-.4-.2-.8-.2-1.2 0 .1-.3-.1-.7-.3-.9s-.6-.2-.9-.1c-.3.1-.5.5-.8.7l-1.2 1.6.4.2.1-.1c.2-.2.4-.1.6.1l1.4 1c.4.2.4.3.2.7l.4.2 1.2-1.5zm-2.2-.8l-.5-.4c-.1-.1-.2-.1-.2-.2s.1-.2.2-.3c.2-.2.5-.5.9-.3.3.2.1.7-.1.9l-.3.3zm.3.3l.2-.3c.2-.4.5-.7 1-.3.4.3.2.7 0 1l-.3.3c-.1 0-.2-.1-.2-.1l-.7-.6z"/><path class="st12" d="M138.4 150.1l-.2.4c.1.1.3.2.4.3.1.2-.1.3-.1.4l-.1.1-.4-.2c-.1-.1-.3-.2-.4-.3s.1-.4.2-.5c.3-.5.8-.7 1.4-.8l.1-.4-1.3-.1-1.6 2.7.4.2.1-.1c.2-.2.4-.2.6 0l1.5.9c.3.2.4.2.2.5l-.1.1.4.2 1.7-2.8-.8-1.2-.4.2c.3.7.4 1.2 0 1.9-.1.1-.2.3-.3.3s-.4-.2-.5-.2l-.5-.3.1-.1c.1-.1.2-.3.4-.4.2 0 .3.1.5.1l.2-.4-1.5-.5z"/><path class="st11" d="M141.8 146.1c.1-.5-.1-1-.5-1.3-.4-.2-.8-.1-1 .2-.2.2-.4.6-.5.9l-.9 1.8.4.2.1-.1c.2-.4.3-.3.7-.1l1.6.8c.4.2.4.2.3.6v.1l.4.2.9-1.8-.4-.2-.1.1c-.2.4-.3.4-.7.2l-.5-.3.1-.2 2-.4.5-1.2-.4-.2c-.2.4-.4.4-.7.4l-1.3.3zm-.9 1.1l-.7-.4c-.1 0-.2-.1-.2-.1-.1-.1.1-.3.1-.4.1-.2.2-.4.4-.4.1-.1.4-.1.5-.1.2.1.2.3.2.5s-.1.4-.2.7l-.1.2z"/><path class="st12" d="M144.1 143c.1.1.3.1.4.2.1.1 0 .3 0 .4v.1l.4.2.8-1.8-.4-.2v.1c-.1.1-.1.3-.3.3-.1.1-.3-.1-.4-.1l-2.1-.8-.1-.1c.1-.2.3-.3.5-.4.2-.1.4-.1.6-.1v-.4l-1.2-.1-1.2 2.7.9.9.3-.3c-.1-.2-.2-.4-.3-.5-.1-.2-.1-.4 0-.6.1-.1.1-.1.2-.1l1.9.6z"/><path class="st11" d="M143.5 136.8l-.3.8 2.1 1.8c.3.3.5.5.4 1l.4.1.5-1.6-.4-.1v.1c-.1.1-.2.4-.4.4-.1 0-.2-.1-.2-.1l-.3-.3.4-1.1h.7c.2.1.1.4 0 .5l.4.1.7-1.9-.4-.1v.1c-.2.3-.3.3-.7.4l-2.9-.1zm1.4 1.7l-.9-.7 1.2-.1-.3.8z"/><path class="st12" d="M147.3 134.2c.1.1.3.1.4.2.1.1.1.3 0 .4v.1l.4.1.6-1.9-.4-.1v.1c-.1.1-.1.3-.2.3-.1.1-.3 0-.4-.1l-2-.6c-.1 0-.1-.1-.1-.1.1-.2.2-.4.4-.5s.4-.2.6-.2l-.1-.4-1.2.1-.9 2.9 1 .7.2-.4c-.2-.2-.3-.3-.4-.5-.1-.2-.1-.4-.1-.6.1-.1.1-.1.2-.1l2 .6zm-.1-6.2l-.1.4c.1.1.4.1.4.2.1.1 0 .3 0 .5l-.1.2-.4-.1c-.1-.1-.4-.1-.4-.2s0-.4.1-.5c.2-.6.6-.9 1.2-1.1l-.1-.4-1.2.2-.9 3 .4.1.1-.1c.2-.3.3-.2.6-.2l1.7.5c.3.1.4.1.4.5v.1l.4.1.9-3.1-1.1-.9-.3.3c.5.6.7 1.1.5 1.8-.1.1-.1.4-.2.4s-.4-.1-.5-.1l-.5-.2v-.1c.1-.2.1-.4.2-.4s.3-.1.5 0l.1-.4-1.7-.5z"/><path class="st11" d="M68.2 145.6l.1.4c.2.7.7 1.5 1.6 1.2.4-.1.7-.4.7-.9.1-.4-.1-.7-.2-1l-.6-1.8-.5.2c.1.4 0 .5-.4.6l-1.6.5c-.4.1-.5.2-.7-.2l-.4.1.6 1.8.4-.1c-.1-.4 0-.5.4-.6l.6-.2zm.4-.1l.9-.3c.1 0 .2-.1.2 0 .1.1.1.2.2.3.1.4 0 .7-.4.8-.2.1-.4.1-.5-.1-.2-.1-.2-.4-.3-.5l-.1-.2z"/><path class="st12" d="M70.6 151.8v-.4c-.6 0-1.2-.2-1.5-.8-.2-.3-.1-.4.2-.5l1.6-.9c.1-.1.3-.2.4-.1l.3.3.4-.2-.9-1.7-.4.2c.2.4.1.5-.2.7l-1.6.8c-.4.2-.4.2-.7-.2l-.4.2 1.3 2.7c.2-.1 1.5-.1 1.5-.1z"/><path class="st11" d="M74.4 152.9l-.5-.7-2.7.6c-.4.1-.7.2-1-.2l-.4.2 1 1.4.4-.2c-.1-.1-.2-.4-.1-.5s.2-.1.2-.1l.4-.1.7 1-.2.4c-.1.1-.1.2-.2.2-.1.1-.3-.2-.4-.2l-.4.2 1.2 1.6.4-.2-.1-.1c-.2-.4-.1-.4.1-.7l1.6-2.6zm-2.2.3l1.1-.3-.6 1-.5-.7z"/><path class="st12" d="M76.3 158.7c-.5.1-1.1.1-1.5-.2-.2-.2-.3-.5-.2-.9.1-.3.3-.7.5-.9.4-.4 1.2-.9 1.7-.3.2.2.3.5.3.8 0 .2-.1.5-.1.8v.1l.4.2.6-1.3-.2-.2-.1.1c-.1-.3-.2-.5-.5-.8-.9-.9-2-.7-2.7.1-.8.8-.8 2 0 2.7.5.5 1.4.8 2.1.4l-.3-.6zm2.2 3c-.1-.1-.2-.2-.2-.4s.1-.2.2-.4l1.1-1.3.3-.3c.1 0 .3.1.4.2l.3-.4-1.5-1.2-.3.4c.1.1.2.2.2.4 0 .1-.1.2-.2.4l-1.1 1.3-.3.3c-.1 0-.3-.1-.4-.2l-.3.4 1.5 1.2.3-.4z"/><path class="st11" d="M79.3 162.8l1.5 1c.5.3.9.6 1.5.5.5-.1 1-.4 1.3-.9.2-.4.4-.7.3-1.2 0-.4-.1-.7-.4-1-.2-.2-.6-.5-.9-.7l-1.4-.9-.2.4c.4.3.3.4.1.7l-1 1.5c-.2.3-.3.4-.7.2l-.1.4zm2.8-1.6c.2-.3.2-.2.5-.1.2.2.5.4.5.8s-.1.7-.3 1c-.4.6-1 1-1.7.5-.1-.1-.2-.1-.2-.2-.1-.1.1-.2.1-.2l1.1-1.8zm5.5 2l-.8-.4-2 1.8c-.3.3-.5.5-1 .4l-.2.4 1.5.7.2-.4h-.1c-.1-.1-.4-.2-.3-.4 0-.1.1-.1.2-.2l.3-.3 1.1.5-.1.4c0 .1 0 .2-.1.3-.1.2-.4 0-.5-.1l-.2.4 1.8.9.2-.4h-.1c-.3-.2-.3-.3-.2-.7l.3-2.9zm-1.8 1.3l.9-.8-.1 1.2-.8-.4z"/><path class="st12" d="M91.2 164.6l-1.6-.5-.1.4c.4.2.4.3.3.7l-.5 1.7c-.1.4-.2.5-.6.4l-.1.4 1.5.4.1-.4H90c-.1-.1-.3-.1-.3-.2-.1-.1 0-.3.1-.4l.5-1.8.1 3 .6.2 1.7-2.4-.5 1.8c-.1.1-.1.3-.2.4-.1.1-.3 0-.4 0h-.1l-.1.4 1.9.6.1-.4h-.1c-.1-.1-.3-.1-.4-.2-.1-.1.1-.3.1-.4l.5-1.7c.1-.1.1-.3.2-.4.1-.1.3 0 .4 0l.1-.4-1.6-.5-1.4 2v-2.7zm-29.8-74l.1-.4c-.1 0-.4-.1-.5-.1-.1-.1-.1-.3-.1-.5v-.2l.4.1c.1 0 .4 0 .5.1s.1.4.1.5c-.1.6-.4 1-1 1.3l.1.4 1.2-.4.4-3.2-.5-.2-.1.1c-.1.4-.2.3-.5.2l-1.8-.2c-.4-.1-.4-.1-.5-.4v-.1l-.4-.1-.4 3.2 1.2.7.2-.4c-.5-.5-.9-1-.8-1.8 0-.1.1-.4.2-.4s.4.1.5.1l.5.1v.1c0 .2-.1.4-.2.5-.1.1-.3.1-.5.1l-.1.4 2 .5zm.5 4L62 93h-.4c0 .1-.1.4-.2.4-.1.1-.3 0-.4 0l-1.8-.2c-.1 0-.3 0-.4-.1-.1-.1-.1-.3-.1-.4l-.4-.1-.1 1.5.4.1c0-.1.1-.4.2-.4.1-.1.3 0 .4 0l1.9.2-3 1.5-.1.5 2.7.2c.4.1.5.1.5.5l.4.1.1-1.5-.4-.1c-.1.5-.2.4-.5.4l-1.2-.1 2.3-.9zm-.6 5.9c.2-.2.3-.5.3-.9.1-.7-.4-1.4-1.1-1.5-.3 0-.6.1-.9.3-.2.2-.3.5-.4.8l-.2.6c-.1.2-.1.5-.4.5-.4 0-.4-.4-.4-.7.1-.7.5-1.1 1.1-1.3l-.1-.4-1.4.4v.3l.2.1c-.2.2-.4.7-.4 1-.1.8.4 1.6 1.2 1.6.3 0 .6-.1.8-.4.2-.2.2-.5.4-.9l.1-.4.1-.2c.1-.2.1-.6.4-.5.3 0 .4.4.4.6s-.1.5-.2.7c-.1.2-.4.3-.5.4l-.1.1.1.4 1.2-.3v-.3h-.2zm-1.1 4.8l.1-.4c-.1 0-.4-.1-.5-.1-.1-.1-.1-.3-.1-.5v-.2l.4.1c.1 0 .4 0 .5.1s.1.4.1.5c-.1.6-.4 1-.9 1.3l.1.4 1.1-.5.3-3.2-.4-.1-.1.1c-.1.4-.2.3-.5.2l-1.8-.2c-.4 0-.5-.1-.5-.4v-.1l-.4-.1-.3 3.2 1.2.7.2-.4c-.5-.5-.9-1-.9-1.7 0-.1.1-.4.2-.4h.5l.5.1v.1c0 .2 0 .4-.2.5-.1.1-.3.1-.5.1l-.1.4 2 .5z"/><path class="st11" d="M58.1 112l-.1.5c-.1.7.1 1.6 1 1.6.4 0 .8-.1 1-.5.2-.3.2-.7.2-1l.1-1.9-.4-.1c-.1.4-.2.4-.5.4l-1.8-.1c-.4 0-.5-.1-.5-.5l-.4-.1-.1 1.9.4.1c.1-.4.2-.4.5-.4l.6.1zm.5 0l.9.1c.1 0 .2 0 .2.1.1.1.1.2.1.3 0 .4-.2.6-.7.6-.2 0-.4-.1-.5-.3-.1-.2-.1-.5 0-.8z"/><path class="st12" d="M59.5 117.4v-.4c-.1 0-.4 0-.5-.1s-.1-.3-.1-.4v-.2h.4c.1 0 .4-.1.5 0s.1.4.1.5c.1.6-.2 1.1-.7 1.5l.2.4 1.1-.6-.2-3.2-.4.1v.1c-.1.4-.2.3-.5.4l-1.8.1c-.4 0-.5 0-.5-.3v-.1l-.4.1.2 3.2 1.3.5.2-.4c-.7-.4-1-.8-1.1-1.6 0-.1 0-.4.1-.4.1-.1.4-.1.5-.1l.5-.1v.1c0 .2.1.4-.1.5-.1.1-.3.1-.4.2v.4l1.6-.2zm-1.3 3.8c-.1 0-.3.1-.4.1-.1-.1-.2-.2-.2-.4v-.1l-.4.1.5 2 .4-.1v-.1c0-.1-.1-.3.1-.4.1-.1.2-.1.4-.2l2.1-.5c.1-.1.1-.1.2.1s0 .4-.1.6-.2.3-.4.5l.2.4 1-.7-.8-2.9-1.2-.1-.1.4c.2.1.4.1.6.2.2.1.4.3.4.5 0 .1 0 .1-.1.1-.2-.2-2.2.5-2.2.5zm1.3 5.3c-.1-.2-.1-.4-.1-.5.1-.1.2-.2.4-.2l1.6-.7c.1-.1.3-.1.4-.1.1.1.2.2.2.4l.4-.2-.8-1.8-.4.2v.1c.1.1.1.3.1.4-.1.1-.2.2-.4.2l-1.6.7c-.1.1-.3.1-.4.1-.1-.1-.2-.2-.2-.4l-.4.2.8 1.8.4-.2zm1.7 2c-.1.1-.2.2-.4.1-.1 0-.2-.2-.3-.2l-.1-.1-.4.2 1 1.8.4-.2-.1-.1c-.1-.1-.1-.3-.1-.4s.2-.2.3-.2l1.8-1c.1-.1.1-.1.2 0 .1.2.1.4.1.6-.1.2-.1.4-.3.6l.3.2.8-.9-1.5-2.6-1.2.2.1.4c.2 0 .4 0 .7.1.2.1.4.2.5.4.1.1 0 .1-.1.2 0-.2-1.7.9-1.7.9z"/><path class="st11" d="M155.1 117.1c.1-.1.2-.1.3-.1.2 0 .4.2.5.4.1.2.2.6.2.9 0 .2 0 .6-.1.7s-.1.1-.2.1c-.2.1-.4.2-.4.4s.2.4.4.4c.4 0 .5-.5.6-.8.1-.4.1-.7.1-1.1s-.1-.9-.4-1.3c-.2-.4-.6-.7-1.1-.7-.3 0-.5.2-.7.4-.4-.2-.8-.3-1.2-.2-1.2.1-1.8 1-1.8 2.1.1 1.2 1 2 2.1 1.9s1.8-1 1.8-2.1c.3-.3.2-.7-.1-1zm-.4 1.7c-.2.3-.7.4-1.1.4-.6.1-1.4-.1-1.5-.9-.1-.7.7-1 1.3-1 .2 0 .4 0 .7.1 0 .2-.1.4-.1.6.1.3.3.8.7.8zm.1-1.1c.1.1.2.3.2.4s0 .2-.1.2-.1-.2-.2-.2c-.1-.1 0-.2.1-.4z"/><path class="st12" d="M153.7 112.7l-1.7 1c-.1.1-.2.1-.2.1-.2.1-.2-.2-.3-.4l-.4.1.4 2 .4-.1c-.1-.4 0-.5.4-.7l2.5-1.6-.1-.7-2.8-.5c-.3-.1-.7-.1-.7-.5l-.4.1.3 1.5.4-.1c0-.2-.1-.4.1-.5h.2l1.9.3zm-.6-5.3c0 .2.1.4-.1.5-.1.1-.2.1-.4.1l-1.7.4c-.1 0-.3.1-.4 0-.1-.1-.2-.2-.2-.4l-.4.1.4 2 .4-.1v-.1c0-.1 0-.3.1-.4s.2-.1.4-.1l1.7-.4c.1 0 .3-.1.4 0 .1.1.2.2.2.4l.4-.1-.4-2-.4.1zm-3.2-3.6l.1.4c.1 0 .4-.1.5 0 .2.1.2.3.2.4v.2l-.4.1c-.1 0-.4.1-.5.1-.1-.1-.2-.4-.2-.5-.1-.6.1-1.1.5-1.5l-.2-.3-1 .7.6 3.1.4-.1v-.1c0-.4.1-.4.4-.4l1.7-.4c.3-.1.4-.1.5.2l.1.1.4-.1-.6-3.2-1.4-.4-.1.4c.7.3 1.1.7 1.3 1.4 0 .1.1.4-.1.4-.1.1-.4.1-.5.1l-.5.1v-.1c0-.2-.1-.4.1-.5.1-.1.3-.2.4-.2l-.1-.4-1.6.5zm1.1-4.4c.1 0 .3-.1.4 0 .1.1.2.2.2.4v.1l.4-.1-.2-2-.4.1v.1c0 .1 0 .3-.1.4s-.3.1-.4.1l-2.1.2c-.1 0-.1 0-.1-.1 0-.2.1-.4.2-.6.1-.2.3-.3.5-.4l-.2-.4-1.1.5.4 3 1.2.3.1-.4c-.2-.1-.4-.2-.5-.3s-.3-.3-.4-.5c0-.1 0-.1.1-.1l2-.3zm-2.3-6.5v.4c.1 0 .4 0 .5.1s.1.3.1.5v.1h-.3c-.1 0-.4 0-.5-.1s-.1-.4-.1-.5c0-.6.3-1 .8-1.4l-.2-.4-1.1.5.1 3.2h.4v-.1c.1-.4.2-.3.5-.3l1.8-.1c.4 0 .5 0 .5.4v.1h.4l-.1-3.2-1.3-.6-.2.4c.6.4 1 .9 1 1.6 0 .1 0 .4-.1.4s-.4 0-.5.1h-.5c0-.2 0-.4.1-.5s.3-.1.5-.1V93l-1.8-.1zm-.5-5l-.2 1.6.4.1c.1-.4.2-.4.6-.4l1.8.2c.4.1.5.1.5.5l.4.1.2-1.5-.4-.1v.1c0 .1-.1.3-.2.4-.1.1-.3 0-.4 0l-1.9-.2 3-.5.1-.6-2.7-1.3 1.8.2c.1 0 .4.1.4.1.1.1.1.3.1.4v.1l.4.1.3-2-.4-.1v.1c0 .1-.1.3-.2.4-.1.1-.3 0-.4 0l-1.8-.2c-.1 0-.3 0-.4-.1-.1-.1-.1-.3-.1-.4l-.4-.1-.2 1.7 2.2 1.1-2.5.3z"/><path class="st13" d="M85.6 21.9c0-.7.5-1.2 1.2-1.2s1.2.5 1.2 1.2-.5 1.2-1.2 1.2-1.2-.5-1.2-1.2zm3-.7c0-.7.5-1.2 1.2-1.2s1.2.5 1.2 1.2-.5 1.2-1.2 1.2-1.2-.6-1.2-1.2zm2.9-.7c0 1.5 1.6 2.9 3.5 2.9 3-.4 2 1.2 2.2 2 .2 1 1.5-2.3.2-3.2-.7-.5 1.1-1 1.1-1.8s-1.6-1.2-.9-1.7c1.2-.9.1-4.1-.2-3.2-.3.8.8 2.4-2.2 2-1.9.2-3.7 1.5-3.7 3z"/><path class="st14" d="M96.2 20.6c0-.2.4-.5.7-.5.4 0 .7.2.7.5 0 .2-.4.5-.7.5-.4 0-.7-.2-.7-.5z"/><path class="st13" d="M122 21.8c0-.7.5-1.2 1.2-1.2s1.2.5 1.2 1.2-.5 1.2-1.2 1.2c-.8 0-1.2-.5-1.2-1.2zm-3-.7c0-.7.5-1.2 1.2-1.2s1.2.5 1.2 1.2-.5 1.2-1.2 1.2-1.2-.5-1.2-1.2zm-.5-.6c0 1.5-1.6 2.9-3.5 2.9-3-.4-2 1.2-2.2 2-.2 1-1.5-2.3-.2-3.2.7-.5-1.1-1-1.1-1.8s1.6-1.2.9-1.7c-1.2-.9-.1-4.1.2-3.2.3.8-.8 2.4 2.2 2 1.9.1 3.7 1.5 3.7 3z"/><path class="st14" d="M112.3 20.5c0-.2.4-.5.7-.5.4 0 .7.2.7.5 0 .2-.4.5-.7.5-.4 0-.7-.2-.7-.5z"/><path class="st13" d="M101.2 22.4c0-.6.5-1.2 1.2-1.2.6 0 1.2.5 1.2 1.2s-.5 1.2-1.2 1.2-1.2-.5-1.2-1.2zm4.8 0c0-.6.5-1.2 1.2-1.2.6 0 1.2.5 1.2 1.2s-.5 1.2-1.2 1.2c-.7-.1-1.2-.6-1.2-1.2zm.2-4.9c0-.6.5-1.2 1.2-1.2.6 0 1.2.5 1.2 1.2s-.5 1.2-1.2 1.2-1.2-.5-1.2-1.2zm-4.9 0c0-.6.5-1.2 1.2-1.2.6 0 1.2.5 1.2 1.2s-.5 1.2-1.2 1.2-1.2-.5-1.2-1.2zm2.4 2.4c0-.6.5-1.2 1.2-1.2.6 0 1.2.5 1.2 1.2s-.5 1.2-1.2 1.2c-.7-.1-1.2-.6-1.2-1.2zm.3 4.4c-.4-.5-.4-1.2 0-1.6.5-.4 1.2-.4 1.6 0 .5.5.5 1.2 0 1.6s-1.1.4-1.6 0zm3.6-3.4c-.5-.5-.4-1.2 0-1.6.4-.5 1.2-.5 1.6-.1s.4 1.2-.1 1.7c-.4.3-1.1.4-1.5 0zm-3.6-3.6c-.4-.5-.4-1.2 0-1.6.5-.5 1.2-.5 1.6 0 .5.5.5 1.2 0 1.6-.4.4-1.1.4-1.6 0zm-3.5 3.6c-.4-.5-.5-1.2-.1-1.7.5-.5 1.2-.4 1.7.1.4.4.4 1.2 0 1.6-.5.4-1.2.3-1.6 0z"/><path d="M105 163.8c6.1 0 42.1-32.9 37.2-100.6H68.4c-7.3 69.5 31.1 100.6 36.6 100.6h0z" fill="#00649b" stroke="#00649b" stroke-width="4" stroke-miterlimit="3.864"/><path d="M80.1 69.3l-1.4 4.3h-4.6l3.7 2.8-1.4 4.4 3.7-2.7 3.7 2.7-1.5-4.4 3.7-2.8h-4.6c.1 0-1.3-4.3-1.3-4.3h0z" fill="#fff" stroke="#fff" stroke-width=".5" stroke-miterlimit="3.864"/><path class="st11" d="M27.5 107.9c0 .9.7 1.6 1.5 1.6s1.5-.7 1.5-1.5c0-.9-.7-1.5-1.5-1.6-.8.1-1.5.7-1.5 1.5zm.7.1c0-.5.4-.9.9-.9s.9.4.9.9-.4.8-.9.8c-.2 0-.4-.1-.6-.2-.2-.2-.3-.4-.3-.6z"/><path class="st5" d="M103.7 56.3c-1.5-.3-1.4-.4-2.9-.1-.2.1-1.9-1-2.1-1.2-3-1.9-4.3-3.2-4.3-3.2-.6-.7-3.5-3.5-3.2-4.8.1-.6 1.1-1.2 1.5-1.6.2-.2.2-.4.3-.7.1-.1.3-.5.4-.5.6-.8 1.5-1.2 2.3-1.7.3-.2 2.3-1.7 2.4-1.9 0 0 2.9 2.9 2.9 3-.2.3-.5 1.1-.8 1.3-.1.1-.4.1-.5.2-.2.1-.2.6-.4.8-.2.3-.7.7-1 1-.2.1-.6.2-.7.4-.1.1.1.2 0 .4.9.3 1.2.5 1.5 1.4.2 0 .4-.1.7-.1.4.1.5.8.8 1 .3.1.5 0 .7.2s.4.6.7.7l1.6.2c.7 1.6.2 2.9 0 4.1-.7.8 0 1.1.1 1.1l.9.2-.9-.2zm-2-19.2c.8.1 1-1 1.4-1.2 1-.5 3 1.3 3.4 1.8.2.3 0 1.4 0 1.4-.1.3-1.5 1.4-1.5 1.4-.7.1-1.3.5-2 .4 0 0-.1.9-.3 1.2-1.5-1.4-2.9-2.9-2.9-2.9.1 0 .2-1.1 1-.5.1-.1-.1-.2-.1-.4.2.1.1-1.2 1-1.2z"/><path class="st2" d="M53.7 77.7c1.5.2 2.9 2.9 3 6.1.1 1.5.1 2.3.1 3.7 0 2.4-.2 4.6-.5 3.7-.2-.7-.7-1-1.3-1.3-1.1 1.1-1.9 1.8-2.4 3.2-.7-1-1.1-1.8-1.1-3 0-2 .6-3.2.6-5.2 0-1.8-.4-2.8-.6-4.6-.2-1.6.8-2.7 2.2-2.6z"/><path class="st7" d="M97.1 47.3c-1-.2-1.3 1.2-1.2 1.7 0 0-.3.3-.3-.3-.1-1.7 1.5-1.4 1.5-1.4zm4.4 8.7c-.9-.4-1.6-1.1-2.3-2.3-.3-.6-1-1.2-1.6-1.5.5.1.9.1 1.2.3.7.4 1 1 1.4 1.6.3.4 1.5 1.5 2 1.8h-.7v.1zm1.9-.8c-1.8-.9-2-3.2-2-3.2.7 1.6 1.6 2 2.2 2.5l-.2.7z"/><path class="st7" d="M103.4 55.2c-1-.5-.7-.5-1.6-.5 1 .4 1.2 1.5 1.2 1.5s.3-.1.5.1c-.5-.4-.3-.9-.1-1.1zM99.1 49c.2 1.1.5.9.3 1.5-.7.2-1.2-.2-1.1-.7.7.9.7.1.8-.8zm-1.5-1.4s-.1.8.6.9c.4.5-.4.7-.7.1-.3-.7.1-1 .1-1zm-.8.3c-.9.5-.2 1.8.2 2.1 0 0-.1.4-.5 0-1.1-1.4.3-2.1.3-2.1zm1.3-2.8s.7-.1 1.6-.4c.4-.3.1-.5.1-.5-.5.3-1.7.9-1.7.9z"/><path d="M99 42c-.3.4-1.6.8-1.6.8s1.3-.2 1.8-.4c.3-.3.2-.9-.2-.4 0 0 0 0 0 0z" fill-rule="evenodd" clip-rule="evenodd" fill="#00649b" stroke="#00649b" stroke-width=".15" stroke-miterlimit="3.864"/><path class="st7" d="M105.9 38s-.1.2-.1.3l.3.2c.1-.1-.3.2.2-.2 0-.1-.1-.2 0-.3h-.4zm-.7-.6c-.2.2-.4.4-.5.7-.2.2-.2.2-.3.5.1.1.1.2.1.4.1 0 .3-.1.4-.1.5-.3.5-.5.9-.9-.1-.2 0-.5-.2-.5-.1-.2-.3-.1-.4-.1zm-1.4.2c-.2.3-.1.1-.1.7.1 0 .4 0 .5.1.2-.2.5-.4.8-1 .1-.2-.2-.4-.1-.5-.2-.2-.7 0-1.1.7zm-.3-1.4c-.2.2-.5.4-.5.7-.1.1-.1.6-.1.5l.1.2c.1-.1.3.1.4 0l.7-.8c.2-.3-.1-.5-.1-.5-.3-.1-.3 0-.5-.1z"/><path class="st7" d="M101.9 37.3s.9.9.6 2c1-.7 2 .2 2 .2l.5-.2-.2-.3-.5-.2-.6-.5-.7-.7-1.1-.3z"/><path class="st5" d="M101.8 37.1c.8.1.9-1 1.3-1.3 1-.5 3 1.3 3.4 1.8.2.3 0 1.4 0 1.4-.1.3-1.2 1.1-1.4 1.8.2.4.5.8 1.3.4.2-.1-.1-.5.3-.7l1.3-1.6c.1-.2 1.2-1.7.2-1.9-.5 0-.8-.1-1 .9-.1-1.5-1.7-2.6-3.1-3-.2-.1-.5-.1-.9 0-.5.1-.4.5-.5.6-.2-.5-.4-.7-1-.6-.2 0-.3.2-.4.3-.6 1 0 1.6.5 1.9z"/><path class="st12" d="M103.5 76.1c-.3.1-1 .2-1.3.4-.4.3-.7 2-.4 2.7.1.3.5.6.6.9.1.5-.2.9-.2 1.3 0 .1.2.4.4.5.1.2.2.7.4.9s1.7.3 2.2.2c.3-.1.4-.4.6-.6.4-.5.8-.9.7-1.8 0-.2-.2-.4-.2-.7 0-.1.2-.1.2-.2.1-.2.3-.5.4-.7.5-2.5-.9-3.2-3.4-2.9zm-4 68.4c-.3.7-.7 1.2-1.2 1.7.4-.4 1-.7 1.2-1.3v-.4z"/><path class="st12" d="M99.9 144.3c-.3.7-.6 1.7-1.3 2-.2.1-.5 0-.5 0-.1-.1-.4-.1-.4-.2-.1-.1.1-.3 0-.4l1.1-1.1c-.1.1-.2-.1-.2 0-.1.1-.3.4-.4.5-.5.4-1.1.7-1.3 1.3-.2.4 0 .9.1 1.3.3 1.1.5 1.2 1.5.6.4-.2.5-.2 0-.4.4-.1.9-.2 1.2-.4.7-.4 1-1.2 1.7-1.7l1-.5.4-.4s-.9.2-.4-.1c.2-.1.2-.2.4-.4-.4.1-1.6.6-2.2.4-.4 0-.7-.3-.7-.5zm10.6-1.4c.1.2.1.5.1.7 0 0 .3.2.2-.1 0 .1.1-.2.1-.4s-.4-.1-.4-.2z"/><path class="st12" d="M110 142.9c.2 1.2.5 1.5 1.3 2.1 0-.1-.1-.4-.1-.4-.4-.7-.7-.8-1-1.8l-.2.1zm-7.4 0c-.4.2-.9.6-1.3.7-.4.1-.7.1-1.3.2 0 .1.1.3.1.4.1.2.2.4.4.6.8-.1 2.4-.7 2.6-1.3.1-.2-.1-.4 0-.5-.1-.1-.4-.1-.5-.1zm-3.6-.2v.2l-.1.1c-.1.1-.8 1.3-.4 1.3.1 0 .2-.3.2-.4.7-.5.6-.2.3-1.2z"/><path class="st12" d="M100.7 142.4c-.1 0-.5.2-.7.2s-.4-.1-.6-.1c.2.9.2 1 1.3.9.3-.1.9-.2 1.2-.4.1-.1.1-.2.2-.4-.2-.1-.4 0-.7-.1-.1.1-.4-.1-.7-.1zm10-.8c-.1.3-.2.5-.4.9.2.1.7.3.7.6.2.5-.1.2-.1.5.1.2.5.5.7.7.1.2 0 .2.1.4h.1c.2.1-.2.4-.2.4l-.1.2c-.7-.1-.9-.2-1.2-.6-.3-.4-.5-.9-.7-1.3h-.2c-.1.2-.1.4-.2.7 0 .1-.1 0-.2.1-.7-.4-1.2-1-1.8-1.5 0 .1-.2.5-.1.7s1 .5 1.3.9c.4.5.4 1.3.9 1.8.2.3 2.6 2 3.1 1 .2-.3.1-2.1 0-2.5-.1-.2-.7-1.2-.9-1.3l-.2-.1c-.1-.2 0-.5-.1-.7 0-.1-.3-.3-.4-.4-.1-.2 0-.3-.1-.5z"/><path class="st12" d="M107.3 141.4c0 .2-.1.1-.1.4 0 .3 1.2 1.7 1.5 1.8.1.1.2 0 .4.1.1-.2.2-.4.4-.5.1-.2.1-.3.2-.5-.1-.1-.2.1-.4 0s-1-.6-1.3-.7c-.1-.1-.2-.4-.4-.4-.1-.1-.3-.1-.3-.2zm3.1-17.4c0 .1-.1.1-.1.2.2 0 .1.1.1.2.1-.1 0 .3-.1.4-.2.1-.5-.1-.7 0-.1 0-.1.4 0 .4.1.7.2 1.3.4 2 .2-.1.4-.2.6-.4v-.2c.1-.1.4-.2.4-.4.2-.3.3-.5.5-.9-.2-.1-.4-.2-.5-.4.1-.1 0-.2 0-.2 0-.1.3-.1.4-.2v-.2c-.5-.2-.7-.3-1-.3zm3.6-10.3c-.1.1-.1.2-.1.2-.2.4-.2.9-.4 1.4-.3 1-.7 2.1-1 3.3-.4 1.2-.7 2.3-1.1 3.5-.1.4-.4.9-.5 1.3 0 .2.1.2.1.4l.2-.1c.2-.2.5-1.6.6-2 .7-2.2 1.5-4.6 2.2-6.8-.1-.2.3-1.3 0-1.2zm-1.9-7.2c.1.2.1.2.1.5 0 0 .1-.2.1-.4l-.2-.1zm-1-3.9c-.5 0-1.1.6-1.5.7-.7.3-1.5 0-2.4.1-.1 0-.5.2-.6.2-.5.1-2.1.2-1.2-.4-1.1 0-1.8.1-2.7 0-.7-.1-2-.5-2.7-.5-.6 0-.4.1-.5.7.8-.1 2-.1 2.9.2.4.1 1 .4 1.4.4.9.1 1.6-.1 2.4-.2.4 0 .7.1 1 .1v.2c-.8-.1-1.5.2-2.3.2-1.5.2-2.3-.5-3.3-.7-.9-.1-1.5.1-2.1.4.1.1.1.2.2.2.5.3 1.3.1 2 .2.5.1 1.2.5 1.7.6.8.1 1.3-.4 2.1-.2.1 0 .1.2.1.4.9 0 1.7 0 2.5-.2s1.5-.7 2.1-.9c.4-.2 1.1-.2 1.6-.2-.1-.1-.1-.2-.1-.4-.3 0-.5-.1-1 0-1.6.2-3 1.1-4.8.9.7-.1 1.9-.2 2.5-.5.2-.1.5-.3.7-.4.8-.2 1.5-.2 2.2-.6.1-.1.2-.1.4-.1-.3.1.1-.2-.6-.2zm7.6-2.7c-.1.2-.2.5-.2.7v.4c.1-.1.2 0 .4-.1.2-.2.2-.7.2-1h-.4zm-1.3-.1c-.1.8.1 1.5.4.2-.1-.1-.4-.2-.4-.2z"/><path class="st12" d="M114 99.6c-.6.1-1.3 1.2-1.3 1.8-.2 1.3.6 2.3.7 3.4.1.7-.1 1.8 0 2.2.1.6.2 1.5.1 2.3-.1.7-.4 1.3-.5 2l-.2-.2c-.2-.6-.1-1.3-.2-2 0 .1-.2-.2-.2-.2 0 .3.1.7 0 1l-.2.5c-.1-.7-.1-1.4-.4-2-.1-.2-.4-.7-.5-.9 0-.1.1-.2 0-.2-.1-.1-.3-.1-.4-.2-.1-.2-.1-.5-.2-.7-.1-.1-.2 0-.4-.1l-.1-.2c-.5 0-1 .1-1.6.2v-.2c.2-.1.3-.1.5-.2v-.1c-1.2.2-2.3.5-3.7.4-.7-.1-1.3-.1-2-.2 1.1-.1 2.5-.1 3.6-.2.9-.1 1.8-.5 2.7-.6.6-.1 1.1.1 1.8.1-.1-.1.1-.3-.2-.4-.4-.1-1 .1-1.3.1-1.2.1-2.1.3-3.3.4-1.2.1-2.6.1-3.8 0s-2.5-.5-3.7-.4c0 0 .2.3.2.4.1.1.3 0 .4 0 .5.1 1.1.2 1.8.4 0 0 .1.4.1.5s-.3.2-.4.4c-.1.2-.1 2.6-.2 1.8-.1-.2-.1-.7-.1-1-.1-.3-.2-.9-.2-1.3.1 0-.2-.2-.2-.2-.1.1-.2.1-.2.2-.2.4-.1.9-.2 1.3h.1c-.1-.5-.1-1.2-.2-1.7-.2.1-.2.1-.4.1-.1.2-.3.5-.4.7-.2.4-.1.7-.2 1.2-.1 1-.2 2.1-.4 3.3-.1.4-.2.9-.4 1.4l-.2.2c-.1.5-.1.8-.2 1.3s-.4 1.2-.5 1.7c-.1.8.1 1.4 0 2.4-.1.4-.2.9-.2 1.3.1 0 .2.1.4.2.1-.2.1-.4.2-.5s.1.2.2.2.1-.2.1-.2c.2 0 .4.1.4.1.1 0 .1-.2.1-.2.2-.1.2.1.4.1l.1-.2c.2-.1.3.1.4.1s.1-.1.2-.2c.1.1.1.3.2.4-.1.1.1.2 0 .4 0 .1-.2.2-.2.2-.2 0-.1-.2-.4-.2l-.1.2c-.2.1-.7.1-.7.1-.1 0-.1.2-.2.2-.1.1-.2-.1-.2 0v-.2c-.1 0-.1.1-.2.1.4 1.1.2 2.6.4 4 .1.5.4 1.2.5 1.7.1.9-.1 1.9.1 2.7.1.2.2.4.2.7 0 .1.1.1.2.1.2.4.2.9.4 1.3-.1-.1-.1.1-.1.2h-.2c-.1-.3-.1-.5-.2-.7-.1 1.3-.3 2.4-.2 4 .1 1.3.5 2.4.9 3.5v.2c-.2.1-.1 0-.4 0 .1 1.2.6 2.2.5 3.4-.1.4-.2 1-.4 1.3-.1.1-.3.2-.4.4s.1.1.1.2c.7 0 1.1-.2 1.7-.2.7.1 1.3.4 2.2.4-.3-1-.4-1.2-1.3-1.7.1 0 .4-.1.7-.1-.1-.5-.1-.9-.1-1.5-.1-.1-.4-.1-.6-.1v-.8c.9-.5.7-.9.9-2.1-.1.1-.2 0-.2.1v.2l-.2.1c0-.1.1-.5 0-.5.2-.5.5-1.1.7-1.7.3-1.6.1-3.5-.1-5.1 0 0-.2.1-.2.2-.1.2-.1.8-.2 1 0-.2-.1-.7-.1-1 .1-.6.5-1.2.7-1.8.2-1 .1-2 .2-3 .1-.3.2-.9.2-1.2.1-.7-.1-1.2 0-1.8l.2-.4c.1-.4-.1-.5-.1-1l.2-.2c.1-.2 0-.5 0-.7h-.2c-.1.4-.1.5-.2.9-.1.2-.5.7-.5.7-.1.3.1.3.1.6 0 .1-.2.2-.2.2v.2c-.5.3.2-1-.2-.6.1.1-.2.1-.2.1v-.4c.1.1.1-.2.1-.2-.1.2-.2-.2-.2-.2.1-.2.3-.4.4-.6s-.2-.4-.1-.7c0-.1.1-.1.2-.2-.1-.1-.2.1-.4 0-.1-.1-.1-.3-.2-.4s-.3-.2-.4-.2c-.1-.2 0-.7.1-.7.3-.2.2.2.2.6h.2c0-.2-.1-.4 0-.6.1.1.1-.1.2-.1.1.2.1.4.2.7h.2v-.6l.2-.1c0 .1 0 .5.1.7l.2.1c.1-.3 0-.7.2-.5.2.1.1.4.1.7l.2-.1c.1-.1 0-.4 0-.5h.2v.6c0-.1.2 0 .2-.1v-.4l.2-.1v.7h.2c0-.2-.1-.5.1-.7.3-.2.3.6.4.9l.2-.1c.1-.2.1-.6.1-.7.1 0 .2.2.2.2v.7h.2c0-.2-.1-.7.1-.7.2-.1.2.4.2.7h.2c.1-.3 0-.5.1-.9l.2-.1c0 .2.1.7.2.9h.2c0-.2.1-.5 0-.9.1-.1.2-.1.2-.2.1.3.1.5.1.9l.2.1v-.9h.2c.1 1 .2.8-.4 1.3-.1.1-.2.1-.2.2-.3.4-.1 1 0 1.4s.1.5.1.9h.2c0-.1 0-.6.1-.9l.2-.1c.1 1.2-.2 2.7-.1 4.1.1 1.6.6 3 .6 4.8-.1-.2-.2-.9-.4-1.1-.1-.2-.1-.4-.2-.6l-.2.2c-.1.2 0 .4 0 .7-.1 1-.2 2.4-.1 3.4 0 .2.2.7.2 1 .2 2.1.2 4.7-.4 6.2-.1-.1-.1.2-.1.4.3-.1 2.1-.7 1.1-.1-.2.1-.3.1-.5.2l-.2.2c.1.1 0 .2.1.4.2.2 1.6 1.2 2.2 1.1.5-.1.5-.6.7-1.2-.6-.2-.8-.1-1.4 0-.2.1-.7.1-1 .1l-.1-.2c1.3-.1 1.4-.5 2.7-.2-.3-.6-.4-1-.2-1.7-.1.1-.7.6-.7.6s-.3 0-.2-.1c.3-.2.7-.7.9-1.1.2-.7.1-1.6.2-2.4.1-.9.4-1.8.6-2.6.1-.4.4-.9.4-1.3.1-.4-.1-.7 0-1.1l.2-.2c.1-.2-.1-.3-.1-.6l.2-.4c.1-.6 0-1.2-.1-1.7-.2 0-.2.1-.4.2.1-.6.1-.8.4-1.3h-.2c-.1.1-.5.9-.4.2.1-.2.6-1.2.7-1.3.1-.1-.5.2-.6.2.9-1.6 1.5-3.5 1.3-6h-.2c-.2.6-.3 1.1-.5 1.8-.1.4-.5.9-.5 1.3v.5l.2.1c0 .2-.1.5-.2.5v.2c.1.2.4.2.4.7 0 .1-1.4 1.5-1.6 1.8h-.4c-.1-.1.1-.2-.1-.2-.1-.9-.4-1.6-.4-2.6.1 0 .1-.2.2-.2.1-.1.3 0 .4 0 0 0 .1-.5.1-.6.1-.1.4-.1.5-.2s.8-2.4.9-2.6c.3-1 .4-1.4-.6-1.8.1-.4.1-.6.2-1.1l.2.1c.1.3-.1.7.2.6.2-.1.1-.4.1-.7l.2-.1c.1.2 0 .4.1.7.1.6.1-.5.2-.7h.2c.1-.1.1-.2.2-.2.2-.5.2-1.1.4-1.7 0 0 .1-.4.2-.4s-.1-.4-.1-.4h-.2c.1-1.1.2-2.1.2-3.4h.2c.2.5.3.8.4 1.5l.4-.1s.1-.4.1-.6c-.1-.5-.2-.9-.4-1.5l.2.2c.1.2 0 .3 0 .5.1.2.2.5.4.7.1.2.2.5.4.7.1.1 0 .3 0 .4.1-.1.4-.1.4-.2.1-.3 0-.9 0-1.2h.2c0 .1-.1.3 0 .4h.2c.1-.2.1-.6.2-.7h.4c.1-.1 0-.4.1-.5s.3-.2.4-.4c.2-1.1-.7-2-.9-2.7-.2-1.6.4-3.1.6-4.4.1-1 0-1.9-.1-2.7 0 .2-.1 1.2-.2 1.3-.2.1-.1-.3-.1-.5-.1-.3-.2-.9-.2-1.2-.7-.4-.9-1.3-1.8-1.2zm4-1.7c-.2.5-.3.8-.4 1.4.1.1.1.2.1.4 0-.1.2-.1.2-.1.2-.4.3-1.1.4-1.5.1-.1-.3-.2-.3-.2zm1.8-.8c-.2.1-.9 1.8-.9 2.1 0 .2-.1.5.2.4.2-.1.8-2 .9-2.4-.1 0 .1-.2-.2-.1z"/><path class="st12" d="M119 96.9c-.7 1.7-1.1 3.7-1.7 5.5l-.9 3c-.2.5-1 2.4-.9 2.9 0 .1.1.2.2.4l.2-.1c.1-.4.1-.7.2-1.1.4-1.3 1-2.9 1.4-4.2.1-.4.1-.7.2-1.2.5-1.6 1.2-3.3 1.6-5.1-.1 0-.2 0-.3-.1zm-.5-.3c-.4 1 .1 1.8.2.1l-.2-.1zm-30.9-3.5c-.2 0-.7.1-.9.2-.2.1-.1.2-.2.5.7-.2 1.3-.3 2-.1-.1-.1.1-.2 0-.4 0-.1-.2-.1-.2-.2-.1.1-.4 0-.7 0zm-.4-.8c-.1 0-.4.2-.5.4-.1-.1 0 .4 0 .4.6-.1 1.2-.2 2-.1-.1-.1.1-.2 0-.2-.2-.4-1-.6-1.5-.5z"/><path class="st12" d="M87 91.5c-.1.1-.2.2-.2.4-.1.2.1.1.1.4l.2-.2c.3-.1 1.2.2 1.4.4l.1-.4c-.1-.1-.2-.1-.2-.2-.4-.4-.8-.4-1.4-.4zm19.8-5.3c-.5.3-1.2 1.4-1.4 2 .1-.1.3-.2.4-.4.2-.1.4-.1.6-.2.2-.2.2-.7.4-1.1 0 0 .3-.5 0-.3zm-1.4 0v.2c.4.1.3-.2 0-.2zm.6-.2c-.1 0-.1.1.1.2-.1-.1.1-.2-.1-.2zm-1.1-.1l.1.2c.3.1 0-.2-.1-.2zm-.7 0c-.1 0-.2.1-.4.1v.2c.2-.1.2-.2.4-.3l.4.3V86c-.1-.1-.3-.1-.4-.1zm-1.6 0l.1.2c.2-.1-.1-.2-.1-.2zm3.8-.2c-.1 0-.1.2-.1.2h.2c0-.1.2-.3-.1-.2zm.4-.3v.2h.2c-.2-.1.1-.2-.2-.2zm-1 0l.1.2c.2.1.2-.2-.1-.2zm.5-.3l-.1.2c.3 0 .4-.2.1-.2zm1.4-1.1c.1.2.4 1.1.4.7-.1-.3-.2-.4-.4-.7zm0-.3l.1.2c-.1-.1 0-.2-.1-.2z"/><path class="st12" d="M101.9 82.4c0 1.7-.6 2.4-.7 4 0-.1.6-1 .6-1 .1 0 .2.1.2 0 .1-.1 0-.3 0-.4.4-.1.3-.1.2-.7h.2c.1.1 0 .2.1.2.2.1.3.4.4.4.1.1.2 0 .4.1.1.1 0 .2.1.2.2.1.5.1.9.2l.2.2c.2.1.7 0 1.2-.1.1-.1 0-.2.1-.4l.2-.4s-.3-.9-.4-.9c-.4-.1-1-.1-1.4-.2-.1-.1-.2-.3-.4-.4-.3-.1-.6-.1-.9-.1-.2.3-.3.5-.6.7-.1-.4-.2-1-.2-1.3l-.2-.1c.1 0 0 0 0 0z"/><path class="st9" d="M104 81.5s.5.1.7.1l-.2.2c-.2-.1-.4 0-.6 0 .1 0-.2-.2.1-.3z"/><path class="st12" d="M101.2 81.5c.2 1.3-.4 2.2-.5 3.4 0 .2-.1.6-.1.9l.2.2c.1-.4 0-.6.1-1 .2-.9.7-1.7.6-2.9 0 0-.3-.5-.3-.6z"/><path class="st9" d="M103.8 81.2c.5 0 1.1 0 1.7.1v.2c-.8 0-1.7 0-2.4.1l.1-.2c.2-.2.5-.2.6-.2zm-1.2-3.5c.3-.1.7.1.9.1.1 0 .3-.1.5-.1 0 .7 0 .6-.4 1.1-.4-.1-.6 0-.9-.1-.1-.1-.3-.4-.4-.4s-.2.1-.2 0c.2-.3.1-.5.5-.6zm2.9-.1c.4 0 .7.2 1 .4 0 .1-.1.2-.1.2-.1.1-.2 0-.4.1-.1.1-.1.3-.2.4-.2.1-.7-.1-.9 0-.1 0-.1.1-.2.2.1.3 0 .5.1.7 0 0 .1.1.2.1.2.1.7.7.7 1 0 .1-.1.4-.1.2h-.1l-.2-.4-.2-.2c-.1.1-.4.3-.6.4-.7.1-1-.5-1.4-.2-.1.1-.3.4-.4.4.1-.2.1-.3.2-.5l.4-.4c-.1-.1.1-.2.2-.2l.1.2c.6.1 1 .2.9-.6 0-.1-.2-.5-.2-.7-.1-.4.1-.9.1-1.2.2.1.3.1.6.1.1.1.5 0 .5 0z"/><path class="st12" d="M102.2 73.2c.1.1-.1.2 0 .4.1.3.5.4.7.6 0 0 .2-.3.1-.2-.2-.2-.3-.5-.6-.7 0-.2-.1-.1-.2-.1zm-.5-.9v.2c.2.1.4.2.7.2.8.2-.5-.4-.7-.4zm-1.3-1.9c.1.2.1.5.2.7.2.2.6.2 1.1.2-.2-.4-.2-.5-.4-.9-.3.1-.6 0-.9 0zm-1.6-.3c-.1 1.1.2 1.8 1.3 2h-.7v.4c.4.9.5 1 1.6 1.3l-.4.2c-.1-.1-.2.2.1.5.1.1.4.1.5.2l.2.4c.2 0 .3.1.5.1-.5-1.8-1.6-3.3-2.5-4.6.1.1.3.2.4.2 0 .1.2.5.2.5h.2c.7.9 1.2 1.9 1.8 2.9.1.2.2.3.4.5.1 0 .1-.1.2-.1-.4-1.7-1.2-3.2-2.5-4.1l-.4-.4c-.5 0-.7.1-.9 0zM88.7 96c.3 0-.1-.1 0 0-.4-.5-.4-.3-.4-1.2h.2c.5 0-.2-1.4-1.5-.6l-.4.2c.2.4.2.9.6 1.1.1.1.2 0 .2.1.2.5-.1 2.7-.2 3.3-.1.7.1 1.5 0 2.2-.2 2.1-.4 4.7-.2 7.1.2 2.2.2 4.4.4 6.5.2 2.5.5 5.2.9 7.6.1.9.1 1.5.2 2.4 1.1 6.5 2.9 12.6 4.9 18.1.4 1.2.8 2.2 1.2 3.4l.2.4c-.1.1 0 .3-.1.4.1.1.2 0 .4.1.1.1.1.3.2.4.1.1.2-.1.2 0-.1-.4-.2-.7-.2-1-.1-.5.1-1 0-1.5-.1-.4-.2-1.2-.2-1.7-.1-1.6-.1-3-.2-4.6-.1-1.7-.5-3.8-.6-5.5-.3-3.8-.5-7.3-.9-11.2-.4-4.9-.9-9.8-1.3-14.8-.2-2.4-.6-4.9-.6-7.5-2.4-3.9-2.8-3.7-2.8-3.7z"/><path class="st12" d="M91.1 95.7c-.2-.2-.9-.7-1.1-1-.1-.1-.1-.2-.1-.4l-.9-.5c-.1.8-.4-.3-.1.3-.3-.3-.2 2-.5 1.6 1 .3 3 3.8 3 3.8.4.3.8.9 1.2 1.1.5.2 1 .3 1.4.6.4.2.8.9 1.3.9.4 0 .6-.2.9-.4-.1-.4-.1-.8.1-1.3s.9-.9.7-1.8c-.1-.5-.7-1.7-1.2-1.8-.7-.2-1.1.1-.9.6.1.1.3.2.4.2.1.2.1.3.2.5-.5-.4-1-.9-1.6-1.2-.5-.4-2.5-.7-2.8-1.2z"/><path class="st9" d="M88.4 96.1l.4.2c.1.1.3.2.4.2.1.1.3.2.4.4.2.3.4.5.7.8.2.3.5 1 .7 1.3l.3.5s.1 1 0 .1c.3.7.2 1.3.2 2.3.2 2.4.4 4.9.6 7.5.1 1.7.5 3.7.6 5.5.4 5 .7 9.8 1.1 14.9.1 1.1.4 2.5.4 3.6.2 2.4.4 4.7.6 7 .1 1.6.1 3.2.4 4.7 0 0-.1.1-.2.1-.9-2.2-1.5-4.5-2.1-6.8-.2-.9-.7-2-.9-2.9-.4-1.8-.7-3.4-1-5.2-.4-1.8-.9-3.9-1-5.9-.1-.8 0-1.3-.1-2.1 0-.2-.2-1-.2-1.3 0-.6.3-1.1.2-1.8-.1-1.3-.2-2.7-.4-4.1-.1-.9-.2-2.1-.4-3.1-.1-.5.1-.9-.1-1.4-.1-.2-.4-.5-.4-.7-.1-.6-.2-1.5-.2-2-.1-2-.3-4.3-.2-6 .1-1.5-.1-3.4 0-4.6 0-.3.2-1.1.2-1.2z"/><path class="st12" d="M91.2 95.7c-.1-.2-.1-.5-.1-.9-.2-1.2-.2-2.4-.4-3.8-.2-2.5-.5-5.1-.7-7.7-.1-1-.4-2.9-.4-2.9-.2.4-.7 2.6-.9 3.5-.4 2.4-.6 4.7-.9 7.2.3.1.7.2.9.4.1.1 0 .2.1.2l.2.1c.1.2-.1.4-.1.4-.1.4.2 1.3.3 1.4l2 2.1z"/><path class="st9" d="M89.6 94.1c-.2-.2-.5-.6-.5-.7-.1-.3-.1-1.3-.2-1.5-.2-.5-.4-.1-.5-.7-.1-.1.1-.9.2-1.1.1-.6.2-1.2.2-1.7.1-1.7.6-5.4.7-5.9l.1-.7c.4 3 .8 6.7 1 9.9.1 1.1.4 2.5.2 3.6l-1.2-1.2z"/><path class="st12" d="M100.4 68.7c-.3 1.2-.1 1.2.9 1.6 0-.1-.1-.3-.1-.4-.1-.1-.6-.9-.4-.7.1.1.2.2.2.4.9 1.1 1.7 2.4 2.3 3.8h.2c0 .1-.1.2-.1.4 0 .1.2.2.2.4-.8.4-1.2.8-1.7 1.5l-.4.4c-1.2 2-.4 4 .2 6.3 0 0 .1-.4 0-.6-.4-2.1-.7-4.7.7-6 .1.2 0 .2.2.4.5-.3.5-.4 1.1-.2h.5c.1-.1.3.1.4 0l.1-.2c.4.2.8.1 1.3.4 1.5.7 1 3.3.9 5.1-.1.7.1 1.5 0 2.2 0 .3-.1.9-.1 1.3.1.4.4.9.5 1.2 0 .1-.1.2 0 .4h.2l.4.5c0 .1-.2 1.6-.1 1.2 0 .1.1.3-.1.2V88c-.2-.1 0 .4 0 .5s-.2.1-.2.2c.1.1 0 .6 0 .6h-.2c0 .2.1.4 0 .6l-.2.1c-.1.1.1.3 0 .4s-.3.1-.4.2 0 .4-.1.4c-.1.1-.3 0-.4.1l-.2.4c-.1 0-.4-.1-.4-.1-.1 0-.1.3-.2.4-.3.1-.3-.1-.5-.1l-.2.2c-.2 0-.3-.2-.4-.2-.3-.1-.2.2-.5.1-.1 0-.1-.2-.2-.2.1-.1-.2-.2.2-.4v-.1c.1.1.2.1.4.1 0 0 .1.1.1.2.2 0 .5.1.7 0l.2-.2c.2-.1.1.1.4.1.1 0 .1-.2.1-.2.1-.1.3 0 .4-.1s.1-.4.2-.4.2.1.2 0c.1-.2-.1-.4.1-.5.1-.1.2 0 .2-.1.1-.1-.1-.3 0-.4 0-.1.2-.1.2-.1.1-.2-.1-.2-.1-.4 0-.1.2-.2.2-.2.1-.1-.1-.2-.1-.2 0-.1.1-.5.2-.7 0 0-.2-.2.1-.4 0-.2.1-.9-.2-.9-.3.5-.5 1.3-1.1 1.6l-.2.1c-.3.1-.4.3-.6.4-.1.1-.1-.1-.2-.2-.1 0-.1.1-.2.1v.1l-.2.2c.2-.7.4-1.5.2-2.3-.2 0-.2.1-.4.1-.1 0-.1-.2-.2-.2s-.1.2-.4.2c-.1 0-.2-.3-.2-.4 0 0-.3.1-.4.2l-.4-.4c-.2-.1-.1.1-.4.1.2.3.4.5.7.9.4.5.4.4-.4.4.1.1 0 .2.1.4s.7.3.9.6c.1.2.7 1.1.2.7-.2-.1-.4-.8-.6-.9-.3-.2-.5-.1-.7-.4s-.4-.9-.6-1.3h-.4l-.1-.2c-.5-.1-.2.4-.1.4-.1.2-.2.2-.2.5l.2.2s0 .4-.1.2v.2s.2.1.2.2c.1.2-.2.2-.1.5 0 0 .3.1.4.2.1.3-.1.3 0 .5.1.1.2.1.4.2 0 .1-.1.4-.1.4-.2-.1-.4.1-.5-.2-.1-.2.2-.2.1-.4 0-.1-.3-.1-.4-.2-.1-.2.1-.4 0-.6 0-.1-.2-.1-.2-.1-.1-.1-.1-.5 0-.6l-.2-.1c-.1-.1 0-.4 0-.4v-.2c-.2 0-.2.1-.4.2-.1-.1 0-.2-.1-.4-.1-.1-.3-.1-.4-.2-.1-.2 0-.3-.1-.5l-.2-.1c-.1-.1-.1-.4-.2-.5-.5.1-1 .3-1.3.4-.5.1-.9.1-1.3.2-.5.3-1.5 2.2-1.6 2.9-.1.7.1 1.5 0 2.2-.1.5-.4 1-.5 1.5-.1.8 0 1.3-.2 2-.1.4-.4.9-.6 1.4.1-.1.2.1.4 0s.4-.4.7-.4c.1 0 .2.2.2.2.1.1.2-.1.2 0l.7.6c.2.3.1.7.2 1.1s.3 1.1.4 1.7c0-.7-.2-1.8-.1-2.3l.1-.2.2.1c.1.8.1 1.1.4 1.6 0-1.2-.2-1.8-.2-2.9 0 0 .1.1.1.2l.2.5c.1.2.1.3.2.4 0-1.8-.5-2.7-.7-4.4.2.6.4 1.4.7 2 0 0 .1-.1.2-.1 0-1.6-.4-2.6-.7-3.8-.1-.4-.2-.7-.2-1.3.1.4.4 1 .6 1.4s.2.2.4.5c-.3-1.5-.7-2.3-.7-4.2l.2.1c0 1.2.3 2.2.6 3.1h.2c.1-.2.2-.4.2-.6-.1 1.5-.3 3-.2 4.7.1 1.3.4 2.8.2 4.3-.1.7-.3 2.1-.1 3 0 .1.3.4.4.4.6.3.5-.2.6-.6.1 0 .1.1.2.1.1.1.1.2.2.2.4.4.3.4.4-.4h.2c.2.4.2.5.5.9.1 0 .1-.1.2-.1-.1-1 .2-2.3.2-3.3 0-.4-.2-1-.2-1.3s-.1-.4.2-.5c.2 1.5-.2 3.5.2 4.9 0-.7.2-1.8.2-2.5 0 .7.1 1.8.2 2.4.1.2.4.4.4.6v.2c.3.2 1.5.1 2 .1.1-.1.2-.4.2-.5 0-.2-.1-.4 0-.5l.2-.1v.9c.1 0 .1.2.2.2.4.1.9.1 1.3.2 0-.2 0-.4.1-.6h.2c.1.2.2.4.2.6.1 0 .5-.1.4-.1.2-.1.4-.1.6-.4.1-.2.1-.4.2-.6.2-.5.7-1.4.7-2 .1-.2-.1-.2-.1-.4 0-.5.1-1.2.2-1.8h.2c0 1.8-.2 3-.5 4.5.2 0 .5.1.7.1.1-.1.1-.2.2-.4.1-.1.3 0 .4 0 .1-.1-.1-.3 0-.4 0-.1.3-.1.4-.2s.1-.4.1-.4c.1-.3.1-.8.1-1.2 0-.2-.2-.5-.2-.7 0 0 .4.2.2.2.1.2.4.5.4.9.1.7-.1 1.5-.2 2.1.1 0 .2-.1.2-.1.1-.1.3-.2.4-.2.4-.9-.7-3.7-.9-4.5-.2-.9-.1-2-.1-2.9 0 0 .2-.1.2-.2-.1.9-.1 1.7.2 2.4.1.1.3.4.4.5 0 .1-.1.2 0 .2 0 .1.2.1.2.1-.2-.8-.5-1.6-.6-2.6-.1-1.6.4-2.9.5-4.3.1-1.1-.1-2.3-.1-3.3l.2.1c.1.1 0 .3 0 .4.1.3.3.9.4 1.3.1.7-.2 1.3-.2 1.8-.2.9-.2 1.6-.2 2.6 0 0 .1.1.2.1.1-.6.2-1.3.4-1.8.1-.4 0-.9 0-1.3h.2c0 .1.1.2.1.2.1.4-.2 1.2-.2 1.5-.1.6 0 1-.1 1.6-.1.5-.2 1.3-.2 2l.2.4c.2.7.3-2.1.4-2.4.1.7.2 1.5.2 2.1 0 .1-.1 1.3-.1 1.3.1.1 0 .3.1.4-.1 1.3-.5 2.4-.4 3.8h.2c.2-.5.2-1 .5-1.4l.4-.4c.2-.2.4-.8.7-.9.6-.1 1.7.9 2 1.2 0-.2.1-.4 0-.7-.1-.2-.2-.7-.4-.9-.2-.4-.3-.1-.6-.2-.1-.1-.5-.8-.6-.9-.1-.2 0-.5 0-.7h.2c.1.3.1.7.2.9l.2.1c-.2-1-.4-2.1-.6-3.1s-.2-1.9-.4-2.7c-.4-1.2-1-2.4-1.4-3.6-.2-.7-.4-1.6-1-2-.5-.3-1.9-.5-2.6-.7-.1.2-.2.4-.4.5-.1-.1.1-.2-.2-.2-.1.5-.1.8-.2 1.1-.1-.4 0-.8-.2-1.2l-.2-.2c-.2-.4-.5-1-.7-1.3-.3-1.1 0-2.6.1-3.7 0-.2.1-1.6.1-1.3.1-.1 0-.5 0-.5.1-1.1-.2-2.1-.5-3 .1.2.4.4.5.7.6 1.6 0 4.1.1 6 0 .1.2.6.2.7v-.6l.2.1c.1.4.1.7.2 1.1.2.5.5.9.7 1.4-.2-1.3-.8-2-.9-3.2-.2-2 .4-4.1-.2-5.8-.1-.2-.4-.5-.5-.7-.6-1-1.3-1.3-3-1.3-.1-.3.1-.9-.2-.9-.1-.1-.3.2-.4.4.1-.4.1-.9.1-1.3 0 0-.1-.1-.2-.1-.1.3-.2.5-.2.7 0-.4.1-.9 0-1.3-.1-.2-.7-1.5-.9-1.5-.1-.1-.2.1-.2 0v.7l-.2.1c0-.5-.1-.9-.2-1.2-.1-.1.1-.2 0-.2-.1-.1-.2-.1-.2-.1-.2-.4-.1-.4-.8-.5z"/><path class="st9" d="M103.4 90.6c.6-.1.3.2.4.5-.1-.1-.2 0-.4 0 0 0-.2-.5 0-.5zm-.4-.6l.2.2c0 .1-.1.2 0 .4-.1 0 0 .1-.2.1.1.1-.3-.1-.4-.1.1-.1 0-.3 0-.4.3-.1.4-.1.4-.2z"/><path d="M82.9 27.6c0-.5.4-1 1-1 .5 0 1 .4 1 1s-.4 1-1 1c-.5 0-1-.4-1-1h0z" fill="#00649b" stroke="#00649b" stroke-miterlimit="3.864"/></svg>