<?xml version="1.0" encoding="utf-8"?>
<svg version="1.1" id="Layer_1" xmlns="http://www.w3.org/2000/svg" xmlns:xlink="http://www.w3.org/1999/xlink"
	 viewBox="0 0 210 210" style="enable-background:new 0 0 210 210;" xml:space="preserve">
	<style type="text/css">
		.color-primary{fill-rule:evenodd;clip-rule:evenodd;fill:#00649B;}
		.color-secondary{fill-rule:evenodd;clip-rule:evenodd;fill:#FDB827;}
		.color-background{fill-rule:evenodd;clip-rule:evenodd;fill:#FFFFFF;}
		.ring-cross{x:-78; y:-77.8}
		.bead{x:-1.1; y:-1.1; fill:#00649B;}
	</style>
	<!-- Symbols -->
	<symbol id="A" viewBox="-6.1 -6 12.3 12">
		<path d="M5.6-5.4C4.8-5.3,4.6-4.9,4-3.5L1,3.6C0.9,4,0.6,4.5,0.5,5.1C0.2,5.9,0.1,6-0.1,6S-0.2,6-1,4.2
			c-1.2-3.3-2.9-7.7-3.5-8.9c-0.3-0.6-0.6-0.6-1.1-0.7c-0.3,0-0.6-0.1-0.6-0.3C-6.1-6-5.9-6-5.9-6c0.2,0,1.4,0.1,1.6,0.1
			C-3.8-5.9-2.7-6-2.5-6C-2-6.1-1.9-6-1.8-5.8c0,0.2-0.3,0.3-0.7,0.3C-2.9-5.4-3.4-5.4-3.2-5C-3.2-4.8-3-4.3-3-4.3l0.6,2
			c0.1,0.5,0.3,0.8,0.9,0.7l2.1,0.1c0.4,0,0.5,0,0.8-0.5l0.8-2.2c0-0.1,0.1-0.3,0.1-0.6c0-0.3-0.2-0.4-0.7-0.4
			c-0.4,0-0.7-0.1-0.7-0.3c0-0.2,0.3-0.3,0.5-0.2c0.1,0,1.1,0.1,2.2,0c0.3,0,1.9-0.2,2.2-0.1c0.1,0,0.4-0.1,0.4,0.2
			C6.1-5.5,5.9-5.4,5.6-5.4z M0.2-0.8h-1.8C-2-0.8-2-0.8-2-0.7S-0.7,3-0.7,3l1.3-3.2c0-0.1,0.1-0.2,0.1-0.3S0.7-0.8,0.2-0.8z"/>
	</symbol>
	<symbol id="AE" viewBox="-8.5 -6 17 11.9">
		<path d="M-0.5,5.7c0,0,0.1-0.5-0.2-0.9s-5.2-8.3-5.2-8.3C-7-5.2-7.2-5.2-8.1-5.5c-0.1,0-0.4-0.1-0.4-0.3S-8.3-6-8.1-6
			c0.3,0,0.6,0.1,1.5,0c1,0,2.2,0,2.6,0c0.2,0,0.4,0.1,0.4,0.3c0,0.2-0.2,0.2-0.4,0.2c-0.7,0.1-1.3,0.2-1.3,0.7
			c0,0.5,0.5,1.3,0.5,1.4l1.6,2.9C-3-0.2-2.6,0.1-2.2,0.1l4.7,0l0.1,0.4l-4.5,0.2C-2.2,0.7-2.2,1-2.2,1l0.1,0.2c0,0,1.8,2.9,2,3.2
			S1,5.5,1,4.4c0-0.5,0.2,1,0.2,1C1.4,5.6-0.4,5.8-0.5,5.7z"/>
			<use xlink:href="#E" width="9.2" height="11.9" x="-4.6" y="-6" transform="matrix(1 0 0 1 3.91 -2.59e-02)"/>
		<path d="M0.3,5"/>
	</symbol>
	<symbol id="B" viewBox="-5.2 -5.8 10.3 11.6">
		<path d="M4.6-0.6C3.9,0.4,2.8,0.5,2,0.5C2.7,0.5,4.5,1,4.6,2.9c0.1,2.9-3.8,2.9-4.9,2.9c0,0-2.8,0-4-0.2
			C-4.7,5.7-5,5.5-5,5.3C-5.1,5.1-4.8,5.1-4.7,5c0,0,0.1,0,0.4,0c0.9-0.1,0.9-0.3,0.9-1.8l0-7c0-0.8,0-1.3-0.9-1.3
			c-0.4,0-0.6,0-0.8-0.3c0-0.3,0.2-0.3,0.4-0.3l2.3,0c0.5,0,3.2-0.1,3.4-0.1c3.8,0,4.1,2.7,4.2,3.3C5.2-1.9,5-1.2,4.6-0.6z M-1.4,4.6
			c0,0.5,0.1,0.9,1.3,0.9c1.6-0.1,2.6-0.8,2.5-2.3c0-0.6-0.3-2.4-2.4-2.3l-0.8,0c-0.6,0-0.6,0.4-0.6,0.7L-1.4,4.6z M1.6-5.1
			C1.1-5.4,0.3-5.2,0.2-5.2c-1.4,0-1.6,0.8-1.6,2.3l0.1,2.6c0,0.6,0.1,0.7,1.3,0.8C0.5,0.5,3.1,0.4,3-2.6C3-3.4,2.7-4.6,1.6-5.1z"/>
	</symbol>
	<symbol id="C" viewBox="-5.5 -6 11 12">
		<path d="M1.9,5.3c1.7-0.2,2.4-0.9,3-2C5.1,3,5.2,3,5.3,3c0.2,0,0.3,0.4,0.2,0.6L5.3,4.9C5.2,5.8,4.6,5.8,1.9,6
			c-5,0.2-7.4-3.1-7.4-5.7C-5.6-2.1-3.7-5.8,1.1-6C3-6.1,4.3-5.5,4.7-5.4C5-5.3,5.1-5.1,5.1-4.9l0.3,1.6C5.3-3.2,5.4-3,5.1-3
			C4.8-3,4.8-3.3,4.8-3.3C3.9-4.7,3.1-5.8,1.3-5.7C-1.5-5.6-3-2.4-2.9,0.1C-2.8,2.5-1.3,5.4,1.9,5.3z"/>
	</symbol>
	<symbol id="E" viewBox="-4.6 -6 9.2 11.9">
		<path d="M4.4-2.9C4.2-2.9,4.2-3,3.8-3.6C2.9-5.1,1.8-5.3,1-5.2c-1.6,0-2,0.3-2,1.6v3.2C-1,0-0.6,0.1,0,0.1
			s-0.1,0,1.1,0s1.5-2,1.7-2s0.3,0,0.3,0.4s0,3.7,0,3.5c0-0.2,0,0.3-0.3,0.3c-0.3,0-0.2-1.8-1.6-1.8c-0.3,0-0.4,0-1.1,0S-1,0.7-1,1.3
			L-1.1,4c0,0.9,0.1,1.1,1,1.1c2.7,0,3.1-0.8,3.4-1.2c0.2-0.5,0.3-0.8,0.6-0.8c0.2,0,0.2,0.1,0.2,0.3c0,0.2,0.1,1.4,0.1,1.7
			s0,0.5-0.1,0.5c-0.1,0-0.3,0.1-0.7,0.1s-6.3,0.1-6.5,0.1c-0.2,0-0.7,0.1-1,0.1s-0.3,0-0.3-0.2s0.1-0.3,0.6-0.3
			c1-0.1,0.9-0.6,0.9-1.4L-3-4.1c0-0.7,0-1.3-1-1.3c-0.4,0-0.7,0-0.6-0.3C-4.6-5.9-4.4-6-4.2-6C-4-6,2.7-6,3.6-6
			c0.5,0,0.8,0.2,0.8,0.6c0.1,0.7,0.2,2.1,0.2,2.2S4.6-2.9,4.4-2.9z"/>
	</symbol>
	<symbol id="G" viewBox="-6.4 -6.2 12.8 12.3">
		<path d="M6.1-0.2c-0.2,0-4.6,0.1-4.8,0.1S0.8-0.2,0.8-0.4s0.1-0.3,0.7-0.3c1.4,0.1,1.2-1.7,1.1-2.5s-0.3-2.2-2-2.2
			C-2.2-5.4-4-2.8-4,0c0,2.4-2.4,2.9-2.4-0.1c0-1.9,1.3-6,6.5-6.1c0.5,0,2.3-0.1,4,1C4.6-4.9,4.7-4.6,4.7-4s0,1.5,0,2.1
			s0.1,1.1,1,1.2c0.5,0,0.7,0,0.7,0.2C6.4-0.2,6.3-0.2,6.1-0.2z"/>
			<use xlink:href="#C" width="11" height="12" x="-5.5" y="-6" transform="matrix(1 0 0 1 -0.88 0.15)"/>
	</symbol>
	<symbol id="H" viewBox="-6.4 -5.9 12.7 11.8">
		<path d="M2.7,1.1c0-0.5-0.1-0.5-0.7-0.5l-3.9,0.1c-0.7,0-0.7,0-0.7,0.6l-0.4-0.9l0.4-0.6c0,0.4,0,0.4,0.7,0.4l3.9,0
			c0.5-0.1,0.8,0.1,0.8-0.5l0.5,0.8L2.7,1.1z"/>
		<use xlink:href="#I" width="5.4" height="11.8" x="-2.7" y="-5.9" transform="matrix(1 0 0 1 -3.66 2.16e-03)"/>
		<use xlink:href="#I" width="5.4" height="11.8" id="XMLID_6_" x="-2.7" y="-5.9" transform="matrix(1 0 0 1 3.69 2.16e-03)"/>
	</symbol>
	<symbol id="I" viewBox="-2.7 -5.9 5.4 11.8">
		<path d="M1.9,5.4c0.4,0,0.7,0,0.7,0.2S2.5,5.9,2.3,5.9c-0.2,0-2.1-0.1-2.1-0.1c-1.1,0-2.1,0-2.2,0s-0.4,0-0.4-0.3
			c0-0.3,0.3-0.2,0.8-0.2S-1,4.6-1,3.8v-7.9c0-0.8-0.3-1.3-0.9-1.3c-0.4,0-0.8,0-0.8-0.2c0-0.2,0.2-0.3,0.4-0.3s1.5,0.1,2.2,0.1
			S2-5.9,2.2-5.9s0.4,0.1,0.4,0.3S2.4-5.4,1.8-5.4S1-4.7,1-4.1v8.2C1,4.9,0.9,5.3,1.9,5.4z"/>
	</symbol>
	<symbol id="L" viewBox="-4.6 -6 9.1 12">
		<path d="M4.5-3.4c0,0.1-0.1,0.3-0.3,0.3C4.1-3.1,4-3.2,3.9-3.3c-1-1.9-2.4-2-3.3-2c-1.2,0-1.5,0.7-1.5,1.9l-2-0.4
			c0-0.8-0.1-1.4-0.9-1.4c-0.4,0-0.8-0.1-0.8-0.3c0-0.2,0.2-0.4,0.5-0.4c0.3,0,7.7,0,7.9-0.1c0.4,0,0.4,0.1,0.5,0.4
			C4.3-5.3,4.5-3.5,4.5-3.4z"/>
			<use xlink:href="#I" width="5.4" height="11.8" x="-2.7" y="-5.9" transform="matrix(1 0 0 1 -1.89 7.05e-02)"/>
	</symbol>
	<symbol id="M" viewBox="-7.4 -6.2 14.8 12.3">
		<path d="M6.8-5.3C5.9-5.3,5.9-5.2,5.9-4L5.4,4.1c0,1,0,1.2,0.9,1.4C6.8,5.5,7,5.6,7,5.8C6.9,6,6.6,6,6.4,6.1
			C6.2,6,4.1,6.2,3.8,6.1S3.2,6.1,3,5.4L0.4-2.3l-3.6,7.7c-0.1,0.4-0.3,0.5-0.5,0.5c-0.2-0.1-2.8-0.1-3.1,0c-0.3-0.1-0.4-0.1-0.4-0.2
			C-7.1,5.5-7,5.4-6.4,5.4c0.9,0,0.9,0,0.9-0.9c0.1-2.4,0-8.1-0.1-8.3c0-1.3-0.4-1.6-1-1.6c-0.5-0.1-0.7-0.1-0.8-0.4
			C-7.4-6-7.2-6-7.1-6.1c0.3,0,3,0,3.3,0c0.2,0.1,0.5,0,0.6,0.3C-3.3-5.6-3.6-5.5-4-5.6c-0.9,0-1.1,0.2-1.2,3.3c-0.2,2-0.1,4.2,0,6.3
			h0.1l4-8.9c0.2-0.3,0.2-0.4,0.4-0.5c0.2,0,0.2,0.2,0.5,0.6l3.3,8.7l0.6-8.2c0.1-0.9,0-1.2-0.8-1.4C2.5-5.7,2.3-5.8,2.2-6
			c0.1-0.1,0.2-0.2,0.4-0.2C3-6.1,6.6-6,6.9-5.9c0.2,0.1,0.5,0,0.5,0.3C7.2-5.4,7.1-5.4,6.8-5.3z"/>
	</symbol>
	<symbol id="N" viewBox="-6.4 -6.3 13 12.4">
		<path d="M6.1,5.8c-0.3,0-1.4,0-1.8,0c-0.3,0-1.2,0.1-1.6,0.1C2.6,5.9,2.3,6,2.3,5.7s0.3-0.3,0.9-0.3
			c0.8,0,1.1-1.1,1.1-2.2s0.1-5.6,0.1-5.6l-6.4,7.8C-2.3,5.6-2.5,6-2.9,6L-4,6c-0.6,0-1.5,0.2-1.6,0.2c-0.3,0-0.6,0-0.6-0.3
			s0.3-0.3,0.6-0.3c0.8,0,1-0.2,1-1.6l0-6.3c0-2.6,0-2.7-0.9-2.9c-0.8-0.1-0.8-0.2-0.9-0.4c0-0.3,0.3-0.2,0.5-0.2c0,0,3.1,0,3.3,0
			c0.1,0,0.7-0.1,0.7,0.2c0,0.1-0.1,0.2-0.9,0.3c-0.9,0.1-1.1,0.3-1.1,2.9l-0.1,6.7L4.3-5.9c0.3-0.4,0.4-0.4,0.6-0.4
			c0.3,0,0.3,0.3,0.3,0.6L5,4.1c0,1,0.3,1.2,0.9,1.2c0.5,0,0.7,0,0.7,0.3C6.7,5.9,6.3,5.8,6.1,5.8z"/>
	</symbol>
	<symbol id="P" viewBox="-4.9 -5.7 9.8 11.8">
		<path d="M1,6C0.5,6-1.6,6-2,6c0,0,0.8-6.4,0.8-6.4c0,0.2,0,0.4,0.1,0.3c0.1,0,0.6-0.1,0.6-0.2c0.8-0.3,1.2-0.4,1.7-0.4
			c1.6-0.1,3.6,1,3.7,3.3C5,3.9,4.2,5.8,1,6z M0.2,0.1c-0.4,0-0.9,0.1-1.2,0.3c-0.2,0.1-0.2,0.1-0.2,0.5l0,3.3c0,0.9,0.1,1.4,1.2,1.3
			c1.6-0.1,2.8-1.2,2.7-2.7C2.7,0.9,1.2,0,0.2,0.1z"/>
			<use xlink:href="#I" width="5.4" height="11.8" x="-2.7" y="-5.9" transform="matrix(-1 0 0 1 -2.18 0.20)"/>
	</symbol>
	<symbol id="R" viewBox="-5.6 -6 11.3 11.9">
		<path d="M4.8-5.3C4.3-5.2,4-4.8,3.7-4.1L1.9-0.8C1.5,0,1.3,0.1,1,0.3c0.7,0.1,2.5,0.6,2.5,2.8C3.6,3.8,3.2,6,0,6
			c-0.5,0-3.2-0.2-4.9,0c-0.5,0-0.7,0-0.7-0.2c0-0.2,0.2-0.3,0.7-0.3C-4,5.4-4,4.9-4,4.1L-4-4c0-0.8-0.3-1.3-1-1.3
			c-0.4,0-0.7,0-0.7-0.3c0-0.2,0.3-0.3,0.5-0.3c0.2,0,4.2,0,4.4,0c0.2,0,0.4,0,0.4,0.3c0,0.2-0.3,0.3-0.7,0.3C-1.8-5.3-2-4.7-2-3.9
			l0,3.4C-2-0.2-2,0-1.6,0C-0.7,0-0.7-0.1-0.3-1L2-5.3c0.2-0.4,0.3-0.6,0.6-0.6C2.8-5.9,5.1-6,5.3-6C5.4-6,5.6-6,5.7-5.7
			C5.7-5.5,5.4-5.4,4.8-5.3z M-1.1,0.2C-2,0.2-2,0.2-2,0.9C-2,1.1-2.2,4-2.2,4c0,0.7,0,1.2,0.9,1.2c2.3,0,2.6-1.9,2.6-2.6
			C1.4,0.3-0.5,0.1-1.1,0.2z"/>
	</symbol>
	<symbol id="S2" viewBox="-3.8 -6 7.5 11.9">
		<path d="M0.8,1.3c-1.6,0.6-2.6,1-2.7,2.4c0,0.8,0.5,1.8,2.1,1.8s1.9-1.1,2.2-1.8C2.5,3.1,2.6,3,2.8,3
			C3,3,3.1,3.2,3.1,3.6s0.1,1.9-0.3,2C2.4,5.7,1.4,5.9,0.4,5.9C-2,6-3.3,4.6-3.4,2.8c0-2,1.5-2.7,2.9-3.4S2.2-2,2.1-3.5
			c0-1.5-1.4-2-2.3-2c-1.3,0-2.7,1.2-2.9,2.9c0,0.2,0,0.3-0.2,0.3c-0.2,0-0.2-0.2-0.3-0.3c-0.1-0.7-0.1-1.7-0.1-1.7
			c0-0.4,0.1-0.7,0.3-0.9C-3.2-5.5-1.9-6-0.4-6c2.8,0,4.1,1.4,4.2,3.5C3.8-0.2,1.9,0.7,0.8,1.3z"/>
	</symbol>
	<symbol id="T" viewBox="-5.4 -6.4 10.7 12.7">
		<path d="M5.3,5.6c0,0.4,0,0.7-0.2,0.7c-0.2,0-0.1-0.9-2.4-0.9s-6-0.1-6-0.1c-1.2,0-0.8,0.7-1.1,0.8
			c-0.1,0-0.2,0-0.3-0.4c-0.1-0.4-0.6-2.5-0.7-2.8c0-0.1,0-0.3,0.2-0.4c0.4-0.1,0.6,2.3,3.8,2.3c0.4,0,2.6,0.1,3.7,0.1
			c1.2,0,2.1,0.1,2.5-1.8C4.9,2.7,5,2.7,5.1,2.7c0.2,0,0.2,0.3,0.2,0.6S5.3,5.6,5.3,5.6z"/>
			<use xlink:href="#I" width="5.4" height="11.8" x="-2.7" y="-5.9" transform="matrix(1 0 0 1 0.19 -0.50)"/>
	</symbol>
	<!-- small letterss -->
	<symbol id="Lower-leg" viewBox="-1.4 -0.8 2.8 1.5">
		<path d="M-1.4-0.8l2.3,0l0.5,1.3L1,0.8c-0.3-0.5-0.8-1-1.4-1c-0.4,0-0.6,0.1-0.6,0.4L-1.4-0.8z"/>
	</symbol>
	<symbol id="Sm-A" viewBox="-2.1 -1.9 4.1 3.8">
			<use xlink:href="#Sm-V" width="4.1" height="3.8" x="-2.1" y="-1.9" transform="matrix(-1 -1.22e-16 1.22e-16 -1 0 0)"/>
		<rect x="-1" y="-0.6" width="1.7" height="0.5"/>
	</symbol>
	<symbol id="Sm-B" viewBox="-1.9 -1.9 3.8 3.7">
		<path d="M1.1,0.2C1.4,0.3,1.6,0.6,1.6,1c0,0.4-0.3,0.9-1,0.9c-0.9,0-2.6,0-2.6,0l0.1-0.4l0.1,0c0.3,0,0.3-0.5,0.3-0.5
			l0-1.7c0,0,0.1-0.6-0.5-0.6l0.1-0.4l2.1,0c0.4,0,1.5,0,1.5,1.1C1.9-0.3,1.5,0,1.1,0.2z M0-1.2l-0.4,0l0,1.1l0.4,0
			c0.4,0,0.9-0.1,0.9-0.6C0.8-1.1,0.3-1.2,0-1.2z M0.1,0.3l-0.6,0v1c0,0,0.3,0,0.4,0c0.3,0,0.7-0.1,0.8-0.5C0.8,0.4,0.4,0.3,0.1,0.3z
	"/>
	</symbol>
	<symbol id="Sm-C" viewBox="-1.8 -1.9 3.6 3.9">
		<path d="M0-1.4C-0.3-1.4-1-1-1,0c0,0.8,0.4,1.5,1,1.5c0.9,0,1.4-1.3,1.4-1.3l0.4,0.1L1.5,1.6l-0.3,0l0-0.1
			C1,1.7,0.6,1.9,0,1.9c-1.1,0-1.8-0.9-1.8-1.9c0-1.1,1-2,1.8-2S1.4-1.5,1.7-1L1.3-0.8C1.1-1.2,0.5-1.4,0-1.4z"/>
	</symbol>
	<symbol id="Sm-D" viewBox="-2.1 -1.9 4.1 3.7">
		<path d="M0.7,1.9c-0.3,0-2.8,0-2.8,0L-2,1.4c0.5,0,0.5-0.2,0.5-0.5l0-1.8c0-0.4,0-0.5-0.5-0.6l0.1-0.4l1.8,0
			c0.6,0,2.1,0.2,2.1,1.9C2.1,1.3,1.2,1.9,0.7,1.9z M0-1.4c-0.4,0-0.4,0.3-0.4,0.3l0,2.1c0,0.4,0.2,0.4,0.4,0.4S1.1,1.2,1.1,0
			C1.1-0.8,0.8-1.4,0-1.4z"/>
	</symbol>
	<symbol id="Sm-E" viewBox="-1.9 -1.9 3.8 3.8">
			<use xlink:href="#Lower-leg" width="2.8" height="1.5" x="-1.4" y="-0.8" transform="matrix(1 0 0 -1 0.49 1.16)"/>
			<use xlink:href="#Sm-L" width="3.8" height="3.8" id="XMLID_5_" x="-1.9" y="-1.9" transform="matrix(1 0 0 1 1.76e-02 0)"/>
		<path d="M-0.7,0.4c0,0,0.3,0,0.5,0s0.4,0.3,0.4,0.5h0.4L0.5-0.8H0.1c0,0,0.1,0.6-0.4,0.6S-0.7,0.4-0.7,0.4z"/>
	</symbol>
	<symbol id="Sm-I" viewBox="-1 -1.9 2.1 3.8">
		<path d="M0.5-0.8c0,0.5,0,1.4,0,1.8S0.8,1.5,1,1.5l0,0.4l-1.9,0L-1,1.5c0,0,0.5,0,0.5-0.5s0-1.6,0-2S-0.9-1.4-1-1.4
			l0-0.5h2l0,0.5C0.8-1.4,0.5-1.4,0.5-0.8z"/>
	</symbol>
	<symbol id="Sm-L" viewBox="-1.9 -1.9 3.8 3.8">
			<use xlink:href="#Lower-leg" width="2.8" height="1.5" x="-1.4" y="-0.8" transform="matrix(1 0 0 1 0.47 -1.16)"/>
			<use xlink:href="#Sm-I" width="2.1" height="3.8" x="-1" y="-1.9" transform="matrix(1 0 0 1 -0.86 0)"/>
	</symbol>
	<symbol id="Sm-M" viewBox="-2.5 -1.9 5 3.8">
		<path d="M-2.4,1.9l0-0.4c0,0,0.4,0,0.4-0.3s0-2,0-2.2s-0.4-0.4-0.4-0.4l-0.1-0.4l1.5,0l0,0.4c0,0-0.6-0.1-0.6,0.5
			s0,2,0,2.2s0.2,0.2,0.2,0.2l0.1,0.4L-2.4,1.9z"/>
		<polygon points="0.5,1.9 -0.2,-0.4 -0.9,1.9 -1.8,1.9 -0.6,-1.9 0,-1.9 1.2,1.9"/>
			<use xlink:href="#Sm-I" width="2.1" height="3.8" x="-1" y="-1.9" transform="matrix(1 0 0 1 1.44 -1.24e-02)"/>
	</symbol>
	<symbol id="Sm-N" viewBox="-1.9 -1.9 3.7 3.9">
		<path d="M-1.7,1.9l0-0.4c0,0,0.4,0,0.4-0.3s0-2,0-2.2s-0.4-0.4-0.4-0.4l-0.1-0.4l1.5,0l0,0.4c0,0-0.6-0.1-0.6,0.5
			s0,2,0,2.2s0.2,0.2,0.2,0.2l0.1,0.4L-1.7,1.9z"/>
		<path d="M1.7-1.9l0,0.4c0,0-0.4,0-0.4,0.3s0,2,0,2.2s0.4,0.4,0.4,0.4l0.1,0.4l-1.5,0l0-0.4c0,0,0.6,0.1,0.6-0.5
			s0-2,0-2.2S0.7-1.5,0.7-1.5L0.6-1.9L1.7-1.9z"/>
		<polygon points="1.2,-1.9 -0.1,1.9 -1.1,1.9 0.3,-1.9 0.9,-1.9"/>
	</symbol>
	<symbol id="Sm-P" viewBox="-1.8 -1.9 3.6 3.8">
		<path d="M0.5,1.9l-2.3,0l0.1-0.5c0.4,0,0.5-0.2,0.5-0.6l0-1.7c0,0,0-0.6-0.4-0.6l0-0.4h1.9l0,0.4C-0.3-1.5-0.2-1-0.2-1
			l0,0.6l0.4,0c0.7,0,1.6,0.4,1.6,1.1S1.5,1.9,0.5,1.9z M0.1,0.1l-0.3,0l0,1.1c0,0,0.2,0,0.4,0c0.3,0,0.7-0.2,0.7-0.6
			C0.8,0.1,0.2,0.1,0.1,0.1z"/>
	</symbol>
	<symbol id="Sm-Q" viewBox="-2.1 -2.6 4.2 5.2">
		<path d="M1.7-0.4c0,0,0.2,0.4,0.2,1.2C1.8,2,0.8,2.6-0.3,2.6c-1.2-0.1-1.9-1-1.9-2.1c0-1.1,1-1.8,2.1-1.8
			C0.7-1.3,0.9-1,0.9-1s0.2-0.1,0.2-0.5c0-0.4-0.5-0.7-1.1-0.7c-0.8,0-0.8,0.1-0.8,0.1S-1-1.5-1.4-1.5c-0.2,0-0.4-0.2-0.4-0.4
			c0-0.4,0.8-0.7,1.9-0.7c1.5,0.1,2,0.8,2,1.4C2.1-0.6,1.7-0.4,1.7-0.4z M0-1c-0.1,0-0.3,0-0.3,0s0.1,0.3,0.4,0.3
			c0.3,0,0.4-0.1,0.4-0.1S0.4-1,0-1z M0.7,0c0,0-0.3,0.1-0.6,0c-0.6-0.1-0.8-0.8-0.8-0.8s-0.4,0.1-0.4,1.1c0,0.6,0.1,1.5,0.9,1.5
			c0.7,0,1-0.7,1-1.3C0.8,0.3,0.7,0,0.7,0z"/>
	</symbol>
	<symbol id="Sm-R" viewBox="-2.2 -1.9 4.3 3.8">
			<use xlink:href="#Sm-P" width="3.6" height="3.8" x="-1.8" y="-1.9" transform="matrix(1 0 0 1 -0.38 0)"/>
		<path d="M0.9-1.9h1.2l0,0.5c0,0-0.4,0-0.8,0.4S0.7-0.1,0.7-0.1l-1-0.2L0.9-1.9z"/>
	</symbol>
	<symbol id="Sm-S" viewBox="-1.7 -2 3.4 3.9">
		<path d="M0.1-2c-0.3,0-0.8,0.2-1,0.4L-1-1.8l-0.4,0l-0.3,1.4l0.4,0.1C-1.1-0.9-0.7-1.4,0-1.4c0.3,0,0.7,0.1,0.7,0.3
			S0.4-0.7,0.2-0.6c0,0-0.5,0.3-0.9,0.4C-1.2,0-1.4,0.4-1.4,1s0.6,1,1.4,1C0.3,2,0.8,1.8,1,1.6l0,0.2l0.3,0l0.3-1.2L1.1,0.5
			c0,0-0.3,0.5-0.5,0.6C0.5,1.3,0.2,1.4,0,1.4S-0.6,1.3-0.6,1s0.3-0.3,0.5-0.4c0,0,1.3-0.5,1.5-0.7c0.3-0.2,0.4-0.5,0.4-0.8
			C1.7-1.6,0.9-2,0.1-2z"/>
	</symbol>
	<symbol id="Sm-T" viewBox="-2 -1.9 4 3.8">
			<use xlink:href="#Sm-I" width="2.1" height="3.8" x="-1" y="-1.9" transform="matrix(1 0 0 1 -8.72e-02 0)"/>
			<use xlink:href="#Lower-leg" width="2.8" height="1.5" x="-1.4" y="-0.8" transform="matrix(0.87 0 0 -1 0.80 1.16)"/>
			<use xlink:href="#Lower-leg" width="2.8" height="1.5" x="-1.4" y="-0.8" transform="matrix(-0.79 0 0 -1 -0.91 1.16)"/>
	</symbol>
	<symbol id="Sm-V" viewBox="-2.1 -1.9 4.1 3.8">
		<path d="M2.1,1.9l-1.5,0l0-0.4C1.1,1.5,1,1.1,1,1.1L0.2-0.8L-0.4,1C-0.5,1.3-0.2,1.4,0,1.5l0,0.4l-2,0l0-0.4
			c0.4,0,0.4-0.1,0.6-0.5l1-2.8h0.7l1.1,2.8c0.1,0.4,0.2,0.6,0.6,0.6L2.1,1.9z"/>
	</symbol>
	<symbol id="U" viewBox="-6.3 -6.1 12.5 12.1">
		<path d="M5.9,5.9c-0.2,0-1.1-0.1-1.7,0C3.3,6,2.9,6,2.6,6.1C2.3,6,2.1,6,2.1,5.8s0.2-0.3,0.6-0.4
			c1-0.1,1.2-0.3,1.1-1.9v-5.8c0-1.1-0.2-3.2-3.2-3.1c-3.3,0-3.2,2.2-3.3,3.6l-0.1,5.9c0,0.8,0,1.3,1,1.3c0.4,0,0.7,0,0.7,0.3
			C-1,5.9-1.1,6-1.3,6c-0.1-0.1-1,0-2.3-0.1c-1.3,0-2.1,0-2.3,0c-0.1-0.1-0.4,0-0.3-0.3c0.1-0.4,0.3-0.3,0.6-0.4
			c0.9-0.1,0.9-0.6,0.9-1.4l0.1-6.1c0-3.2,2.5-3.9,4.9-3.7c4.3,0,4.2,2.8,4.3,3.8v5.9c0,1.6,0.3,1.6,1.1,1.7c0.2,0,0.5,0,0.6,0.3
			C6.3,5.8,6.2,5.9,5.9,5.9z"/>
	</symbol>
	<symbol id="dot" viewBox="-1.1 -1.1 2.2 2.2" >
		<circle cx="0" cy="0" r="1.1"/>
	</symbol>
	<symbol id="fleur" viewBox="-3.6 -5.1 7.1 10.2">
			<use xlink:href="#half-fleur" width="7.1" height="5.2" x="-3.6" y="-2.6" transform="matrix(1 0 0 1 0 2.45)"/>
			<use xlink:href="#half-fleur" width="7.1" height="5.2" x="-3.6" y="-2.6" transform="matrix(1 0 0 -1 0 -2.54)"/>
	</symbol>
	<symbol  id="half-fleur" viewBox="-3.6 -2.6 7.1 5.2">
		<path d="M-3.6-2.6h0.7C-2.8-2.5-2.5-2-2.1-2s0.7-0.5,0.8-0.5h4.8c0,1.6-1.3,2.9-2.9,2.9c0,0-1.2-0.1-1.9-0.1
			c-1.7,0-1.1,2.3-1.3,2.3c-0.2,0-0.6-0.8-0.6-2c0-0.8,0.3-1.3,0.6-1.5C-3.2-1.4-3.6-1.9-3.6-2.6z"/>
	</symbol>
	<symbol id="tear" viewBox="-0.9 -1.8 1.8 3.5">
		<path d="M0.7,1.5c-0.4,0.4-1,0.4-1.4,0c-0.7-0.7,0.4-2.3,0.6-3.2C0.2-0.9,1.4,0.8,0.7,1.5z"/>
	</symbol>
	<symbol id="ring-cross" viewBox="-78 -77.8 155 155">
		<path d="M-0.5,77.2c-0.8,0-1.4-0.6-1.4-1.4c0-0.8,0.6-1.4,1.4-1.4s1.4,0.6,1.4,1.4C0.9,76.6,0.3,77.2-0.5,77.2z
			 M-0.5,75c-0.5,0-0.8,0.4-0.8,0.8c0,0.5,0.4,0.8,0.8,0.8s0.8-0.4,0.8-0.8C0.3,75.4,0,75-0.5,75z"/>
		<path d="M-0.5-74.9c-0.8,0-1.4-0.6-1.4-1.4s0.6-1.4,1.4-1.4s1.4,0.6,1.4,1.4S0.3-74.9-0.5-74.9z M-0.5-77.1
			c-0.5,0-0.8,0.4-0.8,0.8c0,0.5,0.4,0.8,0.8,0.8s0.8-0.4,0.8-0.8C0.3-76.8,0-77.1-0.5-77.1z"/>
		<path d="M75.6,1.2c-0.8,0-1.4-0.6-1.4-1.4s0.6-1.4,1.4-1.4S77-1.1,77-0.3S76.4,1.2,75.6,1.2z M75.6-1.1
			c-0.5,0-0.8,0.4-0.8,0.8s0.4,0.8,0.8,0.8s0.8-0.4,0.8-0.8S76-1.1,75.6-1.1z"/>
		<path d="M-76.6,1.2c-0.8,0-1.4-0.6-1.4-1.4s0.6-1.4,1.4-1.4s1.4,0.6,1.4,1.4S-75.8,1.2-76.6,1.2z M-76.6-1.1
			c-0.5,0-0.8,0.4-0.8,0.8s0.4,0.8,0.8,0.8s0.8-0.4,0.8-0.8S-76.1-1.1-76.6-1.1z"/>
	</symbol>
	<!-- End ssymbols -->

	<circle class="color-primary" cx="105" cy="105" r="101.5"/>s
	<circle class="color-background" cx="105" cy="105" r="98.5"/>
	<circle class="color-secondary" cx="105" cy="105" r="96.7"/>
	<circle class="color-background" cx="104.8" cy="105" r="94.7"/>
	<path id="sheild" class="color-primary" d="M144.1,63.2l-0.1-1.9H66.5l-0.2,1.9c-5.6,52.8,15.2,82.3,24.4,92.5
			c5.6,6.2,11.3,10.3,14.2,10.3c2.7,0,7.2-3.2,12.1-8.4c4.6-4.9,13.3-15.9,19.7-33.8C143.2,105.5,145.7,85.2,144.1,63.2z"/>
	<polygon class="color-secondary" points="83.8,80.8 80.1,78.1 76.4,80.8 77.8,76.4 74.1,73.6 78.7,73.6 80.1,69.3 81.4,73.6 86,73.6
			82.3,76.4"/>
	<g id="native" class="color-secondary">
		<path d="M99.4,70.7c0.1,0.1,0.2,0,0.3,0c1.1,1.1,1.7,2.6,2.6,3.9c0.1,0,0.3-0.4,0.2-0.7c0.1,0.2,0.2,0.3,0.3,0.3
			c0,0,0.1-0.1,0.1-0.1c0-0.3-0.9-1.3-1-1.5c0.2,0,0.4,0.1,0.6,0.1c0.8,0.2-0.5-0.4-0.7-0.4c-0.3-0.3-0.5-0.7-0.8-1h0.7
			c-0.2-0.4-0.2-0.5-0.4-0.9c-0.3,0.1-0.6,0-0.9,0c0,0.2,0.1,0.3,0.1,0.5c-0.1-0.2-0.6-0.6-0.8-0.8c-0.5,0-0.7,0.1-0.9,0
			c-0.1,1.1,0.2,1.8,1.3,2.1h-0.7c0,0-0.1,1.5,1.6,1.7c-1.3,0.2,0,0.9,0.4,1.3c0.2,0,0.3,0.1,0.5,0.1c0,0,0,0,0,0
			C101.4,73.5,100.3,72,99.4,70.7z"/>
		<path d="M106.8,86.5c0.5-1.2-1.4,1.3-1.4,1.7C106.1,87.8,106.6,87.5,106.8,86.5z"/>
		<polygon points="118.7,96.8 118.4,96.6 118,97.7 118.3,98.1"/>
		<polygon points="118.3,98.3 118,97.9 117.6,99.3 117.9,99.6"/>
		<path d="M87.4,93.5c0.7-0.2,1.2,0.3,1.3,0.1c-0.1-1-2.5-0.6-2.2,0.5C86.5,94.1,86.9,93.6,87.4,93.5z"/>
		<path d="M96.1,100.9c0.5-0.6,1.1-1.4,0.9-2.3c0-0.2-0.4-1.6-0.2-1.6c0.2,0,0.3,1.5,0.5,1.5c0.2,0-0.2-1.8-0.2-2.9
			c0.1,0.1,0.3,0.9,0.5,1.1c0-1.8-1.1-4.4-0.7-4.4s0.5,2.1,0.8,2c0.3-0.6-1-4.6-0.8-5.2c0.1,0,0.8,2,1,1.9c0.1,0.2-1.1-4-0.7-4.2
			c0.3,0,0.5,3,0.9,3.1c0.2,0,0.1-0.8,0.3-0.7c0.2,0.1-0.3,3-0.2,4.7c0.5,1.3-0.2,7.6,0.5,7.7c0.6,0.3,0.5-0.8,0.6-0.6
			c0.8,1,0.5-0.1,0.8-0.1s0.4,0.9,0.7,0.9c0.3,0,0.1-5.1,0.4-5.2c0.2,1.5,0,4.8,0.2,4.9s-0.1-2.6,0.2-2.5c0.4,0.3-0.1,2.7,0.6,3.2
			c0.3,0.2,1.9,0.1,2,0.1c0.1,0,0.2-1.1,0.4-1.1s0.1,1.1,0.2,1.1c0.1,0,0.9,0.1,1.3,0.2c-0.2-0.9,0.4-0.6,0.5,0c2,0,2-5.2,2.2-5.3
			c0.1,0-0.1,3.2-0.4,4.7c1.2,0.6,2-1.7,1.6-3.4c0,0,0.9,1.2,0.4,3.2c0.1,0,1.4-1-0.3-4.8C109.9,96,110,94,110,94s0.3,2.7,1,3
			c0.1,0-0.5-1.6-0.6-2.6c0.1-2.2,0.8-6,0.4-7.6c1.2,1.3,0,4.9,0.2,6.2c0.2,0,0.6-3,0.6-3c0.2,1.2,0.3,1.9,0,3.3
			c-0.1,0.6-0.4,1.7,0,2.4l0.4-2.4c0.5,1.5-0.4,5.1-0.1,7.3c0.8-1.6,2-2.7,3.8-0.9c0-0.2-0.3-1.6-0.5-1.8c-0.2-0.4-0.3-0.1-0.6-0.2
			c-0.1-0.1-0.8-0.6-0.6-1.6c0.3-0.6,0.3,1.5,0.6,1c-0.6-3.3-1.3-8.5-3.4-11.4c-0.5-0.3-2.8-0.7-2.8-0.7l-0.3,1.4
			c0,0-1.3-3.2-1.2-5.3c0.2-3.1,0.4-3.6-0.5-5.9c1.6,1.8,0.3,5.1,0.8,7.4c0.1,0,0.1-0.6,0.1-0.6c0,0.3,0.7,2.6,1,2.6
			c0.1-0.1-0.6-2.1-0.7-3.3c-0.2-3.2,0.7-7.8-3.9-7.7c-0.1-0.3,0.1-0.9-0.2-0.9c-0.4,0.4-0.2-0.6-0.2-0.9c0,0-0.1-0.1-0.2-0.1
			c-0.4,1.4,0-0.1-0.2-0.6c-0.2-0.3-0.5-1.5-0.9-1.5c-0.4,0-0.2,0.7-0.2,0.7c-0.3-0.2-0.3-1.2-0.4-1.3c-0.1-0.1-0.2-0.1-0.2-0.1
			c-0.2-0.4-0.1-0.4-0.8-0.5c-0.3,1.2-0.1,1.2,0.9,1.6c0-0.1-0.1-0.3-0.1-0.4c-0.1-0.1-0.6-0.9-0.4-0.7c0.1,0.1,0.2,0.2,0.2,0.4
			c0.2,0.2,0.4,0.5,0.6,0.8c0,0.2,1.4,2.2,1.7,3.8c-0.2,0.1-0.3,0.2-0.4,0.2c0,0.1-0.1,0.1-0.1,0.1c-0.4,0.3-0.6,0.6-0.9,1.1
			c0,0,0,0,0,0c0,0,0,0,0,0c-1.8,1.9-1.1,4.3-0.4,6.7c0.1-2.1-0.9-5.1,0.8-6.5c0.1,0.2,0,0.5,0.2,0.4c1.4-0.6,3.8-0.4,4.1,0.9
			c-0.9-1.1-3-1-4.5-0.5c-0.4,0.3-0.7,1.8-0.4,2.5c0.1,0.3,0.5,0.6,0.6,0.9c0.1,0.7-0.6,1.3,0.2,1.8c0.1,1.3,1.6,1.2,2.7,1.1
			c0.5-0.1,1.2-1.2,1.2-2.4c0-0.2-0.3-0.4-0.3-0.7c0-0.1,0.5-0.9,0.5-0.9c-0.3,3.3,0.6,7.4,0.7,7.6c-0.2,0.6-1.6,2.5-2.7,2.6
			c-0.2,0,0.4-1.5,0.2-2.3c-0.5,0.2-2-0.9-2.4-0.4c0.6,0.7,0.5,1.3,0.6,1.5c0.1,0.2,0.6,0.2,0.8,0.5c0.1,0.2,0.6,1.4,0.1,1
			c-0.2-0.1-0.4-0.8-0.6-0.9c-0.3-0.2-0.6,0.3-0.7-0.4c-0.1-0.7-1.1-1.3-1.1-1.3l-1.5,0.1l-0.5-1.1C97,86,96.1,86.1,95.3,89
			c0,1.3,0.1,2.5-0.5,3.7c0,1.3-0.1,2.2-0.8,3.4c0.7-0.4,1.9-0.5,2.3,0.9c-1.4-0.7-1.2,0.1-0.8,0.9c-1.4-1.7-4.1-1.6-5.4-3.3
			c-0.3-0.4-0.7-2.6-1.3-2.7c-0.1,0.2,0.4,2.2,0.3,2.6c-0.1,0.9-0.8,1.4-0.8,0.3c-0.3,0-0.9,0.3-1-0.1c0.2-0.7,1.1-0.3,1.4-0.2
			c-0.3-1.8-3.7,0.1-1.3,1.1c-2.4,12.4,3.1,43.7,7.7,51.9c1.3,0.2-4.1-47.7-3.7-48c0,0,2.8,2.6,3.8,2.6
			C95.6,102.1,95.7,101.3,96.1,100.9z M102.3,78.3c-0.1,0-0.2,0.1-0.2,0c0.3-1.1,1.2-0.3,1.9-0.6c0,0.7,0,0.6-0.4,1.1
			C102.7,78.7,102.8,78.8,102.3,78.3z M105.5,81.5c-0.1,0-0.6,0.1-0.8,0.1s0,0.2-0.1,0.2c-0.1,0-0.6,0.1-0.7,0
			c-0.1-0.1,0.2-0.3,0.1-0.3c-0.1,0-0.7,0.1-0.8,0.1c-0.5-0.8,2.2-0.2,2.3-0.3C105.7,81.3,105.6,81.5,105.5,81.5z M106.4,78.2
			c-0.1,0.1-0.6,0.3-0.7,0.4c-0.2,0.1-0.8-0.3-1-0.2c-0.1,0,0.2,1.3,0.3,1.3c0.2,0.1,0.7,0.7,0.7,1c-0.1,0.5-0.4-0.4-0.6-0.4
			c-1.1,1.1-1.5-0.6-2.4,0.6c0.1-0.3,0.3-0.7,0.6-0.9c-0.1-0.1,0.1-0.2,0.2-0.2l0.1,0.2c1.8,0.6,0.2-1.8,0.8-2.4
			c0.8,0,1.5-0.1,2.1,0.4C106.5,78.1,106.4,78.2,106.4,78.2z M95.1,145.2c0,0-0.1,0-0.2,0c-1.3-2.2-6.5-22.6-5-26
			c-0.2-1.9-0.5-8.4-1.3-9.3c-0.5-1.4-0.6-12.7-0.2-13.8c0.6-0.3,2.4,2.1,2.7,3C91.3,102,94.9,143.7,95.1,145.2z"/>
		<polygon points="117.8,99.9 117.5,99.5 117.3,100.2 117.5,100.7"/>
		<path d="M88.7,92.9c0.1-0.9-2.3-0.8-2.1,0.2c0,0.1,0.5-0.4,1.1-0.3C88.3,92.9,88.7,93.1,88.7,92.9z"/>
		<path d="M89,86.2c0.3-1.9,0.5-3.4,0.5-3.4l1.2,12.1l0.4,0.3l-1.5-14.8c0-0.8-2.1,11.2-1.8,10.6l0.6,0.2
			C88.4,91.2,88.7,88.1,89,86.2z"/>
		<path d="M87.7,92.1c0.5-0.1,0.9,0.4,1,0.2s-0.1-0.8-0.8-0.8C86.9,91.7,86.4,92.6,87.7,92.1z"/>
		<path d="M101.9,82.4C101.9,82.4,101.6,82.5,101.9,82.4L101.9,82.4z"/>
		<path d="M98.3,144.4c0.1,0,0.6-0.2,0.6-0.3c0.7-0.5,0.1-1.1,0.1-1.1S97.9,144.4,98.3,144.4z"/>
		<path d="M101.6,103.7c-3.3,0.1-3,1,0.1,0.7c0.5,0.1,1.2,0.5,1.7,0.6c0.8,0.1,1.3-0.4,2.1-0.2c0.6,1.1,3.7-0.2,4.7-0.7
			c0.4-0.2,1.2-0.2,1.6-0.2c0.4,0-0.7-0.5-2.6,0.1c-1.2,0.4-3.2,0.6-3.3,0.4c0-0.2,1.9-0.3,2.5-0.5c1.1-0.4,3.1-1.1,3.2-1.1
			c-0.7-0.7-2.8,1-4.4,0.6c-0.3-0.1-0.3,0.2-0.6,0.2s-1.4-0.1-1.2-0.4c0.2-0.3-1.8,0.1-2.7,0c-1,0-3.8-1.8-3.7,0.2
			c1.5-0.4,3.4-0.1,4.8,0.6c0.9,0.1,3.4-0.3,3.4-0.2C106.1,104.4,102.7,104.2,101.6,103.7z"/>
		<path d="M110.7,141.5c-0.1,0.3-0.1,0.4-0.3,0.8c0.6,0.2,1.2,2.6,1.1,3c-0.8,0.4-1.7-1.1-1.9-1.8
			c-0.5,1.9-2-0.9-2.4-1.2c-0.6,1,0.3,1.7,1.2,2.2c0.4,0.5,0.4,1.1,0.9,1.6c0.2,0.3,2.6,2,3.1,1C113.3,145.4,111.4,143,110.7,141.5z"
			/>
		<path d="M109.4,143.1l-2.1-1.6c0,0.2,0,0.3,0,0.3l1.6,1.9L109.4,143.1z"/>
		<polygon points="110.9,123.8 111.2,123.9 114.2,113.9 113.8,113.8"/>
		<path d="M116.1,107.5c0.4-1.3,3.2-10.5,3.2-10.4L119,97c0,0-3,9.5-3.2,10.2c0.7-2.6,0.6-8.1-1.8-7.5
			c-0.6,0.1-1.3,1.2-1.3,1.8c-0.2,1.3,0.6,2.3,0.7,3.4c-0.1,1.8,0.2,2.8,0.1,4.5c-0.1,0.3-0.6,1.8-0.6,2c0,0-0.3-2.2-0.5-2.4
			c-0.2-0.2,0.1,1.7-0.2,1.5c-0.3-0.2-0.1-1.4-0.4-2c-0.4-0.6-1-1.3-1.1-2c-0.3-0.6-2,0.1-2.1-0.1c-0.1-0.2,0.6-0.3,0.5-0.5
			c-0.1-0.2-2.3,0.5-3.7,0.4c-0.7-0.1-2-0.1-2-0.2c0.9-0.1,4.7-0.2,6.2-0.7c0.6-0.1,1.9,0.4,1.9,0c0-0.4-1.2-0.3-1.5-0.3
			c-2.4,0.3-4.7,0.6-7.1,0.4c-1.2,0-4.7-0.9-3.5,0c0.3,0.1,1.8,0.1,2.2,0.4c0.4,0.3-0.2,0.4-0.3,0.9c-0.1,0.5,0.2,1.8-0.2,1.8
			c-0.4,0-0.2-2.4-0.5-2.5c-2.1-0.9-1.4,3.7-1.9,5.1c-0.5,1.8-1.6,5-1.3,7c-0.4,1,0,1.4,0.2,1.5c0.2-0.3,0.1-0.7,0.4-0.3
			c0.2-0.3,0.2-0.4,0.5-0.1c0.3-0.4,0.1-0.4,0.5-0.1l0.1-0.2c0.3-0.1,0.4,0.3,0.6-0.1c0.9,1.1-1.1,0.6-1.8,1.2c0.1,1.7,0.9,6.9,1,8.4
			c0.5,0.8,0.9,2.3,0.7,2.3s-0.2-0.7-0.4-0.7c-0.5,1,0.1,6.1,0.7,7.7c-0.2,0.1-0.1,0-0.4,0c0.4,0.8,0.6,4.6-0.3,5.1
			c-0.1,0.2,0.6,0.7,1.5,0.6c0.3-0.1,1.7-0.1,1.4,0c-1.6,0.8-2.8,2.6-3.5,2.9c-1,0.3-0.7-0.7-0.2-1.3c0.7-1.3-1.5,0.8-1.5,1.4
			c0.2,4.5,2.7,0.7,4.5-0.6c0.1-0.3,2.2-0.7,1.7-1.7c0,0-2.1,1.5-2.3,1c0.1-0.3,2.1-0.9,2.3-1.5c0.1,0-0.5-1.5-0.6-3.1
			c-0.1-1.7,0.4-3.4,0.3-3.5c-0.1-0.1-0.5,0.9-0.7,0.6c-0.2-0.3,0.3-1,0.9-2.4c0.8-1.6,0.1-7.3-0.4-3.8c-0.3-1,0.2-1.9,0.6-2.8
			c0.4-2.2,0.4-4.3,0.4-6c0,0,0.4-2.3,0.1-2.3s-0.6,2-1.2,2.1c-0.6,0.1,0.2-0.6-0.1-0.8s0.8-1,0.1-1.5s-0.6-1.3-0.5-1.3
			c0.3-0.2,0.1,0.6,0.4,0.6s0.1-0.8,0.2-0.7c0.1,0.1,0,0.7,0.2,0.7c0.2,0,0.2-0.8,0.4-0.7c0.2,0.1,0,0.8,0.2,0.8s0.1-0.7,0.3-0.5
			c0.2,0.1-0.1,0.7,0.1,0.7c0.2,0,0.1-0.7,0.2-0.6c0.1,0.1-0.1,0.6,0.2,0.6s0-0.5,0.2-0.5c0.2,0,0,0.6,0.3,0.6c0.2,0,0-0.5,0.2-0.7
			c0.3-0.2,0.1,0.9,0.4,0.9s0.1-0.9,0.3-0.8c0.2,0.1-0.1,0.9,0.2,0.9s0.1-0.7,0.3-0.7c0.2-0.1,0,0.7,0.2,0.7s0.1-0.9,0.3-0.9
			c0.2,0,0.2,0.8,0.4,0.8s0-0.9,0.1-0.9c0.1,0,0.2,0.7,0.3,0.7c0.1,0,0.1-0.8,0.2-0.8c0.3,0.1,0.2,1.1-0.4,1.5
			c-0.4,0.7,0.2,1.5,0.1,2.3c0,0,0.4-1.1,0.5-1c-0.8,1.9,0.7,7.8,0.5,8.9c-0.3,0-0.4-1.7-0.6-1.7c-0.5,0.5-0.2,5.6,0,7
			c0,1.6-0.2,3.6-0.6,4.9c0.2,0.1,1.5-0.5,1.4-0.3c0,0.1-1.1,0.6-1,0.8c0.7,0.6,2.8,2.6,3,0.2c-0.7-0.3-1.9,0.3-2.5-0.1
			c0-0.1,0.7-0.5,1.4-0.5c0.6,0,1.2,0.2,1.2,0.1c0-0.2-0.2-1.3-0.1-1.6c-0.1-0.1-0.8,0.7-0.9,0.5c-0.1-0.2,0.7-0.7,0.9-1.1
			c0.2-0.7,0.1-1.6,0.2-2.4c0.3-1.7,1.2-3.7,1-5c0.5-0.4-0.1-0.3,0.1-0.8c0.2-0.4,0.2-2,0.1-2.1c-0.1-0.1-0.3,0.4-0.4,0.2
			c-0.1-0.2,0.6-1.1,0.4-1.3c-0.2-0.2-0.7,0.9-0.6,0.2c1.6-2.5,1.2-7.1,1.2-7.1c-0.2,0.6-1,3.6-1,3.6l0.3,0.1c0,0.2-0.4,0.7-0.4,0.7
			c0,0.1,0.7,0.4,0.7,0.4l-2.2,2.3l-0.5-3.3l0.7,0.2v-0.9h0.5l0.9-3.2c-0.3-0.1-0.7-2.6-0.4-2.5c0.2,0.1,0.1,0.8,0.4,0.7
			c0.2-0.1,0-0.8,0.1-0.7c0.1,0.1,0.2,0.7,0.3,0.6c0.2-1,0.6-1.1,1-3.2c0.2-1.7,0-3.7,0.1-3.6c0.2,0.1,0.3,1.5,0.6,1.5
			c0.3,0-0.2-1.8,0.5-1.9c0.4,0.1,0.7,1.9,0.4,2.4c0.5,0.1,0.8-0.9,0.8-1.4c0.4,0.1,0.5-0.2,0.5-0.5c0.3,0.2,0.6-0.4,0.5-0.5
			c1.1-0.4-0.1-2.4-0.4-2.9C116,108.2,116,107.9,116.1,107.5z"/>
		<path d="M110.5,125l-0.7-0.2l0.4,2.2c0,0,1.3-1.3,1.5-1.6c-0.1,0-0.7-0.3-0.7-0.3l0.4-0.7l-0.9-0.3V125z"/>
		<path d="M111.1,144.9c0-0.1-0.2-1.5-0.5-1.9C110.4,142.6,109.4,143.4,111.1,144.9z"/>
		<polygon points="118.3,100.9 118.8,100.7 119.1,99.7 118.7,99.7"/>
		<path d="M100.6,85.8c0.2-0.1,1.5-3.4,0.5-4.4C101.3,82.7,100.2,85.8,100.6,85.8z"/>
		<polygon points="119.5,97.1 118.8,99.5 119.3,99.3 119.9,97.2"/>
		<path d="M108,85.3c0.3-0.2-0.3-1.2-0.5-1.5C107.6,84,107.7,85.5,108,85.3z"/>
		<path d="M98.6,145.6c0.2,0.3,1.7-1.2,1.9-1.8l-0.8-0.1C99.4,144.4,98.3,145.4,98.6,145.6z"/>
		<path d="M102,85.4c1.3-1.2,3.4,1.7,4-0.7c-0.1-1.3-2.4-0.7-3.4-0.9c-0.5-0.1-0.4-1.5-0.7-1.4c0,1.7-0.9,3.9-0.9,3.9
			S101.7,86.2,102,85.4z"/>
	</g>
	<g id="beads">
		<use xlink:href="#dot" width="2.2" height="2.2" class="bead" transform="matrix(0.29 0 0 -0.29 101.18 87.61)"/>
		<use xlink:href="#dot" width="2.2" height="2.2" class="bead" transform="matrix(0.29 0 0 -0.29 101.04 86.89)"/>
		<use xlink:href="#dot" width="2.2" height="2.2" class="bead" transform="matrix(0.29 0 0 -0.29 101.36 88.29)"/>
		<use xlink:href="#dot" width="2.2" height="2.2" class="bead" transform="matrix(0.29 0 0 -0.29 101.61 89.07)"/>
		<use xlink:href="#dot" width="2.2" height="2.2" class="bead" transform="matrix(0.29 0 0 -0.29 102.00 89.82)"/>
		<use xlink:href="#dot" width="2.2" height="2.2" class="bead" transform="matrix(0.29 0 0 -0.29 102.50 90.51)"/>
		<use xlink:href="#dot" width="2.2" height="2.2" class="bead" transform="matrix(0.29 0 0 -0.29 103.12 91.03)"/>
		<use xlink:href="#dot" width="2.2" height="2.2" class="bead" transform="matrix(0.29 0 0 -0.29 103.81 91.39)"/>
		<use xlink:href="#dot" width="2.2" height="2.2" class="bead" transform="matrix(0.29 0 0 -0.29 104.57 91.55)"/>
		<use xlink:href="#dot" width="2.2" height="2.2" class="bead" transform="matrix(0.29 0 0 -0.29 105.33 91.47)"/>
		<use xlink:href="#dot" width="2.2" height="2.2" class="bead" transform="matrix(0.29 0 0 -0.29 106.00 91.23)"/>
		<use xlink:href="#dot" width="2.2" height="2.2" class="bead" transform="matrix(0.29 0 0 -0.29 106.58 90.79)"/>
		<use xlink:href="#dot" width="2.2" height="2.2" class="bead" transform="matrix(0.29 0 0 -0.29 106.92 90.22)"/>
		<use xlink:href="#dot" width="2.2" height="2.2" class="bead" transform="matrix(0.29 0 0 -0.29 107.18 89.61)"/>
		<use xlink:href="#dot" width="2.2" height="2.2" class="bead" transform="matrix(0.29 0 0 -0.29 107.39 88.96)"/>
		<use xlink:href="#dot" width="2.2" height="2.2" class="bead" transform="matrix(0.29 0 0 -0.29 107.45 88.29)"/>
		<use xlink:href="#dot" width="2.2" height="2.2" class="bead" transform="matrix(0.29 0 0 -0.29 107.41 87.56)"/>
		<use xlink:href="#dot" width="2.2" height="2.2" class="bead" transform="matrix(0.29 0 0 -0.29 107.25 86.79)"/>
	</g>
	<g id="ribbon" class="color-primary">
		<path d="M153.6,126.4c-1.2-0.5-3.2,5.4-3.2,5.4s0.7,0.1,0.8-0.4C151.4,129.8,154.9,126.8,153.6,126.4z"/>
		<path d="M107.9,166.9c-0.1-0.1-0.1,1.3-0.1,1.3c0.5-0.2,2.1-0.4,2-0.9C109.8,166.8,108.3,167.3,107.9,166.9z"/>
		<path d="M160.1,83.6c0-0.1,2.6-5.8-0.7-5.9c-3.2-0.3-5.5,8.2-5.5,13.1c0,0,4.3,0.9,4,0.7
			C155.6,89.9,160.1,83.7,160.1,83.6z"/>
		<path d="M159.1,86.2c-2,3-0.8,5.1-0.8,5.1s3-2.5,3.2-5.9C161.4,85,159.2,86.1,159.1,86.2z"/>
		<path d="M56.3,91c0,0,0.4-5.8,0-8.4s-1.5-4.4-3-4.6c-1.4-0.1-2,0.6-1.8,2.2c0.2,1.8,0.6,2.8,0.6,4.6
			c0,2-0.6,3.2-0.6,5.2c0,1.2,0.4,2,1.1,3c0.5-1.4,1.3-2.1,2.4-3.2C55.6,90.2,56.3,91,56.3,91z"/>
		<path d="M[0-9]+(\.[0-9]{2}),133.1c1.1,1.4,0.8,3.6,0.9,3.5c0.4-0.2,3.2-1.4,3.6-1.6c1.6-0.8,3.1,3.2,3.2,3c2.4-5-2.6-9.3-2.6-9.3
			s-0.4,2.3-1.2,2.9C67.2,132.4,64.8,133,64.1,133.1z"/>
		<path d="M68.2,130.6c0.4-0.1,0.8-2,0.8-2l-2,0.6C66.9,129.2,67.8,130.7,68.2,130.6z"/>
		<path d="M69.1,135.4c-0.6,0.2,0.7,3.6,0.7,3.6s1.7-0.5,1.6-0.8C71.3,138,69.9,135.1,69.1,135.4z"/>
		<path d="M99.7,167.3c0,0-0.9,3.1,0,6.1c0.4,1.3,8.8,1.6,9.9,0.3l0,0c1.2-1.4,0.9-4.4,0.6-6.2
			C108.8,169.5,99.1,168.8,99.7,167.3z"/>
		<path d="M100.1,167.4c-0.1,0.4,1.2,0.6,2,0.8c0,0,0-1.4-0.1-1.3C101.6,167.4,100.2,167,100.1,167.4z"/>
		<path d="M148.6,125c-1.8-1-3.8,1.2-4.2,2.5c-1.9,5.5-5.8,36.9-35.4,37.1c-0.4,0-1.6,0.6-1.1,1c0.8,1.1,2.5,0.7,2.7,1.2
			c0.5,1.1,0.4,3.6,0.4,4.8c34.4-3.2,36.6-35.9,40.1-42.8c1-3,2.3-2.7,2.3-2.7S149.3,125.4,148.6,125z"/>
		<path d="M62.3,116.8c-0.3-3.3,0-11.7,1.2-15.7c2.5-16-1.1-21.8-1.5-22.4c-0.5-0.7-8.3-1.2-7.8-0.9
			c4,2.1,2.7,10.1,2.7,13.2c0,4.7-1.8,16-1.6,23.4c0.4,14.9,5.3,18,5.4,18.1c2.7,1.2,7.6-1,7.3-1.3C64.1,127,62.6,120.2,62.3,116.8z"
			/>
		<path d="M101.9,165.6c0.2-0.8-1.3-0.9-1.5-0.9c-28-3.8-31.9-29.3-31.9-29.1c0.1,0.2-6.3,2.4-6,3.5
			c5.7,29.6,36.5,33.8,36.2,32.6c-0.5-2.3,0.5-5.1,0.5-5.1C102.2,166.3,101.9,165.6,101.9,165.6z"/>
		<path d="M158.3,77.3c0,0-8.3-0.1-8.5,0.1c-8,8.5-0.3,32,0.2,43c0.1,3.2-0.9,3.9-0.9,3.9l-0.3,0.4c0,0,0.9,0.3,2.3,0.7
			c0.8,0.2,2,0.3,2.7,0.6c2.1,0.9-3.1,5.1-2.3,6.2c1.6,2.3,7.2-8.8,5.6-15.1C148.1,82.6,158.3,77.3,158.3,77.3z"/>
	</g>
	<g id="text" class="color-primary">
		<use xlink:href="#L" width="9.1" height="12" x="-4.6" y="-6" transform="matrix(-0.86 0.52 0.52 0.86 148.70 179.14)"/>
		<use xlink:href="#L" width="9.1" height="12" x="-4.6" y="-6" transform="matrix(0.64 0.77 0.77 -0.64 171.26 50.01)"/>
		<use xlink:href="#L" width="9.1" height="12" x="-4.6" y="-6" transform="matrix(0.54 0.84 0.84 -0.54 178.02 59.67)"/>
		<use xlink:href="#G" width="12.8" height="12.3" x="-6.4" y="-6.2" transform="matrix(0.85 0.53 0.53 -0.85 154.81 35.69)"/>
		<use xlink:href="#I" width="5.4" height="11.8" x="-2.7" y="-5.9" transform="matrix(0.74 0.68 0.68 -0.74 164.11 42.82)"/>
		<use xlink:href="#I" width="5.4" height="11.8" x="-2.7" y="-5.9" transform="matrix(-0.43 0.91 0.91 0.43 182.93 141.00)"/>
		<use xlink:href="#I" width="5.4" height="11.8" x="-2.7" y="-5.9" transform="matrix(-0.91 0.41 0.41 0.91 139.68 183.48)"/>
		<use xlink:href="#I" width="5.4" height="11.8" x="-2.7" y="-5.9" transform="matrix(0.90 0.43 0.43 -0.90 144.39 28.75)"/>
		<use xlink:href="#I" width="5.4" height="11.8" x="-2.7" y="-5.9" transform="matrix(0.88 -0.47 -0.47 -0.88 65.57 29.12)"/>
		<use xlink:href="#M" width="14.8" height="12.3" x="-7.4" y="-6.2" transform="matrix(0.14 0.99 0.99 -0.14 189.76 88.11)"/>
		<use xlink:href="#R" width="11.3" height="11.9" x="-5.6" y="-6" transform="matrix(-0.16 0.99 0.99 0.16 190.07 118.80)"/>
		<use xlink:href="#M" width="14.8" height="12.3" x="-7.4" y="-6.2" transform="matrix(-0.94 -0.34 -0.34 0.94 78.89 186.64)"/>
		<use xlink:href="#T" width="10.7" height="12.7" id="XMLID_2_" x="-5.4" y="-6.4" transform="matrix(0.33 -0.95 -0.95 -0.33 23.87 77.25)"/>
		<use xlink:href="#T" width="10.7" height="12.7" x="-5.4" y="-6.4" transform="matrix(0.50 -0.87 -0.87 -0.50 29.22 64.58)"/>
		<use xlink:href="#A" width="12.3" height="12" x="-6.1" y="-6" transform="matrix(-0.60 -0.80 -0.80 0.60 36.92 156.22)"/>
		<use xlink:href="#A" width="12.3" height="12" x="-6.1" y="-6" transform="matrix(-0.88 -0.47 -0.47 0.88 64.21 180.24)"/>
		<use xlink:href="#C" width="11" height="12" x="-5.5" y="-6" transform="matrix(-0.49 -0.87 -0.87 0.49 29.35 144.68)"/>
		<use xlink:href="#C" width="11" height="12" x="-5.5" y="-6" transform="matrix(-0.94 0.34 0.34 0.94 128.87 187.11)"/>
		<use xlink:href="#E" width="9.2" height="11.9" x="-4.6" y="-6" transform="matrix(0.58 -0.81 -0.81 -0.58 36.77 53.42)"/>
		<use xlink:href="#E" width="9.2" height="11.9" x="-4.6" y="-6" transform="matrix(-0.31 0.95 0.95 0.31 186.93 131.51)"/>
		<use xlink:href="#E" width="9.2" height="11.9" x="-4.6" y="-6" transform="matrix(0.16 -0.99 -0.99 -0.16 20.81 89.91)"/>
		<use xlink:href="#U" width="12.5" height="12.1" x="-6.3" y="-6.1" transform="matrix(-0.68 0.73 0.73 0.68 169.48 161.53)"/>
		<use xlink:href="#U" width="12.5" height="12.1" x="-6.3" y="-6.1" transform="matrix(0.40 0.92 0.92 -0.40 183.94 71.96)"/>
		<use xlink:href="#U" width="12.5" height="12.1" x="-6.3" y="-6.1" transform="matrix(-0.11 -0.99 -0.99 0.11 20.31 114.85)"/>
		<use xlink:href="#S2" width="7.5" height="11.9" x="-3.8" y="-6" transform="matrix(0.93 0.36 0.36 -0.93 135.64 24.88)"/>
		<use xlink:href="#S2" width="7.5" height="11.9" x="-3.8" y="-6" transform="matrix(0.92 -0.40 -0.40 -0.92 74.48 24.98)"/>
		<use xlink:href="#S2" width="7.5" height="11.9" x="-3.8" y="-6" transform="matrix(0.81 -0.58 -0.58 -0.81 57.32 34.18)"/>
		<use xlink:href="#S2" width="7.5" height="11.9" x="-3.8" y="-6" transform="matrix(-0.69 -0.72 -0.72 0.69 45.03 165.83)"/>
		<use xlink:href="#S2" width="7.5" height="11.9" x="-3.8" y="-6" transform="matrix(-0.80 -0.60 -0.60 0.80 53.38 172.84)"/>
		<circle cx="81.7" cy="27.4" r="1"/>
		<use xlink:href="#H" width="12.7" height="11.8" x="-6.4" y="-5.9" transform="matrix(-0.30 -0.95 -0.95 0.30 23.39 130.38)"/>
		<use xlink:href="#B" width="10.3" height="11.6" x="-5.2" y="-5.8" transform="matrix(-0.78 0.63 0.63 0.78 159.57 171.51)"/>
		<use xlink:href="#P" width="9.8" height="11.8" id="XMLID_5_" x="-4.9" y="-5.7" transform="matrix(-0.51 0.86 0.86 0.51 178.46 150.52)"/>
		<use xlink:href="#AE" width="17" height="11.9" x="-8.5" y="-6" transform="matrix(-1.00 9.50e-02 9.50e-02 1.00 113.19 190.29)"/>
		<use xlink:href="#N" width="13" height="12.4" x="-6.4" y="-6.3" transform="matrix(0.72 -0.69 -0.69 -0.72 46.49 42.82)"/>
		<use xlink:href="#S2"  width="7.5" height="11.9" x="-3.8" y="-6" transform="matrix(6.17e-02 -1.00 -1.00 -6.17e-02 19.78 101.45)"/>
	</g>
	<g id="rings" class="color-secondary">
		<use xlink:href="#ring-cross" class="ring-cross" width="155" height="155" transform="matrix(1 0 0 -1 105.5 104.7377)"/>
		<use xlink:href="#ring-cross" class="ring-cross" width="155" height="155" transform="matrix(0.9986 -5.233596e-02 -5.233596e-02 -0.9986 105.4856 104.7119)"/>
		<use xlink:href="#ring-cross" class="ring-cross" width="155" height="155" transform="matrix(0.9945 -0.1045 -0.1045 -0.9945 105.4698 104.6868)"/>
		<use xlink:href="#ring-cross" class="ring-cross" width="155" height="155" transform="matrix(0.9877 -0.1564 -0.1564 -0.9877 105.4528 104.6627)"/>
		<use xlink:href="#ring-cross" class="ring-cross" width="155" height="155" transform="matrix(0.9781 -0.2079 -0.2079 -0.9781 105.4345 104.6395)"/>
		<use xlink:href="#ring-cross" class="ring-cross" width="155" height="155" transform="matrix(0.9659 -0.2588 -0.2588 -0.9659 105.4151 104.6172)"/>
		<use xlink:href="#ring-cross" class="ring-cross" width="155" height="155" transform="matrix(0.9511 -0.309 -0.309 -0.9511 105.3945 104.596)"/>
		<use xlink:href="#ring-cross" class="ring-cross" width="155" height="155" transform="matrix(0.9336 -0.3584 -0.3584 -0.9336 105.3728 104.5759)"/>
		<use xlink:href="#ring-cross" class="ring-cross" width="155" height="155" transform="matrix(0.9135 -0.4067 -0.4067 -0.9135 105.3501 104.557)"/>
		<use xlink:href="#ring-cross" class="ring-cross" width="155" height="155" transform="matrix(0.891 -0.454 -0.454 -0.891 105.3264 104.5393)"/>
		<use xlink:href="#ring-cross" class="ring-cross" width="155" height="155" transform="matrix(0.866 -0.5 -0.5 -0.866 105.3018 104.5228)"/>
		<use xlink:href="#ring-cross" class="ring-cross" width="155" height="155" transform="matrix(0.8387 -0.5446 -0.5446 -0.8387 105.2765 104.5077)"/>
		<use xlink:href="#ring-cross" class="ring-cross" width="155" height="155" transform="matrix(0.809 -0.5878 -0.5878 -0.809 105.2503 104.4939)"/>
		<use xlink:href="#ring-cross" class="ring-cross" width="155" height="155" transform="matrix(0.7771 -0.6293 -0.6293 -0.7771 105.2235 104.4815)"/>
		<use xlink:href="#ring-cross" class="ring-cross" width="155" height="155" transform="matrix(0.7431 -0.6691 -0.6691 -0.7431 105.196 104.4705)"/>
		<use xlink:href="#ring-cross" class="ring-cross" width="155" height="155" transform="matrix(0.7071 -0.7071 -0.7071 -0.7071 105.1681 104.461)"/>
		<use xlink:href="#ring-cross" class="ring-cross" width="155" height="155" transform="matrix(0.6691 -0.7431 -0.7431 -0.6691 105.1396 104.4529)"/>
		<use xlink:href="#ring-cross" class="ring-cross" width="155" height="155" transform="matrix(0.6293 -0.7771 -0.7771 -0.6293 105.1108 104.4463)"/>
		<use xlink:href="#ring-cross" class="ring-cross" width="155" height="155" transform="matrix(0.5878 -0.809 -0.809 -0.5878 105.0816 104.4413)"/>
		<use xlink:href="#ring-cross" class="ring-cross" width="155" height="155" transform="matrix(0.5446 -0.8387 -0.8387 -0.5446 105.0523 104.4378)"/>
		<use xlink:href="#ring-cross" class="ring-cross" width="155" height="155" transform="matrix(0.5 -0.866 -0.866 -0.5 105.0228 104.4358)"/>
		<use xlink:href="#ring-cross" class="ring-cross" width="155" height="155" transform="matrix(0.454 -0.891 -0.891 -0.454 104.9932 104.4354)"/>
		<use xlink:href="#ring-cross" class="ring-cross" width="155" height="155" transform="matrix(0.4067 -0.9135 -0.9135 -0.4067 104.9637 104.4365)"/>
		<use xlink:href="#ring-cross" class="ring-cross" width="155" height="155" transform="matrix(0.3584 -0.9336 -0.9336 -0.3584 104.9343 104.4392)"/>
		<use xlink:href="#ring-cross" class="ring-cross" width="155" height="155" transform="matrix(0.309 -0.9511 -0.9511 -0.309 104.905 104.4434)"/>
		<use xlink:href="#ring-cross" class="ring-cross" width="155" height="155" transform="matrix(0.2588 -0.9659 -0.9659 -0.2588 104.876 104.4491)"/>
		<use xlink:href="#ring-cross" class="ring-cross" width="155" height="155" transform="matrix(0.2079 -0.9781 -0.9781 -0.2079 104.8474 104.4564)"/>
		<use xlink:href="#ring-cross" class="ring-cross" width="155" height="155" transform="matrix(0.1564 -0.9877 -0.9877 -0.1564 104.8191 104.4651)"/>
		<use xlink:href="#ring-cross" class="ring-cross" width="155" height="155" transform="matrix(0.1045 -0.9945 -0.9945 -0.1045 104.7914 104.4753)"/>
		<use xlink:href="#ring-cross" class="ring-cross" width="155" height="155" transform="matrix(5.233634e-02 -0.9986 -0.9986 -5.233634e-02 104.7642 104.487)"/>
	</g>
	<g id="fleur-group" class="color-secondary">
		<use xlink:href="#dot"  width="2.2" height="2.2" x="-1.1" y="-1.1" transform="matrix(1 0 0 -1 104.92 19.30)"/>
		<use xlink:href="#fleur"  width="7.1" height="10.2" id="XMLID_41_" x="-3.6" y="-5.1" transform="matrix(1 0 0 -1 115.19 19.25)"/>
		<use xlink:href="#fleur"  width="7.1" height="10.2" x="-3.6" y="-5.1" transform="matrix(-1 0 0 1 94.98 19.35)"/>
		<use xlink:href="#dot"  width="2.2" height="2.2" x="-1.1" y="-1.1" transform="matrix(1 0 0 -1 86.11 20.40)"/>
		<use xlink:href="#dot"  width="2.2" height="2.2" x="-1.1" y="-1.1" transform="matrix(1 0 0 -1 89.11 19.66)"/>
		<use xlink:href="#dot"  width="2.2" height="2.2" x="-1.1" y="-1.1" transform="matrix(1 0 0 -1 120.89 19.65)"/>
		<use xlink:href="#dot"  width="2.2" height="2.2" x="-1.1" y="-1.1" transform="matrix(1 0 0 -1 123.89 20.41)"/>
		<use xlink:href="#tear"  width="1.8" height="3.5" id="XMLID_1_" x="-0.9" y="-1.8" transform="matrix(6.12e-17 1 1 -6.12e-17 108.52 19.30)"/>
		<use xlink:href="#tear"  width="1.8" height="3.5" x="-0.9" y="-1.8" transform="matrix(-1.85e-16 -1 -1 1.85e-16 101.48 19.30)"/>
		<use xlink:href="#tear"  width="1.8" height="3.5" id="XMLID_42_" x="-0.9" y="-1.8" transform="matrix(-1 0 0 1 105 22.82)"/>
		<use xlink:href="#tear"  width="1.8" height="3.5" x="-0.9" y="-1.8" transform="matrix(1 0 0 -1 105 15.78)"/>
		<use xlink:href="#tear"  width="1.8" height="3.5" id="XMLID_43_" x="-0.9" y="-1.8" transform="matrix(-0.71 0.71 0.71 0.71 107.49 21.79)"/>
		<use xlink:href="#tear"  width="1.8" height="3.5" x="-0.9" y="-1.8" transform="matrix(0.71 -0.71 -0.71 -0.71 102.51 16.81)"/>
		<use xlink:href="#tear"  width="1.8" height="3.5" id="XMLID_44_" x="-0.9" y="-1.8" transform="matrix(0.71 0.71 0.71 -0.71 107.49 16.81)"/>
		<use xlink:href="#tear"  width="1.8" height="3.5" x="-0.9" y="-1.8" transform="matrix(-0.71 -0.71 -0.71 0.71 102.51 21.79)"/>
	</g>
	<g id="sword-background" class="color-primary">
		<path id="shape" d="M108.3,39.2c0,0,1.1-1.2,0.5-2c-0.6-0.8-1.5,0.2-1.5,0.2s0-0.9-1.3-1.9c-1.7-1.2-3.5-0.3-3.5-0.3
				s-0.1-0.4-0.8-0.4c-1,0-1.4,1.6-0.3,2.3c-0.9,0.1-0.8,1.4-0.8,1.4s-0.7,0-0.8,0.5c-0.6-0.8-2.3,0.7-1.9,1.8
				c-0.2,0.2-2.5,1.7-4.4,3.5c-1.1,1-2.4,2.6-2.4,2.8c-0.3,1.2,1.3,2.9,2.9,4.6c1.6,1.8,5.2,4,5.8,4.3c-0.2,0.1-0.4,0.2-0.4,0.3
				C98.7,56.2,98.2,56,97,56s-2.6,0.6-2.6,0.6S93.7,56,92.3,56c-1.1,0-2.2,0.4-2.2,1.7c0,1.6,1.4,2.1,2.7,2.1s3.9-0.9,4-0.9
				c0.8,0.6,1.6,1,2.4,1c1.4,0,2.8-0.9,2.8-0.9s1.5,0.9,2.8,0.9s2.4-1,2.4-1s1.3,1,2.4,1c1.7,0,2.7-0.9,2.7-0.9s1.6,0.9,3,0.9
				s2.4-0.9,2.4-0.9s0.8,0.7,1.7,0.7s2.1-0.7,2.1-2s-1.4-1.9-3.2-1.9s-3.5,0.8-3.5,0.8S114,56,112.1,56c-1.9,0-2.2,0.5-2.3,0.5
				c-0.3-0.1-0.6-0.3-0.6-0.3s0.2-0.8-0.5-1.5s-1.1-2-1.8-2.3c-1.7-0.6-3.7-1.9-3.7-1.9l-0.4,0.4c0,0-2.2-0.5-2.5-1.2
				c-0.5-1.1-1.3-0.6-1.4-0.6c-0.3-1-1.2-1.4-1.2-1.4c1-0.5,2.7-2.3,3.2-3.5c0.7,0.2,1.8-0.6,2.2-1.1s0.2-1.4,0.2-1.4l1.5-0.3
				c0.2,0.5,0.7,0.6,0.9,0.6c0.4-0.1,0.9-0.7,0.9-0.7c7.2,4.3,20.3,18.2,21,19.7l0.3-0.1C127.4,56.8,118.9,47.3,108.3,39.2z"/>
	</g>
	<g id="sword-foreground" class="color-secondary">
		<path d="M92.9,59.4c-1.6,0-2.4-0.9-2.4-1.8c0-0.7,0.5-1.5,2.1-1.5c1.6,0,4.1,2.4,4.1,2.4S94.5,59.4,92.9,59.4z"/>
		<path d="M112.2,56.3c3.1,0,5.2,2.5,5.2,2.5c-0.9,0.7-2.2,0.9-3.1,0.6c-2.7-0.7-4.2-2.7-4.2-2.7
			C110.2,56.7,111.1,56.3,112.2,56.3z"/>
		<polygon points="99.8,39.4 100,39.7 98.6,40.8"/>
		<polygon points="99.5,41.8 100.6,40.4 101,40.7"/>
		<polygon points="101.2,40.9 101.4,41.1 100,42.3 99.8,42.1"/>
		<polygon points="99.2,41.6 98.8,41.2 100.4,40.1"/>
		<polygon points="99.5,39.3 98.4,40.7 98.2,40.3"/>
		<path d="M104.5,59.4c-1.8,0-4.9-2.8-4.9-2.8s0.6-0.5,2.8-0.5s4.6,2.5,4.6,2.5S106.4,59.4,104.5,59.4z"/>
		<path d="M103.7,51.3c0.7,0.7,2.9,1.2,3.3,1.5s0.4,1,0.9,1.5c1.1,0.9,0.9,1.7,0.9,1.7c-0.4-0.1-0.8-0.2-1.4-0.2
			c-1.9,0-2.8,0.5-2.8,0.5l-1-0.4C103.6,55.9,104.3,52.6,103.7,51.3z"/>
		<polygon points="100.5,42.8 100.2,42.5 101.7,41.3 102.1,41.8"/>
		<polygon points="101.1,43.4 100.7,43 102.5,42"/>
		<polygon points="101.4,43.6 102.6,42.1 102.8,42.7"/>
		<path d="M105.5,41.3c-0.9-0.5,1.4-1.3,1.2-3.1c0-0.3,0.1-0.8-1.4-1.9s-2.8-0.3-2.8-0.2c0,0,0,0.8-0.6,0.8
			c-0.3,0-0.8-0.2-0.8-0.9c0-0.7,0.4-0.9,0.7-0.9c0.3,0,0.6,0.2,0.7,0.4c0,0,1.7-0.9,3.2,0c1.7,1.1,1.6,2.4,1.6,2.4s0.5-1,1.1-0.8
			c0,0,0.8,0.2-0.1,1.5C108.2,38.8,106,41.6,105.5,41.3z"/>
		<path d="M107,40.9l1.1-1.4c10.1,7.8,18.3,16.6,19.5,21c-1.5-2.4-6.5-7.7-11.9-12.7C112.6,44.9,109.4,42.6,107,40.9z"/>
		<path d="M105.8,38.3c0-0.1,0.4-0.4,0.4-0.7c-0.1-0.3-0.6-0.8-1.4-1.2c-0.6-0.3-1.5-0.4-1.9-0.2c0,0.5-0.2,1.3-1.1,1.3
			s-0.8,1.7-0.8,1.7s-0.5-0.4-0.9,0.2c0.5,0.6,1.3,1.3,2.6,2.4c0.1-0.3,0.2-0.9,0.2-0.9s1.6,0.6,3.1-1.2c0.2-0.2,0.4-0.4,0.4-0.5
			C106.5,38.5,105.8,38.3,105.8,38.3z M105,39.3c0,0-1.5-0.7-2.5,0c0.3-1.1-0.1-1.9-0.1-1.9l0.6,0.2c0,0,0.6-0.6,0.5-1.4
			c0.3-0.1,0.8,0.3,0.6,0.6c0,0-0.5,1.1-1.1,0.8l0.7,0.7c0.5-0.7,0.9-1.6,1.2-1.4c0.4,0.3-0.7,1.6-1.2,1.4c0,0-0.1,0.5,0.6,0.5
			s1-1.1,1.2-1.3c0.3-0.2,0.5,0.2,0.3,0.5C105.4,38.4,105,39.3,105,39.3z"/>
		<path d="M103.2,51.5l-1.5-0.2c-0.3-0.1-0.4-0.3-0.6-0.5c-0.1-0.1-1-0.1-1.2-0.9c-0.3-0.8-0.8-0.4-0.8-0.4
			c0.1,0.5,0,1.4-0.6,1.3S98,49.9,98,49.9c0.1,0,0,0.5,0.5,0.5s0.2-1,0.2-1c-0.3-0.8-0.5-1-1.3-1.3c0,0.3,0.1,0.5,0.5,0.6
			c0.5,0.1,0.3,0.7-0.2,0.6c-0.2,0-0.4-0.1-0.6-0.5c-0.2-0.5,0-1.2,0.1-1.3c0.7-0.4,1.9-1.2,2.2-2.4c0.6,0.1,1.1-1.2,1.1-1.2
			l-1.1-1.3c-0.8,0.8-1.9,0.7-2,0.7c0,0,1.4-0.6,1.8-1.1c-0.2-0.1-0.8-0.8-1-1c-0.4,0.4-4,2.9-4.5,3.5c-0.1,0-0.5,0.9-0.7,1.1
			c-0.2,0.1-1.4,0.9-1.5,1.5c-0.4,0.7,1.1,2.6,2.9,4.4c2.3,2.2,5.4,4.2,5.6,4.3c0.2-0.1,0.4-0.1,0.6-0.1c-0.6-0.4-1.1-1-1.6-1.9
			c-0.3-0.7-1.6-1.6-1.6-1.6c0.1,0.1,0.6,0.1,1.2,0.3s1.3,1.5,1.4,1.6c0.2,0.3,1,1.1,1.6,1.5c0,0,0.5,0,0.8,0
			c-0.2-0.3-0.5-0.6-0.9-0.8c0,0,0.6-0.1,0.8,0c-1.1-1.1-1.3-2.7-1.3-2.7s0.6,0.9,1,1.4c0.4,0.5,1.1,1,1.1,1S103.6,52.6,103.2,51.5z
			 M98,45c0,0,1.2-0.6,1.8-0.9c0,0,0.6,0.4-0.2,0.6C98.7,45,98,45.1,98,45L98,45z M96.4,50.1C96.1,49.7,96,49.4,96,49
			c0,0-0.4,0.1-0.5-0.3s0.1-0.9,0.4-1.2s0.8-0.3,1-0.2c0.1,0-0.8,0.2-0.7,0.6c0,0.4,0.5-0.1,0.5,0c0.2,0.2-0.3,0.4-0.3,0.7
			c0,0.5,0.4,1.1,0.7,1.5C97.1,50.1,96.9,50.6,96.4,50.1z"/>
	</g>
	<g id="motto" class="color-secondary">
		<use xlink:href="#Sm-A" width="4.1" height="3.8" x="-2.1" y="-1.9" transform="matrix(0.91 0.42 0.42 -0.91 86.36 164.58)"/>
		<use xlink:href="#Sm-S" width="3.4" height="3.9" x="-1.7" y="-2" transform="matrix(0.97 -0.24 -0.24 -0.97 115.83 167.19)"/>
		<use xlink:href="#Sm-V" width="4.1" height="3.8" x="-2.1" y="-1.9" transform="matrix(0.96 -0.29 -0.29 -0.96 120.63 166.13)"/>
		<use xlink:href="#Sm-B" width="3.8" height="3.7" x="-1.9" y="-1.9" transform="matrix(0.89 -0.46 -0.46 -0.89 125.08 164.49)"/>
		<use xlink:href="#Sm-L" width="3.8" height="3.8" x="-1.9" y="-1.9" transform="matrix(0.75 -0.66 -0.66 -0.75 131.04 160.60)"/>
		<use xlink:href="#Sm-I" width="2.1" height="3.8" x="-1" y="-1.9" transform="matrix(0.67 -0.74 -0.74 -0.67 133.67 158.15)"/>
		<use xlink:href="#Sm-B" width="3.8" height="3.7" x="-1.9" y="-1.9" transform="matrix(0.61 -0.79 -0.79 -0.61 136.32 154.97)"/>
		<use xlink:href="#Sm-E" width="3.8" height="3.8" x="-1.9" y="-1.9" transform="matrix(0.52 -0.86 -0.86 -0.52 138.89 150.89)"/>
		<use xlink:href="#Sm-R" width="4.3" height="3.8" x="-2.2" y="-1.9" transform="matrix(0.45 -0.89 -0.89 -0.45 141.55 146.60)"/>
		<use xlink:href="#Sm-T" width="4" height="3.8" x="-2" y="-1.9" transform="matrix(0.38 -0.93 -0.93 -0.38 143.53 142.25)"/>
		<use xlink:href="#Sm-A" width="4.1" height="3.8" x="-2.1" y="-1.9" transform="matrix(0.34 -0.94 -0.94 -0.34 145.05 137.78)"/>
		<use xlink:href="#Sm-T" width="4" height="3.8" x="-2" y="-1.9" transform="matrix(0.32 -0.95 -0.95 -0.32 146.66 133.48)"/>
		<use xlink:href="#Sm-E" width="3.8" height="3.8" x="-1.9" y="-1.9" transform="matrix(0.27 -0.96 -0.96 -0.27 148.01 128.93)"/>
		<use xlink:href="#Sm-Q" width="4.2" height="5.2" x="-2.1" y="-2.6" transform="matrix(-2.84e-02 -1.00 -1.00 2.84e-02 153.89 118.12)"/>
		<use xlink:href="#Sm-V" width="4.1" height="3.8" x="-2.1" y="-1.9" transform="matrix(-0.20 -0.98 -0.98 0.20 152.96 113.02)"/>
		<use xlink:href="#Sm-I" width="2.1" height="3.8" x="-1" y="-1.9" transform="matrix(-0.21 -0.98 -0.98 0.21 151.92 108.72)"/>
		<use xlink:href="#Sm-E" width="3.8" height="3.8" x="-1.9" y="-1.9" transform="matrix(-0.20 -0.98 -0.98 0.20 150.90 104.36)"/>
		<use xlink:href="#Sm-T" width="4" height="3.8" x="-2" y="-1.9" transform="matrix(-0.12 -0.99 -0.99 0.12 150.08 98.99)"/>
		<use xlink:href="#Sm-E" width="3.8" height="3.8" x="-1.9" y="-1.9" transform="matrix(-2.35e-02 -1.00 -1.00 2.35e-02 149.74 93.44)"/>
		<use xlink:href="#Sm-M" width="5" height="3.8" x="-2.5" y="-1.9" transform="matrix(0.12 -0.99 -0.99 -0.12 150.16 87.30)"/>
		<use xlink:href="#Sm-E" width="3.8" height="3.8" x="-1.9" y="-1.9" transform="matrix(-0.13 0.99 0.99 0.13 60.48 89.6)"/>
		<use xlink:href="#Sm-N" width="3.7" height="3.9" x="-1.9" y="-1.9" transform="matrix(-5.28e-02 1.00 1.00 5.28e-02 60 94.65)"/>
		<use xlink:href="#Sm-S" width="3.4" height="3.9" x="-1.7" y="-2" transform="matrix(-7.33e-02 1.00 1.00 7.33e-02 59.60 99.57)"/>
		<use xlink:href="#Sm-E" width="3.8" height="3.8" x="-1.9" y="-1.9" transform="matrix(-8.17e-02 1.00 1.00 8.17e-02 59.38 104.26)"/>
		<use xlink:href="#Sm-P" width="3.6" height="3.8" x="-1.8" y="-1.9" transform="matrix(-5.84e-02 1.00 1.00 5.84e-02 58.43 112.35)"/>
		<use xlink:href="#Sm-E" width="3.8" height="3.8" x="-1.9" y="-1.9" transform="matrix(6.03e-02 1.00 1.00 -6.03e-02 58.62 116.95)"/>
		<use xlink:href="#Sm-T" width="4" height="3.8" x="-2" y="-1.9" transform="matrix(0.26 0.96 0.96 -0.26 59.34 121.51)"/>
		<use xlink:href="#Sm-T" width="4" height="3.8" x="-2" y="-1.9" transform="matrix(0.47 0.88 0.88 -0.47 62.00 128.47)"/>
		<use xlink:href="#Sm-I" width="2.1" height="3.8" x="-1" y="-1.9" transform="matrix(0.39 0.92 0.92 -0.39 60.31 125.00)"/>
		<use xlink:href="#Sm-P" width="3.6" height="3.8" x="-1.8" y="-1.9" transform="matrix(0.28 0.96 0.96 -0.28 68.54 145.75)"/>
		<use xlink:href="#Sm-L" width="3.8" height="3.8" x="-1.9" y="-1.9" transform="matrix(0.41 0.91 0.91 -0.41 70.16 149.83)"/>
		<use xlink:href="#Sm-A" width="4.1" height="3.8" x="-2.1" y="-1.9" transform="matrix(0.58 0.81 0.81 -0.58 72.62 153.63)"/>
		<use xlink:href="#Sm-C" width="3.6" height="3.9" x="-1.8" y="-1.9" transform="matrix(0.78 0.62 0.62 -0.78 75.77 157.45)"/>
		<use xlink:href="#Sm-I" width="2.1" height="3.8" x="-1" y="-1.9" transform="matrix(0.81 0.58 0.58 -0.81 78.60 159.97)"/>
		<use xlink:href="#Sm-M" width="5" height="3.8" x="-2.5" y="-1.9" transform="matrix(0.96 0.29 0.29 -0.96 91.42 166.63)"/>
		<use xlink:href="#Sm-D" width="4.1" height="3.7" x="-2.1" y="-1.9" transform="matrix(0.83 0.55 0.55 -0.83 81.84 162.33)"/>
	</g>
	</svg>
